<svg width="140" height="140" viewBox="0 0 140 140" fill="none" xmlns="http://www.w3.org/2000/svg">
<rect width="140" height="140" rx="5" fill="white"/>
<path d="M105 27L98.6228 103.491L69.9572 112L41.3704 103.503L35 27H105Z" fill="#264DE4"/>
<path d="M69.999 105.497L93.1623 98.621L98.612 33.2559H69.999V105.497Z" fill="#2965F1"/>
<path d="M70.0004 61.6299H49.6045L50.3899 71.0126H70.0004V61.6299Z" fill="#EBEBEB"/>
<path d="M70.0005 42.6382H69.9702H48.0264L48.823 52.0211H70.0005V42.6382Z" fill="#EBEBEB"/>
<path d="M50.7822 75.7036L52.01 90.4359L69.9609 95.7715L70.0012 95.7595V85.9975L69.9628 86.0085L60.2031 83.1868L59.5792 75.7036H54.8367H50.7822Z" fill="#EBEBEB"/>
<path d="M80.7617 71.0119L79.7445 83.1806L69.9707 86.0052V95.7668L87.9359 90.4358L88.0677 88.8506L90.127 64.1487L90.3408 61.6292L91.9228 42.6382H69.9707V52.0211H82.319L81.5216 61.6292H69.9707V71.0119H80.7617Z" fill="white"/>
</svg>
