<svg width="140" height="140" viewBox="0 0 140 140" fill="none" xmlns="http://www.w3.org/2000/svg">
<rect width="140" height="140" rx="5" fill="white"/>
<path d="M97.0785 105.165L70.461 112L43.915 105.171L38 43.7051H103" fill="#E44D26"/>
<path d="M97.072 48.7275H70.5V106.773L92.0085 101.251" fill="#F16529"/>
<path d="M90.8586 56.2666H70.4746V63.8061H90.1306M89.3961 71.5263H70.4746V98.9564L87.1601 94.6687M70.4746 79.0658H80.5041L79.5616 88.8455L70.4746 91.1157" fill="white"/>
<path d="M52.2859 79.0658H70.4924V71.5263H59.7219L58.9809 63.8061H70.4924V56.2666H50.0889M53.7874 94.6747L70.4729 98.9564L70.4989 98.9503V91.1097L70.4729 91.1157L61.3989 88.8515L60.8204 82.8355H52.6499" fill="#EBEBEB"/>
<path d="M51.9688 27V30.7878H48.1858V27M44.0518 27V38.4598H48.1858V34.6238H51.9688V38.4598H56.1028V27M57.8968 27V30.7999H57.9033H61.5433V38.4598H65.6773V30.7999H69.3173V27M80.7378 27L78.0923 31.0287L75.4403 27M71.1308 27V38.4598H75.1738V32.7811L78.0208 36.858H78.0923L80.9393 32.7811V38.4598H85.0538V27M87.1143 27V38.4598H97.0658V34.672H91.2483V27" fill="black"/>
</svg>
