<svg width="140" height="140" viewBox="0 0 140 140" fill="none" xmlns="http://www.w3.org/2000/svg">
<rect width="140" height="140" rx="5" fill="white"/>
<path d="M67.7165 28.0229C67.5337 28.0395 66.9521 28.0976 66.4286 28.1392C54.3558 29.2275 43.0474 35.7407 35.8851 45.7515C31.8969 51.3176 29.346 57.6314 28.3822 64.3191C28.0415 66.6536 28 67.3431 28 70.5083C28 73.6735 28.0415 74.3631 28.3822 76.6975C30.6921 92.6566 42.0503 106.065 57.455 111.033C60.2136 111.922 63.1217 112.529 66.4286 112.894C67.7165 113.035 73.2835 113.035 74.5714 112.894C80.2796 112.263 85.1153 110.85 89.8847 108.416C90.6158 108.042 90.7571 107.943 90.6574 107.86C90.5909 107.81 87.4751 103.631 83.7361 98.58L76.9394 89.4L68.4228 76.7972C63.7366 69.8686 59.8812 64.2028 59.848 64.2028C59.8148 64.1945 59.7815 69.7939 59.7649 76.6311C59.74 88.6024 59.7317 89.0843 59.5821 89.3667C59.3661 89.7738 59.1999 89.94 58.8509 90.1227C58.585 90.2557 58.3524 90.2806 57.0978 90.2806H55.6603L55.2781 90.0397C55.0288 89.8818 54.846 89.6741 54.7214 89.4332L54.5469 89.0594L54.5635 72.4025L54.5885 55.7373L54.846 55.4133C54.979 55.2388 55.2615 55.0145 55.4609 54.9065C55.8016 54.7404 55.9345 54.7237 57.3719 54.7237C59.067 54.7237 59.3495 54.7902 59.7898 55.272C59.9145 55.405 64.5259 62.3502 70.043 70.716C75.5601 79.0818 83.1046 90.5049 86.8104 96.1126L93.5406 106.306L93.8812 106.082C96.8974 104.121 100.088 101.33 102.614 98.4221C107.99 92.2495 111.455 84.7228 112.618 76.6975C112.958 74.3631 113 73.6735 113 70.5083C113 67.3431 112.958 66.6536 112.618 64.3191C110.308 48.3601 98.9497 34.9515 83.545 29.9835C80.828 29.1029 77.9365 28.4964 74.696 28.1309C73.8983 28.0478 68.4062 27.9564 67.7165 28.0229ZM85.1153 53.7268C85.5142 53.9262 85.8382 54.3084 85.9545 54.7071C86.021 54.9231 86.0376 59.5422 86.021 69.9517L85.9961 84.8889L83.3622 80.8514L80.7199 76.8138V65.9557C80.7199 58.9357 80.7532 54.9896 80.803 54.7985C80.936 54.3333 81.2268 53.9677 81.6256 53.7517C81.9663 53.5773 82.0909 53.5607 83.3954 53.5607C84.6251 53.5607 84.8412 53.5773 85.1153 53.7268Z" fill="black"/>
</svg>
