<svg width="140" height="140" viewBox="0 0 140 140" fill="none" xmlns="http://www.w3.org/2000/svg">
<rect width="140" height="140" rx="5" fill="white"/>
<path d="M70.5003 79.3783C75.3944 79.3783 79.3619 75.3658 79.3619 70.4162C79.3619 65.4666 75.3944 61.4541 70.5003 61.4541C65.6061 61.4541 61.6387 65.4666 61.6387 70.4162C61.6387 75.3658 65.6061 79.3783 70.5003 79.3783Z" fill="#00D8FF"/>
<path fill-rule="evenodd" clip-rule="evenodd" d="M70.5008 52.1943C82.3987 52.1943 93.4515 53.9209 101.785 56.8225C111.826 60.3186 118 65.6178 118 70.4162C118 75.4164 111.457 81.0461 100.674 84.6592C92.5224 87.3907 81.7949 88.8166 70.5008 88.8166C58.9212 88.8166 47.956 87.4782 39.7121 84.6292C29.2821 81.0238 23 75.3212 23 70.4162C23 65.6567 28.8945 60.3984 38.7944 56.9077C47.1593 53.9583 58.4851 52.1943 70.4992 52.1943H70.5008Z" stroke="#00D8FF" stroke-width="2.73408"/>
<path fill-rule="evenodd" clip-rule="evenodd" d="M54.8165 61.3574C60.7605 50.9338 67.7608 42.113 74.4096 36.2613C82.4203 29.2108 90.0436 26.4497 94.1536 28.8466C98.4368 31.3446 99.9902 39.8894 97.6982 51.1408C95.9671 59.6476 91.8277 69.7578 86.1854 79.6526C80.4004 89.7975 73.7763 98.7355 67.2181 104.533C58.9195 111.87 50.8964 114.525 46.695 112.074C42.6181 109.698 41.0591 101.906 43.0148 91.4882C44.6673 82.6864 48.8143 71.8828 54.8145 61.3572L54.8165 61.3574Z" stroke="#00D8FF" stroke-width="2.73408"/>
<path fill-rule="evenodd" clip-rule="evenodd" d="M54.8309 79.6791C48.8701 69.2673 44.8118 58.7264 43.1178 49.9784C41.0786 39.4384 42.5204 31.3797 46.6266 28.9758C50.9056 26.4705 59.0012 29.3767 67.4951 37.0041C73.9171 42.7708 80.5115 51.4453 86.1702 61.3308C91.9718 71.4659 96.32 81.7339 98.0116 90.3753C100.152 101.311 98.4196 109.666 94.2221 112.124C90.1492 114.508 82.6962 111.984 74.749 105.067C68.0344 99.2237 60.8505 90.1944 54.8309 79.679V79.6791Z" stroke="#00D8FF" stroke-width="2.73408"/>
</svg>
