<svg width="51" height="50" viewBox="0 0 51 50" fill="none" xmlns="http://www.w3.org/2000/svg">
<g clip-path="url(#clip0_829_260)">
<path d="M38.5775 17.2412L38.9008 15.5171H35.7076L36.336 16.5766L35.6714 17.2412H38.5775Z" fill="#3DB8DB"/>
<path d="M31.7319 21.1807L29.5191 19.8678C29.4766 19.8859 29.4345 19.9032 29.3932 19.9204L28.7559 22.4136H22.2441L21.6076 19.9204C21.5656 19.9032 21.5235 19.8851 21.4818 19.8678L19.2689 21.1807L17.0527 18.9653H13.5455L14.7709 28.7688C14.9321 30.0603 16.0353 31.0343 17.3369 31.0343H35.9913L38.2542 18.9653H33.9473L31.7319 21.1807Z" fill="#3DB8DB"/>
<path d="M39.5473 12.0688H37.569V13.6006L36.8155 13.793H39.2241L39.5473 12.0688Z" fill="#3DB8DB"/>
<path d="M16.8793 37.9312C16.8793 38.8833 16.1073 39.6553 15.1552 39.6553C14.203 39.6553 13.431 38.8833 13.431 37.9312C13.431 36.979 14.203 36.207 15.1552 36.207C16.1073 36.207 16.8793 36.979 16.8793 37.9312Z" fill="#3DB8DB"/>
<path d="M34.9828 37.9312C34.9828 38.8833 34.2108 39.6553 33.2586 39.6553C32.3065 39.6553 31.5345 38.8833 31.5345 37.9312C31.5345 36.979 32.3065 36.207 33.2586 36.207C34.2108 36.207 34.9828 36.979 34.9828 37.9312Z" fill="#3DB8DB"/>
<path d="M47.0517 15.5171V43.1033H48.7759V14.6551C48.7759 13.2294 47.6154 12.0688 46.1897 12.0688H41.3018L40.9785 13.793H45.3276C46.2785 13.793 47.0517 14.5662 47.0517 15.5171Z" fill="#3DB8DB"/>
<path d="M18.6035 46.5518H32.3966C32.8714 46.5518 33.2586 46.1645 33.2586 45.6897V44.8276H17.7414V45.6897C17.7414 46.1645 18.1287 46.5518 18.6035 46.5518Z" fill="#3DB8DB"/>
<path d="M39.2931 33.6205C39.2931 35.0462 38.1326 36.2067 36.7069 36.2067H36.2275C36.5242 36.7161 36.7069 37.2999 36.7069 37.9309C36.7069 39.8327 35.1604 41.3792 33.2586 41.3792C31.3569 41.3792 29.8104 39.8327 29.8104 37.9309C29.8104 37.2999 29.993 36.7161 30.2898 36.2067H18.124C18.4208 36.7161 18.6035 37.2999 18.6035 37.9309C18.6035 39.8327 17.057 41.3792 15.1552 41.3792C13.2534 41.3792 11.7069 39.8327 11.7069 37.9309C11.7069 36.0291 13.2534 34.4826 15.1552 34.4826H36.7069C37.1817 34.4826 37.569 34.0953 37.569 33.6205C37.569 33.1457 37.1817 32.7585 36.7069 32.7585H17.3369C15.1674 32.7585 13.3283 31.1354 13.0602 28.9827L11.5924 17.2412H15.3286L14.664 16.5766L15.2924 15.5171H5.67242V43.1033H45.3276V15.5171H40.6553L37.7079 31.236C38.6381 31.6283 39.2931 32.5488 39.2931 33.6205Z" fill="#3DB8DB"/>
<path d="M25.5 15.5172C28.3526 15.5172 30.6724 13.1974 30.6724 10.3448C30.6724 7.49212 28.3526 5.17236 25.5 5.17236C22.6473 5.17236 20.3276 7.49212 20.3276 10.3448C20.3276 13.1974 22.6473 15.5172 25.5 15.5172ZM25.5 6.8965C27.4018 6.8965 28.9483 8.44301 28.9483 10.3448C28.9483 12.2465 27.4018 13.7931 25.5 13.7931C23.5982 13.7931 22.0517 12.2465 22.0517 10.3448C22.0517 8.44301 23.5982 6.8965 25.5 6.8965Z" fill="#3DB8DB"/>
<path d="M3.94826 15.5171C3.94826 14.5662 4.72151 13.793 5.6724 13.793H14.1845L13.431 13.6006V12.0688H4.81033C3.38463 12.0688 2.22412 13.2294 2.22412 14.6551V43.1033H3.94826V15.5171Z" fill="#3DB8DB"/>
<path d="M27.2242 10.3447C27.2242 11.2969 26.4522 12.0689 25.5 12.0689C24.5479 12.0689 23.7759 11.2969 23.7759 10.3447C23.7759 9.39259 24.5479 8.62061 25.5 8.62061C26.4522 8.62061 27.2242 9.39259 27.2242 10.3447Z" fill="#3DB8DB"/>
<path d="M17.3827 13.2232C17.4829 13.5052 17.5966 13.7792 17.7241 14.0465L17.9224 14.462L16.8292 16.3052L19.5396 19.0156L21.3828 17.9224L21.7983 18.1207C22.0656 18.2482 22.3388 18.3619 22.6208 18.4621L23.0544 18.6157L23.5835 20.6897H27.4165L27.9456 18.6145L28.3792 18.4612C28.6612 18.3619 28.9344 18.2474 29.2017 18.1199L29.6171 17.9216L31.4604 19.0148L34.1708 16.3044L33.0776 14.4611L33.2759 14.0457C33.4034 13.7784 33.5171 13.5052 33.6172 13.2223L33.7717 12.7896L35.8448 12.2613V8.42832L33.7696 7.89921L33.6164 7.46565C33.5171 7.18363 33.4026 6.91044 33.275 6.64315L33.0768 6.22769L34.1699 4.38443L31.4595 1.67405L29.6171 2.76721L29.2017 2.56895C28.9344 2.44141 28.6612 2.32775 28.3792 2.22757L27.9456 2.07393L27.4165 0H23.5835L23.0544 2.0752L22.6208 2.22841C22.3388 2.32775 22.0656 2.44225 21.7983 2.56895L21.3828 2.76721L19.5396 1.67405L16.8292 4.38443L17.9224 6.22769L17.7241 6.64315C17.5966 6.91044 17.4829 7.18363 17.3827 7.46565L17.2291 7.89921L15.1552 8.42832V12.2613L17.2291 12.7904L17.3827 13.2232ZM25.5 3.44828C29.3027 3.44828 32.3965 6.54213 32.3965 10.3448C32.3965 14.1475 29.3027 17.2414 25.5 17.2414C21.6973 17.2414 18.6034 14.1475 18.6034 10.3448C18.6034 6.54213 21.6973 3.44828 25.5 3.44828ZM47.0517 3.44828H41.1637L39.5473 12.069H41.3018L41.9483 8.62069H47.0517C48.4774 8.62069 49.6379 7.46018 49.6379 6.03448C49.6379 4.60879 48.4774 3.44828 47.0517 3.44828ZM47.0517 6.89655H42.2716L42.5949 5.17241H47.0517C47.5265 5.17241 47.9138 5.55967 47.9138 6.03448C47.9138 6.50929 47.5265 6.89655 47.0517 6.89655Z" fill="#3DB8DB"/>
<path d="M34.9828 44.8276V45.6897C34.9828 47.1154 33.8222 48.2759 32.3966 48.2759H18.6034C17.1778 48.2759 16.0172 47.1154 16.0172 45.6897V44.8276H0.5V47.4138C0.5 48.8395 1.66051 50.0001 3.08621 50.0001H47.9138C49.3395 50.0001 50.5 48.8395 50.5 47.4138V44.8276H34.9828ZM5.67241 48.2759H3.94828V46.5518H5.67241V48.2759ZM9.12069 48.2759H7.39655V46.5518H9.12069V48.2759ZM12.569 48.2759H10.8448V46.5518H12.569V48.2759Z" fill="#3DB8DB"/>
</g>
<defs>
<clipPath id="clip0_829_260">
<rect width="50" height="50" fill="white" transform="translate(0.5)"/>
</clipPath>
</defs>
</svg>
