<svg width="51" height="50" viewBox="0 0 51 50" fill="none" xmlns="http://www.w3.org/2000/svg">
<path d="M15.534 32.655L14.5444 32.5202C14.3649 32.4953 14.2213 32.3704 14.1701 32.2056C14.0675 31.9061 13.9445 31.6113 13.7957 31.3366C13.7137 31.1769 13.7239 30.9921 13.8316 30.8474L14.4315 30.0732C14.57 29.8934 14.5546 29.6437 14.3905 29.484L12.9497 28.0807C12.7856 27.921 12.5293 27.906 12.3446 28.0408L11.5499 28.625C11.4063 28.7299 11.2114 28.7399 11.0525 28.66C10.7653 28.5152 10.468 28.3953 10.1552 28.2954C9.98086 28.2404 9.85265 28.1006 9.83215 27.9309L9.69369 26.9721C9.66294 26.7473 9.46808 26.5825 9.23732 26.5825H7.19145C6.96068 26.5825 6.76589 26.7473 6.73514 26.9721L6.60177 27.9309C6.57612 28.1006 6.44791 28.2404 6.27361 28.2954C5.96601 28.3953 5.66344 28.5152 5.37628 28.66C5.21732 28.7399 5.02762 28.7299 4.87891 28.625L4.08413 28.0408C3.90467 27.906 3.64316 27.921 3.48427 28.0807L2.03825 29.484C1.87421 29.6437 1.8588 29.8934 1.99726 30.0732L2.59718 30.8474C2.70483 30.9921 2.71508 31.1769 2.63308 31.3366C2.48438 31.6113 2.36132 31.9061 2.25877 32.2056C2.20746 32.3755 2.06391 32.5003 1.88446 32.5253L0.89997 32.655C0.669205 32.6901 0.5 32.8798 0.5 33.1045V35.087C0.5 35.3118 0.669205 35.5015 0.89997 35.5315L1.88446 35.6663C2.06391 35.6914 2.20746 35.8162 2.25877 35.986C2.36132 36.2856 2.48438 36.5803 2.63308 36.855C2.71508 37.0147 2.70483 37.1996 2.59718 37.3393L1.99726 38.1184C1.8588 38.2982 1.87421 38.548 2.03825 38.7077L3.48427 40.111C3.64316 40.2707 3.90467 40.2857 4.08413 40.1509L4.87891 39.5666C5.02252 39.4617 5.21223 39.4518 5.37628 39.5316C5.66344 39.6765 5.96086 39.7964 6.27361 39.8962C6.44791 39.9511 6.57612 40.091 6.60177 40.2608L6.73514 41.2195C6.76589 41.4443 6.96068 41.6091 7.19145 41.6091H9.23732C9.46808 41.6091 9.66294 41.4443 9.69369 41.2195L9.83215 40.2608C9.85265 40.091 9.98086 39.9511 10.1552 39.8962C10.468 39.7964 10.7653 39.6765 11.0525 39.5316C11.2166 39.4518 11.4063 39.4617 11.5499 39.5666L12.3446 40.1509C12.5293 40.2857 12.7856 40.2707 12.9497 40.111L14.3905 38.7077C14.5546 38.548 14.57 38.2982 14.4315 38.1184L13.8316 37.3393C13.7239 37.1996 13.7137 37.0147 13.7957 36.855C13.9445 36.5803 14.0675 36.2856 14.1701 35.986C14.2265 35.8162 14.3649 35.6914 14.5444 35.6663L15.534 35.5315C15.7596 35.5015 15.9288 35.3118 15.9288 35.087V33.0995C15.9288 32.8798 15.7596 32.6901 15.534 32.655ZM8.21432 37.7644C6.13737 37.7644 4.44741 36.1185 4.44741 34.0962C4.44741 32.0729 6.13737 30.427 8.21432 30.427C10.2918 30.427 11.9817 32.0729 11.9817 34.0962C11.9817 36.1185 10.2918 37.7644 8.21432 37.7644Z" fill="#3DB8DB"/>
<path d="M8.21433 31.4688C6.727 31.4688 5.51697 32.6477 5.51697 34.0963C5.51697 35.5449 6.727 36.7229 8.21433 36.7229C9.70219 36.7229 10.9122 35.5449 10.9122 34.0963C10.9122 32.6477 9.70219 31.4688 8.21433 31.4688Z" fill="#3DB8DB"/>
<path d="M42.7855 10.896C41.2982 10.896 40.0881 12.075 40.0881 13.5236C40.0881 14.9721 41.2982 16.1501 42.7855 16.1501C44.2734 16.1501 45.4834 14.9721 45.4834 13.5236C45.4834 12.075 44.2734 10.896 42.7855 10.896Z" fill="#3DB8DB"/>
<path d="M50.1052 12.0823L49.1156 11.9475C48.9361 11.9225 48.7926 11.7977 48.7413 11.6329C48.6387 11.3333 48.5157 11.0386 48.367 10.7639C48.2849 10.6042 48.2952 10.4193 48.4029 10.2746L49.0028 9.50047C49.1413 9.32067 49.1258 9.07093 48.9618 8.91122L47.5209 7.50792C47.3568 7.34822 47.1005 7.33321 46.9159 7.468L46.1211 8.05228C45.9775 8.15719 45.7827 8.1671 45.6237 8.08725C45.3366 7.94242 45.0392 7.82251 44.7264 7.72269C44.5521 7.66763 44.4239 7.52789 44.4034 7.35813L44.2649 6.39937C44.2342 6.17456 44.0393 6.00977 43.8086 6.00977H41.7627C41.532 6.00977 41.3371 6.17456 41.3064 6.39937L41.1731 7.35813C41.1474 7.52789 41.0192 7.66763 40.8449 7.72269C40.5372 7.82251 40.2347 7.94242 39.9476 8.08725C39.7886 8.1671 39.5989 8.15719 39.4502 8.05228L38.6554 7.468C38.476 7.33321 38.2144 7.34822 38.0555 7.50792L36.6095 8.91122C36.4454 9.07093 36.4301 9.32067 36.5685 9.50047L37.1684 10.2746C37.2761 10.4193 37.2864 10.6042 37.2043 10.7639C37.0556 11.0386 36.9325 11.3333 36.83 11.6329C36.7787 11.8028 36.6351 11.9275 36.4557 11.9526L35.4712 12.0823C35.2405 12.1174 35.0713 12.3071 35.0713 12.5318V14.5143C35.0713 14.7391 35.2405 14.9288 35.4712 14.9588L36.4557 15.0936C36.6351 15.1186 36.7787 15.2435 36.83 15.4132C36.9325 15.7128 37.0556 16.0076 37.2043 16.2822C37.2864 16.4419 37.2761 16.6268 37.1684 16.7666L36.5685 17.5457C36.4301 17.7255 36.4454 17.9752 36.6095 18.1349L38.0555 19.5382C38.2144 19.6979 38.476 19.7129 38.6554 19.5781L39.4502 18.9939C39.5937 18.8889 39.7835 18.879 39.9476 18.9589C40.2347 19.1037 40.5321 19.2236 40.8449 19.3234C41.0192 19.3784 41.1474 19.5182 41.1731 19.688L41.3064 20.6468C41.3371 20.8716 41.532 21.0364 41.7627 21.0364H43.8086C44.0393 21.0364 44.2342 20.8716 44.2649 20.6468L44.4034 19.688C44.4239 19.5182 44.5521 19.3784 44.7264 19.3234C45.0392 19.2236 45.3366 19.1037 45.6237 18.9589C45.7878 18.879 45.9775 18.8889 46.1211 18.9939L46.9159 19.5781C47.1005 19.7129 47.3568 19.6979 47.5209 19.5382L48.9618 18.1349C49.1258 17.9752 49.1413 17.7255 49.0028 17.5457L48.4029 16.7666C48.2952 16.6268 48.2849 16.4419 48.367 16.2822C48.5157 16.0076 48.6387 15.7128 48.7413 15.4132C48.7977 15.2435 48.9361 15.1186 49.1156 15.0936L50.1052 14.9588C50.3308 14.9288 50.5001 14.7391 50.5001 14.5143V12.5268C50.5001 12.3071 50.3308 12.1174 50.1052 12.0823ZM42.7855 17.1917C40.7086 17.1917 39.0186 15.5457 39.0186 13.5234C39.0186 11.5001 40.7086 9.85422 42.7855 9.85422C44.863 9.85422 46.553 11.5001 46.553 13.5234C46.553 15.5457 44.863 17.1917 42.7855 17.1917Z" fill="#3DB8DB"/>
<path d="M13.0058 44.271H37.9939C38.8049 44.271 39.4645 43.6281 39.4645 42.8387V20.2888L39.2992 20.4103C39.0449 20.6016 38.7138 20.7114 38.378 20.7114C37.9685 20.7114 37.5716 20.5487 37.2881 20.2638L35.854 18.8722C35.3098 18.3422 35.2503 17.5223 35.7119 16.9211L36.0895 16.4318C36.0373 16.3179 35.9861 16.1989 35.9376 16.0748L35.3218 15.9904C34.5735 15.8947 34.0016 15.26 34.0016 14.5143V12.5317C34.0016 11.7911 34.5494 11.1696 35.3041 11.0536L35.9386 10.9702C35.9882 10.8451 36.0383 10.7261 36.0906 10.6132L35.7146 10.1279C35.2571 9.53589 35.3171 8.69666 35.8529 8.1748L37.3006 6.76998C37.569 6.49939 37.967 6.33459 38.378 6.33459C38.7122 6.33459 39.0417 6.44344 39.3065 6.6418L39.4645 6.75815V5.07829C39.4645 4.2889 38.8049 3.646 37.9939 3.646H13.0058C12.1947 3.646 11.5352 4.2889 11.5352 5.07829V27.3304L11.6993 27.2096C11.973 27.0113 12.291 26.9075 12.6247 26.9075C13.0342 26.9075 13.4191 27.0642 13.7084 27.347L15.1466 28.7477C15.6835 29.2706 15.743 30.1108 15.2845 30.7008L14.9095 31.1851C14.9612 31.298 15.0119 31.416 15.0605 31.5391L15.6814 31.6235C16.4543 31.7445 16.998 32.3641 16.998 33.0995V35.0872C16.998 35.8308 16.4298 36.4656 15.6762 36.5643L15.062 36.6477C15.0129 36.7718 14.9628 36.8898 14.9101 37.0037L15.2871 37.4941C15.742 38.0841 15.6819 38.9223 15.1466 39.4441L13.7058 40.8479C13.417 41.1297 13.0326 41.2843 12.6247 41.2843C12.2947 41.2843 11.9667 41.1775 11.7019 40.9843L11.5352 40.8618V42.8387C11.5352 43.6281 12.1947 44.271 13.0058 44.271ZM16.0745 25.0002C16.0745 19.9383 20.3025 15.8205 25.4998 15.8205C30.6971 15.8205 34.9252 19.9383 34.9252 25.0002C34.9252 30.062 30.6971 34.1798 25.4998 34.1798C20.3025 34.1798 16.0745 30.062 16.0745 25.0002Z" fill="#3DB8DB"/>
<path d="M9.23703 25.5412C9.74432 25.5412 10.1857 25.8002 10.4657 26.1813V5.07812C10.4657 3.71399 11.6052 2.60417 13.0058 2.60417H37.9939C39.3946 2.60417 40.5341 3.71399 40.5341 5.07812V5.60786C40.8139 5.22715 41.2553 4.96826 41.7627 4.96826H43.1963C43.1348 2.2157 40.8347 0 37.9937 0H13.006C10.1264 0 7.79199 2.27356 7.79199 5.07812V25.5412H9.23703Z" fill="#3DB8DB"/>
<path d="M25.4999 33.1379C30.1071 33.1379 33.8557 29.4869 33.8557 24.9998C33.8557 20.5127 30.1071 16.8618 25.4999 16.8618C20.8927 16.8618 17.144 20.5127 17.144 24.9998C17.144 29.4869 20.8927 33.1379 25.4999 33.1379ZM27.9455 24.066L30.0292 25.7068C30.1546 25.8055 30.2277 25.954 30.2277 26.1117C30.2277 26.2694 30.1546 26.4179 30.0292 26.5166L27.9455 28.1574C27.8463 28.2357 27.7277 28.2734 27.6097 28.2734C27.4536 28.2734 27.299 28.2072 27.1935 28.0801C27.0076 27.8563 27.0431 27.5287 27.2729 27.3477L28.8422 26.1117L27.2729 24.8757C27.0431 24.6947 27.0076 24.3671 27.1935 24.1433C27.3784 23.9205 27.7152 23.8839 27.9455 24.066ZM26.3057 20.9868C26.3992 20.7131 26.7015 20.5646 26.982 20.6562C27.2624 20.7467 27.4139 21.0417 27.3209 21.3143L24.6941 29.0129C24.6194 29.2316 24.4105 29.37 24.1864 29.37C24.1306 29.37 24.0736 29.3618 24.0178 29.3435C23.7373 29.253 23.5859 28.958 23.6788 28.6853L26.3057 20.9868ZM20.9705 23.4831L23.0542 21.8423C23.2851 21.6602 23.6209 21.6968 23.8062 21.9196C23.9922 22.1434 23.9566 22.4709 23.7269 22.652L22.1575 23.888L23.7269 25.1239C23.9566 25.305 23.9922 25.6326 23.8062 25.8564C23.7008 25.9835 23.5462 26.0496 23.39 26.0496C23.272 26.0496 23.1534 26.012 23.0542 25.9337L20.9705 24.2928C20.8451 24.1942 20.772 24.0457 20.772 23.888C20.772 23.7303 20.8451 23.5818 20.9705 23.4831Z" fill="#3DB8DB"/>
<path d="M41.7627 22.0784C41.2557 22.0784 40.8141 21.8198 40.5341 21.439V42.8385C40.5341 44.2027 39.3946 45.3125 37.9939 45.3125H13.0058C11.6052 45.3125 10.4657 44.2027 10.4657 42.8385V42.0133C10.1859 42.3927 9.74419 42.6514 9.23703 42.6514H7.79199V44.9219C7.79199 47.7264 10.1264 50 13.006 50H37.9937C40.8733 50 43.2077 47.7264 43.2077 44.9219V22.0784H41.7627ZM28.6417 48.2422H22.3581C22.0625 48.2422 21.8233 48.0092 21.8233 47.7213C21.8233 47.4335 22.0625 47.2005 22.3581 47.2005H28.6417C28.9373 47.2005 29.1764 47.4335 29.1764 47.7213C29.1764 48.0092 28.9373 48.2422 28.6417 48.2422Z" fill="#3DB8DB"/>
</svg>
