<svg width="50" height="50" viewBox="0 0 50 50" fill="none" xmlns="http://www.w3.org/2000/svg">
    <path
        d="M46.7321 0H3.26786C2.40129 0.000389165 1.57034 0.322281 0.957593 0.894947C0.344841 1.46761 0.000416407 2.2442 0 3.05407V27.3782H50V3.05407C49.9996 2.2442 49.6552 1.46761 49.0424 0.894947C48.4296 0.322281 47.5987 0.000389165 46.7321 0ZM39.6786 6.46696C39.679 6.57664 39.6562 6.68533 39.6114 6.78674C39.5667 6.88815 39.501 6.9803 39.418 7.05786C39.335 7.13542 39.2364 7.19687 39.1279 7.23867C39.0194 7.28047 38.9031 7.30179 38.7857 7.3014H29.7232C29.4864 7.3014 29.2593 7.21349 29.0919 7.057C28.9244 6.90051 28.8304 6.68826 28.8304 6.46696C28.8304 6.24565 28.9244 6.0334 29.0919 5.87691C29.2593 5.72042 29.4864 5.63251 29.7232 5.63251H38.7857C38.9033 5.63143 39.0199 5.65227 39.1288 5.69382C39.2376 5.73537 39.3365 5.7968 39.4196 5.8745C39.5028 5.9522 39.5685 6.04462 39.613 6.14635C39.6574 6.24808 39.6797 6.35707 39.6786 6.46696ZM20.8036 11.2901C20.9259 11.477 20.965 11.7013 20.9123 11.9148C20.8597 12.1284 20.7195 12.3141 20.5219 12.4321C20.3243 12.5501 20.0851 12.591 19.8556 12.546C19.6262 12.5009 19.4247 12.3736 19.2946 12.1913L17.8125 10.0384L16.4375 12.0411C16.3061 12.2218 16.1041 12.3473 15.8748 12.3905C15.6456 12.4338 15.4074 12.3914 15.2112 12.2724C15.015 12.1534 14.8765 11.9674 14.8253 11.7541C14.7742 11.5409 14.8144 11.3174 14.9375 11.1315L16.75 8.49466L14.8304 5.70761C14.7082 5.52178 14.6687 5.2987 14.7201 5.08599C14.7716 4.87328 14.9099 4.68778 15.1057 4.56908C15.3014 4.45039 15.5391 4.4079 15.7679 4.45068C15.9967 4.49346 16.1985 4.61812 16.3304 4.79806L17.8125 6.95093L19.4018 4.64786C19.5322 4.46613 19.7335 4.33934 19.9627 4.29465C20.1919 4.24995 20.4307 4.2909 20.6279 4.40873C20.8252 4.52655 20.9653 4.71189 21.0181 4.92504C21.071 5.13819 21.0324 5.36221 20.9107 5.54912L18.875 8.49466L20.8036 11.2901ZM5.5 9.57109V4.96495C5.5 4.74364 5.59407 4.5314 5.76151 4.37491C5.92895 4.21842 6.15606 4.13051 6.39286 4.13051C6.62966 4.13051 6.85676 4.21842 7.0242 4.37491C7.19164 4.5314 7.28571 4.74364 7.28571 4.96495V9.57109C7.29113 9.95838 7.45954 10.3281 7.7545 10.6002C8.04946 10.8722 8.44721 11.0248 8.86164 11.0248C9.27607 11.0248 9.67382 10.8722 9.96876 10.6001C10.2637 10.328 10.4321 9.95831 10.4375 9.57103V4.96495C10.4417 4.74623 10.5376 4.53779 10.7046 4.3845C10.8716 4.23121 11.0963 4.14532 11.3304 4.14533C11.5645 4.14533 11.7892 4.23123 11.9561 4.38453C12.1231 4.53783 12.219 4.74628 12.2232 4.965V9.57114C12.2141 10.3988 11.8559 11.1896 11.2264 11.7718C10.597 12.354 9.74718 12.6806 8.86158 12.6806C7.97598 12.6806 7.12616 12.354 6.49673 11.7718C5.8673 11.1895 5.50912 10.3987 5.5 9.57109ZM18.8214 23.9987H9.75C9.51549 23.9954 9.29177 23.9061 9.12716 23.7499C8.96256 23.5938 8.87029 23.3834 8.87029 23.1642C8.87029 22.945 8.96256 22.7346 9.12716 22.5785C9.29177 22.4224 9.51549 22.333 9.75 22.3298H18.8214C19.0559 22.333 19.2797 22.4224 19.4443 22.5785C19.6089 22.7346 19.7011 22.945 19.7011 23.1642C19.7011 23.3834 19.6089 23.5938 19.4443 23.7499C19.2797 23.9061 19.0559 23.9954 18.8214 23.9987ZM20.1518 19.1589H8.54464C8.31024 19.1555 8.08666 19.0661 7.92218 18.91C7.7577 18.7538 7.66551 18.5435 7.66551 18.3244C7.66551 18.1053 7.7577 17.895 7.92218 17.7389C8.08666 17.5828 8.31024 17.4934 8.54464 17.49H20.1518C20.3857 17.494 20.6086 17.5837 20.7726 17.7398C20.9365 17.8958 21.0283 18.1057 21.0283 18.3244C21.0283 18.5431 20.9365 18.7531 20.7726 18.9091C20.6086 19.0652 20.3857 19.1548 20.1518 19.1589ZM36.5804 21.8458C36.5717 22.7722 36.1719 23.6579 35.4678 24.3101C34.7638 24.9624 33.8127 25.3283 32.8214 25.3283C31.8301 25.3283 30.8789 24.9623 30.1749 24.3101C29.471 23.6578 29.0711 22.7721 29.0625 21.8457V16.4886C29.0671 16.2702 29.1631 16.0621 29.3301 15.909C29.497 15.756 29.7215 15.6703 29.9554 15.6703C30.1892 15.6703 30.4137 15.7561 30.5807 15.9091C30.7476 16.0621 30.8437 16.2702 30.8482 16.4887V21.8458C30.8539 22.3314 31.0642 22.7954 31.4337 23.1369C31.8031 23.4784 32.3018 23.67 32.8215 23.67C33.3411 23.67 33.8398 23.4784 34.2092 23.1369C34.5786 22.7953 34.789 22.3314 34.7946 21.8457V16.4886C34.7946 16.2673 34.8887 16.0551 35.0562 15.8986C35.2236 15.7421 35.4507 15.6542 35.6875 15.6542C35.9243 15.6542 36.1514 15.7421 36.3188 15.8986C36.4863 16.0551 36.5804 16.2673 36.5804 16.4886V21.8458ZM39.4464 24.5244C39.4429 24.7435 39.3473 24.9526 39.1803 25.1065C39.0132 25.2603 38.7881 25.3465 38.5536 25.3465C38.319 25.3465 38.0939 25.2603 37.9269 25.1065C37.7598 24.9526 37.6642 24.7435 37.6607 24.5244V16.4886C37.6642 16.2695 37.7598 16.0604 37.9269 15.9066C38.0939 15.7527 38.319 15.6665 38.5536 15.6665C38.7881 15.6665 39.0132 15.7527 39.1803 15.9066C39.3473 16.0604 39.4429 16.2695 39.4464 16.4886V24.5244ZM40.0625 12.5751H28.4464C28.212 12.5717 27.9884 12.4823 27.824 12.3262C27.6595 12.1701 27.5673 11.9598 27.5673 11.7407C27.5673 11.5216 27.6595 11.3112 27.824 11.1551C27.9884 10.999 28.212 10.9096 28.4464 10.9062H40.0625C40.2969 10.9096 40.5205 10.999 40.685 11.1551C40.8494 11.3112 40.9416 11.5216 40.9416 11.7407C40.9416 11.9598 40.8494 12.1701 40.685 12.3262C40.5205 12.4823 40.2969 12.5717 40.0625 12.5751Z"
        fill="#3DB8DB" />
    <path
        d="M4.53735e-06 29.0471V34.0037C-0.000711217 34.4054 0.0832609 34.8032 0.247123 35.1745C0.410985 35.5458 0.651525 35.8833 0.955 36.1677C1.25847 36.4521 1.61893 36.6778 2.01578 36.832C2.41263 36.9862 2.8381 37.0657 3.26786 37.0661H46.2321C47.2314 37.066 48.1896 36.6949 48.8962 36.0346C49.6028 35.3742 49.9998 34.4787 50 33.5448V29.0471H4.53735e-06ZM22.2589 32.2264H27.75C27.9845 32.2296 28.2082 32.319 28.3728 32.4751C28.5374 32.6312 28.6297 32.8416 28.6297 33.0608C28.6297 33.28 28.5374 33.4904 28.3728 33.6465C28.2082 33.8027 27.9845 33.892 27.75 33.8953H22.2589C22.0244 33.892 21.8007 33.8027 21.6361 33.6465C21.4715 33.4904 21.3792 33.28 21.3792 33.0608C21.3792 32.8416 21.4715 32.6312 21.6361 32.4751C21.8007 32.319 22.0244 32.2296 22.2589 32.2264Z"
        fill="#3DB8DB" />
    <path
        d="M30.4554 42.832L29.6518 38.7349C28.4626 38.7349 21.3661 38.7349 21.3661 38.7349L20.5625 42.832C22.9122 42.8324 28.1054 42.8317 30.4554 42.832Z"
        fill="#3DB8DB" />
    <path
        d="M32.5536 44.501H17.4464C16.8545 44.5012 16.2869 44.721 15.8683 45.1122C15.4498 45.5034 15.2145 46.0339 15.2143 46.5871V49.1655C15.2139 49.2752 15.2367 49.3839 15.2814 49.4853C15.3262 49.5867 15.3919 49.6789 15.4749 49.7564C15.5579 49.834 15.6565 49.8954 15.765 49.9372C15.8735 49.979 15.9898 50.0004 16.1072 50H33.8929C34.0102 50.0004 34.1265 49.979 34.235 49.9372C34.3435 49.8954 34.4421 49.834 34.5251 49.7564C34.6081 49.6789 34.6739 49.5867 34.7186 49.4853C34.7633 49.3839 34.7861 49.2752 34.7857 49.1655V46.5871C34.7855 46.0339 34.5503 45.5034 34.1317 45.1122C33.7132 44.721 33.1455 44.5012 32.5536 44.501Z"
        fill="#3DB8DB" />
</svg>