<svg width="50" height="50" viewBox="0 0 50 50" fill="none" xmlns="http://www.w3.org/2000/svg">
<path d="M50 11.8056V4.42708C50 1.98599 48.0286 0 45.6055 0H4.39453C1.97139 0 0 1.98599 0 4.42708V11.8056H50ZM33.7891 5.90278H42.5781C43.3871 5.90278 44.043 6.5635 44.043 7.37847C44.043 8.19345 43.3871 8.85417 42.5781 8.85417H33.7891C32.9801 8.85417 32.3242 8.19345 32.3242 7.37847C32.3242 6.5635 32.9801 5.90278 33.7891 5.90278ZM19.1406 5.90278C19.9496 5.90278 20.6055 6.5635 20.6055 7.37847C20.6055 8.19345 19.9496 8.85417 19.1406 8.85417C18.3316 8.85417 17.6758 8.19345 17.6758 7.37847C17.6758 6.5635 18.3316 5.90278 19.1406 5.90278ZM13.2812 5.90278C14.0902 5.90278 14.7461 6.5635 14.7461 7.37847C14.7461 8.19345 14.0902 8.85417 13.2812 8.85417C12.4723 8.85417 11.8164 8.19345 11.8164 7.37847C11.8164 6.5635 12.4723 5.90278 13.2812 5.90278ZM7.42188 5.90278C8.23086 5.90278 8.88672 6.5635 8.88672 7.37847C8.88672 8.19345 8.23086 8.85417 7.42188 8.85417C6.61289 8.85417 5.95703 8.19345 5.95703 7.37847C5.95703 6.5635 6.61289 5.90278 7.42188 5.90278Z" fill="#3DB8DB"/>
<path d="M0 14.5833V45.5728C0 48.0139 1.97139 49.9999 4.39453 49.9999H45.6055C48.0286 49.9999 50 48.0139 50 45.5728V14.5833H0ZM17.126 35.5663C17.7578 36.0755 17.8602 37.0041 17.3548 37.6405C16.8495 38.2768 15.9275 38.3801 15.2959 37.8709L7.97168 31.9681C7.23936 31.3781 7.23887 30.2539 7.97168 29.6635L15.2959 23.7607C15.9273 23.2516 16.8493 23.3547 17.3548 23.9911C17.8602 24.6275 17.7578 25.5562 17.126 26.0652L11.2316 30.8159L17.126 35.5663ZM30.7409 21.0674L21.9519 41.7271C21.6332 42.476 20.7723 42.8233 20.0284 42.5021C19.2849 42.1811 18.9403 41.3135 19.2591 40.5644L28.0481 19.9047C28.3669 19.1556 29.228 18.8087 29.9716 19.1297C30.7151 19.4507 31.0597 20.3182 30.7409 21.0674ZM42.0283 31.9682L34.7041 37.871C34.0734 38.3794 33.1514 38.2779 32.6452 37.6406C32.1398 37.0042 32.2422 36.0755 32.874 35.5664L38.7684 30.8159L32.874 26.0654C32.2422 25.5563 32.1398 24.6277 32.6452 23.9913C33.1505 23.3549 34.0724 23.2517 34.7041 23.7609L42.0283 29.6637C42.7606 30.2537 42.7611 31.3777 42.0283 31.9682Z" fill="#3DB8DB"/>
</svg>
