<svg width="229" height="125" viewBox="0 0 229 147" fill="none" xmlns="http://www.w3.org/2000/svg">
<g clip-path="url(#clip0_622_16510)">
<path d="M103.693 110.323C104.512 109.743 105.395 109.284 106.317 108.948L106.677 106.231L111.206 105.817L112.055 108.423C113.023 108.587 113.975 108.878 114.887 109.3L117.067 107.633L120.563 110.533L119.316 112.973C119.898 113.79 120.358 114.671 120.695 115.59L123.42 115.948L123.835 120.463L121.221 121.31C121.057 122.275 120.765 123.224 120.342 124.133L122.014 126.307L119.105 129.792L116.657 128.549C115.838 129.128 114.954 129.587 114.032 129.923L113.672 132.64L109.144 133.053L108.294 130.447C107.327 130.284 106.374 129.993 105.463 129.571L103.282 131.238L99.7865 128.338L101.034 125.898C100.452 125.081 99.9914 124.2 99.6545 123.281L96.9296 122.922L96.5146 118.408L99.129 117.561C99.2929 116.596 99.5853 115.646 100.008 114.738L98.3361 112.564L101.245 109.079L103.693 110.323ZM106.557 116.167C104.834 118.231 105.116 121.298 107.187 123.016C109.258 124.734 112.334 124.452 114.057 122.388C115.781 120.323 115.499 117.256 113.427 115.539C111.356 113.821 108.28 114.102 106.557 116.167Z" fill="#EBEBEB"/>
<path d="M130.569 125.148C131.083 124.785 131.637 124.497 132.214 124.286L132.44 122.583L135.279 122.324L135.812 123.958C136.418 124.06 137.016 124.242 137.587 124.507L138.954 123.462L141.146 125.28L140.364 126.81C140.729 127.322 141.017 127.874 141.228 128.45L142.937 128.675L143.197 131.506L141.558 132.037C141.455 132.642 141.272 133.237 141.007 133.806L142.055 135.169L140.232 137.354L138.697 136.575C138.183 136.938 137.629 137.226 137.051 137.436L136.826 139.14L133.986 139.399L133.454 137.765C132.847 137.663 132.25 137.48 131.679 137.216L130.311 138.261L128.12 136.443L128.902 134.913C128.537 134.401 128.248 133.848 128.037 133.272L126.329 133.047L126.068 130.217L127.707 129.685C127.81 129.08 127.993 128.485 128.258 127.916L127.21 126.553L129.034 124.368L130.569 125.148ZM132.365 128.812C131.284 130.107 131.461 132.029 132.76 133.106C134.058 134.183 135.987 134.007 137.067 132.713C138.147 131.418 137.971 129.495 136.672 128.418C135.374 127.341 133.445 127.518 132.365 128.812Z" fill="#EBEBEB"/>
<path d="M52.7659 23.1419C53.362 22.7198 54.0053 22.386 54.676 22.1415L54.9379 20.1643L58.2338 19.8633L58.8523 21.76C59.5566 21.879 60.25 22.0907 60.9129 22.3975L62.5 21.1843L65.0441 23.2951L64.1362 25.071C64.5596 25.6656 64.8948 26.3069 65.1397 26.9755L67.1231 27.2366L67.4253 30.5223L65.5228 31.1389C65.4034 31.8407 65.191 32.532 64.8833 33.1932L66.0999 34.7757L63.9829 37.3122L62.2011 36.4072C61.605 36.8293 60.9614 37.1631 60.2907 37.4076L60.0288 39.3851L56.7329 39.6861L56.1144 37.7895C55.4101 37.6704 54.717 37.4587 54.0538 37.1519L52.4667 38.3651L49.9223 36.2547L50.8301 34.4787C50.4067 33.8841 50.0715 33.2432 49.8263 32.5742L47.843 32.3132L47.541 29.0274L49.4436 28.4109C49.563 27.7091 49.7757 27.0178 50.0831 26.3566L48.8665 24.7744L50.9835 22.2379L52.7659 23.1419ZM54.8504 27.3952C53.5961 28.8982 53.8014 31.1298 55.3087 32.3801C56.816 33.6305 59.0548 33.4259 60.309 31.9232C61.5633 30.4205 61.358 28.1887 59.8507 26.9383C58.3434 25.6879 56.1046 25.8926 54.8504 27.3952Z" fill="#E0E0E0"/>
<path d="M115.16 2.99533C115.754 2.57527 116.394 2.24281 117.061 1.99964L117.322 0.031588L120.602 -0.268066L121.218 1.61949C121.919 1.73786 122.609 1.94857 123.269 2.25397L124.849 1.0469L127.381 3.14752L126.477 4.91501C126.899 5.50654 127.232 6.14508 127.476 6.81068L129.45 7.07043L129.751 10.3406L127.857 10.9541C127.738 11.6525 127.527 12.3404 127.221 12.9986L128.432 14.5733L126.325 17.0977L124.551 16.197C123.958 16.6171 123.318 16.9496 122.65 17.1927L122.389 19.1608L119.109 19.4604L118.494 17.5725C117.793 17.4542 117.103 17.2431 116.443 16.9377L114.863 18.1448L112.331 16.0442L113.234 14.2767C112.813 13.6851 112.48 13.0469 112.235 12.3813L110.262 12.1213L109.961 8.8511L111.854 8.23759C111.973 7.53919 112.185 6.85126 112.491 6.19311L111.28 4.6184L113.387 2.094L115.16 2.99533ZM117.235 7.22803C115.987 8.7236 116.191 10.945 117.691 12.1892C119.192 13.4335 121.42 13.2299 122.668 11.7343C123.916 10.2388 123.712 8.01742 122.212 6.77314C120.711 5.52886 118.483 5.73247 117.235 7.22803Z" fill="#F5F5F5"/>
<path d="M145.465 7.57714C145.803 7.33836 146.167 7.1493 146.547 7.01064L146.695 5.89116L148.561 5.7207L148.911 6.79452C149.31 6.86183 149.702 6.98189 150.078 7.15539L150.976 6.46882L152.417 7.66372L151.903 8.66922C152.142 9.00574 152.332 9.36898 152.471 9.74744L153.594 9.89524L153.765 11.7554L152.688 12.1044C152.62 12.5018 152.5 12.8931 152.326 13.2672L153.014 14.1631L151.816 15.5992L150.807 15.0868C150.47 15.3255 150.106 15.5146 149.726 15.6533L149.578 16.7727L147.712 16.9432L147.362 15.8694C146.963 15.8021 146.57 15.682 146.195 15.5085L145.297 16.1951L143.856 15.0002L144.37 13.9947C144.13 13.6582 143.941 13.2953 143.802 12.9165L142.679 12.7687L142.508 10.9085L143.585 10.5595C143.652 10.1621 143.773 9.77077 143.947 9.39671L143.258 8.50113L144.457 7.06509L145.465 7.57714ZM146.646 9.9852C145.936 10.8358 146.052 12.0994 146.905 12.8072C147.759 13.5151 149.026 13.3991 149.736 12.5485C150.446 11.6979 150.33 10.4343 149.477 9.72647C148.623 9.01859 147.356 9.13426 146.646 9.9852Z" fill="#F5F5F5"/>
<path d="M35.0467 61.1265C35.5963 60.7372 36.1897 60.4294 36.8082 60.2038L37.0497 58.3802L40.0895 58.1025L40.6598 59.8518C41.3091 59.9613 41.9486 60.1568 42.5603 60.4399L44.0242 59.3211L46.3705 61.2675L45.5336 62.9055C45.9241 63.4537 46.2331 64.0452 46.4591 64.6621L48.288 64.9029L48.5665 67.9333L46.8119 68.5018C46.702 69.1492 46.5059 69.7867 46.2219 70.3965L47.3439 71.8559L45.3914 74.1953L43.748 73.3606C43.1981 73.7499 42.6051 74.0576 41.9863 74.2832L41.7447 76.1068L38.705 76.3845L38.1347 74.6353C37.4853 74.5257 36.8458 74.3302 36.2341 74.0471L34.7702 75.1659L32.4239 73.2195L33.2612 71.5816C32.8707 71.0333 32.5616 70.4422 32.3354 69.8253L30.5061 69.5844L30.2275 66.5541L31.9822 65.9852C32.0921 65.3379 32.2882 64.7004 32.5722 64.0906L31.4502 62.6312L33.4027 60.2918L35.0467 61.1265ZM36.9693 65.049C35.8124 66.435 36.0017 68.4934 37.392 69.6463C38.7823 70.7996 40.847 70.6109 42.0036 69.2249C43.1601 67.8389 42.9711 65.7806 41.5809 64.6276C40.1906 63.4743 38.1258 63.6631 36.9693 65.049Z" fill="#E0E0E0"/>
<path d="M158.19 116.602H42.6036C40.8883 116.602 39.498 115.215 39.498 113.505V35.889C39.498 34.0775 40.9711 32.6094 42.7878 32.6094H159.097C160.914 32.6094 162.387 34.0779 162.387 35.889V112.418C162.387 114.728 160.508 116.602 158.19 116.602Z" fill="black"/>
<path d="M63.852 44.6558H55.1846V46.5399H63.852V44.6558Z" fill="black"/>
<path d="M59.5183 53.0952H55.1846V54.9794H59.5183V53.0952Z" fill="#3DB8DB"/>
<path d="M64.5485 57.3398H58.4463V59.224H64.5485V57.3398Z" fill="black"/>
<path d="M69.075 57.3398H65.5195V59.224H69.075V57.3398Z" fill="black"/>
<path d="M100.954 57.3398H93.6416V59.224H100.954V57.3398Z" fill="black"/>
<path d="M122.327 61.4775H109.973V63.3617H122.327V61.4775Z" fill="black"/>
<path d="M141.383 57.3398H135.451V59.224H141.383V57.3398Z" fill="black"/>
<path d="M155.131 57.3398H143.203V59.224H155.131V57.3398Z" fill="black"/>
<path d="M64.5485 61.4775H58.4463V63.3617H64.5485V61.4775Z" fill="black"/>
<path d="M60.7985 65.604H54.6963V67.4882H60.7985V65.604Z" fill="#3DB8DB"/>
<path d="M60.7994 69.731H57.9482V71.6151H60.7994V69.731Z" fill="black"/>
<path d="M71.2652 78.4253H68.4141V80.3095H71.2652V78.4253Z" fill="black"/>
<path d="M113.204 94.1328H107.634V96.017H113.204V94.1328Z" fill="black"/>
<path d="M144.325 94.1328H130.678V96.017H144.325V94.1328Z" fill="black"/>
<path d="M92.2301 90.0093H86.6602V91.8934H92.2301V90.0093Z" fill="#E0E0E0"/>
<path d="M72.0459 86.4707H66.4756V88.3549H72.0459V86.4707Z" fill="black"/>
<path d="M106.477 94.1328H97.6943V96.017H106.477V94.1328Z" fill="black"/>
<path d="M62.5747 73.9346H57.9482V75.8187H62.5747V73.9346Z" fill="black"/>
<path d="M66.5305 78.4956H57.9482V80.3798H66.5305V78.4956Z" fill="black"/>
<path d="M70.5052 81.9873H57.9482V83.8715H70.5052V81.9873Z" fill="black"/>
<path d="M93.2552 81.9873H80.6982V83.8715H93.2552V81.9873Z" fill="black"/>
<path d="M83.9962 90.0093H66.3652V91.8934H83.9962V90.0093Z" fill="black"/>
<path d="M96.1861 94.1328H66.3652V96.017H96.1861V94.1328Z" fill="black"/>
<path d="M87.1637 98.2559H57.3428V100.14H87.1637V98.2559Z" fill="black"/>
<path d="M79.3633 81.9873H71.8301V83.8715H79.3633V81.9873Z" fill="black"/>
<path d="M69.6976 69.731H61.9248V71.6151H69.6976V69.731Z" fill="black"/>
<path d="M71.4095 73.9355H63.6367V75.8197H71.4095V73.9355Z" fill="black"/>
<path d="M101.526 73.9355H80.9443V75.8197H101.526V73.9355Z" fill="black"/>
<path d="M125.857 73.9355H102.086V75.8197H125.857V73.9355Z" fill="black"/>
<path d="M79.1218 73.9355H72.6885V75.8197H79.1218V73.9355Z" fill="black"/>
<path d="M80.9514 69.731H70.7617V71.6151H80.9514V69.731Z" fill="black"/>
<path d="M87.7482 69.731H82.0762V71.6151H87.7482V69.731Z" fill="#E0E0E0"/>
<path d="M71.8813 61.4775H65.5195V63.3617H71.8813V61.4775Z" fill="black"/>
<path d="M107.615 61.4775H76.2031V63.3617H107.615V61.4775Z" fill="black"/>
<path d="M142.877 73.9355H128.024V75.8197H142.877V73.9355Z" fill="black"/>
<path d="M129.503 94.1328H114.65V96.017H129.503V94.1328Z" fill="black"/>
<path d="M133.141 57.3398H102.198V59.224H133.141V57.3398Z" fill="black"/>
<path d="M91.7196 57.3398H70.1865V59.224H91.7196V57.3398Z" fill="black"/>
<path d="M69.6825 48.6504H55.1846V50.5346H69.6825V48.6504Z" fill="black"/>
<path d="M90.9807 48.6509H71.1289V50.535H90.9807V48.6509Z" fill="black"/>
<path d="M71.5882 44.6558H65.2061V46.5399H71.5882V44.6558Z" fill="#E0E0E0"/>
<path d="M48.5686 44.6558H46.7383V46.5399H48.5686V44.6558Z" fill="black"/>
<path d="M48.5686 48.7788H46.7383V50.663H48.5686V48.7788Z" fill="black"/>
<path d="M48.5686 52.9019H46.7383V54.786H48.5686V52.9019Z" fill="black"/>
<path d="M48.5686 57.0249H46.7383V58.9091H48.5686V57.0249Z" fill="black"/>
<path d="M48.5686 61.1479H46.7383V63.0321H48.5686V61.1479Z" fill="black"/>
<path d="M48.5686 65.271H46.7383V67.1552H48.5686V65.271Z" fill="black"/>
<path d="M48.5686 69.394H46.7383V71.2782H48.5686V69.394Z" fill="black"/>
<path d="M48.5686 73.5171H46.7383V75.4013H48.5686V73.5171Z" fill="black"/>
<path d="M48.5686 77.6406H46.7383V79.5248H48.5686V77.6406Z" fill="black"/>
<path d="M70.566 107.163H67.7148V109.047H70.566V107.163Z" fill="#E0E0E0"/>
<path d="M65.982 107.163H57.3994V109.047H65.982V107.163Z" fill="#3DB8DB"/>
<path d="M48.5686 106.954H46.7383V108.838H48.5686V106.954Z" fill="black"/>
<path d="M48.5686 81.7637H46.7383V83.6478H48.5686V81.7637Z" fill="black"/>
<path d="M48.5686 85.8862H46.7383V87.7704H48.5686V85.8862Z" fill="black"/>
<path d="M48.5686 90.0093H46.7383V91.8934H48.5686V90.0093Z" fill="black"/>
<path d="M48.5686 94.1328H46.7383V96.017H48.5686V94.1328Z" fill="black"/>
<path d="M48.5686 98.2559H46.7383V100.14H48.5686V98.2559Z" fill="black"/>
<path d="M66.0366 102.595H57.3428V104.479H66.0366V102.595Z" fill="black"/>
<path d="M87.3807 102.595H67.7148V104.479H87.3807V102.595Z" fill="black"/>
<path d="M48.5686 102.595H46.7383V104.479H48.5686V102.595Z" fill="black"/>
<path d="M99.7855 48.6382H93.4033V50.5224H99.7855V48.6382Z" fill="#E0E0E0"/>
<path d="M46.355 39.3352C47.072 39.3352 47.6533 38.7558 47.6533 38.0409C47.6533 37.3261 47.072 36.7466 46.355 36.7466C45.6379 36.7466 45.0566 37.3261 45.0566 38.0409C45.0566 38.7558 45.6379 39.3352 46.355 39.3352Z" fill="black"/>
<path d="M49.9585 39.3352C50.6756 39.3352 51.2568 38.7558 51.2568 38.0409C51.2568 37.3261 50.6756 36.7466 49.9585 36.7466C49.2414 36.7466 48.6602 37.3261 48.6602 38.0409C48.6602 38.7558 49.2414 39.3352 49.9585 39.3352Z" fill="black"/>
<path d="M53.562 39.3352C54.2791 39.3352 54.8604 38.7558 54.8604 38.0409C54.8604 37.3261 54.2791 36.7466 53.562 36.7466C52.845 36.7466 52.2637 37.3261 52.2637 38.0409C52.2637 38.7558 52.845 39.3352 53.562 39.3352Z" fill="black"/>
<g opacity="0.3">
<path d="M151.59 112.172H105.319C103.963 112.172 102.864 111.076 102.864 109.724V85.3768C102.864 84.025 103.963 82.9292 105.319 82.9292H151.59C152.946 82.9292 154.046 84.025 154.046 85.3768V109.724C154.045 111.076 152.946 112.172 151.59 112.172Z" fill="black"/>
</g>
<path d="M156.151 109.046H107.985C107.153 109.046 106.478 108.373 106.478 107.543V81.3067C106.478 80.4767 107.153 79.8037 107.985 79.8037H156.151C156.983 79.8037 157.659 80.4767 157.659 81.3067V107.543C157.659 108.373 156.983 109.046 156.151 109.046Z" fill="#3DB8DB"/>
<path d="M126.532 97.9992H121.859L120.991 100.14H117.802L122.68 89.1226H125.759L130.653 100.14H127.401L126.532 97.9992ZM125.617 95.7014L124.196 92.1756L122.775 95.7014H125.617Z" fill="white"/>
<path d="M139.193 89.6185C139.93 89.949 140.498 90.4211 140.898 91.0349C141.298 91.6488 141.498 92.3705 141.498 93.1992C141.498 94.0281 141.298 94.7468 140.898 95.3553C140.498 95.964 139.93 96.4335 139.193 96.7639C138.456 97.0947 137.588 97.2597 136.588 97.2597H134.662V100.14H131.536V89.123H136.588C137.588 89.1227 138.456 89.2878 139.193 89.6185ZM137.851 94.3876C138.177 94.1096 138.341 93.7136 138.341 93.1992C138.341 92.6851 138.177 92.2863 137.851 92.0029C137.525 91.7195 137.041 91.5781 136.399 91.5781H134.662V94.8043H136.399C137.041 94.8043 137.525 94.6656 137.851 94.3876Z" fill="white"/>
<path d="M143.015 89.1226H146.141V100.14H143.015V89.1226Z" fill="white"/>
<path d="M51.803 44.1177C51.8519 44.1177 51.8913 60.3372 51.8913 80.3404C51.8913 100.351 51.8516 116.566 51.803 116.566C51.7542 116.566 51.7148 100.35 51.7148 80.3404C51.7148 60.3372 51.7542 44.1177 51.803 44.1177Z" fill="black"/>
<path d="M90.8346 122.295C90.8376 122.295 90.8407 122.344 90.8437 122.439C90.8458 122.542 90.8488 122.682 90.8525 122.86C90.8563 123.241 90.862 123.785 90.8692 124.482C90.8759 125.9 90.8854 127.936 90.8973 130.448C90.9007 131.708 90.9041 133.087 90.9082 134.567C90.9089 134.938 90.9095 135.314 90.9105 135.697C90.9048 136.08 90.9292 136.463 90.8868 136.87C90.7938 137.675 90.3464 138.459 89.6499 138.961C89.3038 139.213 88.8991 139.396 88.4682 139.484C88.0313 139.575 87.5912 139.538 87.1583 139.547C86.2841 139.547 85.3915 139.548 84.4826 139.549C82.6652 139.549 80.7833 139.55 78.8563 139.55C71.1484 139.54 64.1715 139.531 59.1111 139.525C56.5914 139.513 54.5494 139.503 53.1276 139.497C52.4284 139.49 51.8818 139.484 51.5008 139.48C51.3214 139.476 51.1813 139.473 51.0778 139.471C50.9824 139.468 50.9336 139.465 50.9336 139.462C50.9336 139.459 50.9824 139.456 51.0778 139.453C51.1813 139.451 51.3214 139.448 51.5008 139.444C51.8818 139.441 52.4284 139.435 53.1276 139.428C54.5494 139.421 56.5914 139.411 59.1111 139.4C64.1715 139.393 71.1484 139.384 78.8563 139.374C80.7837 139.375 82.6652 139.375 84.4826 139.376C85.3911 139.376 86.2841 139.377 87.1583 139.378C87.597 139.37 88.0302 139.406 88.4353 139.321C88.8431 139.239 89.2261 139.066 89.5542 138.829C90.2151 138.355 90.6415 137.613 90.7324 136.85C90.7738 136.473 90.7524 136.076 90.7592 135.696C90.7599 135.313 90.7606 134.936 90.7616 134.566C90.7653 133.086 90.7691 131.707 90.7725 130.447C90.7843 127.935 90.7938 125.899 90.8006 124.481C90.8078 123.784 90.8132 123.24 90.8173 122.859C90.821 122.68 90.824 122.541 90.8261 122.438C90.8288 122.344 90.8315 122.295 90.8346 122.295Z" fill="#3DB8DB"/>
<path d="M92.0174 121.116C92.0174 121.767 91.4878 122.295 90.8344 122.295C90.181 122.295 89.6514 121.767 89.6514 121.116C89.6514 120.464 90.181 119.937 90.8344 119.937C91.4878 119.937 92.0174 120.464 92.0174 121.116Z" fill="#3DB8DB"/>
<path d="M52.1541 139.277C52.1541 139.929 51.6245 140.457 50.9711 140.457C50.3177 140.457 49.7881 139.929 49.7881 139.277C49.7881 138.626 50.3177 138.098 50.9711 138.098C51.6245 138.098 52.1541 138.626 52.1541 139.277Z" fill="#3DB8DB"/>
<path d="M186.105 111.847C186.105 112.756 185.366 113.492 184.455 113.492C183.544 113.492 182.805 112.756 182.805 111.847C182.805 110.939 183.544 110.202 184.455 110.202C185.366 110.202 186.105 110.939 186.105 111.847Z" fill="#3DB8DB"/>
<path d="M194.108 104.553C194.108 105.462 193.369 106.198 192.458 106.198C191.547 106.198 190.808 105.462 190.808 104.553C190.808 103.645 191.547 102.908 192.458 102.908C193.369 102.909 194.108 103.645 194.108 104.553Z" fill="#3DB8DB"/>
<path d="M186.264 97.2588C186.264 98.1673 185.525 98.9039 184.614 98.9039C183.703 98.9039 182.964 98.1673 182.964 97.2588C182.964 96.3504 183.703 95.6138 184.614 95.6138C185.526 95.6141 186.264 96.3504 186.264 97.2588Z" fill="#3DB8DB"/>
<path d="M192.23 104.553C192.23 104.601 185.801 104.641 177.872 104.641C169.941 104.641 163.514 104.601 163.514 104.553C163.514 104.504 169.941 104.465 177.872 104.465C185.801 104.465 192.23 104.504 192.23 104.553Z" fill="#3DB8DB"/>
<path d="M184.456 112.598C184.408 112.598 184.368 109.233 184.368 105.083C184.368 100.932 184.408 97.5674 184.456 97.5674C184.505 97.5674 184.545 100.932 184.545 105.083C184.545 109.233 184.505 112.598 184.456 112.598Z" fill="#3DB8DB"/>
<path d="M100.839 37.0836H75.9726C74.4021 37.0836 73.1289 35.8143 73.1289 34.2487V19.7797C73.1289 18.2141 74.4021 16.9448 75.9726 16.9448H100.839C102.409 16.9448 103.682 18.2141 103.682 19.7797V34.249C103.682 35.8146 102.409 37.0836 100.839 37.0836Z" fill="#3DB8DB"/>
<g opacity="0.3">
<path d="M100.839 37.0836H75.9726C74.4021 37.0836 73.1289 35.8143 73.1289 34.2487V19.7797C73.1289 18.2141 74.4021 16.9448 75.9726 16.9448H100.839C102.409 16.9448 103.682 18.2141 103.682 19.7797V34.249C103.682 35.8146 102.409 37.0836 100.839 37.0836Z" fill="black"/>
</g>
<path d="M98.7878 37.0836H73.9218C72.3514 37.0836 71.0781 35.8143 71.0781 34.2487V19.7797C71.0781 18.2141 72.3514 16.9448 73.9218 16.9448H98.7878C100.358 16.9448 101.631 18.2141 101.631 19.7797V34.249C101.631 35.8146 100.358 37.0836 98.7878 37.0836Z" fill="#3DB8DB"/>
<path d="M83.0539 25.8825L78.8895 27.353L83.0539 28.8236V30.7236L76.6182 28.3551V26.3509L83.0539 23.9824V25.8825Z" fill="white"/>
<path d="M87.636 20.9502H89.8419L85.5343 33.209H83.3281L87.636 20.9502Z" fill="white"/>
<path d="M96.4211 26.3509V28.3551L89.9854 30.7236V28.8236L94.1494 27.353L89.9854 25.8825V23.9824L96.4211 26.3509Z" fill="white"/>
<path d="M131.105 24.1345C132.13 23.5166 133.222 23.0482 134.348 22.7293L135.016 19.5288L140.44 19.4341L141.221 22.6089C142.357 22.8882 143.465 23.3181 144.512 23.8995L146.017 22.108H147.253L151.155 25.8645L149.456 28.6578C150.076 29.6805 150.546 30.7692 150.866 31.8917L154.076 32.5577L154.171 37.9646L150.986 38.7429C150.706 39.8759 150.275 40.9798 149.692 42.0235L151.489 44.7566L147.721 48.647H146.484L144.918 46.9529C143.893 47.5708 142.801 48.0393 141.675 48.3578L141.006 51.5583L135.583 51.6534L134.802 48.4786C133.666 48.1992 132.558 47.7694 131.511 47.188L128.77 48.9791H127.534L124.868 45.2226L126.567 42.429C125.947 41.4063 125.477 40.3179 125.157 39.1954L121.947 38.5294L121.852 33.1225L125.036 32.3439C125.316 31.2109 125.748 30.107 126.331 29.0633L124.534 26.3305L127.066 22.4398H128.302L131.105 24.1345ZM133.996 31.3377C131.763 33.643 131.828 37.3156 134.14 39.541C136.453 41.7665 140.137 41.7019 142.369 39.3966C144.601 37.0917 144.536 33.4187 142.224 31.1933C139.912 28.9682 136.228 29.0328 133.996 31.3377Z" fill="#E0E0E0"/>
<g opacity="0.3">
<path d="M131.105 24.1345C132.13 23.5166 133.222 23.0482 134.348 22.7293L135.016 19.5288L140.44 19.4341L141.221 22.6089C142.357 22.8882 143.465 23.3181 144.512 23.8995L146.017 22.108H147.253L151.155 25.8645L149.456 28.6578C150.076 29.6805 150.546 30.7692 150.866 31.8917L154.076 32.5577L154.171 37.9646L150.986 38.7429C150.706 39.8759 150.275 40.9798 149.692 42.0235L151.489 44.7566L147.721 48.647H146.484L144.918 46.9529C143.893 47.5708 142.801 48.0393 141.675 48.3578L141.006 51.5583L135.583 51.6534L134.802 48.4786C133.666 48.1992 132.558 47.7694 131.511 47.188L128.77 48.9791H127.534L124.868 45.2226L126.567 42.429C125.947 41.4063 125.477 40.3179 125.157 39.1954L121.947 38.5294L121.852 33.1225L125.036 32.3439C125.316 31.2109 125.748 30.107 126.331 29.0633L124.534 26.3305L127.066 22.4398H128.302L131.105 24.1345ZM133.996 31.3377C131.763 33.643 131.828 37.3156 134.14 39.541C136.453 41.7665 140.137 41.7019 142.369 39.3966C144.601 37.0917 144.536 33.4187 142.224 31.1933C139.912 28.9682 136.228 29.0328 133.996 31.3377Z" fill="black"/>
</g>
<path d="M129.868 24.1345C130.894 23.5166 131.986 23.0482 133.112 22.7293L133.78 19.5288L139.204 19.4341L139.984 22.6089C141.121 22.8882 142.229 23.3181 143.275 23.8995L146.017 22.108L149.919 25.8645L148.22 28.6578C148.84 29.6805 149.31 30.7692 149.629 31.8917L152.839 32.5577L152.935 37.9646L149.75 38.7429C149.47 39.8759 149.039 40.9798 148.456 42.0235L150.252 44.7566L146.484 48.647L143.682 46.9529C142.656 47.5708 141.564 48.0393 140.438 48.3578L139.77 51.5583L134.346 51.6534L133.565 48.4786C132.429 48.1992 131.321 47.7694 130.275 47.188L127.533 48.9791L123.631 45.2226L125.33 42.429C124.71 41.4063 124.24 40.3179 123.92 39.1954L120.71 38.5294L120.615 33.1225L123.8 32.3439C124.08 31.2109 124.512 30.107 125.094 29.0633L123.298 26.3305L127.066 22.4398L129.868 24.1345ZM132.759 31.3377C130.527 33.643 130.592 37.3156 132.904 39.541C135.216 41.7665 138.9 41.7019 141.132 39.3966C143.365 37.0917 143.3 33.4187 140.988 31.1933C138.676 28.9682 134.992 29.0328 132.759 31.3377Z" fill="#E0E0E0"/>
<path d="M225.727 88.7497H174.261C172.371 88.7497 170.838 87.2217 170.838 85.3369V12.2381C170.838 10.3532 172.371 8.8252 174.261 8.8252H225.727C227.617 8.8252 229.15 10.3532 229.15 12.2381V85.3369C229.15 87.2217 227.617 88.7497 225.727 88.7497Z" fill="white"/>
<path d="M207.081 52.9087H192.907V64.7024H207.081V52.9087Z" fill="#E0E0E0"/>
<path d="M225.014 53.0591H210.84V64.8528H225.014V53.0591Z" fill="#E0E0E0"/>
<path d="M189.148 53.0591H174.974V64.8528H189.148V53.0591Z" fill="#E0E0E0"/>
<path d="M229.15 25.7998H170.838V47.3529H229.15V25.7998Z" fill="#E0E0E0"/>
<path d="M229.15 16.8066H170.838V11.9628C170.838 10.2298 172.247 8.8252 173.985 8.8252H225.62C227.569 8.8252 229.15 10.4006 229.15 12.3436L229.15 16.8066Z" fill="#E0E0E0"/>
<path d="M178.942 21.3031C178.942 22.701 177.805 23.8343 176.403 23.8343C175.001 23.8343 173.864 22.701 173.864 21.3031C173.864 19.9053 175.001 18.772 176.403 18.772C177.805 18.7716 178.942 19.905 178.942 21.3031Z" fill="#3DB8DB"/>
<path d="M201.755 20.1797H192.428V22.3466H201.755V20.1797Z" fill="#E0E0E0"/>
<path d="M213.379 20.1797H204.052V22.3466H213.379V20.1797Z" fill="#E0E0E0"/>
<path d="M225.004 20.1797H215.677V22.3466H225.004V20.1797Z" fill="#E0E0E0"/>
<path d="M189.148 68.8384H174.974V70.7273H189.148V68.8384Z" fill="#E0E0E0"/>
<path d="M189.148 72.9609H174.974V74.8498H189.148V72.9609Z" fill="#E0E0E0"/>
<path d="M182.648 77.0835H174.974V78.9724H182.648V77.0835Z" fill="#E0E0E0"/>
<path d="M207.368 68.8379H193.194V70.7268H207.368V68.8379Z" fill="#E0E0E0"/>
<path d="M207.368 72.9609H193.194V74.8498H207.368V72.9609Z" fill="#E0E0E0"/>
<path d="M200.868 77.084H193.194V78.9729H200.868V77.084Z" fill="#E0E0E0"/>
<path d="M225.588 68.8384H211.414V70.7273H225.588V68.8384Z" fill="#E0E0E0"/>
<path d="M225.588 72.9609H211.414V74.8498H225.588V72.9609Z" fill="#E0E0E0"/>
<path d="M219.088 77.0835H211.414V78.9724H219.088V77.0835Z" fill="#E0E0E0"/>
<path d="M225.726 88.7496C225.726 88.7496 225.785 88.7435 225.902 88.7364C226.019 88.7351 226.192 88.7097 226.419 88.6701C226.862 88.571 227.548 88.338 228.178 87.689C228.488 87.3663 228.771 86.9385 228.949 86.4153C229.148 85.8924 229.127 85.2775 229.123 84.6211C229.121 83.3048 229.118 81.7862 229.115 80.0772C229.108 73.2372 229.099 63.3436 229.087 51.1186C229.083 45.0055 229.08 38.3092 229.076 31.1212C229.075 27.5271 229.073 23.8098 229.071 19.9809C229.071 18.0663 229.07 16.124 229.069 14.1549C229.069 13.6628 229.069 13.1687 229.069 12.6732C229.077 12.174 229.07 11.689 228.909 11.223C228.61 10.2969 227.885 9.50147 226.96 9.14432C226.497 8.95831 226.004 8.89743 225.496 8.90724C224.986 8.90724 224.475 8.90757 223.962 8.90757C222.936 8.90791 221.904 8.90791 220.866 8.90825C218.79 8.90859 216.691 8.90927 214.568 8.9096C210.325 8.91028 205.991 8.91096 201.58 8.91163C192.758 8.91231 183.623 8.91299 174.267 8.91332C173.697 8.9184 173.128 9.05977 172.633 9.33744C172.141 9.61849 171.712 10.0156 171.42 10.5012C171.12 10.9805 170.953 11.5375 170.932 12.1003C170.918 12.6705 170.928 13.2529 170.925 13.8268C170.925 16.1304 170.925 18.4187 170.925 20.6902C170.924 25.2333 170.924 29.7099 170.923 34.1087C170.922 42.9058 170.92 51.3919 170.918 59.4755C170.916 67.559 170.913 75.2405 170.91 82.4295C170.91 83.3281 170.91 84.2189 170.909 85.102C170.867 85.9756 171.14 86.8411 171.699 87.4904C172.247 88.1412 173.043 88.5693 173.876 88.6566C174.289 88.6958 174.72 88.6749 175.141 88.6809C175.564 88.6813 175.984 88.6813 176.403 88.6816C179.75 88.6837 182.962 88.6857 186.028 88.6874C198.291 88.6992 208.214 88.7087 215.075 88.7155C218.503 88.7226 221.164 88.7283 222.972 88.732C223.873 88.7357 224.561 88.7388 225.026 88.7408C225.49 88.7435 225.726 88.7496 225.726 88.7496C225.726 88.7496 225.489 88.7557 225.026 88.7587C224.562 88.7608 223.874 88.7635 222.973 88.7675C221.165 88.7713 218.503 88.777 215.075 88.7841C208.215 88.7909 198.292 88.8003 186.029 88.8122C182.962 88.8139 179.75 88.8159 176.403 88.8179C175.985 88.8183 175.564 88.8183 175.142 88.8186C174.718 88.8129 174.298 88.8352 173.861 88.7949C172.993 88.7046 172.162 88.2595 171.591 87.5821C171.008 86.9104 170.722 85.9932 170.765 85.1027C170.765 84.2196 170.764 83.3288 170.764 82.4301C170.761 75.2411 170.758 67.5597 170.756 59.4761C170.754 51.3926 170.752 42.9065 170.75 34.1093C170.75 29.7106 170.749 25.234 170.749 20.6908C170.749 18.4194 170.749 16.1311 170.749 13.8275C170.752 13.2502 170.742 12.6783 170.756 12.0935C170.778 11.5013 170.953 10.9138 171.27 10.4096C171.577 9.89853 172.028 9.4805 172.546 9.18457C173.068 8.89202 173.668 8.74287 174.267 8.73779C183.622 8.73847 192.757 8.73914 201.58 8.73948C205.991 8.74016 210.324 8.74084 214.568 8.74185C216.69 8.74219 218.79 8.74287 220.865 8.7432C221.903 8.74354 222.935 8.74354 223.961 8.74388C224.474 8.74388 224.985 8.74422 225.495 8.74422C226.006 8.73373 226.539 8.79799 227.019 8.99348C227.99 9.36889 228.749 10.2026 229.062 11.1739C229.231 11.6579 229.237 12.1852 229.229 12.6732C229.229 13.1687 229.229 13.6625 229.229 14.1549C229.228 16.124 229.227 18.0663 229.227 19.9809C229.225 23.8098 229.223 27.5271 229.222 31.1212C229.218 38.3096 229.215 45.0055 229.211 51.1186C229.199 63.3436 229.19 73.2372 229.183 80.0772C229.18 81.7865 229.177 83.3048 229.175 84.6211C229.169 84.9505 229.185 85.265 229.161 85.5714C229.143 85.8768 229.079 86.165 228.99 86.4295C228.807 86.9588 228.518 87.3897 228.203 87.714C227.562 88.3654 226.868 88.594 226.422 88.6881C226.193 88.7249 226.019 88.7472 225.901 88.7456C225.786 88.7496 225.726 88.7496 225.726 88.7496Z" fill="black"/>
<path d="M176.533 13.2334C176.533 13.7681 176.099 14.2017 175.562 14.2017C175.026 14.2017 174.591 13.7681 174.591 13.2334C174.591 12.6987 175.026 12.2651 175.562 12.2651C176.099 12.2648 176.533 12.6984 176.533 13.2334Z" fill="white"/>
<path d="M179.605 13.2334C179.605 13.7681 179.17 14.2017 178.633 14.2017C178.097 14.2017 177.662 13.7681 177.662 13.2334C177.662 12.6987 178.097 12.2651 178.633 12.2651C179.17 12.2648 179.605 12.6984 179.605 13.2334Z" fill="white"/>
<path d="M182.675 13.2334C182.675 13.7681 182.24 14.2017 181.704 14.2017C181.167 14.2017 180.732 13.7681 180.732 13.2334C180.732 12.6987 181.167 12.2651 181.704 12.2651C182.24 12.2651 182.675 12.6984 182.675 13.2334Z" fill="white"/>
<path d="M195.954 37.0186V32.2965C195.954 31.4094 196.946 30.8551 197.74 31.2988L201.966 33.6599L206.193 36.0209C206.986 36.4643 206.986 37.5729 206.193 38.0167L201.966 40.3777L197.74 42.7388C196.946 43.1822 195.954 42.6278 195.954 41.7411V37.0186Z" fill="white"/>
<path d="M223.865 146.459L201.476 146.362C198.783 146.35 196.61 144.289 196.621 141.759L196.858 89.0066C196.87 86.4744 199.063 84.4306 201.758 84.4424L224.147 84.5395C226.84 84.5513 229.013 86.6117 229.001 89.1425L228.764 141.895C228.753 144.427 226.559 146.471 223.865 146.459Z" fill="black"/>
<path d="M224.115 86.3601L219.774 86.3412L207.096 86.2861L205.57 86.2793L201.77 86.2627C199.883 86.2546 198.347 87.6859 198.339 89.4592L198.107 140.949C198.099 142.722 199.621 144.165 201.507 144.173L223.851 144.27C225.738 144.278 227.275 142.847 227.283 141.073L227.514 89.5833C227.523 87.8114 226.001 86.3686 224.115 86.3601Z" fill="white"/>
<path d="M224.308 91.1517C224.307 91.2998 224.183 91.4192 224.03 91.4185C223.877 91.4179 223.753 91.2975 223.754 91.1497C223.755 91.0015 223.879 90.8821 224.032 90.8828C224.184 90.8832 224.308 91.0036 224.308 91.1517Z" fill="black"/>
<path d="M224.303 92.1156C224.302 92.2637 224.178 92.3831 224.025 92.3827C223.872 92.3821 223.748 92.2617 223.749 92.1135C223.75 91.9654 223.874 91.846 224.027 91.8467C224.18 91.847 224.303 91.9674 224.303 92.1156Z" fill="black"/>
<path d="M224.3 93.0796C224.299 93.2277 224.175 93.3471 224.022 93.3468C223.869 93.3461 223.745 93.2257 223.746 93.0779C223.747 92.9298 223.871 92.8104 224.024 92.811C224.177 92.8114 224.3 92.9318 224.3 93.0796Z" fill="black"/>
<path d="M205.319 92.3829C205.319 93.36 204.5 94.1521 203.49 94.1521C202.481 94.1521 201.662 93.36 201.662 92.3829C201.662 91.4059 202.481 90.6138 203.49 90.6138C204.5 90.6138 205.319 91.4059 205.319 92.3829Z" fill="#3DB8DB"/>
<path d="M218.903 92.7224H209.529C209.192 92.7224 208.919 92.4501 208.919 92.1146C208.919 91.7791 209.192 91.5068 209.529 91.5068H218.903C219.239 91.5068 219.512 91.7791 219.512 92.1146C219.512 92.4504 219.24 92.7224 218.903 92.7224Z" fill="#E0E0E0"/>
<path d="M207.309 115.267V110.039C207.309 109.057 208.407 108.443 209.286 108.934L213.965 111.548L218.644 114.162C219.523 114.653 219.523 115.881 218.644 116.372L213.965 118.986L209.286 121.6C208.407 122.091 207.309 121.477 207.309 120.495V115.267Z" fill="#3DB8DB"/>
<path d="M157.856 138.013C159.842 134.865 163.204 134.132 166.257 134.825C165.788 130.343 167.81 125.681 171.407 122.952C175.004 120.223 180.05 119.521 184.259 121.165C188.468 122.809 191.692 126.741 192.472 131.18C195.637 128.943 200.386 130.457 202.708 133.556C205.029 136.655 205.171 143.275 202.451 146.391L158.619 146.141C158.619 146.141 155.28 142.096 157.856 138.013Z" fill="#3DB8DB"/>
<g opacity="0.3">
<path d="M157.856 138.013C159.842 134.865 163.204 134.132 166.257 134.825C165.788 130.343 167.81 125.681 171.407 122.952C175.004 120.223 180.05 119.521 184.259 121.165C188.468 122.809 191.692 126.741 192.472 131.18C195.637 128.943 200.386 130.457 202.708 133.556C205.029 136.655 205.171 143.275 202.451 146.391L158.619 146.141C158.619 146.141 155.28 142.096 157.856 138.013Z" fill="black"/>
</g>
<path d="M154.09 138.013C156.076 134.865 159.438 134.132 162.491 134.825C162.022 130.343 164.045 125.681 167.642 122.952C171.238 120.223 176.284 119.521 180.493 121.165C184.702 122.809 187.927 126.741 188.706 131.18C191.872 128.943 196.621 130.457 198.942 133.556C201.264 136.655 201.406 143.275 198.686 146.391L154.853 146.141C154.853 146.141 151.514 142.096 154.09 138.013Z" fill="#3DB8DB"/>
<path d="M44.555 146.46H1.32011C0.594772 146.46 0.00683594 145.874 0.00683594 145.151V104.063C0.00683594 103.34 0.594772 102.753 1.32011 102.753H44.555C45.2803 102.753 45.8682 103.34 45.8682 104.063V145.151C45.8682 145.874 45.2803 146.46 44.555 146.46Z" fill="#E0E0E0"/>
<path d="M45.947 116.705C45.947 116.754 35.7034 116.793 23.0704 116.793C10.433 116.793 0.191406 116.753 0.191406 116.705C0.191406 116.657 10.4326 116.617 23.0704 116.617C35.7037 116.617 45.947 116.656 45.947 116.705Z" fill="black"/>
<path d="M45.947 130.737C45.947 130.786 35.7034 130.825 23.0704 130.825C10.433 130.825 0.191406 130.786 0.191406 130.737C0.191406 130.689 10.4326 130.649 23.0704 130.649C35.7037 130.649 45.947 130.689 45.947 130.737Z" fill="black"/>
<path d="M8.34376 111.124C8.89444 111.124 9.34085 110.679 9.34085 110.13C9.34085 109.581 8.89444 109.136 8.34376 109.136C7.79309 109.136 7.34668 109.581 7.34668 110.13C7.34668 110.679 7.79309 111.124 8.34376 111.124Z" fill="white"/>
<path d="M11.9219 111.124C12.4726 111.124 12.919 110.679 12.919 110.13C12.919 109.581 12.4726 109.136 11.9219 109.136C11.3712 109.136 10.9248 109.581 10.9248 110.13C10.9248 110.679 11.3712 111.124 11.9219 111.124Z" fill="white"/>
<path d="M34.5057 111.985H34.3337C34.1294 111.985 33.9639 111.82 33.9639 111.616V108.968C33.9639 108.765 34.1294 108.6 34.3337 108.6H34.5057C34.7099 108.6 34.8755 108.765 34.8755 108.968V111.616C34.8758 111.82 34.7102 111.985 34.5057 111.985Z" fill="black"/>
<path d="M36.8045 111.985H36.6325C36.4283 111.985 36.2627 111.82 36.2627 111.616V108.968C36.2627 108.765 36.4283 108.6 36.6325 108.6H36.8045C37.0087 108.6 37.1743 108.765 37.1743 108.968V111.616C37.1743 111.82 37.0087 111.985 36.8045 111.985Z" fill="black"/>
<path d="M38.9236 111.985H38.7516C38.5474 111.985 38.3818 111.82 38.3818 111.616V108.968C38.3818 108.765 38.5474 108.6 38.7516 108.6H38.9236C39.1279 108.6 39.2934 108.765 39.2934 108.968V111.616C39.2934 111.82 39.1279 111.985 38.9236 111.985Z" fill="white"/>
<path d="M32.1775 111.985H32.0055C31.8013 111.985 31.6357 111.82 31.6357 111.616V108.968C31.6357 108.765 31.8013 108.6 32.0055 108.6H32.1775C32.3818 108.6 32.5473 108.765 32.5473 108.968V111.616C32.5473 111.82 32.3818 111.985 32.1775 111.985Z" fill="#3DB8DB"/>
<path d="M8.34376 124.757C8.89444 124.757 9.34085 124.312 9.34085 123.763C9.34085 123.214 8.89444 122.769 8.34376 122.769C7.79309 122.769 7.34668 123.214 7.34668 123.763C7.34668 124.312 7.79309 124.757 8.34376 124.757Z" fill="white"/>
<path d="M11.7276 124.757C12.2782 124.757 12.7246 124.312 12.7246 123.763C12.7246 123.214 12.2782 122.769 11.7276 122.769C11.1769 122.769 10.7305 123.214 10.7305 123.763C10.7305 124.312 11.1769 124.757 11.7276 124.757Z" fill="white"/>
<path d="M34.5057 125.618H34.3337C34.1294 125.618 33.9639 125.453 33.9639 125.249V122.601C33.9639 122.397 34.1294 122.232 34.3337 122.232H34.5057C34.7099 122.232 34.8755 122.397 34.8755 122.601V125.249C34.8758 125.453 34.7102 125.618 34.5057 125.618Z" fill="black"/>
<path d="M36.8045 125.618H36.6325C36.4283 125.618 36.2627 125.453 36.2627 125.249V122.601C36.2627 122.397 36.4283 122.232 36.6325 122.232H36.8045C37.0087 122.232 37.1743 122.397 37.1743 122.601V125.249C37.1743 125.453 37.0087 125.618 36.8045 125.618Z" fill="black"/>
<path d="M38.9236 125.618H38.7516C38.5474 125.618 38.3818 125.453 38.3818 125.249V122.601C38.3818 122.397 38.5474 122.232 38.7516 122.232H38.9236C39.1279 122.232 39.2934 122.397 39.2934 122.601V125.249C39.2934 125.453 39.1279 125.618 38.9236 125.618Z" fill="white"/>
<path d="M32.1775 125.618H32.0055C31.8013 125.618 31.6357 125.453 31.6357 125.249V122.601C31.6357 122.397 31.8013 122.232 32.0055 122.232H32.1775C32.3818 122.232 32.5473 122.397 32.5473 122.601V125.249C32.5473 125.453 32.3818 125.618 32.1775 125.618Z" fill="#3DB8DB"/>
<path d="M8.34376 139.43C8.89444 139.43 9.34085 138.985 9.34085 138.436C9.34085 137.887 8.89444 137.442 8.34376 137.442C7.79309 137.442 7.34668 137.887 7.34668 138.436C7.34668 138.985 7.79309 139.43 8.34376 139.43Z" fill="white"/>
<path d="M12.0156 139.429C12.5663 139.429 13.0127 138.984 13.0127 138.435C13.0127 137.886 12.5663 137.441 12.0156 137.441C11.465 137.441 11.0186 137.886 11.0186 138.435C11.0186 138.984 11.465 139.429 12.0156 139.429Z" fill="white"/>
<path d="M34.5057 140.291H34.3337C34.1294 140.291 33.9639 140.126 33.9639 139.923V137.274C33.9639 137.071 34.1294 136.906 34.3337 136.906H34.5057C34.7099 136.906 34.8755 137.071 34.8755 137.274V139.923C34.8758 140.126 34.7102 140.291 34.5057 140.291Z" fill="black"/>
<path d="M36.8045 140.291H36.6325C36.4283 140.291 36.2627 140.126 36.2627 139.923V137.274C36.2627 137.071 36.4283 136.906 36.6325 136.906H36.8045C37.0087 136.906 37.1743 137.071 37.1743 137.274V139.923C37.1743 140.126 37.0087 140.291 36.8045 140.291Z" fill="black"/>
<path d="M38.9236 140.291H38.7516C38.5474 140.291 38.3818 140.126 38.3818 139.923V137.274C38.3818 137.071 38.5474 136.906 38.7516 136.906H38.9236C39.1279 136.906 39.2934 137.071 39.2934 137.274V139.923C39.2934 140.126 39.1279 140.291 38.9236 140.291Z" fill="white"/>
<path d="M32.1775 140.291H32.0055C31.8013 140.291 31.6357 140.126 31.6357 139.923V137.274C31.6357 137.071 31.8013 136.906 32.0055 136.906H32.1775C32.3818 136.906 32.5473 137.071 32.5473 137.274V139.923C32.5473 140.126 32.3818 140.291 32.1775 140.291Z" fill="#3DB8DB"/>
<path d="M22.8688 40.2894C22.8006 39.4973 21.9568 38.8639 21.1742 39.0177C20.7297 38.1492 19.5152 37.7799 18.6603 38.2531C18.2535 38.478 17.9461 38.8497 17.5492 39.0911C17.1675 39.3231 16.7211 39.4243 16.3184 39.6167C15.9153 39.8095 15.5296 40.142 15.479 40.5847C15.4227 41.0764 15.8152 41.531 16.2766 41.7146C16.738 41.8983 17.2523 41.8739 17.7483 41.8469C17.5315 41.9713 17.4847 42.2849 17.596 42.5081C17.7073 42.7313 17.9346 42.8747 18.1666 42.967C18.9374 43.2741 19.8782 43.1006 20.4882 42.5395L21.4161 41.83C22.213 41.8489 22.9366 41.0818 22.8688 40.2894Z" fill="black"/>
<path d="M20.5502 43.3824C20.3792 43.5515 20.0725 43.5336 19.8954 43.3706C19.7186 43.2076 19.6688 42.935 19.738 42.7046C19.8069 42.4743 19.9795 42.2853 20.1814 42.154C20.3833 42.0228 20.6143 41.9433 20.8453 41.875C21.2019 41.7692 21.5676 41.6863 21.9391 41.668C22.0711 41.6616 22.2071 41.6643 22.3289 41.7154C22.4507 41.7665 22.5555 41.8757 22.5661 42.0069C22.5813 42.1912 22.4192 42.337 22.2702 42.4469C21.7135 42.8565 21.1198 43.216 20.4983 43.5191" fill="#3DB8DB"/>
<path d="M20.0067 43.2881C19.1267 42.3093 16.9368 42.4399 16.4133 43.0764C15.6561 42.6773 14.5996 43.0192 14.222 43.7856C13.4448 43.9493 12.6672 44.1133 11.8899 44.277C11.4923 44.3609 11.0757 44.4536 10.7687 44.7191C10.4617 44.9846 10.3151 45.4821 10.5648 45.8017C9.74311 46.0087 9.41268 47.2238 10.0172 47.816C9.67967 48.1647 9.74176 48.8114 10.1394 49.0901C9.49138 49.8538 8.97503 50.7287 8.62084 51.6649C8.47259 52.0565 8.35283 52.4938 8.496 52.8875C8.63916 53.2812 9.15518 53.5551 9.49749 53.3126C9.26272 53.6285 9.23931 54.0865 9.44083 54.4243C9.04695 54.4311 8.92516 55.0375 9.19385 55.3247C9.46255 55.6121 9.90223 55.6449 10.2961 55.6389C10.6903 55.6324 11.1171 55.6152 11.4391 55.8414C11.4238 55.9588 11.3766 56.0352 11.3088 56.0897C10.6282 56.6332 10.4294 57.5765 10.9319 58.2871C10.9784 58.353 11.0218 58.4139 11.0598 58.4683C11.2861 58.7927 11.8486 59.0927 12.1987 59.2777C13.0862 59.7468 13.6175 59.6632 14.6108 59.8134C14.335 60.4509 15.94 61.8785 17.7985 60.4996C21.4794 61.5132 24.1355 61.9069 27.9539 61.9441C28.4987 61.9495 29.1542 61.8805 29.3991 61.3952C29.8402 61.5149 30.3185 61.314 30.6469 60.9975C30.9757 60.6809 31.1836 60.2632 31.3858 59.8547C32.331 59.6091 33.0641 58.7071 33.1096 57.7344C33.7525 57.2413 34.1708 56.4685 34.2308 55.6622C35.1502 55.3899 35.6642 54.2069 35.2344 53.3522C35.0451 52.23 34.6681 51.1396 34.124 50.1392C34.7496 50.009 34.9908 49.1709 34.738 48.5858C34.4853 48.0007 33.9194 47.6212 33.3827 47.2756C33.8488 47.4028 34.26 46.821 34.1521 46.3513C34.0443 45.8815 33.6236 45.5555 33.211 45.3045C32.6065 44.9369 31.9568 44.6426 31.2813 44.4302C31.0649 43.609 30.021 42.6681 29.2536 42.2998C26.1582 40.812 23.9849 40.4258 20.0067 43.2881Z" fill="black"/>
<path d="M17.6152 48.2535C17.5728 47.6032 17.4642 46.9585 18.1108 46.8608L24.7108 44.8772C26.8386 44.5552 28.3795 47.1155 28.6119 49.2489C28.8701 51.6187 29.0916 54.5223 28.8894 56.3084C28.4833 59.8998 25.3089 60.8644 25.3089 60.8644C25.3082 60.8597 25.3913 63.0428 25.3913 63.0428C25.1169 64.719 24.6921 66.6045 24.0095 67.2752C21.6748 66.8406 17.853 61.7228 17.853 61.7228L17.6152 48.2535Z" fill="#AE7461"/>
<path d="M25.1581 54.6692C25.1547 54.6415 25.459 54.5749 25.9533 54.489C26.0788 54.4704 26.1969 54.4399 26.2142 54.3534C26.24 54.261 26.1809 54.1281 26.1131 53.9847C25.9808 53.6861 25.8424 53.3729 25.6968 53.0448C25.1174 51.7059 24.6916 50.6026 24.7459 50.5799C24.8002 50.5573 25.3141 51.624 25.8936 52.963C26.0334 53.2934 26.167 53.6083 26.2946 53.9093C26.3489 54.05 26.4381 54.2083 26.3825 54.3997C26.3526 54.4951 26.2634 54.5674 26.1837 54.5928C26.1039 54.6209 26.033 54.6256 25.9709 54.632C25.4716 54.6811 25.1611 54.6973 25.1581 54.6692Z" fill="black"/>
<path d="M25.3095 60.8639C25.3095 60.8639 23.3638 60.7401 20.915 59.4194C20.915 59.4194 21.7449 61.6702 25.3407 61.9442L25.3095 60.8639Z" fill="#6F4439"/>
<path d="M23.0495 49.1856C23.007 49.3216 22.511 49.2803 21.9353 49.376C21.3576 49.4603 20.8982 49.6503 20.8158 49.5337C20.7788 49.4778 20.8544 49.3483 21.0376 49.2103C21.2188 49.0727 21.5119 48.936 21.858 48.8819C22.204 48.8281 22.5246 48.8691 22.7394 48.9448C22.9558 49.0209 23.0674 49.121 23.0495 49.1856Z" fill="black"/>
<path d="M27.7972 49.1046C27.7154 49.2202 27.37 49.1195 26.9609 49.1326C26.5514 49.1313 26.2091 49.2419 26.1243 49.1286C26.087 49.0735 26.1361 48.9588 26.2827 48.8462C26.4269 48.7339 26.6725 48.6365 26.9538 48.6324C27.235 48.6287 27.4833 48.719 27.6306 48.8269C27.7802 48.9351 27.8328 49.0481 27.7972 49.1046Z" fill="black"/>
<path d="M30.2209 50.9615C30.1866 50.4028 30.0105 49.8346 29.6262 49.426C29.4158 49.2021 29.1492 49.032 28.9626 48.7882C28.5595 48.2612 28.6162 47.529 28.4449 46.8888C28.224 46.0635 27.577 45.3641 26.7699 45.0773C26.0985 44.8389 25.3379 44.8713 24.7079 44.5385C24.2421 44.2927 23.8876 43.8655 23.4082 43.6474C22.4746 43.2226 21.392 43.7008 20.5106 44.2247C20.3362 44.9227 20.7796 45.5268 21.2071 46.1065C21.6342 46.6862 22.3277 47.0626 23.0483 47.1052C23.607 47.1384 24.2598 47.0122 24.653 47.4093C25.0665 47.827 24.9067 48.5639 25.2467 49.0432C25.7328 49.728 26.8374 49.4669 27.5641 49.89C28.1253 50.2168 28.3614 50.8857 28.6443 51.4691C28.9269 52.0526 29.4158 52.6607 30.0652 52.6295C30.1602 52.0779 30.2551 51.5202 30.2209 50.9615Z" fill="black"/>
<path d="M21.9071 45.4945C20.2743 45.4708 18.637 45.7661 17.1161 46.3593C16.6628 46.5362 16.194 46.7607 15.9358 47.172C15.7088 47.5336 15.6817 47.9827 15.6871 48.4092C15.7038 49.7451 16.2445 51.3804 16.7565 52.6152L18.4307 53.6125C19.7192 53.3075 19.1259 51.0898 19.0631 49.9781C19.9621 49.5841 20.5891 48.6378 20.5999 47.6587C21.3355 47.1872 21.8331 46.3637 21.9071 45.4945Z" fill="black"/>
<path d="M18.4074 53.1335C18.3562 52.3694 17.4151 52.2216 16.7566 52.616C16.3953 52.8325 16.1232 53.26 16.1704 54.0713C16.2966 56.2345 18.4488 55.6619 18.4492 55.6C18.4492 55.5608 18.4671 54.0277 18.4074 53.1335Z" fill="#AE7461"/>
<path d="M17.7372 54.8181C17.7274 54.8116 17.7009 54.8468 17.6388 54.8796C17.5781 54.9117 17.4723 54.9374 17.3566 54.9019C17.1225 54.8312 16.9084 54.4795 16.8752 54.0902C16.8582 53.8937 16.8887 53.704 16.9495 53.5447C17.0065 53.3827 17.1025 53.266 17.2168 53.2389C17.3301 53.2058 17.4159 53.2701 17.4458 53.3292C17.4784 53.3881 17.4672 53.4321 17.4787 53.4351C17.4851 53.4402 17.5231 53.3962 17.5004 53.3079C17.4889 53.2657 17.4604 53.2159 17.4071 53.1774C17.3525 53.1382 17.2748 53.1209 17.1947 53.1344C17.0282 53.1557 16.8864 53.3177 16.8195 53.4926C16.7435 53.6688 16.7045 53.8826 16.7235 54.1031C16.7629 54.538 17.0105 54.933 17.3294 55.0054C17.4845 55.0362 17.609 54.9831 17.6717 54.9283C17.7362 54.8705 17.745 54.8214 17.7372 54.8181Z" fill="#6F4439"/>
<path d="M17.4975 55.7277C17.4985 55.7277 17.4961 55.7375 17.4911 55.7564C17.4836 55.7744 17.4836 55.8061 17.4619 55.8386C17.432 55.911 17.3459 55.9986 17.2105 56.0635C17.0751 56.1295 16.8906 56.1697 16.6738 56.1755C16.5652 56.1795 16.4485 56.1724 16.3254 56.1531C16.2025 56.1335 16.0723 56.1028 15.9454 56.0388L15.9715 56.026C15.925 56.3206 15.7303 56.6388 15.3975 56.8116C15.0698 56.9848 14.6043 56.9726 14.2532 56.7109L14.2898 56.7044C14.2264 56.8012 14.1212 56.8708 14.0055 56.8938C13.8902 56.9202 13.767 56.9067 13.654 56.8647C13.5411 56.8228 13.4372 56.7426 13.3711 56.6361C13.3043 56.5306 13.2683 56.4065 13.2605 56.28C13.2449 56.0267 13.3375 55.7672 13.4963 55.5582C13.653 55.3458 13.86 55.1734 14.0679 55.0022L14.0717 55.0523C13.8888 54.9457 13.7684 54.7486 13.727 54.5399C13.6839 54.3305 13.7049 54.106 13.7884 53.9017C13.8732 53.6984 14.0106 53.5192 14.1677 53.3619C14.3251 53.204 14.5025 53.0656 14.681 52.928L14.6776 52.9767C14.5164 52.817 14.4479 52.5773 14.4632 52.3493C14.4774 52.1197 14.5629 51.892 14.7078 51.7067C14.9863 51.3519 15.3917 51.1547 15.7652 50.9694L15.7479 51.0066C15.6306 50.5328 15.772 50.0217 16.0889 49.6828C16.4068 49.3429 16.8777 49.182 17.3116 49.232L17.278 49.2692C17.1922 48.8813 17.336 48.4893 17.5708 48.2164C17.8052 47.9397 18.1465 47.7652 18.4871 47.7665L18.46 47.7939C18.46 47.3976 18.6812 47.0573 18.9516 46.8503C19.224 46.6389 19.5616 46.551 19.8584 46.5997L19.8336 46.621C19.8404 46.4103 19.9181 46.2246 20.0094 46.066C20.1027 45.9074 20.2146 45.7725 20.3385 45.6686C20.5797 45.4518 20.8589 45.3636 21.0804 45.349C21.1082 45.347 21.1354 45.345 21.1618 45.3433C21.1883 45.3436 21.2137 45.3473 21.2382 45.349C21.2874 45.3548 21.3342 45.3541 21.3756 45.3646C21.458 45.3876 21.5303 45.3974 21.5829 45.4227C21.6341 45.4444 21.6741 45.4616 21.704 45.4742C21.7311 45.486 21.7443 45.4924 21.744 45.4934C21.7437 45.4944 21.7291 45.4897 21.7016 45.4796C21.6714 45.4684 21.631 45.4532 21.5791 45.4336C21.5262 45.4102 21.4543 45.4028 21.3725 45.3818C21.3315 45.372 21.2853 45.374 21.2368 45.369C21.2124 45.3676 21.1873 45.3646 21.1615 45.3646C21.1357 45.3669 21.1089 45.369 21.0818 45.3713C20.865 45.3893 20.5943 45.4785 20.3605 45.6933C20.2408 45.7958 20.1322 45.929 20.0426 46.0846C19.9548 46.2395 19.8811 46.4225 19.8764 46.6203L19.8757 46.6454L19.8516 46.6417C19.567 46.5973 19.243 46.6833 18.9818 46.8885C18.7219 47.0894 18.5122 47.4182 18.5143 47.7933V47.8207H18.4871C18.1648 47.8207 17.8391 47.9874 17.6152 48.2539C17.391 48.5167 17.2563 48.8914 17.338 49.256L17.3475 49.298L17.3048 49.2929C16.8906 49.2455 16.438 49.4014 16.1361 49.7261C15.8345 50.0491 15.6994 50.5402 15.8121 50.9907L15.8185 51.0161L15.7948 51.0279C15.4212 51.2132 15.0257 51.4081 14.7604 51.7469C14.6236 51.9218 14.5426 52.1376 14.5293 52.353C14.5151 52.5674 14.5789 52.7863 14.7247 52.931L14.7509 52.9571L14.7213 52.9797C14.3678 53.2503 14.0123 53.5354 13.8481 53.926C13.769 54.1175 13.749 54.3309 13.7891 54.527C13.8281 54.7229 13.9383 54.9024 14.1036 54.9995L14.1415 55.0218L14.1076 55.0496C13.8993 55.2197 13.6961 55.3891 13.5448 55.5931C13.3911 55.794 13.3046 56.0378 13.3178 56.2763C13.3277 56.512 13.459 56.7406 13.6737 56.814C13.8776 56.8952 14.1354 56.8526 14.2474 56.6764L14.262 56.653L14.284 56.6696C14.6162 56.9205 15.0633 56.9358 15.3775 56.7717C15.6974 56.6084 15.8884 56.3026 15.9359 56.0192L15.94 55.9949L15.962 56.006C16.0828 56.0683 16.2107 56.1004 16.3308 56.1207C16.4512 56.141 16.5666 56.1494 16.6734 56.1467C16.8872 56.1437 17.069 56.1068 17.2027 56.0453C17.336 55.9844 17.4215 55.9022 17.4534 55.8332C17.488 55.7673 17.4934 55.726 17.4975 55.7277Z" fill="black"/>
<path d="M9.22894 53.4146C9.22894 53.4146 9.194 53.3744 9.14718 53.2841C9.10206 53.1941 9.04472 53.0511 9.03183 52.8559C9.01894 52.6638 9.05185 52.4122 9.20926 52.1771C9.36227 51.9455 9.63775 51.7307 9.99533 51.6783L9.97701 51.7043C9.90712 51.3732 9.9614 50.9789 10.1728 50.6366C10.2759 50.4648 10.4191 50.3075 10.5972 50.1864C10.7753 50.0613 10.9894 49.9974 11.1905 49.9074C11.2913 49.8624 11.39 49.81 11.4748 49.739C11.56 49.6683 11.6258 49.5766 11.673 49.4725C11.7693 49.2651 11.8002 49.0199 11.922 48.7967C12.1646 48.3574 12.7016 48.0611 13.2434 48.1426L13.2061 48.1791C13.1348 47.6854 13.2939 47.1381 13.66 46.7485C14.0413 46.343 14.6093 46.1512 15.1314 46.2138L15.0954 46.2497C15.0306 45.6155 15.3879 45.002 15.9052 44.7379C16.426 44.4713 17.0458 44.5397 17.4689 44.8261L17.4339 44.8295C17.6572 44.6076 17.9279 44.4656 18.1918 44.3678C18.4575 44.2725 18.7204 44.2113 18.9704 44.1893C19.4702 44.1321 19.9102 44.1906 20.2572 44.2755C20.6046 44.3648 20.8621 44.4866 21.0216 44.5917C21.1054 44.6384 21.1576 44.6915 21.198 44.7196C21.2367 44.75 21.2553 44.7673 21.2553 44.7673C21.2516 44.772 21.1743 44.7054 21.0128 44.606C20.8516 44.5058 20.5945 44.3902 20.2494 44.3063C19.9047 44.2268 19.4685 44.1734 18.9752 44.2336C18.7282 44.2573 18.4697 44.3198 18.2095 44.4149C17.951 44.5123 17.6874 44.653 17.4729 44.8684L17.457 44.8846L17.438 44.8718C17.0305 44.5982 16.4311 44.5353 15.9334 44.7923C15.4394 45.0453 15.0968 45.6382 15.1599 46.2429L15.1643 46.2835L15.1239 46.2787C14.6225 46.2189 14.0739 46.4049 13.7085 46.7942C13.357 47.1679 13.203 47.6962 13.2709 48.1707L13.277 48.214L13.2336 48.2072C12.723 48.1284 12.207 48.4108 11.9769 48.8272C11.8613 49.0358 11.8294 49.2793 11.7279 49.4982C11.6784 49.6077 11.6055 49.7085 11.5132 49.7843C11.4216 49.8604 11.3178 49.9145 11.2146 49.9602C11.008 50.0511 10.7984 50.1134 10.6284 50.2317C10.4567 50.3471 10.3176 50.4979 10.2169 50.6633C10.0106 50.9931 9.95495 51.3749 10.0201 51.6955L10.0248 51.7182L10.0018 51.7216C9.65844 51.7693 9.38907 51.9735 9.2381 52.1964C9.08306 52.4223 9.04676 52.6665 9.05592 52.8549C9.06474 53.0463 9.11733 53.1884 9.15838 53.279C9.20078 53.3697 9.23165 53.413 9.22894 53.4146Z" fill="black"/>
<path d="M29.9848 53.9995C29.9882 54.0022 29.9393 53.9407 29.9763 53.8219C29.995 53.7648 30.0367 53.7002 30.1032 53.6427C30.169 53.5832 30.2647 53.5426 30.3712 53.5081C30.4771 53.4722 30.6002 53.4428 30.7098 53.3671C30.819 53.2916 30.9059 53.1678 30.9541 53.0197C31.0046 52.8716 31.0185 52.7028 31.0087 52.5246C31.0009 52.346 30.9727 52.1569 30.9727 51.9547C30.9686 51.5444 31.1427 51.1278 31.2485 50.6756C31.2998 50.4496 31.3211 50.2058 31.2777 49.964C31.2346 49.7249 31.1088 49.4857 30.8842 49.3555C30.6633 49.2203 30.3905 49.1797 30.1236 49.0988C29.9899 49.0576 29.8542 49.0048 29.7348 48.9186C29.6133 48.8344 29.5241 48.7085 29.4603 48.5766C29.3321 48.3081 29.3002 48.0105 29.232 47.725C29.1987 47.582 29.1553 47.4399 29.0814 47.3148C29.0094 47.1883 28.8954 47.0916 28.7614 47.0351C28.5745 46.9651 28.3659 46.9749 28.1609 46.9532C28.0581 46.9427 27.9533 46.9225 27.857 46.8771C27.7603 46.8325 27.6758 46.7611 27.6168 46.6752C27.496 46.5027 27.4522 46.3035 27.3895 46.1226C27.3321 45.9386 27.2402 45.7736 27.117 45.6342C26.8731 45.3548 26.5193 45.1901 26.1719 45.1837C25.8238 45.1753 25.4886 45.3034 25.2508 45.5162L25.2219 45.5419L25.206 45.5067C24.9376 44.9182 24.4152 44.5411 23.9171 44.3977C23.6658 44.3253 23.4171 44.3118 23.1918 44.3355C22.9665 44.3578 22.7637 44.4177 22.5957 44.5009C22.2561 44.6686 22.0651 44.9118 21.962 45.0819C21.9077 45.1671 21.8758 45.2378 21.8544 45.2855C21.8439 45.3072 21.8354 45.3244 21.8287 45.339C21.8226 45.3508 21.8192 45.3569 21.8185 45.3565C21.8178 45.3562 21.8198 45.3498 21.8243 45.3373C21.83 45.3224 21.8371 45.3045 21.846 45.2821C21.8646 45.2331 21.8945 45.161 21.9467 45.0731C22.0461 44.8986 22.2361 44.6473 22.5805 44.4714C22.7515 44.3845 22.9574 44.3213 23.1871 44.2959C23.4164 44.2699 23.6708 44.2814 23.9294 44.3537C24.4406 44.4971 24.978 44.8793 25.2572 45.4837L25.2124 45.4742C25.4604 45.2503 25.8089 45.1157 26.1732 45.1232C26.5379 45.1286 26.9091 45.3004 27.1645 45.5923C27.2935 45.7363 27.3918 45.9139 27.4505 46.1016C27.5143 46.2859 27.5591 46.4804 27.6697 46.637C27.7766 46.799 27.9689 46.8714 28.1674 46.8873C28.3655 46.9089 28.5789 46.8967 28.7845 46.9728C28.9328 47.0344 29.0596 47.1436 29.1373 47.2803C29.2167 47.4152 29.2615 47.5634 29.2951 47.7091C29.364 47.9993 29.3965 48.2939 29.518 48.5479C29.5784 48.673 29.6601 48.7884 29.7721 48.8665C29.8823 48.9463 30.0113 48.9981 30.1419 49.0383C30.4024 49.1188 30.6806 49.1594 30.9161 49.3038C31.0321 49.3755 31.1332 49.4726 31.2004 49.5879C31.2692 49.7022 31.3113 49.8277 31.3347 49.9535C31.3792 50.2061 31.3554 50.4567 31.3018 50.6874C31.1915 51.1464 31.0175 51.5559 31.0192 51.9547C31.0175 52.1522 31.044 52.3416 31.0504 52.5225C31.0589 52.7035 31.0429 52.8787 30.9887 53.0315C30.9371 53.1844 30.8441 53.3146 30.7274 53.3928C30.6101 53.4712 30.4842 53.4983 30.3787 53.5324C30.2718 53.5649 30.1799 53.6018 30.1154 53.6576C30.0503 53.7113 30.0082 53.7722 29.9885 53.8263C29.9495 53.938 29.9919 53.9998 29.9848 53.9995Z" fill="black"/>
<path d="M34.1966 50.6478C34.1956 50.6485 34.1881 50.6346 34.1742 50.6076C34.1593 50.5771 34.1396 50.5372 34.1145 50.4862C34.0616 50.3752 33.9866 50.218 33.8906 50.0171C33.7922 49.8141 33.6823 49.5601 33.5249 49.2825C33.3675 49.0092 33.151 48.6974 32.7978 48.5059C32.6221 48.4109 32.4192 48.3483 32.2157 48.258C32.1142 48.2124 32.0118 48.1589 31.9192 48.0852C31.8262 48.0128 31.7478 47.9151 31.6976 47.8028C31.5948 47.5782 31.5914 47.3239 31.5093 47.0915C31.4676 46.9769 31.4018 46.8687 31.3003 46.7959C31.2013 46.7202 31.0775 46.6762 30.9516 46.6349C30.8257 46.5933 30.6924 46.5565 30.5675 46.4885C30.4407 46.4239 30.3362 46.3113 30.271 46.1824C30.1408 45.9196 30.1391 45.623 30.0851 45.3433C30.0587 45.2033 30.0203 45.0626 29.9409 44.9463C29.8636 44.8282 29.7364 44.7501 29.5966 44.7203C29.3113 44.6612 29.0046 44.7602 28.6867 44.7105C28.5279 44.6842 28.3786 44.603 28.2691 44.49C28.1585 44.3774 28.0764 44.2462 27.9987 44.1177C27.921 43.9888 27.848 43.8599 27.7605 43.7446C27.674 43.6293 27.5688 43.5292 27.4413 43.4723C27.1831 43.3536 26.8893 43.4179 26.6216 43.4794C26.3519 43.5417 26.0703 43.609 25.7972 43.5508C25.5265 43.4964 25.2948 43.3577 25.08 43.2255C24.8643 43.0932 24.6607 42.9522 24.4415 42.872C23.9978 42.7144 23.5401 42.7354 23.1537 42.8311C22.7639 42.9282 22.4436 43.1179 22.2001 43.3212C21.9544 43.5265 21.7957 43.7547 21.6739 43.9425C21.5636 44.1379 21.4866 44.2952 21.4486 44.4078C21.4276 44.4603 21.4109 44.5019 21.3984 44.5333C21.3869 44.5614 21.3801 44.5756 21.379 44.5752C21.378 44.5749 21.3824 44.56 21.3919 44.5313C21.4031 44.4991 21.4177 44.4569 21.436 44.4034C21.4703 44.2891 21.5439 44.1292 21.6518 43.9296C21.7719 43.7382 21.9293 43.5048 22.1763 43.2934C22.4216 43.0844 22.7456 42.8883 23.1422 42.7865C23.5354 42.6863 24.0019 42.6606 24.4609 42.8213C24.6906 42.9041 24.8955 43.0459 25.1109 43.1767C25.325 43.308 25.5519 43.4416 25.8094 43.492C26.0666 43.5461 26.3363 43.4822 26.6077 43.4186C26.7444 43.3878 26.8839 43.355 27.0304 43.3452C27.1756 43.335 27.3297 43.3506 27.4688 43.4145C27.6089 43.4767 27.7225 43.586 27.8128 43.7057C27.9044 43.8258 27.9783 43.9567 28.0553 44.0845C28.1323 44.212 28.2128 44.3392 28.3162 44.444C28.419 44.5495 28.552 44.6209 28.6982 44.6459C28.9941 44.6946 29.3008 44.5949 29.6108 44.6564C29.7645 44.6886 29.9097 44.7778 29.9952 44.9094C30.0831 45.0386 30.1221 45.1881 30.1492 45.3315C30.2028 45.6183 30.2062 45.9105 30.3277 46.1544C30.3888 46.2737 30.48 46.3739 30.5981 46.4344C30.7141 46.4983 30.8437 46.5352 30.9709 46.5775C31.0978 46.6194 31.2277 46.6654 31.3366 46.7486C31.4483 46.8291 31.5212 46.9505 31.5643 47.0719C31.6488 47.3175 31.6511 47.5694 31.7478 47.7801C31.8387 47.9949 32.0399 48.1238 32.237 48.2114C32.4362 48.3013 32.6404 48.3656 32.8206 48.4647C33.1846 48.6659 33.4014 48.9869 33.5574 49.2639C33.7132 49.5459 33.8197 49.8013 33.9143 50.0059C34.0056 50.2092 34.0768 50.3681 34.1271 50.4801C34.1494 50.5322 34.1674 50.5731 34.1807 50.6042C34.1919 50.6326 34.1976 50.6471 34.1966 50.6478Z" fill="black"/>
<path d="M31.8859 48.3842C31.8859 48.3832 31.8991 48.3808 31.9256 48.3774C31.9517 48.3781 31.9937 48.3785 32.0409 48.4028C32.1352 48.4488 32.2414 48.5861 32.257 48.786C32.2631 48.8868 32.2384 48.9943 32.2105 49.1097C32.1834 49.2243 32.1481 49.3495 32.1546 49.4844C32.161 49.6193 32.2234 49.7543 32.3076 49.8838C32.3917 50.0144 32.4992 50.1422 32.5858 50.2975C32.675 50.448 32.7181 50.657 32.64 50.842C32.5708 51.0263 32.4365 51.1802 32.3707 51.3676C32.3028 51.5549 32.3428 51.768 32.43 51.9628C32.5145 52.1607 32.6353 52.3521 32.7184 52.5719C32.7605 52.6812 32.7886 52.8006 32.7883 52.923C32.788 53.0458 32.7571 53.1685 32.7062 53.2812C32.6017 53.5071 32.4355 53.6951 32.2937 53.8981C32.1515 54.0979 32.0324 54.3327 32.0647 54.5833C32.0925 54.8332 32.2336 55.0618 32.3272 55.3131C32.3741 55.4393 32.409 55.5735 32.408 55.7109C32.4059 55.8478 32.3669 55.9814 32.3062 56.0998C32.1834 56.3376 31.9995 56.5226 31.8384 56.712C31.6755 56.9003 31.5293 57.0965 31.4591 57.3245C31.3814 57.5487 31.3414 57.7858 31.2341 57.9982C31.1809 58.1034 31.1076 58.2008 31.0136 58.2718C30.92 58.3442 30.8107 58.3848 30.7069 58.4192C30.6024 58.4534 30.4993 58.4825 30.406 58.5261C30.3137 58.5718 30.2293 58.6286 30.1553 58.6962C30.0084 58.8336 29.8995 58.9986 29.7998 59.1593C29.7 59.3202 29.6074 59.4789 29.5036 59.6209C29.2977 59.9091 29.0147 60.0927 28.7477 60.1756C28.4804 60.2622 28.2331 60.2703 28.0387 60.2436C27.8433 60.2168 27.6984 60.1631 27.6061 60.1177C27.5138 60.0714 27.4697 60.0396 27.4697 60.0396C27.4738 60.0261 27.6539 60.1705 28.0417 60.2182C28.2331 60.2409 28.4756 60.2287 28.7358 60.1411C28.9961 60.0562 29.2671 59.8766 29.4659 59.5939C29.5667 59.4535 29.6573 59.2959 29.7563 59.1329C29.8554 58.9705 29.9653 58.8011 30.118 58.6563C30.195 58.585 30.2842 58.5238 30.3819 58.4751C30.4807 58.4284 30.5858 58.3983 30.6886 58.3641C30.7911 58.3296 30.8932 58.2907 30.9777 58.2244C31.0628 58.1592 31.1297 58.0702 31.1799 57.9704C31.2813 57.7695 31.321 57.5345 31.3994 57.3038C31.4713 57.0671 31.6257 56.8587 31.7892 56.6697C31.952 56.4789 32.1322 56.2949 32.2475 56.07C32.3045 55.9581 32.3398 55.8353 32.3418 55.7095C32.3428 55.5837 32.3106 55.4579 32.2652 55.3358C32.1753 55.0916 32.03 54.8603 31.9992 54.59C31.9829 54.4564 32.0053 54.3198 32.0524 54.1974C32.0996 54.0743 32.1685 53.964 32.2407 53.8605C32.3859 53.6542 32.5498 53.4682 32.6489 53.2544C32.6974 53.1479 32.7255 53.0349 32.7265 52.922C32.7272 52.809 32.7018 52.6974 32.6618 52.5919C32.5827 52.3798 32.4633 52.1881 32.3771 51.9845C32.2882 51.7849 32.2441 51.5519 32.3194 51.3483C32.3924 51.1481 32.5274 50.9955 32.5925 50.8227C32.6651 50.6509 32.6288 50.4659 32.5447 50.3181C32.4629 50.1679 32.3571 50.0387 32.2723 49.9051C32.1878 49.7722 32.123 49.6288 32.1179 49.4847C32.1132 49.3417 32.1515 49.2148 32.1803 49.1009C32.2099 48.9869 32.2356 48.881 32.2316 48.7863C32.2207 48.5949 32.122 48.4603 32.0348 48.4133C31.9439 48.3673 31.8848 48.3906 31.8859 48.3842Z" fill="black"/>
<path d="M23.5993 55.3943C23.6593 55.2495 23.8259 55.1802 23.9731 55.234C24.4264 55.3997 24.8796 55.5654 25.3329 55.7311L25.4842 55.7863C25.4191 56.025 25.3156 56.3707 25.1833 56.58C25.051 56.7894 24.8413 56.9646 24.595 56.9944C24.4098 57.0167 24.1804 56.9507 24.0223 56.852C23.7458 56.6791 23.4815 56.4881 23.4205 56.1684C23.3774 55.9418 23.5104 55.6074 23.5993 55.3943Z" fill="#6F4439"/>
<path d="M16.2146 55.3741C16.2146 55.3741 16.0833 55.413 15.8899 55.5614C15.7006 55.7069 15.4516 55.9923 15.3634 56.4256C15.3169 56.639 15.3159 56.8848 15.3807 57.1355C15.4496 57.3837 15.5808 57.6343 15.778 57.8477C15.9724 58.0625 16.2312 58.2417 16.5325 58.3422C16.8331 58.4447 17.1767 58.4545 17.5004 58.3628C17.824 58.2725 18.1144 58.0943 18.3278 57.8599C18.5436 57.6265 18.6749 57.3364 18.7224 57.0502C18.8157 56.4719 18.6019 55.9375 18.2953 55.627C18.1382 55.4701 17.9597 55.3768 17.8013 55.3095C17.6415 55.2428 17.4939 55.211 17.3728 55.1982C17.2514 55.1863 17.156 55.1941 17.0933 55.208C17.0308 55.2222 17 55.2357 17.0006 55.2374C17.002 55.2472 17.1319 55.1955 17.3691 55.23C17.4865 55.2472 17.629 55.2827 17.783 55.3517C17.9356 55.4207 18.1073 55.5168 18.2529 55.6673C18.5416 55.9696 18.7404 56.4854 18.6467 57.037C18.5992 57.31 18.4737 57.5829 18.2678 57.8044C18.0642 58.0266 17.7867 58.1964 17.478 58.2827C17.1693 58.3696 16.8442 58.3608 16.5583 58.2647C16.2712 58.1704 16.0222 58.0003 15.8346 57.796C15.6439 57.5931 15.5164 57.3539 15.4472 57.1172C15.3827 56.8791 15.38 56.6434 15.4211 56.4371C15.4987 56.0183 15.7315 55.7363 15.9106 55.5861C16.0931 55.4332 16.2193 55.3828 16.2146 55.3741Z" fill="#E0E0E0"/>
<path d="M23.41 52.5855C23.4297 52.833 23.2357 53.0535 22.9768 53.0786C22.7183 53.1036 22.4927 52.924 22.473 52.6764C22.4537 52.4289 22.6477 52.208 22.9059 52.183C23.1644 52.158 23.3904 52.3379 23.41 52.5855Z" fill="black"/>
<path d="M27.9397 52.4692C27.9594 52.7168 27.7653 52.9373 27.5061 52.9624C27.2476 52.9874 27.022 52.8078 27.0023 52.5602C26.983 52.3127 27.177 52.0918 27.4352 52.0668C27.6944 52.0417 27.9203 52.2217 27.9397 52.4692Z" fill="black"/>
<path d="M27.7477 50.7403C27.7026 50.811 27.3423 50.5672 26.8799 50.6186C26.4171 50.6622 26.1115 50.9751 26.0534 50.9145C26.0253 50.8881 26.0653 50.765 26.1976 50.6243C26.3279 50.4843 26.5613 50.3369 26.8493 50.3071C27.1377 50.2777 27.3952 50.3744 27.5499 50.485C27.7077 50.5959 27.7704 50.7086 27.7477 50.7403Z" fill="black"/>
<path d="M23.3276 51.1195C23.2642 51.1919 22.8679 50.8848 22.3115 50.8899C21.7555 50.8865 21.3508 51.195 21.2894 51.1226C21.2595 51.0905 21.3223 50.9602 21.4994 50.8206C21.6727 50.6816 21.9696 50.5456 22.3163 50.5449C22.663 50.5449 22.9565 50.6795 23.1258 50.8179C23.2984 50.9572 23.3585 51.0874 23.3276 51.1195Z" fill="black"/>
<path d="M24.9036 56.8258C24.9076 56.8302 24.8649 56.8847 24.7546 56.9357C24.6454 56.9878 24.4636 57.0183 24.2498 56.9777C24.0385 56.9347 23.7942 56.8295 23.5852 56.6259C23.4804 56.5255 23.3942 56.3834 23.3582 56.2252C23.3216 56.0662 23.3328 55.8971 23.3722 55.7368C23.4112 55.5755 23.4743 55.429 23.5435 55.2924C23.5801 55.2234 23.6351 55.1371 23.7409 55.108C23.8461 55.0847 23.9248 55.1256 23.9866 55.1479C24.2271 55.2447 24.4527 55.3357 24.6613 55.4195C25.044 55.5782 25.2771 55.686 25.27 55.705C25.2628 55.7239 25.0169 55.6505 24.6247 55.5166C24.4127 55.4415 24.1833 55.3607 23.9387 55.2741C23.8003 55.2163 23.7358 55.2244 23.6717 55.3576C23.6086 55.4865 23.5499 55.6255 23.515 55.7709C23.4363 56.0621 23.4977 56.352 23.6826 56.5319C23.8614 56.7166 24.0832 56.8258 24.2729 56.8765C24.4649 56.9256 24.6288 56.9141 24.735 56.882C24.8422 56.8515 24.8958 56.8143 24.9036 56.8258Z" fill="black"/>
<path d="M33.9697 41.7177C33.9582 41.7336 33.7882 41.5391 33.377 41.3758C33.1724 41.299 32.9071 41.231 32.5964 41.2378C32.288 41.2412 31.9314 41.3186 31.603 41.5232L31.5555 41.5527L31.527 41.504C31.317 41.1438 30.9266 40.8367 30.4397 40.7078C29.9603 40.5769 29.3717 40.6199 28.9134 40.9486L28.8564 40.9895L28.8153 40.9334C28.4069 40.376 27.729 39.9401 26.9596 39.8122C26.3683 39.7111 25.7698 39.8207 25.2694 40.0662C24.7673 40.3107 24.3609 40.6858 24.0939 41.1062L24.0749 41.136L24.0396 41.1373C23.378 41.1627 22.7769 41.3311 22.2887 41.5702C21.7947 41.8019 21.4113 42.0972 21.1226 42.3647C20.5473 42.9106 20.3471 43.3401 20.3247 43.3242C20.3216 43.3225 20.3332 43.2961 20.3593 43.2468C20.3864 43.198 20.4227 43.123 20.4811 43.0323C20.5961 42.85 20.782 42.5913 21.0673 42.3079C21.353 42.0272 21.7384 41.717 22.2402 41.4715C22.7362 41.2188 23.3522 41.0372 24.0352 41.0051L23.9812 41.0362C24.2577 40.5925 24.6808 40.1968 25.206 39.938C25.7288 39.6783 26.3605 39.5613 26.9833 39.6675C27.7925 39.8021 28.5012 40.261 28.9287 40.8502L28.8306 40.835C29.3351 40.4778 29.9661 40.4406 30.4736 40.5847C30.9893 40.7271 31.4029 41.0599 31.621 41.4502L31.5454 41.4309C31.8982 41.2195 32.2744 41.1468 32.5957 41.1512C32.9194 41.1526 33.1918 41.2317 33.3991 41.3196C33.607 41.4096 33.7502 41.5141 33.8418 41.5888C33.9314 41.6687 33.9731 41.7147 33.9697 41.7177Z" fill="black"/>
<path d="M19.2626 40.9629C19.2626 40.9629 19.0859 41.0697 18.7205 41.0927C18.3666 41.1147 17.7926 41.0359 17.2932 40.5831C17.0503 40.3581 16.8467 40.0338 16.7636 39.6482C16.6798 39.2657 16.7019 38.8244 16.8837 38.4138C17.0622 38.0028 17.4242 37.6454 17.8805 37.4621C18.3334 37.2754 18.8809 37.2456 19.3736 37.4495L19.2891 37.4702C19.4865 37.2324 19.7847 37.065 20.106 37.0058C20.3717 36.9544 20.6481 36.9791 20.8968 37.0731C21.1452 37.1708 21.3562 37.3464 21.498 37.5591C21.7843 37.9836 21.8305 38.5362 21.6218 38.9651L21.5241 38.8771C21.8814 38.664 22.3146 38.6958 22.642 38.8545C22.9778 39.0097 23.216 39.3121 23.3018 39.6286C23.4833 40.2719 23.2106 40.8712 22.8696 41.1841C22.5249 41.5104 22.1545 41.6264 21.9119 41.6789C21.7884 41.7052 21.6914 41.713 21.6262 41.7167C21.5608 41.7184 21.5272 41.7174 21.5268 41.7137C21.5258 41.7022 21.6622 41.6995 21.9014 41.6356C22.1358 41.571 22.4907 41.4441 22.8102 41.1245C23.1264 40.8201 23.3666 40.2509 23.1909 39.6621C23.1071 39.3723 22.8927 39.1085 22.587 38.9695C22.2885 38.8284 21.9007 38.8078 21.5957 38.9935L21.3976 39.1142L21.498 38.9055C21.6812 38.5247 21.6381 38.0208 21.3782 37.64C21.2493 37.4489 21.0634 37.2956 20.8432 37.2087C20.622 37.1259 20.3727 37.1029 20.1328 37.1495C19.8424 37.203 19.5754 37.3538 19.401 37.5628L19.3664 37.6041L19.3166 37.5831C18.866 37.3951 18.3561 37.4194 17.9334 37.5912C17.5066 37.7604 17.1721 38.086 17.0025 38.4662C16.8291 38.8463 16.803 39.262 16.8769 39.6232C16.9502 39.9878 17.1351 40.2936 17.3604 40.511C17.8242 40.9497 18.3738 41.044 18.7181 41.0383C19.074 41.0339 19.2585 40.9466 19.2626 40.9629Z" fill="black"/>
<path d="M8.94409 46.5866C8.94036 46.5883 8.92611 46.5602 8.90169 46.5047C8.87692 46.4496 8.84706 46.365 8.81823 46.2521C8.76191 46.0282 8.71238 45.6815 8.79414 45.2577C8.87421 44.84 9.09608 44.3344 9.55306 43.9495C9.99987 43.5677 10.6679 43.31 11.3834 43.3942L11.3114 43.4331C11.5869 42.8585 12.1067 42.3386 12.772 42.0589C13.2659 41.8503 13.8043 41.8036 14.2946 41.8834C14.7858 41.9642 15.2319 42.1658 15.5831 42.4398L15.5105 42.434C16.0305 42.1597 16.5774 42.0545 17.0548 42.0671C17.5345 42.0704 17.946 42.1831 18.2642 42.3126C18.5831 42.4448 18.8111 42.597 18.9563 42.711C19.0995 42.8284 19.168 42.9001 19.1639 42.9041C19.1487 42.9271 18.8678 42.6278 18.235 42.3863C17.9206 42.2707 17.5185 42.1712 17.0544 42.177C16.5924 42.1736 16.0682 42.2835 15.5746 42.55L15.5362 42.5707L15.5016 42.5443C15.1654 42.2879 14.7397 42.0992 14.2718 42.0244C13.8047 41.951 13.2961 41.9967 12.8286 42.1942C12.1983 42.4594 11.7023 42.9522 11.4376 43.4946L11.4156 43.5396L11.3654 43.5335C10.696 43.4497 10.0592 43.6857 9.62974 44.0415C9.19141 44.399 8.96954 44.8745 8.87997 45.2757C8.78905 45.6818 8.82332 46.0197 8.86403 46.2419C8.90779 46.4658 8.95461 46.5825 8.94409 46.5866Z" fill="black"/>
<path d="M47.5836 86.6919L46.3616 84.8503L44.4 83.8692L44.3263 83.8158C43.6848 83.3507 42.8675 83.2002 42.1011 83.4035C41.3025 83.6152 40.2366 83.8793 39.3117 84.0366L37.2002 83.461V87.5686L47.8492 86.8979L47.5836 86.6919Z" fill="#AE7461"/>
<path d="M47.509 86.5805C47.5202 86.5663 47.3475 86.4104 47.0592 86.1706C46.7708 85.9305 46.3671 85.6062 45.9159 85.2544C45.7693 85.1411 45.6278 85.0319 45.4935 84.9277L45.4809 84.9179L45.4663 84.9152C45.0297 84.8334 44.6504 84.7674 44.3797 84.7258C44.1086 84.6842 43.9461 84.6666 43.9434 84.6815C43.9403 84.6964 44.0974 84.7417 44.3641 84.8053C44.6307 84.8689 45.007 84.951 45.4419 85.0403L45.4148 85.0282C45.5484 85.1333 45.6889 85.2439 45.8344 85.3583C46.2853 85.71 46.6985 86.0228 47.0015 86.244C47.3044 86.4652 47.4975 86.5947 47.509 86.5805Z" fill="#6F4439"/>
<path d="M46.679 86.9389C46.6967 86.9071 46.011 86.4945 45.1473 86.0173C45.0183 85.947 44.8935 85.8786 44.7737 85.813L44.7608 85.8059L44.7469 85.8052C43.9649 85.7623 43.3855 85.7515 43.3838 85.7822C43.3818 85.813 43.9578 85.8759 44.7388 85.9331L44.7117 85.9253C44.8311 85.9919 44.9549 86.0613 45.0831 86.1326C45.9466 86.6098 46.661 86.9711 46.679 86.9389Z" fill="#6F4439"/>
<path d="M59.9785 75.0715C59.6219 74.8717 59.1717 74.968 58.9285 75.2961L50.352 86.8761L36.781 87.0594C36.2388 87.0915 35.5813 88.1836 36.0672 88.7122L51.3922 88.5036L60.2394 76.2485C60.522 75.8572 60.4002 75.3079 59.9785 75.0715Z" fill="#E0E0E0"/>
<path d="M18.8675 61.6601C18.1358 61.7413 17.1153 62.2111 16.5867 62.7218C15.7243 63.5548 15.098 64.6959 14.7611 65.7034C14.3082 67.0583 14.5111 72.404 14.5111 73.9527C14.5111 75.5014 14.906 81.3186 15.1014 82.2862C15.2968 83.2542 14.9752 84.6929 14.525 85.6291C13.7179 87.3083 14.9766 88.1687 14.9766 88.1687L31.6298 88.0443L31.563 87.425C31.4486 86.3461 31.8513 85.2473 31.4395 84.2431C31.0079 83.1916 30.5241 81.5303 30.6734 79.591C30.8861 76.8255 31.7149 74.9376 31.2061 73.3331C30.4295 70.8855 27.865 65.3189 24.7662 62.9416C24.7662 62.9416 22.3229 62.4201 21.7702 62.227C20.5133 61.788 19.8477 61.5512 18.8675 61.6601Z" fill="#3DB8DB"/>
<path d="M38.4474 82.9844L24.2199 80.0234L23.8532 67.7094C23.8532 67.7094 23.3555 62.6931 20.8334 62.2271L14.7617 69.7624C15.101 73.5605 14.7919 80.7461 16.5425 83.5177C18.2931 86.2894 19.9958 88.5101 24.3068 88.3129C28.6177 88.1157 38.1197 88.0254 38.1197 88.0254L38.4474 82.9844Z" fill="#3DB8DB"/>
<path d="M24.2481 80.0709C24.282 80.0976 23.9407 80.5413 23.6537 81.1603C23.3619 81.7772 23.2401 82.3227 23.1977 82.3142C23.1618 82.3109 23.2225 81.7366 23.5231 81.0994C23.8196 80.4612 24.222 80.0459 24.2481 80.0709Z" fill="black"/>
<g opacity="0.3">
<path d="M23.7549 67.1831C25.1757 71.5362 24.8673 78.2477 27.5773 80.722L24.2197 80.0233C24.2197 80.0233 24.3326 78.7316 24.2478 77.6588C23.9754 74.2169 23.9425 70.7171 23.7549 67.1831Z" fill="black"/>
</g>
<path d="M23.439 65.6299C23.439 65.6299 23.5577 65.9634 23.6884 66.6178C23.7532 66.9448 23.8173 67.3527 23.8617 67.8364C23.9082 68.3207 23.9153 68.8801 23.9391 69.5064C24.0198 72.019 24.1358 75.6254 24.2773 80.0211L24.2315 79.9666C28.3094 80.8115 33.1713 81.819 38.4617 82.9151L38.5218 82.9277L38.5177 82.9889C38.4132 84.6021 38.303 86.2996 38.191 88.0296L38.1866 88.0959L38.1198 88.0965C37.5715 88.1026 36.9826 88.1094 36.3899 88.1161C33.9174 88.1469 31.5032 88.1841 29.1721 88.2345C28.0068 88.2592 26.8618 88.289 25.7412 88.3258C24.625 88.3542 23.517 88.4594 22.4443 88.2917C21.9079 88.2254 21.3922 88.0729 20.8973 87.8946C20.4114 87.691 19.945 87.4543 19.5317 87.1506C18.6941 86.557 18.0438 85.7903 17.4792 85.0249C17.2021 84.6366 16.9395 84.2487 16.6932 83.8608L16.5089 83.5719C16.4513 83.4732 16.4 83.3704 16.3454 83.2706C16.2918 83.1702 16.2386 83.0704 16.1856 82.9706C16.1446 82.8661 16.1039 82.7623 16.0632 82.6588C15.7412 81.8305 15.5546 80.9961 15.4274 80.1976C15.1614 78.5996 15.081 77.1358 15.0111 75.8547C14.9473 74.5722 14.9185 73.4672 14.8866 72.5646C14.8581 71.6619 14.8252 70.9614 14.8008 70.4866C14.7862 70.2529 14.775 70.0733 14.7672 69.9468C14.7604 69.825 14.7607 69.7625 14.7607 69.7625C14.7607 69.7625 14.7702 69.8244 14.7821 69.9458C14.7933 70.0723 14.8093 70.2515 14.83 70.4849C14.8639 70.9594 14.9056 71.6602 14.9429 72.5625C14.9833 73.4652 15.0203 74.5698 15.0919 75.8506C15.1696 77.1297 15.2574 78.5915 15.5281 80.1807C15.6574 80.9752 15.8467 81.8031 16.1666 82.6179C16.2067 82.7197 16.2474 82.8218 16.2881 82.9246C16.3403 83.0217 16.3926 83.1191 16.4452 83.2168C16.4988 83.3142 16.5486 83.414 16.6056 83.5111L16.7905 83.7989C17.0372 84.1848 17.2998 84.57 17.5759 84.9549C18.1384 85.7135 18.7823 86.4677 19.6054 87.0477C20.0115 87.3447 20.4688 87.5753 20.9448 87.7739C21.4302 87.9474 21.9357 88.0962 22.464 88.1605C23.5167 88.3241 24.6145 88.219 25.7368 88.1885C26.8581 88.1503 28.0034 88.1192 29.1691 88.0935C31.5008 88.0414 33.915 88.0028 36.3882 87.9721C36.9809 87.9653 37.5702 87.9589 38.1184 87.9528L38.0472 88.0198C38.1601 86.2898 38.2711 84.5923 38.3766 82.9791L38.4326 83.0525C33.1442 81.9469 28.2843 80.9309 24.2078 80.0786L24.163 80.0691L24.1616 80.0238C24.0412 75.6274 23.9421 72.0207 23.8732 69.5078C23.8546 68.8804 23.8526 68.322 23.8112 67.8397C23.7722 67.3571 23.7135 66.9503 23.6544 66.6232C23.5957 66.2958 23.5381 66.0479 23.4977 65.8815C23.478 65.8014 23.4631 65.7395 23.4519 65.6931C23.4421 65.6519 23.4376 65.6306 23.439 65.6299Z" fill="black"/>
<path d="M46.2753 113.208L44.1631 128.722L49.6889 129.625L53.6203 115.859L46.2753 113.208Z" fill="#AE7461"/>
<path d="M29.5205 89.3691C29.5205 89.3691 49.719 88.0444 53.9119 88.711C56.4465 89.1138 58.631 93.0621 57.2499 95.4346C56.5961 96.5575 55.5668 100.055 55.5668 100.055L44.7105 97.587L29.5205 89.3691Z" fill="black"/>
<path d="M44.7103 100.055L40.3369 106.707L45.4838 110.031L51.067 101.5L44.7103 100.055Z" fill="#AE7461"/>
<path d="M15.3756 88.1511C15.3756 88.1511 13.2406 97.529 16.6861 101.217C19.1397 103.842 25.1622 103.565 30.244 103.565C35.3926 103.565 47.2799 103.287 47.2799 103.287C47.2799 103.287 46.7398 106.585 46.3449 110.339C45.9489 114.103 45.8685 116.465 45.8685 116.465L53.4432 117.095C53.4432 117.095 57.6632 104.29 58.3129 101.754C58.9616 99.2218 58.7424 95.8116 56.4979 94.5477C54.596 93.4766 39.5929 89.3298 32.4105 88.7129L31.6305 88.0449L15.3756 88.1511Z" fill="black"/>
<path d="M50.9849 100.203C50.989 100.229 50.6918 100.271 50.2423 100.431C50.017 100.509 49.7589 100.628 49.4847 100.782C49.214 100.942 48.9301 101.139 48.659 101.38C48.391 101.624 48.1643 101.885 47.9774 102.137C47.7959 102.393 47.6507 102.637 47.5496 102.852C47.343 103.281 47.2714 103.572 47.2456 103.565C47.2358 103.563 47.2473 103.489 47.2765 103.356C47.3026 103.223 47.3634 103.035 47.4566 102.811C47.5482 102.585 47.688 102.329 47.8688 102.061C48.0551 101.798 48.2861 101.525 48.5623 101.273C48.8418 101.025 49.1373 100.825 49.4196 100.667C49.7053 100.515 49.975 100.403 50.2097 100.335C50.4435 100.266 50.6372 100.225 50.7729 100.213C50.9086 100.197 50.9836 100.193 50.9849 100.203Z" fill="black"/>
<path d="M50.0847 92.4704C50.0504 92.4525 50.2092 92.0899 50.4837 91.6888C50.7574 91.287 51.0377 91.007 51.0668 91.0324C51.0981 91.0584 50.8714 91.375 50.6027 91.7697C50.3327 92.1637 50.1203 92.4897 50.0847 92.4704Z" fill="black"/>
<path d="M58.6305 98.1893C58.6282 98.1897 58.6207 98.1653 58.6081 98.117C58.5946 98.0605 58.5779 97.9898 58.5569 97.9022C58.5118 97.7138 58.4419 97.4361 58.3289 97.0864C58.2149 96.7377 58.0531 96.315 57.7905 95.8658C57.5276 95.4248 57.1527 94.9314 56.5688 94.6402C55.3709 94.0977 53.8799 93.5805 52.2033 93.0935C50.5283 92.594 48.6811 92.0647 46.7307 91.5506C42.8299 90.518 39.2497 89.7787 36.6414 89.3475C35.338 89.128 34.2785 88.9778 33.546 88.876C33.1881 88.8277 32.9059 88.7894 32.7023 88.7617C32.6127 88.7482 32.5408 88.737 32.4831 88.7286C32.4339 88.7201 32.4088 88.7147 32.4092 88.7123C32.4095 88.71 32.435 88.7106 32.4848 88.714C32.5429 88.7191 32.6155 88.7252 32.7057 88.7333C32.9103 88.7543 33.1935 88.7837 33.5532 88.8209C34.2883 88.9055 35.3509 89.0404 36.6581 89.2474C39.2734 89.6532 42.8624 90.3777 46.7677 91.4116C48.7197 91.9264 50.5677 92.4597 52.2416 92.9667C53.9199 93.4622 55.4089 93.9888 56.6147 94.5492C57.2229 94.861 57.5992 95.3734 57.8601 95.8252C58.1203 96.2859 58.2757 96.7154 58.3822 97.0692C58.4877 97.424 58.5491 97.7047 58.5851 97.8958C58.6003 97.9847 58.6126 98.0564 58.6224 98.1139C58.6302 98.1633 58.6329 98.1887 58.6305 98.1893Z" fill="black"/>
<path d="M50.12 129.222L50.3042 128.55C47.9586 128.305 45.8661 127.438 44.2054 125.929L42.333 129.964L54.8198 135.499C55.291 134.309 50.12 129.222 50.12 129.222Z" fill="black"/>
<path d="M42.332 129.965L42.7894 128.979L54.6149 134.666C54.6149 134.666 55.0604 135.147 54.8188 135.499L42.332 129.965Z" fill="#E0E0E0"/>
<path d="M49.9527 129.144C49.9228 129.203 49.6053 129.094 49.2158 129.152C48.8247 129.199 48.5495 129.387 48.5044 129.339C48.4535 129.302 48.711 128.989 49.1839 128.928C49.6562 128.862 49.9917 129.096 49.9527 129.144Z" fill="#E0E0E0"/>
<path d="M45.0935 128.712C45.0077 128.886 44.7926 128.959 44.6132 128.876C44.4337 128.793 44.3577 128.584 44.4435 128.41C44.5294 128.236 44.7444 128.162 44.9239 128.245C45.1034 128.329 45.1794 128.537 45.0935 128.712Z" fill="#E0E0E0"/>
<path d="M49.8772 129.061C49.8738 129.072 49.7731 129.057 49.5943 129.01C49.4209 128.958 49.1427 128.885 48.8934 128.638C48.8323 128.576 48.7767 128.504 48.7299 128.423C48.6827 128.344 48.6349 128.254 48.625 128.137C48.6087 128.019 48.6949 127.873 48.8208 127.829C48.9429 127.775 49.0885 127.796 49.1994 127.846C49.6299 128.051 49.961 128.519 49.9715 129.061L49.7873 129.034C49.8172 128.942 49.8586 128.846 49.9105 128.755C50.1921 128.249 50.7624 127.977 51.2641 127.992C51.3272 127.993 51.4002 127.996 51.4738 128.033C51.5484 128.069 51.6027 128.145 51.6156 128.217C51.6421 128.361 51.5891 128.482 51.5257 128.577C51.3978 128.765 51.217 128.884 51.0473 128.959C50.6979 129.114 50.3865 129.084 50.1904 129.087C49.9885 129.081 49.8782 129.073 49.8772 129.061C49.8762 129.048 49.9878 129.032 50.188 129.016C50.3851 128.992 50.6843 128.997 50.989 128.843C51.14 128.767 51.293 128.655 51.3934 128.495C51.4429 128.42 51.4707 128.325 51.4538 128.252C51.4382 128.183 51.3791 128.159 51.2634 128.161C50.8183 128.158 50.3234 128.4 50.0757 128.844C50.0299 128.924 49.9936 129.008 49.9671 129.089C49.9519 129.137 49.8989 129.164 49.8494 129.149C49.8094 129.137 49.7836 129.101 49.7829 129.062C49.7802 128.597 49.4837 128.173 49.1285 127.996C48.9595 127.905 48.7617 127.983 48.777 128.13C48.7902 128.28 48.8937 128.443 48.989 128.553C49.1953 128.783 49.4532 128.875 49.6174 128.945C49.7863 129.012 49.881 129.049 49.8772 129.061Z" fill="#E0E0E0"/>
<path d="M50.9105 130.008C50.9 130.05 50.5265 129.951 50.0848 130.066C49.6403 130.171 49.3567 130.432 49.3279 130.4C49.2953 130.381 49.5603 130.045 50.0502 129.926C50.5384 129.802 50.9305 129.976 50.9105 130.008Z" fill="#E0E0E0"/>
<path d="M51.6075 130.798C51.6041 130.841 51.2656 130.831 50.8761 130.948C50.4849 131.061 50.2067 131.253 50.1806 131.22C50.1538 131.194 50.412 130.934 50.835 130.811C51.2571 130.684 51.6157 130.762 51.6075 130.798Z" fill="#E0E0E0"/>
<path d="M46.4624 109.282L46.7576 108.65C44.4869 108.014 42.5704 106.809 41.1883 105.043L38.6611 108.706L50.0348 116.258C50.7008 115.164 46.4624 109.282 46.4624 109.282Z" fill="black"/>
<path d="M38.6611 108.706L39.2786 107.811L49.9747 115.401C49.9747 115.401 50.3327 115.951 50.0348 116.257L38.6611 108.706Z" fill="#E0E0E0"/>
<path d="M46.3124 109.176C46.273 109.229 45.9785 109.069 45.5847 109.06C45.1911 109.041 44.8882 109.18 44.8519 109.125C44.8078 109.081 45.1144 108.815 45.5911 108.833C46.0678 108.848 46.3589 109.135 46.3124 109.176Z" fill="white"/>
<path d="M41.5944 107.935C41.4804 108.092 41.2558 108.129 41.093 108.017C40.9301 107.904 40.8904 107.686 41.0048 107.528C41.1188 107.371 41.3434 107.334 41.5062 107.446C41.669 107.559 41.7087 107.778 41.5944 107.935Z" fill="#E0E0E0"/>
<path d="M46.2509 109.083C46.2455 109.093 46.1491 109.061 45.9805 108.984C45.8187 108.904 45.5564 108.785 45.3525 108.5C45.3027 108.429 45.2603 108.348 45.2277 108.261C45.1944 108.175 45.1629 108.078 45.1727 107.961C45.1765 107.842 45.286 107.713 45.4177 107.691C45.5469 107.658 45.687 107.702 45.7878 107.771C46.1776 108.045 46.4249 108.562 46.3439 109.097L46.1668 109.041C46.2119 108.954 46.2689 108.867 46.3354 108.786C46.6984 108.335 47.3063 108.163 47.7986 108.261C47.8603 108.273 47.9319 108.288 47.9984 108.337C48.0659 108.385 48.1063 108.469 48.107 108.542C48.109 108.688 48.0364 108.799 47.9577 108.881C47.7996 109.046 47.6015 109.132 47.4213 109.179C47.0509 109.273 46.7489 109.191 46.5549 109.161C46.3574 109.12 46.2499 109.095 46.2509 109.083C46.2523 109.07 46.3649 109.072 46.5647 109.09C46.7632 109.099 47.057 109.155 47.3837 109.054C47.5452 109.004 47.7151 108.92 47.841 108.779C47.9024 108.714 47.9462 108.625 47.9414 108.55C47.938 108.478 47.8834 108.445 47.7694 108.428C47.3311 108.35 46.8025 108.506 46.4833 108.902C46.4246 108.973 46.3747 109.049 46.335 109.125C46.3116 109.17 46.2553 109.187 46.2088 109.164C46.1715 109.146 46.1522 109.106 46.1579 109.067C46.2336 108.608 46.0131 108.141 45.6928 107.906C45.5415 107.789 45.3335 107.832 45.3237 107.979C45.3111 108.13 45.3858 108.308 45.4611 108.433C45.6256 108.693 45.8641 108.828 46.0144 108.924C46.1698 109.019 46.257 109.071 46.2509 109.083Z" fill="white"/>
<path d="M47.1097 110.189C47.0924 110.228 46.7409 110.069 46.2859 110.107C45.8303 110.137 45.5063 110.346 45.4833 110.31C45.4544 110.286 45.7723 109.998 46.2751 109.964C46.7772 109.924 47.1348 110.161 47.1097 110.189Z" fill="white"/>
<path d="M47.6625 111.085C47.652 111.126 47.3202 111.059 46.9162 111.11C46.5114 111.155 46.2047 111.298 46.1847 111.261C46.163 111.231 46.4609 111.017 46.8989 110.967C47.3365 110.913 47.6768 111.05 47.6625 111.085Z" fill="white"/>
</g>
<defs>
<clipPath id="clip0_622_16510">
<rect width="229" height="147" fill="white"/>
</clipPath>
</defs>
</svg>
