<svg width="229" height="155" viewBox="0 0 250 180" fill="none" xmlns="http://www.w3.org/2000/svg">
    <g clip-path="url(#clip0_622_17218)">
        <path
            d="M177.904 53.1908C179.015 52.5666 180.198 52.0928 181.418 51.7708L182.142 48.5367L188.018 48.4409L188.864 51.6493C190.095 51.9316 191.296 52.3661 192.429 52.9537L195.399 51.1435L199.627 54.94L197.786 57.7631C198.458 58.7965 198.967 59.8971 199.313 61.0316L202.791 61.7046L202.894 67.1689L199.444 67.9557C199.141 69.1006 198.673 70.2161 198.041 71.2707L199.988 74.0324L195.906 77.9644L192.87 76.2527C191.759 76.8773 190.576 77.3502 189.356 77.6726L188.632 80.9068L182.755 81.0025L181.91 77.7941C180.678 77.5118 179.478 77.0774 178.344 76.4898L175.374 78.3L171.146 74.504L172.986 71.6808C172.315 70.6474 171.806 69.5477 171.459 68.4127L167.981 67.7398L167.878 62.2754L171.328 61.4887C171.632 60.3438 172.099 59.2283 172.731 58.1737L170.784 55.4119L174.867 51.48L177.904 53.1908ZM181.036 60.4703C178.618 62.7998 178.688 66.5113 181.193 68.76C183.698 71.0092 187.69 70.9437 190.108 68.6142C192.526 66.2846 192.457 62.5731 189.951 60.3244C187.446 58.0757 183.455 58.1407 181.036 60.4703Z"
            fill="#E0E0E0" />
        <path
            d="M181.037 60.4703C181.037 60.4703 181.367 60.0381 182.211 59.5124C183.039 58.9993 184.488 58.428 186.324 58.6082C187.228 58.7026 188.218 58.9767 189.12 59.5318C190.012 60.0864 190.854 60.8758 191.381 61.9006C191.658 62.4037 191.85 62.9629 191.954 63.5464C192.067 64.1285 192.084 64.7414 191.99 65.3511C191.83 66.5759 191.207 67.7827 190.24 68.7312C189.254 69.6642 187.979 70.2857 186.668 70.4776C186.016 70.5869 185.357 70.5933 184.727 70.5083C184.096 70.432 183.488 70.273 182.938 70.0332C181.818 69.5802 180.94 68.8251 180.312 68.0153C179.684 67.1965 179.355 66.2864 179.222 65.4496C178.964 63.7492 179.527 62.3834 180.049 61.5957C180.584 60.7918 181.037 60.4703 181.037 60.4703C181.071 60.4969 180.656 60.8551 180.17 61.6599C179.695 62.4507 179.193 63.7848 179.473 65.413C179.618 66.2146 179.946 67.0795 180.556 67.8532C181.165 68.6178 182.007 69.3291 183.073 69.7496C183.596 69.9736 184.173 70.1204 184.771 70.1895C185.368 70.2667 185.992 70.2581 186.608 70.1524C187.847 69.9673 189.047 69.3783 189.979 68.4972C190.893 67.6003 191.483 66.4648 191.638 65.3064C191.73 64.7301 191.717 64.1502 191.613 63.5983C191.518 63.0455 191.34 62.5144 191.081 62.0361C190.591 61.061 189.797 60.3032 188.954 59.7639C188.102 59.2247 187.16 58.9496 186.294 58.8439C184.534 58.6407 183.118 59.1542 182.285 59.6235C181.437 60.1031 181.067 60.501 181.037 60.4703Z"
            fill="#E0E0E0" />
        <path
            d="M177.904 53.1908C177.904 53.1953 177.838 53.1632 177.708 53.0946C177.565 53.0178 177.374 52.9148 177.126 52.7816C176.595 52.4903 175.83 52.0698 174.837 51.5247L174.909 51.5161C173.87 52.5287 172.503 53.8597 170.851 55.4698L170.862 55.3641C171.455 56.1987 172.115 57.1259 172.82 58.1186L172.856 58.1683L172.825 58.2211C172.248 59.193 171.762 60.2996 171.445 61.5145L171.428 61.579L171.357 61.5953C170.282 61.8432 169.119 62.1115 167.909 62.3911L168.007 62.2728C168.044 63.993 168.083 65.819 168.124 67.7362L168.011 67.6093C169.088 67.8157 170.274 68.0429 171.49 68.2759L171.578 68.2931L171.603 68.3739C171.926 69.4289 172.431 70.5503 173.12 71.6049L173.169 71.6799L173.12 71.7553C172.551 72.631 171.923 73.5971 171.283 74.5807L171.258 74.3951C172.587 75.5861 174.021 76.8701 175.491 78.1866L175.282 78.1685C176.206 77.604 177.222 76.9839 178.25 76.3557L178.337 76.3028L178.427 76.3498C179.464 76.8873 180.675 77.3457 181.951 77.6361L182.054 77.6591L182.079 77.7548C182.345 78.7597 182.635 79.8559 182.927 80.9628L182.752 80.8373C184.612 80.8061 186.606 80.7727 188.628 80.7393L188.456 80.872C188.684 79.8504 188.93 78.748 189.179 77.6379L189.201 77.5381L189.306 77.5105C190.463 77.2061 191.662 76.7355 192.773 76.11L192.776 76.1082L192.871 76.0558L192.963 76.1082C193.982 76.6831 194.995 77.2544 195.999 77.8203L195.775 77.847C197.155 76.5187 198.517 75.2081 199.859 73.9164L199.838 74.1232C199.183 73.1933 198.535 72.2724 197.893 71.3606L197.834 71.277L197.886 71.1899C198.51 70.1502 198.974 69.0441 199.274 67.9159L199.3 67.8202L199.403 67.7972C200.57 67.5321 201.719 67.271 202.853 67.0131L202.722 67.1712C202.689 65.3059 202.657 63.4836 202.625 61.7073L202.757 61.8559C201.577 61.6265 200.418 61.4006 199.28 61.1789L199.184 61.1599L199.157 61.0723C198.805 59.9139 198.291 58.8254 197.652 57.8386L197.603 57.7627L197.652 57.6877C198.285 56.7208 198.899 55.7832 199.498 54.8677L199.522 55.0407C198.038 53.7025 196.637 52.4393 195.302 51.2366L195.474 51.2515C194.428 51.8856 193.447 52.4808 192.5 53.0549L192.434 53.0951L192.365 53.0594C191.182 52.4438 189.995 52.0274 188.834 51.7569L188.764 51.7406L188.747 51.676C188.444 50.509 188.171 49.458 187.913 48.4653L188.019 48.5408C185.742 48.5688 183.803 48.5922 182.142 48.6126L182.22 48.5525C181.922 49.8424 181.677 50.901 181.474 51.7826L181.466 51.8147L181.432 51.8232C180.189 52.1462 179.314 52.5233 178.745 52.7843C178.474 52.9162 178.265 53.0174 178.113 53.0914C177.972 53.1641 177.904 53.1953 177.904 53.1908C177.904 53.1867 177.971 53.1434 178.1 53.0666C178.234 52.9898 178.438 52.8747 178.719 52.7346C179.281 52.4564 180.153 52.0604 181.402 51.7185L181.361 51.7591C181.552 50.8753 181.782 49.8144 182.062 48.5204L182.075 48.4617L182.141 48.4604C183.801 48.4265 185.74 48.3872 188.017 48.3407L188.102 48.3389L188.122 48.4165C188.388 49.4079 188.668 50.457 188.98 51.6218L188.893 51.541C190.074 51.8092 191.284 52.2261 192.493 52.8471L192.359 52.8516C193.303 52.2731 194.281 51.6737 195.324 51.0347L195.417 50.9782L195.497 51.05C196.836 52.2473 198.243 53.5056 199.733 54.8379L199.819 54.9151L199.757 55.0109C199.161 55.9282 198.551 56.8676 197.922 57.8368L197.922 57.6864C198.579 58.6935 199.108 59.8046 199.471 60.9883L199.348 60.8822C200.487 61.1012 201.647 61.3243 202.827 61.5515L202.957 61.5763L202.959 61.7001C202.995 63.4768 203.031 65.2987 203.069 67.164L203.071 67.2918L202.937 67.3225C201.803 67.5822 200.654 67.8446 199.488 68.1115L199.616 67.9923C199.311 69.1489 198.837 70.2825 198.199 71.3488L198.192 71.1786C198.835 72.0895 199.484 73.01 200.139 73.9394L200.218 74.0505L200.119 74.1463C198.778 75.4389 197.417 76.75 196.038 78.0791L195.938 78.1758L195.814 78.1062C194.81 77.5403 193.797 76.9695 192.778 76.395H192.965L192.961 76.3968C191.822 77.0386 190.593 77.5209 189.406 77.8325L189.533 77.7056C189.285 78.8157 189.037 79.9182 188.809 80.9393L188.78 81.0699L188.636 81.0721C186.614 81.1042 184.62 81.1358 182.759 81.1656L182.618 81.1679L182.585 81.0401C182.293 79.9326 182.005 78.8365 181.741 77.8312L181.869 77.9504C180.562 77.6519 179.322 77.1799 178.262 76.6276L178.44 76.6217C177.41 77.2481 176.393 77.8664 175.468 78.4291L175.355 78.4978L175.258 78.4111C173.792 77.0914 172.362 75.8042 171.035 74.6101L170.942 74.5266L171.009 74.4245C171.652 73.4426 172.282 72.4784 172.855 71.604V71.754C172.154 70.6745 171.642 69.5269 171.317 68.4489L171.431 68.5469C170.215 68.3098 169.03 68.0781 167.954 67.8676L167.843 67.8459L167.841 67.7403C167.809 65.8231 167.78 63.9967 167.751 62.2759L167.75 62.1802L167.85 62.1576C169.061 61.8848 170.226 61.6224 171.302 61.3799L171.215 61.4607C171.547 60.2277 172.047 59.1068 172.64 58.124L172.644 58.2261C171.947 57.2284 171.296 56.2962 170.71 55.4571L170.67 55.3993L170.721 55.351C172.393 53.759 173.776 52.4424 174.828 51.4412L174.86 51.41L174.899 51.4326C175.869 51.994 176.617 52.4266 177.136 52.727C177.381 52.8715 177.57 52.9835 177.711 53.0666C177.838 53.1443 177.904 53.1858 177.904 53.1908Z"
            fill="#E0E0E0" />
        <path
            d="M26.7952 85.6815C27.906 85.0573 29.0891 84.5836 30.3092 84.2615L31.0329 81.0274L36.9093 80.9316L37.7549 84.1401C38.9861 84.4223 40.1867 84.8568 41.3203 85.4444L44.2903 83.6342L48.5183 87.4307L46.6775 90.2539C47.3492 91.2872 47.8582 92.3878 48.2045 93.5224L51.6826 94.1953L51.7856 99.6596L48.3352 100.446C48.0316 101.591 47.5644 102.707 46.9325 103.761L48.8787 106.523L44.7969 110.455L41.7609 108.743C40.6496 109.368 39.4664 109.841 38.2464 110.163L37.5222 113.398L31.6458 113.493L30.7997 110.285C29.5685 110.003 28.3684 109.568 27.2343 108.981L24.2643 110.791L20.0358 106.995L21.8766 104.171C21.2049 103.138 20.6959 102.038 20.3496 100.903L16.8715 100.231L16.7686 94.7662L20.2189 93.9794C20.5225 92.8345 20.9897 91.7185 21.6216 90.6644L19.6749 87.9026L23.7572 83.9707L26.7952 85.6815ZM29.9279 92.9605C27.5092 95.2901 27.5796 99.0016 30.0848 101.251C32.59 103.5 36.5814 103.434 38.9997 101.105C41.418 98.7753 41.348 95.0638 38.8428 92.8151C36.3376 90.5659 32.3462 90.6314 29.9279 92.9605Z"
            fill="white" />
        <path
            d="M29.928 92.9605C29.928 92.9605 30.2578 92.5283 31.1019 92.0026C31.9305 91.4895 33.3788 90.9182 35.2152 91.0984C36.1196 91.1928 37.109 91.467 38.0109 92.022C38.9031 92.5766 39.7453 93.3661 40.2718 94.3908C40.5486 94.894 40.741 95.4531 40.8454 96.0366C40.9586 96.6188 40.9751 97.2316 40.8808 97.8413C40.7211 99.0662 40.0984 100.273 39.1304 101.221C38.1454 102.154 36.8695 102.776 35.5586 102.968C34.9068 103.077 34.2473 103.083 33.6173 102.999C32.9864 102.922 32.3788 102.763 31.828 102.523C30.708 102.07 29.8299 101.315 29.2028 100.506C28.5748 99.6867 28.2455 98.7767 28.1125 97.9398C27.8546 96.2394 28.4175 94.8736 28.9401 94.086C29.4748 93.2821 29.928 92.9605 29.928 92.9605C29.962 92.9876 29.5472 93.3453 29.0615 94.1501C28.5865 94.9409 28.0843 96.2751 28.3645 97.9032C28.5088 98.7049 28.8376 99.5698 29.4471 100.343C30.0557 101.108 30.8984 101.819 31.964 102.24C32.4876 102.464 33.0641 102.611 33.6625 102.68C34.2594 102.757 34.8835 102.748 35.4994 102.643C36.7389 102.458 37.939 101.869 38.8706 100.987C39.7842 100.09 40.3743 98.9546 40.5297 97.7966C40.6215 97.2203 40.6089 96.6404 40.5044 96.0885C40.4092 95.5357 40.2315 95.0046 39.9721 94.5263C39.4825 93.5513 38.6889 92.7934 37.8457 92.2542C36.9934 91.7149 36.0521 91.4398 35.1856 91.3342C33.4259 91.1309 32.0097 91.6444 31.1762 92.1137C30.3277 92.5933 29.9581 92.9917 29.928 92.9605Z"
            fill="white" />
        <path
            d="M26.795 85.681C26.795 85.6855 26.7294 85.6535 26.5993 85.5848C26.4565 85.5081 26.2651 85.4051 26.0169 85.2718C25.4861 84.9805 24.7211 84.5601 23.7284 84.0149L23.7997 84.0064C22.7609 85.0185 21.3946 86.3499 19.7423 87.96L19.753 87.8543C20.3465 88.6889 21.006 89.6161 21.7113 90.6088L21.7467 90.6585L21.7156 90.7114C21.1386 91.6833 20.6534 92.7902 20.3358 94.0047L20.3188 94.0693L20.2488 94.0855C19.174 94.3335 18.0108 94.6018 16.8009 94.8813L16.899 94.763C16.9359 96.4833 16.9748 98.3092 17.0156 100.226L16.9024 100.1C17.9792 100.306 19.1658 100.533 20.3814 100.766L20.4698 100.783L20.4946 100.864C20.8176 101.919 21.3222 103.041 22.0114 104.095L22.0605 104.17L22.0114 104.246C21.4422 105.121 20.8142 106.087 20.175 107.071L20.1493 106.886C21.4786 108.077 22.9129 109.361 24.3826 110.677L24.1732 110.659C25.0975 110.095 26.1131 109.475 27.1413 108.846L27.2283 108.794L27.3191 108.84C28.3555 109.378 29.5669 109.836 30.8423 110.127L30.9453 110.15L30.9705 110.246C31.2362 111.251 31.5262 112.347 31.8185 113.454L31.6432 113.328C33.5039 113.297 35.4981 113.264 37.5196 113.23L37.3472 113.363C37.5755 112.342 37.8217 111.239 38.0704 110.129L38.0927 110.029L38.1976 110.002C39.3546 109.697 40.5537 109.227 41.6645 108.601L41.6674 108.6L41.7621 108.547L41.8544 108.6C42.8739 109.175 43.887 109.746 44.8905 110.312L44.6671 110.339C46.0469 109.01 47.4083 107.7 48.7503 106.408L48.7294 106.615C48.0747 105.685 47.4263 104.764 46.7842 103.852L46.7254 103.769L46.7779 103.681C47.402 102.642 47.8658 101.536 48.1655 100.408L48.1912 100.312L48.2942 100.289C49.4613 100.024 50.6105 99.7626 51.7451 99.5047L51.6139 99.6628C51.5809 97.7975 51.5484 95.9752 51.5163 94.1989L51.6484 94.3475C50.4687 94.118 49.3103 93.8922 48.1718 93.6705L48.0757 93.6515L48.0494 93.5639C47.6973 92.4054 47.1834 91.317 46.5443 90.3302L46.4952 90.2543L46.5443 90.1793C47.1771 89.2124 47.791 88.2748 48.3899 87.3593L48.4142 87.5323C46.9299 86.1941 45.5287 84.9309 44.1945 83.7282L44.3664 83.7431C43.3202 84.3772 42.3387 84.9724 41.392 85.5464L41.326 85.5866L41.258 85.551C40.0744 84.9354 38.8878 84.519 37.727 84.2484L37.6571 84.2322L37.6401 84.1676C37.337 83.0006 37.0635 81.9496 36.8056 80.9569L36.9115 81.0323C34.6351 81.0603 32.6952 81.0838 31.0346 81.1041L31.1123 81.0441C30.8141 82.334 30.5698 83.3926 30.3663 84.2742L30.3585 84.3067L30.325 84.3153C29.0812 84.6382 28.2069 85.0153 27.6377 85.2764C27.3662 85.4082 27.1578 85.5094 27.0058 85.5835C26.8625 85.6544 26.795 85.686 26.795 85.681C26.7955 85.677 26.862 85.6336 26.9908 85.5568C27.1253 85.4801 27.3288 85.3644 27.61 85.2249C28.1724 84.9467 29.0443 84.5506 30.293 84.2087L30.2522 84.2493C30.4435 83.3655 30.6733 82.3046 30.9535 81.0107L30.9662 80.9519L31.0317 80.9506C32.6918 80.9167 34.6312 80.877 36.9076 80.8309L36.9926 80.8291L37.0135 80.9068C37.2787 81.8981 37.5589 82.9473 37.8708 84.112L37.7838 84.0312C38.9655 84.2995 40.1754 84.7163 41.3838 85.3373L41.2497 85.3419C42.1934 84.7633 43.1721 84.164 44.2149 83.5249L44.3072 83.4685L44.3873 83.5403C45.7264 84.7376 47.1334 85.9958 48.6235 87.3281L48.71 87.4054L48.6478 87.5011C48.0519 88.4184 47.4418 89.3578 46.8124 90.327L46.8129 90.1766C47.4695 91.1838 47.9984 92.2948 48.3617 93.4785L48.2393 93.3724C49.3783 93.5914 50.5376 93.8145 51.7179 94.0413L51.848 94.0661L51.8505 94.1899C51.8859 95.9666 51.9223 97.7885 51.9597 99.6538L51.9622 99.7816L51.8286 99.8123C50.694 100.072 49.5454 100.334 48.3792 100.601L48.5074 100.482C48.2019 101.639 47.7284 102.772 47.0897 103.839L47.0829 103.668C47.726 104.579 48.3748 105.499 49.0305 106.429L49.1087 106.54L49.0096 106.636C47.6682 107.928 46.3077 109.239 44.9289 110.568L44.8288 110.665L44.7054 110.596C43.7015 110.03 42.6883 109.459 41.6694 108.884H41.8564L41.853 108.886C40.7135 109.528 39.4842 110.01 38.2977 110.322L38.4249 110.194C38.1763 111.305 37.929 112.407 37.7008 113.428L37.6716 113.559L37.5283 113.561C35.5069 113.593 33.5126 113.625 31.6519 113.654L31.5106 113.657L31.4771 113.529C31.1857 112.422 30.8977 111.325 30.6334 110.32L30.7612 110.439C29.4547 110.141 28.2147 109.669 27.1544 109.117L27.3322 109.111C26.3025 109.737 25.286 110.356 24.3602 110.918L24.2476 110.987L24.1509 110.9C22.6846 109.581 21.2542 108.294 19.9278 107.099L19.835 107.016L19.9021 106.914C20.5446 105.932 21.1751 104.968 21.7472 104.094V104.244C21.0464 103.164 20.5354 102.017 20.21 100.939L20.3232 101.036C19.108 100.799 17.9229 100.567 16.8466 100.357L16.7353 100.335L16.7334 100.23C16.7018 98.3124 16.6722 96.486 16.644 94.7652L16.6426 94.6695L16.7421 94.6469C17.9539 94.3741 19.1186 94.1117 20.1949 93.8692L20.108 93.95C20.4392 92.7171 20.9395 91.5957 21.533 90.6134L21.5369 90.7154C20.8399 89.7178 20.1886 88.7856 19.6024 87.9464L19.5621 87.8891L19.6131 87.8408C21.2853 86.2487 22.6681 84.9322 23.7196 83.9309L23.7522 83.8998L23.791 83.9224C24.7614 84.4837 25.5089 84.9164 26.0276 85.2167C26.2729 85.3613 26.4618 85.4733 26.6027 85.5564C26.7295 85.635 26.795 85.6765 26.795 85.681Z"
            fill="white" />
        <path
            d="M188.838 23.3316C189.643 22.879 190.5 22.5362 191.384 22.3027L191.909 19.9592L196.167 19.8896L196.78 22.2142C197.672 22.4188 198.542 22.7336 199.364 23.1595L201.516 21.8475L204.58 24.5984L203.246 26.6439C203.733 27.3927 204.102 28.1903 204.352 29.0123L206.873 29.5L206.947 33.4595L204.447 34.0295C204.227 34.8591 203.888 35.6676 203.43 36.4317L204.841 38.4329L201.883 41.2823L199.683 40.0417C198.878 40.4942 198.02 40.837 197.136 41.0705L196.612 43.414L192.354 43.4836L191.741 41.1586C190.849 40.954 189.979 40.6392 189.157 40.2133L187.005 41.5253L183.941 38.7744L185.275 36.7285C184.789 35.9796 184.419 35.1825 184.168 34.3605L181.648 33.8728L181.573 29.9133L184.074 29.3433C184.294 28.5136 184.632 27.7052 185.09 26.941L183.68 24.9398L186.638 22.0909L188.838 23.3316ZM191.108 28.6062C189.355 30.2944 189.406 32.9839 191.222 34.6134C193.037 36.2429 195.929 36.196 197.682 34.5078C199.434 32.8195 199.384 30.1301 197.568 28.5005C195.753 26.871 192.861 26.9185 191.108 28.6062Z"
            fill="white" />
        <path
            d="M191.108 28.606C191.108 28.606 191.347 28.293 191.959 27.9119C192.559 27.5397 193.609 27.126 194.939 27.2565C195.595 27.3252 196.311 27.5235 196.965 27.9259C197.612 28.3278 198.222 28.8996 198.603 29.6421C198.804 30.0066 198.943 30.4117 199.019 30.8344C199.101 31.2562 199.113 31.7002 199.045 32.1423C198.929 33.0298 198.478 33.9046 197.777 34.5916C197.063 35.2677 196.139 35.7184 195.189 35.857C194.716 35.9361 194.239 35.9406 193.782 35.8792C193.325 35.8236 192.884 35.7085 192.486 35.5346C191.674 35.2062 191.038 34.6589 190.583 34.0722C190.128 33.4787 189.89 32.8193 189.793 32.2128C189.606 30.9807 190.014 29.9907 190.393 29.4199C190.78 28.8391 191.108 28.606 191.108 28.606C191.133 28.6254 190.832 28.8851 190.48 29.4682C190.136 30.0413 189.772 31.0083 189.975 32.188C190.08 32.7688 190.318 33.3956 190.759 33.9561C191.201 34.5103 191.811 35.0256 192.583 35.3304C192.963 35.493 193.381 35.5992 193.814 35.6493C194.247 35.7053 194.698 35.699 195.145 35.6226C196.043 35.4885 196.913 35.0617 197.588 34.4231C198.25 33.7732 198.678 32.9503 198.791 32.1112C198.857 31.6939 198.848 31.2734 198.773 30.8732C198.704 30.4726 198.575 30.0878 198.387 29.741C198.033 29.0346 197.457 28.485 196.846 28.0943C196.228 27.7037 195.546 27.5045 194.918 27.4277C193.644 27.2805 192.617 27.6526 192.013 27.9927C191.398 28.34 191.13 28.6286 191.108 28.606Z"
            fill="white" />
        <path
            d="M188.837 23.3315C188.837 23.3351 188.79 23.3116 188.695 23.2619C188.592 23.2064 188.453 23.1319 188.273 23.0352C187.889 22.8239 187.335 22.5195 186.615 22.1243L186.667 22.1179C185.914 22.8514 184.924 23.8161 183.726 24.9831L183.734 24.9064C184.164 25.5111 184.642 26.1831 185.153 26.9021L185.179 26.9383L185.156 26.9762C184.738 27.6808 184.387 28.4824 184.156 29.3626L184.144 29.4096L184.093 29.4214C183.314 29.6011 182.471 29.7953 181.595 29.9981L181.666 29.9123C181.692 31.1588 181.72 32.4821 181.75 33.8713L181.668 33.7792C182.448 33.9287 183.308 34.0935 184.189 34.2624L184.253 34.2751L184.271 34.3338C184.505 35.098 184.871 35.9109 185.37 36.6751L185.406 36.7293L185.37 36.7839C184.958 37.4185 184.503 38.1185 184.04 38.8317L184.021 38.6971C184.984 39.5601 186.024 40.4905 187.089 41.4444L186.937 41.4313C187.607 41.0221 188.343 40.5727 189.088 40.1175L189.151 40.0791L189.217 40.1129C189.968 40.5023 190.846 40.8347 191.77 41.0451L191.845 41.0618L191.863 41.1314C192.055 41.8594 192.266 42.6539 192.478 43.456L192.351 43.3652C193.699 43.3426 195.144 43.3187 196.609 43.2938L196.484 43.39C196.65 42.6498 196.828 41.8508 197.008 41.0465L197.024 40.9742L197.1 40.9543C197.939 40.7339 198.808 40.393 199.613 39.9395L199.615 39.9382L199.683 39.9002L199.75 39.9382C200.489 40.3546 201.223 40.7687 201.95 41.1788L201.789 41.1982C202.789 40.2358 203.775 39.286 204.748 38.3498L204.733 38.4997C204.258 37.8259 203.788 37.1583 203.323 36.498L203.28 36.4375L203.318 36.3743C203.77 35.621 204.106 34.8193 204.324 34.0019L204.342 33.9323L204.416 33.9156C205.262 33.7232 206.095 33.534 206.917 33.3474L206.822 33.4621C206.798 32.1104 206.774 30.7898 206.751 29.5027L206.847 29.6101C205.992 29.4439 205.152 29.28 204.327 29.1197L204.258 29.1061L204.238 29.0424C203.983 28.2028 203.611 27.4143 203.148 26.6989L203.112 26.6442L203.148 26.59C203.606 25.8891 204.051 25.2098 204.485 24.5464L204.503 24.6715C203.427 23.7018 202.412 22.7864 201.445 21.9152L201.57 21.926C200.812 22.3853 200.1 22.8166 199.414 23.2326L199.366 23.2615L199.317 23.2357C198.459 22.7895 197.599 22.4878 196.758 22.2918L196.707 22.2801L196.695 22.2331C196.475 21.3876 196.277 20.6262 196.09 19.9063L196.167 19.9609C194.517 19.9813 193.112 19.998 191.908 20.0129L191.965 19.9695C191.748 20.9044 191.572 21.6713 191.424 22.3099L191.419 22.3334L191.394 22.3397C190.493 22.5736 189.86 22.8473 189.447 23.0361C189.251 23.1319 189.1 23.205 188.989 23.2588C188.886 23.3121 188.837 23.3347 188.837 23.3315C188.837 23.3283 188.886 23.2972 188.979 23.2416C189.077 23.1861 189.224 23.1021 189.428 23.0009C189.835 22.7995 190.467 22.5122 191.372 22.2647L191.342 22.2945C191.481 21.6541 191.647 20.885 191.85 19.9478L191.86 19.9054L191.907 19.9045C193.11 19.8801 194.515 19.8512 196.165 19.8178L196.227 19.8164L196.242 19.8724C196.434 20.5905 196.637 21.3511 196.863 22.1952L196.801 22.1365C197.657 22.3307 198.534 22.6328 199.409 23.0831L199.312 23.0863C199.996 22.6671 200.705 22.2327 201.461 21.7697L201.527 21.7291L201.585 21.781C202.556 22.6486 203.575 23.5605 204.655 24.5261L204.718 24.5821L204.673 24.6516C204.241 25.3164 203.799 25.997 203.342 26.6993V26.5905C203.818 27.3203 204.202 28.1256 204.465 28.9833L204.376 28.906C205.201 29.065 206.041 29.2263 206.897 29.3911L206.991 29.4092L206.993 29.499C207.019 30.7867 207.045 32.1068 207.072 33.4585L207.074 33.5511L206.977 33.5732C206.155 33.7616 205.323 33.9517 204.478 34.145L204.57 34.0588C204.349 34.897 204.006 35.7185 203.543 36.4913L203.538 36.3675C204.004 37.0278 204.475 37.6949 204.95 38.3683L205.006 38.4487L204.935 38.5182C203.963 39.4549 202.977 40.4052 201.977 41.368L201.905 41.438L201.815 41.3875C201.088 40.9774 200.354 40.5637 199.615 40.1473H199.751L199.748 40.1482C198.923 40.6134 198.032 40.9629 197.172 41.1887L197.265 41.0966C197.084 41.901 196.906 42.6999 196.739 43.4401L196.718 43.535L196.614 43.5368C195.149 43.5603 193.704 43.5833 192.356 43.6045L192.253 43.6064L192.229 43.5138C192.018 42.7112 191.809 41.9168 191.617 41.1883L191.71 41.2746C190.764 41.0582 189.864 40.7163 189.097 40.3162L189.225 40.3117C188.479 40.7656 187.743 41.2136 187.072 41.6214L186.99 41.6711L186.92 41.6083C185.858 40.6522 184.821 39.7191 183.86 38.8542L183.792 38.7942L183.841 38.7201C184.307 38.0083 184.764 37.3096 185.178 36.6764V36.7853C184.67 36.0031 184.3 35.1716 184.064 34.3903L184.146 34.4612C183.265 34.2891 182.407 34.1211 181.627 33.9689L181.546 33.9531L181.545 33.8768C181.522 32.4875 181.5 31.1638 181.479 29.9173L181.479 29.8477L181.551 29.8314C182.429 29.6336 183.273 29.4435 184.053 29.2678L183.99 29.3265C184.23 28.4327 184.593 27.6207 185.023 26.9085L185.026 26.9825C184.52 26.2595 184.048 25.5838 183.624 24.9759L183.595 24.9344L183.632 24.8991C184.843 23.7452 185.845 22.7913 186.607 22.066L186.631 22.0434L186.659 22.0597C187.363 22.4666 187.904 22.78 188.28 22.9977C188.458 23.1025 188.595 23.1834 188.697 23.2439C188.79 23.2976 188.837 23.3279 188.837 23.3315Z"
            fill="white" />
        <path
            d="M55.6537 12.1758C56.459 11.7233 57.3157 11.3805 58.2002 11.147L58.7247 8.80344L62.9833 8.73389L63.5962 11.0585C64.4884 11.2631 65.3583 11.5778 66.1801 12.0037L68.3322 10.6917L71.396 13.4426L70.0622 15.4881C70.5489 16.2369 70.918 17.0345 71.1687 17.8565L73.6889 18.3443L73.7637 22.3038L71.2634 22.8737C71.0433 23.7034 70.7048 24.5118 70.2468 25.276L71.6573 27.2776L68.6994 30.127L66.4992 28.8864C65.6939 29.3389 64.8367 29.6817 63.9527 29.9152L63.4282 32.2587L59.1701 32.3283L58.5571 30.0033C57.6649 29.7987 56.7955 29.4839 55.9737 29.058L53.8216 30.37L50.7574 27.6191L52.0916 25.5731C51.6049 24.8243 51.2358 24.0272 50.9847 23.2052L48.4644 22.7175L48.3896 18.758L50.89 18.188C51.11 17.3583 51.4485 16.5499 51.9066 15.7857L50.4961 13.7845L53.454 10.9356L55.6537 12.1758ZM57.9238 17.4509C56.1709 19.1391 56.2219 21.8286 58.0375 23.4581C59.8525 25.0876 62.7453 25.0402 64.4977 23.3525C66.25 21.6642 66.1995 18.9747 64.384 17.3452C62.5685 15.7157 59.6762 15.7627 57.9238 17.4509Z"
            fill="#E0E0E0" />
        <path
            d="M57.9236 17.4507C57.9236 17.4507 58.1626 17.1378 58.7741 16.7566C59.3744 16.3844 60.424 15.9707 61.7548 16.1013C62.41 16.1699 63.1269 16.3682 63.7806 16.7706C64.4271 17.1725 65.0376 17.7443 65.4189 18.4868C65.6194 18.8513 65.7588 19.2564 65.8346 19.6791C65.9167 20.101 65.9284 20.5454 65.8604 20.9871C65.7448 21.8745 65.2935 22.7489 64.5922 23.4363C63.8782 24.1124 62.954 24.5627 62.004 24.7018C61.5314 24.7808 61.0539 24.7853 60.5974 24.7239C60.1399 24.6683 59.6998 24.5532 59.3011 24.3793C58.4895 24.051 57.8532 23.5036 57.3986 22.9169C56.9435 22.3235 56.705 21.6641 56.6084 21.058C56.4214 19.8259 56.8294 18.8359 57.2082 18.2651C57.5953 17.6838 57.9236 17.4507 57.9236 17.4507C57.9484 17.4702 57.6478 17.7294 57.2956 18.3129C56.9518 18.8861 56.5875 19.853 56.7905 21.0327C56.8949 21.6135 57.1329 22.2404 57.5749 22.8008C58.0159 23.355 58.6269 23.8703 59.3987 24.1752C59.778 24.3373 60.1962 24.4439 60.6294 24.494C61.0622 24.55 61.5139 24.5437 61.9602 24.4674C62.8583 24.3332 63.7282 23.9064 64.4033 23.2678C65.0653 22.6179 65.4932 21.795 65.6059 20.9559C65.6724 20.5386 65.6632 20.1181 65.5879 19.718C65.5189 19.3174 65.3902 18.9326 65.2022 18.5857C64.8472 17.8794 64.2721 17.3297 63.6611 16.939C63.0433 16.5484 62.3614 16.3492 61.7334 16.2724C60.4585 16.1252 59.4322 16.4973 58.828 16.8374C58.2131 17.1847 57.945 17.4729 57.9236 17.4507Z"
            fill="#E0E0E0" />
        <path
            d="M55.6532 12.1757C55.6532 12.1793 55.6056 12.1558 55.5113 12.1061C55.4079 12.0506 55.269 11.9761 55.0893 11.8794C54.7046 11.6681 54.1504 11.3637 53.4311 10.9685L53.4826 10.9621C52.7298 11.6956 51.7399 12.6603 50.5422 13.8273L50.55 13.7505C50.9798 14.3553 51.4578 15.0273 51.9692 15.7463L51.9949 15.7825L51.9721 15.8204C51.5539 16.525 51.2028 17.3266 50.9721 18.2068L50.9599 18.2538L50.9089 18.2656C50.1304 18.4453 49.2872 18.64 48.4105 18.8423L48.4814 18.7565C48.5081 20.003 48.5363 21.3263 48.5659 22.7155L48.4839 22.6234C49.2644 22.7729 50.124 22.9377 51.0046 23.1067L51.0687 23.1188L51.0867 23.1776C51.3208 23.9417 51.6865 24.7547 52.1858 25.5188L52.2213 25.573L52.1858 25.6277C51.7735 26.2622 51.3184 26.9623 50.855 27.6754L50.8365 27.5408C51.7997 28.4039 52.8391 29.3343 53.9042 30.2881L53.7527 30.275C54.4224 29.8658 55.1582 29.4165 55.9033 28.9612L55.9664 28.9228L56.0325 28.9567C56.7839 29.346 57.661 29.6784 58.5858 29.8889L58.6601 29.9056L58.6785 29.9751C58.8709 30.7032 59.0812 31.4976 59.2929 32.2997L59.1662 32.2089C60.5145 32.1863 61.9594 32.1624 63.4243 32.1376L63.2994 32.2338C63.4651 31.4935 63.6433 30.6946 63.8235 29.8902L63.8395 29.818L63.9158 29.7981C64.7546 29.5777 65.623 29.2367 66.4283 28.7833L66.4307 28.7819L66.4992 28.744L66.5662 28.7819C67.3049 29.1983 68.0393 29.6125 68.7664 30.0226L68.6047 30.042C69.6047 29.0795 70.5911 28.1297 71.5635 27.1935L71.5484 27.3435C71.0739 26.6696 70.6043 26.0021 70.139 25.3418L70.0962 25.2813L70.1341 25.218C70.5863 24.4647 70.9224 23.6631 71.1395 22.8456L71.1579 22.7761L71.2327 22.7593C72.0783 22.5669 72.9108 22.3782 73.7331 22.1912L73.6379 22.3059C73.6141 20.9542 73.5903 19.634 73.5675 18.3464L73.6636 18.4539C72.8088 18.2877 71.969 18.1237 71.1443 17.9634L71.0744 17.9499L71.0555 17.8866C70.8005 17.047 70.4279 16.2585 69.9651 15.5431L69.9296 15.4884L69.9651 15.4343C70.4236 14.7333 70.8685 14.054 71.3027 13.3906L71.3202 13.5161C70.2444 12.5465 69.2293 11.631 68.2622 10.7594L68.3871 10.7702C67.6289 11.2295 66.9178 11.6608 66.2316 12.0768L66.1835 12.1057L66.1339 12.0799C65.2762 11.6337 64.4165 11.332 63.5753 11.136L63.5243 11.1243L63.5122 11.0773C63.2926 10.2319 63.0945 9.47039 62.9075 8.75048L62.9842 8.80558C61.3343 8.82545 59.9292 8.84262 58.7257 8.85752L58.782 8.81416C58.5659 9.74905 58.3891 10.5159 58.2414 11.1545L58.2361 11.178L58.2118 11.1844C57.3108 11.4183 56.677 11.692 56.2647 11.8808C56.0679 11.9765 55.9169 12.0497 55.8066 12.1034C55.7022 12.1563 55.6532 12.1789 55.6532 12.1757C55.6532 12.1725 55.7017 12.1414 55.795 12.0858C55.8921 12.0303 56.0398 11.9467 56.2438 11.8451C56.6513 11.6437 57.2832 11.3564 58.188 11.1089L58.1584 11.1383C58.2973 10.4979 58.4634 9.72873 58.6664 8.79158L58.6756 8.74913L58.7232 8.74823C59.9263 8.72384 61.3314 8.69493 62.9808 8.66151L63.0425 8.66016L63.0576 8.71616C63.2494 9.43426 63.4529 10.1948 63.6788 11.0389L63.6156 10.9802C64.4719 11.1744 65.3486 11.4766 66.2243 11.9268L66.1271 11.93C66.811 11.5109 67.5201 11.0764 68.2758 10.6135L68.3424 10.5728L68.4002 10.6248C69.3706 11.4924 70.3901 12.4042 71.4702 13.3698L71.5329 13.4258L71.4877 13.4954C71.0559 14.1602 70.614 14.8408 70.1574 15.5431V15.4343C70.6329 16.1641 71.0166 16.9694 71.2799 17.827L71.191 17.7498C72.0162 17.9088 72.8564 18.07 73.7117 18.2344L73.8059 18.2525L73.8079 18.3423C73.8336 19.63 73.8599 20.9501 73.8871 22.3018L73.889 22.3944L73.7923 22.4165C72.9706 22.6049 72.1381 22.795 71.2925 22.9883L71.3852 22.9021C71.1638 23.7398 70.8209 24.5618 70.358 25.3341L70.3531 25.2104C70.8189 25.8707 71.2896 26.5377 71.7646 27.2111L71.8214 27.2915L71.7495 27.3611C70.7776 28.2973 69.7917 29.248 68.7921 30.2109L68.7198 30.2809L68.6304 30.2303C67.9028 29.8202 67.1689 29.4065 66.4302 28.9901H66.5657L66.5633 28.991C65.7376 29.4562 64.8469 29.8053 63.9872 30.0316L64.0795 29.9395C63.8993 30.7438 63.72 31.5428 63.5544 32.283L63.5331 32.3778L63.4291 32.3796C61.9643 32.4031 60.5188 32.4262 59.1706 32.4474L59.0681 32.4492L59.0438 32.3566C58.833 31.5541 58.6242 30.7596 58.4323 30.0311L58.5251 30.1174C57.5785 29.9011 56.6794 29.5592 55.9116 29.159L56.0403 29.1545C55.2938 29.6084 54.5574 30.0564 53.8867 30.4643L53.8051 30.5139L53.7352 30.4512C52.6725 29.495 51.636 28.562 50.6748 27.6971L50.6078 27.6366L50.6564 27.5625C51.1221 26.8507 51.5792 26.152 51.9935 25.5188V25.6277C51.4854 24.8455 51.1153 24.014 50.8793 23.2327L50.9614 23.3036C50.0808 23.1315 49.2221 22.9635 48.4421 22.8113L48.3615 22.7955L48.36 22.7191C48.3372 21.3299 48.3153 20.0062 48.2949 18.7596L48.2939 18.6901L48.3663 18.6738C49.2444 18.476 50.0886 18.2859 50.8681 18.1102L50.8055 18.1689C51.0454 17.2751 51.4082 16.4631 51.838 15.7508L51.841 15.8249C51.3358 15.1018 50.8637 14.4262 50.4393 13.8183L50.4101 13.7767L50.447 13.7415C51.6588 12.5876 52.6608 11.6337 53.4229 10.9084L53.4467 10.8858L53.4748 10.9021C54.1781 11.309 54.7197 11.6224 55.0956 11.8401C55.2734 11.9449 55.4103 12.0258 55.5123 12.0863C55.6056 12.1418 55.6532 12.1725 55.6532 12.1757Z"
            fill="#E0E0E0" />
        <path
            d="M168.309 24.5121L168.306 24.5031L167.845 22.753C167.166 22.5967 166.513 22.3578 165.903 22.0425L164.275 23.0348L164.268 23.0285L161.947 20.9437L161.951 20.936L162.955 19.3964C162.595 18.8404 162.316 18.242 162.124 17.617L160.217 17.248L160.217 17.2389L160.16 14.2383L160.17 14.236L162.052 13.807C162.22 13.1751 162.477 12.5677 162.815 12.0013L161.749 10.4874L161.756 10.4807L163.998 8.32138L164.006 8.3259L165.662 9.25988C166.259 8.92477 166.904 8.66463 167.575 8.48668L167.972 6.71401H167.982L171.209 6.66162L171.211 6.67065L171.672 8.42075C172.351 8.57656 173.004 8.81547 173.614 9.13072L175.242 8.13847L175.249 8.1448L177.571 10.2295L177.566 10.2372L176.562 11.7769C176.922 12.3315 177.202 12.9299 177.394 13.5563L179.3 13.9253L179.3 13.9343L179.357 16.9354L179.347 16.9377L177.465 17.3663C177.298 17.9968 177.041 18.6042 176.702 19.1719L177.769 20.6858L177.762 20.6926L175.52 22.8519L175.512 22.8474L173.856 21.9138C173.258 22.2485 172.615 22.5086 171.942 22.687L171.545 24.4597H171.536L168.309 24.5121ZM165.903 22.0164L165.909 22.0195C166.521 22.3366 167.176 22.5764 167.858 22.7326L167.866 22.7345L167.868 22.7412L168.328 24.4891L171.526 24.4371L171.922 22.6681L171.929 22.6663C172.605 22.4874 173.252 22.2264 173.85 21.8899L173.857 21.8863L173.863 21.8899L175.517 22.8225L177.738 20.6827L176.674 19.1724L176.678 19.1665C177.019 18.597 177.277 17.9873 177.445 17.3541L177.446 17.3473L177.454 17.3455L179.333 16.9174L179.277 13.9438L177.376 13.5757L177.373 13.5689C177.181 12.9398 176.9 12.3387 176.538 11.7823L176.534 11.7764L176.538 11.7705L177.542 10.2327L175.24 8.16693L173.616 9.15691L173.61 9.15375C172.998 8.8367 172.342 8.59688 171.66 8.44062L171.653 8.43881L171.651 8.43203L171.191 6.6842L167.993 6.73614L167.597 8.5052L167.59 8.50701C166.915 8.6854 166.269 8.94645 165.669 9.28337L165.663 9.28698L165.656 9.28337L164.002 8.35074L161.781 10.4906L162.845 12.0009L162.841 12.0067C162.501 12.5749 162.243 13.1846 162.074 13.8192L162.072 13.8259L162.065 13.8277L160.185 14.2563L160.242 17.2299L162.143 17.598L162.146 17.6048C162.338 18.2325 162.618 18.8337 162.981 19.3914L162.984 19.3973L162.981 19.4032L161.978 20.941L164.279 23.0068L165.903 22.0164ZM169.86 18.7086C168.994 18.7086 168.126 18.4087 167.455 17.8062C166.789 17.2087 166.413 16.4057 166.397 15.5453C166.381 14.6849 166.726 13.8702 167.369 13.251C168.695 11.9733 170.893 11.9376 172.267 13.1711C173.641 14.4045 173.679 16.4477 172.353 17.7258C171.674 18.3798 170.768 18.7086 169.86 18.7086ZM169.861 12.2917C168.96 12.2917 168.06 12.6183 167.386 13.2673C166.748 13.8819 166.405 14.6908 166.422 15.5449C166.438 16.3994 166.811 17.1965 167.472 17.7899C168.837 19.0152 171.019 18.9796 172.336 17.7105C173.653 16.4414 173.615 14.4122 172.25 13.1878C171.584 12.5898 170.722 12.2917 169.861 12.2917Z"
            fill="#E0E0E0" />
        <path
            d="M167.377 13.2592C167.377 13.2592 167.557 13.0225 168.019 12.7349C168.473 12.4539 169.266 12.141 170.272 12.2399C170.766 12.2913 171.308 12.4417 171.802 12.7452C172.291 13.0487 172.751 13.481 173.039 14.0419C173.191 14.3174 173.296 14.6236 173.354 14.9429C173.416 15.2618 173.425 15.5973 173.373 15.9311C173.286 16.6018 172.945 17.2625 172.415 17.7819C171.875 18.2927 171.177 18.6332 170.459 18.738C170.103 18.7976 169.742 18.8012 169.397 18.7547C169.051 18.7127 168.719 18.626 168.417 18.4946C167.804 18.2466 167.323 17.8329 166.98 17.3899C166.636 16.9418 166.456 16.4432 166.383 15.9853C166.242 15.0545 166.55 14.3065 166.836 13.8752C167.129 13.4353 167.377 13.2592 167.377 13.2592C167.395 13.2741 167.168 13.4697 166.902 13.9105C166.642 14.3436 166.367 15.0739 166.521 15.9654C166.6 16.4044 166.779 16.8777 167.113 17.3013C167.446 17.72 167.908 18.1093 168.491 18.3397C168.778 18.4625 169.093 18.5429 169.421 18.5804C169.747 18.6228 170.089 18.6179 170.426 18.5601C171.105 18.4589 171.762 18.1364 172.272 17.6536C172.772 17.1627 173.095 16.5408 173.181 15.9067C173.231 15.5915 173.225 15.274 173.167 14.9718C173.115 14.6692 173.018 14.3784 172.876 14.1164C172.608 13.5826 172.173 13.1675 171.712 12.8726C171.245 12.5777 170.73 12.4268 170.255 12.369C169.292 12.2575 168.516 12.5388 168.06 12.7958C167.596 13.0582 167.393 13.2759 167.377 13.2592Z"
            fill="#EBEBEB" />
        <path
            d="M165.662 9.27375C165.662 9.27646 165.626 9.25839 165.555 9.22091C165.477 9.17891 165.372 9.12245 165.236 9.04929C164.945 8.88986 164.527 8.65952 163.983 8.36099L164.022 8.35648C163.453 8.91063 162.705 9.63958 161.801 10.5212L161.806 10.4634C162.131 10.9204 162.492 11.4281 162.879 11.9714L162.898 11.9985L162.881 12.0274C162.565 12.5594 162.3 13.1655 162.125 13.8308L162.116 13.866L162.078 13.875C161.49 14.011 160.852 14.1577 160.19 14.3109L160.243 14.2463C160.264 15.1884 160.285 16.1878 160.307 17.2379L160.246 17.1684C160.835 17.2813 161.485 17.4059 162.151 17.5333L162.199 17.5428L162.213 17.587C162.39 18.1647 162.666 18.7789 163.043 19.3561L163.07 19.3972L163.043 19.4383C162.732 19.9179 162.388 20.4468 162.038 20.9851L162.024 20.8835C162.752 21.5357 163.537 22.2384 164.342 22.9592L164.227 22.9493C164.733 22.6399 165.289 22.3007 165.852 21.9566L165.9 21.9277L165.949 21.9534C166.517 22.2475 167.18 22.4986 167.878 22.6575L167.935 22.6702L167.949 22.7226C168.094 23.2727 168.253 23.8729 168.413 24.479L168.317 24.4103C169.336 24.3932 170.427 24.3751 171.534 24.3566L171.44 24.4293C171.565 23.8702 171.7 23.2663 171.836 22.6584L171.848 22.6038L171.905 22.5884C172.539 22.4218 173.195 22.1644 173.803 21.8216L173.805 21.8207L173.857 21.7922L173.907 21.8207C174.465 22.1355 175.02 22.448 175.57 22.7583L175.448 22.7732C176.203 22.046 176.948 21.3284 177.683 20.6211L177.672 20.7345C177.313 20.2255 176.958 19.721 176.606 19.2219L176.574 19.1763L176.603 19.1285C176.945 18.5594 177.198 17.9537 177.363 17.3359L177.377 17.2835L177.433 17.2709C178.072 17.1254 178.701 16.9827 179.322 16.8414L179.25 16.9281C179.232 15.9069 179.215 14.9093 179.197 13.9364L179.269 14.0177C178.623 13.8922 177.989 13.7684 177.366 13.6469L177.313 13.6366L177.298 13.5887C177.106 12.9546 176.824 12.3584 176.474 11.8183L176.448 11.7767L176.474 11.7356C176.821 11.2063 177.157 10.6928 177.485 10.1915L177.498 10.2863C176.686 9.55376 175.918 8.86186 175.188 8.20382L175.282 8.21195C174.709 8.55926 174.172 8.88489 173.653 9.19923L173.617 9.22136L173.58 9.20194C172.932 8.86502 172.282 8.63694 171.646 8.48881L171.608 8.47977L171.599 8.44454C171.433 7.80548 171.283 7.23009 171.142 6.68678L171.2 6.72833C169.954 6.74368 168.892 6.75633 167.982 6.76762L168.025 6.73465C167.862 7.44101 167.728 8.02046 167.617 8.50326L167.612 8.52087L167.594 8.52584C166.913 8.70243 166.434 8.90928 166.123 9.052C165.974 9.12426 165.86 9.17936 165.777 9.22001C165.699 9.2593 165.662 9.27646 165.662 9.27375C165.662 9.27149 165.699 9.24801 165.77 9.206C165.843 9.164 165.955 9.10077 166.109 9.02445C166.417 8.87224 166.894 8.65546 167.577 8.46803L167.555 8.49016C167.66 8.00646 167.786 7.4252 167.939 6.71704L167.946 6.68497L167.981 6.68407C168.891 6.66555 169.952 6.64387 171.199 6.61858L171.245 6.61768L171.256 6.66013C171.402 7.203 171.555 7.77748 171.726 8.41519L171.678 8.37093C172.325 8.51771 172.987 8.74624 173.649 9.08587L173.576 9.08858C174.092 8.77198 174.628 8.44364 175.199 8.09362L175.249 8.06291L175.293 8.1022C176.026 8.75798 176.797 9.44673 177.612 10.1761L177.659 10.2186L177.625 10.271C177.299 10.7732 176.965 11.2876 176.62 11.8183V11.7361C176.98 12.2875 177.269 12.8959 177.468 13.544L177.401 13.4857C178.025 13.6058 178.66 13.7278 179.306 13.852L179.378 13.8655L179.379 13.9333C179.399 14.9061 179.419 15.9033 179.439 16.9249L179.44 16.9949L179.367 17.0116C178.746 17.1539 178.117 17.2975 177.478 17.4439L177.548 17.3788C177.381 18.012 177.122 18.6326 176.772 19.2165L176.768 19.123C177.12 19.6221 177.476 20.1257 177.835 20.6347L177.877 20.6956L177.823 20.748C177.089 21.4557 176.344 22.1734 175.589 22.9014L175.534 22.9543L175.466 22.9159C174.917 22.6061 174.362 22.2935 173.804 21.9787H173.906L173.904 21.9796C173.28 22.331 172.608 22.5952 171.958 22.7659L172.027 22.6964C171.891 23.3043 171.756 23.9077 171.63 24.4668L171.614 24.5386L171.536 24.54C170.429 24.5576 169.337 24.5747 168.319 24.591L168.241 24.5924L168.223 24.5223C168.064 23.9163 167.906 23.3156 167.761 22.7655L167.831 22.8305C167.115 22.667 166.436 22.4087 165.856 22.1065L165.953 22.1034C165.389 22.4462 164.833 22.7849 164.326 23.0929L164.264 23.1304L164.211 23.083C163.409 22.3604 162.626 21.6558 161.899 21.0018L161.848 20.9562L161.885 20.9002C162.236 20.3628 162.582 19.8348 162.895 19.3561V19.4383C162.511 18.8471 162.231 18.2189 162.053 17.629L162.115 17.6823C161.45 17.5522 160.801 17.4253 160.212 17.3102L160.151 17.298L160.15 17.2402C160.133 16.1906 160.116 15.1906 160.101 14.2485L160.1 14.1961L160.154 14.1835C160.817 14.034 161.455 13.8904 162.044 13.758L161.997 13.8023C162.178 13.1271 162.452 12.5133 162.777 11.9754L162.779 12.0314C162.397 11.4854 162.04 10.9746 161.719 10.5153L161.698 10.4837L161.725 10.457C162.641 9.58538 163.398 8.86457 163.974 8.31628L163.991 8.29912L164.013 8.31131C164.544 8.61888 164.953 8.85553 165.237 9.01993C165.371 9.09897 165.475 9.16039 165.552 9.206C165.626 9.24846 165.662 9.27104 165.662 9.27375Z"
            fill="#EBEBEB" />
        <path
            d="M18.4922 78.4901L18.4898 78.4815L18.0284 76.7314C17.3494 76.5752 16.6961 76.3363 16.0866 76.021L14.4585 77.0133L14.4513 77.0069L12.1296 74.9222L12.1345 74.9145L13.1384 73.3749C12.7785 72.8198 12.4988 72.221 12.3069 71.5954L10.4006 71.2265V71.2174L10.3438 68.2167L10.3535 68.2145L12.2355 67.7854C12.4036 67.154 12.6605 66.547 12.999 65.9798L11.9325 64.4659L11.9393 64.4591L14.1807 62.2999L14.189 62.3044L15.8452 63.2384C16.4421 62.9037 17.0857 62.6436 17.7588 62.4652L18.1556 60.6925L18.1654 60.692L21.3923 60.6396L21.3947 60.6487L21.8561 62.3983C22.5351 62.5541 23.1884 62.793 23.7979 63.1083L25.426 62.116L25.4333 62.1224L27.7554 64.2071L27.7505 64.2148L26.7466 65.7544C27.1065 66.3099 27.3862 66.9084 27.5781 67.5339L29.4844 67.9029V67.9119L29.5413 70.913L29.5315 70.9153L27.6495 71.3439C27.4819 71.9753 27.225 72.5823 26.886 73.1495L27.953 74.6634L27.9462 74.6702L25.7043 76.8295L25.696 76.8249L24.0398 75.8914C23.4429 76.2261 22.7989 76.4862 22.1262 76.6646L21.7294 78.4373H21.7197L18.4922 78.4901ZM16.0861 75.9944L16.0924 75.9975C16.7039 76.3146 17.3596 76.5544 18.0415 76.7107L18.0488 76.7125L18.0507 76.7193L18.5117 78.4671L21.7095 78.4151L22.1053 76.6465L22.1126 76.6447C22.7882 76.4663 23.4346 76.2053 24.034 75.8684L24.0403 75.8648L24.0466 75.8684L25.7009 76.801L27.9224 74.6611L26.8578 73.1509L26.8612 73.145C27.2022 72.5759 27.4601 71.9662 27.6281 71.3326L27.6301 71.3258L27.6373 71.324L29.517 70.8959L29.4606 67.9218L27.5587 67.5537L27.5567 67.547C27.3649 66.9183 27.0841 66.3176 26.7218 65.7603L26.7179 65.7544L26.7218 65.7486L27.7248 64.2107L25.4235 62.1449L23.7994 63.1349L23.7931 63.1318C23.1816 62.8147 22.5254 62.5749 21.844 62.4186L21.8367 62.4168L21.8348 62.4101L21.3738 60.6622L18.176 60.7142L17.7802 62.4832L17.7729 62.485C17.0968 62.6639 16.4504 62.9249 15.8515 63.2614L15.8452 63.265L15.8389 63.2614L14.1846 62.3283L11.9635 64.4682L13.0277 65.9784L13.0243 65.9843C12.6833 66.5534 12.4254 67.1631 12.2574 67.7967L12.2554 67.8035L12.2482 67.8053L10.3685 68.2339L10.4244 71.2075L12.3268 71.5756L12.3288 71.5823C12.5211 72.211 12.8018 72.8122 13.1637 73.369L13.1676 73.3749L13.1637 73.3808L12.1607 74.9186L14.4615 76.9844L16.0861 75.9944ZM20.0435 72.6866C19.177 72.6866 18.3096 72.3867 17.6379 71.7842C16.972 71.1867 16.5966 70.3837 16.5805 69.5233C16.564 68.663 16.9093 67.8482 17.5519 67.229C18.8788 65.9513 21.0761 65.9152 22.4501 67.1491C23.116 67.7466 23.4915 68.5492 23.5075 69.41C23.5235 70.2703 23.1787 71.0846 22.5361 71.7043C21.8576 72.3578 20.9508 72.6866 20.0435 72.6866ZM20.046 66.2684C20.0251 66.2684 20.0047 66.2688 19.9838 66.2688C19.0653 66.2837 18.2076 66.6306 17.5694 67.2453C16.9312 67.86 16.5883 68.6688 16.6048 69.5229C16.6213 70.3769 16.9939 71.1745 17.6554 71.768C19.0197 72.9933 21.2019 72.9571 22.5191 71.6885C23.1573 71.0738 23.4997 70.2649 23.4837 69.4109C23.4677 68.5564 23.0946 67.7592 22.4336 67.1658C21.7876 66.5859 20.9416 66.2684 20.046 66.2684Z"
            fill="#E0E0E0" />
        <path
            d="M17.5599 67.2372C17.5599 67.2372 17.7406 67.0006 18.2025 66.7129C18.6561 66.432 19.4493 66.119 20.4546 66.2179C20.9496 66.2698 21.4916 66.4198 21.9851 66.7237C22.4737 67.0272 22.9346 67.4594 23.2231 68.0204C23.3746 68.2959 23.48 68.6021 23.5373 68.9214C23.5995 69.2402 23.6082 69.5758 23.5568 69.9096C23.4693 70.5802 23.1284 71.241 22.5985 71.7604C22.0589 72.2712 21.3609 72.6117 20.6431 72.7165C20.2861 72.7761 19.9252 72.7797 19.5804 72.7332C19.2351 72.6912 18.9024 72.6045 18.6007 72.4731C17.9878 72.2251 17.507 71.8114 17.1636 71.3684C16.8197 70.9203 16.6395 70.4217 16.5667 69.9638C16.4253 69.0329 16.7337 68.285 17.0198 67.8537C17.3122 67.4134 17.5599 67.2372 17.5599 67.2372C17.5789 67.2521 17.3515 67.4477 17.0854 67.8885C16.8255 68.3216 16.5502 69.0519 16.7036 69.9434C16.7823 70.3824 16.9625 70.8557 17.2962 71.2794C17.6294 71.698 18.0908 72.0874 18.6741 72.3177C18.9606 72.4405 19.2763 72.5205 19.6037 72.5584C19.9306 72.6009 20.272 72.5959 20.6096 72.5381C21.2881 72.4365 21.9452 72.1145 22.4552 71.6317C22.9555 71.1407 23.2785 70.5188 23.3635 69.8847C23.414 69.5695 23.4072 69.252 23.3499 68.9498C23.2979 68.6472 23.2003 68.3564 23.0584 68.0944C22.7903 67.5606 22.3556 67.1455 21.8942 66.8506C21.4275 66.5557 20.9122 66.4049 20.4376 66.3471C19.4745 66.2355 18.6989 66.5169 18.2423 66.7739C17.779 67.0363 17.5764 67.2539 17.5599 67.2372Z"
            fill="#EBEBEB" />
        <path
            d="M15.8454 63.2518C15.8454 63.2545 15.8094 63.2369 15.738 63.199C15.6598 63.157 15.5549 63.1005 15.4194 63.0278C15.129 62.8684 14.7098 62.638 14.1663 62.3395L14.2057 62.335C13.6369 62.8892 12.8889 63.6181 11.9841 64.4997L11.9899 64.4419C12.3149 64.8989 12.6757 65.4066 13.0623 65.9499L13.0818 65.977L13.0648 66.0059C12.7486 66.5379 12.4834 67.144 12.309 67.8093L12.2998 67.8445L12.2614 67.8535C11.6733 67.9895 11.036 68.1363 10.3735 68.2894L10.4275 68.2248C10.4479 69.1669 10.4687 70.1664 10.4916 71.2164L10.4294 71.1469C11.019 71.2598 11.6684 71.3844 12.3343 71.5118L12.3829 71.5213L12.3965 71.5655C12.5732 72.1432 12.8496 72.757 13.227 73.3346L13.2537 73.3757L13.227 73.4172C12.9152 73.8969 12.5718 74.4258 12.2216 74.9641L12.2075 74.8625C12.9356 75.5146 13.7205 76.2174 14.5252 76.9382L14.4106 76.9283C14.9167 76.6189 15.4728 76.2797 16.0358 75.9356L16.0833 75.9067L16.1329 75.9324C16.7002 76.2264 17.3636 76.478 18.0621 76.6365L18.1184 76.6492L18.132 76.7015C18.2772 77.2516 18.436 77.8519 18.5963 78.458L18.5006 78.3893C19.5191 78.3721 20.611 78.3541 21.7179 78.3356L21.6236 78.4083C21.7485 77.8491 21.8835 77.2453 22.0195 76.6374L22.0316 76.5828L22.0889 76.5679C22.7223 76.4012 23.3789 76.1438 23.987 75.801L23.989 75.8001L24.0409 75.7716L24.0915 75.8001C24.6495 76.1149 25.2042 76.4274 25.754 76.7372L25.6316 76.7521C26.3868 76.025 27.1324 75.3073 27.8672 74.6001L27.8556 74.7134C27.4971 74.204 27.1421 73.7 26.7905 73.2009L26.7584 73.1553L26.7871 73.1079C27.129 72.5388 27.383 71.9332 27.5467 71.3153L27.5608 71.2629L27.6171 71.2503C28.2558 71.1049 28.8852 70.9622 29.5064 70.8208L29.4346 70.9075C29.4166 69.8864 29.3986 68.8887 29.3811 67.9159L29.4535 67.9972C28.8075 67.8716 28.1732 67.7479 27.5501 67.6264L27.4976 67.616L27.483 67.5681C27.2902 66.9336 27.009 66.3378 26.6588 65.7977L26.6321 65.7561L26.6588 65.715C27.0051 65.1857 27.3412 64.6722 27.6696 64.1709L27.6827 64.2657C26.8701 63.5332 26.1027 62.8413 25.3722 62.1832L25.4665 62.1914C24.8938 62.5387 24.3562 62.8643 23.8379 63.1786L23.8015 63.2008L23.7641 63.1814C23.1162 62.844 22.4663 62.6164 21.831 62.4682L21.7927 62.4592L21.7834 62.424C21.6173 61.7849 21.4677 61.2095 21.3264 60.6662L21.3842 60.7077C20.1379 60.7231 19.0757 60.7357 18.1665 60.747L18.2092 60.7141C18.046 61.4204 17.9125 61.9999 17.8008 62.4822L17.7964 62.4998L17.7779 62.5048C17.097 62.6814 16.6181 62.8882 16.3068 63.031C16.1581 63.1032 16.044 63.1583 15.9605 63.199C15.8823 63.2374 15.8454 63.2545 15.8454 63.2518C15.8454 63.2496 15.8823 63.2261 15.9527 63.1841C16.0265 63.1421 16.1377 63.0788 16.2917 63.0025C16.5996 62.8503 17.0771 62.6335 17.7604 62.4461L17.7381 62.4687C17.843 61.985 17.9688 61.4037 18.1218 60.6956L18.1286 60.6635L18.1645 60.6626C19.0738 60.6441 20.1355 60.6224 21.3818 60.5971L21.4284 60.5962L21.4401 60.6386C21.5853 61.1815 21.7388 61.756 21.9092 62.3937L21.8616 62.3494C22.5086 62.4962 23.1711 62.7248 23.8326 63.0644L23.7592 63.0666C24.276 62.75 24.8117 62.4217 25.3824 62.0717L25.4329 62.041L25.4767 62.0803C26.21 62.736 26.9804 63.4248 27.7963 64.1542L27.8434 64.1966L27.8094 64.249C27.4831 64.7512 27.1489 65.2657 26.8045 65.7963V65.7141C27.1639 66.2656 27.4534 66.8739 27.6526 67.522L27.5855 67.4638C28.2092 67.5839 28.844 67.7059 29.4899 67.8301L29.5613 67.8436L29.5628 67.9113C29.5822 68.8842 29.6021 69.8814 29.6225 70.903L29.624 70.973L29.5506 70.9897C28.9294 71.132 28.3005 71.2756 27.6618 71.4219L27.7317 71.3569C27.5646 71.9901 27.3053 72.6111 26.9556 73.1946L26.9522 73.1011C27.3043 73.6002 27.6598 74.1037 28.0188 74.6127L28.0615 74.6737L28.0071 74.7261C27.2727 75.4338 26.5277 76.1519 25.7729 76.8795L25.718 76.9323L25.6505 76.8939C25.1007 76.5841 24.5461 76.2716 23.988 75.9568H24.0905L24.0885 75.9577C23.4644 76.3091 22.7917 76.5733 22.1419 76.744L22.2113 76.6744C22.0753 77.2824 21.9398 77.8857 21.8145 78.4453L21.7985 78.5167L21.7198 78.518C20.6129 78.5356 19.5211 78.5528 18.5026 78.5691L18.4249 78.5704L18.4064 78.5004C18.2471 77.8943 18.0893 77.2936 17.9445 76.7435L18.0145 76.8086C17.299 76.6451 16.62 76.3868 16.0396 76.0846L16.1368 76.0814C15.5729 76.4242 15.0163 76.763 14.5097 77.071L14.448 77.1085L14.3951 77.0611C13.5922 76.3384 12.8093 75.6339 12.0827 74.9799L12.0317 74.9343L12.0681 74.8783C12.4198 74.3404 12.7651 73.8129 13.0784 73.3341V73.4163C12.6947 72.8252 12.4149 72.1969 12.2367 71.6071L12.2988 71.6604C11.6334 71.5303 10.9845 71.4038 10.3954 71.2882L10.3342 71.2765L10.3332 71.2187C10.3157 70.1691 10.2997 69.1692 10.2842 68.227L10.2832 68.1746L10.3376 68.1625C11.0011 68.013 11.6388 67.8693 12.2279 67.7366L12.1803 67.7808C12.3615 67.1056 12.6359 66.4919 12.9608 65.954L12.9628 66.01C12.5815 65.4639 12.2245 64.9531 11.9035 64.4938L11.8816 64.4622L11.9098 64.4356C12.8253 63.5639 13.5825 62.8431 14.1581 62.2948L14.176 62.2776L14.1974 62.2898C14.7288 62.5974 15.1382 62.834 15.4218 62.9984C15.5559 63.0775 15.6593 63.1389 15.7366 63.1845C15.8094 63.2265 15.8454 63.2496 15.8454 63.2518Z"
            fill="#EBEBEB" />
        <path
            d="M86.2584 54.3762C88.616 52.3768 91.2241 50.7094 93.9999 49.3897L94.0815 41.2702L108.2 38.4258L111.889 45.7847C115.003 45.9175 118.12 46.431 121.156 47.3438L127.386 41.6586L139.533 48.9308L136.547 56.5558C138.698 58.749 140.491 61.1752 141.909 63.7563L150.64 63.8321L153.699 76.9603L145.785 80.3914C145.643 83.2864 145.09 86.1845 144.109 89.0081L150.222 94.8013L142.403 106.096L134.202 103.319C131.844 105.319 129.235 106.986 126.459 108.305L126.377 116.424L112.259 119.269L108.57 111.909C105.456 111.777 102.339 111.263 99.3031 110.35L93.0736 116.035L80.9269 108.763L83.913 101.138C81.7623 98.9451 79.9687 96.5198 78.55 93.9378L69.8187 93.8619L66.7598 80.7337L74.6741 77.3026C74.8169 74.4076 75.3701 71.5095 76.3507 68.6859L70.2373 62.8932L78.057 51.5982L86.2584 54.3762ZM94.1441 69.2179C88.4246 77.4792 90.9895 88.4874 99.8738 93.8054C108.758 99.1239 120.596 96.7379 126.315 88.477C132.034 80.2161 129.47 69.2075 120.585 63.8895C111.701 58.5719 99.8631 60.957 94.1441 69.2179Z"
            fill="#E0E0E0" />
        <path
            d="M94.1445 69.2184C94.1445 69.2184 94.1985 69.1349 94.3145 68.9773C94.4369 68.8138 94.6103 68.5825 94.8357 68.2822C94.9518 68.1291 95.0805 67.9588 95.2228 67.7709C95.3743 67.5894 95.5599 67.4056 95.7498 67.1983C95.9426 66.9923 96.1505 66.771 96.3719 66.5348C96.5847 66.2896 96.8717 66.0832 97.1422 65.8343C98.2205 64.8335 99.748 63.7983 101.675 62.8824C103.605 61.9774 105.997 61.2525 108.722 61.0497C109.063 61.0267 109.407 61.0036 109.756 60.9801C110.105 60.9761 110.458 60.9923 110.815 60.9982C111.172 61.0154 111.536 60.9946 111.898 61.0429C112.26 61.084 112.627 61.1256 112.997 61.1676C113.182 61.1892 113.367 61.2114 113.554 61.2335C113.738 61.2714 113.923 61.3098 114.108 61.3482C114.48 61.4255 114.854 61.5031 115.233 61.5817C115.608 61.6707 115.975 61.8021 116.351 61.9119C116.722 62.0361 117.113 62.1205 117.473 62.289C118.204 62.5988 118.969 62.8743 119.674 63.288C120.031 63.4849 120.405 63.6629 120.756 63.8792C121.099 64.1073 121.444 64.3376 121.792 64.5693C121.964 64.6881 122.146 64.7951 122.311 64.9243L122.798 65.3231C123.121 65.5936 123.46 65.8515 123.774 66.1374C124.365 66.7444 125.012 67.3216 125.529 68.0148C126.106 68.6647 126.56 69.4063 127.046 70.1389C127.269 70.5155 127.459 70.9121 127.668 71.3014C127.766 71.4992 127.884 71.6889 127.965 71.8944L128.213 72.5113C128.581 73.3247 128.794 74.1941 129.047 75.0608C129.206 75.9469 129.398 76.838 129.429 77.7548L129.481 78.4408L129.465 79.1314L129.445 79.8251C129.445 80.0573 129.431 80.2889 129.392 80.5193C129.331 80.9813 129.269 81.4447 129.207 81.9103C129.097 82.3683 128.986 82.8276 128.875 83.2887C128.358 85.1165 127.531 86.8928 126.423 88.5399C125.269 90.1599 123.873 91.5966 122.298 92.7916C121.892 93.0766 121.488 93.3607 121.085 93.6434C120.655 93.8886 120.227 94.1325 119.8 94.3759L119.479 94.5561L119.142 94.7083L118.471 95.0118L117.802 95.3117L117.109 95.552C116.198 95.9061 115.246 96.112 114.313 96.3446C113.36 96.4896 112.42 96.6684 111.471 96.6942L110.764 96.7398C110.53 96.7561 110.295 96.7344 110.061 96.7335C109.593 96.7172 109.126 96.7208 108.665 96.6879C107.746 96.5799 106.832 96.5027 105.957 96.2832C105.064 96.1337 104.231 95.8243 103.393 95.5755C102.983 95.4273 102.589 95.2471 102.191 95.0859L101.598 94.8389C101.404 94.7531 101.223 94.6429 101.036 94.5467C100.665 94.3479 100.297 94.1506 99.9316 93.9546C99.5746 93.7468 99.2453 93.5043 98.9048 93.2834C98.2083 92.8584 97.6221 92.3246 97.016 91.8341C96.7017 91.5993 96.4574 91.3021 96.182 91.0397C95.9188 90.7665 95.6385 90.5108 95.3962 90.2299C95.1626 89.9422 94.9314 89.6572 94.7021 89.375L94.3602 88.9536L94.0649 88.5087C93.8706 88.2129 93.6783 87.9198 93.4879 87.6298C93.2912 87.3435 93.1605 87.0269 92.9964 86.7324C92.8434 86.4321 92.6807 86.1399 92.5403 85.8427C92.4189 85.5379 92.2989 85.2366 92.1804 84.939C91.2513 82.548 90.971 80.2235 91.058 78.215C91.1571 76.2048 91.5378 74.4841 92.0716 73.1572C92.2032 72.8248 92.2868 72.4969 92.4383 72.215C92.5782 71.9296 92.7088 71.6622 92.8303 71.4138C92.9546 71.1672 93.0581 70.9342 93.1727 70.7305C93.2975 70.5327 93.4112 70.3529 93.5127 70.1917C93.7137 69.8765 93.8682 69.6344 93.9775 69.4628C94.0848 69.2988 94.1445 69.2184 94.1445 69.2184C94.1445 69.2184 94.0994 69.3074 94.0008 69.475C93.8968 69.6488 93.7497 69.8945 93.5583 70.2143C93.4602 70.3769 93.3504 70.558 93.23 70.7572C93.1193 70.9618 93.0197 71.1952 92.8997 71.4427C92.7822 71.6916 92.6554 71.959 92.5204 72.2449C92.3727 72.5267 92.2936 72.8546 92.1658 73.1861C91.6491 74.5107 91.2853 76.2238 91.2003 78.2195C91.1269 80.2135 91.4179 82.5173 92.3494 84.8821C92.4679 85.1766 92.5884 85.4746 92.7098 85.7759C92.8502 86.0699 93.0124 86.3589 93.1654 86.6557C93.3291 86.947 93.4592 87.26 93.6555 87.5427C93.8449 87.829 94.0367 88.1185 94.23 88.4107L94.5234 88.8502L94.8634 89.2661C95.0912 89.5448 95.3209 89.8262 95.5526 90.1102C95.793 90.3875 96.0713 90.6395 96.3326 90.9092C96.606 91.168 96.8479 91.4611 97.1597 91.6928C97.761 92.176 98.3414 92.7031 99.0321 93.1213C99.3691 93.339 99.695 93.5779 100.049 93.7829C100.41 93.9758 100.775 94.17 101.142 94.3656C101.328 94.4604 101.506 94.5688 101.699 94.6532L102.285 94.8962C102.679 95.0543 103.068 95.2322 103.474 95.3777C104.303 95.6215 105.127 95.9264 106.009 96.0723C106.874 96.2882 107.776 96.3627 108.684 96.4684C109.139 96.5 109.6 96.4955 110.062 96.5113C110.293 96.5117 110.526 96.5334 110.757 96.5167L111.455 96.4706C112.392 96.4449 113.319 96.266 114.26 96.1229C115.181 95.8916 116.121 95.6879 117.02 95.3375L117.704 95.1004L118.365 94.8036L119.027 94.5037L119.359 94.3534L119.675 94.175C120.097 93.9347 120.52 93.6935 120.944 93.4514C121.341 93.1719 121.74 92.8914 122.14 92.61C123.694 91.4299 125.071 90.0122 126.21 88.4134C127.304 86.7875 128.12 85.0352 128.632 83.2318C128.741 82.7766 128.851 82.3231 128.96 81.8715C129.021 81.4122 129.082 80.9542 129.143 80.4985C129.182 80.2713 129.196 80.0424 129.196 79.8134L129.215 79.1287L129.232 78.4472L129.181 77.7697C129.153 76.8642 128.963 75.9849 128.808 75.1096C128.559 74.2537 128.35 73.3947 127.987 72.5913L127.743 71.982C127.664 71.7788 127.547 71.5913 127.45 71.3958C127.244 71.0114 127.058 70.6194 126.838 70.2468C126.359 69.5228 125.913 68.7894 125.343 68.1467C124.835 67.4607 124.196 66.8898 123.614 66.2887C123.304 66.0055 122.968 65.7499 122.651 65.482L122.17 65.0864C122.008 64.9582 121.828 64.852 121.659 64.7341C121.315 64.5043 120.974 64.2762 120.635 64.0495C120.288 63.8345 119.919 63.6579 119.567 63.4628C118.872 63.0513 118.115 62.7781 117.394 62.4692C117.038 62.3012 116.651 62.2176 116.284 62.0934C115.912 61.9837 115.55 61.8527 115.179 61.7637C114.805 61.6851 114.435 61.607 114.068 61.5298C113.884 61.4909 113.701 61.4525 113.52 61.4142C113.335 61.392 113.151 61.3694 112.968 61.3473C112.602 61.3044 112.24 61.2624 111.881 61.2204C111.523 61.1712 111.162 61.1906 110.809 61.1725C110.456 61.1658 110.105 61.1481 109.76 61.1509C109.414 61.1725 109.073 61.1942 108.735 61.2159C106.034 61.4065 103.659 62.1133 101.737 63.0008C99.8179 63.8986 98.2914 64.9157 97.2088 65.9016C96.9368 66.1469 96.6488 66.3496 96.4341 66.5913C96.2102 66.8243 96.0009 67.042 95.8056 67.2448C95.6133 67.4489 95.4253 67.63 95.2714 67.8084C95.1261 67.9927 94.9945 68.1607 94.876 68.3111C94.6419 68.6056 94.4622 68.8318 94.3354 68.9917C94.213 69.1435 94.1445 69.2184 94.1445 69.2184Z"
            fill="black" />
        <path
            d="M86.2583 54.3766C86.2583 54.3766 86.082 54.3229 85.7323 54.2077C85.3788 54.0903 84.8566 53.9169 84.1689 53.6879C82.7818 53.2232 80.7273 52.5344 78.0428 51.6348L78.0904 51.6199C76.104 54.4995 73.4754 58.3104 70.2912 62.9266L70.2829 62.8525C72.1358 64.604 74.1971 66.5528 76.4036 68.6389L76.4352 68.6687L76.4216 68.7084C75.5182 71.3207 74.9077 74.2193 74.7576 77.3071L74.7552 77.3536L74.7095 77.3735C72.2446 78.4444 69.5753 79.6042 66.7986 80.8105L66.8486 80.717C67.8146 84.8495 68.8399 89.2362 69.9167 93.8433L69.8205 93.7706C72.5229 93.7928 75.4998 93.8172 78.5519 93.842L78.615 93.8424L78.6436 93.8948C79.971 96.3138 81.7754 98.815 83.994 101.07L84.0387 101.116L84.0159 101.173C83.0911 103.537 82.0717 106.144 81.0333 108.8L80.9886 108.676C84.8042 110.958 88.9199 113.42 93.1377 115.944L92.9915 115.958C94.9309 114.187 97.0611 112.242 99.2191 110.271L99.271 110.223L99.3405 110.244C102.139 111.087 105.322 111.661 108.576 111.796L108.65 111.799L108.681 111.861C109.837 114.166 111.099 116.68 112.372 119.22L112.234 119.157C116.704 118.256 121.494 117.29 126.351 116.31L126.252 116.423C126.278 113.859 126.306 111.091 126.334 108.304L126.334 108.232L126.402 108.2C129.06 106.941 131.732 105.259 134.111 103.237L134.118 103.232L134.175 103.184L134.246 103.208C136.997 104.14 139.732 105.066 142.447 105.985L142.298 106.032C144.938 102.219 147.546 98.4514 150.118 94.738L150.134 94.8826C148.076 92.9319 146.038 91.0007 144.021 89.0885L143.969 89.0388L143.992 88.9724C144.97 86.1628 145.523 83.2647 145.664 80.3859L145.668 80.3168L145.735 80.2879C148.412 79.1281 151.048 77.9864 153.65 76.8587L153.583 76.9838C152.54 72.5017 151.521 68.1231 150.528 63.8547L150.64 63.94C147.678 63.9134 144.768 63.8872 141.91 63.8615L141.841 63.861L141.81 63.8041C140.351 61.1471 138.535 58.7345 136.468 56.6244L136.423 56.5788L136.446 56.521C137.471 53.9069 138.465 51.3724 139.436 48.8974L139.478 49.013C135.206 46.4518 131.173 44.0346 127.336 41.734L127.456 41.7227C125.263 43.7212 123.206 45.5959 121.222 47.4038L121.183 47.4395L121.131 47.4237C117.938 46.4644 114.843 45.992 111.887 45.8615L111.837 45.8592L111.816 45.8168C110.477 43.1399 109.272 40.73 108.134 38.4547L108.217 38.493C102.74 39.5896 98.0777 40.5236 94.095 41.3207L94.1397 41.2697C94.1008 44.5215 94.0688 47.183 94.0421 49.3892L94.0416 49.4123L94.0197 49.4226C91.1867 50.7708 89.2779 52.0855 88.0496 52.9815C87.4347 53.4318 86.9951 53.7882 86.6994 54.0226C86.4036 54.2642 86.2583 54.3766 86.2583 54.3766C86.2583 54.3766 86.8023 53.8713 88.0219 52.9526C89.2434 52.0458 91.1473 50.7188 93.9813 49.3567L93.959 49.3901C93.977 47.1839 93.9983 44.5224 94.0246 41.2706L94.0251 41.2286L94.0693 41.2196C98.0495 40.413 102.709 39.4686 108.184 38.3589L108.242 38.3472L108.268 38.3978C109.41 40.6713 110.62 43.079 111.964 45.7531L111.893 45.7084C114.862 45.8348 117.974 46.3046 121.185 47.2643L121.093 47.2842C123.074 45.4735 125.129 43.5961 127.318 41.5949L127.374 41.5443L127.439 41.5831C131.279 43.8797 135.315 46.2924 139.59 48.8491L139.661 48.8915L139.632 48.9651C138.664 51.441 137.673 53.976 136.65 56.591L136.628 56.4876C138.711 58.6089 140.54 61.036 142.011 63.7088L141.911 63.6515C144.769 63.6754 147.679 63.6998 150.641 63.7246L150.734 63.7255L150.754 63.81C151.75 68.0779 152.772 72.4557 153.817 76.9372L153.838 77.0249L153.75 77.0628C151.148 78.1914 148.514 79.3345 145.837 80.4952L145.908 80.3972C145.766 83.2958 145.21 86.2143 144.227 89.0438L144.197 88.9277C146.215 90.8395 148.253 92.7703 150.311 94.7204L150.381 94.7868L150.327 94.865C147.756 98.5788 145.148 102.347 142.508 106.16L142.454 106.239L142.359 106.207C139.644 105.288 136.91 104.362 134.158 103.431L134.287 103.407L134.28 103.413C131.884 105.449 129.192 107.143 126.516 108.411L126.585 108.308C126.557 111.095 126.529 113.863 126.502 116.427L126.501 116.521L126.403 116.541C121.546 117.519 116.755 118.484 112.285 119.383L112.189 119.403L112.147 119.319C110.874 116.779 109.614 114.265 108.459 111.959L108.564 112.025C105.288 111.888 102.084 111.309 99.2662 110.459L99.3871 110.432C97.2277 112.402 95.0965 114.345 93.1562 116.116L93.0891 116.177L93.01 116.13C88.7937 113.604 84.6803 111.139 80.8662 108.854L80.7904 108.808L80.8215 108.73C81.8623 106.075 82.8847 103.469 83.8114 101.106L83.8333 101.209C81.603 98.9374 79.7904 96.4195 78.4581 93.9847L78.5499 94.0376C75.4983 94.0096 72.521 93.982 69.8186 93.9572L69.7389 93.9563L69.7219 93.884C68.6515 89.2755 67.6325 84.8878 66.6723 80.754L66.6572 80.6885L66.7223 80.6601C69.5014 79.4578 72.1728 78.3021 74.6391 77.2349L74.5915 77.3013C74.7479 74.199 75.3676 71.2882 76.2803 68.6669L76.2977 68.7364C74.0966 66.6458 72.0402 64.6929 70.1916 62.937L70.1557 62.9026L70.1834 62.8624C73.3841 58.2562 76.0262 54.453 78.0229 51.5797L78.0404 51.5544L78.0705 51.5648C80.7418 52.4784 82.7861 53.1776 84.1665 53.65C84.8542 53.8871 85.3758 54.0668 85.7294 54.1888C86.0796 54.3103 86.2583 54.3766 86.2583 54.3766Z"
            fill="black" />
        <path d="M151.085 122.722L122.962 139.432H215.154V122.722H151.085Z" fill="black" />
        <path d="M203.084 112.402V114.084V149.752L229.261 131.077L203.084 112.402Z" fill="black" />
        <path d="M168.855 130.33H169.614V132.804H171.259V133.379H168.856L168.855 130.33Z"
            fill="black" />
        <path
            d="M173.871 132.726H172.349L172.058 133.379H171.28L172.742 130.33H173.492L174.957 133.379H174.161L173.871 132.726ZM173.632 132.189L173.112 131.022L172.593 132.189H173.632Z"
            fill="black" />
        <path
            d="M175.199 132.037V130.331H175.958V132.012C175.958 132.591 176.231 132.83 176.69 132.83C177.153 132.83 177.42 132.591 177.42 132.012V130.331H178.17V132.037C178.17 132.935 177.617 133.431 176.685 133.431C175.752 133.431 175.199 132.935 175.199 132.037Z"
            fill="black" />
        <path
            d="M181.924 130.33V133.379H181.302L179.667 131.527V133.379H178.918V130.33H179.545L181.174 132.181V130.33H181.924Z"
            fill="black" />
        <path
            d="M182.494 131.854C182.494 130.935 183.253 130.278 184.275 130.278C184.841 130.278 185.315 130.47 185.623 130.818L185.136 131.236C184.916 131.001 184.64 130.879 184.312 130.879C183.698 130.879 183.263 131.28 183.263 131.854C183.263 132.429 183.698 132.83 184.312 132.83C184.64 132.83 184.916 132.708 185.136 132.468L185.623 132.886C185.314 133.239 184.841 133.431 184.27 133.431C183.253 133.431 182.494 132.773 182.494 131.854Z"
            fill="black" />
        <path
            d="M189.14 130.33V133.379H188.382V132.128H186.891V133.379H186.134V130.33H186.891V131.532H188.382V130.33H189.14Z"
            fill="black" />
        <path
            d="M37.5905 81.0165C40.4785 115.036 71.1733 141.897 108.488 141.897V125.187C79.1814 125.187 55.3392 103.016 55.3392 75.7648C55.3392 75.7648 56.1401 67.1418 56.6987 64.5439L39.0068 61.4507C38.3623 64.4012 37.336 78.0149 37.5905 81.0165Z"
            fill="#3DB8DB" />
        <path
            d="M60.4225 109.729L60.116 110.72L60.1403 110.747L60.5575 111.222L61.2642 110.685L61.744 111.231L59.2082 113.16L58.3097 112.14C57.756 111.509 57.7604 110.848 58.3291 110.415C58.7094 110.126 59.1456 110.092 59.5565 110.292L59.9057 109.143L60.4225 109.729ZM58.8153 111.806L59.2063 112.25L60.0902 111.578L59.6993 111.134C59.4054 110.801 59.0912 110.759 58.8158 110.968C58.537 111.18 58.5219 111.472 58.8153 111.806Z"
            fill="black" />
        <path
            d="M57.6103 107.202L58.0999 106.866L59.6065 108.764L56.9717 110.574L55.501 108.721L55.9906 108.385L57.0139 109.674L57.5861 109.281L56.6827 108.143L57.1577 107.817L58.0606 108.955L58.6706 108.536L57.6103 107.202Z"
            fill="black" />
        <path
            d="M53.3252 105.731L56.8363 105.13L57.2535 105.708L55.3185 108.496L54.8624 107.864L56.251 105.882L53.7448 106.312L53.3252 105.731Z"
            fill="black" />
        <path d="M53.1512 105.448L52.749 104.849L55.532 103.235L55.9342 103.833L53.1512 105.448Z"
            fill="black" />
        <path
            d="M53.3331 100.881L53.8596 100.597L55.1335 102.639L52.2985 104.168L51.0547 102.176L51.5817 101.892L52.4462 103.278L53.0616 102.946L52.2981 101.722L52.809 101.446L53.5725 102.671L54.2287 102.317L53.3331 100.881Z"
            fill="black" />
        <path
            d="M48.4219 97.4739L51.8271 96.9775L52.1967 97.6518L50.5487 99.1856L52.8621 98.8649L53.2298 99.5352L50.8013 101.811L50.4443 101.16L52.1593 99.5744L49.7575 99.9069L49.4389 99.3256L51.1665 97.725L48.7521 98.0741L48.4219 97.4739Z"
            fill="black" />
        <path d="M67.7341 60.4052L32.4072 51.396L43.837 77.0345L67.7341 60.4052Z" fill="black" />
        <path
            d="M58.7298 59.7713C66.1958 40.8631 85.7523 27.337 108.643 27.337V10.6265C77.8952 10.6265 51.642 28.8653 41.7383 54.3196L58.7298 59.7713Z"
            fill="black" />
        <path
            d="M61.2061 36.9922L62.4363 36.2113C63.3217 35.649 64.2936 35.7597 64.8536 36.5225C65.4131 37.2849 65.1698 38.1674 64.2844 38.7292L63.0541 39.5101L61.2061 36.9922ZM63.9021 38.2708C64.4398 37.9293 64.5729 37.4077 64.2188 36.9254C63.8643 36.443 63.2941 36.368 62.7559 36.709L62.1828 37.0726L63.329 38.6339L63.9021 38.2708Z"
            fill="black" />
        <path
            d="M68.0018 35.6844L68.3452 36.1523L66.2489 37.4832L64.4004 34.9654L66.4466 33.666L66.79 34.1335L65.3659 35.0372L65.7671 35.5841L67.0241 34.7861L67.3573 35.2391L66.1003 36.0371L66.5282 36.6202L68.0018 35.6844Z"
            fill="black" />
        <path
            d="M70.0137 32.741C70.4261 33.3019 70.2294 33.9387 69.5057 34.3976L68.9602 34.744L69.4697 35.4382L68.8437 35.8356L66.9951 33.3177L68.1671 32.5739C68.8903 32.1146 69.5984 32.176 70.0137 32.741ZM69.3789 33.1439C69.1754 32.8666 68.8636 32.8277 68.4804 33.0707L67.9694 33.395L68.611 34.2693L69.122 33.9451C69.5052 33.7021 69.5795 33.4171 69.3789 33.1439Z"
            fill="black" />
        <path
            d="M69.7871 31.5454L70.4137 31.1479L71.9135 33.1907L73.271 32.329L73.6197 32.8041L71.6357 34.0637L69.7871 31.5454Z"
            fill="black" />
        <path
            d="M72.831 31.4602C72.2817 30.7118 72.5012 29.7602 73.356 29.2178C74.2075 28.6772 75.242 28.8276 75.7937 29.5796C76.346 30.3315 76.1192 31.2813 75.2682 31.8219C74.4134 32.3643 73.3803 32.2081 72.831 31.4602ZM75.1599 29.982C74.8083 29.5032 74.2046 29.407 73.7208 29.7141C73.2371 30.0208 73.1142 30.579 73.4658 31.0573C73.817 31.5356 74.4202 31.6322 74.904 31.3256C75.3877 31.0185 75.5111 30.4602 75.1599 29.982Z"
            fill="black" />
        <path
            d="M77.7176 28.8954L78.3723 29.7874L77.7458 30.1853L77.0857 29.2861L74.8496 28.3331L75.5145 27.9109L77.06 28.5702L76.9614 26.9922L77.5773 26.6016L77.7176 28.8954Z"
            fill="black" />
        <path d="M118.767 39.5912L95.3652 15.7868L125.227 0.0576172L118.767 39.5912Z" fill="#E0E0E0" />
        <path
            d="M151.057 43.2526C140.953 32.5063 126.363 26.3429 111.027 26.3429V9.63232C131.548 9.63232 151.07 17.8774 164.587 32.2534L151.057 43.2526Z"
            fill="#E0E0E0" />
        <path
            d="M130.829 20.7978L129.85 20.4487L130.071 19.9121L132.739 20.8624L132.517 21.3989L131.537 21.0502L130.585 23.3604L129.877 23.1074L130.829 20.7978Z"
            fill="black" />
        <path
            d="M134.533 24.1604L134.316 24.6892L131.945 23.8447L133.118 20.9976L135.432 21.8218L135.214 22.3502L133.604 21.7766L133.349 22.3949L134.772 22.9012L134.56 23.4138L133.138 22.9071L132.866 23.566L134.533 24.1604Z"
            fill="black" />
        <path
            d="M134.755 24.5238L135.2 24.1133C135.386 24.3797 135.72 24.639 136.088 24.7699C136.507 24.9194 136.731 24.8503 136.804 24.6751C137.023 24.1422 135.093 23.8743 135.528 22.8171C135.727 22.3329 136.313 22.0795 137.183 22.3903C137.569 22.5271 137.927 22.7529 138.143 23.0207L137.718 23.4435C137.496 23.191 137.233 23.014 136.961 22.9173C136.541 22.7678 136.319 22.8564 136.245 23.0357C136.029 23.5605 137.958 23.8328 137.528 24.8779C137.332 25.3534 136.74 25.6091 135.865 25.2974C135.38 25.124 134.946 24.8155 134.755 24.5238Z"
            fill="black" />
        <path
            d="M139.212 23.7836L138.231 23.435L138.452 22.8984L141.12 23.8487L140.899 24.3852L139.919 24.0361L138.967 26.3462L138.26 26.0938L139.212 23.7836Z"
            fill="black" />
        <path
            d="M174.092 106.233L157.82 99.141C161.134 92.5661 164.175 83.0912 164.175 75.7652C164.175 67.9157 162.257 60.415 158.474 53.4706C157.818 52.2661 155.44 48.256 154.787 47.2525L170.16 38.5991C171.105 40.0511 173.706 44.451 174.505 45.9188C179.575 55.2257 182.145 65.2673 182.145 75.7647C182.145 85.5607 178.534 97.4225 174.092 106.233Z"
            fill="#3DB8DB" />
        <path d="M148.459 54.8722L179.061 36.1501L150.807 27.2036L148.459 54.8722Z" fill="#3DB8DB" />
        <path
            d="M171.42 57.9688L171.824 59.3011C172.116 60.2608 171.693 61.0819 170.738 61.3325C169.782 61.5832 168.962 61.0882 168.67 60.1289L168.266 58.7957L171.42 57.9688ZM169.258 59.9379C169.435 60.5209 169.925 60.8041 170.529 60.6456C171.133 60.4871 171.391 60.0074 171.214 59.4253L171.026 58.8047L169.07 59.3178L169.258 59.9379Z"
            fill="black" />
        <path
            d="M170.424 64.3974L169.831 64.5221L169.271 62.2214L172.466 61.5503L173.012 63.7958L172.419 63.92L172.039 62.3583L171.345 62.5041L171.68 63.8834L171.105 64.0049L170.77 62.6252L170.031 62.7806L170.424 64.3974Z"
            fill="black" />
        <path
            d="M173.713 67.3498L170.238 66.5865L170.106 65.9009L173.083 64.0718L173.228 64.8215L171.099 66.1163L173.58 66.6597L173.713 67.3498Z"
            fill="black" />
        <path
            d="M171.457 70.3683L170.854 70.4442L170.514 68.107L173.76 67.6982L174.092 69.9799L173.49 70.0553L173.258 68.4687L172.554 68.5568L172.758 69.9587L172.174 70.0327L171.969 68.6304L171.218 68.7253L171.457 70.3683Z"
            fill="black" />
        <path
            d="M174.174 70.6875L174.245 71.3898L171.598 71.6228L171.752 73.1435L171.137 73.1981L170.911 70.9752L174.174 70.6875Z"
            fill="black" />
        <path
            d="M172.793 73.2352C173.765 73.1887 174.524 73.858 174.577 74.8191C174.63 75.7752 173.954 76.5186 172.977 76.5651C172 76.6112 171.246 75.9373 171.192 74.9808C171.139 74.021 171.819 73.2822 172.793 73.2352ZM172.937 75.852C173.559 75.8226 173.962 75.3931 173.932 74.8498C173.902 74.3069 173.454 73.9181 172.832 73.9479C172.21 73.9777 171.807 74.4072 171.837 74.9501C171.868 75.4934 172.315 75.8822 172.937 75.852Z"
            fill="black" />
        <path
            d="M173.443 79.7765C172.712 79.7793 172.257 79.2716 172.253 78.4573L172.251 77.844L171.348 77.8476L171.345 77.1426L174.622 77.1309L174.627 78.4492C174.629 79.2626 174.177 79.7738 173.443 79.7765ZM173.44 79.0625C173.8 79.0612 174.01 78.843 174.009 78.4126L174.006 77.8377L172.868 77.8413L172.871 78.4162C172.873 78.8471 173.084 79.0634 173.44 79.0625Z"
            fill="black" />
        <path
            d="M111.026 141.897H53.6797V125.187H111.026C127.722 125.187 143.122 118.103 153.278 105.752L167.554 115.902C153.97 132.422 133.366 141.897 111.026 141.897Z"
            fill="#3DB8DB" />
        <path d="M144.194 101.573L174.687 120.449L172.5 92.769L144.194 101.573Z" fill="#3DB8DB" />
        <g opacity="0.3">
            <path
                d="M174.686 120.449L172.5 92.769L144.193 101.573L152.475 106.7C142.32 118.464 127.288 125.187 111.026 125.187H53.6797V141.897H111.026C133.327 141.897 153.895 132.454 167.48 115.989L174.686 120.449Z"
                fill="black" />
        </g>
        <path
            d="M143.765 123.986C144.205 124.528 144.04 125.173 143.341 125.663L142.812 126.032L143.357 126.704L142.751 127.128L140.778 124.692L141.912 123.898C142.611 123.409 143.323 123.44 143.765 123.986ZM143.151 124.416C142.934 124.148 142.62 124.123 142.25 124.382L141.756 124.728L142.441 125.573L142.935 125.227C143.305 124.968 143.366 124.681 143.151 124.416Z"
            fill="black" />
        <path
            d="M143.479 122.802L144.085 122.378L145.685 124.353L146.998 123.434L147.371 123.894L145.452 125.238L143.479 122.802Z"
            fill="black" />
        <path
            d="M149.034 121.91L147.819 122.762L148.009 123.447L147.388 123.882L146.583 120.629L147.181 120.21L150.325 121.825L149.689 122.27L149.034 121.91ZM148.497 121.616L147.326 120.974L147.666 122.198L148.497 121.616Z"
            fill="black" />
        <path
            d="M151.027 117.516L153 119.952L152.502 120.3L150 119.735L151.197 121.214L150.598 121.633L148.626 119.198L149.127 118.847L151.626 119.413L150.429 117.935L151.027 117.516Z"
            fill="black" />
        <path d="M48.9053 114.867V152.217L74.7466 133.542L48.9053 114.867Z" fill="#E0E0E0" />
        <path d="M53.6794 125.187H0.03125V141.897H53.6794V125.187Z" fill="#E0E0E0" />
        <path
            d="M23.0239 132.976C23.0239 133.655 22.4756 134.078 21.5999 134.078H20.9393V134.918H20.1807V131.87H21.5999C22.4756 131.87 23.0239 132.292 23.0239 132.976ZM22.2555 132.976C22.2555 132.641 22.0214 132.445 21.5576 132.445H20.9393V133.503H21.5576C22.0214 133.503 22.2555 133.307 22.2555 132.976Z"
            fill="black" />
        <path d="M23.5615 131.87H24.3202V134.343H25.9642V134.918H23.562L23.5615 131.87Z"
            fill="black" />
        <path
            d="M28.576 134.265H27.0539L26.7629 134.918H25.9854L27.4468 131.87H28.1962L29.6625 134.918H28.866L28.576 134.265ZM28.3366 133.729L27.8169 132.562L27.2972 133.729H28.3366Z"
            fill="black" />
        <path
            d="M33.0103 131.87V134.918H32.3877L30.7533 133.067V134.918H30.0039V131.87H30.6314L32.2609 133.72V131.87H33.0103Z"
            fill="black" />
        <path d="M104.62 193.028L103.236 206.661L95.3115 206.114L96.6681 192.453L104.62 193.028Z"
            fill="#3DB8DB" />
        <path
            d="M99.3736 205.877C99.3076 205.87 99.5971 202.884 100.021 199.208C100.444 195.531 100.84 192.557 100.906 192.563C100.973 192.57 100.683 195.555 100.26 199.232C99.8365 202.908 99.4397 205.884 99.3736 205.877Z"
            fill="black" />
        <path d="M103.331 205.721L95.4072 205.149L95.3115 206.114L103.236 206.661L103.331 205.721Z"
            fill="black" />
        <path
            d="M95.7452 201.748C95.734 201.738 95.8132 201.636 95.9788 201.469C96.1444 201.302 96.4038 201.074 96.7578 200.832C97.1124 200.592 97.5665 200.337 98.1192 200.153C98.6671 199.964 99.3233 199.856 100.004 199.925C101.371 200.052 102.456 200.78 102.955 201.453C103.217 201.787 103.368 202.091 103.449 202.306C103.529 202.522 103.554 202.647 103.54 202.65C103.494 202.669 103.355 202.17 102.821 201.55C102.307 200.93 101.275 200.27 99.978 200.147C98.6856 200.022 97.5549 200.532 96.855 200.962C96.14 201.403 95.7753 201.776 95.7452 201.748Z"
            fill="black" />
        <g opacity="0.3">
            <path
                d="M96.2819 196.341L96.1328 197.843L104.079 198.358L104.194 197.227L96.2819 196.341Z"
                fill="black" />
        </g>
        <path d="M136.482 192.076L137.435 205.74L129.517 206.365L128.532 192.676L136.482 192.076Z"
            fill="#3DB8DB" />
        <path
            d="M133.488 205.533C133.422 205.536 133.2 202.546 132.992 198.854C132.784 195.16 132.67 192.165 132.737 192.162C132.803 192.158 133.025 195.149 133.233 198.842C133.44 202.534 133.554 205.53 133.488 205.533Z"
            fill="black" />
        <path d="M137.369 204.798L129.448 205.399L129.518 206.365L137.435 205.74L137.369 204.798Z"
            fill="black" />
        <path
            d="M129.203 201.991C129.19 201.983 129.251 201.87 129.386 201.68C129.522 201.491 129.739 201.229 130.047 200.937C130.356 200.648 130.761 200.329 131.276 200.066C131.785 199.799 132.414 199.596 133.098 199.563C134.47 199.488 135.664 200.048 136.272 200.638C136.587 200.929 136.787 201.207 136.905 201.408C137.021 201.609 137.066 201.728 137.053 201.734C137.011 201.759 136.788 201.286 136.156 200.754C135.543 200.217 134.411 199.717 133.11 199.787C131.812 199.853 130.783 200.523 130.165 201.051C129.534 201.592 129.238 202.015 129.203 201.991Z"
            fill="black" />
        <g opacity="0.3">
            <path
                d="M128.812 196.573L128.921 198.078L136.855 197.418L136.775 196.284L128.812 196.573Z"
                fill="black" />
        </g>
        <path
            d="M114.057 71.2865L103.145 72.8004L102.634 64.1186C102.634 64.1186 101.846 64.087 101.148 60.3831C100.451 56.6788 99.1631 50.401 99.1631 50.401C103.628 47.8339 109.261 47.6253 113.885 49.8568L114.571 50.1879L114.057 71.2865Z"
            fill="#FFBE9D" />
        <path
            d="M114.07 54.9478C114.136 54.9099 116.78 53.7659 117.131 56.3172C117.483 58.8685 114.558 58.6878 114.543 58.6156C114.528 58.5429 114.07 54.9478 114.07 54.9478Z"
            fill="#FFBE9D" />
        <path
            d="M100.702 56.4168C100.627 56.4001 98.0011 56.1693 98.533 58.6935C99.0653 61.2177 101.779 60.1884 101.769 60.1148C101.758 60.0421 100.702 56.4168 100.702 56.4168Z"
            fill="#FFBE9D" />
        <path
            d="M114.937 54.5263C114.885 56.7163 115.163 57.821 115.02 59.3001C114.793 61.6409 113.849 63.5514 111.79 65.0133C109.73 66.4753 106.676 66.9142 104.473 65.6781C102.944 64.82 101.782 63.7654 101.305 62.1987C100.828 60.632 100.135 57.8355 99.8431 56.2303C99.3156 53.3367 98.6172 50.5993 98.6172 50.5993L107.576 47.7134L113.31 49.7245L114.937 54.5263Z"
            fill="black" />
        <path
            d="M107.35 66.9975C107.346 67.0585 108.099 67.1104 108.987 66.8823C109.877 66.6588 110.494 66.2591 110.456 66.2085C110.418 66.1489 109.77 66.4434 108.919 66.6561C108.07 66.8751 107.349 66.9284 107.35 66.9975Z"
            fill="black" />
        <path
            d="M115.122 58.2087C115.012 55.9889 114.754 53.4701 114.733 51.1157C114.725 50.2323 114.851 48.9379 114.614 48.0825C114.377 47.224 114.128 46.3433 113.564 45.6216C112.855 44.716 111.66 44.1375 110.424 44.1014C109.188 44.0657 107.939 44.5733 107.146 45.4355C106.319 44.6352 104.919 44.3647 103.786 44.7861C102.653 45.2074 101.861 46.2923 101.887 47.3906C101.133 46.9291 100.032 46.9873 99.3323 47.5257C98.632 48.064 98.3949 49.0346 98.7825 49.7771C98.138 49.9754 97.6169 50.4785 97.442 51.0701C97.2677 51.6622 97.4449 52.3252 97.8986 52.7751C98.4285 53.3012 99.2556 53.5103 99.8243 54.0026C100.48 54.5694 100.702 55.5047 100.365 56.2721"
            fill="black" />
        <path
            d="M100.946 52.2624C100.938 52.2669 100.976 52.3509 101.09 52.4851C101.205 52.6169 101.403 52.7999 101.72 52.9453C102.032 53.0894 102.479 53.1946 102.979 53.1056C103.471 53.0207 104.008 52.7452 104.348 52.2611L104.145 52.243C104.338 52.7764 104.915 53.2018 105.599 53.3269C106.286 53.48 107.091 53.2578 107.637 52.7791C108.146 52.3487 108.449 51.7801 108.567 51.2268L108.347 51.2833C108.967 51.8903 109.872 52.0958 110.614 51.9964C111.376 51.902 111.942 51.4865 112.259 51.0877C112.584 50.6817 112.693 50.2851 112.725 50.0214C112.755 49.7536 112.72 49.6099 112.709 49.6108C112.689 49.6113 112.694 49.7558 112.639 50.0101C112.583 50.2612 112.453 50.6311 112.13 51.0005C111.813 51.365 111.282 51.7286 110.588 51.8004C109.908 51.879 109.084 51.6753 108.538 51.1297L108.368 50.9603L108.318 51.1862C108.206 51.6947 107.921 52.219 107.46 52.6079C106.959 53.0406 106.267 53.2339 105.654 53.1043C105.04 52.9968 104.534 52.6273 104.359 52.1743L104.281 51.9702L104.156 52.1558C103.866 52.588 103.387 52.8522 102.943 52.9417C102.493 53.0356 102.08 52.9566 101.778 52.8364C101.164 52.5844 100.975 52.2358 100.946 52.2624Z"
            fill="black" />
        <path
            d="M100.789 51.2539C100.836 51.2561 100.708 50.8411 101.022 50.2707C101.179 49.9952 101.462 49.6971 101.889 49.5395C102.308 49.3796 102.86 49.357 103.337 49.5688L103.586 49.6795L103.52 49.4347C103.456 49.2016 103.445 48.9465 103.487 48.6913C103.589 48.1191 103.953 47.6155 104.415 47.3359C104.876 47.0478 105.41 46.9773 105.832 47.0062C106.704 47.0758 107.111 47.4755 107.136 47.4326C107.146 47.424 107.063 47.3206 106.858 47.1851C106.652 47.0541 106.313 46.8956 105.853 46.8414C105.4 46.7886 104.811 46.8432 104.282 47.1571C103.754 47.4629 103.343 48.0188 103.229 48.6583C103.181 48.9438 103.195 49.2319 103.271 49.4957L103.453 49.362C102.893 49.1204 102.269 49.161 101.801 49.3543C101.321 49.5476 101.019 49.899 100.87 50.2074C100.717 50.5204 100.699 50.7986 100.715 50.9802C100.732 51.1631 100.776 51.2566 100.789 51.2539Z"
            fill="black" />
        <path
            d="M106.681 50.4427C106.714 50.4233 106.648 50.2991 106.628 50.0927C106.605 49.8859 106.645 49.6 106.786 49.2996C106.924 49.0092 107.098 48.7085 107.201 48.5468C107.32 48.3946 107.469 48.4659 107.486 48.4501C107.5 48.4438 107.491 48.3914 107.408 48.3571C107.332 48.3214 107.175 48.3359 107.065 48.4348C106.956 48.5328 106.889 48.6461 106.797 48.7721C106.71 48.8999 106.618 49.0467 106.543 49.2129C106.386 49.5435 106.367 49.8963 106.446 50.1257C106.522 50.3596 106.656 50.4608 106.681 50.4427Z"
            fill="black" />
        <path
            d="M111.595 46.4288C111.622 46.4148 111.561 46.231 111.342 45.9916C111.23 45.8756 111.074 45.7437 110.852 45.6574C110.634 45.568 110.344 45.5463 110.077 45.6231C109.534 45.7784 109.231 46.1669 109.067 46.4216C108.902 46.6871 108.836 46.8624 108.865 46.8777C108.897 46.8953 109.023 46.745 109.22 46.5133C109.417 46.287 109.711 45.9708 110.151 45.848C110.589 45.717 110.983 45.923 111.209 46.109C111.441 46.2974 111.561 46.4482 111.595 46.4288Z"
            fill="black" />
        <path
            d="M112.032 57.4066C112.092 57.4323 112.524 56.6695 112.724 55.6411C112.93 54.6137 112.816 53.7687 112.749 53.7754C112.672 53.7786 112.667 54.6055 112.467 55.6023C112.273 56.6 111.96 57.3808 112.032 57.4066Z"
            fill="black" />
        <path
            d="M110.902 58.2015C110.969 58.2196 111.22 57.6645 111.385 56.9455C111.553 56.2265 111.57 55.6299 111.5 55.6236C111.427 55.6168 111.294 56.1931 111.129 56.8999C110.966 57.6067 110.832 58.1826 110.902 58.2015Z"
            fill="black" />
        <path
            d="M103.163 59.5436C103.099 59.54 103.154 60.6122 103.87 61.7259C104.574 62.846 105.571 63.4281 105.599 63.3762C105.654 63.3211 104.77 62.6807 104.097 61.6076C103.411 60.5426 103.244 59.5287 103.163 59.5436Z"
            fill="black" />
        <path
            d="M101.603 57.8792C101.541 57.8611 101.34 58.8208 101.772 59.9151C102.192 61.0144 103.012 61.6435 103.047 61.5943C103.109 61.5469 102.415 60.8771 102.019 59.8352C101.607 58.7996 101.684 57.8805 101.603 57.8792Z"
            fill="black" />
        <path d="M102.669 71.0425L102.765 68.8651L114.171 66.625L114.574 68.4175L102.669 71.0425Z"
            fill="white" />
        <path
            d="M66.965 97.3789C66.965 97.3789 66.4016 97.6481 66.7945 98.0315C67.1875 98.4149 72.3747 102.698 73.0755 103.118C73.7759 103.538 75.875 104.045 75.875 104.045L77.2457 103.808L78.048 100.736L79.0155 99.2581L78.7688 98.9185L79.68 95.6342C79.68 95.6342 78.8893 95.3361 78.5274 95.8654C78.0174 96.612 77.3127 97.8188 77.3127 97.8188C77.3127 97.8188 75.8862 98.0207 75.367 97.4453C74.8478 96.8694 71.8244 92.125 71.4586 92.0423C71.0929 91.9597 70.5373 92.0636 70.8331 92.8183C71.1293 93.5729 73.0629 96.2633 72.9891 96.4106C72.9152 96.5578 72.6219 96.7601 72.48 96.6296C72.3382 96.4991 69.2531 92.7112 68.7645 92.6462C68.2438 92.5771 67.8703 92.9682 68.3487 93.6989C68.8272 94.4292 71.3377 97.0925 71.2226 97.2633C71.1075 97.434 70.7738 97.2276 70.7738 97.2276C70.7738 97.2276 67.9029 94.4405 67.5002 94.4902C67.0529 94.5453 66.983 94.964 67.2098 95.3099C67.4366 95.6559 70.3454 98.2709 70.3964 98.4791C70.4299 98.615 70.3066 99.1534 70.073 98.9695C69.8393 98.7857 67.1928 97.2018 66.965 97.3789Z"
            fill="#FFBE9D" />
        <path
            d="M96.288 125.118L95.6843 161.555L94.3535 199.379L105.395 200.121L109.12 161.555L113.36 134.19L114.293 134.137L122.634 162.626L127.832 199.187C128.478 199.037 138.255 198.319 138.255 198.319L131.473 124.291L130.342 118.134L101.276 118.734L96.288 125.118Z"
            fill="black" />
        <path
            d="M128.966 105.495L128.126 84.42L126.727 69.8669H117.198L114.764 67.6606L102.541 69.8669L101.409 73.0414C101.409 73.0414 91.5923 75.9477 91.0479 76.8338C91.0479 76.8338 94.4909 89.4702 96.1127 96.5514C97.2254 101.41 98.3969 106.39 98.3969 106.39L95.2962 129.702C95.1728 129.702 114.18 128.925 114.18 128.925L132.542 127.078L128.966 105.495Z"
            fill="#3DB8DB" />
        <path
            d="M138.892 63.2409C138.892 63.2409 136.095 63.4446 135.929 63.4446C135.763 63.4446 132.884 63.6908 132.884 63.6908C132.884 63.6908 133.016 63.0445 133.678 62.7672C134.34 62.4903 135.603 62.0613 135.735 61.8458C135.868 61.6304 136.161 61.3206 135.897 60.9818C135.632 60.6431 130.807 56.0897 130.642 55.8436C130.476 55.5974 130.211 55.1354 130.642 55.0433C131.072 54.9511 131.602 55.382 131.966 55.6589C132.33 55.9357 134.208 57.4117 134.407 57.3191C134.606 57.2265 134.44 57.0729 134.44 57.0729C134.44 57.0729 131.249 54.0199 131.216 53.9273C131.183 53.8352 130.807 52.935 131.716 53.0827C132.151 53.1536 135.466 56.3033 135.599 56.1805C135.731 56.0572 132.818 52.5791 133.083 52.3023C133.348 52.0254 133.646 51.7481 134.175 52.3023C134.705 52.8565 136.986 55.6882 137.153 55.7189C137.32 55.7496 137.519 55.5956 137.452 55.3802C137.386 55.1648 136.031 52.9703 136.031 52.7237C136.031 52.4775 136.297 52.4166 136.561 52.3859C136.826 52.3551 139.669 56.1805 139.669 56.1805C139.669 56.1805 141.864 59.4639 142.086 59.8433C142.343 60.2836 142.715 61.5053 142.715 61.5053L138.892 63.2409Z"
            fill="#FFBE9D" />
        <path
            d="M138.194 63.4103L140.1 70.2467L135.743 71.766L126.349 69.8669V82.78L127.677 86.138C127.677 86.138 147.336 77.3157 148.642 76.3442C151.083 74.5287 147.208 68.2767 147.208 68.2767L143.639 61.1309L138.194 63.4103Z"
            fill="#3DB8DB" />
        <path
            d="M91.0478 76.8345L88.8491 80.9281L83.2932 98.032L77.0841 99.5721L75.917 104.849C75.917 104.849 85.6265 106.966 87.4274 106.239C90.4858 105.004 95.5895 93.228 95.5895 93.228L94.8988 83.1605L91.0478 76.8345Z"
            fill="#3DB8DB" />
        <path
            d="M146.266 73.0419C146.21 73.0988 145.116 71.995 143.369 71.1834C141.632 70.3537 140.028 70.1862 140.044 70.1108C140.047 70.0832 140.45 70.0877 141.089 70.2015C141.726 70.314 142.595 70.5561 143.484 70.9734C144.371 71.3925 145.095 71.901 145.569 72.3125C146.045 72.7239 146.288 73.0234 146.266 73.0419Z"
            fill="black" />
        <path
            d="M144.413 70.2094C144.391 70.2803 143.355 69.9538 142.042 70.0391C140.729 70.1087 139.745 70.5544 139.714 70.4867C139.674 70.4424 140.65 69.8793 142.026 69.8043C143.402 69.7171 144.446 70.1606 144.413 70.2094Z"
            fill="black" />
        <path
            d="M117.197 69.8671C117.207 69.8811 117.016 70.0026 116.664 70.2117C116.489 70.3196 116.269 70.4416 116.007 70.5712C115.746 70.7044 115.451 70.8593 115.11 71.0043C114.442 71.3191 113.613 71.6275 112.682 71.9414C111.745 72.2386 110.698 72.5213 109.584 72.7553C107.351 73.2132 105.285 73.3944 103.792 73.444C103.045 73.4702 102.441 73.472 102.023 73.4567C101.605 73.4436 101.375 73.4287 101.375 73.4124C101.375 73.3962 101.606 73.3804 102.022 73.365C102.439 73.3523 103.041 73.3252 103.783 73.2778C105.266 73.1857 107.314 72.9798 109.529 72.5254C110.635 72.2937 111.674 72.0196 112.607 71.7359C113.533 71.4361 114.362 71.1461 115.035 70.853C115.377 70.7184 115.676 70.5757 115.94 70.4542C116.208 70.3368 116.433 70.227 116.614 70.1317C116.981 69.9484 117.188 69.8531 117.197 69.8671Z"
            fill="black" />
        <path
            d="M120.078 106.41C120.081 106.426 119.832 106.485 119.377 106.577C118.923 106.672 118.259 106.779 117.433 106.882C115.784 107.091 113.474 107.221 110.934 107.045C108.395 106.863 106.132 106.41 104.535 105.972C103.736 105.754 103.096 105.555 102.663 105.397C102.228 105.243 101.991 105.149 101.997 105.135C102.003 105.119 102.252 105.183 102.695 105.31C103.136 105.442 103.781 105.616 104.582 105.812C106.183 106.206 108.433 106.629 110.953 106.81C113.473 106.985 115.766 106.882 117.412 106.717C118.235 106.636 118.901 106.555 119.359 106.486C119.819 106.423 120.075 106.395 120.078 106.41Z"
            fill="black" />
        <path
            d="M82.9479 99.5983C82.8809 99.5802 83.5628 97.2186 84.4706 94.3241C85.3788 91.4286 86.169 89.0973 86.236 89.1153C86.3031 89.1334 85.6216 91.4946 84.7134 94.39C83.8052 97.2841 83.0149 99.6163 82.9479 99.5983Z"
            fill="black" />
        <path
            d="M112.753 113.241C112.823 113.239 112.95 115.867 113.037 119.11C113.124 122.354 113.138 124.985 113.068 124.986C112.999 124.988 112.871 122.36 112.784 119.116C112.697 115.873 112.684 113.242 112.753 113.241Z"
            fill="black" />
        <path
            d="M119.717 133.22C119.73 133.284 117.26 133.758 114.202 134.279C111.142 134.8 108.653 135.171 108.641 135.107C108.628 135.043 111.097 134.569 114.157 134.047C117.214 133.527 119.704 133.156 119.717 133.22Z"
            fill="black" />
        <path
            d="M130.925 160.862C130.924 160.937 129.468 160.845 127.748 161.244C126.025 161.627 124.777 162.332 124.739 162.266C124.722 162.242 125.012 162.034 125.533 161.774C126.052 161.514 126.81 161.216 127.689 161.016C128.567 160.817 129.387 160.756 129.977 160.765C130.567 160.773 130.928 160.833 130.925 160.862Z"
            fill="black" />
        <path
            d="M104.338 162.633C104.322 162.702 103.422 162.53 102.307 162.579C101.191 162.62 100.312 162.864 100.289 162.797C100.262 162.743 101.137 162.388 102.297 162.344C103.455 162.294 104.36 162.577 104.338 162.633Z"
            fill="black" />
        <path
            d="M98.3958 106.39C98.3871 106.392 98.3599 106.312 98.3162 106.159C98.2681 105.98 98.2083 105.758 98.1355 105.488C97.9806 104.869 97.7707 104.03 97.5153 103.009C97.0019 100.881 96.3059 98 95.5375 94.816C94.7726 91.6301 94.0809 88.7482 93.57 86.6201C93.3237 85.5967 93.1222 84.7567 92.9731 84.1366C92.9109 83.8642 92.8594 83.6402 92.8181 83.4596C92.7856 83.3042 92.7725 83.2216 92.7807 83.2198C92.789 83.218 92.8186 83.2965 92.8677 83.4483C92.9216 83.6262 92.9876 83.8466 93.0687 84.1149C93.2387 84.6953 93.469 85.5385 93.7443 86.5822C94.2951 88.6701 95.0173 91.5628 95.7847 94.7649C96.5521 97.9657 97.2204 100.869 97.6906 102.973C97.914 104.002 98.0971 104.846 98.2321 105.469C98.2861 105.743 98.3303 105.968 98.3662 106.15C98.3939 106.306 98.4041 106.388 98.3958 106.39Z"
            fill="black" />
        <path
            d="M127.654 77.1685C127.659 77.168 127.666 77.2118 127.676 77.2972C127.686 77.3956 127.698 77.5207 127.715 77.6761C127.746 78.0094 127.788 78.5012 127.831 79.1349C127.924 80.4022 128.032 82.2376 128.155 84.5053C128.398 89.0415 128.683 95.3098 128.963 102.234C129.007 103.349 129.05 104.448 129.091 105.491L129.09 105.477C130.082 111.569 130.96 116.96 131.594 120.848C131.896 122.773 132.14 124.325 132.312 125.414C132.389 125.938 132.45 126.349 132.494 126.647C132.511 126.778 132.524 126.883 132.535 126.968C132.543 127.04 132.545 127.077 132.541 127.078C132.537 127.078 132.527 127.042 132.512 126.971C132.495 126.888 132.474 126.783 132.448 126.654C132.393 126.358 132.318 125.948 132.222 125.427C132.033 124.341 131.763 122.792 131.429 120.872C130.775 116.987 129.868 111.599 128.843 105.513L128.842 105.506L128.841 105.499C128.8 104.456 128.755 103.357 128.711 102.242C128.134 88.5723 127.708 78.4493 127.654 77.1685Z"
            fill="black" />
        <g opacity="0.3">
            <path
                d="M115.936 70.6646C111.342 72.3862 106.802 73.4489 101.873 73.452C102.503 74.0898 103.478 74.4217 104.444 74.5044C105.411 74.587 106.381 74.4452 107.328 74.2754C109.727 73.8454 112.078 73.2312 114.344 72.4426C115.127 72.1708 116.043 71.3858 115.936 70.6646Z"
                fill="black" />
        </g>
        <g opacity="0.3">
            <path
                d="M93.0547 83.9551C93.13 85.6004 92.9342 87.5777 93.3048 89.1877C93.6749 90.7974 94.3573 92.3754 95.5162 93.612C94.6594 90.5119 93.9357 87.1156 93.0547 83.9551Z"
                fill="black" />
        </g>
        <g opacity="0.3">
            <path
                d="M107.305 108.754L107.154 108.732C108.641 110.303 111.109 110.467 113.359 110.481C115.609 110.496 118.054 110.361 119.564 108.809C115.53 109.564 111.331 109.545 107.305 108.754Z"
                fill="black" />
        </g>
        <path
            d="M94.1677 64.5667L88.8169 63.453C87.3073 65.0446 85.3208 66.2803 82.9774 66.9446C76.2384 68.855 69.1103 65.3237 67.0559 59.0577C65.0014 52.7912 68.799 46.163 75.538 44.2526C82.277 42.3422 89.405 45.8735 91.4595 52.14C92.3172 54.7563 92.1516 57.435 91.1807 59.8083L91.1851 59.8029L94.1677 64.5667Z"
            fill="white" />
        <path
            d="M94.1678 64.5668C93.9978 64.29 93.0866 62.8068 91.2269 59.7795C91.2138 59.7582 91.1847 59.7506 91.1614 59.7628C91.1555 59.7659 91.1497 59.7709 91.1458 59.7759L91.1414 59.7813L91.2255 59.8233C91.8865 58.2335 92.3343 56.0873 91.9132 53.6724C91.8034 53.0731 91.6573 52.4557 91.4222 51.8456C91.3022 51.5416 91.191 51.2286 91.0579 50.9188C90.903 50.6176 90.7466 50.3123 90.5873 50.0029C89.8927 48.7934 88.9364 47.6268 87.7159 46.6314C86.4982 45.636 85.0178 44.8145 83.3582 44.2897C81.7015 43.7658 79.8637 43.5332 78.0069 43.7066C76.1534 43.8828 74.2874 44.4405 72.6132 45.3818C70.9463 46.3243 69.4436 47.6282 68.3848 49.2428C67.2997 50.8804 66.6047 52.7217 66.458 54.5757C66.2944 56.4265 66.6037 58.2633 67.2871 59.9091C67.9695 61.5557 69.0172 63.0191 70.3072 64.1635C71.5918 65.3143 73.0829 66.1688 74.6162 66.7198C76.151 67.2735 77.7256 67.5232 79.2143 67.5323C80.7088 67.5368 82.0978 67.2581 83.35 66.8977C85.8532 66.1146 87.6687 64.7393 88.8514 63.4815L88.8067 63.4951C92.2075 64.1748 93.8477 64.5027 94.1678 64.5668C93.8487 64.4977 92.2148 64.1441 88.8271 63.4111C88.8101 63.4075 88.7931 63.4133 88.7819 63.4246C87.5964 64.6639 85.7891 66.0157 83.3077 66.7798C82.0663 67.1308 80.6918 67.4008 79.2153 67.3918C77.7441 67.3782 76.1904 67.1267 74.6769 66.5761C73.165 66.0288 71.6958 65.1824 70.4315 64.0452C69.1619 62.9143 68.1322 61.4704 67.4615 59.8468C66.7903 58.2236 66.4877 56.4139 66.6499 54.5911C66.7946 52.7651 67.4804 50.9522 68.5494 49.3385C69.5922 47.7479 71.0721 46.4634 72.7128 45.5344C74.3612 44.6063 76.1996 44.0548 78.0258 43.8792C79.8554 43.7062 81.667 43.9329 83.3019 44.4464C84.9396 44.9608 86.4021 45.7684 87.6066 46.748C88.8145 47.7271 89.7626 48.8765 90.4532 50.0693C90.6116 50.3746 90.7675 50.6758 90.9214 50.973C91.0535 51.2788 91.1648 51.5877 91.2852 51.888C91.5208 52.4905 91.6679 53.1007 91.7792 53.6932C92.2075 56.0806 91.7782 58.2091 91.1356 59.7917C91.1259 59.8147 91.1385 59.8409 91.1633 59.8495C91.1842 59.8571 91.2075 59.8499 91.2201 59.8337L91.224 59.8282L91.1434 59.8246C93.056 62.8235 93.9934 64.2927 94.1678 64.5668Z"
            fill="black" />
        <path
            d="M72.208 55.8406L74.041 54.1366L77.5759 57.0583L84.5145 50.8496L86.2164 52.5536L77.3141 60.3453L72.208 55.8406Z"
            fill="#3DB8DB" />
    </g>
    <defs>
        <clipPath id="clip0_622_17218">
            <rect width="229" height="207" fill="white" />
        </clipPath>
    </defs>
</svg>