<svg width="229" height="157" viewBox="0 0 229 157" fill="none" xmlns="http://www.w3.org/2000/svg">
<g clip-path="url(#clip0_622_17889)">
<path d="M198.372 -0.373047H191.577V26.7774H198.372V-0.373047Z" fill="#E0E0E0"/>
<path d="M208.364 5.54932H201.569V26.7772H208.364V5.54932Z" fill="#E0E0E0"/>
<path d="M218.509 10.3984H211.715V26.7776H218.509V10.3984Z" fill="#E0E0E0"/>
<path d="M227.901 17.0508H221.106V26.7775H227.901V17.0508Z" fill="#E0E0E0"/>
<path d="M67.5611 -0.0913086H2.76172V40.0273H67.5611V-0.0913086Z" fill="white"/>
<path d="M51.9169 28.9155C47.4236 27.211 42.2554 31.9241 37.8507 30.002C35.2877 28.8837 34.1255 25.9838 32.8694 23.4842C31.6136 20.985 29.4499 18.3487 26.6686 18.6387C23.8633 18.9312 21.5951 22.1804 18.8851 21.3972C17.1773 20.9037 16.3245 19.0089 15.8962 17.2829C15.4678 15.557 15.1712 13.6494 13.8688 12.4388C12.5664 11.2282 9.85326 11.5522 9.64844 13.3188V34.5869H60.3227C60.3227 34.5869 53.4718 29.5054 51.9169 28.9155Z" fill="#EBEBEB"/>
<path d="M61.676 34.5872C61.676 34.6328 49.3935 34.6698 34.2457 34.6698C19.0925 34.6698 6.8125 34.6328 6.8125 34.5872C6.8125 34.5416 19.0925 34.5049 34.2457 34.5049C49.3935 34.5049 61.676 34.5416 61.676 34.5872Z" fill="#E0E0E0"/>
<path d="M61.676 25.2976C61.676 25.3432 49.3935 25.3799 34.2457 25.3799C19.0925 25.3799 6.8125 25.3432 6.8125 25.2976C6.8125 25.2521 19.0925 25.2153 34.2457 25.2153C49.3935 25.215 61.676 25.2521 61.676 25.2976Z" fill="#E0E0E0"/>
<path d="M61.676 16.0086C61.676 16.0541 49.3935 16.0909 34.2457 16.0909C19.0925 16.0909 6.8125 16.0541 6.8125 16.0086C6.8125 15.963 19.0925 15.9263 34.2457 15.9263C49.3935 15.9259 61.676 15.963 61.676 16.0086Z" fill="#E0E0E0"/>
<path d="M61.676 7.17947C61.676 7.22504 49.3935 7.26178 34.2457 7.26178C19.0925 7.26178 6.8125 7.22504 6.8125 7.17947C6.8125 7.13391 19.0925 7.09717 34.2457 7.09717C49.3935 7.09717 61.676 7.13426 61.676 7.17947Z" fill="#E0E0E0"/>
<path d="M193.634 15.0342H41.749C39.1305 15.0342 37.0078 17.1572 37.0078 19.7766V127.09C37.0078 129.71 39.1302 131.833 41.749 131.833H100.042C100.042 131.833 103.75 146.182 92.2556 152.117H146.763C146.763 152.117 133.785 144.787 137.121 131.833H193.634C196.253 131.833 198.375 129.71 198.375 127.091V19.7766C198.375 17.1572 196.252 15.0342 193.634 15.0342Z" fill="black"/>
<path d="M119.719 120.547C121.786 123.501 118.552 126.735 115.598 124.669C115.501 124.6 115.413 124.512 115.344 124.414C113.284 121.461 116.514 118.23 119.465 120.292C119.563 120.361 119.651 120.449 119.719 120.547Z" fill="black"/>
<path d="M196.299 17.0068H39.6221V112.201H196.299V17.0068Z" fill="white"/>
<path d="M177.965 90.3057H173.365V96.6419H177.965V90.3057Z" fill="#3DB8DB"/>
<g opacity="0.79">
<path d="M177.965 90.3057H173.365V96.6419H177.965V90.3057Z" fill="white"/>
</g>
<path d="M168.249 86.5742H163.649V96.6422H168.249V86.5742Z" fill="#3DB8DB"/>
<g opacity="0.79">
<path d="M168.249 86.5742H163.649V96.6422H168.249V86.5742Z" fill="white"/>
</g>
<path d="M157.769 83.5435H153.169V96.4756H157.769V83.5435Z" fill="#3DB8DB"/>
<g opacity="0.79">
<path d="M157.769 83.5435H153.169V96.4756H157.769V83.5435Z" fill="white"/>
</g>
<path d="M60.5733 87.7368H55.9736V96.4762H60.5733V87.7368Z" fill="#3DB8DB"/>
<g opacity="0.79">
<path d="M60.5733 87.7368H55.9736V96.4762H60.5733V87.7368Z" fill="white"/>
</g>
<path d="M70.5606 91.3115H65.9609V96.476H70.5606V91.3115Z" fill="#3DB8DB"/>
<g opacity="0.79">
<path d="M70.5606 91.3115H65.9609V96.476H70.5606V91.3115Z" fill="white"/>
</g>
<path d="M79.8399 84.7896H75.2402V96.6422H79.8399V84.7896Z" fill="#3DB8DB"/>
<g opacity="0.79">
<path d="M79.8399 84.7896H75.2402V96.6422H79.8399V84.7896Z" fill="white"/>
</g>
<path d="M89.5557 90.3057H84.9561V96.4755H89.5557V90.3057Z" fill="#3DB8DB"/>
<g opacity="0.79">
<path d="M89.5557 90.3057H84.9561V96.4755H89.5557V90.3057Z" fill="white"/>
</g>
<path d="M99.1074 84.7896H94.5078V96.4754H99.1074V84.7896Z" fill="#3DB8DB"/>
<path d="M108.567 69.8457H103.968V96.4755H108.567V69.8457Z" fill="#3DB8DB"/>
<path d="M118.43 58.9175H113.83V96.4757H118.43V58.9175Z" fill="#3DB8DB"/>
<path d="M128.248 74.3262H123.648V96.476H128.248V74.3262Z" fill="#3DB8DB"/>
<g opacity="0.79">
<path d="M108.567 69.8457H103.968V96.4755H108.567V69.8457Z" fill="white"/>
</g>
<g opacity="0.79">
<path d="M128.248 74.3262H123.648V96.476H128.248V74.3262Z" fill="white"/>
</g>
<path d="M147.497 70.6772H142.897V96.4754H147.497V70.6772Z" fill="black"/>
<path d="M138.05 62.8286H133.45V96.4757H138.05V62.8286Z" fill="#3DB8DB"/>
<path d="M52.8562 54.3566H52.1396V54.0171H53.9735V54.3566H53.2573V56.179H52.8558L52.8562 54.3566Z" fill="black"/>
<path d="M53.9346 55.3544C53.9346 54.8602 54.305 54.5112 54.8114 54.5112C55.3238 54.5112 55.6914 54.8602 55.6914 55.3544C55.6914 55.8486 55.3238 56.2005 54.8114 56.2005C54.3054 56.2005 53.9346 55.8486 53.9346 55.3544ZM55.3026 55.3544C55.3026 55.0393 55.0925 54.8387 54.8118 54.8387C54.5338 54.8387 54.3241 55.0393 54.3241 55.3544C54.3241 55.6695 54.5338 55.8702 54.8118 55.8702C55.0925 55.8702 55.3026 55.6692 55.3026 55.3544Z" fill="black"/>
<path d="M57.6776 53.8872V56.1787H57.3072V55.9657C57.1772 56.1233 56.9858 56.2003 56.7605 56.2003C56.282 56.2003 55.9268 55.8668 55.9268 55.3543C55.9268 54.8417 56.282 54.511 56.7605 54.511C56.9738 54.511 57.162 54.5821 57.2916 54.7332V53.8872H57.6776ZM57.298 55.3543C57.298 55.0392 57.0847 54.8385 56.8071 54.8385C56.5292 54.8385 56.3163 55.0392 56.3163 55.3543C56.3163 55.6694 56.5292 55.87 56.8071 55.87C57.085 55.87 57.298 55.669 57.298 55.3543Z" fill="black"/>
<path d="M59.565 55.2124V56.1793H59.2006V55.9786C59.1081 56.1206 58.929 56.2008 58.6818 56.2008C58.3054 56.2008 58.0674 55.9942 58.0674 55.7066C58.0674 55.4318 58.2524 55.2156 58.7528 55.2156H59.1787V55.1909C59.1787 54.9655 59.0428 54.8327 58.768 54.8327C58.5826 54.8327 58.3912 54.8945 58.268 54.9962L58.1165 54.7151C58.2927 54.5794 58.5487 54.5112 58.8143 54.5112C59.2903 54.5112 59.565 54.7366 59.565 55.2124ZM59.1791 55.6632V55.4717H58.7807C58.5183 55.4717 58.4474 55.5706 58.4474 55.6911C58.4474 55.8303 58.565 55.9196 58.7624 55.9196C58.9506 55.9196 59.1141 55.8331 59.1791 55.6632Z" fill="black"/>
<path d="M61.573 54.5293L60.8011 56.3114C60.6496 56.6852 60.4398 56.7993 60.1651 56.7993C60.0016 56.7993 59.8285 56.7438 59.7236 56.6481L59.878 56.3637C59.9521 56.4347 60.057 56.4782 60.1619 56.4782C60.2978 56.4782 60.378 56.4132 60.4522 56.2496L60.4801 56.1846L59.7604 54.5293H60.1619L60.6806 55.7494L61.2026 54.5293H61.573Z" fill="black"/>
<path d="M52.5135 103.922V105.024H52.4002V104.023H52.1406V103.922H52.5135Z" fill="#E0E0E0"/>
<path d="M58.4654 104.924V105.024H57.6927V104.944L58.1504 104.495C58.2747 104.372 58.2984 104.299 58.2984 104.223C58.2984 104.096 58.2087 104.017 58.0402 104.017C57.911 104.017 57.8121 104.056 57.7397 104.14L57.6592 104.071C57.7443 103.97 57.8809 103.914 58.0494 103.914C58.2729 103.914 58.4145 104.027 58.4145 104.211C58.4145 104.317 58.3817 104.411 58.2337 104.556L57.8591 104.924H58.4654V104.924Z" fill="#E0E0E0"/>
<path d="M64.1114 104.708C64.1114 104.892 63.9779 105.034 63.712 105.034C63.5531 105.034 63.4005 104.979 63.3154 104.893L63.3705 104.803C63.4411 104.877 63.5686 104.93 63.712 104.93C63.8946 104.93 63.9952 104.845 63.9952 104.708C63.9952 104.576 63.9023 104.489 63.6979 104.489H63.6191V104.406L63.9246 104.024H63.3613V103.923H64.0694V104.003L63.7579 104.395C63.9935 104.407 64.1114 104.532 64.1114 104.708Z" fill="#E0E0E0"/>
<path d="M69.8639 104.735H69.6633V105.024H69.5602V104.735H68.9941V104.653L69.5256 103.922H69.6404L69.1273 104.634H69.563V104.379H69.6633V104.634H69.8639V104.735Z" fill="#E0E0E0"/>
<path d="M75.4625 104.7C75.4625 104.887 75.3319 105.033 75.0628 105.033C74.9039 105.033 74.7531 104.979 74.668 104.892L74.7231 104.802C74.794 104.876 74.9198 104.929 75.0614 104.929C75.2485 104.929 75.3478 104.838 75.3478 104.704C75.3478 104.563 75.2598 104.475 74.9798 104.475H74.7453L74.8018 103.922H75.4043V104.023H74.9007L74.8629 104.374H75.0045C75.3365 104.374 75.4625 104.505 75.4625 104.7Z" fill="#E0E0E0"/>
<path d="M81.1754 104.695C81.1754 104.901 81.0133 105.034 80.7993 105.034C80.5066 105.034 80.3477 104.831 80.3477 104.483C80.3477 104.108 80.5525 103.913 80.8512 103.913C80.9505 103.913 81.0433 103.93 81.1125 103.973L81.067 104.064C81.0101 104.026 80.9346 104.012 80.853 104.012C80.6153 104.012 80.4628 104.165 80.4628 104.464C80.4628 104.489 80.4642 104.521 80.4674 104.554C80.5225 104.433 80.6517 104.365 80.8043 104.365C81.0229 104.365 81.1754 104.493 81.1754 104.695ZM81.0638 104.698C81.0638 104.554 80.9568 104.461 80.787 104.461C80.6185 104.461 80.5037 104.564 80.5037 104.702C80.5037 104.823 80.6044 104.938 80.7947 104.938C80.9536 104.938 81.0638 104.845 81.0638 104.698Z" fill="#E0E0E0"/>
<path d="M86.8077 103.922V104.002L86.3469 105.024H86.224L86.6771 104.023H86.1106V104.229H85.999V103.922H86.8077Z" fill="#E0E0E0"/>
<path d="M52.5135 60.7124V61.8142H52.4002V60.8131H52.1406V60.7124H52.5135Z" fill="black"/>
<path d="M52.7764 61.2629C52.7764 60.9118 52.9604 60.7026 53.2153 60.7026C53.4703 60.7026 53.656 60.9118 53.656 61.2629C53.656 61.614 53.4706 61.8235 53.2153 61.8235C52.9604 61.8231 52.7764 61.6137 52.7764 61.2629ZM53.5395 61.2629C53.5395 60.9686 53.4074 60.8065 53.2153 60.8065C53.0236 60.8065 52.8915 60.9686 52.8915 61.2629C52.8915 61.5575 53.0236 61.7196 53.2153 61.7196C53.4074 61.7193 53.5395 61.5571 53.5395 61.2629Z" fill="black"/>
<path d="M53.8018 61.7345C53.8018 61.686 53.8394 61.6499 53.8847 61.6499C53.9301 61.6499 53.9695 61.686 53.9695 61.7345C53.9695 61.7829 53.9304 61.8205 53.8847 61.8205C53.8394 61.8205 53.8018 61.7829 53.8018 61.7345Z" fill="black"/>
<path d="M54.1172 61.2629C54.1172 60.9118 54.3012 60.7026 54.5561 60.7026C54.8111 60.7026 54.9969 60.9118 54.9969 61.2629C54.9969 61.614 54.8115 61.8235 54.5561 61.8235C54.3012 61.8231 54.1172 61.6137 54.1172 61.2629ZM54.88 61.2629C54.88 60.9686 54.7479 60.8065 54.5558 60.8065C54.3637 60.8065 54.232 60.9686 54.232 61.2629C54.232 61.5575 54.364 61.7196 54.5558 61.7196C54.7479 61.7193 54.88 61.5571 54.88 61.2629Z" fill="black"/>
<path d="M55.1582 61.2629C55.1582 60.9118 55.3422 60.7026 55.5972 60.7026C55.8521 60.7026 56.0379 60.9118 56.0379 61.2629C56.0379 61.614 55.8525 61.8235 55.5972 61.8235C55.3422 61.8231 55.1582 61.6137 55.1582 61.2629ZM55.9213 61.2629C55.9213 60.9686 55.7893 60.8065 55.5972 60.8065C55.4054 60.8065 55.273 60.9686 55.273 61.2629C55.273 61.5575 55.4051 61.7196 55.5972 61.7196C55.7893 61.7193 55.9213 61.5571 55.9213 61.2629Z" fill="black"/>
<path d="M56.2002 61.2629C56.2002 60.9118 56.3842 60.7026 56.6391 60.7026C56.8941 60.7026 57.0799 60.9118 57.0799 61.2629C57.0799 61.614 56.8945 61.8235 56.6391 61.8235C56.3845 61.8231 56.2002 61.6137 56.2002 61.2629ZM56.9633 61.2629C56.9633 60.9686 56.8313 60.8065 56.6391 60.8065C56.4474 60.8065 56.3153 60.9686 56.3153 61.2629C56.3153 61.5575 56.4474 61.7196 56.6391 61.7196C56.8313 61.7193 56.9633 61.5571 56.9633 61.2629Z" fill="black"/>
<path d="M92.5052 104.717C92.5052 104.912 92.3399 105.033 92.0772 105.033C91.8127 105.033 91.6523 104.912 91.6523 104.717C91.6523 104.585 91.7279 104.492 91.8649 104.446C91.7533 104.402 91.6919 104.319 91.6919 104.204C91.6919 104.025 91.8445 103.913 92.0775 103.913C92.3102 103.913 92.4663 104.025 92.4663 104.204C92.4663 104.319 92.4035 104.402 92.2901 104.446C92.4282 104.492 92.5052 104.587 92.5052 104.717ZM92.389 104.716C92.389 104.58 92.2725 104.495 92.0775 104.495C91.8822 104.495 91.7675 104.58 91.7675 104.716C91.7675 104.853 91.8822 104.938 92.0775 104.938C92.2725 104.938 92.389 104.853 92.389 104.716ZM92.0772 104.406C92.2484 104.406 92.3508 104.328 92.3508 104.209C92.3508 104.084 92.2424 104.009 92.0772 104.009C91.9105 104.009 91.8049 104.084 91.8049 104.207C91.8049 104.328 91.9059 104.406 92.0772 104.406Z" fill="#E0E0E0"/>
<path d="M98.1432 104.464C98.1432 104.838 97.9384 105.033 97.6396 105.033C97.5404 105.033 97.4475 105.016 97.3783 104.973L97.4238 104.882C97.4807 104.92 97.5563 104.934 97.6382 104.934C97.8755 104.934 98.0281 104.781 98.0281 104.483C98.0281 104.457 98.0267 104.426 98.0235 104.393C97.9684 104.514 97.8395 104.582 97.6866 104.582C97.468 104.582 97.3154 104.453 97.3154 104.251C97.3154 104.045 97.4775 103.913 97.6915 103.913C97.9843 103.913 98.1432 104.116 98.1432 104.464ZM97.9874 104.245C97.9874 104.123 97.8868 104.009 97.6965 104.009C97.5375 104.009 97.4274 104.102 97.4274 104.248C97.4274 104.393 97.5344 104.486 97.7042 104.486C97.8727 104.486 97.9874 104.382 97.9874 104.245Z" fill="#E0E0E0"/>
<path d="M103.288 103.922V105.024H103.175V104.023H102.915V103.922H103.288Z" fill="#E0E0E0"/>
<path d="M103.551 104.473C103.551 104.123 103.735 103.913 103.99 103.913C104.245 103.913 104.43 104.123 104.43 104.473C104.43 104.824 104.245 105.034 103.99 105.034C103.735 105.034 103.551 104.824 103.551 104.473ZM104.314 104.473C104.314 104.179 104.182 104.017 103.99 104.017C103.798 104.017 103.666 104.179 103.666 104.473C103.666 104.768 103.798 104.93 103.99 104.93C104.182 104.93 104.314 104.768 104.314 104.473Z" fill="#E0E0E0"/>
<path d="M108.792 103.922V105.024H108.678V104.023H108.419V103.922H108.792Z" fill="#E0E0E0"/>
<path d="M109.359 103.922V105.024H109.246V104.023H108.986V103.922H109.359Z" fill="#E0E0E0"/>
<path d="M114.462 103.923V105.025H114.349V104.024H114.09V103.923H114.462Z" fill="#E0E0E0"/>
<path d="M115.478 104.924V105.024H114.705V104.944L115.163 104.495C115.287 104.372 115.311 104.299 115.311 104.223C115.311 104.096 115.221 104.017 115.053 104.017C114.924 104.017 114.825 104.056 114.752 104.14L114.672 104.071C114.757 103.97 114.894 103.914 115.062 103.914C115.285 103.914 115.427 104.027 115.427 104.211C115.427 104.317 115.394 104.411 115.246 104.556L114.871 104.924H115.478V104.924Z" fill="#E0E0E0"/>
<path d="M120.063 103.922V105.024H119.96V104.023H119.724V103.922H120.063Z" fill="#E0E0E0"/>
<path d="M120.967 104.708C120.967 104.892 120.845 105.034 120.603 105.034C120.459 105.034 120.32 104.979 120.242 104.893L120.293 104.803C120.357 104.877 120.473 104.93 120.604 104.93C120.77 104.93 120.862 104.845 120.862 104.708C120.862 104.576 120.777 104.489 120.59 104.489H120.519V104.406L120.797 104.024H120.284V103.923H120.929V104.003L120.645 104.395C120.86 104.407 120.967 104.532 120.967 104.708Z" fill="#E0E0E0"/>
<path d="M125.793 103.922V105.024H125.68V104.023H125.421V103.922H125.793Z" fill="#E0E0E0"/>
<path d="M126.993 104.734H126.773V105.024H126.66V104.734H126.038V104.652L126.621 103.922H126.747L126.184 104.634H126.662V104.378H126.772V104.634H126.993V104.734H126.993Z" fill="#E0E0E0"/>
<path d="M131.427 103.922V105.024H131.314V104.023H131.055V103.922H131.427Z" fill="#E0E0E0"/>
<path d="M132.438 104.699C132.438 104.887 132.308 105.033 132.039 105.033C131.88 105.033 131.729 104.978 131.644 104.892L131.699 104.802C131.769 104.876 131.895 104.929 132.037 104.929C132.224 104.929 132.323 104.838 132.323 104.704C132.323 104.562 132.235 104.474 131.955 104.474H131.721L131.777 103.922H132.38V104.023H131.877L131.839 104.374H131.98C132.312 104.374 132.438 104.504 132.438 104.699Z" fill="#E0E0E0"/>
<path d="M137.11 103.922V105.024H136.997V104.023H136.737V103.922H137.11Z" fill="#E0E0E0"/>
<path d="M138.2 104.695C138.2 104.901 138.038 105.034 137.824 105.034C137.531 105.034 137.372 104.831 137.372 104.483C137.372 104.108 137.577 103.913 137.876 103.913C137.975 103.913 138.068 103.93 138.137 103.973L138.091 104.064C138.035 104.026 137.959 104.012 137.877 104.012C137.64 104.012 137.487 104.165 137.487 104.464C137.487 104.489 137.489 104.521 137.492 104.554C137.547 104.433 137.676 104.365 137.829 104.365C138.048 104.365 138.2 104.493 138.2 104.695ZM138.088 104.698C138.088 104.554 137.981 104.461 137.811 104.461C137.643 104.461 137.528 104.564 137.528 104.702C137.528 104.823 137.629 104.938 137.819 104.938C137.978 104.938 138.088 104.845 138.088 104.698Z" fill="#E0E0E0"/>
<path d="M142.738 103.922V105.024H142.625V104.023H142.365V103.922H142.738Z" fill="#E0E0E0"/>
<path d="M143.778 103.922V104.002L143.317 105.024H143.194L143.647 104.023H143.08V104.229H142.969V103.922H143.778Z" fill="#E0E0E0"/>
<path d="M148.428 103.922V105.024H148.315V104.023H148.056V103.922H148.428Z" fill="#E0E0E0"/>
<path d="M149.537 104.717C149.537 104.912 149.372 105.033 149.109 105.033C148.845 105.033 148.685 104.912 148.685 104.717C148.685 104.585 148.76 104.492 148.897 104.446C148.786 104.402 148.724 104.319 148.724 104.204C148.724 104.025 148.877 103.913 149.11 103.913C149.342 103.913 149.499 104.025 149.499 104.204C149.499 104.319 149.435 104.402 149.322 104.446C149.46 104.492 149.537 104.587 149.537 104.717ZM149.421 104.716C149.421 104.58 149.305 104.495 149.109 104.495C148.914 104.495 148.799 104.58 148.799 104.716C148.799 104.853 148.914 104.938 149.109 104.938C149.305 104.938 149.421 104.853 149.421 104.716ZM149.109 104.406C149.281 104.406 149.383 104.328 149.383 104.209C149.383 104.084 149.274 104.009 149.109 104.009C148.942 104.009 148.837 104.084 148.837 104.207C148.837 104.328 148.938 104.406 149.109 104.406Z" fill="#E0E0E0"/>
<path d="M153.739 103.922V105.024H153.626V104.023H153.366V103.922H153.739Z" fill="#E0E0E0"/>
<path d="M154.797 104.464C154.797 104.838 154.592 105.033 154.293 105.033C154.194 105.033 154.101 105.016 154.032 104.973L154.078 104.882C154.134 104.92 154.21 104.934 154.292 104.934C154.529 104.934 154.682 104.781 154.682 104.483C154.682 104.457 154.68 104.426 154.677 104.393C154.622 104.514 154.493 104.582 154.34 104.582C154.122 104.582 153.969 104.453 153.969 104.251C153.969 104.045 154.131 103.913 154.345 103.913C154.638 103.913 154.797 104.116 154.797 104.464ZM154.641 104.245C154.641 104.123 154.54 104.009 154.35 104.009C154.191 104.009 154.081 104.102 154.081 104.248C154.081 104.393 154.188 104.486 154.358 104.486C154.526 104.486 154.641 104.382 154.641 104.245Z" fill="#E0E0E0"/>
<path d="M159.497 104.924V105.024H158.725V104.944L159.183 104.495C159.307 104.372 159.331 104.299 159.331 104.223C159.331 104.096 159.241 104.017 159.072 104.017C158.944 104.017 158.844 104.056 158.772 104.14L158.691 104.071C158.777 103.97 158.913 103.914 159.082 103.914C159.305 103.914 159.446 104.027 159.446 104.211C159.446 104.317 159.413 104.411 159.265 104.556L158.891 104.924H159.497V104.924Z" fill="#E0E0E0"/>
<path d="M159.633 104.473C159.633 104.123 159.817 103.913 160.072 103.913C160.327 103.913 160.512 104.123 160.512 104.473C160.512 104.824 160.327 105.034 160.072 105.034C159.817 105.034 159.633 104.824 159.633 104.473ZM160.396 104.473C160.396 104.179 160.264 104.017 160.072 104.017C159.88 104.017 159.748 104.179 159.748 104.473C159.748 104.768 159.88 104.93 160.072 104.93C160.264 104.93 160.396 104.768 160.396 104.473Z" fill="#E0E0E0"/>
<path d="M164.808 104.924V105.024H164.035V104.944L164.493 104.495C164.617 104.372 164.641 104.299 164.641 104.223C164.641 104.096 164.551 104.017 164.383 104.017C164.254 104.017 164.155 104.056 164.082 104.14L164.002 104.071C164.087 103.97 164.224 103.914 164.392 103.914C164.616 103.914 164.757 104.027 164.757 104.211C164.757 104.317 164.724 104.411 164.576 104.556L164.202 104.924H164.808V104.924Z" fill="#E0E0E0"/>
<path d="M165.254 103.922V105.024H165.141V104.023H164.882V103.922H165.254Z" fill="#E0E0E0"/>
<path d="M170.12 104.924V105.024H169.347V104.944L169.805 104.495C169.93 104.372 169.953 104.299 169.953 104.223C169.953 104.096 169.863 104.017 169.695 104.017C169.566 104.017 169.467 104.056 169.395 104.14L169.314 104.071C169.4 103.97 169.536 103.914 169.705 103.914C169.928 103.914 170.069 104.027 170.069 104.211C170.069 104.317 170.036 104.411 169.888 104.556L169.514 104.924H170.12V104.924Z" fill="#E0E0E0"/>
<path d="M171.013 104.924V105.024H170.241V104.944L170.699 104.495C170.823 104.372 170.846 104.299 170.846 104.223C170.846 104.096 170.757 104.017 170.588 104.017C170.459 104.017 170.36 104.056 170.288 104.14L170.207 104.071C170.292 103.97 170.429 103.914 170.597 103.914C170.821 103.914 170.962 104.027 170.962 104.211C170.962 104.317 170.929 104.411 170.781 104.556L170.407 104.924H171.013V104.924Z" fill="#E0E0E0"/>
<path d="M175.431 104.924V105.024H174.658V104.944L175.116 104.495C175.24 104.372 175.264 104.299 175.264 104.223C175.264 104.096 175.174 104.017 175.006 104.017C174.877 104.017 174.778 104.056 174.705 104.14L174.625 104.071C174.71 103.97 174.847 103.914 175.015 103.914C175.238 103.914 175.38 104.027 175.38 104.211C175.38 104.317 175.347 104.411 175.199 104.556L174.825 104.924H175.431V104.924Z" fill="#E0E0E0"/>
<path d="M176.301 104.708C176.301 104.892 176.167 105.033 175.901 105.033C175.743 105.033 175.59 104.979 175.505 104.892L175.56 104.802C175.631 104.876 175.758 104.929 175.901 104.929C176.084 104.929 176.185 104.845 176.185 104.708C176.185 104.576 176.092 104.489 175.887 104.489H175.809V104.406L176.114 104.023H175.55V103.922H176.258V104.003L175.947 104.394C176.183 104.407 176.301 104.531 176.301 104.708Z" fill="#E0E0E0"/>
<path d="M178.427 102.161C178.427 102.212 150.152 102.253 115.28 102.253C80.3964 102.253 52.127 102.212 52.127 102.161C52.127 102.11 80.3964 102.069 115.28 102.069C150.152 102.069 178.427 102.11 178.427 102.161Z" fill="#E0E0E0"/>
<g opacity="0.3">
<path d="M138.05 62.8286H133.45V96.4757H138.05V62.8286Z" fill="white"/>
</g>
<g opacity="0.79">
<path d="M99.1074 84.7896H94.5078V96.4754H99.1074V84.7896Z" fill="white"/>
</g>
<path d="M61.2496 61.5015C61.2496 61.5524 60.7753 61.5934 60.1909 61.5934C59.6061 61.5934 59.1318 61.552 59.1318 61.5015C59.1318 61.4506 59.6058 61.4097 60.1909 61.4097C60.7753 61.4093 61.2496 61.4506 61.2496 61.5015Z" fill="black"/>
<path d="M69.6867 61.5015C69.6867 61.5524 68.7421 61.5934 67.5774 61.5934C66.4121 61.5934 65.4678 61.552 65.4678 61.5015C65.4678 61.4506 66.4121 61.4097 67.5774 61.4097C68.7421 61.4093 69.6867 61.4506 69.6867 61.5015Z" fill="black"/>
<path d="M78.1242 61.5015C78.1242 61.5524 77.1796 61.5934 76.0149 61.5934C74.8496 61.5934 73.9053 61.552 73.9053 61.5015C73.9053 61.4506 74.8496 61.4097 76.0149 61.4097C77.1799 61.4093 78.1242 61.4506 78.1242 61.5015Z" fill="black"/>
<path d="M86.5644 61.5015C86.5644 61.5524 85.6197 61.5934 84.4547 61.5934C83.2894 61.5934 82.3447 61.552 82.3447 61.5015C82.3447 61.4506 83.2894 61.4097 84.4547 61.4097C85.6197 61.4093 86.5644 61.4506 86.5644 61.5015Z" fill="black"/>
<path d="M95.0038 61.5015C95.0038 61.5524 94.0592 61.5934 92.8942 61.5934C91.7288 61.5934 90.7842 61.552 90.7842 61.5015C90.7842 61.4506 91.7285 61.4097 92.8942 61.4097C94.0592 61.4093 95.0038 61.4506 95.0038 61.5015Z" fill="black"/>
<path d="M103.443 61.5015C103.443 61.5524 102.498 61.5934 101.333 61.5934C100.167 61.5934 99.2227 61.552 99.2227 61.5015C99.2227 61.4506 100.167 61.4097 101.333 61.4097C102.498 61.4093 103.443 61.4506 103.443 61.5015Z" fill="black"/>
<path d="M111.882 61.5015C111.882 61.5524 110.937 61.5934 109.772 61.5934C108.607 61.5934 107.662 61.552 107.662 61.5015C107.662 61.4506 108.607 61.4097 109.772 61.4097C110.937 61.4093 111.882 61.4506 111.882 61.5015Z" fill="black"/>
<path d="M120.32 61.5015C120.32 61.5524 119.376 61.5934 118.211 61.5934C117.045 61.5934 116.101 61.552 116.101 61.5015C116.101 61.4506 117.045 61.4097 118.211 61.4097C119.375 61.4093 120.32 61.4506 120.32 61.5015Z" fill="black"/>
<path d="M128.759 61.5015C128.759 61.5524 127.815 61.5934 126.65 61.5934C125.484 61.5934 124.54 61.552 124.54 61.5015C124.54 61.4506 125.484 61.4097 126.65 61.4097C127.815 61.4093 128.759 61.4506 128.759 61.5015Z" fill="black"/>
<path d="M137.198 61.5015C137.198 61.5524 136.253 61.5934 135.088 61.5934C133.923 61.5934 132.979 61.552 132.979 61.5015C132.979 61.4506 133.923 61.4097 135.088 61.4097C136.253 61.4093 137.198 61.4506 137.198 61.5015Z" fill="black"/>
<path d="M145.637 61.5015C145.637 61.5524 144.692 61.5934 143.527 61.5934C142.362 61.5934 141.417 61.552 141.417 61.5015C141.417 61.4506 142.361 61.4097 143.527 61.4097C144.692 61.4093 145.637 61.4506 145.637 61.5015Z" fill="black"/>
<path d="M154.076 61.5015C154.076 61.5524 153.131 61.5934 151.966 61.5934C150.801 61.5934 149.856 61.552 149.856 61.5015C149.856 61.4506 150.801 61.4097 151.966 61.4097C153.131 61.4093 154.076 61.4506 154.076 61.5015Z" fill="black"/>
<path d="M162.516 61.5015C162.516 61.5524 161.572 61.5934 160.406 61.5934C159.241 61.5934 158.296 61.552 158.296 61.5015C158.296 61.4506 159.241 61.4097 160.406 61.4097C161.572 61.4093 162.516 61.4506 162.516 61.5015Z" fill="black"/>
<path d="M170.958 61.5015C170.958 61.5524 170.013 61.5934 168.848 61.5934C167.682 61.5934 166.737 61.552 166.737 61.5015C166.737 61.4506 167.682 61.4097 168.848 61.4097C170.013 61.4093 170.958 61.4506 170.958 61.5015Z" fill="black"/>
<path d="M177.292 61.5015C177.292 61.5524 176.817 61.5934 176.233 61.5934C175.648 61.5934 175.174 61.552 175.174 61.5015C175.174 61.4506 175.648 61.4097 176.233 61.4097C176.817 61.4093 177.292 61.4506 177.292 61.5015Z" fill="black"/>
<path d="M60.5734 91.8964C60.6094 91.9325 59.6129 92.9876 58.3479 94.2526C57.0826 95.5183 56.0282 96.5148 55.9922 96.4792C55.9561 96.4431 56.9527 95.3883 58.218 94.1226C59.4829 92.8576 60.5377 91.8608 60.5734 91.8964Z" fill="#3DB8DB"/>
<path d="M70.5295 91.9736C70.5655 92.0096 69.5689 93.0648 68.304 94.3298C67.0387 95.5955 65.9842 96.592 65.9482 96.5563C65.9122 96.5203 66.9088 95.4655 68.174 94.1998C69.439 92.9344 70.4938 91.9376 70.5295 91.9736Z" fill="#3DB8DB"/>
<path d="M89.5461 91.893C89.5821 91.9291 88.5855 92.9842 87.3206 94.2492C86.0553 95.5149 85.0008 96.5114 84.9648 96.4757C84.9288 96.4397 85.9254 95.3849 87.1906 94.1192C88.4556 92.8539 89.5101 91.857 89.5461 91.893Z" fill="#3DB8DB"/>
<path d="M60.5109 87.8256C60.5469 87.8617 59.5504 88.9168 58.2854 90.1818C57.0201 91.4475 55.9657 92.444 55.9297 92.4083C55.8936 92.3723 56.8902 91.3175 58.1555 90.0518C59.4201 88.7868 60.4749 87.79 60.5109 87.8256Z" fill="#3DB8DB"/>
<path d="M79.9103 91.9628C79.9463 91.9989 78.9498 93.054 77.6849 94.319C76.4196 95.5847 75.3651 96.5812 75.3291 96.5456C75.2931 96.5095 76.2896 95.4547 77.5549 94.189C78.8198 92.9237 79.8743 91.9272 79.9103 91.9628Z" fill="#3DB8DB"/>
<path d="M79.8478 87.8925C79.8838 87.9286 78.8873 88.9837 77.6224 90.2487C76.3571 91.5144 75.3026 92.5109 75.2666 92.4753C75.2306 92.4392 76.2271 91.3844 77.4924 90.1187C78.7573 88.8534 79.8122 87.8565 79.8478 87.8925Z" fill="#3DB8DB"/>
<path d="M78.4159 84.7894C78.4519 84.8255 77.7763 85.5595 76.9069 86.4289C76.0375 87.2986 75.3036 87.9743 75.268 87.9383C75.232 87.9023 75.9075 87.1686 76.7769 86.2989C77.6464 85.4295 78.3798 84.7538 78.4159 84.7894Z" fill="#3DB8DB"/>
<g opacity="0.6">
<path d="M118.451 91.893C118.487 91.9291 117.491 92.9842 116.226 94.2492C114.961 95.5149 113.906 96.5114 113.87 96.4757C113.834 96.4397 114.831 95.3849 116.096 94.1192C117.361 92.8539 118.416 91.857 118.451 91.893Z" fill="white"/>
</g>
<g opacity="0.6">
<path d="M118.39 87.8222C118.426 87.8583 117.429 88.9134 116.164 90.1784C114.899 91.4441 113.845 92.4406 113.809 92.405C113.773 92.3689 114.769 91.3141 116.034 90.0484C117.299 88.7831 118.354 87.7862 118.39 87.8222Z" fill="white"/>
</g>
<g opacity="0.6">
<path d="M118.39 83.2856C118.426 83.3216 117.429 84.3768 116.164 85.6418C114.899 86.9075 113.845 87.9044 113.809 87.8683C113.773 87.8323 114.769 86.7775 116.034 85.5118C117.299 84.2465 118.354 83.2496 118.39 83.2856Z" fill="white"/>
</g>
<g opacity="0.6">
<path d="M118.451 78.8984C118.487 78.9344 117.491 79.9896 116.226 81.2546C114.961 82.5203 113.906 83.5168 113.87 83.4811C113.834 83.4451 114.831 82.3903 116.096 81.1246C117.361 79.8592 118.416 78.8624 118.451 78.8984Z" fill="white"/>
</g>
<g opacity="0.6">
<path d="M118.39 74.8276C118.426 74.8636 117.429 75.9188 116.164 77.1838C114.899 78.4495 113.845 79.446 113.809 79.4103C113.773 79.3743 114.769 78.3195 116.034 77.0538C117.299 75.7884 118.354 74.7916 118.39 74.8276Z" fill="white"/>
</g>
<g opacity="0.6">
<path d="M118.39 70.291C118.426 70.327 117.429 71.3822 116.164 72.6472C114.899 73.9129 113.845 74.9094 113.809 74.8737C113.773 74.8377 114.769 73.7829 116.034 72.5172C117.299 71.2518 118.354 70.255 118.39 70.291Z" fill="white"/>
</g>
<path d="M128.168 91.893C128.204 91.9291 127.208 92.9842 125.943 94.2492C124.677 95.5149 123.623 96.5114 123.587 96.4757C123.551 96.4397 124.547 95.3849 125.813 94.1192C127.078 92.8539 128.132 91.857 128.168 91.893Z" fill="#3DB8DB"/>
<path d="M128.107 87.8222C128.143 87.8583 127.146 88.9134 125.881 90.1784C124.616 91.4441 123.561 92.4406 123.525 92.405C123.489 92.3689 124.486 91.3141 125.751 90.0484C127.016 88.7831 128.071 87.7862 128.107 87.8222Z" fill="#3DB8DB"/>
<path d="M128.107 83.2856C128.143 83.3216 127.146 84.3768 125.881 85.6418C124.616 86.9075 123.561 87.9044 123.525 87.8683C123.489 87.8323 124.486 86.7775 125.751 85.5118C127.016 84.2465 128.071 83.2496 128.107 83.2856Z" fill="#3DB8DB"/>
<path d="M128.168 78.8984C128.204 78.9344 127.208 79.9896 125.943 81.2546C124.677 82.5203 123.623 83.5168 123.587 83.4811C123.551 83.4451 124.547 82.3903 125.813 81.1246C127.078 79.8592 128.132 78.8624 128.168 78.8984Z" fill="#3DB8DB"/>
<path d="M128.107 74.8276C128.143 74.8636 127.146 75.9188 125.881 77.1838C124.616 78.4495 123.561 79.446 123.525 79.4103C123.489 79.3743 124.486 78.3195 125.751 77.0538C127.016 75.7884 128.071 74.7916 128.107 74.8276Z" fill="#3DB8DB"/>
<path d="M147.459 91.893C147.495 91.9291 146.499 92.9842 145.234 94.2492C143.968 95.5149 142.914 96.5114 142.878 96.4757C142.842 96.4397 143.838 95.3849 145.104 94.1192C146.369 92.8539 147.423 91.857 147.459 91.893Z" fill="black"/>
<path d="M147.397 87.8222C147.433 87.8583 146.436 88.9134 145.171 90.1784C143.906 91.4441 142.851 92.4406 142.815 92.405C142.779 92.3689 143.776 91.3141 145.041 90.0484C146.306 88.7831 147.361 87.7862 147.397 87.8222Z" fill="black"/>
<path d="M147.397 83.2856C147.433 83.3216 146.436 84.3768 145.171 85.6418C143.906 86.9075 142.851 87.9044 142.815 87.8683C142.779 87.8323 143.776 86.7775 145.041 85.5118C146.306 84.2465 147.361 83.2496 147.397 83.2856Z" fill="black"/>
<path d="M147.459 78.8984C147.495 78.9344 146.499 79.9896 145.234 81.2546C143.968 82.5203 142.914 83.5168 142.878 83.4811C142.842 83.4451 143.838 82.3903 145.104 81.1246C146.369 79.8592 147.423 78.8624 147.459 78.8984Z" fill="black"/>
<path d="M147.397 74.8276C147.433 74.8636 146.436 75.9188 145.171 77.1838C143.906 78.4495 142.851 79.446 142.815 79.4103C142.779 79.3743 143.776 78.3195 145.041 77.0538C146.306 75.7884 147.361 74.7916 147.397 74.8276Z" fill="black"/>
<path d="M147.397 70.9433C147.433 70.9793 146.436 72.0345 145.171 73.2995C143.906 74.5652 142.851 75.5617 142.815 75.526C142.779 75.49 143.776 74.4352 145.041 73.1695C146.306 71.9045 147.361 70.9076 147.397 70.9433Z" fill="black"/>
<path d="M108.543 91.893C108.579 91.9291 107.583 92.9842 106.318 94.2492C105.052 95.5149 103.998 96.5114 103.962 96.4757C103.926 96.4397 104.922 95.3849 106.188 94.1192C107.453 92.8539 108.507 91.857 108.543 91.893Z" fill="#3DB8DB"/>
<path d="M108.481 87.8222C108.517 87.8583 107.52 88.9134 106.255 90.1784C104.99 91.4441 103.935 92.4406 103.899 92.405C103.863 92.3689 104.86 91.3141 106.125 90.0484C107.39 88.7831 108.445 87.7862 108.481 87.8222Z" fill="#3DB8DB"/>
<path d="M108.481 83.2856C108.517 83.3216 107.52 84.3768 106.255 85.6418C104.99 86.9075 103.935 87.9044 103.899 87.8683C103.863 87.8323 104.86 86.7775 106.125 85.5118C107.39 84.2465 108.445 83.2496 108.481 83.2856Z" fill="#3DB8DB"/>
<path d="M99.2189 91.893C99.2549 91.9291 98.2584 92.9842 96.9934 94.2492C95.7282 95.5149 94.6737 96.5114 94.6377 96.4757C94.6016 96.4397 95.5982 95.3849 96.8635 94.1192C98.1281 92.8539 99.1829 91.857 99.2189 91.893Z" fill="#3DB8DB"/>
<path d="M99.1564 87.8222C99.1924 87.8583 98.1959 88.9134 96.9309 90.1784C95.6657 91.4441 94.6112 92.4406 94.5752 92.405C94.5391 92.3689 95.5357 91.3141 96.801 90.0484C98.0659 88.7831 99.1204 87.7862 99.1564 87.8222Z" fill="#3DB8DB"/>
<path d="M97.6928 84.7504C97.7288 84.7864 97.0599 85.5134 96.1993 86.3743C95.3384 87.2355 94.6116 87.9042 94.5756 87.8682C94.5396 87.8322 95.2084 87.1052 96.069 86.244C96.9296 85.3834 97.6567 84.7144 97.6928 84.7504Z" fill="#3DB8DB"/>
<path d="M108.543 78.8984C108.579 78.9344 107.583 79.9896 106.318 81.2546C105.052 82.5203 103.998 83.5168 103.962 83.4811C103.926 83.4451 104.922 82.3903 106.188 81.1246C107.453 79.8592 108.507 78.8624 108.543 78.8984Z" fill="#3DB8DB"/>
<path d="M108.543 70.7402C108.579 70.7762 107.583 71.8314 106.318 73.0964C105.052 74.3621 103.998 75.3586 103.962 75.3229C103.926 75.2869 104.922 74.2321 106.188 72.9664C107.453 71.7014 108.507 70.7045 108.543 70.7402Z" fill="#3DB8DB"/>
<path d="M108.481 74.8276C108.517 74.8636 107.52 75.9188 106.255 77.1838C104.99 78.4495 103.935 79.446 103.899 79.4103C103.863 79.3743 104.86 78.3195 106.125 77.0538C107.39 75.7884 108.445 74.7916 108.481 74.8276Z" fill="#3DB8DB"/>
<path d="M138.105 91.893C138.141 91.9291 137.144 92.9842 135.879 94.2492C134.614 95.5149 133.559 96.5114 133.523 96.4757C133.487 96.4397 134.484 95.3849 135.749 94.1192C137.014 92.8539 138.069 91.857 138.105 91.893Z" fill="#3DB8DB"/>
<path d="M138.042 87.8222C138.078 87.8583 137.082 88.9134 135.817 90.1784C134.551 91.4441 133.497 92.4406 133.461 92.405C133.425 92.3689 134.421 91.3141 135.687 90.0484C136.952 88.7831 138.006 87.7862 138.042 87.8222Z" fill="#3DB8DB"/>
<path d="M138.042 83.2856C138.078 83.3216 137.082 84.3768 135.817 85.6418C134.551 86.9075 133.497 87.9044 133.461 87.8683C133.425 87.8323 134.421 86.7775 135.687 85.5118C136.952 84.2465 138.006 83.2496 138.042 83.2856Z" fill="#3DB8DB"/>
<path d="M138.105 78.8984C138.141 78.9344 137.144 79.9896 135.879 81.2546C134.614 82.5203 133.559 83.5168 133.523 83.4811C133.487 83.4451 134.484 82.3903 135.749 81.1246C137.014 79.8592 138.069 78.8624 138.105 78.8984Z" fill="#3DB8DB"/>
<path d="M138.042 74.8276C138.078 74.8636 137.082 75.9188 135.817 77.1838C134.551 78.4495 133.497 79.446 133.461 79.4103C133.425 79.3743 134.421 78.3195 135.687 77.0538C136.952 75.7884 138.006 74.7916 138.042 74.8276Z" fill="#3DB8DB"/>
<path d="M138.042 70.291C138.078 70.327 137.082 71.3822 135.817 72.6472C134.551 73.9129 133.497 74.9094 133.461 74.8737C133.425 74.8377 134.421 73.7829 135.687 72.5172C136.952 71.2518 138.006 70.255 138.042 70.291Z" fill="#3DB8DB"/>
<path d="M138.042 66.1679C138.078 66.204 137.082 67.2591 135.817 68.5241C134.551 69.7898 133.497 70.7863 133.461 70.7506C133.425 70.7146 134.421 69.6598 135.687 68.3941C136.952 67.1291 138.006 66.1322 138.042 66.1679Z" fill="#3DB8DB"/>
<path d="M137.259 62.8288C137.295 62.8648 136.474 63.7444 135.425 64.7936C134.376 65.8431 133.497 66.6644 133.461 66.6283C133.425 66.5923 134.246 65.7127 135.295 64.6636C136.344 63.6141 137.223 62.7927 137.259 62.8288Z" fill="#3DB8DB"/>
<g opacity="0.6">
<path d="M118.451 65.6821C118.487 65.7181 117.491 66.7733 116.226 68.0383C114.961 69.304 113.906 70.3005 113.87 70.2648C113.834 70.2288 114.831 69.174 116.096 67.9083C117.361 66.6433 118.416 65.6464 118.451 65.6821Z" fill="white"/>
</g>
<g opacity="0.6">
<path d="M118.39 61.6118C118.426 61.6478 117.429 62.703 116.164 63.968C114.899 65.2337 113.845 66.2302 113.809 66.1945C113.773 66.1585 114.769 65.1037 116.034 63.838C117.299 62.5726 118.354 61.5758 118.39 61.6118Z" fill="white"/>
</g>
<g opacity="0.6">
<path d="M116.548 58.9176C116.584 58.9536 115.999 59.5962 115.243 60.3529C114.486 61.1099 113.844 61.6941 113.808 61.6581C113.772 61.6221 114.356 60.9795 115.113 60.2229C115.869 59.4658 116.512 58.8816 116.548 58.9176Z" fill="white"/>
</g>
<path d="M157.79 92.0595C157.826 92.0956 156.83 93.1507 155.565 94.4157C154.299 95.6814 153.245 96.6779 153.209 96.6422C153.173 96.6062 154.169 95.5514 155.435 94.2857C156.7 93.0207 157.754 92.0238 157.79 92.0595Z" fill="#3DB8DB"/>
<path d="M157.728 87.9887C157.764 88.0248 156.767 89.0799 155.502 90.3449C154.237 91.6106 153.182 92.6071 153.146 92.5714C153.11 92.5354 154.107 91.4806 155.372 90.2149C156.637 88.9496 157.692 87.9527 157.728 87.9887Z" fill="#3DB8DB"/>
<path d="M157.702 83.478C157.738 83.514 156.747 84.5632 155.49 85.8215C154.231 87.0801 153.182 88.071 153.146 88.0353C153.11 87.9992 154.101 86.9501 155.359 85.6915C156.617 84.4332 157.666 83.442 157.702 83.478Z" fill="#3DB8DB"/>
<path d="M168.259 92.059C168.295 92.0951 167.298 93.1502 166.033 94.4152C164.768 95.6809 163.714 96.6774 163.678 96.6418C163.642 96.6057 164.638 95.5509 165.904 94.2852C167.168 93.0202 168.223 92.0234 168.259 92.059Z" fill="#3DB8DB"/>
<path d="M168.196 87.9887C168.232 88.0248 167.236 89.0799 165.971 90.3449C164.706 91.6106 163.651 92.6071 163.615 92.5714C163.579 92.5354 164.576 91.4806 165.841 90.2149C167.106 88.9496 168.161 87.9527 168.196 87.9887Z" fill="#3DB8DB"/>
<path d="M165.067 86.5829C165.085 86.6009 165.019 86.6991 164.899 86.8429C164.838 86.915 164.765 86.9984 164.681 87.0891C164.634 87.1382 164.59 87.1845 164.547 87.2301L164.475 87.3036L164.439 87.341L164.42 87.3597L164.41 87.3693L164.406 87.3739L164.404 87.376L164.404 87.3753L164.405 87.3749C164.347 87.3166 164.535 87.5046 164.275 87.2446L164.276 87.2435L164.277 87.2425C164.249 87.2142 164.524 87.4887 164.408 87.3721L164.408 87.3717L164.409 87.371L164.407 87.3728L164.402 87.3774L164.393 87.3869L164.374 87.4057L164.337 87.4424L164.263 87.5141C164.218 87.5572 164.171 87.601 164.122 87.6476C164.032 87.7317 163.948 87.8059 163.876 87.8659C163.732 87.9864 163.634 88.0521 163.616 88.0341C163.598 88.0161 163.664 87.9182 163.784 87.7741C163.845 87.702 163.919 87.6187 164.003 87.5279C164.049 87.4788 164.093 87.4325 164.136 87.3869L164.208 87.3134L164.244 87.276L164.263 87.2573L164.273 87.2478L164.277 87.2432L164.279 87.2414L164.279 87.2421L164.278 87.2425C164.162 87.1262 164.437 87.4011 164.408 87.3728L164.407 87.3739L164.406 87.3749C164.146 87.1149 164.333 87.3032 164.276 87.2453L164.275 87.2456L164.274 87.2463L164.277 87.2442L164.281 87.2396L164.291 87.2301L164.309 87.2114L164.347 87.1746L164.42 87.1029C164.466 87.0598 164.512 87.016 164.561 86.9694C164.652 86.8853 164.735 86.8111 164.807 86.7511C164.951 86.6306 165.049 86.5653 165.067 86.5829Z" fill="#3DB8DB"/>
<path d="M177.955 92.0595C177.991 92.0956 176.995 93.1507 175.73 94.4157C174.464 95.6814 173.41 96.6779 173.374 96.6422C173.338 96.6062 174.335 95.5514 175.6 94.2857C176.865 93.0207 177.92 92.0238 177.955 92.0595Z" fill="#3DB8DB"/>
<path d="M175.525 90.3574C175.561 90.3935 175.095 90.918 174.483 91.5295C173.872 92.141 173.348 92.6076 173.312 92.5716C173.276 92.5356 173.742 92.011 174.353 91.3995C174.965 90.788 175.489 90.3214 175.525 90.3574Z" fill="#3DB8DB"/>
<path d="M196.299 25.6944C196.299 25.7453 161.223 25.7866 117.964 25.7866C74.6908 25.7866 39.6221 25.7453 39.6221 25.6944C39.6221 25.6435 74.6908 25.6025 117.964 25.6025C161.223 25.6025 196.299 25.6435 196.299 25.6944Z" fill="black"/>
<path d="M93.7879 47.3779H64.1978C63.293 47.3779 62.5596 46.6442 62.5596 45.7392V38.0196C62.5596 37.1146 63.293 36.3809 64.1978 36.3809H93.7879C94.6927 36.3809 95.4261 37.1146 95.4261 38.0196V45.7392C95.4261 46.6442 94.6927 47.3779 93.7879 47.3779Z" fill="#3DB8DB"/>
<path d="M69.6151 44.0919L68.6948 42.5295L68.3255 42.9548C68.2308 43.064 68.0814 43.105 67.9437 43.0601C67.8067 43.0149 67.7107 42.8927 67.6994 42.7485L67.4748 39.8872C67.4642 39.7526 67.5291 39.6251 67.6443 39.5545C67.7594 39.4838 67.9021 39.4838 68.0179 39.5545L70.4051 41.0208C70.5266 41.0957 70.5908 41.2296 70.5725 41.3712C70.5545 41.5125 70.4584 41.6259 70.3221 41.6676L69.8175 41.8216L70.9115 43.2996L69.6151 44.0919ZM68.7499 41.9272L69.737 43.6034L70.398 43.1996L69.2362 41.6294L70.2193 41.3295L67.8332 39.8558L67.651 39.8734L67.8272 39.8597L68.0518 42.721L68.7499 41.9272Z" fill="white"/>
<g opacity="0.4">
<path d="M74.8223 46.5748C74.7714 46.5748 74.7305 44.4203 74.7305 41.7631C74.7305 39.1049 74.7718 36.9512 74.8223 36.9512C74.8731 36.9512 74.9141 39.1053 74.9141 41.7631C74.9141 44.4199 74.8728 46.5748 74.8223 46.5748Z" fill="white"/>
</g>
<path d="M76.6494 39.687C76.6494 39.3302 76.9206 39.0674 77.2882 39.0674C77.4659 39.0674 77.6258 39.1264 77.7339 39.2447L77.6523 39.3267C77.5531 39.2256 77.4313 39.1822 77.2918 39.1822C76.9976 39.1822 76.7769 39.398 76.7769 39.687C76.7769 39.9759 76.998 40.1918 77.2918 40.1918C77.4313 40.1918 77.5531 40.1483 77.6523 40.0455L77.7339 40.1275C77.6258 40.2458 77.4659 40.3069 77.2865 40.3069C76.9206 40.3069 76.6494 40.0438 76.6494 39.687Z" fill="white"/>
<path d="M77.9834 39.0049H78.107V40.2967H77.9834V39.0049Z" fill="white"/>
<path d="M78.4248 39.0916C78.4248 39.0447 78.4647 39.0044 78.5152 39.0044C78.5657 39.0044 78.6056 39.0425 78.6056 39.0899C78.6056 39.1404 78.5671 39.1803 78.5152 39.1803C78.4647 39.1807 78.4248 39.1404 78.4248 39.0916ZM78.4524 39.381H78.576V40.2966H78.4524V39.381Z" fill="white"/>
<path d="M78.8281 39.8384C78.8281 39.5654 79.0266 39.3735 79.2999 39.3735C79.4546 39.3735 79.5853 39.4346 79.6584 39.5548L79.5662 39.6173C79.5037 39.5251 79.4059 39.4816 79.2999 39.4816C79.0997 39.4816 78.9535 39.6243 78.9535 39.8384C78.9535 40.0543 79.0997 40.1955 79.2999 40.1955C79.4059 40.1955 79.5037 40.1535 79.5662 40.0613L79.6584 40.1242C79.5853 40.2425 79.4546 40.3051 79.2999 40.3051C79.0266 40.3051 78.8281 40.1118 78.8281 39.8384Z" fill="white"/>
<path d="M80.2271 39.8371L80.0113 40.0357V40.2967H79.8877V39.0049H80.0113V39.8809L80.5576 39.3811H80.7109L80.3192 39.7555L80.7472 40.2971H80.5957L80.2271 39.8371Z" fill="white"/>
<path d="M80.7803 40.192L80.8361 40.0945C80.9092 40.1521 81.0328 40.1973 81.1617 40.1973C81.3358 40.1973 81.4071 40.138 81.4071 40.0475C81.4071 39.8091 80.8135 39.997 80.8135 39.6346C80.8135 39.4848 80.9424 39.3735 81.1754 39.3735C81.2937 39.3735 81.4226 39.4067 81.4993 39.459L81.4452 39.5583C81.3651 39.5025 81.2697 39.4799 81.1754 39.4799C81.0102 39.4799 80.9371 39.5445 80.9371 39.6314C80.9371 39.8787 81.5307 39.6922 81.5307 40.044C81.5307 40.2026 81.3912 40.3051 81.1532 40.3051C81.0013 40.3051 80.8551 40.2567 80.7803 40.192Z" fill="white"/>
<path d="M77.6489 41.9844V44.6521H77.1538V42.4002H76.5898V41.9847H77.6489V41.9844Z" fill="white"/>
<path d="M78.1768 43.3183C78.1768 42.4419 78.6567 41.9463 79.2892 41.9463C79.9255 41.9463 80.4054 42.4419 80.4054 43.3183C80.4054 44.1947 79.9255 44.6903 79.2892 44.6903C78.657 44.69 78.1768 44.1947 78.1768 43.3183ZM79.9064 43.3183C79.9064 42.6743 79.655 42.3769 79.2892 42.3769C78.9275 42.3769 78.6758 42.674 78.6758 43.3183C78.6758 43.9623 78.9272 44.2597 79.2892 44.2597C79.655 44.2594 79.9064 43.9623 79.9064 43.3183Z" fill="white"/>
<path d="M80.6787 44.3625C80.6787 44.1721 80.8196 44.0464 80.9909 44.0464C81.1625 44.0464 81.3034 44.1721 81.3034 44.3625C81.3034 44.5455 81.1625 44.6791 80.9909 44.6791C80.8196 44.6787 80.6787 44.5452 80.6787 44.3625Z" fill="white"/>
<path d="M83.5619 43.8331C83.5619 44.3018 83.2225 44.6904 82.5067 44.6904C82.1296 44.6904 81.7485 44.576 81.5049 44.3817L81.7143 43.997C81.9085 44.157 82.1981 44.2598 82.4993 44.2598C82.8535 44.2598 83.0633 44.1037 83.0633 43.8521C83.0633 43.5967 82.8994 43.4367 82.3471 43.4367H81.7034L81.8404 41.9849H83.4062V42.4003H82.2595L82.2023 43.0174H82.4576C83.2459 43.0178 83.5619 43.3604 83.5619 43.8331Z" fill="white"/>
<path d="M83.8467 43.3183C83.8467 42.4419 84.3266 41.9463 84.9591 41.9463C85.5951 41.9463 86.0753 42.4419 86.0753 43.3183C86.0753 44.1947 85.5954 44.6903 84.9591 44.6903C84.3269 44.69 83.8467 44.1947 83.8467 43.3183ZM85.5764 43.3183C85.5764 42.6743 85.3249 42.3769 84.9591 42.3769C84.5971 42.3769 84.3457 42.674 84.3457 43.3183C84.3457 43.9623 84.5971 44.2597 84.9591 44.2597C85.3249 44.2594 85.5764 43.9623 85.5764 43.3183Z" fill="white"/>
<path d="M86.4082 43.3183C86.4082 42.4419 86.8881 41.9463 87.5206 41.9463C88.1569 41.9463 88.6369 42.4419 88.6369 43.3183C88.6369 44.1947 88.1569 44.6903 87.5206 44.6903C86.8881 44.69 86.4082 44.1947 86.4082 43.3183ZM88.1379 43.3183C88.1379 42.6743 87.8864 42.3769 87.5206 42.3769C87.159 42.3769 86.9072 42.674 86.9072 43.3183C86.9072 43.9623 87.1586 44.2597 87.5206 44.2597C87.8864 44.2594 88.1379 43.9623 88.1379 43.3183Z" fill="white"/>
<path d="M133.294 47.3779H102.389C101.847 47.3779 101.408 46.9384 101.408 46.3966V37.3622C101.408 36.8203 101.848 36.3809 102.389 36.3809H133.294C133.836 36.3809 134.275 36.8203 134.275 37.3622V46.3966C134.275 46.9384 133.835 47.3779 133.294 47.3779Z" fill="#3DB8DB"/>
<g opacity="0.3">
<path d="M133.069 47.3777H102.614C101.948 47.3777 101.408 46.8376 101.408 46.1714V37.5867C101.408 36.9205 101.948 36.3804 102.614 36.3804H133.069C133.735 36.3804 134.275 36.9205 134.275 37.5867V46.1714C134.275 46.8376 133.735 47.3777 133.069 47.3777Z" fill="white"/>
</g>
<path d="M116.559 39.4955C116.559 39.7548 116.371 39.9117 116.062 39.9117H115.734V40.2963H115.605V39.0776H116.062C116.371 39.0776 116.559 39.2345 116.559 39.4955ZM116.431 39.4955C116.431 39.3005 116.302 39.1889 116.058 39.1889H115.734V39.7983H116.058C116.302 39.7983 116.431 39.687 116.431 39.4955Z" fill="white"/>
<path d="M117.605 39.8766H116.839C116.853 40.068 116.999 40.1952 117.2 40.1952C117.311 40.1952 117.41 40.1549 117.48 40.0751L117.55 40.1553C117.468 40.2528 117.341 40.3051 117.196 40.3051C116.91 40.3051 116.716 40.1101 116.716 39.8384C116.716 39.5668 116.905 39.3735 117.163 39.3735C117.421 39.3735 117.607 39.5636 117.607 39.8384C117.607 39.8487 117.605 39.8628 117.605 39.8766ZM116.839 39.7844H117.488C117.473 39.6053 117.342 39.4799 117.163 39.4799C116.985 39.4795 116.855 39.6049 116.839 39.7844Z" fill="white"/>
<path d="M118.322 39.3735V39.4936C118.311 39.4936 118.3 39.4919 118.292 39.4919C118.1 39.4919 117.984 39.6137 117.984 39.8296V40.2962H117.86V39.3806H117.979V39.5597C118.036 39.4378 118.153 39.3735 118.322 39.3735Z" fill="white"/>
<path d="M118.699 39.2727V39.3808H118.981V39.485H118.703V40.2964H118.58V39.485H118.416V39.3808H118.58V39.2677C118.58 39.1042 118.677 38.9961 118.856 38.9961C118.924 38.9961 118.994 39.0152 119.039 39.0537L118.997 39.1459C118.963 39.1162 118.914 39.1007 118.862 39.1007C118.755 39.1003 118.699 39.1596 118.699 39.2727Z" fill="white"/>
<path d="M119.041 39.8384C119.041 39.5668 119.239 39.3735 119.508 39.3735C119.776 39.3735 119.972 39.5668 119.972 39.8384C119.972 40.1101 119.775 40.3051 119.508 40.3051C119.239 40.3051 119.041 40.1101 119.041 39.8384ZM119.847 39.8384C119.847 39.6243 119.703 39.4816 119.508 39.4816C119.313 39.4816 119.167 39.6243 119.167 39.8384C119.167 40.0525 119.313 40.1955 119.508 40.1955C119.702 40.1955 119.847 40.0528 119.847 39.8384Z" fill="white"/>
<path d="M120.688 39.3735V39.4936C120.678 39.4936 120.667 39.4919 120.658 39.4919C120.467 39.4919 120.35 39.6137 120.35 39.8296V40.2962H120.227V39.3806H120.345V39.5597C120.402 39.4378 120.519 39.3735 120.688 39.3735Z" fill="white"/>
<path d="M122.422 39.765V40.296H122.298V39.777C122.298 39.5838 122.201 39.4845 122.036 39.4845C121.848 39.4845 121.729 39.6064 121.729 39.8152V40.2956H121.605V39.7767C121.605 39.5834 121.508 39.4842 121.341 39.4842C121.155 39.4842 121.035 39.6061 121.035 39.8148V40.2952H120.911V39.3796H121.029V39.5467C121.094 39.4368 121.212 39.3726 121.365 39.3726C121.517 39.3726 121.635 39.4372 121.691 39.5658C121.757 39.4474 121.888 39.3726 122.052 39.3726C122.276 39.3736 122.422 39.5022 122.422 39.765Z" fill="white"/>
<path d="M123.45 39.7292V40.2969H123.332V40.1541C123.276 40.2481 123.168 40.3057 123.017 40.3057C122.809 40.3057 122.683 40.1979 122.683 40.0393C122.683 39.8984 122.773 39.78 123.036 39.78H123.326V39.7242C123.326 39.5677 123.238 39.4823 123.067 39.4823C122.949 39.4823 122.838 39.5239 122.763 39.5904L122.707 39.4982C122.8 39.4197 122.935 39.3745 123.08 39.3745C123.316 39.3742 123.45 39.4925 123.45 39.7292ZM123.326 40.0217V39.8719H123.039C122.861 39.8719 122.804 39.9415 122.804 40.0354C122.804 40.1418 122.889 40.2078 123.035 40.2078C123.175 40.2078 123.278 40.1418 123.326 40.0217Z" fill="white"/>
<path d="M124.629 39.7652V40.2961H124.506V39.7772C124.506 39.5839 124.405 39.4847 124.231 39.4847C124.034 39.4847 123.911 39.6065 123.911 39.8153V40.2957H123.787V39.3801H123.905V39.549C123.972 39.4377 124.095 39.373 124.253 39.373C124.476 39.3738 124.629 39.5023 124.629 39.7652Z" fill="white"/>
<path d="M124.878 39.8384C124.878 39.5654 125.077 39.3735 125.35 39.3735C125.505 39.3735 125.635 39.4346 125.709 39.5548L125.616 39.6173C125.553 39.5251 125.456 39.4816 125.35 39.4816C125.149 39.4816 125.004 39.6243 125.004 39.8384C125.004 40.0543 125.149 40.1955 125.35 40.1955C125.456 40.1955 125.553 40.1535 125.616 40.0613L125.709 40.1242C125.635 40.2425 125.505 40.3051 125.35 40.3051C125.076 40.3051 124.878 40.1118 124.878 39.8384Z" fill="white"/>
<path d="M126.733 39.8766H125.967C125.981 40.068 126.127 40.1952 126.328 40.1952C126.439 40.1952 126.538 40.1549 126.608 40.0751L126.678 40.1553C126.596 40.2528 126.468 40.3051 126.324 40.3051C126.038 40.3051 125.844 40.1101 125.844 39.8384C125.844 39.5668 126.033 39.3735 126.291 39.3735C126.549 39.3735 126.735 39.5636 126.735 39.8384C126.735 39.8487 126.733 39.8628 126.733 39.8766ZM125.967 39.7844H126.616C126.601 39.6053 126.47 39.4799 126.291 39.4799C126.113 39.4795 125.983 39.6049 125.967 39.7844Z" fill="white"/>
<path d="M117.74 43.8855C117.74 44.3808 117.309 44.6895 116.646 44.6895C115.983 44.6895 115.561 44.3808 115.561 43.8855C115.561 43.5919 115.713 43.3751 115.987 43.2489C115.774 43.131 115.656 42.9402 115.656 42.689C115.656 42.2316 116.056 41.9458 116.646 41.9458C117.241 41.9458 117.644 42.2316 117.644 42.689C117.644 42.9406 117.522 43.131 117.305 43.2489C117.584 43.3751 117.74 43.5919 117.74 43.8855ZM117.241 43.8703C117.241 43.6071 117.012 43.4436 116.646 43.4436C116.281 43.4436 116.06 43.6075 116.06 43.8703C116.06 44.1409 116.281 44.3009 116.646 44.3009C117.012 44.3009 117.241 44.1409 117.241 43.8703ZM116.143 42.7116C116.143 42.9406 116.334 43.085 116.646 43.085C116.962 43.085 117.157 42.9402 117.157 42.7116C117.157 42.4714 116.951 42.3344 116.646 42.3344C116.341 42.3344 116.143 42.4718 116.143 42.7116Z" fill="white"/>
<path d="M118.08 44.3621C118.08 44.1717 118.221 44.0459 118.393 44.0459C118.564 44.0459 118.705 44.1717 118.705 44.3621C118.705 44.545 118.564 44.6786 118.393 44.6786C118.221 44.6782 118.08 44.5447 118.08 44.3621Z" fill="white"/>
<path d="M120.964 43.8321C120.964 44.3009 120.625 44.6894 119.909 44.6894C119.532 44.6894 119.151 44.575 118.907 44.3807L119.117 43.996C119.311 44.156 119.6 44.2588 119.902 44.2588C120.256 44.2588 120.466 44.1027 120.466 43.8512C120.466 43.5958 120.302 43.4357 119.749 43.4357H119.106L119.243 41.9839H120.809V42.3993H119.662L119.605 43.0164H119.86C120.648 43.0168 120.964 43.3594 120.964 43.8321Z" fill="white"/>
<path d="M121.249 43.3178C121.249 42.4414 121.729 41.9458 122.361 41.9458C122.998 41.9458 123.477 42.4414 123.477 43.3178C123.477 44.1942 122.998 44.6898 122.361 44.6898C121.729 44.6895 121.249 44.1942 121.249 43.3178ZM122.978 43.3178C122.978 42.6739 122.727 42.3764 122.361 42.3764C121.999 42.3764 121.748 42.6735 121.748 43.3178C121.748 43.9618 121.999 44.2592 122.361 44.2592C122.727 44.2589 122.978 43.9618 122.978 43.3178Z" fill="white"/>
<path d="M123.811 43.3178C123.811 42.4414 124.29 41.9458 124.923 41.9458C125.559 41.9458 126.039 42.4414 126.039 43.3178C126.039 44.1942 125.559 44.6898 124.923 44.6898C124.291 44.6895 123.811 44.1942 123.811 43.3178ZM125.54 43.3178C125.54 42.6739 125.289 42.3764 124.923 42.3764C124.561 42.3764 124.31 42.6735 124.31 43.3178C124.31 43.9618 124.561 44.2592 124.923 44.2592C125.289 44.2589 125.54 43.9618 125.54 43.3178Z" fill="white"/>
<path d="M106.698 44.1362C106.616 44.1362 106.535 44.1121 106.463 44.0641C106.331 43.9744 106.261 43.82 106.283 43.661L106.454 42.4021C106.457 42.3809 106.449 42.3593 106.433 42.3452L105.494 41.4903C105.375 41.3822 105.329 41.2194 105.373 41.0654C105.417 40.911 105.543 40.7976 105.701 40.769L106.95 40.5429C106.972 40.539 106.989 40.5252 106.998 40.5055L107.521 39.3475C107.586 39.2013 107.727 39.1069 107.888 39.1013C108.046 39.0963 108.194 39.1801 108.27 39.3214L108.871 40.4408C108.882 40.4595 108.9 40.4722 108.922 40.4747L110.184 40.6139C110.344 40.6316 110.477 40.7358 110.532 40.8866C110.586 41.0374 110.552 41.2031 110.441 41.3193L109.562 42.2371C109.547 42.2526 109.541 42.2742 109.546 42.2954L109.803 43.5399C109.836 43.6967 109.778 43.856 109.651 43.9546C109.525 44.0539 109.356 44.0719 109.212 44.0016L108.068 43.4494C108.048 43.4403 108.026 43.441 108.007 43.4516L106.904 44.0814C106.84 44.1178 106.769 44.1362 106.698 44.1362ZM107.903 39.4542C107.902 39.4542 107.901 39.4542 107.901 39.4542C107.885 39.4545 107.858 39.4605 107.843 39.4923L107.321 40.6506C107.264 40.7764 107.15 40.8658 107.014 40.8905L105.764 41.1166C105.73 41.1229 105.717 41.148 105.713 41.1629C105.709 41.1773 105.706 41.2052 105.732 41.2289L106.671 42.0838C106.773 42.1763 106.823 42.313 106.805 42.4497L106.633 43.7087C106.628 43.7437 106.649 43.7631 106.661 43.7716C106.674 43.7801 106.7 43.7917 106.73 43.7741L107.833 43.1442C107.953 43.0757 108.098 43.0708 108.222 43.1308L109.367 43.6829C109.399 43.6985 109.423 43.6847 109.435 43.6755C109.447 43.6663 109.466 43.6455 109.459 43.6109L109.201 42.3667C109.173 42.2318 109.213 42.0919 109.309 41.9923L110.187 41.0745C110.211 41.0491 110.206 41.0212 110.201 41.0071C110.196 40.9929 110.182 40.9686 110.147 40.9647L108.884 40.8255C108.747 40.8103 108.627 40.7291 108.562 40.6079L107.96 39.4881C107.944 39.4588 107.919 39.4542 107.903 39.4542Z" fill="white"/>
<path d="M171.839 47.3779H141.54C140.831 47.3779 140.256 46.8028 140.256 46.0935V37.6653C140.256 36.956 140.831 36.3809 141.54 36.3809H171.839C172.548 36.3809 173.123 36.956 173.123 37.6653V46.0935C173.123 46.8028 172.548 47.3779 171.839 47.3779Z" fill="black"/>
<g opacity="0.4">
<path d="M152.519 46.5748C152.468 46.5748 152.427 44.4203 152.427 41.7631C152.427 39.1049 152.468 36.9512 152.519 36.9512C152.569 36.9512 152.61 39.1053 152.61 41.7631C152.61 44.4199 152.569 46.5748 152.519 46.5748Z" fill="white"/>
</g>
<path d="M154.453 39.0776H154.949C155.339 39.0776 155.602 39.3284 155.602 39.687C155.602 40.0455 155.339 40.2963 154.949 40.2963H154.453V39.0776ZM154.942 40.1847C155.266 40.1847 155.475 39.9791 155.475 39.6866C155.475 39.3941 155.266 39.1886 154.942 39.1886H154.582V40.1844L154.942 40.1847Z" fill="white"/>
<path d="M155.773 39.8384C155.773 39.5668 155.972 39.3735 156.24 39.3735C156.508 39.3735 156.704 39.5668 156.704 39.8384C156.704 40.1101 156.508 40.3051 156.24 40.3051C155.972 40.3051 155.773 40.1101 155.773 39.8384ZM156.579 39.8384C156.579 39.6243 156.435 39.4816 156.24 39.4816C156.045 39.4816 155.899 39.6243 155.899 39.8384C155.899 40.0525 156.045 40.1955 156.24 40.1955C156.435 40.1955 156.579 40.0528 156.579 39.8384Z" fill="white"/>
<path d="M158.276 39.3809L157.93 40.2965H157.813L157.525 39.5462L157.236 40.2965H157.119L156.774 39.3809H156.893L157.18 40.1591L157.474 39.3809H157.581L157.873 40.1591L158.164 39.3809H158.276Z" fill="white"/>
<path d="M159.306 39.7652V40.2961H159.182V39.7772C159.182 39.5839 159.082 39.4847 158.908 39.4847C158.711 39.4847 158.587 39.6065 158.587 39.8153V40.2957H158.464V39.3801H158.582V39.549C158.649 39.4377 158.772 39.373 158.93 39.373C159.153 39.3738 159.306 39.5023 159.306 39.7652Z" fill="white"/>
<path d="M159.643 39.0049H159.766V40.2967H159.643V39.0049Z" fill="white"/>
<path d="M160.02 39.8384C160.02 39.5668 160.218 39.3735 160.486 39.3735C160.754 39.3735 160.95 39.5668 160.95 39.8384C160.95 40.1101 160.754 40.3051 160.486 40.3051C160.218 40.3051 160.02 40.1101 160.02 39.8384ZM160.826 39.8384C160.826 39.6243 160.681 39.4816 160.486 39.4816C160.291 39.4816 160.145 39.6243 160.145 39.8384C160.145 40.0525 160.291 40.1955 160.486 40.1955C160.681 40.1955 160.826 40.0528 160.826 39.8384Z" fill="white"/>
<path d="M161.89 39.7287V40.2964H161.772V40.1536C161.717 40.2476 161.609 40.3052 161.457 40.3052C161.25 40.3052 161.123 40.1975 161.123 40.0388C161.123 39.8979 161.213 39.7796 161.476 39.7796H161.767V39.7237C161.767 39.5673 161.678 39.4818 161.508 39.4818C161.389 39.4818 161.278 39.5235 161.203 39.5899L161.147 39.4977C161.24 39.4192 161.376 39.374 161.52 39.374C161.757 39.3737 161.89 39.492 161.89 39.7287ZM161.767 40.0212V39.8714H161.48C161.302 39.8714 161.245 39.941 161.245 40.035C161.245 40.1413 161.33 40.2073 161.477 40.2073C161.616 40.2073 161.718 40.1413 161.767 40.0212Z" fill="white"/>
<path d="M163.065 39.0048V40.2966H162.947V40.1154C162.872 40.239 162.745 40.3051 162.594 40.3051C162.333 40.3051 162.138 40.1154 162.138 39.8384C162.138 39.5615 162.333 39.3735 162.594 39.3735C162.74 39.3735 162.866 39.4364 162.942 39.5548V39.0044H163.065V39.0048ZM162.944 39.8384C162.944 39.6244 162.798 39.4816 162.605 39.4816C162.409 39.4816 162.263 39.6244 162.263 39.8384C162.263 40.0525 162.409 40.1956 162.605 40.1956C162.798 40.1956 162.944 40.0528 162.944 39.8384Z" fill="white"/>
<path d="M156.553 43.8249C156.553 44.3544 156.122 44.69 155.577 44.69C154.849 44.69 154.423 44.2212 154.423 43.3639C154.423 42.4493 154.956 41.9463 155.729 41.9463C155.996 41.9463 156.251 42.0035 156.43 42.118L156.248 42.4914C156.103 42.396 155.928 42.3617 155.74 42.3617C155.238 42.3617 154.921 42.674 154.921 43.2802V43.284C155.081 43.0975 155.337 43.0057 155.634 43.0057C156.16 43.0053 156.553 43.3254 156.553 43.8249ZM156.073 43.8475C156.073 43.5691 155.863 43.3939 155.539 43.3939C155.22 43.3939 154.998 43.5882 154.998 43.851C154.998 44.1025 155.197 44.3007 155.551 44.3007C155.859 44.3011 156.073 44.1258 156.073 43.8475Z" fill="white"/>
<path d="M156.833 44.3621C156.833 44.1717 156.974 44.0459 157.146 44.0459C157.317 44.0459 157.458 44.1717 157.458 44.3621C157.458 44.545 157.317 44.6786 157.146 44.6786C156.974 44.6782 156.833 44.5447 156.833 44.3621Z" fill="white"/>
<path d="M159.717 43.8326C159.717 44.3013 159.378 44.6899 158.662 44.6899C158.285 44.6899 157.904 44.5755 157.66 44.3812L157.87 43.9965C158.064 44.1565 158.353 44.2593 158.655 44.2593C159.009 44.2593 159.219 44.1032 159.219 43.8517C159.219 43.5963 159.055 43.4362 158.502 43.4362H157.859L157.996 41.9844H159.562V42.3998H158.415L158.358 43.0169H158.613C159.401 43.0173 159.717 43.3599 159.717 43.8326Z" fill="white"/>
<path d="M160 43.3178C160 42.4414 160.48 41.9458 161.112 41.9458C161.749 41.9458 162.228 42.4414 162.228 43.3178C162.228 44.1942 161.749 44.6898 161.112 44.6898C160.48 44.6895 160 44.1942 160 43.3178ZM161.729 43.3178C161.729 42.6739 161.478 42.3764 161.112 42.3764C160.75 42.3764 160.499 42.6735 160.499 43.3178C160.499 43.9618 160.75 44.2592 161.112 44.2592C161.478 44.2589 161.729 43.9618 161.729 43.3178Z" fill="white"/>
<path d="M162.563 43.3178C162.563 42.4414 163.043 41.9458 163.676 41.9458C164.312 41.9458 164.792 42.4414 164.792 43.3178C164.792 44.1942 164.312 44.6898 163.676 44.6898C163.043 44.6895 162.563 44.1942 162.563 43.3178ZM164.293 43.3178C164.293 42.6739 164.041 42.3764 163.676 42.3764C163.314 42.3764 163.062 42.6735 163.062 43.3178C163.062 43.9618 163.314 44.2592 163.676 44.2592C164.041 44.2589 164.293 43.9618 164.293 43.3178Z" fill="white"/>
<path d="M146.815 44.8285C145.427 44.8285 144.298 43.6989 144.298 42.3106C144.298 40.9223 145.427 39.793 146.815 39.793C148.203 39.793 149.332 40.9223 149.332 42.3106C149.332 43.6989 148.203 44.8285 146.815 44.8285ZM146.815 40.1462C145.622 40.1462 144.651 41.1173 144.651 42.3106C144.651 43.5042 145.622 44.4753 146.815 44.4753C148.008 44.4753 148.979 43.5042 148.979 42.3106C148.979 41.1169 148.008 40.1462 146.815 40.1462Z" fill="white"/>
<path d="M146.802 43.8482C146.75 43.8482 146.7 43.8249 146.666 43.7842L145.598 42.4931C145.536 42.4179 145.546 42.3066 145.622 42.2444C145.696 42.1822 145.808 42.1925 145.87 42.2677L146.792 43.3826L147.635 42.2077C147.692 42.1278 147.802 42.1102 147.881 42.1671C147.96 42.2239 147.978 42.3341 147.921 42.4136L146.945 43.7747C146.913 43.8192 146.863 43.8464 146.808 43.8482C146.806 43.8482 146.804 43.8482 146.802 43.8482Z" fill="white"/>
<path d="M146.785 43.7993C146.688 43.7993 146.608 43.7202 146.608 43.6227V41.1376C146.608 41.0401 146.688 40.9609 146.785 40.9609C146.882 40.9609 146.962 41.0401 146.962 41.1376V43.6227C146.962 43.7205 146.882 43.7993 146.785 43.7993Z" fill="white"/>
<path d="M48.2456 22.1651C48.7685 22.1651 49.1924 21.7411 49.1924 21.2181C49.1924 20.695 48.7685 20.271 48.2456 20.271C47.7227 20.271 47.2988 20.695 47.2988 21.2181C47.2988 21.7411 47.7227 22.1651 48.2456 22.1651Z" fill="black"/>
<path d="M51.5409 22.1653C52.0639 22.1653 52.488 21.7412 52.488 21.2179C52.488 20.6947 52.0639 20.2705 51.5409 20.2705C51.0178 20.2705 50.5938 20.6947 50.5938 21.2179C50.5938 21.7412 51.0178 22.1653 51.5409 22.1653Z" fill="black"/>
<path d="M54.8354 22.1651C55.3583 22.1651 55.7822 21.7411 55.7822 21.2181C55.7822 20.695 55.3583 20.271 54.8354 20.271C54.3126 20.271 53.8887 20.695 53.8887 21.2181C53.8887 21.7411 54.3126 22.1651 54.8354 22.1651Z" fill="black"/>
<path d="M187.829 131.866C187.829 131.917 156.623 131.958 118.137 131.958C79.6382 131.958 48.4385 131.917 48.4385 131.866C48.4385 131.815 79.6379 131.774 118.137 131.774C156.623 131.774 187.829 131.815 187.829 131.866Z" fill="black"/>
<path d="M229.333 45.8672H164.468V75.8631H229.333V45.8672Z" fill="white"/>
<path d="M229.333 75.8636C229.333 75.8636 229.328 75.6796 229.326 75.3277C229.324 74.9734 229.322 74.4517 229.318 73.7688C229.315 72.3989 229.309 70.3847 229.302 67.7918C229.293 62.6104 229.281 55.1193 229.266 45.8674L229.333 45.9341C212.504 45.9405 189.632 45.9493 164.472 45.9592H164.468L164.56 45.8674C164.558 56.4172 164.556 66.5643 164.555 75.8632L164.468 75.776C183.344 75.7929 199.549 75.8074 211.039 75.8177C216.788 75.8279 221.356 75.836 224.491 75.8417C226.058 75.8463 227.266 75.8502 228.085 75.8526C228.492 75.8551 228.802 75.8569 229.015 75.8579C229.223 75.8601 229.333 75.8636 229.333 75.8636C229.333 75.8636 229.23 75.8671 229.025 75.8689C228.815 75.87 228.509 75.8717 228.106 75.8742C227.29 75.8767 226.089 75.8802 224.53 75.8851C221.4 75.8908 216.838 75.8989 211.097 75.9092C199.593 75.9194 183.368 75.9339 164.468 75.9508H164.381V75.8636C164.379 66.5646 164.377 56.4175 164.376 45.8677V45.7759H164.468H164.472C189.632 45.7854 212.505 45.7942 229.333 45.801H229.4V45.8681C229.385 55.1374 229.372 62.6422 229.364 67.8332C229.357 70.4197 229.351 72.4286 229.347 73.795C229.344 74.4725 229.342 74.99 229.34 75.3415C229.338 75.6891 229.333 75.8636 229.333 75.8636Z" fill="black"/>
<path d="M169.031 66.5869V67.534H168.933V66.6735H168.71V66.5869H169.031Z" fill="black"/>
<path d="M169.258 67.0609C169.258 66.7593 169.416 66.5791 169.635 66.5791C169.854 66.5791 170.014 66.7593 170.014 67.0609C170.014 67.3626 169.854 67.5424 169.635 67.5424C169.416 67.5424 169.258 67.3626 169.258 67.0609ZM169.914 67.0609C169.914 66.808 169.8 66.6685 169.635 66.6685C169.47 66.6685 169.356 66.808 169.356 67.0609C169.356 67.3139 169.47 67.453 169.635 67.453C169.8 67.453 169.914 67.3139 169.914 67.0609Z" fill="black"/>
<path d="M169.416 61.5597V61.6462H168.751V61.5774L169.145 61.1916C169.252 61.0863 169.272 61.0224 169.272 60.9578C169.272 60.8479 169.194 60.7804 169.05 60.7804C168.939 60.7804 168.854 60.8143 168.792 60.886L168.723 60.8267C168.795 60.7402 168.913 60.6914 169.058 60.6914C169.25 60.6914 169.372 60.7889 169.372 60.9472C169.372 61.0376 169.343 61.1188 169.216 61.2435L168.895 61.56L169.416 61.5597Z" fill="black"/>
<path d="M169.533 61.1728C169.533 60.8711 169.691 60.6909 169.91 60.6909C170.129 60.6909 170.289 60.8711 170.289 61.1728C170.289 61.4744 170.129 61.6542 169.91 61.6542C169.691 61.6542 169.533 61.4744 169.533 61.1728ZM170.189 61.1728C170.189 60.9198 170.076 60.7803 169.91 60.7803C169.745 60.7803 169.632 60.9198 169.632 61.1728C169.632 61.4257 169.745 61.5649 169.91 61.5649C170.076 61.5649 170.189 61.4257 170.189 61.1728Z" fill="black"/>
<path d="M169.395 55.4851C169.395 55.6434 169.28 55.7652 169.051 55.7652C168.914 55.7652 168.783 55.7179 168.71 55.6434L168.758 55.5664C168.818 55.6299 168.928 55.6759 169.051 55.6759C169.208 55.6759 169.294 55.6031 169.294 55.4851C169.294 55.3717 169.214 55.2972 169.038 55.2972H168.971V55.2255L169.233 54.8966H168.749V54.8101H169.358V54.8789L169.09 55.2159C169.293 55.2269 169.395 55.3339 169.395 55.4851Z" fill="black"/>
<path d="M169.533 55.2841C169.533 54.9824 169.691 54.8022 169.91 54.8022C170.129 54.8022 170.289 54.9824 170.289 55.2841C170.289 55.5858 170.129 55.7656 169.91 55.7656C169.691 55.7656 169.533 55.5858 169.533 55.2841ZM170.189 55.2841C170.189 55.0312 170.076 54.8916 169.91 54.8916C169.745 54.8916 169.632 55.0312 169.632 55.2841C169.632 55.537 169.745 55.6762 169.91 55.6762C170.076 55.6762 170.189 55.537 170.189 55.2841Z" fill="black"/>
<path d="M173.211 70.1679C173.211 69.8662 173.369 69.686 173.588 69.686C173.807 69.686 173.967 69.8662 173.967 70.1679C173.967 70.4695 173.807 70.6493 173.588 70.6493C173.369 70.6493 173.211 70.4695 173.211 70.1679ZM173.867 70.1679C173.867 69.9149 173.753 69.7754 173.588 69.7754C173.423 69.7754 173.309 69.9149 173.309 70.1679C173.309 70.4208 173.423 70.56 173.588 70.56C173.753 70.56 173.867 70.4208 173.867 70.1679Z" fill="black"/>
<path d="M180.219 69.6938V70.6409H180.122V69.7804H179.898V69.6938H180.219Z" fill="black"/>
<path d="M187.605 70.5548V70.6414H186.94V70.5725L187.334 70.1867C187.441 70.0815 187.461 70.0175 187.461 69.9529C187.461 69.843 187.384 69.7755 187.239 69.7755C187.128 69.7755 187.043 69.8095 186.981 69.8812L186.912 69.8218C186.985 69.7353 187.103 69.6865 187.247 69.6865C187.439 69.6865 187.561 69.784 187.561 69.9423C187.561 70.0327 187.533 70.114 187.406 70.2387L187.084 70.5552L187.605 70.5548Z" fill="black"/>
<path d="M194.586 70.3694C194.586 70.5277 194.471 70.6495 194.242 70.6495C194.105 70.6495 193.974 70.6022 193.901 70.5277L193.949 70.4506C194.01 70.5142 194.119 70.5602 194.242 70.5602C194.399 70.5602 194.486 70.4874 194.486 70.3694C194.486 70.256 194.406 70.1815 194.23 70.1815H194.163V70.1098L194.425 69.7809H193.941V69.6943H194.55V69.7632L194.282 70.1002C194.485 70.1112 194.586 70.2179 194.586 70.3694Z" fill="black"/>
<path d="M201.767 70.3924H201.578V70.6414H201.481V70.3924H200.946V70.3221L201.448 69.6943H201.556L201.072 70.3062H201.483V70.0868H201.578V70.3062H201.767V70.3924H201.767Z" fill="black"/>
<path d="M208.607 70.3622C208.607 70.5233 208.495 70.649 208.264 70.649C208.127 70.649 207.997 70.6017 207.924 70.5272L207.972 70.4502C208.032 70.5137 208.141 70.5597 208.262 70.5597C208.423 70.5597 208.508 70.4812 208.508 70.3664C208.508 70.2446 208.432 70.169 208.192 70.169H207.99L208.039 69.6938H208.557V69.7804H208.124L208.092 70.0821H208.213C208.499 70.0824 208.607 70.1944 208.607 70.3622Z" fill="black"/>
<path d="M215.677 70.3586C215.677 70.5356 215.538 70.6493 215.354 70.6493C215.102 70.6493 214.966 70.4748 214.966 70.176C214.966 69.8538 215.142 69.686 215.399 69.686C215.484 69.686 215.564 69.7012 215.623 69.7376L215.584 69.816C215.535 69.7835 215.471 69.7715 215.4 69.7715C215.196 69.7715 215.065 69.9029 215.065 70.1601C215.065 70.1816 215.066 70.2088 215.069 70.2371C215.116 70.1329 215.227 70.0746 215.358 70.0746C215.546 70.0743 215.677 70.1855 215.677 70.3586ZM215.581 70.3611C215.581 70.2368 215.489 70.1569 215.343 70.1569C215.199 70.1569 215.099 70.2463 215.099 70.3639C215.099 70.4681 215.186 70.567 215.35 70.567C215.487 70.567 215.581 70.4872 215.581 70.3611Z" fill="black"/>
<path d="M222.636 69.6943V69.7632L222.24 70.6414H222.135L222.524 69.7809H222.037V69.9582H221.941V69.6943H222.636Z" fill="black"/>
<path d="M222.687 67.1065C222.687 67.1574 211.729 67.1983 198.214 67.1983C184.695 67.1983 173.739 67.157 173.739 67.1065C173.739 67.0556 184.695 67.0146 198.214 67.0146C211.729 67.0146 222.687 67.056 222.687 67.1065Z" fill="black"/>
<path d="M222.687 61.1876C222.687 61.2384 211.729 61.2794 198.214 61.2794C184.695 61.2794 173.739 61.2381 173.739 61.1876C173.739 61.1367 184.695 61.0957 198.214 61.0957C211.729 61.0957 222.687 61.1367 222.687 61.1876Z" fill="black"/>
<path d="M222.687 55.2691C222.687 55.32 211.729 55.3609 198.214 55.3609C184.695 55.3609 173.739 55.3196 173.739 55.2691C173.739 55.2186 184.695 55.1772 198.214 55.1772C211.729 55.1769 222.687 55.2182 222.687 55.2691Z" fill="black"/>
<path d="M173.739 67.02C173.739 67.1938 173.598 67.3344 173.425 67.3344C173.251 67.3344 173.11 67.1934 173.11 67.02C173.11 66.8465 173.251 66.7056 173.425 66.7056C173.598 66.7056 173.739 66.8465 173.739 67.02Z" fill="#3DB8DB"/>
<path d="M180.777 67.02C180.777 67.1938 180.636 67.3344 180.463 67.3344C180.289 67.3344 180.148 67.1934 180.148 67.02C180.148 66.8465 180.289 66.7056 180.463 66.7056C180.636 66.7056 180.777 66.8465 180.777 67.02Z" fill="#3DB8DB"/>
<path d="M187.814 67.02C187.814 67.1938 187.674 67.3344 187.5 67.3344C187.326 67.3344 187.186 67.1934 187.186 67.02C187.186 66.8465 187.326 66.7056 187.5 66.7056C187.674 66.7056 187.814 66.8465 187.814 67.02Z" fill="#3DB8DB"/>
<path d="M194.851 67.02C194.851 67.1938 194.711 67.3344 194.537 67.3344C194.363 67.3344 194.223 67.1934 194.223 67.02C194.223 66.8465 194.363 66.7056 194.537 66.7056C194.711 66.7056 194.851 66.8465 194.851 67.02Z" fill="#3DB8DB"/>
<path d="M201.888 67.02C201.888 67.1938 201.748 67.3344 201.574 67.3344C201.4 67.3344 201.26 67.1934 201.26 67.02C201.26 66.8465 201.4 66.7056 201.574 66.7056C201.748 66.7056 201.888 66.8465 201.888 67.02Z" fill="#3DB8DB"/>
<path d="M215.964 67.02C215.964 67.1938 215.823 67.3344 215.649 67.3344C215.475 67.3344 215.335 67.1934 215.335 67.02C215.335 66.8465 215.475 66.7056 215.649 66.7056C215.823 66.7056 215.964 66.8465 215.964 67.02Z" fill="#3DB8DB"/>
<path d="M208.926 67.02C208.926 67.1938 208.786 67.3344 208.612 67.3344C208.438 67.3344 208.298 67.1934 208.298 67.02C208.298 66.8465 208.438 66.7056 208.612 66.7056C208.786 66.7056 208.926 66.8465 208.926 67.02Z" fill="#3DB8DB"/>
<path d="M223.002 67.02C223.002 67.1938 222.861 67.3344 222.687 67.3344C222.514 67.3344 222.373 67.1934 222.373 67.02C222.373 66.8465 222.514 66.7056 222.687 66.7056C222.861 66.7056 223.002 66.8465 223.002 67.02Z" fill="#3DB8DB"/>
<path d="M176.947 67.1066C176.947 67.2207 176.854 67.3132 176.74 67.3132C176.626 67.3132 176.534 67.2207 176.534 67.1066C176.534 66.9925 176.627 66.8999 176.74 66.8999C176.854 66.8999 176.947 66.9925 176.947 67.1066Z" fill="#E0E0E0"/>
<path d="M184.01 67.1066C184.01 67.2207 183.918 67.3132 183.804 67.3132C183.69 67.3132 183.598 67.2207 183.598 67.1066C183.598 66.9925 183.69 66.8999 183.804 66.8999C183.918 66.8999 184.01 66.9925 184.01 67.1066Z" fill="#E0E0E0"/>
<path d="M190.868 67.3132C190.982 67.3132 191.074 67.2207 191.074 67.1066C191.074 66.9924 190.982 66.8999 190.868 66.8999C190.754 66.8999 190.661 66.9924 190.661 67.1066C190.661 67.2207 190.754 67.3132 190.868 67.3132Z" fill="#E0E0E0"/>
<path d="M197.931 67.3132C198.045 67.3132 198.138 67.2207 198.138 67.1066C198.138 66.9924 198.045 66.8999 197.931 66.8999C197.817 66.8999 197.725 66.9924 197.725 67.1066C197.725 67.2207 197.817 67.3132 197.931 67.3132Z" fill="#E0E0E0"/>
<path d="M204.997 67.3132C205.111 67.3132 205.203 67.2207 205.203 67.1066C205.203 66.9924 205.111 66.8999 204.997 66.8999C204.883 66.8999 204.79 66.9924 204.79 67.1066C204.79 67.2207 204.883 67.3132 204.997 67.3132Z" fill="#E0E0E0"/>
<path d="M212.266 67.1066C212.266 67.2207 212.173 67.3132 212.06 67.3132C211.946 67.3132 211.854 67.2207 211.854 67.1066C211.854 66.9925 211.946 66.8999 212.06 66.8999C212.173 66.8999 212.266 66.9925 212.266 67.1066Z" fill="#E0E0E0"/>
<path d="M219.331 67.1066C219.331 67.2207 219.238 67.3132 219.125 67.3132C219.01 67.3132 218.918 67.2207 218.918 67.1066C218.918 66.9925 219.01 66.8999 219.125 66.8999C219.238 66.8999 219.331 66.9925 219.331 67.1066Z" fill="#E0E0E0"/>
<path d="M181.232 64.4899C181.232 64.9159 180.887 65.261 180.461 65.261C180.035 65.261 179.69 64.9159 179.69 64.4899C179.69 64.0639 180.035 63.7188 180.461 63.7188C180.887 63.7188 181.232 64.0642 181.232 64.4899Z" fill="#3DB8DB"/>
<path d="M187.373 60.8659C187.373 61.2919 187.028 61.637 186.602 61.637C186.176 61.637 185.831 61.2919 185.831 60.8659C185.831 60.4399 186.176 60.0947 186.602 60.0947C187.027 60.0944 187.373 60.4399 187.373 60.8659Z" fill="#3DB8DB"/>
<path d="M194.994 61.1876C194.994 61.6137 194.649 61.9588 194.223 61.9588C193.797 61.9588 193.452 61.6137 193.452 61.1876C193.452 60.7616 193.797 60.4165 194.223 60.4165C194.649 60.4165 194.994 60.7616 194.994 61.1876Z" fill="#3DB8DB"/>
<path d="M202.433 54.5993C202.433 55.0253 202.088 55.3704 201.662 55.3704C201.237 55.3704 200.892 55.0253 200.892 54.5993C200.892 54.1732 201.237 53.8281 201.662 53.8281C202.088 53.8281 202.433 54.1732 202.433 54.5993Z" fill="#3DB8DB"/>
<path d="M209.383 58.7897C209.383 59.2157 209.038 59.5608 208.612 59.5608C208.186 59.5608 207.841 59.2157 207.841 58.7897C207.841 58.3637 208.186 58.0186 208.612 58.0186C209.038 58.0186 209.383 58.3637 209.383 58.7897Z" fill="#3DB8DB"/>
<path d="M216.42 59.9049C216.42 60.331 216.075 60.6761 215.649 60.6761C215.223 60.6761 214.878 60.331 214.878 59.9049C214.878 59.4789 215.223 59.1338 215.649 59.1338C216.075 59.1338 216.42 59.4793 216.42 59.9049Z" fill="#3DB8DB"/>
<path d="M223.001 64.4901C223.001 64.4901 222.94 64.4971 222.82 64.4897C222.701 64.4819 222.523 64.4667 222.294 64.4194C221.843 64.3265 221.149 64.1319 220.464 63.5494C220.123 63.2611 219.811 62.8612 219.564 62.3794C219.316 61.9053 219.016 61.403 218.622 60.9208C218.226 60.4528 217.713 59.9738 217.032 59.8106C216.696 59.7293 216.331 59.7434 215.979 59.848C215.627 59.9575 215.299 60.1507 215.002 60.4012C214.403 60.9025 213.961 61.6146 213.379 62.2611C213.088 62.5822 212.749 62.8948 212.323 63.0834C211.898 63.2671 211.405 63.3243 210.934 63.1979C210.452 63.0689 210.085 62.6655 209.876 62.2261C209.658 61.7835 209.537 61.3016 209.42 60.8205C209.301 60.3408 209.205 59.8434 209 59.3941C208.898 59.1722 208.756 58.9645 208.55 58.854C208.34 58.7395 208.089 58.7141 207.839 58.7158C207.332 58.7423 206.821 58.8886 206.292 58.9889C206.026 59.0362 205.756 59.0832 205.475 59.0818C205.199 59.0829 204.907 59.0497 204.646 58.9204C204.373 58.8109 204.165 58.5926 203.987 58.3686C203.827 58.1323 203.69 57.8815 203.583 57.6197C203.36 57.0987 203.211 56.5525 203.009 56.0272C202.904 55.7683 202.794 55.5083 202.637 55.2815C202.48 55.0572 202.277 54.8686 202.027 54.7729C201.962 54.7541 201.9 54.7305 201.835 54.7149L201.632 54.6959C201.497 54.6884 201.373 54.7139 201.255 54.7729C201.02 54.8926 200.841 55.1226 200.692 55.3614C200.4 55.8535 200.207 56.4141 200.038 56.98C199.87 57.5476 199.728 58.1291 199.593 58.7155C199.368 59.6862 199.167 60.6545 198.917 61.6019C198.792 62.0752 198.656 62.5447 198.484 63.0008C198.308 63.4526 198.107 63.9083 197.753 64.271C197.573 64.4448 197.327 64.5808 197.058 64.5791C196.802 64.5794 196.557 64.4876 196.347 64.3632C195.924 64.1086 195.613 63.7338 195.347 63.3512C194.814 62.58 194.472 61.7209 194.14 60.9C193.803 60.0868 193.422 59.2821 192.792 58.7307C192.175 58.1831 191.288 57.979 190.53 58.1785C190.147 58.2746 189.785 58.446 189.453 58.6526C189.117 58.8529 188.807 59.0875 188.513 59.3326C187.927 59.8236 187.403 60.3609 186.944 60.9113L186.941 60.9152L186.94 60.9166C186.188 61.6669 185.402 62.3027 184.615 62.8485C183.827 63.3915 183.031 63.8373 182.234 64.1389C181.439 64.4332 180.64 64.607 179.903 64.5272C179.172 64.4558 178.528 64.2562 177.962 64.0573C176.831 63.6465 176.001 63.2042 175.441 62.904C175.162 62.751 174.952 62.6284 174.812 62.5433C174.672 62.4585 174.604 62.408 174.604 62.408C174.604 62.408 174.68 62.4454 174.823 62.5242C174.974 62.6051 175.187 62.7189 175.462 62.8658C176.027 63.153 176.861 63.5826 177.99 63.9793C178.554 64.1711 179.195 64.3629 179.912 64.4268C180.628 64.4992 181.412 64.324 182.193 64.0291C182.976 63.727 183.761 63.2816 184.54 62.7394C185.316 62.1954 186.098 61.557 186.834 60.8152L186.83 60.8201C187.296 60.2571 187.82 59.7159 188.414 59.2143C188.711 58.9642 189.027 58.7247 189.371 58.5173C189.711 58.3047 190.085 58.1249 190.491 58.0213C191.305 57.8066 192.239 58.0213 192.903 58.6035C193.571 59.1878 193.959 60.0161 194.301 60.8336C194.636 61.6591 194.974 62.4999 195.494 63.2502C195.751 63.6211 196.054 63.9786 196.438 64.2082C196.629 64.3209 196.842 64.3993 197.061 64.3986C197.272 64.3982 197.467 64.2937 197.628 64.1407C197.942 63.8192 198.144 63.3777 198.314 62.9361C198.482 62.4896 198.616 62.0251 198.74 61.5553C198.988 60.6142 199.189 59.647 199.414 58.6742C199.55 58.086 199.692 57.5021 199.862 56.9277C200.034 56.3551 200.228 55.786 200.536 55.266C200.696 55.0131 200.886 54.758 201.174 54.6097C201.316 54.5369 201.485 54.504 201.639 54.5139L201.869 54.5362C201.944 54.5538 202.018 54.5807 202.092 54.6029C202.384 54.7146 202.618 54.9347 202.787 55.1787C202.957 55.4257 203.07 55.6956 203.178 55.9623C203.384 56.4988 203.531 57.0439 203.748 57.5498C203.961 58.0485 204.237 58.5548 204.719 58.7607C205.19 58.9882 205.747 58.908 206.26 58.819C206.78 58.7222 207.294 58.5735 207.833 58.5463C208.102 58.5449 208.383 58.5717 208.631 58.707C208.884 58.8448 209.043 59.0882 209.151 59.3234C209.367 59.8042 209.46 60.3037 209.578 60.7827C209.692 61.2621 209.811 61.7347 210.018 62.1558C210.218 62.5754 210.545 62.9329 210.977 63.0513C211.404 63.1678 211.871 63.118 212.264 62.9485C212.663 62.775 212.989 62.479 213.275 62.1653C213.849 61.5351 214.297 60.8184 214.919 60.3016C215.227 60.0441 215.575 59.8416 215.944 59.7297C216.315 59.6212 216.704 59.6081 217.059 59.6968C217.78 59.8756 218.301 60.3765 218.702 60.8555C219.1 61.3497 219.397 61.8594 219.643 62.3395C219.882 62.8178 220.18 63.2081 220.511 63.4957C221.175 64.075 221.857 64.2799 222.302 64.3834C222.527 64.436 222.704 64.4572 222.822 64.471C222.94 64.4848 223.001 64.4865 223.001 64.4901Z" fill="#3DB8DB"/>
<path d="M181.307 51.2125C181.307 51.2633 178.575 51.3043 175.206 51.3043C171.835 51.3043 169.104 51.263 169.104 51.2125C169.104 51.1616 171.835 51.1206 175.206 51.1206C178.575 51.1203 181.307 51.1616 181.307 51.2125Z" fill="black"/>
<path d="M37.2821 142.672L37.6515 148.938C37.6515 148.938 44.0676 150.146 44.2488 151.297L32.204 152.971L31.2275 143.231L37.2821 142.672Z" fill="#3DB8DB"/>
<path d="M33.854 148.769C33.6255 148.856 33.4885 149.135 33.5655 149.367C33.6425 149.599 33.925 149.741 34.1552 149.658C34.3851 149.576 34.5599 149.245 34.4575 149.023C34.3551 148.802 34.014 148.653 33.8106 148.789" fill="#EBEBEB"/>
<path d="M32.2039 152.971L32.1064 152L43.5411 150.634C43.5411 150.634 44.2452 150.942 44.2749 151.321L32.2039 152.971Z" fill="#EBEBEB"/>
<path d="M37.8419 148.858C37.8454 148.917 37.5523 148.972 37.279 149.19C37 149.401 36.8747 149.672 36.8178 149.654C36.762 149.647 36.8167 149.285 37.1522 149.027C37.4852 148.766 37.8497 148.802 37.8419 148.858Z" fill="black"/>
<path d="M39.1634 149.262C39.1825 149.319 38.9356 149.444 38.7584 149.713C38.5733 149.977 38.5483 150.253 38.4893 150.256C38.4345 150.271 38.3607 149.928 38.5874 149.597C38.811 149.264 39.1567 149.206 39.1634 149.262Z" fill="black"/>
<path d="M40.0303 150.716C39.9776 150.734 39.8671 150.446 39.9882 150.107C40.1069 149.767 40.3739 149.613 40.4035 149.66C40.4417 149.705 40.2785 149.896 40.1832 150.176C40.0818 150.453 40.0885 150.705 40.0303 150.716Z" fill="black"/>
<path d="M37.5999 147.439C37.5802 147.495 37.3008 147.439 36.9685 147.494C36.6352 147.542 36.3855 147.679 36.3498 147.631C36.3113 147.591 36.5448 147.348 36.9371 147.289C37.3291 147.227 37.6247 147.389 37.5999 147.439Z" fill="black"/>
<path d="M37.5019 146.176C37.5047 146.2 37.2745 146.259 36.8945 146.231C36.7056 146.216 36.4806 146.176 36.2409 146.096C36.1211 146.056 35.9979 146.006 35.8747 145.944C35.8153 145.914 35.7458 145.884 35.6776 145.819C35.6063 145.763 35.554 145.61 35.6204 145.507C35.6737 145.408 35.7797 145.357 35.8669 145.347C35.9559 145.335 36.03 145.346 36.0975 145.356C36.2356 145.376 36.3662 145.409 36.4873 145.45C36.7289 145.533 36.9298 145.649 37.082 145.764C37.3879 145.998 37.5051 146.21 37.486 146.223C37.461 146.246 37.3066 146.073 37.0001 145.885C36.8472 145.792 36.6544 145.699 36.4298 145.632C36.3171 145.599 36.1971 145.573 36.071 145.557C35.9393 145.536 35.8302 145.545 35.8026 145.606C35.7927 145.628 35.792 145.637 35.8224 145.672C35.8535 145.704 35.9086 145.733 35.9672 145.764C36.0812 145.823 36.1946 145.874 36.3055 145.917C36.5269 146.002 36.736 146.054 36.9136 146.086C37.2699 146.149 37.5001 146.144 37.5019 146.176Z" fill="black"/>
<path d="M37.432 146.268C37.4118 146.279 37.2741 146.078 37.2162 145.697C37.188 145.508 37.1858 145.276 37.2356 145.024C37.2614 144.899 37.3003 144.77 37.3553 144.641C37.415 144.515 37.4864 144.346 37.7134 144.298C37.8331 144.282 37.9416 144.366 37.9832 144.443C38.0309 144.521 38.0457 144.591 38.0666 144.66C38.1022 144.799 38.1128 144.938 38.1058 145.069C38.0923 145.33 38.0069 145.555 37.9062 145.72C37.6993 146.057 37.4592 146.151 37.4521 146.132C37.4295 146.104 37.6248 145.97 37.7773 145.65C37.8526 145.493 37.9133 145.289 37.9151 145.062C37.9161 144.948 37.9034 144.829 37.8706 144.712C37.8395 144.585 37.7812 144.485 37.7343 144.503C37.6739 144.508 37.5806 144.615 37.5407 144.722C37.4888 144.837 37.45 144.953 37.4217 145.065C37.3666 145.292 37.3536 145.505 37.3617 145.683C37.379 146.04 37.4634 146.256 37.432 146.268Z" fill="black"/>
<path d="M10.0321 141.865L8.63365 149.615L5.76052 155.426C5.55358 155.845 5.74428 156.352 6.17617 156.53C6.41807 156.63 6.69069 156.608 6.91211 156.468C8.32007 155.579 13.4822 152.284 13.5529 151.711C13.6344 151.047 15.5707 143.633 15.5707 143.633L10.0321 141.865Z" fill="#3DB8DB"/>
<path d="M6.17578 156.53L13.6588 151.19L13.592 151.517C13.5341 151.8 13.3794 152.053 13.1524 152.231C12.545 152.707 10.839 153.983 6.93503 156.473C6.70796 156.618 6.42192 156.64 6.17578 156.53Z" fill="#EBEBEB"/>
<path d="M12.5843 148.93C12.3639 149.025 12.241 149.304 12.3258 149.528C12.4109 149.753 12.6938 149.88 12.9162 149.79C13.1384 149.7 13.2962 149.368 13.1864 149.155C13.0769 148.942 12.7361 148.81 12.5423 148.951" fill="#EBEBEB"/>
<path d="M8.62704 153.519C8.57901 153.531 8.48755 153.091 8.07331 152.78C7.66827 152.457 7.21978 152.479 7.21978 152.429C7.21695 152.409 7.32678 152.369 7.51253 152.38C7.69687 152.39 7.95254 152.469 8.1789 152.643C8.40456 152.819 8.54475 153.047 8.6009 153.223C8.65846 153.4 8.64752 153.516 8.62704 153.519Z" fill="black"/>
<path d="M7.8679 154.44C7.82447 154.465 7.62812 154.164 7.25238 153.968C6.88088 153.764 6.52139 153.768 6.51891 153.717C6.50479 153.673 6.90949 153.585 7.33396 153.816C7.7609 154.041 7.91204 154.427 7.8679 154.44Z" fill="black"/>
<path d="M9.92043 152.403C9.877 152.433 9.57718 151.967 9.01958 151.612C8.46762 151.247 7.92096 151.163 7.92979 151.111C7.92556 151.067 8.52059 151.077 9.11387 151.466C9.71067 151.849 9.9621 152.389 9.92043 152.403Z" fill="black"/>
<path d="M10.5426 150.083C10.5126 150.125 10.1228 149.86 9.57222 149.727C9.02345 149.586 8.55483 149.637 8.54812 149.586C8.5347 149.544 9.0238 149.409 9.61389 149.559C10.2054 149.703 10.5744 150.052 10.5426 150.083Z" fill="black"/>
<path d="M11.0105 147.818C10.9777 147.858 10.6016 147.513 10.0104 147.42C9.4214 147.314 8.95314 147.517 8.93513 147.468C8.92595 147.45 9.02977 147.37 9.22859 147.303C9.42599 147.237 9.72122 147.197 10.039 147.25C10.3565 147.304 10.6228 147.438 10.787 147.566C10.9533 147.694 11.0254 147.803 11.0105 147.818Z" fill="black"/>
<path d="M10.1118 146.992C10.1019 146.99 10.1058 146.883 10.1609 146.698C10.2159 146.515 10.3265 146.25 10.549 145.981C10.6616 145.854 10.7859 145.688 11.0222 145.63C11.1398 145.601 11.2951 145.653 11.3658 145.774C11.436 145.892 11.4389 146.025 11.4166 146.148C11.3086 146.636 10.7916 147.024 10.2265 146.982C9.66117 146.929 9.22469 146.511 9.09191 146.043C9.06613 145.924 9.06048 145.783 9.147 145.665C9.23281 145.545 9.4002 145.525 9.50685 145.566C9.72897 145.647 9.84657 145.809 9.96098 145.935C10.1831 146.203 10.3018 146.461 10.365 146.641C10.4285 146.823 10.4388 146.93 10.4292 146.932C10.3982 146.947 10.3117 146.513 9.86882 146.014C9.75546 145.897 9.62692 145.752 9.46482 145.703C9.38607 145.679 9.3105 145.696 9.26848 145.755C9.22646 145.812 9.22257 145.912 9.24694 146.006C9.36136 146.39 9.76111 146.771 10.24 146.808C10.7156 146.848 11.1698 146.507 11.2605 146.115C11.281 146.02 11.2754 145.919 11.2362 145.853C11.1977 145.787 11.1246 145.756 11.0476 145.771C10.8851 145.8 10.7513 145.942 10.6415 146.06C10.2008 146.561 10.1446 147.006 10.1118 146.992Z" fill="black"/>
<path d="M10.5202 89.5167C10.439 89.511 7.86816 148.203 7.86816 148.203H15.7128L19.526 116.409L21.4986 92.1116L25.5699 114.857L30.4951 147.232L38.3874 145.538L33.0469 87.713L21.8556 81.5103L10.5202 89.5167Z" fill="black"/>
<path d="M17.1849 47.9155L24.6005 47.3231C24.6467 46.4569 24.5846 43.1063 24.5846 43.1063C24.5846 43.1063 27.67 42.6263 27.7081 39.5406C27.7462 36.455 27.2112 29.3691 27.2112 29.3691C23.6403 27.8339 19.5185 28.3521 16.4388 30.7239L15.9814 31.076L17.1849 47.9155Z" fill="#FFBE9D"/>
<path d="M24.5899 43.0621C24.5899 43.0621 22.6402 43.2207 20.5684 41.9189C20.5684 41.9189 21.519 44.1398 24.597 43.8618L24.5899 43.0621Z" fill="#EB996E"/>
<path d="M16.3613 34.2724C16.3087 34.2498 14.2418 33.6454 14.3092 35.755C14.3767 37.8646 16.48 37.3619 16.4817 37.3012C16.4835 37.2404 16.3613 34.2724 16.3613 34.2724Z" fill="#FFBE9D"/>
<path d="M15.8112 36.5224C15.8017 36.516 15.7752 36.5492 15.7141 36.5796C15.6544 36.6093 15.5509 36.6319 15.4397 36.5941C15.2144 36.5195 15.0152 36.1716 14.993 35.7919C14.9813 35.6 15.0159 35.416 15.0788 35.2623C15.1381 35.1058 15.2345 34.9949 15.3461 34.9713C15.457 34.9419 15.5386 35.0066 15.5661 35.0652C15.5961 35.1235 15.5841 35.1659 15.5954 35.1691C15.6014 35.1744 15.6396 35.1323 15.6198 35.0458C15.6095 35.0041 15.5834 34.955 15.5326 34.9161C15.4807 34.8766 15.4054 34.8579 15.3277 34.8688C15.1653 34.8854 15.0237 35.0398 14.9545 35.2083C14.8761 35.3778 14.833 35.5848 14.8461 35.8003C14.8733 36.2249 15.1035 36.616 15.4111 36.6944C15.5608 36.7283 15.683 36.6796 15.7452 36.628C15.8091 36.5736 15.8186 36.5259 15.8112 36.5224Z" fill="#EB996E"/>
<path d="M26.5901 34.4204C26.5983 34.6532 26.4083 34.8517 26.1653 34.8648C25.9231 34.8779 25.7197 34.7002 25.7112 34.4674C25.7031 34.2346 25.8931 34.0357 26.1357 34.0226C26.3783 34.0096 26.5817 34.1876 26.5901 34.4204Z" fill="black"/>
<path d="M26.628 33.7102C26.5732 33.7678 26.2395 33.5205 25.7656 33.5219C25.292 33.5163 24.9442 33.7604 24.8926 33.7024C24.8672 33.6766 24.923 33.5731 25.0745 33.4626C25.2235 33.3527 25.4778 33.246 25.7734 33.2471C26.0686 33.2488 26.3172 33.3576 26.4599 33.4689C26.6057 33.5805 26.6551 33.6844 26.628 33.7102Z" fill="black"/>
<path d="M21.9808 34.4206C21.9889 34.6534 21.7986 34.8523 21.556 34.8653C21.3137 34.8784 21.1099 34.7007 21.1018 34.4679C21.0937 34.2351 21.2837 34.0359 21.5263 34.0232C21.7692 34.0097 21.9727 34.1878 21.9808 34.4206Z" fill="black"/>
<path d="M21.969 33.7991C21.9143 33.8566 21.5802 33.6094 21.1063 33.6108C20.6328 33.6051 20.2849 33.8492 20.2334 33.7909C20.2083 33.7651 20.2634 33.6616 20.4152 33.5514C20.5642 33.4416 20.8185 33.3349 21.1137 33.3359C21.409 33.3377 21.6572 33.4462 21.8002 33.5574C21.9457 33.6694 21.9955 33.7733 21.969 33.7991Z" fill="black"/>
<path d="M23.6891 37.3154C23.687 37.2886 23.9815 37.2377 24.459 37.1766C24.5801 37.1642 24.6945 37.1398 24.715 37.0575C24.7436 36.9699 24.6928 36.8396 24.6341 36.6986C24.5204 36.4058 24.4011 36.0985 24.2761 35.7766C23.7788 34.464 23.419 33.3844 23.472 33.365C23.5249 33.3456 23.971 34.3937 24.4682 35.7063C24.5879 36.0299 24.7023 36.3387 24.8111 36.634C24.857 36.7718 24.9357 36.9275 24.8739 37.1091C24.8414 37.1995 24.7524 37.2652 24.6748 37.2861C24.5971 37.3098 24.5289 37.3112 24.4692 37.3147C23.989 37.3401 23.6909 37.3423 23.6891 37.3154Z" fill="black"/>
<path d="M22.2947 37.6436C22.3717 37.639 22.3727 38.1537 22.8131 38.5193C23.2527 38.886 23.8012 38.8281 23.8054 38.9001C23.8125 38.9323 23.6832 39.0001 23.4519 39.0065C23.2248 39.0142 22.8933 38.9415 22.6238 38.7178C22.3551 38.4939 22.2396 38.195 22.2219 37.9838C22.2018 37.768 22.2594 37.6404 22.2947 37.6436Z" fill="black"/>
<path d="M22.0903 31.9403C22.0437 32.0693 21.5702 32.0082 21.014 32.0753C20.4564 32.1311 20.0079 32.294 19.9341 32.1784C19.9012 32.123 19.9793 32.0018 20.1608 31.8771C20.3405 31.7524 20.6273 31.6341 20.9614 31.5966C21.2951 31.5603 21.6009 31.6132 21.8036 31.6955C22.0077 31.7779 22.1105 31.8792 22.0903 31.9403Z" fill="black"/>
<path d="M26.453 32.3379C26.3696 32.4456 26.043 32.3337 25.6503 32.3287C25.2579 32.3096 24.9249 32.4011 24.8486 32.2884C24.8151 32.2337 24.8674 32.1259 25.0129 32.0239C25.1559 31.9221 25.3957 31.8391 25.6655 31.8472C25.9353 31.8557 26.169 31.9532 26.3057 32.0638C26.4441 32.1743 26.4897 32.2853 26.453 32.3379Z" fill="black"/>
<path d="M28.7131 27.4215C28.7463 27.0389 28.604 26.6285 28.2926 26.4038C27.9814 26.1791 27.4991 26.1932 27.2462 26.4822C27.391 25.9668 26.9697 25.3726 26.4358 25.3387C25.9325 25.3069 25.5035 25.687 25.0176 25.8202C24.5429 25.9506 24.0337 25.8379 23.5771 25.6538C23.1209 25.4698 22.6939 25.2162 22.2316 25.0473C21.2676 24.6951 20.1654 24.7393 19.2324 25.1678C18.2998 25.5963 17.5476 26.4034 17.1864 27.3643C16.5119 27.1534 15.7452 27.496 15.3292 28.0676C14.9132 28.6391 14.8066 29.3898 14.8892 30.0921C14.945 30.5665 15.0824 31.025 15.242 31.4768C15.242 31.5164 15.2381 31.5552 15.2388 31.5951C15.2706 33.2918 15.4623 35.2845 16.1863 35.2958C17.4477 35.3152 17.1472 32.9378 17.1472 32.9378C18.695 32.3394 18.1183 30.0196 18.5053 29.6678C18.8924 29.316 19.7021 28.4982 22.9429 30.1549C24.2015 30.7982 25.8746 30.7781 26.7882 30.5711C26.815 30.5651 26.8422 30.5612 26.8687 30.5548C26.8744 30.5534 26.8818 30.5524 26.8874 30.5509C26.8973 30.5485 26.9044 30.5428 26.9143 30.54C27.2056 30.464 27.4863 30.3514 27.7455 30.1874C28.039 30.0016 28.306 29.7501 28.4306 29.4255C28.5549 29.1012 28.5083 28.696 28.2537 28.4597C28.4928 28.1594 28.6803 27.8041 28.7131 27.4215Z" fill="black"/>
<path d="M45.5483 72.374C45.5483 72.374 45.5811 72.4023 45.6256 72.4609C45.7587 72.6372 45.9946 73.0886 45.7506 73.882C45.4254 74.9397 44.7339 76.4452 44.7339 76.4452C44.7339 76.4452 44.978 77.5029 44.7339 77.747C44.4899 77.991 40.4634 77.747 40.4634 77.747C40.4634 77.747 39.772 77.3619 40.3006 77.0256H43.1272" fill="#FFBE9D"/>
<path d="M9.38714 49.3804C9.38714 49.3804 5.90802 50.4843 4.2857 57.3539C3.09457 62.3976 -0.27931 72.4335 0.575638 74.0351C1.6347 76.0193 13.9338 79.1908 13.9338 79.1908L14.9801 74.4901L8.81965 70.3196L12.1201 59.1633C12.1201 59.1633 12.4955 49.8982 9.38714 49.3804Z" fill="#3DB8DB"/>
<path d="M10.3623 62.1962C10.3623 62.7198 11.9274 73.1919 11.9274 73.1919L8.81348 90.2093L20.877 90.8483L22.2186 83.5064L23.8836 90.8483L34.737 88.2074L31.9539 76.5954L33.0084 61.6685L31.8437 49.2669L27.3864 47.7434L25.084 45.0481L21.3576 47.3707L16.7623 44.6182L15.3084 46.6024L9.38733 49.381C8.79688 50.462 10.3623 62.1962 10.3623 62.1962Z" fill="#3DB8DB"/>
<path d="M16.7624 44.6177L16.6123 47.9156L22.9564 64.7985L25.5216 48.2109L24.6886 45.0274C24.6907 45.025 24.6886 45.0274 24.685 45.0271L21.3578 47.3702L16.7624 44.6177Z" fill="white"/>
<path d="M31.8438 49.2671C31.8438 49.2671 34.8811 51.7204 35.913 54.6298C36.9452 57.5391 38.6431 61.3691 38.6431 61.3691H32.9805L31.8438 49.2671Z" fill="#3DB8DB"/>
<path d="M22.8115 65.4382C22.8063 65.4417 22.754 65.3788 22.659 65.2555C22.5545 65.116 22.4189 64.9355 22.2508 64.7112C21.8895 64.2159 21.3891 63.5299 20.7768 62.6895C19.5351 60.9561 17.8415 58.5918 15.9699 55.9796C15.7011 55.6016 15.4363 55.2285 15.1756 54.8622L15.1386 54.8099L15.1749 54.7573C15.6097 54.1289 16.0309 53.5195 16.4342 52.9363L16.4544 53.0564C15.4288 52.2906 14.4856 51.5862 13.6568 50.9673L13.6123 50.9341L13.6317 50.8832C14.1293 49.5878 14.5393 48.5203 14.8338 47.7541C14.9754 47.3981 15.0891 47.1123 15.1749 46.8968C15.2555 46.7007 15.3014 46.5986 15.3084 46.6011C15.3155 46.6036 15.283 46.711 15.2156 46.912C15.1393 47.131 15.0379 47.421 14.9115 47.7831C14.6318 48.5546 14.242 49.6299 13.7687 50.9344L13.7437 50.8504C14.5774 51.4622 15.5263 52.1588 16.5582 52.9162L16.6263 52.966L16.5783 53.0363C16.1771 53.6209 15.758 54.2317 15.3254 54.8615L15.3247 54.7566C15.5853 55.1226 15.8508 55.4952 16.1199 55.8732C17.9743 58.4975 19.6524 60.8728 20.8827 62.6143C21.4756 63.4685 21.9598 64.1661 22.3094 64.6699C22.4658 64.9023 22.5923 65.0895 22.6897 65.234C22.7745 65.3643 22.8168 65.4346 22.8115 65.4382Z" fill="black"/>
<path d="M22.2632 83.0427C22.2568 83.0423 22.2536 82.9791 22.2529 82.859C22.2547 82.7177 22.2568 82.5442 22.2593 82.3337C22.2727 81.8504 22.2911 81.1973 22.3133 80.4028C22.3691 78.7478 22.444 76.5089 22.5273 74.0351C22.6032 71.5603 22.6721 69.3214 22.723 67.6664C22.7441 66.8719 22.7611 66.2195 22.7742 65.7362C22.7823 65.5257 22.7886 65.3523 22.7939 65.2113C22.8006 65.0912 22.807 65.0283 22.8134 65.0283C22.8197 65.0283 22.8257 65.0912 22.831 65.2113C22.8349 65.3523 22.8398 65.5261 22.8455 65.7366C22.8561 66.193 22.8561 66.8529 22.8529 67.6685C22.8434 69.2998 22.7946 71.5532 22.7113 74.0415C22.6283 76.5287 22.5284 78.7796 22.4436 80.4085C22.3974 81.2019 22.3592 81.854 22.3313 82.3369C22.3151 82.547 22.3013 82.7201 22.2904 82.8607C22.2787 82.9801 22.2695 83.043 22.2632 83.0427Z" fill="black"/>
<path d="M23.0762 64.9453C23.0702 64.9428 23.0917 64.8768 23.1376 64.7528C23.1931 64.6108 23.2623 64.4327 23.3474 64.2144C23.5466 63.7262 23.8181 63.0604 24.1497 62.2475C24.8525 60.5724 25.807 58.2978 26.8615 55.7848C27.0825 55.2645 27.2994 54.7544 27.5102 54.2584L27.5243 54.3517C27.0084 53.7346 26.5136 53.1436 26.0478 52.5865L25.9991 52.5282L26.0514 52.4738C26.853 51.6437 27.5762 50.8948 28.19 50.2593L28.1758 50.3257C27.8926 49.5033 27.661 48.8297 27.4911 48.3365C27.4194 48.1165 27.3608 47.9367 27.3138 47.7932C27.2753 47.6685 27.258 47.6018 27.2637 47.5997C27.2697 47.5975 27.2987 47.6597 27.3484 47.7805C27.4039 47.9208 27.4731 48.0967 27.5579 48.3122C27.7411 48.8007 27.9915 49.4673 28.2973 50.2815L28.3111 50.3186L28.2832 50.3483C27.6776 50.9916 26.9642 51.7493 26.1732 52.5897L26.1767 52.4773C26.6457 53.0319 27.1436 53.6205 27.6631 54.2344L27.6991 54.2768L27.6776 54.3277C27.4675 54.824 27.2517 55.3344 27.0313 55.8551C25.9574 58.36 24.9856 60.6272 24.2698 62.297C23.9159 63.1006 23.626 63.7591 23.4134 64.2416C23.3156 64.4546 23.2358 64.6281 23.1719 64.7669C23.115 64.8863 23.0822 64.9478 23.0762 64.9453Z" fill="black"/>
<g opacity="0.3">
<path d="M13.7002 50.9092L15.5701 52.9987L14.2783 55.3177L22.2627 64.7983L15.2501 54.8098L16.5062 52.9866L13.7002 50.9092Z" fill="black"/>
</g>
<g opacity="0.3">
<path d="M23.2627 64.4991L27.7094 55.7717L27.5936 54.293L23.2627 64.4991Z" fill="black"/>
</g>
<path d="M1.94922 75.1145C1.95911 75.0972 2.23703 75.2682 2.79569 75.4918C3.34977 75.7235 4.17081 76.0336 5.21363 76.3936C7.29785 77.1174 10.2621 78.0662 13.7243 79.1066L13.6144 79.1677C14.028 77.6279 14.4764 75.9573 14.9419 74.225L14.9814 74.3267C14.9186 74.2868 14.8504 74.2437 14.7823 74.2006C12.6433 72.8445 10.6092 71.5548 8.77361 70.3908L8.71993 70.3569L8.73759 70.2965C9.61514 67.2826 10.361 64.7208 10.8921 62.8963C11.1584 62.004 11.3706 61.2925 11.5207 60.7888C11.5934 60.5553 11.651 60.3705 11.6941 60.2314C11.735 60.1052 11.7583 60.0406 11.7629 60.042C11.7675 60.0434 11.753 60.1105 11.7209 60.2391C11.6838 60.3801 11.6347 60.5673 11.5729 60.804C11.4338 61.3105 11.2371 62.0266 10.9903 62.9245C10.475 64.7533 9.7511 67.3214 8.89968 70.3431L8.86366 70.2488C10.7017 71.4085 12.7386 72.694 14.8804 74.0456C14.9486 74.0886 15.0167 74.1317 15.0796 74.1717L15.1372 74.208L15.1195 74.2734C14.6512 76.0054 14.1999 77.6748 13.7839 79.214L13.7603 79.3016L13.6741 79.2754C10.2123 78.2227 7.25406 77.2513 5.1769 76.4978C4.13761 76.123 3.32116 75.7963 2.77203 75.5465C2.21937 75.3042 1.94922 75.1145 1.94922 75.1145Z" fill="black"/>
<path d="M9.27046 51.1042C9.27823 51.094 9.36404 51.1498 9.51377 51.26C9.66527 51.3674 9.86903 51.544 10.1046 51.7789C10.5767 52.2463 11.1453 52.9895 11.5577 53.9239C11.9667 54.86 12.1291 55.782 12.1538 56.4457C12.1673 56.7781 12.1595 57.0477 12.1358 57.2321C12.1157 57.4168 12.0987 57.5178 12.086 57.5168C12.0532 57.5147 12.0832 57.1063 12.0242 56.4549C11.967 55.8046 11.7883 54.9112 11.3896 53.998C10.9871 53.0867 10.4506 52.3505 10.0106 51.8687C9.57098 51.384 9.24998 51.13 9.27046 51.1042Z" fill="black"/>
<path d="M32.5742 59.6202C32.5233 59.6237 32.3517 57.6999 32.1907 55.3239C32.0296 52.9469 31.9399 51.0182 31.9908 51.0147C32.0413 51.0111 32.2133 52.9346 32.3743 55.3116C32.5353 57.6875 32.625 59.6166 32.5742 59.6202Z" fill="black"/>
<path d="M25.499 48.2701C25.5046 48.2761 25.4389 48.3496 25.3104 48.4813C25.1815 48.6131 24.9904 48.8038 24.7415 49.0416C24.2425 49.5139 23.5172 50.1896 22.5255 50.847L22.4094 50.9241L22.4037 50.7838C22.3793 50.1886 22.3582 49.5411 22.118 48.9035C22.0043 48.5845 21.8489 48.2697 21.6614 47.9656C21.5675 47.8137 21.4651 47.6643 21.3552 47.5184L21.3136 47.464L21.2927 47.4368L21.2874 47.4301L21.286 47.4283L21.2853 47.4272C21.1826 47.4046 21.4241 47.4573 21.4001 47.4516C21.4019 47.4505 21.4019 47.4509 21.4019 47.4509L21.3948 47.4558C21.3694 47.4756 21.3408 47.5078 21.3153 47.5403C21.2638 47.6074 21.2186 47.6848 21.178 47.7653C20.9294 48.2726 20.8435 48.8416 20.7351 49.3747C20.6363 49.9113 20.5529 50.4306 20.4805 50.9205L20.459 51.0657L20.346 50.9756C19.2615 50.1105 18.3356 49.3722 17.6537 48.8282C17.3454 48.5749 17.0925 48.3672 16.8958 48.2054C16.7217 48.0588 16.6313 47.9762 16.637 47.9691C16.643 47.9617 16.745 48.0302 16.9294 48.1638C17.1338 48.3157 17.3962 48.511 17.7169 48.7491C18.409 49.2793 19.3484 49.9992 20.4487 50.8425L20.3142 50.8976C20.382 50.4037 20.4615 49.883 20.5582 49.3422C20.6652 48.8067 20.7468 48.2298 21.0134 47.6823C21.0575 47.5943 21.1073 47.5085 21.1698 47.4272C21.202 47.3866 21.2352 47.3474 21.2829 47.3096L21.3044 47.2944L21.3136 47.2891C21.2899 47.2827 21.5322 47.3357 21.4298 47.3138L21.4305 47.3149L21.4319 47.3167L21.4372 47.3237L21.4587 47.352L21.5014 47.4082C21.6144 47.5586 21.7193 47.713 21.8161 47.8702C22.0089 48.185 22.1682 48.5117 22.2844 48.8441C22.5305 49.51 22.5453 50.1889 22.5612 50.7778L22.4394 50.7149C23.4271 50.0794 24.163 49.4256 24.679 48.9738C24.9209 48.76 25.1197 48.5848 25.2768 48.446C25.4163 48.3252 25.493 48.2641 25.499 48.2701Z" fill="black"/>
<path d="M22.8019 64.6435C22.7514 64.6477 22.3866 60.809 21.9876 56.0701C21.5882 51.3298 21.3057 47.4847 21.3565 47.4805C21.407 47.4762 21.7718 51.3143 22.1708 56.0546C22.5699 60.7934 22.8524 64.6392 22.8019 64.6435Z" fill="black"/>
<g opacity="0.3">
<path d="M11.6443 60.8657C11.6443 60.8657 11.3332 69.1766 11.3364 69.1975C11.3395 69.218 10.6025 64.2859 10.6025 64.2859L11.6443 60.8657Z" fill="black"/>
</g>
<path d="M17.7719 73.5012L20.9392 77.0259H43.1269L50.4923 62.8729C50.8486 62.188 50.3517 61.3691 49.5801 61.3691H27.8614C27.4454 61.3691 27.0704 61.6199 26.9111 62.0043L22.4432 72.794L18.1487 72.6837C17.7193 72.6728 17.4848 73.1815 17.7719 73.5012Z" fill="black"/>
<path d="M17.7903 72.827C17.7964 72.8214 17.879 72.8973 18.0298 73.0446C18.1947 73.2099 18.4098 73.4254 18.6753 73.6914C19.2425 74.275 20.0239 75.079 20.9594 76.0412L20.834 76.0621C21.4806 74.6371 22.2537 72.9235 23.0631 71.0728C24.1691 68.5488 25.1324 66.2481 25.8256 64.5808C26.1654 63.7648 26.4436 63.096 26.6474 62.6061C26.7406 62.3892 26.8166 62.2126 26.8769 62.0716C26.9313 61.9501 26.9628 61.8876 26.9688 61.8897C26.9748 61.8922 26.9546 61.9593 26.9116 62.085C26.8596 62.2292 26.7943 62.4104 26.7141 62.6322C26.5386 63.1059 26.277 63.7884 25.9464 64.6292C25.2836 66.3096 24.3386 68.6205 23.2315 71.1463C22.4218 72.9984 21.6381 74.7088 20.9739 76.1264L20.9255 76.2299L20.8485 76.1472C19.9325 75.1666 19.1672 74.3471 18.6117 73.7525C18.3585 73.4742 18.1537 73.2492 17.9966 73.0764C17.8564 72.9192 17.7847 72.8327 17.7903 72.827Z" fill="black"/>
<path d="M36.7609 70.2428C36.0631 70.5787 35.2587 70.3555 34.9645 69.7437C34.6703 69.1318 34.9974 68.3639 35.6952 68.0279C36.393 67.692 37.1974 67.9152 37.4916 68.5271C37.7857 69.1385 37.4587 69.9069 36.7609 70.2428Z" fill="white"/>
<path d="M15.0321 74.4853L17.0425 74.2967C17.0425 74.2967 20.6562 73.0917 21.2586 73.1981C21.2586 73.1981 21.4359 73.8007 20.7981 74.1903C20.1604 74.5803 19.2037 75.041 19.2037 75.041L20.6459 76.6896C20.8327 76.9029 21.1025 77.0255 21.3861 77.0255H26.1125C26.1125 77.0255 25.9352 77.6278 25.4394 77.7698C24.9433 77.9115 21.498 78.9394 21.498 78.9394L14.0225 78.1517L15.0321 74.4853Z" fill="#FFBE9D"/>
</g>
<defs>
<clipPath id="clip0_622_17889">
<rect width="229" height="157" fill="white"/>
</clipPath>
</defs>
</svg>
