<svg width="228" height="125" viewBox="0 0 160 180" fill="none" xmlns="http://www.w3.org/2000/svg">
<g clip-path="url(#clip0_622_22501)">
<path fill-rule="evenodd" clip-rule="evenodd" d="M105.658 58.4708C105.82 60.2483 105.739 62.0174 105.435 63.7352L109.301 66.7205L105.898 74.0513L101.124 73.0237C100.009 74.3645 98.7104 75.5688 97.2473 76.5916L97.8704 81.4353L90.282 84.2114L87.6335 80.1093C85.8561 80.2724 84.0877 80.1909 82.3706 79.8854L79.3859 83.7523L72.0586 80.3486L73.0852 75.5723C71.7449 74.4567 70.5423 73.1573 69.5193 71.6936L64.6775 72.3176L61.9014 64.7262L66.0024 62.0765C65.8394 60.2985 65.9209 58.5299 66.2257 56.8121L62.3597 53.8257L65.7626 46.4948L70.537 47.523C71.6522 46.1823 72.9511 44.9798 74.4136 43.9557L73.791 39.1126L81.3788 36.3359L84.0268 40.438C85.8036 40.2749 87.5732 40.3565 89.2897 40.6614L92.2744 36.7939L99.6017 40.1975L98.5745 44.9744C99.9147 46.0901 101.118 47.3889 102.141 48.8532L106.982 48.2298L109.758 55.8206L105.658 58.4708ZM94.0966 57.64C92.4522 53.1432 87.4752 50.8303 82.979 52.4754C78.4833 54.1205 76.1726 59.1007 77.8165 63.5975C79.4609 68.0949 84.4385 70.4072 88.9341 68.7621C93.4297 67.1164 95.7411 62.1374 94.0966 57.64Z" fill="#E0E0E0"/>
<path fill-rule="evenodd" clip-rule="evenodd" d="M102.717 14.3422C102.824 15.517 102.77 16.6864 102.569 17.8215L105.124 19.7951L102.875 24.6406L99.7196 23.9616C98.9824 24.848 98.1242 25.644 97.1572 26.32L97.5689 29.5215L92.5535 31.3563L90.8028 28.6452C89.6279 28.7533 88.459 28.699 87.3243 28.4975L85.3515 31.0537L80.5085 28.8041L81.1872 25.6469C80.3012 24.9095 79.5067 24.0509 78.8304 23.083L75.6302 23.4954L73.7949 18.4774L76.5055 16.726C76.3974 15.5506 76.4518 14.3818 76.6532 13.2461L74.0979 11.2725L76.3472 6.42701L79.5032 7.10655C80.2404 6.22019 81.0986 5.42542 82.0655 4.74823L81.6538 1.54728L86.6692 -0.288086L88.4194 2.4236C89.5943 2.31546 90.7638 2.36982 91.8985 2.57132L93.8713 0.0150507L98.7143 2.26464L98.0356 5.42187C98.9216 6.15932 99.7166 7.01792 100.393 7.98523L103.593 7.57337L105.427 12.5908L102.717 14.3422ZM95.0745 13.7933C93.9877 10.821 90.6976 9.29232 87.726 10.3796C84.7543 11.4669 83.2268 14.7582 84.3136 17.7311C85.4005 20.704 88.6905 22.2321 91.6622 21.1448C94.6339 20.0569 96.1614 16.7661 95.0745 13.7933Z" fill="white"/>
<path fill-rule="evenodd" clip-rule="evenodd" d="M26.2603 117.033C26.3571 118.094 26.3087 119.15 26.1268 120.176L28.4345 121.959L26.4026 126.335L23.552 125.722C22.8863 126.523 22.1108 127.241 21.2372 127.852L21.6093 130.744L17.0788 132.402L15.4976 129.952C14.4367 130.05 13.3806 130.001 12.3552 129.819L10.5731 132.127L6.19862 130.095L6.81174 127.244C6.01138 126.578 5.29371 125.802 4.68295 124.928L1.7922 125.3L0.134766 120.767L2.58311 119.185C2.48565 118.124 2.53467 117.068 2.7166 116.042L0.408248 114.26L2.44016 109.883L5.29076 110.497C5.95644 109.696 6.732 108.978 7.60501 108.366L7.23348 105.474L11.7639 103.816L13.3452 106.266C14.406 106.168 15.4627 106.217 16.4876 106.399L18.2696 104.09L22.6447 106.122L22.0316 108.974C22.832 109.64 23.5502 110.416 24.161 111.29L27.0518 110.918L28.7086 115.45L26.2603 117.033ZM19.3565 116.536C18.3748 113.851 15.4031 112.47 12.7185 113.453C10.0345 114.435 8.65464 117.409 9.63634 120.094C10.6186 122.779 13.5903 124.159 16.2743 123.177C18.9584 122.194 20.3388 119.222 19.3565 116.536Z" fill="#EBEBEB"/>
<path d="M75.1304 20.7234L64.6595 20.8097C63.2555 20.8215 62.1267 22.0217 62.1403 23.4895L62.1563 25.3892C62.1693 26.8577 61.0411 28.0578 59.637 28.069L39.2269 28.2368C37.8229 28.2487 36.674 27.0674 36.6616 25.5984L36.6457 23.6987C36.6327 22.2302 35.4844 21.049 34.0798 21.0602L30.3969 21.0904L21.2326 21.166C16.6815 21.2038 13.0223 24.926 13.0618 29.4795L14.2012 161.687C14.2402 166.238 17.9591 169.895 22.5079 169.858L76.4063 169.414C80.9574 169.377 84.616 165.654 84.577 161.101L83.4376 28.8933C83.3975 24.3439 79.6792 20.6862 75.1304 20.7234Z" fill="white"/>
<path d="M75.1308 20.7232C75.1308 20.7232 75.2253 20.7232 75.4131 20.7291C75.5998 20.7451 75.8827 20.7209 76.249 20.7865C76.9802 20.8662 78.093 21.0937 79.3494 21.8271C79.9838 22.1775 80.63 22.6839 81.2425 23.3345C81.8533 23.9856 82.4221 24.8017 82.8332 25.7814C83.2496 26.7576 83.4806 27.901 83.48 29.1224C83.4924 30.3397 83.5048 31.6356 83.519 33.0082C83.6223 43.9915 83.7718 59.8804 83.9566 79.5134C84.1333 99.1481 84.3429 122.527 84.5763 148.486C84.6046 151.731 84.6342 155.016 84.6631 158.339C84.6702 159.17 84.6779 160.003 84.685 160.839C84.6832 161.676 84.6365 162.538 84.3914 163.356C84.161 164.174 83.8308 164.972 83.3595 165.689C82.8905 166.405 82.3175 167.053 81.6601 167.609C80.3299 168.696 78.6577 169.398 76.9182 169.499C75.1911 169.564 73.4751 169.542 71.7403 169.568C68.2754 169.597 64.7769 169.626 61.247 169.656C54.1873 169.714 47.0029 169.775 39.7122 169.835C36.0666 169.865 32.3944 169.895 28.698 169.926C26.8497 169.941 24.995 169.957 23.135 169.972C21.2685 170.084 19.3269 169.608 17.7557 168.537C16.1774 167.474 15.0056 165.855 14.4497 164.052C14.1514 163.154 14.0894 162.193 14.0811 161.267C14.0729 160.339 14.0652 159.413 14.0575 158.488C14.0256 154.789 13.9943 151.114 13.963 147.466C13.901 140.17 13.8396 132.981 13.7787 125.916C13.6594 111.788 13.5442 98.1607 13.4344 85.179C13.3263 72.1973 13.2235 59.8615 13.1272 48.3163C13.08 42.5437 13.0339 36.9691 12.9902 31.6107C12.9849 30.9406 12.9789 30.2747 12.9736 29.6111C12.9754 29.279 12.9961 28.9428 13.0114 28.6107C13.0664 28.2821 13.0888 27.9483 13.1715 27.6268C13.4615 26.3333 14.0481 25.1202 14.8738 24.1186C15.7061 23.1223 16.7534 22.3293 17.9093 21.807C19.0641 21.2734 20.3364 21.0772 21.5662 21.0813C24.0192 21.0624 26.4144 21.0441 28.7482 21.0264C29.9153 21.0175 31.0671 21.0086 32.2036 21.0004C32.7718 20.9962 33.3359 20.9915 33.8965 20.9874C34.4623 20.9543 35.0536 21.1044 35.522 21.4264C35.9904 21.7485 36.3531 22.2147 36.5415 22.7418C36.7577 23.2695 36.7122 23.8415 36.7228 24.3686C36.7252 24.6368 36.727 24.9045 36.7293 25.171C36.7323 25.4387 36.7252 25.7034 36.7618 25.9563C36.8315 26.4663 37.0513 26.9526 37.3891 27.3308C37.7199 27.7143 38.1718 27.9867 38.6549 28.1019C38.8989 28.1604 39.1417 28.1758 39.398 28.1687C39.652 28.1669 39.9048 28.1652 40.157 28.1628C41.1647 28.1551 42.1565 28.148 43.1311 28.1409C47.0289 28.112 50.6562 28.0854 53.9959 28.0611C55.6652 28.0493 57.2629 28.0375 58.7857 28.0269C59.1637 28.0168 59.5488 28.0375 59.908 28.0026C60.2695 27.9583 60.6144 27.8301 60.9133 27.6392C61.5152 27.2575 61.9204 26.6288 62.0533 25.9681C62.1259 25.6378 62.11 25.3016 62.1088 24.9666C62.1064 24.6333 62.1041 24.3041 62.1017 23.9803C62.1029 23.6589 62.0805 23.3351 62.1366 23.0189C62.188 22.7046 62.2919 22.4038 62.4396 22.1331C62.732 21.5877 63.2104 21.1741 63.745 20.9584C64.2843 20.7185 64.8602 20.7847 65.38 20.7693C67.4916 20.7563 69.2796 20.7451 70.7244 20.7362C72.1674 20.7297 73.2684 20.7244 74.0109 20.7209C74.7516 20.7185 75.1308 20.7232 75.1308 20.7232C75.1308 20.7232 74.7516 20.7345 74.0115 20.7445C73.2684 20.7534 72.168 20.7664 70.725 20.7829C69.2796 20.7977 67.4922 20.816 65.3806 20.8379C64.8554 20.855 64.2925 20.7924 63.7733 21.027C63.2559 21.2373 62.7922 21.6403 62.5105 22.171C62.3681 22.4345 62.2677 22.7258 62.2187 23.0313C62.1649 23.3356 62.188 23.6547 62.1874 23.9791C62.1903 24.303 62.1939 24.6315 62.1968 24.9654C62.1986 25.2963 62.2163 25.6426 62.1419 25.9859C62.0054 26.669 61.5884 27.3207 60.9647 27.719C60.6546 27.9181 60.296 28.0523 59.9198 28.0996C59.5388 28.1368 59.1696 28.1161 58.7869 28.1267C57.2641 28.1409 55.6663 28.1557 53.9971 28.1711C50.658 28.2018 47.0307 28.2349 43.1328 28.2703C42.1582 28.2792 41.1671 28.2881 40.1588 28.2969C39.9066 28.2993 39.6538 28.3017 39.3998 28.304C39.1487 28.3117 38.8776 28.2969 38.6236 28.2349C38.1115 28.1137 37.6343 27.8266 37.2852 27.4224C36.929 27.0241 36.6969 26.5124 36.6224 25.9758C36.5829 25.7046 36.5911 25.4363 36.5876 25.1716C36.5852 24.9051 36.5829 24.638 36.5805 24.3691C36.5687 23.8314 36.6112 23.2884 36.4057 22.792C36.2267 22.2927 35.8823 21.8519 35.4399 21.5487C34.9928 21.2456 34.4523 21.1056 33.8982 21.1375C33.3377 21.1422 32.7736 21.1475 32.2054 21.1522C31.0689 21.1623 29.9171 21.1723 28.7499 21.183C26.4162 21.2036 24.021 21.2243 21.5679 21.2462C20.3494 21.2438 19.1125 21.4365 17.979 21.9606C16.8473 22.4741 15.8219 23.2517 15.0079 24.2279C14.1999 25.2094 13.6275 26.3977 13.3446 27.6641C13.2642 27.9784 13.243 28.3058 13.1886 28.6272C13.1745 28.9534 13.1544 29.2784 13.1526 29.6093C13.1585 30.2723 13.165 30.9389 13.1709 31.6084C13.2194 36.9673 13.2696 42.542 13.3215 48.314C13.4243 59.8586 13.5342 72.195 13.65 85.1761C13.764 98.1577 13.8839 111.785 14.0079 125.913C14.0693 132.977 14.1319 140.167 14.1951 147.463C14.227 151.11 14.2583 154.785 14.2908 158.484C14.2991 159.409 14.3068 160.336 14.3151 161.263C14.3239 162.187 14.383 163.105 14.6736 163.983C15.2141 165.735 16.3535 167.309 17.8874 168.342C19.4226 169.383 21.2838 169.846 23.1338 169.738C24.9938 169.722 26.8486 169.707 28.6968 169.692C32.3932 169.662 36.0654 169.632 39.7111 169.602C47.0023 169.542 54.1867 169.483 61.2458 169.426C64.7757 169.398 68.2743 169.369 71.7392 169.341C73.4681 169.316 75.2035 169.338 76.9034 169.274C78.5963 169.177 80.223 168.495 81.5189 167.437C82.1586 166.896 82.7168 166.265 83.174 165.568C83.6336 164.871 83.9549 164.094 84.1793 163.298C84.4186 162.499 84.4634 161.67 84.4658 160.841C84.4587 160.005 84.4516 159.172 84.4445 158.341C84.4168 155.018 84.389 151.733 84.3619 148.488C84.1474 122.529 83.9543 99.1499 83.7924 79.5151C83.6389 59.8822 83.5148 43.9932 83.4286 33.0094C83.4185 31.6367 83.4091 30.3409 83.4002 29.1236C83.4044 27.9093 83.1799 26.7795 82.77 25.8086C82.366 24.836 81.8042 24.0241 81.2006 23.3746C80.5945 22.7264 79.9548 22.22 79.3264 21.8684C78.0812 21.1322 76.9749 20.8981 76.2466 20.8107C75.8821 20.741 75.5998 20.7616 75.4137 20.7416C75.2259 20.7309 75.1308 20.7232 75.1308 20.7232Z" fill="black"/>
<path d="M76.8415 34.0589C76.8421 34.0944 75.4806 34.1464 73.8013 34.1753C72.1215 34.2043 70.7594 34.1984 70.7588 34.1629C70.7582 34.1275 72.1191 34.0755 73.799 34.0465C75.4789 34.0181 76.8409 34.0235 76.8415 34.0589Z" fill="black"/>
<path d="M76.8679 35.616C76.8685 35.6515 75.5076 35.7035 73.8277 35.7325C72.1478 35.7614 70.7857 35.7555 70.7852 35.72C70.7846 35.6846 72.1455 35.6326 73.8253 35.6036C75.5052 35.5753 76.8673 35.5806 76.8679 35.616Z" fill="black"/>
<path d="M76.8943 37.1729C76.8949 37.2084 75.5334 37.2604 73.8541 37.2888C72.1742 37.3177 70.8121 37.3124 70.8115 37.2769C70.8109 37.2415 72.1718 37.1895 73.8517 37.1605C75.5316 37.1316 76.8937 37.1375 76.8943 37.1729Z" fill="black"/>
<path d="M21.5568 39.438C21.5592 39.4356 21.6023 39.4327 21.6832 39.4285C21.7831 39.4244 21.8982 39.4197 22.0353 39.4138C22.3672 39.4031 22.8008 39.3889 23.3336 39.3712L23.2981 39.4079C23.2911 39.1201 23.2834 38.8051 23.2745 38.4659C23.2745 38.291 23.2562 38.1256 23.2716 37.9235C23.3046 37.7214 23.483 37.5418 23.7039 37.5193C23.913 37.5134 24.0973 37.5022 24.3241 37.5104C24.5586 37.537 24.7595 37.7604 24.7547 38.0086C24.7636 38.4476 24.7731 38.9068 24.7825 39.3824L24.7217 39.3239C25.248 39.3139 25.7955 39.3039 26.3602 39.2926L26.2988 39.3564C26.287 38.6964 26.2751 38.0139 26.2627 37.3143C26.2598 37.1399 26.2568 36.9662 26.2539 36.7943C26.2515 36.6341 26.1535 36.5278 26.02 36.409C25.7754 36.172 25.5344 35.9386 25.2976 35.7088C25.0607 35.4795 24.8286 35.2538 24.6006 35.0328C24.4866 34.9223 24.3744 34.8129 24.2627 34.7048C24.1464 34.5949 24.0554 34.4808 23.9219 34.4548C23.7925 34.4212 23.6502 34.4501 23.5468 34.5299C23.4482 34.615 23.3436 34.7343 23.2444 34.8324C23.0447 35.0381 22.8498 35.2378 22.662 35.431C22.2958 35.8187 21.9136 36.1732 21.6366 36.5071C21.5202 36.6914 21.5663 36.9154 21.5598 37.1193C21.561 37.3225 21.5622 37.5152 21.5639 37.6972C21.5651 38.0511 21.5657 38.3614 21.5663 38.6279C21.5657 38.8654 21.5651 39.0622 21.5651 39.2229C21.5622 39.3612 21.5604 39.435 21.5568 39.438C21.5539 39.4409 21.5497 39.3736 21.5438 39.2412C21.5379 39.0828 21.5308 38.8896 21.522 38.6556C21.5137 38.3873 21.5037 38.0748 21.4925 37.7179C21.4871 37.5323 21.4818 37.3361 21.4765 37.1293C21.4741 37.0247 21.4712 36.9172 21.4688 36.8073C21.4671 36.6909 21.496 36.5703 21.5562 36.4634C21.8557 36.0893 22.2148 35.7572 22.584 35.3583C22.7707 35.1633 22.9638 34.9624 23.1623 34.755C23.2662 34.651 23.3519 34.5476 23.4759 34.4389C23.6059 34.3367 23.7854 34.2994 23.9502 34.3408C24.1251 34.378 24.2397 34.5198 24.346 34.6191C24.4576 34.7267 24.571 34.8354 24.685 34.9459C24.9136 35.1663 25.1469 35.3908 25.3844 35.6195C25.6219 35.8488 25.8634 36.0816 26.1086 36.318C26.1665 36.3783 26.2362 36.4297 26.2934 36.5148C26.3472 36.5957 26.3785 36.6926 26.3815 36.7907C26.3844 36.9639 26.3874 37.1382 26.3909 37.3137C26.4027 38.0133 26.4134 38.6958 26.4246 39.3558L26.4258 39.4191L26.3631 39.4203C25.7985 39.4285 25.2509 39.4374 24.7246 39.4451L24.6644 39.4463L24.6638 39.3866C24.6573 38.9109 24.6508 38.4518 24.6443 38.0121C24.6496 37.8142 24.4937 37.6404 24.31 37.6174C24.1215 37.6091 23.8989 37.6174 23.7157 37.6209C23.5397 37.6369 23.3938 37.7799 23.3655 37.943C23.3513 38.1078 23.3649 38.2999 23.3631 38.4665C23.3661 38.8063 23.369 39.1207 23.372 39.409L23.3726 39.4457H23.3365C22.7949 39.4468 22.3537 39.4474 22.0158 39.448C21.8823 39.4469 21.7695 39.4457 21.672 39.4451C21.5935 39.4421 21.5551 39.4403 21.5568 39.438Z" fill="black"/>
<path d="M72.324 57.6758L23.6844 58.1048C21.2508 58.1261 19.2602 56.1702 19.239 53.7351L19.2248 52.0971C19.2035 49.6625 21.1586 47.6711 23.5928 47.6499L72.2324 47.2209C74.666 47.1996 76.6566 49.1555 76.6778 51.5906L76.692 53.2286C76.7133 55.6632 74.7575 57.6546 72.324 57.6758Z" fill="white"/>
<path d="M72.3236 57.6758C72.3236 57.6758 72.4353 57.6617 72.6532 57.6451C72.8706 57.6268 73.1925 57.5748 73.5995 57.4525C74.0012 57.3166 74.4879 57.0979 74.9752 56.7133C75.4643 56.3339 75.9462 55.7778 76.2711 55.0398C76.4276 54.6717 76.5605 54.2628 76.606 53.8184C76.661 53.3776 76.6367 52.9037 76.6332 52.4097C76.6208 51.9157 76.6486 51.3974 76.5517 50.8786C76.4595 50.3586 76.2676 49.8339 75.9681 49.3511C75.3757 48.3873 74.3266 47.5843 73.0508 47.3609C72.4193 47.2463 71.7424 47.3083 71.0525 47.303C70.3626 47.3101 69.6544 47.3178 68.9296 47.3255C57.3217 47.436 41.2956 47.5884 23.5954 47.7568C22.5127 47.7657 21.4519 48.1983 20.6799 48.9351C19.9014 49.6661 19.4206 50.6883 19.3449 51.7384C19.3131 52.2596 19.3444 52.8097 19.3408 53.3409C19.3325 53.881 19.3656 54.3933 19.5174 54.8944C19.8045 55.8913 20.4625 56.7617 21.319 57.3142C21.7454 57.5937 22.2227 57.7893 22.7159 57.8957C23.2103 58.0079 23.7124 58.0038 24.2286 57.9961C25.2529 57.9873 26.2676 57.979 27.2718 57.9707C29.2795 57.9542 31.2452 57.9382 33.1632 57.9223C40.8337 57.8632 47.7416 57.81 53.5444 57.7657C59.3424 57.729 64.0347 57.6989 67.2852 57.6782C68.903 57.6729 70.1606 57.6682 71.0212 57.6652C71.4441 57.6664 71.7678 57.667 71.9929 57.667C72.2114 57.6699 72.3236 57.6758 72.3236 57.6758C72.3236 57.6758 72.2114 57.6841 71.9929 57.6894C71.7678 57.6936 71.4441 57.7001 71.0212 57.7089C70.1612 57.7213 68.9036 57.7391 67.2858 57.7621C64.0353 57.7988 59.343 57.8519 53.5455 57.9175C47.7422 57.9754 40.8348 58.044 33.1644 58.1202C31.2464 58.1385 29.2807 58.1568 27.273 58.1757C26.2688 58.1852 25.2546 58.1947 24.2298 58.2041C23.7236 58.2124 23.1879 58.2177 22.6704 58.1001C22.153 57.989 21.6521 57.784 21.205 57.4915C20.3066 56.913 19.6155 56.0006 19.3142 54.9547C19.1548 54.4371 19.1199 53.8722 19.1288 53.3439C19.1323 52.805 19.1004 52.2802 19.1329 51.7242C19.2115 50.6222 19.7171 49.5485 20.5334 48.7815C21.3432 48.0074 22.4584 47.553 23.5937 47.5441C41.2944 47.4005 57.3205 47.2699 68.9285 47.1754C69.6538 47.1701 70.3614 47.1653 71.0513 47.16C71.7383 47.1683 72.4158 47.1074 73.075 47.228C74.3904 47.4632 75.466 48.2958 76.0697 49.2891C76.3757 49.7866 76.57 50.3261 76.661 50.8603C76.7572 51.398 76.7253 51.9186 76.7348 52.4097C76.7348 52.9019 76.7567 53.377 76.6976 53.8308C76.648 54.284 76.5097 54.7 76.3467 55.0741C76.01 55.8233 75.5139 56.3847 75.0142 56.7641C74.515 57.1493 74.0195 57.3644 73.6119 57.4944C73.199 57.6114 72.873 57.6569 72.6544 57.6682C72.4359 57.6764 72.3236 57.6758 72.3236 57.6758Z" fill="black"/>
<path d="M73.162 52.1915C73.1413 52.1927 73.1419 52.0231 73.0586 51.74C72.9759 51.4623 72.7786 51.0587 72.3557 50.7532C71.947 50.4465 71.2813 50.2811 70.6428 50.5275C70.0096 50.7538 69.4685 51.4351 69.4827 52.2234C69.4821 53.0123 70.0355 53.6841 70.6723 53.8992C71.3149 54.1344 71.9777 53.9571 72.3811 53.6434C72.7987 53.3302 72.9883 52.9236 73.0663 52.6441C73.1449 52.3599 73.1413 52.1903 73.162 52.1915C73.1691 52.1915 73.175 52.2329 73.1785 52.3132C73.1838 52.3936 73.1773 52.5135 73.1472 52.6642C73.0911 52.9614 72.9133 53.4076 72.4739 53.7633C72.0497 54.119 71.325 54.3359 70.6067 54.0859C69.8956 53.8584 69.2677 53.1104 69.2689 52.2264C69.2529 51.3424 69.8666 50.5836 70.5737 50.3437C71.2866 50.0808 72.0155 50.2846 72.4455 50.6333C72.8915 50.9813 73.0769 51.4239 73.1384 51.7199C73.1708 51.87 73.1797 51.99 73.1756 52.0698C73.1738 52.1495 73.1691 52.1915 73.162 52.1915Z" fill="black"/>
<path d="M74.233 55.4472C74.1898 55.488 73.7716 55.1127 73.2991 54.6099C72.8266 54.107 72.4781 53.6662 72.5212 53.626C72.5643 53.5858 72.9819 53.9605 73.455 54.4633C73.9276 54.9662 74.2761 55.407 74.233 55.4472Z" fill="black"/>
<path d="M26.9784 51.8022L25.9535 51.8111L25.9512 51.5446L28.3091 51.5239L28.3115 51.7904L27.2867 51.7993L27.3103 54.4501L27.002 54.4531L26.9784 51.8022Z" fill="#E0E0E0"/>
<path d="M30.4337 53.4186L28.6003 53.4346C28.6375 53.8925 28.9901 54.1939 29.4692 54.1897C29.7356 54.1874 29.9724 54.0893 30.1378 53.8961L30.3062 54.0863C30.1124 54.3215 29.8094 54.4491 29.4639 54.4521C28.7804 54.458 28.3097 53.9953 28.3038 53.3453C28.2979 52.6953 28.748 52.2285 29.3646 52.2232C29.9813 52.2179 30.4308 52.6681 30.4367 53.327C30.4379 53.3518 30.4337 53.3849 30.4337 53.4186ZM28.5991 53.2136L30.1532 53.2C30.1118 52.771 29.7964 52.4737 29.3676 52.4779C28.9423 52.4814 28.6328 52.784 28.5991 53.2136Z" fill="#E0E0E0"/>
<path d="M32.3842 54.4056L31.6807 53.495L30.9884 54.418L30.6553 54.4209L31.5117 53.2882L30.6777 52.2287L31.0109 52.2257L31.6765 53.0784L32.3269 52.2139L32.6517 52.2109L31.836 53.2852L32.7209 54.4026L32.3842 54.4056Z" fill="#E0E0E0"/>
<path d="M34.3661 54.2545C34.2503 54.3597 34.0754 54.4111 33.9047 54.4129C33.4924 54.4164 33.2609 54.1854 33.2574 53.7806L33.2455 52.4552L32.8539 52.4587L32.8516 52.2088L33.2432 52.2052L33.239 51.726L33.535 51.7236L33.5391 52.2029L34.206 52.197L34.2083 52.4469L33.5415 52.4528L33.5533 53.7617C33.5556 54.0199 33.6903 54.1605 33.936 54.1582C34.0571 54.157 34.1776 54.1186 34.2603 54.043L34.3661 54.2545Z" fill="#E0E0E0"/>
<path d="M34.3534 66.7047L21.7773 66.8154L21.888 79.3965L34.464 79.2858L34.3534 66.7047Z" fill="#3DB8DB"/>
<path d="M58.5553 67.7541C58.5559 67.8132 54.3509 67.8983 49.1654 67.9438C43.9775 67.9893 39.7731 67.9786 39.7725 67.9195C39.7719 67.8604 43.9757 67.7754 49.1636 67.7299C54.3497 67.6844 58.5547 67.695 58.5553 67.7541Z" fill="#3DB8DB"/>
<path d="M73.5662 71.4784C73.5668 71.5375 66.0091 71.6522 56.6877 71.7343C47.3633 71.8164 39.8063 71.8353 39.8057 71.7763C39.8051 71.7172 47.361 71.6025 56.6859 71.5204C66.0074 71.4377 73.5656 71.4193 73.5662 71.4784Z" fill="black"/>
<path d="M73.1941 74.2356C73.1947 74.2947 65.7256 74.4087 56.514 74.4897C47.2995 74.5712 39.8316 74.589 39.8311 74.5299C39.8305 74.4708 47.2978 74.3573 56.5123 74.2758C65.7238 74.1948 73.1935 74.1771 73.1941 74.2356Z" fill="black"/>
<path d="M59.5519 76.9842C59.5525 77.0433 55.1431 77.1302 49.7042 77.1781C44.2635 77.2259 39.8541 77.2171 39.8535 77.158C39.8529 77.0989 44.2617 77.012 49.7024 76.9641C55.1407 76.9157 59.5513 76.9252 59.5519 76.9842Z" fill="black"/>
<path d="M34.537 87.5792L21.9609 87.6899L22.0716 100.271L34.6476 100.16L34.537 87.5792Z" fill="#3DB8DB"/>
<path d="M58.7399 88.7145C58.7405 88.7736 54.536 88.8587 49.3499 88.9042C44.162 88.9497 39.9576 88.9391 39.957 88.88C39.9564 88.8209 44.1603 88.7358 49.3481 88.6903C54.5337 88.6448 58.7393 88.6554 58.7399 88.7145Z" fill="#3DB8DB"/>
<path d="M73.7508 92.4385C73.7514 92.4976 66.1937 92.6122 56.8723 92.6943C47.5479 92.7765 39.9908 92.7954 39.9902 92.7363C39.9896 92.6772 47.5455 92.5626 56.8699 92.4804C66.1913 92.3983 73.7502 92.38 73.7508 92.4385Z" fill="black"/>
<path d="M73.3777 95.1963C73.3783 95.2554 65.9092 95.3695 56.6976 95.4504C47.4831 95.532 40.0152 95.5497 40.0146 95.4906C40.0141 95.4315 47.4814 95.3181 56.6959 95.2365C65.908 95.1556 73.3777 95.1372 73.3777 95.1963Z" fill="black"/>
<path d="M59.7365 97.9443C59.737 98.0033 55.3271 98.0902 49.8887 98.1381C44.4481 98.1859 40.0387 98.1771 40.0381 98.118C40.0375 98.0589 44.4463 97.972 49.887 97.9242C55.3253 97.8763 59.7359 97.8858 59.7365 97.9443Z" fill="black"/>
<path d="M34.7215 108.54L22.1455 108.651L22.2562 121.232L34.8322 121.121L34.7215 108.54Z" fill="black"/>
<path d="M58.9254 109.674C58.926 109.733 54.721 109.818 49.5355 109.864C44.3476 109.909 40.1432 109.898 40.1426 109.839C40.142 109.78 44.3458 109.695 49.5337 109.65C54.7192 109.604 58.9248 109.615 58.9254 109.674Z" fill="#3DB8DB"/>
<path d="M73.9363 113.398C73.9369 113.457 66.3792 113.572 57.0578 113.654C47.7335 113.736 40.1764 113.755 40.1758 113.696C40.1752 113.637 47.7311 113.522 57.0555 113.44C66.3775 113.358 73.9363 113.339 73.9363 113.398Z" fill="black"/>
<path d="M73.5632 116.156C73.5638 116.215 66.0947 116.329 56.8832 116.41C47.6687 116.491 40.2008 116.509 40.2002 116.45C40.1996 116.391 47.6669 116.277 56.8814 116.196C66.093 116.115 73.5626 116.097 73.5632 116.156Z" fill="black"/>
<path d="M59.922 118.904C59.9226 118.963 55.5132 119.05 50.0743 119.098C44.6336 119.146 40.2242 119.137 40.2236 119.078C40.223 119.019 44.6318 118.932 50.0725 118.884C55.5114 118.836 59.922 118.845 59.922 118.904Z" fill="black"/>
<path d="M34.9051 129.501L22.3291 129.612L22.4398 142.193L35.0158 142.082L34.9051 129.501Z" fill="#3DB8DB"/>
<path d="M59.11 130.634C59.1106 130.693 54.9056 130.778 49.72 130.824C44.5322 130.869 40.3277 130.859 40.3271 130.799C40.3266 130.74 44.5304 130.655 49.7183 130.61C54.9038 130.564 59.1094 130.575 59.11 130.634Z" fill="black"/>
<path d="M74.1209 134.359C74.1215 134.418 66.5638 134.532 57.2424 134.615C47.918 134.697 40.3609 134.716 40.3604 134.656C40.3598 134.597 47.9157 134.483 57.2406 134.401C66.562 134.318 74.1203 134.3 74.1209 134.359Z" fill="black"/>
<path d="M73.7478 137.116C73.7484 137.175 66.2793 137.289 57.0677 137.37C47.8532 137.452 40.3854 137.47 40.3848 137.411C40.3842 137.351 47.8515 137.237 57.066 137.156C66.2775 137.075 73.7472 137.057 73.7478 137.116Z" fill="black"/>
<path d="M60.1066 139.864C60.1072 139.923 55.6978 140.01 50.2589 140.058C44.8182 140.106 40.4088 140.097 40.4082 140.038C40.4076 139.979 44.8164 139.892 50.2571 139.844C55.6954 139.796 60.106 139.805 60.1066 139.864Z" fill="black"/>
<path d="M35.0887 150.462L22.5127 150.573L22.6234 163.154L35.1994 163.043L35.0887 150.462Z" fill="#E0E0E0"/>
<path d="M59.2945 151.594C59.2951 151.654 55.0907 151.739 49.9046 151.784C44.7167 151.83 40.5123 151.819 40.5117 151.76C40.5111 151.701 44.715 151.616 49.9028 151.57C55.089 151.525 59.2945 151.535 59.2945 151.594Z" fill="#E0E0E0"/>
<path d="M74.3055 155.319C74.306 155.378 66.7484 155.493 57.427 155.575C48.1026 155.657 40.5455 155.676 40.5449 155.617C40.5443 155.558 48.1002 155.443 57.4246 155.361C66.7466 155.279 74.3049 155.26 74.3055 155.319Z" fill="#EBEBEB"/>
<path d="M73.9333 158.076C73.9339 158.135 66.4649 158.25 57.2533 158.33C48.0388 158.412 40.5703 158.43 40.5703 158.371C40.5697 158.312 48.037 158.198 57.2515 158.117C66.4631 158.035 73.9327 158.017 73.9333 158.076Z" fill="#EBEBEB"/>
<path d="M60.2911 160.824C60.2917 160.883 55.8824 160.97 50.4434 161.018C45.0027 161.066 40.5934 161.057 40.5928 160.998C40.5922 160.939 45.001 160.852 50.4417 160.804C55.88 160.756 60.2906 160.765 60.2911 160.824Z" fill="#EBEBEB"/>
<g opacity="0.3">
<path d="M34.9051 129.501L22.3291 129.612L22.4398 142.193L35.0158 142.082L34.9051 129.501Z" fill="black"/>
</g>
<path d="M222.311 164.479L215.321 164.429C214.384 164.423 213.618 165.21 213.612 166.187L213.603 167.452C213.597 168.429 212.832 169.217 211.894 169.211L198.27 169.115C197.333 169.109 196.577 168.311 196.584 167.333L196.593 166.069C196.599 165.091 195.844 164.293 194.907 164.286L192.449 164.269L186.331 164.226C183.293 164.205 180.813 166.645 180.793 169.677L180.284 226.393C180.264 229.423 182.709 231.895 185.746 231.917L221.724 232.168C224.762 232.19 227.242 229.75 227.262 226.718L227.77 170.001C227.792 166.972 225.347 164.5 222.311 164.479Z" fill="white"/>
<path d="M222.31 164.479C222.4 164.483 222.556 164.491 222.894 164.508C223.275 164.563 223.854 164.647 224.546 164.959C225.225 165.275 226.046 165.796 226.702 166.694C227.379 167.566 227.846 168.837 227.792 170.279C227.746 176.019 227.678 184.311 227.594 194.557C227.551 199.682 227.503 205.296 227.451 211.321C227.425 214.334 227.398 217.451 227.37 220.661C227.357 222.265 227.342 223.894 227.328 225.544C227.31 226.363 227.369 227.212 227.145 228.036C226.936 228.853 226.545 229.634 225.985 230.281C225.425 230.928 224.715 231.45 223.919 231.792C223.121 232.135 222.233 232.247 221.366 232.223C219.632 232.212 217.878 232.2 216.105 232.187C212.559 232.163 208.94 232.138 205.254 232.113C201.569 232.088 197.818 232.062 194.012 232.035C192.109 232.022 190.192 232.008 188.263 231.995C187.296 231.979 186.333 232.001 185.355 231.955C184.373 231.896 183.418 231.532 182.604 230.978C181.797 230.408 181.136 229.634 180.732 228.736C180.294 227.85 180.196 226.837 180.228 225.877C180.246 223.946 180.263 222.028 180.28 220.123C180.314 216.314 180.349 212.562 180.382 208.874C180.449 201.499 180.514 194.385 180.576 187.608C180.607 184.22 180.638 180.915 180.668 177.705C180.682 176.1 180.697 174.518 180.711 172.961C180.718 172.182 180.726 171.41 180.733 170.644C180.743 169.883 180.715 169.107 180.913 168.367C181.28 166.888 182.278 165.62 183.555 164.902C184.193 164.54 184.897 164.31 185.61 164.225C186.329 164.147 187.034 164.194 187.733 164.189C189.131 164.199 190.501 164.209 191.841 164.219C192.512 164.225 193.175 164.229 193.83 164.235C194.158 164.237 194.484 164.24 194.808 164.242C195.135 164.232 195.473 164.311 195.755 164.48C196.329 164.813 196.655 165.476 196.635 166.111C196.632 166.424 196.63 166.735 196.628 167.043C196.619 167.354 196.619 167.655 196.727 167.938C196.917 168.504 197.416 168.946 197.989 169.047C198.564 169.105 199.163 169.071 199.735 169.087C202.042 169.105 204.218 169.122 206.254 169.137C208.288 169.153 210.181 169.168 211.925 169.181C212.809 169.185 213.498 168.417 213.565 167.639C213.587 167.248 213.576 166.855 213.584 166.479C213.575 166.105 213.602 165.716 213.774 165.392C214.086 164.726 214.8 164.354 215.439 164.41C216.074 164.415 216.668 164.421 217.22 164.426C218.321 164.436 219.253 164.444 220.01 164.451C221.449 164.468 222.109 164.476 222.31 164.479C222.109 164.478 221.449 164.478 220.009 164.475C219.253 164.472 218.32 164.467 217.219 164.462C216.667 164.459 216.074 164.456 215.439 164.452C214.809 164.4 214.12 164.764 213.816 165.413C213.65 165.731 213.624 166.101 213.634 166.48C213.628 166.859 213.64 167.243 213.617 167.645C213.551 168.445 212.842 169.241 211.925 169.239C210.181 169.229 208.288 169.218 206.253 169.206C204.218 169.193 202.042 169.179 199.734 169.165C199.155 169.149 198.577 169.186 197.974 169.126C197.371 169.021 196.848 168.557 196.648 167.965C196.535 167.672 196.536 167.347 196.543 167.043C196.545 166.734 196.547 166.423 196.549 166.111C196.568 165.499 196.256 164.871 195.709 164.555C195.439 164.395 195.127 164.32 194.806 164.33C194.482 164.328 194.156 164.326 193.828 164.324C193.173 164.32 192.51 164.315 191.84 164.311C190.499 164.302 189.129 164.293 187.731 164.284C187.033 164.29 186.321 164.245 185.621 164.322C184.92 164.406 184.229 164.632 183.603 164.989C182.348 165.695 181.369 166.941 181.011 168.393C180.816 169.117 180.845 169.88 180.835 170.647C180.828 171.413 180.822 172.185 180.815 172.964C180.801 174.521 180.788 176.102 180.774 177.707C180.746 180.918 180.717 184.222 180.688 187.61C180.628 194.388 180.565 201.502 180.5 208.877C180.467 212.565 180.434 216.317 180.401 220.126C180.384 222.03 180.366 223.948 180.349 225.879C180.319 226.84 180.414 227.815 180.842 228.686C181.238 229.564 181.884 230.32 182.673 230.879C183.47 231.419 184.402 231.776 185.363 231.834C186.325 231.879 187.299 231.858 188.262 231.873C190.192 231.887 192.109 231.9 194.012 231.914C197.818 231.941 201.568 231.968 205.254 231.994C208.939 232.02 212.559 232.046 216.105 232.071C217.877 232.084 219.631 232.096 221.366 232.109C222.229 232.132 223.088 232.023 223.872 231.687C224.652 231.353 225.348 230.841 225.897 230.209C226.446 229.574 226.829 228.81 227.034 228.009C227.254 227.207 227.197 226.369 227.216 225.544C227.231 223.894 227.246 222.265 227.261 220.661C227.291 217.451 227.32 214.334 227.347 211.321C227.404 205.295 227.457 199.682 227.505 194.557C227.605 184.311 227.686 176.019 227.743 170.28C227.799 168.846 227.34 167.587 226.67 166.716C226.021 165.822 225.207 165.3 224.533 164.982C223.846 164.668 223.271 164.58 222.891 164.521C222.555 164.496 222.4 164.485 222.31 164.479Z" fill="black"/>
<path d="M223.078 180.7L185.062 180.609L184.998 207.017L223.015 207.108L223.078 180.7Z" fill="#3DB8DB"/>
<path d="M209.556 193.82C209.549 196.868 207.073 199.334 204.025 199.326C200.978 199.319 198.514 196.842 198.522 193.793C198.529 190.745 201.005 188.279 204.052 188.287C207.099 188.294 209.563 190.771 209.556 193.82Z" fill="white"/>
<path d="M202.681 193.803L202.687 191.317L204.836 192.565L206.986 193.814L204.83 195.052L202.675 196.291L202.681 193.803Z" fill="#3DB8DB"/>
<path d="M189.104 210.975L189.106 210.549C189.106 210.512 189.147 210.487 189.18 210.507L189.548 210.721L189.916 210.935C189.949 210.954 189.949 211.001 189.916 211.02L189.547 211.233L189.178 211.444C189.145 211.463 189.104 211.439 189.104 211.401V210.975Z" fill="black"/>
<path d="M192.557 210.65L192.236 210.649C192.209 210.649 192.187 210.671 192.187 210.699L192.186 210.983L192.186 211.266C192.186 211.293 192.207 211.316 192.235 211.316L192.555 211.316L193.047 211.811L193.049 210.984L193.051 210.158L192.557 210.65Z" fill="black"/>
<path d="M190.212 211.489C190.166 211.489 190.128 211.451 190.128 211.404L190.13 210.551C190.13 210.505 190.168 210.467 190.215 210.467C190.261 210.467 190.299 210.505 190.299 210.552L190.297 211.405C190.297 211.451 190.259 211.489 190.212 211.489Z" fill="black"/>
<path d="M193.25 210.468L193.249 210.605L193.248 211.364L193.247 211.501C193.455 211.421 193.603 211.221 193.604 210.985C193.604 210.75 193.457 210.549 193.25 210.468Z" fill="black"/>
<path d="M193.251 210.074L193.251 210.289C193.553 210.376 193.775 210.655 193.774 210.986C193.773 211.317 193.551 211.595 193.248 211.68L193.247 211.896C193.666 211.806 193.982 211.433 193.983 210.987C193.984 210.54 193.671 210.166 193.251 210.074Z" fill="black"/>
<path d="M195.916 210.651L195.913 211.653L195.772 211.653L195.774 210.775L195.548 210.775V210.65L195.916 210.651Z" fill="black"/>
<path d="M196.131 210.985C196.131 210.927 196.176 210.888 196.228 210.888C196.28 210.888 196.323 210.928 196.322 210.985C196.322 211.043 196.279 211.084 196.228 211.084C196.174 211.083 196.13 211.042 196.131 210.985ZM196.129 211.563C196.129 211.505 196.174 211.466 196.226 211.466C196.278 211.466 196.321 211.506 196.32 211.563C196.32 211.62 196.277 211.662 196.226 211.662C196.173 211.662 196.129 211.62 196.129 211.563Z" fill="black"/>
<path d="M196.457 211.153C196.458 210.827 196.633 210.641 196.868 210.642C197.101 210.642 197.275 210.828 197.274 211.155C197.273 211.481 197.098 211.667 196.865 211.666C196.631 211.666 196.456 211.48 196.457 211.153ZM197.131 211.155C197.132 210.898 197.023 210.769 196.867 210.769C196.71 210.768 196.601 210.897 196.6 211.153C196.599 211.41 196.708 211.539 196.865 211.539C197.022 211.539 197.13 211.411 197.131 211.155Z" fill="black"/>
<path d="M197.719 210.655L197.716 211.657L197.574 211.657L197.577 210.779L197.351 210.778L197.351 210.654L197.719 210.655Z" fill="black"/>
<path d="M198.686 210.454H198.811L198.336 211.801H198.211L198.686 210.454Z" fill="black"/>
<path d="M199.998 211.379C199.997 211.561 199.842 211.673 199.598 211.673C199.355 211.672 199.202 211.559 199.202 211.377C199.202 211.263 199.265 211.178 199.379 211.135C199.287 211.092 199.239 211.018 199.239 210.919C199.239 210.751 199.384 210.647 199.6 210.648C199.818 210.649 199.964 210.753 199.963 210.921C199.963 211.02 199.913 211.094 199.821 211.137C199.935 211.181 199.998 211.264 199.998 211.379ZM199.855 211.374C199.855 211.264 199.758 211.195 199.599 211.195C199.44 211.194 199.346 211.263 199.346 211.373C199.346 211.486 199.44 211.557 199.599 211.557C199.757 211.557 199.854 211.488 199.855 211.374ZM199.381 210.925C199.381 211.024 199.461 211.085 199.599 211.086C199.738 211.086 199.822 211.025 199.823 210.926C199.823 210.826 199.734 210.764 199.6 210.764C199.466 210.764 199.381 210.825 199.381 210.925Z" fill="black"/>
<path d="M200.128 210.994C200.128 210.937 200.173 210.897 200.225 210.897C200.277 210.897 200.32 210.938 200.319 210.995C200.319 211.052 200.276 211.094 200.225 211.094C200.171 211.093 200.127 211.052 200.128 210.994ZM200.126 211.573C200.126 211.516 200.171 211.476 200.223 211.476C200.275 211.476 200.318 211.516 200.317 211.573C200.317 211.631 200.274 211.672 200.223 211.672C200.17 211.672 200.126 211.63 200.126 211.573Z" fill="black"/>
<path d="M200.454 211.163C200.455 210.836 200.63 210.65 200.865 210.651C201.098 210.651 201.272 210.838 201.271 211.164C201.27 211.491 201.095 211.676 200.862 211.676C200.628 211.676 200.454 211.489 200.454 211.163ZM201.128 211.164C201.129 210.908 201.02 210.779 200.864 210.779C200.707 210.778 200.598 210.907 200.597 211.163C200.596 211.42 200.705 211.548 200.862 211.549C201.019 211.549 201.127 211.42 201.128 211.164Z" fill="black"/>
<path d="M201.408 211.165C201.409 210.839 201.584 210.653 201.819 210.653C202.052 210.654 202.226 210.841 202.225 211.167C202.225 211.493 202.049 211.679 201.816 211.678C201.581 211.677 201.408 211.491 201.408 211.165ZM202.082 211.166C202.083 210.91 201.975 210.781 201.818 210.78C201.661 210.78 201.552 210.909 201.551 211.165C201.551 211.422 201.659 211.55 201.816 211.551C201.972 211.551 202.082 211.423 202.082 211.166Z" fill="black"/>
<path d="M185.452 211.483C185.358 211.483 185.283 211.407 185.283 211.314L185.286 210.432C185.286 210.338 185.362 210.263 185.455 210.263C185.548 210.263 185.623 210.339 185.623 210.432L185.62 211.314C185.62 211.408 185.545 211.483 185.452 211.483Z" fill="black"/>
<path d="M186.217 211.485C186.124 211.485 186.049 211.409 186.049 211.316L186.051 210.434C186.051 210.34 186.127 210.265 186.22 210.265C186.313 210.265 186.388 210.341 186.388 210.434L186.386 211.316C186.386 211.41 186.31 211.485 186.217 211.485Z" fill="black"/>
<path d="M222.829 209.453L185.354 209.364C185.155 209.363 184.994 209.201 184.994 209.002C184.995 208.803 185.157 208.642 185.356 208.642L222.831 208.732C223.03 208.733 223.191 208.894 223.191 209.093C223.19 209.293 223.028 209.454 222.829 209.453Z" fill="#E0E0E0"/>
<path d="M199.127 209.397L185.354 209.364C185.155 209.363 184.994 209.201 184.994 209.002C184.995 208.803 185.157 208.642 185.356 208.642L199.128 208.675C199.301 208.676 199.441 208.816 199.441 208.989V209.084C199.44 209.257 199.3 209.397 199.127 209.397Z" fill="#3DB8DB"/>
<path d="M199.805 209.038C199.804 209.418 199.495 209.726 199.115 209.724C198.735 209.724 198.428 209.415 198.429 209.034C198.429 208.654 198.738 208.346 199.119 208.348C199.498 208.348 199.806 208.657 199.805 209.038Z" fill="#3DB8DB"/>
<path d="M222.893 216.098C222.893 216.183 214.518 216.231 204.19 216.207C193.858 216.182 185.485 216.093 185.485 216.008C185.485 215.923 193.859 215.874 204.19 215.899C214.518 215.924 222.893 216.012 222.893 216.098Z" fill="black"/>
<path d="M222.884 219.797C222.884 219.882 214.509 219.931 204.181 219.906C193.849 219.881 185.476 219.792 185.477 219.707C185.477 219.622 193.85 219.574 204.182 219.598C214.509 219.623 222.884 219.711 222.884 219.797Z" fill="black"/>
<path d="M222.876 223.496C222.876 223.581 214.501 223.63 204.173 223.605C193.841 223.581 185.468 223.492 185.469 223.407C185.469 223.322 193.842 223.273 204.174 223.297C214.502 223.322 222.876 223.411 222.876 223.496Z" fill="black"/>
<path d="M222.546 62.3751L215.556 62.3432C214.62 62.339 213.856 63.1279 213.852 64.1053L213.846 65.3698C213.843 66.3472 213.079 67.1366 212.142 67.1319L198.518 67.0693C197.581 67.0651 196.824 66.2692 196.828 65.2912L196.834 64.0267C196.838 63.0493 196.081 62.2528 195.144 62.2486L192.685 62.2368L186.568 62.209C183.529 62.1949 181.056 64.6418 181.043 67.6726L180.67 155.679C180.657 158.709 183.108 161.175 186.144 161.189L222.123 161.355C225.161 161.369 227.635 158.924 227.647 155.892L228.02 67.8847C228.033 64.8551 225.583 62.3887 222.546 62.3751Z" fill="white"/>
<path d="M222.546 62.3751C222.585 62.3769 222.635 62.3786 222.734 62.3822C222.858 62.3946 223.047 62.381 223.29 62.4283C223.776 62.4874 224.515 62.6481 225.346 63.1462C226.17 63.629 227.094 64.49 227.637 65.8035C227.906 66.4565 228.051 67.2188 228.041 68.0325C228.038 68.8432 228.035 69.7065 228.032 70.6212C228.006 77.9432 227.968 88.527 227.921 101.605C227.869 114.688 227.807 130.263 227.739 147.557C227.73 149.719 227.722 151.908 227.713 154.122C227.68 155.22 227.811 156.359 227.471 157.456C227.304 157.996 227.061 158.514 226.745 158.988C226.418 159.454 226.025 159.873 225.577 160.228C224.678 160.929 223.553 161.367 222.397 161.402C221.248 161.424 220.104 161.399 218.948 161.4C216.64 161.39 214.309 161.38 211.957 161.369C207.254 161.348 202.467 161.326 197.61 161.304C195.181 161.293 192.734 161.281 190.272 161.27C189.04 161.264 187.805 161.259 186.566 161.253C185.323 161.311 184.039 160.982 183.001 160.261C181.961 159.544 181.191 158.463 180.834 157.261C180.643 156.662 180.607 156.024 180.609 155.407C180.612 154.789 180.615 154.172 180.617 153.556C180.628 151.091 180.638 148.643 180.648 146.213C180.669 141.352 180.69 136.562 180.71 131.856C180.751 122.443 180.791 113.365 180.829 104.715C180.867 96.067 180.904 87.8486 180.938 80.1567C180.956 76.3111 180.973 72.5972 180.989 69.027C181.01 68.1406 180.928 67.24 181.161 66.3791C181.376 65.5258 181.778 64.7234 182.353 64.0787C182.921 63.4305 183.63 62.9199 184.407 62.5908C185.187 62.2646 186.032 62.1505 186.851 62.1683C188.485 62.1765 190.08 62.1842 191.636 62.1925C192.413 62.1966 193.18 62.2008 193.937 62.2043C194.316 62.2061 194.692 62.2085 195.065 62.2102C195.444 62.1978 195.828 62.316 196.132 62.5394C196.434 62.7633 196.664 63.0806 196.777 63.434C196.904 63.7897 196.865 64.1644 196.87 64.5171C196.877 64.8723 196.844 65.2357 196.888 65.5749C196.937 65.9164 197.092 66.2385 197.319 66.4902C197.546 66.7437 197.849 66.921 198.174 66.9954C198.5 67.061 198.845 67.0267 199.179 67.038C199.851 67.0415 200.511 67.045 201.16 67.048C203.757 67.0616 206.173 67.0746 208.398 67.0864C209.511 67.0923 210.575 67.0982 211.59 67.1035C211.842 67.1 212.097 67.1177 212.338 67.0947C212.58 67.0663 212.811 66.9818 213.011 66.8548C213.416 66.6019 213.69 66.1835 213.781 65.7421C213.857 65.2989 213.81 64.8457 213.827 64.4167C213.809 63.99 213.859 63.5469 214.075 63.1935C214.278 62.8366 214.6 62.5665 214.96 62.433C215.321 62.2835 215.702 62.3325 216.049 62.3266C217.455 62.3355 218.646 62.3426 219.61 62.3491C221.476 62.3656 222.341 62.3733 222.546 62.3751C222.342 62.3751 221.476 62.3745 219.61 62.3739C218.646 62.371 217.456 62.3674 216.05 62.3633C215.7 62.3704 215.325 62.3231 214.975 62.4702C214.625 62.6014 214.31 62.8655 214.113 63.2148C213.902 63.5634 213.854 63.9853 213.873 64.4167C213.857 64.8486 213.906 65.2912 213.829 65.7515C213.736 66.2048 213.455 66.6356 213.039 66.8967C212.833 67.0273 212.594 67.1154 212.345 67.1449C212.092 67.1691 211.845 67.1514 211.59 67.1555C210.576 67.1514 209.511 67.1479 208.399 67.1437C206.174 67.1349 203.757 67.1254 201.161 67.1154C200.512 67.113 199.851 67.11 199.18 67.1077C198.844 67.0959 198.506 67.1325 198.159 67.0645C197.819 66.9865 197.502 66.8016 197.265 66.5375C197.027 66.2757 196.865 65.94 196.814 65.5843C196.769 65.2239 196.802 64.874 196.793 64.5148C196.789 64.1567 196.825 63.7933 196.704 63.4559C196.595 63.1173 196.375 62.8141 196.086 62.6002C195.491 62.1346 194.679 62.3308 193.937 62.2829C193.18 62.28 192.413 62.2764 191.636 62.2735C190.08 62.267 188.485 62.2605 186.851 62.2534C186.037 62.2368 185.211 62.3497 184.442 62.6711C183.678 62.9955 182.98 63.4984 182.422 64.1366C181.856 64.7712 181.462 65.5607 181.251 66.3992C181.024 67.2406 181.104 68.1341 181.084 69.0252C181.07 72.5955 181.056 76.3093 181.041 80.155C181.01 87.8468 180.977 96.0652 180.942 104.714C180.907 113.363 180.869 122.442 180.83 131.854C180.811 136.561 180.791 141.35 180.771 146.211C180.761 148.641 180.75 151.089 180.74 153.554C180.738 154.17 180.735 154.787 180.732 155.405C180.731 156.021 180.765 156.636 180.951 157.224C181.301 158.399 182.054 159.456 183.071 160.158C184.09 160.863 185.331 161.184 186.566 161.128C187.805 161.134 189.041 161.139 190.272 161.145C192.734 161.156 195.181 161.167 197.61 161.179C202.467 161.202 207.254 161.224 211.957 161.246C214.309 161.257 216.639 161.268 218.948 161.279C220.101 161.279 221.254 161.303 222.391 161.282C223.523 161.248 224.624 160.82 225.505 160.134C225.943 159.786 226.328 159.376 226.648 158.919C226.957 158.455 227.195 157.949 227.36 157.42C227.692 156.355 227.564 155.223 227.597 154.12C227.607 151.906 227.616 149.717 227.626 147.555C227.704 130.261 227.775 114.686 227.834 101.603C227.898 88.5258 227.949 77.9414 227.984 70.62C227.944 68.8042 228.191 67.129 227.603 65.8165C227.067 64.51 226.152 63.6509 225.334 63.1663C224.509 62.667 223.773 62.5027 223.289 62.4395C223.046 62.3905 222.858 62.4023 222.734 62.3875C222.635 62.3816 222.585 62.378 222.546 62.3751Z" fill="black"/>
<path d="M221.869 75.1271C221.869 75.2134 214.27 75.2825 204.899 75.2825C195.523 75.2825 187.927 75.2128 187.927 75.1271C187.927 75.0408 195.523 74.9717 204.899 74.9717C214.27 74.9717 221.869 75.0414 221.869 75.1271Z" fill="black"/>
<path d="M220.35 131.791H189.506V153.216H220.35V131.791Z" fill="#3DB8DB"/>
<path d="M158.415 83.8991L147.944 83.8932C146.54 83.8926 145.401 85.0827 145.401 86.5505L145.4 88.4509C145.4 89.9193 144.262 91.1094 142.858 91.1088L122.447 91.097C121.043 91.0964 119.905 89.9051 119.905 88.4361L119.905 86.5357C119.905 85.0673 118.767 83.8761 117.363 83.8749L113.68 83.8725L104.515 83.8672C99.9634 83.8648 96.2723 87.5545 96.2711 92.108L96.2451 224.32C96.2439 228.872 99.9303 232.562 104.48 232.565L158.38 232.596C162.931 232.599 166.623 228.909 166.624 224.355L166.65 92.1423C166.65 87.5923 162.965 83.9021 158.415 83.8991Z" fill="white"/>
<path d="M158.416 83.8991C158.416 83.8991 158.51 83.8997 158.698 83.9074C158.884 83.9251 159.168 83.9032 159.533 83.9724C160.263 84.0586 161.375 84.2956 162.624 85.0402C163.255 85.3959 163.897 85.9082 164.504 86.5641C165.109 87.2206 165.671 88.0414 166.073 89.0252C166.481 90.0056 166.702 91.1502 166.69 92.3716C166.692 93.5888 166.693 94.8847 166.695 96.2574C166.702 107.241 166.711 123.131 166.723 142.764C166.726 162.4 166.73 185.78 166.734 211.739C166.734 214.985 166.734 218.27 166.734 221.593C166.734 222.424 166.734 223.257 166.734 224.093C166.725 224.93 166.671 225.792 166.418 226.607C166.181 227.423 165.843 228.218 165.366 228.93C164.89 229.642 164.311 230.286 163.649 230.835C162.309 231.911 160.631 232.597 158.891 232.683C157.163 232.734 155.448 232.696 153.712 232.707C150.247 232.705 146.748 232.704 143.218 232.702C136.158 232.698 128.974 232.695 121.683 232.691C118.037 232.689 114.365 232.687 110.668 232.685C108.82 232.684 106.965 232.684 105.105 232.682C103.238 232.777 101.3 232.285 99.7387 231.2C98.1699 230.122 97.0122 228.494 96.4723 226.686C96.1817 225.785 96.1279 224.824 96.1279 223.898C96.1279 222.97 96.1285 222.044 96.1285 221.119C96.1297 217.42 96.1303 213.745 96.1309 210.097C96.1327 202.8 96.135 195.611 96.1368 188.547C96.1421 174.418 96.1468 160.791 96.1516 147.808C96.1581 134.826 96.164 122.49 96.1693 110.944C96.1728 105.172 96.1764 99.5972 96.1793 94.2382C96.1799 93.5681 96.1799 92.9022 96.1805 92.2386C96.1852 91.9065 96.2089 91.5709 96.2272 91.2388C96.285 90.9108 96.3105 90.577 96.3961 90.2561C96.6979 88.9656 97.2945 87.7572 98.1291 86.7632C98.9697 85.7747 100.025 84.9905 101.185 84.4782C102.345 83.9546 103.619 83.7697 104.848 83.7851C107.302 83.788 109.696 83.7904 112.031 83.7933C113.198 83.7945 114.35 83.7963 115.486 83.7975C116.054 83.7981 116.618 83.7987 117.179 83.7998C117.745 83.7715 118.335 83.9269 118.801 84.2531C119.267 84.5792 119.625 85.0484 119.809 85.5773C120.021 86.1067 119.97 86.6782 119.976 87.2052C119.976 87.4735 119.976 87.7412 119.976 88.0077C119.976 88.2754 119.967 88.5401 120.002 88.7936C120.067 89.3036 120.283 89.7922 120.617 90.1734C120.944 90.5598 121.393 90.8364 121.876 90.9557C122.119 91.0166 122.362 91.0337 122.618 91.029C122.872 91.0296 123.125 91.0296 123.377 91.0302C124.385 91.0314 125.377 91.0331 126.352 91.0343C130.249 91.0402 133.877 91.0456 137.216 91.0503C138.886 91.0532 140.483 91.0556 142.006 91.058C142.384 91.0515 142.769 91.0751 143.128 91.0438C143.49 91.0024 143.837 90.8777 144.137 90.6892C144.742 90.3128 145.153 89.6876 145.291 89.0282C145.367 88.6985 145.354 88.3622 145.356 88.0272C145.356 87.6939 145.357 87.3648 145.358 87.041C145.362 86.7195 145.342 86.3957 145.401 86.0796C145.455 85.7658 145.561 85.4662 145.711 85.1967C146.009 84.6543 146.491 84.2442 147.027 84.0338C147.568 83.7986 148.144 83.8701 148.663 83.8589C150.775 83.8648 152.563 83.8696 154.007 83.8731C155.45 83.879 156.551 83.8837 157.294 83.8867C158.036 83.8908 158.416 83.8991 158.416 83.8991C158.416 83.8991 158.036 83.9068 157.296 83.9103C156.553 83.9127 155.452 83.9157 154.009 83.9198C152.564 83.9222 150.776 83.9245 148.664 83.9281C148.139 83.9405 147.576 83.8731 147.056 84.103C146.537 84.3092 146.069 84.7081 145.783 85.2357C145.638 85.4975 145.535 85.7888 145.483 86.0937C145.427 86.3975 145.447 86.7166 145.444 87.0416C145.444 87.3654 145.444 87.6939 145.444 88.0278C145.443 88.3587 145.458 88.705 145.381 89.0477C145.238 89.7296 144.815 90.3778 144.188 90.7708C143.876 90.9676 143.516 91.0987 143.14 91.1419C142.758 91.1756 142.389 91.1513 142.006 91.159C140.483 91.1596 138.886 91.1602 137.216 91.1614C133.877 91.1626 130.249 91.1632 126.351 91.1643C125.376 91.1643 124.385 91.1649 123.377 91.1649C123.125 91.1649 122.872 91.1649 122.618 91.1649C122.366 91.1708 122.096 91.1531 121.842 91.0887C121.331 90.9628 120.857 90.6715 120.511 90.2644C120.158 89.8632 119.93 89.3491 119.861 88.8119C119.823 88.5407 119.834 88.2724 119.833 88.0077C119.833 87.7412 119.833 87.4741 119.832 87.2052C119.826 86.6669 119.872 86.1245 119.672 85.6263C119.497 85.1252 119.157 84.6821 118.717 84.3748C118.272 84.0681 117.734 83.9227 117.179 83.9499C116.618 83.9499 116.054 83.9499 115.486 83.9499C114.35 83.9499 113.198 83.9499 112.031 83.9499C109.696 83.9499 107.302 83.9499 104.848 83.9499C103.629 83.9369 102.391 84.1183 101.253 84.633C100.117 85.1365 99.0843 85.9052 98.2614 86.8743C97.4451 87.8487 96.8621 89.0323 96.568 90.2957C96.4847 90.6095 96.4611 90.9362 96.4038 91.2571C96.3867 91.5833 96.3636 91.9083 96.3589 92.2386C96.3589 92.9016 96.3595 93.5681 96.3595 94.2382C96.3607 99.5972 96.3618 105.172 96.363 110.944C96.3642 122.49 96.3654 134.826 96.3666 147.808C96.366 160.791 96.366 174.419 96.3654 188.547C96.3648 195.611 96.3636 202.801 96.363 210.097C96.3624 213.745 96.3618 217.42 96.3612 221.119C96.3612 222.044 96.3612 222.97 96.3607 223.898C96.3612 224.822 96.4126 225.74 96.6956 226.621C97.2207 228.378 98.3459 229.961 99.871 231.008C101.397 232.062 103.254 232.542 105.105 232.45C106.965 232.451 108.82 232.452 110.668 232.453C114.364 232.455 118.037 232.458 121.683 232.46C128.974 232.465 136.158 232.47 143.218 232.474C146.748 232.477 150.247 232.479 153.712 232.482C155.442 232.472 157.176 232.51 158.877 232.461C160.57 232.378 162.203 231.71 163.508 230.664C164.153 230.129 164.717 229.503 165.18 228.81C165.645 228.117 165.974 227.343 166.205 226.549C166.452 225.753 166.504 224.923 166.514 224.094C166.514 223.258 166.514 222.425 166.515 221.595C166.516 218.271 166.517 214.986 166.519 211.741C166.534 185.781 166.547 162.401 166.557 142.765C166.577 123.132 166.593 107.242 166.604 96.2586C166.606 94.8859 166.608 93.59 166.609 92.3727C166.624 91.1584 166.409 90.0268 166.008 89.0524C165.612 88.0762 165.058 87.259 164.46 86.6049C163.86 85.9513 163.224 85.439 162.599 85.0821C161.36 84.3352 160.256 84.0906 159.528 83.9978C159.165 83.9251 158.882 83.9434 158.696 83.9216C158.511 83.908 158.416 83.8991 158.416 83.8991Z" fill="black"/>
<path d="M160.092 98.1323C160.092 98.1677 158.731 98.2079 157.051 98.2215C155.371 98.2357 154.009 98.218 154.009 98.1825C154.009 98.147 155.37 98.1069 157.05 98.0933C158.73 98.0791 160.092 98.0968 160.092 98.1323Z" fill="black"/>
<path d="M160.106 99.6894C160.106 99.7249 158.744 99.765 157.065 99.7786C155.385 99.7922 154.023 99.7751 154.022 99.7396C154.022 99.7042 155.383 99.664 157.064 99.6504C158.744 99.6362 160.106 99.6539 160.106 99.6894Z" fill="black"/>
<path d="M160.118 101.247C160.118 101.282 158.757 101.322 157.078 101.336C155.397 101.349 154.036 101.332 154.035 101.297C154.035 101.261 155.396 101.221 157.077 101.208C158.756 101.193 160.118 101.211 160.118 101.247Z" fill="black"/>
<path d="M102.213 102.245C102.215 102.242 102.258 102.239 102.339 102.236C102.439 102.233 102.554 102.229 102.691 102.225C103.023 102.217 103.457 102.206 103.99 102.194L103.954 102.23C103.949 101.942 103.945 101.628 103.939 101.289C103.941 101.114 103.924 100.948 103.941 100.746C103.975 100.545 104.156 100.366 104.376 100.345C104.586 100.341 104.77 100.332 104.997 100.342C105.231 100.371 105.43 100.597 105.423 100.844C105.428 101.284 105.433 101.742 105.439 102.219L105.378 102.16C105.905 102.154 106.452 102.149 107.017 102.143L106.955 102.206C106.949 101.546 106.943 100.863 106.936 100.164C106.935 99.9897 106.934 99.816 106.932 99.644C106.931 99.4839 106.834 99.3763 106.701 99.2564C106.459 99.0176 106.22 98.7819 105.985 98.5502C105.75 98.3186 105.52 98.0911 105.294 97.8683C105.181 97.7566 105.069 97.6467 104.959 97.5374C104.844 97.4263 104.753 97.3117 104.62 97.2845C104.49 97.2496 104.348 97.2774 104.244 97.3566C104.145 97.4405 104.039 97.5593 103.939 97.6568C103.737 97.8606 103.541 98.0586 103.352 98.25C102.982 98.6341 102.597 98.9851 102.317 99.3172C102.199 99.5004 102.243 99.725 102.234 99.9288C102.234 100.132 102.234 100.325 102.233 100.506C102.231 100.86 102.229 101.17 102.227 101.437C102.224 101.674 102.222 101.871 102.221 102.032C102.219 102.167 102.216 102.241 102.213 102.245C102.21 102.248 102.206 102.18 102.202 102.047C102.197 101.889 102.192 101.696 102.185 101.462C102.179 101.193 102.172 100.881 102.164 100.524C102.16 100.338 102.157 100.142 102.153 99.9347C102.151 99.8301 102.15 99.7226 102.148 99.6127C102.147 99.4963 102.177 99.3763 102.239 99.2694C102.542 98.8977 102.904 98.5686 103.276 98.1732C103.464 97.98 103.659 97.7803 103.86 97.5752C103.965 97.4718 104.051 97.3696 104.176 97.2615C104.307 97.161 104.487 97.1244 104.651 97.1681C104.825 97.2065 104.938 97.3495 105.044 97.4494C105.155 97.5581 105.267 97.668 105.38 97.7791C105.607 98.0013 105.838 98.2282 106.073 98.4592C106.309 98.6903 106.548 98.9255 106.791 99.1642C106.848 99.225 106.918 99.277 106.974 99.3627C107.027 99.4443 107.058 99.5412 107.061 99.6393C107.062 99.8124 107.063 99.9867 107.065 100.162C107.071 100.862 107.076 101.544 107.081 102.204L107.081 102.268L107.019 102.268C106.454 102.272 105.906 102.275 105.38 102.279L105.32 102.279L105.32 102.22C105.317 101.744 105.315 101.285 105.313 100.845C105.32 100.647 105.166 100.472 104.981 100.448C104.793 100.438 104.57 100.444 104.387 100.446C104.211 100.461 104.064 100.602 104.034 100.764C104.018 100.929 104.03 101.121 104.027 101.288C104.027 101.627 104.027 101.942 104.027 102.23V102.268H103.991C103.45 102.263 103.008 102.261 102.671 102.258C102.537 102.256 102.424 102.254 102.327 102.252C102.249 102.249 102.21 102.247 102.213 102.245Z" fill="black"/>
<path d="M118.151 186.618H105.575V199.199H118.151V186.618Z" fill="#3DB8DB"/>
<path d="M142.345 187.971C142.345 188.03 138.14 188.078 132.953 188.078C127.765 188.078 123.561 188.03 123.561 187.971C123.561 187.912 127.765 187.864 132.953 187.864C138.14 187.864 142.345 187.912 142.345 187.971Z" fill="#3DB8DB"/>
<path d="M157.323 191.828C157.323 191.887 149.764 191.935 140.443 191.935C131.118 191.935 123.562 191.887 123.562 191.828C123.562 191.769 131.119 191.721 140.443 191.721C149.764 191.721 157.323 191.769 157.323 191.828Z" fill="black"/>
<path d="M156.926 194.582C156.926 194.641 149.456 194.689 140.245 194.689C131.029 194.689 123.562 194.641 123.562 194.582C123.562 194.522 131.029 194.475 140.245 194.475C149.456 194.475 156.926 194.522 156.926 194.582Z" fill="black"/>
<path d="M143.26 197.209C143.26 197.268 138.851 197.316 133.412 197.316C127.971 197.316 123.562 197.268 123.562 197.209C123.562 197.15 127.971 197.102 133.412 197.102C138.851 197.102 143.26 197.15 143.26 197.209Z" fill="black"/>
<g opacity="0.3">
<path d="M118.151 186.618H105.575V199.199H118.151V186.618Z" fill="black"/>
</g>
<path d="M118.151 207.094H105.575V219.675H118.151V207.094Z" fill="#3DB8DB"/>
<path d="M142.345 208.448C142.345 208.507 138.14 208.555 132.953 208.555C127.765 208.555 123.561 208.507 123.561 208.448C123.561 208.389 127.765 208.341 132.953 208.341C138.14 208.341 142.345 208.389 142.345 208.448Z" fill="#3DB8DB"/>
<path d="M157.323 212.304C157.323 212.363 149.764 212.411 140.443 212.411C131.118 212.411 123.562 212.363 123.562 212.304C123.562 212.245 131.119 212.197 140.443 212.197C149.764 212.197 157.323 212.245 157.323 212.304Z" fill="black"/>
<path d="M156.926 215.058C156.926 215.117 149.456 215.165 140.245 215.165C131.029 215.165 123.562 215.117 123.562 215.058C123.562 214.999 131.029 214.951 140.245 214.951C149.456 214.951 156.926 214.999 156.926 215.058Z" fill="black"/>
<path d="M143.26 217.686C143.26 217.745 138.851 217.793 133.412 217.793C127.971 217.793 123.562 217.745 123.562 217.686C123.562 217.627 127.971 217.579 133.412 217.579C138.851 217.579 143.26 217.627 143.26 217.686Z" fill="black"/>
<g opacity="0.3">
<path d="M118.151 207.094H105.575V219.675H118.151V207.094Z" fill="black"/>
</g>
<path d="M112.652 120.081L112.489 149.209L151.227 149.426L151.39 120.298L112.652 120.081Z" fill="#3DB8DB"/>
<path d="M111.982 149.208L125.613 131.178L133.931 142.553L139.65 136.528L150.719 149.424L111.982 149.208Z" fill="#3DB8DB"/>
<path d="M137.564 129.027C137.554 130.712 136.181 132.07 134.497 132.061C132.812 132.051 131.454 130.678 131.464 128.993C131.473 127.308 132.846 125.949 134.531 125.959C136.215 125.968 137.573 127.341 137.564 129.027Z" fill="#3DB8DB"/>
<g opacity="0.2">
<path d="M111.982 149.208L125.613 131.178L133.931 142.553L139.65 136.528L150.719 149.424L111.982 149.208Z" fill="black"/>
</g>
<g opacity="0.2">
<path d="M137.564 129.027C137.554 130.712 136.181 132.07 134.497 132.061C132.812 132.051 131.454 130.678 131.464 128.993C131.473 127.308 132.846 125.949 134.531 125.959C136.215 125.968 137.573 127.341 137.564 129.027Z" fill="black"/>
</g>
<path d="M156.558 154.96C156.558 155.045 145.308 155.113 131.433 155.113C117.554 155.113 106.307 155.045 106.307 154.96C106.307 154.875 117.554 154.806 131.433 154.806C145.308 154.806 156.558 154.875 156.558 154.96Z" fill="black"/>
<path d="M156.558 158.232C156.558 158.317 145.308 158.385 131.433 158.385C117.554 158.385 106.307 158.317 106.307 158.232C106.307 158.147 117.554 158.078 131.433 158.078C145.308 158.078 156.558 158.147 156.558 158.232Z" fill="black"/>
<path d="M139.624 173.916H123.24C120.869 173.916 118.946 171.993 118.946 169.62C118.946 167.248 120.869 165.324 123.24 165.324H139.624C141.996 165.324 143.918 167.248 143.918 169.62C143.918 171.993 141.996 173.916 139.624 173.916Z" fill="#3DB8DB"/>
<path d="M165.945 178.186C165.945 178.271 150.456 178.34 131.353 178.34C112.243 178.34 96.7568 178.271 96.7568 178.186C96.7568 178.102 112.243 178.033 131.353 178.033C150.456 178.032 165.945 178.101 165.945 178.186Z" fill="#E0E0E0"/>
<path d="M145.688 112.988C145.688 113.073 139.305 113.142 131.432 113.142C123.557 113.142 117.176 113.073 117.176 112.988C117.176 112.903 123.557 112.834 131.432 112.834C139.305 112.834 145.688 112.904 145.688 112.988Z" fill="#3DB8DB"/>
<path d="M148.542 169.62C148.542 170.136 148.123 170.555 147.608 170.555C147.092 170.555 146.674 170.136 146.674 169.62C146.674 169.104 147.092 168.686 147.608 168.686C148.123 168.686 148.542 169.104 148.542 169.62Z" fill="#3DB8DB"/>
<path d="M186.341 108.023C186.341 108.028 186.263 108.033 186.113 108.038C185.948 108.041 185.726 108.046 185.441 108.052C184.835 108.059 183.965 108.067 182.846 108.079C180.57 108.091 177.285 108.106 173.186 108.127L173.289 108.023C173.283 117.077 173.275 130.286 173.266 144.972C173.241 153.981 173.217 162.431 173.197 169.62L173.197 169.754L173.063 169.754C165.447 169.731 159.087 169.712 154.615 169.698C152.398 169.682 150.651 169.67 149.44 169.661C148.854 169.652 148.399 169.646 148.075 169.641C147.93 169.637 147.816 169.633 147.726 169.63C147.647 169.627 147.607 169.623 147.607 169.62C147.607 169.616 147.648 169.612 147.726 169.609C147.816 169.606 147.931 169.603 148.075 169.598C148.399 169.594 148.854 169.586 149.44 169.578C150.65 169.569 152.398 169.557 154.615 169.541C159.087 169.527 165.447 169.508 173.063 169.485L172.93 169.619C172.938 162.431 172.948 153.979 172.959 144.971C173.008 130.285 173.052 117.076 173.082 108.022L173.083 107.918L173.186 107.919C177.285 107.939 180.57 107.955 182.846 107.966C183.965 107.978 184.835 107.987 185.441 107.993C185.726 107.999 185.948 108.004 186.113 108.007C186.264 108.013 186.341 108.018 186.341 108.023Z" fill="#3DB8DB"/>
<path d="M204.928 146.941C207.4 146.941 209.405 144.936 209.405 142.463C209.405 139.989 207.4 137.984 204.928 137.984C202.455 137.984 200.451 139.989 200.451 142.463C200.451 144.936 202.455 146.941 204.928 146.941Z" fill="white"/>
<path d="M203.826 142.463V140.445L205.573 141.454L207.319 142.463L205.573 143.471L203.826 144.48V142.463Z" fill="#3DB8DB"/>
<path d="M189.19 80.1499L189.062 103.145L219.643 103.316L219.772 80.3212L189.19 80.1499Z" fill="black"/>
<path d="M188.658 103.145L199.419 88.9121L205.986 97.8916L210.5 93.1359L219.239 103.316L188.658 103.145Z" fill="black"/>
<path d="M208.854 87.2137C208.846 88.5438 207.762 89.6163 206.433 89.6092C205.103 89.6015 204.031 88.5172 204.038 87.1871C204.046 85.8569 205.13 84.7844 206.459 84.7915C207.789 84.7986 208.862 85.8829 208.854 87.2137Z" fill="black"/>
<path d="M216.295 107.708H192.621V109.292H216.295V107.708Z" fill="black"/>
<path d="M221.429 113.841C221.429 113.926 213.83 113.996 204.459 113.996C195.084 113.996 187.487 113.926 187.487 113.841C187.487 113.754 195.084 113.685 204.459 113.685C213.83 113.685 221.429 113.754 221.429 113.841Z" fill="black"/>
<path d="M221.429 118.177C221.429 118.263 213.83 118.333 204.459 118.333C195.084 118.333 187.487 118.263 187.487 118.177C187.487 118.091 195.084 118.021 204.459 118.021C213.83 118.021 221.429 118.091 221.429 118.177Z" fill="black"/>
<path d="M221.429 122.514C221.429 122.6 213.83 122.669 204.459 122.669C195.084 122.669 187.487 122.6 187.487 122.514C187.487 122.428 195.084 122.358 204.459 122.358C213.83 122.359 221.429 122.428 221.429 122.514Z" fill="black"/>
<path d="M221.429 126.85C221.429 126.936 213.83 127.006 204.459 127.006C195.084 127.006 187.487 126.937 187.487 126.85C187.487 126.765 195.084 126.694 204.459 126.694C213.83 126.695 221.429 126.765 221.429 126.85Z" fill="black"/>
<path d="M187.274 108.024C187.274 108.539 186.856 108.958 186.34 108.958C185.824 108.958 185.406 108.539 185.406 108.024C185.406 107.508 185.824 107.089 186.34 107.089C186.856 107.089 187.274 107.508 187.274 108.024Z" fill="#3DB8DB"/>
<path d="M205.83 156.13C205.83 156.571 205.427 156.929 204.929 156.929C204.431 156.929 204.027 156.571 204.027 156.13C204.027 155.69 204.431 155.332 204.929 155.332C205.427 155.332 205.83 155.69 205.83 156.13Z" fill="#3DB8DB"/>
<path d="M205.83 177.199C205.83 177.64 205.427 177.998 204.929 177.998C204.431 177.998 204.027 177.64 204.027 177.199C204.027 176.758 204.431 176.401 204.929 176.401C205.427 176.401 205.83 176.758 205.83 177.199Z" fill="#3DB8DB"/>
<path d="M204.929 177.199C204.844 177.199 204.775 172.483 204.775 166.665C204.775 160.846 204.845 156.13 204.929 156.13C205.014 156.13 205.083 160.846 205.083 166.665C205.083 172.483 205.014 177.199 204.929 177.199Z" fill="#3DB8DB"/>
<path d="M131.35 105.588C131.346 105.588 131.341 105.534 131.337 105.428C131.333 105.308 131.329 105.153 131.324 104.958C131.318 104.526 131.31 103.917 131.299 103.137C131.288 101.532 131.274 99.2246 131.255 96.3428C131.242 90.5353 131.223 82.4127 131.201 73.0751L131.351 73.2246C128.087 73.2258 124.617 73.2276 121.044 73.2293C109.228 73.2116 98.5331 73.1957 90.771 73.1844C86.911 73.1638 83.781 73.1472 81.5973 73.1354C80.5282 73.123 79.6912 73.1135 79.1029 73.1064C78.8306 73.0999 78.6156 73.0952 78.4543 73.0911C78.3084 73.0858 78.2334 73.0804 78.2334 73.0751C78.2334 73.0698 78.3084 73.0645 78.4543 73.0592C78.6156 73.0556 78.8306 73.0503 79.1029 73.0438C79.6912 73.0373 80.5282 73.0273 81.5973 73.0149C83.781 73.003 86.911 72.9865 90.771 72.9658C98.5331 72.954 109.228 72.9386 121.044 72.9209C124.617 72.9227 128.087 72.9239 131.351 72.9256H131.5L131.5 73.0751C131.478 82.4127 131.46 90.5353 131.446 96.3428C131.427 99.2252 131.412 101.532 131.402 103.137C131.392 103.917 131.383 104.526 131.377 104.958C131.372 105.153 131.367 105.308 131.364 105.428C131.359 105.534 131.354 105.588 131.35 105.588Z" fill="#3DB8DB"/>
<path d="M132.285 105.587C132.285 106.103 131.867 106.521 131.351 106.521C130.835 106.521 130.417 106.103 130.417 105.587C130.417 105.071 130.835 104.653 131.351 104.653C131.867 104.653 132.285 105.071 132.285 105.587Z" fill="#3DB8DB"/>
<path d="M79.1675 73.0744C79.1675 73.5902 78.7493 74.0086 78.2337 74.0086C77.718 74.0086 77.2998 73.5902 77.2998 73.0744C77.2998 72.5585 77.718 72.1401 78.2337 72.1401C78.7493 72.1401 79.1675 72.5585 79.1675 73.0744Z" fill="#3DB8DB"/>
<path d="M60.8823 74.6205L63.8297 78.4543C63.8297 78.4543 65.258 80.6602 64.1434 81.1317C63.1628 81.5465 62.5255 80.3098 62.5255 80.3098C62.5255 80.3098 61.9023 77.4953 60.682 78.1854C60.5125 78.2812 60.8096 80.2785 60.972 81.2925C61.0317 81.663 61.2296 81.9956 61.5279 82.2243L64.7677 84.7085C65.369 85.1694 66.0837 85.459 66.8356 85.5458L67.9863 85.6794L68.9331 87.5738L74.1689 85.4406L70.0023 80.0474L67.7654 76.6254C67.4311 76.3294 66.9721 76.2189 66.5397 76.3306L66.0205 76.4653L65.6354 76.0765C65.4068 75.8454 65.0707 75.7574 64.7577 75.846L64.4375 75.937L63.5627 75.0666C63.2733 74.7783 61.278 72.9187 60.9041 73.0841C60.9065 73.0847 60.1557 73.675 60.8823 74.6205Z" fill="#FFBE9D"/>
<path d="M66.8132 78.2589C66.796 78.2672 66.7281 78.0704 66.5137 77.8281C66.2999 77.577 65.9354 77.3359 65.4233 77.2277C65.0211 76.8832 64.7535 76.5334 64.5521 76.2646C64.3601 75.9945 64.2804 75.8042 64.2898 75.7995C64.3034 75.7924 64.4032 75.9691 64.6058 76.2244C64.8067 76.4702 65.1138 76.836 65.467 77.1433C65.5739 77.1781 65.6933 77.2041 65.8108 77.2455C65.9248 77.2868 66.0299 77.3388 66.125 77.3968C66.3146 77.5132 66.4605 77.6544 66.5651 77.7844C66.6702 77.915 66.734 78.0355 66.7701 78.1206C66.8067 78.2063 66.8179 78.2571 66.8132 78.2589Z" fill="#EB996E"/>
<path d="M67.4201 77.4833C67.4101 77.4857 67.3776 77.3829 67.2423 77.2783C67.1153 77.1701 66.8773 77.0909 66.6257 77.1701L66.5979 77.179L66.5772 77.1571C66.5566 77.1347 66.5347 77.1116 66.5123 77.088C66.1082 76.656 65.7964 76.2909 65.8153 76.2731C65.8342 76.2554 66.1774 76.591 66.5814 77.023C66.6032 77.0466 66.6251 77.0697 66.6458 77.0921L66.5979 77.0791C66.8803 76.9911 67.1585 77.0969 67.2831 77.2292C67.4207 77.3569 67.4355 77.4839 67.4201 77.4833Z" fill="#EB996E"/>
<path d="M61.4324 241.737L59.5801 258.684L68.7001 259.867L70.5902 242.891L61.4324 241.737Z" fill="#3DB8DB"/>
<path d="M64.1545 258.629C64.2313 258.637 64.6518 254.928 65.0948 250.346C65.5379 245.763 65.835 242.043 65.7582 242.036C65.682 242.029 65.2608 245.737 64.8178 250.32C64.3754 254.901 64.0783 258.622 64.1545 258.629Z" fill="black"/>
<path d="M59.7077 257.516L68.833 258.668L68.7001 259.867L59.5801 258.684L59.7077 257.516Z" fill="black"/>
<path d="M69.3036 254.441C69.3183 254.433 69.2546 254.289 69.1087 254.046C68.9628 253.803 68.7259 253.466 68.3851 253.088C68.0437 252.712 67.593 252.295 67.0124 251.941C66.4382 251.584 65.7223 251.299 64.9332 251.223C63.3514 251.06 61.9402 251.694 61.2043 252.398C60.8245 252.743 60.577 253.079 60.4305 253.322C60.2858 253.567 60.2267 253.713 60.2415 253.721C60.2887 253.754 60.5716 253.178 61.3324 252.548C62.0714 251.912 63.4063 251.347 64.9072 251.5C66.404 251.649 67.557 252.535 68.2421 253.224C68.9427 253.929 69.2622 254.469 69.3036 254.441Z" fill="black"/>
<g opacity="0.3">
<path d="M70.0519 247.723L69.844 249.59L60.708 248.363L60.8616 246.957L70.0519 247.723Z" fill="black"/>
</g>
<path d="M48.3027 242.859L49.0257 259.892L58.219 259.685L57.5302 242.618L48.3027 242.859Z" fill="#3DB8DB"/>
<path d="M53.5402 259.147C53.617 259.143 53.4747 255.413 53.2219 250.817C52.9691 246.22 52.7021 242.497 52.6253 242.501C52.5485 242.506 52.6909 246.235 52.9437 250.833C53.1965 255.428 53.4635 259.152 53.5402 259.147Z" fill="black"/>
<path d="M48.9756 258.717L58.1706 258.48L58.219 259.685L49.0258 259.892L48.9756 258.717Z" fill="black"/>
<path d="M57.9989 254.231C58.0125 254.22 57.9275 254.088 57.7467 253.87C57.566 253.652 57.2813 253.355 56.8873 253.032C56.4933 252.712 55.9847 252.367 55.3574 252.105C54.736 251.839 53.9853 251.665 53.1938 251.71C51.6055 251.786 50.306 252.627 49.6846 253.433C49.3609 253.831 49.1672 254.201 49.0591 254.463C48.9528 254.727 48.9167 254.88 48.9321 254.886C48.9835 254.911 49.1772 254.299 49.834 253.561C50.4684 252.821 51.7035 252.061 53.2103 251.987C54.7124 251.908 55.9859 252.609 56.7674 253.187C57.5648 253.778 57.9623 254.265 57.9989 254.231Z" fill="black"/>
<g opacity="0.3">
<path d="M57.7263 247.476L57.8019 249.352L48.5856 249.518L48.5254 248.104L57.7263 247.476Z" fill="black"/>
</g>
<path d="M58.6018 205.4L58.2427 158.777H40.1309C40.1309 158.777 38.7014 170.35 39.3819 175.015C40.0624 179.68 44.8864 205.467 44.8864 205.467C44.8864 205.467 46.4493 239.702 47.2195 248.497L58.5256 247.476L58.6018 205.4Z" fill="black"/>
<path d="M69.685 148.942C69.685 148.942 75.3236 153.754 76.5823 161.869C77.841 169.984 74.0353 202.459 74.0353 202.459L70.8268 247.476H59.6465L60.0074 204.132L58.0741 171.846L56.8184 161.635L69.685 148.942Z" fill="black"/>
<path d="M59.7634 201.803C59.7527 201.804 59.7368 201.708 59.7161 201.524C59.6954 201.304 59.6712 201.038 59.6411 200.718C59.5873 199.969 59.5153 198.968 59.4273 197.753C59.2637 195.248 59.0628 191.787 58.8856 187.961C58.7078 184.134 58.5897 180.668 58.5489 178.157C58.5283 176.902 58.5235 175.886 58.5365 175.184C58.5454 174.863 58.5525 174.596 58.5584 174.376C58.5667 174.191 58.5767 174.094 58.5867 174.094C58.5974 174.094 58.6086 174.191 58.6204 174.376C58.6305 174.596 58.6417 174.863 58.6558 175.183C58.6836 175.933 58.7208 176.936 58.7657 178.152C58.8768 180.704 59.0268 184.145 59.1922 187.948C59.3676 191.75 59.5259 195.19 59.6435 197.742C59.6907 198.959 59.7303 199.962 59.7592 200.712C59.7663 201.033 59.7716 201.3 59.7764 201.52C59.7787 201.705 59.774 201.803 59.7634 201.803Z" fill="black"/>
<path d="M73.4343 204.437C73.4261 204.485 72.8047 204.401 71.7982 204.333C70.7922 204.264 69.3977 204.237 67.8684 204.378C66.3386 204.523 64.9729 204.808 63.9977 205.062C63.0213 205.315 62.4259 205.512 62.4094 205.467C62.3964 205.433 62.9664 205.162 63.9381 204.852C64.9079 204.542 66.2878 204.218 67.8401 204.071C69.3923 203.928 70.8082 203.99 71.8188 204.116C72.8301 204.241 73.4408 204.402 73.4343 204.437Z" fill="black"/>
<path d="M55.5214 204.871C55.5048 204.921 54.9797 204.755 54.112 204.625C53.2461 204.492 52.0257 204.436 50.708 204.656C49.3902 204.881 48.2561 205.335 47.4817 205.745C46.705 206.153 46.2631 206.481 46.2312 206.44C46.2106 206.416 46.6075 206.022 47.3754 205.555C48.1391 205.087 49.2986 204.584 50.6566 204.352C52.0151 204.126 53.275 204.219 54.1504 204.411C55.0287 204.6 55.5332 204.842 55.5214 204.871Z" fill="black"/>
<path d="M55.638 205.458C55.6711 205.53 54.2221 206.222 52.3078 206.696C50.3946 207.177 48.7909 207.246 48.7862 207.167C48.7767 207.077 50.3467 206.872 52.2333 206.398C54.1211 205.93 55.6037 205.374 55.638 205.458Z" fill="black"/>
<path d="M59.176 173.654C59.1901 173.669 59.0419 173.833 58.7601 174.121C58.6213 174.267 58.4429 174.438 58.2267 174.627C58.0159 174.823 57.7678 175.037 57.4813 175.26C56.9131 175.712 56.206 176.222 55.3519 176.685C54.4937 177.141 53.5197 177.599 52.3667 177.795L52.3879 177.79C52.2149 177.831 52.0294 177.876 51.8422 177.919C49.4948 178.434 47.2869 178.242 45.7712 177.894C45.0086 177.722 44.4091 177.52 44.0033 177.361C43.5987 177.198 43.3837 177.09 43.3908 177.072C43.4103 177.019 44.301 177.392 45.8149 177.681C47.3205 177.969 49.4812 178.122 51.7772 177.618C51.9603 177.575 52.1416 177.532 52.3111 177.492L52.3165 177.491L52.3324 177.488C53.3956 177.311 54.3815 176.87 55.2208 176.44C56.0655 176 56.7755 175.516 57.3531 175.092C58.5044 174.235 59.1387 173.615 59.176 173.654Z" fill="black"/>
<path d="M62.9892 162.159C62.9998 162.167 63.0388 162.345 63.1044 162.671C63.1747 163.031 63.2656 163.497 63.3772 164.072C63.6058 165.306 63.9201 167.002 64.2975 169.04L64.2184 168.943C65.6685 169.493 67.3129 170.116 69.0808 170.786L68.9095 170.834C69.6845 169.828 70.5096 168.757 71.3608 167.652C71.5593 167.394 71.7565 167.14 71.9515 166.887L71.9208 166.999C71.6479 164.59 71.3915 162.327 71.1671 160.343L71.3697 160.444C70.2031 161.06 69.0365 161.298 68.0176 161.523C66.9928 161.732 66.0902 161.863 65.3454 161.959C64.5999 162.053 64.0116 162.109 63.6094 162.14C63.2012 162.17 62.9986 162.171 62.9892 162.159C62.9797 162.147 63.206 162.11 63.5993 162.055C64.037 161.99 64.6118 161.905 65.3217 161.8C66.0613 161.682 66.9573 161.53 67.9697 161.304C68.9727 161.066 70.1363 160.804 71.232 160.21L71.411 160.113L71.4346 160.312C71.6703 162.295 71.9385 164.556 72.2244 166.964L72.232 167.026L72.1936 167.075C71.9987 167.328 71.8014 167.584 71.6036 167.84C70.75 168.943 69.9219 170.013 69.1446 171.017L69.0767 171.105L68.9733 171.065C67.2113 170.379 65.5728 169.742 64.1274 169.179L64.0595 169.152L64.0483 169.082C63.7192 167.001 63.4452 165.27 63.2461 164.01C63.1622 163.443 63.0943 162.983 63.0417 162.627C62.998 162.313 62.9785 162.151 62.9892 162.159Z" fill="black"/>
<path d="M53.036 163.777C53.0454 163.768 53.0443 163.931 53.0348 164.248C53.0218 164.608 53.0041 165.073 52.9828 165.646C52.9226 166.919 52.8405 168.67 52.7413 170.775L52.7377 170.846L52.6727 170.879C51.2976 171.597 49.7389 172.41 48.0625 173.285L47.9645 173.336L47.8871 173.256C47.0046 172.343 46.0643 171.37 45.095 170.368C44.8699 170.134 44.6461 169.903 44.4246 169.673L44.3809 169.627L44.3814 169.565C44.4015 167.141 44.421 164.864 44.4376 162.867L44.4393 162.667L44.6284 162.744C45.7825 163.214 46.968 163.347 47.9911 163.474C49.0224 163.587 49.9296 163.64 50.6774 163.676C51.3945 163.703 51.9757 163.725 52.4176 163.741C52.8151 163.752 53.0437 163.763 53.036 163.777C53.0283 163.79 52.8263 163.811 52.4182 163.825C52.0147 163.839 51.4241 163.848 50.6727 163.835C49.922 163.822 49.01 163.79 47.9686 163.695C46.9314 163.583 45.7459 163.474 44.5185 162.991L44.7087 162.868C44.7028 164.865 44.6963 167.143 44.6886 169.566L44.6455 169.459C44.867 169.689 45.0908 169.92 45.3165 170.154C46.2834 171.16 47.2214 172.135 48.1015 173.049L47.9261 173.02C49.6101 172.161 51.176 171.36 52.557 170.655L52.489 170.759C52.6408 168.692 52.7672 166.972 52.8594 165.721C52.9078 165.138 52.9468 164.664 52.9775 164.298C53.0071 163.967 53.0265 163.786 53.036 163.777Z" fill="black"/>
<path d="M58.2984 171.722C58.2594 171.73 58.1105 171.234 57.9481 170.415C57.7851 169.596 57.6208 168.452 57.5452 167.178C57.4714 165.904 57.5009 164.748 57.5671 163.916C57.6327 163.083 57.7224 162.574 57.762 162.578C57.8553 162.585 57.6988 164.637 57.8524 167.16C57.9947 169.684 58.3899 171.704 58.2984 171.722Z" fill="black"/>
<path d="M73.4335 174.523C73.4411 174.543 73.2817 174.62 72.9857 174.743C72.6916 174.869 72.2527 175.02 71.7016 175.178C70.6012 175.494 69.0264 175.78 67.271 175.782C65.5149 175.779 63.9407 175.491 62.8403 175.174C62.2898 175.016 61.8509 174.864 61.5568 174.737C61.2609 174.615 61.102 174.537 61.1096 174.518C61.1274 174.469 61.7925 174.704 62.8947 174.963C63.9957 175.223 65.5456 175.47 67.271 175.474C68.9957 175.472 70.5462 175.226 71.6473 174.967C72.7501 174.708 73.4157 174.474 73.4335 174.523Z" fill="black"/>
<path d="M45.2249 100.696C45.2249 100.696 37.0778 105.152 34.6885 106.199L37.9449 121.783L43.0695 140.472L39.633 160.186C39.633 160.186 51.7176 162.321 57.6444 161.554C65.7532 160.503 76.0894 157.52 76.0894 157.52L68.042 133.487L70.1005 116.893L66.6433 102.905L58.2239 101.906L45.2249 100.696Z" fill="#3DB8DB"/>
<g opacity="0.3">
<path d="M41.4004 116.279C41.9521 117.373 43.2055 117.9 44.3862 118.224C45.567 118.548 46.8352 118.785 47.759 119.589C49.4034 121.021 49.3585 123.699 50.8718 125.269C51.8423 126.275 53.4111 126.653 54.7331 126.2C55.5671 125.914 56.3084 125.329 57.1867 125.244C57.7963 125.186 58.4077 125.379 59.019 125.335C60.7408 125.212 61.7467 123.389 62.4343 121.804C63.146 120.163 63.8732 118.431 63.6983 116.65C63.4366 113.985 61.2204 111.836 60.8838 109.18C60.7591 108.197 60.9015 107.195 60.7946 106.21C60.6877 105.225 60.2488 104.18 59.3498 103.763" fill="black"/>
</g>
<path d="M73.8775 98.7973L67.5703 86.1696L72.6365 82.9214C72.6365 82.9214 78.9703 89.458 80.1729 90.7285C80.1729 90.7285 87.4624 97.4542 85.5599 100.696C83.9397 103.457 81.3785 105.587 81.3785 105.587L73.8775 98.7973Z" fill="#3DB8DB"/>
<path d="M34.6887 106.199C34.5788 106.53 17.7257 129.846 16.825 132.323C16.7748 132.461 16.7275 132.602 16.682 132.748C15.6779 135.974 16.5426 139.495 18.7972 142.011L32.6911 157.52L38.7655 150.496L29.1027 133.459L38.3314 123.261L34.6887 106.199Z" fill="#3DB8DB"/>
<path d="M45.2542 151.535C44.6907 151.569 43.663 152.348 43.207 152.717C43.0563 152.838 42.8667 152.898 42.6736 152.885C42.3534 152.864 42.0805 152.645 41.989 152.338L41.3865 150.312C40.7781 150.362 40.2323 150.706 39.9234 151.233L39.253 152.378L38.0994 151.266L32.6924 157.442C32.6924 157.442 34.8212 159.738 36.172 159.776C37.5229 159.812 43.865 154.597 43.865 154.597L45.5466 153.114C45.5466 153.114 46.9028 151.435 45.2542 151.535Z" fill="#FFBE9D"/>
<path d="M62.7656 102.445L67.5459 102.659L74.357 97.4482L83.9968 102.738C83.9968 102.738 79.6589 107.381 75.572 112.139C72.2672 115.986 69.914 118.389 69.914 118.389L62.7656 102.445Z" fill="#3DB8DB"/>
<path d="M67.2531 143.502C67.2679 143.518 67.0239 143.775 66.5691 144.229C66.1178 144.686 65.4362 145.319 64.5691 146.073C62.8372 147.583 60.3074 149.523 57.2949 151.327C54.2778 153.126 51.3699 154.433 49.2198 155.242C48.1448 155.648 47.2647 155.949 46.6486 156.129C46.0338 156.315 45.6912 156.408 45.6847 156.387C45.6782 156.367 46.0084 156.235 46.6103 156.016C47.2133 155.801 48.0798 155.47 49.1401 155.04C51.2612 154.182 54.1366 152.851 57.1366 151.063C60.1325 149.269 62.6671 147.369 64.4279 145.907C65.3098 145.177 66.0115 144.571 66.487 144.142C66.966 143.716 67.2383 143.487 67.2531 143.502Z" fill="black"/>
<path d="M50.518 140.747C50.5895 140.793 48.8913 143.548 46.7259 146.899C44.5593 150.251 42.7459 152.931 42.675 152.884C42.6036 152.838 44.3017 150.084 46.4677 146.732C48.6326 143.38 50.4465 140.701 50.518 140.747Z" fill="black"/>
<path d="M69.3404 117.108C69.2949 117.104 69.3079 116.422 69.2618 115.319C69.2217 114.215 69.1295 112.692 68.9783 111.015C68.8182 109.338 68.6239 107.824 68.4184 106.743C68.2246 105.657 67.9954 105.016 68.0397 104.998C68.0728 104.981 68.3806 105.611 68.6316 106.698C68.8944 107.78 69.1242 109.301 69.2849 110.987C69.4373 112.673 69.4952 114.206 69.4798 115.316C69.4698 116.427 69.38 117.112 69.3404 117.108Z" fill="black"/>
<path d="M80.9475 97.9321C80.9233 97.9735 80.5181 97.7519 79.8353 97.4771C79.1554 97.2059 78.1767 96.8909 77.0662 96.8691C75.9516 96.8336 74.9669 97.1232 74.3491 97.5025C73.7248 97.8748 73.4211 98.2323 73.3816 98.1945C73.3568 98.1779 73.6031 97.7619 74.2321 97.3187C74.8518 96.8685 75.9085 96.5216 77.0721 96.5606C78.2416 96.5848 79.2511 96.9488 79.9233 97.2774C80.6002 97.6112 80.967 97.9008 80.9475 97.9321Z" fill="black"/>
<path d="M77.869 95.2381C77.8849 95.3522 76.5252 95.2038 75.2192 96.0477C73.9256 96.9057 73.4791 98.1932 73.3816 98.1306C73.3485 98.1176 73.42 97.7967 73.6646 97.3252C73.9091 96.8596 74.3598 96.2438 75.0515 95.79C75.7449 95.3392 76.4933 95.1784 77.0196 95.153C77.5512 95.1294 77.8719 95.2032 77.869 95.2381Z" fill="black"/>
<g opacity="0.3">
<path d="M51.0502 137.913C50.9598 137.362 50.6007 136.767 50.0437 136.741C49.4057 136.71 49.0058 137.401 48.7578 137.991C46.7985 142.652 44.8398 147.313 42.8806 151.975L42.6738 152.885C45.046 149.12 47.401 145.509 49.7731 141.743C50.5079 140.577 51.2729 139.272 51.0502 137.913Z" fill="black"/>
</g>
<g opacity="0.3">
<path d="M73.3818 97.9567C74.1125 96.886 74.7404 95.6681 76.0086 95.4022C77.2767 95.1369 78.6441 95.3809 79.7428 96.0688C79.985 96.2206 80.2437 96.4735 80.1557 96.7459C80.0907 96.948 79.8627 97.0443 79.6566 97.0946C78.542 97.3682 77.3819 97.0461 76.2442 96.896C75.1066 96.7459 74.2271 97.2417 73.4663 98.1009" fill="black"/>
</g>
<path d="M37.344 120.775C37.3073 120.789 37.0221 120.177 36.6434 119.154C36.2642 118.132 35.8053 116.694 35.4172 115.074C35.0309 113.453 34.7911 111.962 34.667 110.879C34.5424 109.796 34.5206 109.121 34.5595 109.117C34.605 109.112 34.7037 109.778 34.882 110.849C35.0604 111.92 35.3321 113.394 35.7155 115.003C36.1006 116.612 36.5235 118.049 36.8484 119.085C37.1739 120.12 37.3865 120.759 37.344 120.775Z" fill="black"/>
<path d="M46.174 105.415L58.1316 105.587L57.0123 94.7731C57.0123 94.7731 57.8954 95.2175 58.0708 90.7892C58.2462 86.361 58.6544 78.8405 58.6544 78.8405C53.5888 76.4969 47.6525 77.0795 43.1386 80.3632L42.4688 80.8507L46.174 105.415Z" fill="#FFBE9D"/>
<path d="M43.7077 86.3368C43.6333 86.302 40.69 85.3535 40.7042 88.3849C40.7183 91.4157 43.7573 90.7763 43.7621 90.6894C43.7668 90.6026 43.7077 86.3368 43.7077 86.3368Z" fill="#FFBE9D"/>
<path d="M57.9424 86.0918C58.0186 86.0611 60.7369 85.407 60.5579 88.4324C60.3789 91.4579 57.3789 90.6543 57.3789 90.5668C57.3789 90.4799 57.9424 86.0918 57.9424 86.0918Z" fill="#FFBE9D"/>
<path d="M50.8372 73.5306C50.8372 73.5306 46.7107 73.3811 45.2346 74.1357C42.7833 75.389 40.8819 78.8825 40.8424 83.1973C40.8034 87.5121 42.7638 93.3704 45.9304 96.2623C49.0976 99.1542 51.5985 99.6878 51.5985 99.6878C51.5985 99.6878 58.305 96.0265 59.0534 90.6782C59.8018 85.3293 60.3133 80.1718 58.2188 77.5742C56.1243 74.9766 52.3587 73.5985 50.8372 73.5306Z" fill="black"/>
<path d="M41.4009 85.9833C41.16 83.2397 40.9284 80.4069 41.7884 77.7909C42.6485 75.175 44.8966 72.8096 47.6473 72.7073C48.5292 72.6742 49.4193 72.8704 50.2888 72.7203C51.0396 72.5909 51.7206 72.2127 52.4294 71.9332C53.6415 71.4552 55.0177 71.2673 56.2481 71.6945C57.4791 72.1217 58.5086 73.2581 58.5512 74.561C58.5689 75.0952 58.4301 75.6518 58.6167 76.1529C58.8087 76.6676 59.2984 77.0009 59.6398 77.4317C60.1785 78.1106 60.3332 79.0318 60.2464 79.894C60.1596 80.7567 59.853 81.5798 59.55 82.3918C58.7992 84.4014 58.0479 86.4111 57.2972 88.4202" fill="black"/>
<path d="M48.3126 87.5177C49.8785 86.7525 51.8153 86.8009 53.3404 87.6442C54.8655 88.4868 55.9382 90.1018 56.1243 91.8349C56.3168 93.6277 56.3186 93.9155 57.4769 95.297C58.1916 96.1497 58.8798 96.0989 59.7197 96.8281C60.8071 97.7724 61.1397 99.4819 60.4852 100.765C62.6536 100.662 64.6814 100.522 65.4221 102.563C62.1834 101.895 58.9447 104.919 55.7061 104.25C54.6818 104.039 53.6204 103.811 52.7864 103.18C51.8301 102.457 51.3091 101.31 50.8265 100.212C49.9576 98.2368 49.0893 96.2614 48.2205 94.286C47.6357 92.9559 47.0397 91.5731 47.0663 90.1207C47.0929 88.6682 47.9287 87.1224 49.3345 86.7578" fill="black"/>
<path d="M47.0055 89.501C46.4119 87.6349 47.0729 85.5094 48.5761 84.4517C50.0794 83.3946 52.3145 83.4826 53.8857 84.6615C55.0499 85.5348 55.8314 87.0074 55.7008 88.4155C55.5703 89.8236 54.4279 91.0504 53.0333 91.0787" fill="#3DB8DB"/>
<path d="M54.1064 86.5623C52.1997 85.0005 49.3556 85.3303 47.8104 86.8767C46.2652 88.4231 46.1105 91.6122 46.5789 93.7484C47.0827 96.047 48.4856 98.2724 48.0207 100.579C47.7372 101.985 46.7738 103.411 47.332 104.732C47.7832 105.801 49.0496 106.27 49.7348 107.205C50.7425 108.58 50.2434 110.514 49.5671 112.079C48.8908 113.644 48.0573 115.336 48.5287 116.975C48.8949 118.247 49.967 119.162 50.8205 120.174C51.674 121.185 52.3592 122.604 51.7874 123.798C52.8784 124.614 54.4785 124.674 55.6268 123.941C56.7757 123.208 57.3959 121.731 57.1165 120.398C57.7928 121.087 58.2051 122.029 58.2518 122.993C60.1041 122.83 61.8336 121.645 62.6564 119.976C63.4786 118.308 63.3652 116.214 62.367 114.645C61.6375 113.497 60.455 112.568 60.2063 111.231C59.9104 109.638 61.0639 108.078 60.9151 106.465C60.7816 105.017 59.6392 103.878 58.4715 103.012C57.3037 102.146 55.9966 101.372 55.2399 100.131C54.0166 98.1229 54.5837 95.5601 55.0574 93.2567C55.5317 90.9528 55.7573 88.2358 54.1064 86.5623Z" fill="black"/>
<path d="M47.1213 87.9712C45.4852 89.0762 45.38 91.4221 45.6033 93.3845C45.8266 95.3463 46.1467 97.5481 44.9406 99.1116C44.1278 100.166 42.7061 100.776 42.2902 102.04C41.784 103.581 43.0498 105.128 43.1951 106.743C43.3003 107.911 42.8094 109.047 42.2465 110.074C41.6836 111.102 41.028 112.105 40.7545 113.245C40.481 114.385 40.6783 115.732 41.5861 116.473C42.1579 116.939 42.9152 117.098 43.6446 117.211C46.2525 117.612 48.9235 117.604 51.5289 117.185C52.3075 113.978 53.0907 110.733 53.0883 107.433C53.0836 100.877 49.9891 94.6284 49.907 88.0728" fill="black"/>
<path d="M51.7132 121.59C51.7049 121.597 51.6127 121.494 51.445 121.294C51.2577 121.069 51.0156 120.777 50.7149 120.414C50.0906 119.643 49.1307 118.568 48.1419 117.078C47.654 116.332 47.1744 115.46 46.8744 114.439C46.5607 113.432 46.5217 112.213 46.9417 111.085C47.3327 109.949 47.999 108.892 48.6092 107.78C49.1992 106.678 49.8 105.441 49.6482 104.127C49.5288 102.813 48.6487 101.731 48.2559 100.479C48.1597 100.163 48.0941 99.8372 48.0799 99.5063C48.0793 99.1754 48.126 98.8445 48.2364 98.5378C48.4603 97.9215 48.8767 97.4441 49.2624 97.0032C49.6523 96.563 50.0433 96.15 50.3133 95.6855C50.5932 95.2287 50.7167 94.7135 50.7391 94.2082C50.7775 93.1883 50.4757 92.2529 50.2193 91.4085C49.9565 90.5617 49.7403 89.7687 49.7167 89.0484C49.6854 88.3263 49.8561 87.7088 50.0853 87.2597C50.315 86.8059 50.6121 86.527 50.8277 86.3769C51.0486 86.2286 51.1863 86.1943 51.1863 86.1943C51.2223 86.2251 50.6204 86.4142 50.1928 87.3123C49.989 87.7514 49.8425 88.3488 49.8886 89.0396C49.927 89.7339 50.1508 90.5021 50.4267 91.3435C50.6948 92.1832 51.0221 93.1363 50.9937 94.2189C50.9772 94.7537 50.846 95.3245 50.5466 95.822C50.2595 96.3249 49.8578 96.7521 49.4745 97.1917C49.0947 97.6302 48.7072 98.0881 48.5123 98.6383C48.416 98.9113 48.3764 99.2038 48.377 99.4992C48.3912 99.7959 48.4515 100.094 48.5424 100.389C48.9063 101.57 49.8106 102.662 49.9535 104.097C50.028 104.796 49.9205 105.499 49.6966 106.135C49.4745 106.772 49.1803 107.362 48.8732 107.927C48.2524 109.048 47.5914 110.091 47.2093 111.18C46.8017 112.262 46.8289 113.387 47.1195 114.371C47.3977 115.359 47.8543 116.22 48.3245 116.963C49.2772 118.449 50.2122 119.548 50.8076 120.342C51.1101 120.736 51.3428 121.044 51.4928 121.258C51.6458 121.469 51.7214 121.584 51.7132 121.59Z" fill="black"/>
<path d="M45.2765 98.797C45.2228 98.7734 45.7183 98.0028 45.9085 96.5847C46.0084 95.8803 46.0343 95.03 46.0066 94.0833C45.9818 93.1373 45.9103 92.0873 45.9729 90.9775C46.0385 89.8708 46.26 88.8012 46.7331 87.9361C47.2086 87.0763 47.8808 86.4582 48.5299 86.1072C49.182 85.7521 49.7975 85.6611 50.2063 85.6901C50.4118 85.7072 50.5684 85.7308 50.6711 85.7663C50.7745 85.7953 50.8271 85.8147 50.8247 85.8254C50.8182 85.8567 50.5997 85.8 50.2051 85.81C49.8129 85.8183 49.2405 85.9382 48.638 86.2963C48.0379 86.6515 47.4165 87.2548 46.983 88.0708C46.5518 88.8892 46.3433 89.9174 46.2801 90.9964C46.2186 92.0808 46.2807 93.1237 46.2901 94.0786C46.3025 95.0341 46.2535 95.9022 46.1235 96.6195C45.9936 97.3375 45.7922 97.8982 45.6108 98.2622C45.4313 98.628 45.2895 98.8053 45.2765 98.797Z" fill="black"/>
<path d="M62.6564 119.977C62.6422 119.973 62.6729 119.845 62.6966 119.6C62.7249 119.355 62.7237 118.988 62.6877 118.52C62.5985 117.59 62.3835 116.218 61.755 114.666C61.4166 113.914 60.8855 113.132 60.4874 112.207C60.2854 111.745 60.1118 111.244 60.0285 110.704C59.9363 110.163 59.97 109.593 60.0545 109.035C60.1372 108.474 60.2659 107.915 60.3392 107.343C60.4183 106.774 60.4047 106.189 60.3026 105.604C60.0958 104.437 59.5087 103.288 58.5949 102.423C57.6936 101.546 56.4384 101.145 55.5122 100.273C54.5831 99.4027 54.1176 98.2209 53.9085 97.1129C53.6894 95.9926 53.7278 94.9047 53.804 93.9108C53.8831 92.9139 54.0013 91.9956 54.0568 91.1554C54.1093 90.3169 54.1235 89.5505 54.0284 88.8963C53.9345 88.2416 53.7006 87.7074 53.3999 87.3564C52.7827 86.6343 52.1643 86.6586 52.1902 86.6237C52.1902 86.6237 52.3255 86.606 52.5706 86.6733C52.811 86.7454 53.1654 86.9144 53.4903 87.2778C53.8211 87.6342 54.0857 88.1943 54.1979 88.8686C54.3125 89.5446 54.3125 90.3192 54.2735 91.1684C54.2316 92.0181 54.1259 92.9411 54.0585 93.9297C53.9942 94.9165 53.9676 95.9778 54.1873 97.0591C54.397 98.1299 54.85 99.2467 55.7183 100.053C56.5748 100.866 57.8347 101.268 58.8064 102.201C59.7715 103.114 60.3853 104.323 60.5997 105.552C60.706 106.166 60.716 106.791 60.6304 107.382C60.5512 107.973 60.4183 108.532 60.3344 109.078C60.2488 109.624 60.214 110.156 60.2961 110.664C60.3699 111.174 60.5306 111.656 60.7219 112.107C61.1006 113.017 61.6115 113.787 61.9553 114.583C62.5731 116.184 62.7527 117.564 62.807 118.513C62.8253 118.99 62.8064 119.361 62.758 119.609C62.7432 119.734 62.7078 119.825 62.6918 119.887C62.6735 119.947 62.6617 119.978 62.6564 119.977Z" fill="black"/>
<path d="M60.3114 103.273C60.286 103.258 60.4591 103.027 60.5684 102.538C60.6747 102.058 60.7225 101.306 60.4461 100.463C60.1573 99.6438 59.4591 98.751 58.4124 98.2339C57.892 98.0017 57.2435 97.7157 56.804 97.1798C56.3539 96.642 56.1058 96.0145 55.7928 95.381C55.2411 94.0397 55.3155 92.6569 55.312 91.4704C55.3255 90.2762 55.2553 89.1972 54.9363 88.364C54.6291 87.5267 54.1401 86.9623 53.7467 86.6628C53.3521 86.3561 53.0745 86.2769 53.0863 86.2485C53.0898 86.2385 53.1584 86.2544 53.2883 86.2946C53.4141 86.3431 53.6025 86.4187 53.817 86.5658C54.2493 86.8477 54.791 87.4185 55.1389 88.2854C55.5004 89.1511 55.5931 90.2697 55.5949 91.4698C55.6108 92.6628 55.5577 94.0095 56.0751 95.2611C56.3728 95.8656 56.6368 96.515 57.032 96.9836C57.2334 97.2188 57.4697 97.4143 57.7272 97.5709C57.9824 97.7311 58.2612 97.8357 58.5406 97.981C59.6499 98.5513 60.3675 99.5032 60.6522 100.396C60.9169 101.298 60.8294 102.075 60.6829 102.568C60.6121 102.818 60.5111 102.995 60.4431 103.112C60.3658 103.225 60.3203 103.279 60.3114 103.273Z" fill="black"/>
<path d="M46.1747 87.2746C46.1611 87.3018 45.6537 87.0903 44.9597 86.5449C44.2662 86.0054 43.421 85.0895 42.8049 83.884C42.1936 82.6762 41.9508 81.453 41.923 80.5743C41.8912 79.6921 42.0187 79.1573 42.0489 79.1626C42.1026 79.1674 42.0542 79.7051 42.1404 80.559C42.2231 81.411 42.4895 82.5787 43.0796 83.7445C43.6744 84.9075 44.4612 85.8104 45.1009 86.3788C45.7388 86.9508 46.2019 87.228 46.1747 87.2746Z" fill="black"/>
<path d="M45.6216 88.0842C45.5867 88.1574 44.6086 87.7491 43.5424 87.0052C42.4727 86.2648 41.7491 85.4907 41.8058 85.4322C41.8661 85.3672 42.6688 86.0266 43.7179 86.7523C44.7633 87.482 45.6618 88.005 45.6216 88.0842Z" fill="black"/>
<path d="M58.5586 80.3244C58.6318 80.3203 58.4995 82.0203 57.4965 83.8208C56.5095 85.6308 55.1427 86.6495 55.1073 86.5851C55.0382 86.5154 56.2739 85.4246 57.2272 83.6725C58.1994 81.9311 58.4629 80.3032 58.5586 80.3244Z" fill="black"/>
<path d="M59.521 82.6761C59.5984 82.6945 59.3196 84.0187 58.6167 85.5231C57.9197 87.0311 57.0869 88.0971 57.0231 88.0499C56.9481 87.9991 57.6539 86.8734 58.3379 85.3931C59.0284 83.9171 59.4342 82.6513 59.521 82.6761Z" fill="black"/>
<path d="M58.1298 75.0148C58.0819 75.0337 57.9136 74.5722 57.5604 73.8909C57.3779 73.5558 57.1315 73.1688 56.7606 72.845C56.3962 72.5158 55.8905 72.2925 55.327 72.3037C54.1746 72.3214 53.2975 73.053 52.7547 73.5718C52.2012 74.1107 51.874 74.4729 51.8379 74.441C51.8102 74.4168 52.073 74.0102 52.5993 73.4193C52.8669 73.1292 53.2089 72.7924 53.6631 72.5075C54.1168 72.2257 54.6891 72.0011 55.3253 71.9958C55.9626 71.9793 56.5633 72.257 56.9508 72.634C57.3507 73.0051 57.5917 73.4335 57.7559 73.794C58.0707 74.5261 58.1611 75.003 58.1298 75.0148Z" fill="black"/>
<path d="M56.9392 121.193C56.9315 121.201 56.8346 121.117 56.6568 120.952C56.4814 120.784 56.2227 120.535 55.9126 120.191C55.6031 119.848 55.2351 119.413 54.8813 118.852C54.5387 118.292 54.1979 117.583 54.1394 116.729C54.1175 116.305 54.1677 115.853 54.3125 115.412C54.4589 114.972 54.6804 114.547 54.9238 114.125C55.4034 113.289 55.9959 112.408 56.0254 111.342C56.0762 110.286 55.684 109.19 55.0998 108.186C54.5121 107.176 53.7112 106.241 53.0047 105.186C52.2853 104.141 51.7755 102.953 51.6001 101.759C51.4069 100.567 51.44 99.4015 51.5434 98.3119C51.7619 96.1297 52.1902 94.2122 52.2563 92.5718C52.3615 90.9344 52.1595 89.609 51.8836 88.738C51.6054 87.8658 51.3296 87.4291 51.3597 87.4138C51.3691 87.4084 51.4377 87.516 51.5605 87.7269C51.6816 87.9379 51.8399 88.2635 51.997 88.7008C52.313 89.5735 52.5523 90.9238 52.4737 92.5824C52.4341 94.2447 52.0248 96.1817 51.8251 98.3379C51.7306 99.4151 51.7058 100.557 51.8972 101.71C52.0732 102.868 52.5558 103.989 53.2605 105.016C53.9527 106.05 54.7561 106.991 55.3603 108.035C55.9581 109.071 56.3698 110.22 56.3083 111.357C56.264 112.515 55.6214 113.439 55.1441 114.253C54.899 114.668 54.6816 115.074 54.5375 115.487C54.3963 115.9 54.3438 116.318 54.3568 116.717C54.3981 117.519 54.7076 118.208 55.0289 118.763C55.3597 119.319 55.71 119.76 56.003 120.113C56.2965 120.466 56.5411 120.727 56.7017 120.909C56.8642 121.088 56.9469 121.186 56.9392 121.193Z" fill="black"/>
</g>
<defs>
<clipPath id="clip0_622_22501">
<rect width="228" height="260" fill="white"/>
</clipPath>
</defs>
</svg>
