<svg width="60" height="60" viewBox="0 0 60 60" fill="none" xmlns="http://www.w3.org/2000/svg">
<path d="M0.773666 0.222656C0.246166 0.574219 0 1.04297 0 1.6875C0 2.32031 2.62578 12.8438 3.09466 14.0859C4.04416 16.6172 4.40755 17.0742 10.5734 23.2617L16.0594 28.7695L8.42827 36.3867C-0.468888 45.2812 0.0586111 44.625 0.0586111 46.875C0.0586111 48.1523 0.0820555 48.2578 0.445444 49.043C0.808833 49.8047 1.17222 50.2031 5.486 54.5156C9.79977 58.8281 10.1983 59.1914 10.9603 59.5547C11.7457 59.918 11.8512 59.9414 13.1289 59.9414C15.3561 59.9414 14.5824 60.5508 23.503 51.668L31.2397 43.9453L38.1558 50.8711C41.9655 54.6797 45.4001 58.0312 45.7987 58.3125C47.3695 59.4492 49.1043 60 51.1088 60C52.6327 60 53.7229 59.7539 55.0358 59.1211C56.9231 58.207 58.3063 56.8125 59.2089 54.9023C59.8653 53.4961 60.0646 52.418 59.9826 50.6367C59.9005 48.6328 59.4668 47.3789 58.318 45.7617C58.0367 45.375 54.6958 41.9531 50.8861 38.1445L43.9583 31.2305L51.6832 23.4961C60.5687 14.5781 59.9591 15.3516 59.9591 13.125C59.9591 11.8477 59.9357 11.7422 59.5723 10.957C59.2089 10.1953 58.8455 9.79688 54.5317 5.48438C50.218 1.17188 49.8194 0.808594 49.0575 0.445312C48.2721 0.0820312 48.1666 0.0585938 46.8888 0.0585938C44.6382 0.0585938 45.2946 -0.46875 36.3975 8.42578L28.778 16.0547L23.2686 10.5703C17.0675 4.40625 16.6221 4.04297 14.0784 3.08203C12.8241 2.61328 2.33272 0 1.688 0C1.32461 0 0.996388 0.0820312 0.773666 0.222656ZM51.8942 8.12109L56.3838 12.5977V13.1133C56.3838 13.5938 56.3252 13.6758 55.4461 14.5781L54.52 15.5273L51.7887 12.8086C50.2883 11.3203 48.8933 10.0195 48.6823 9.91406C47.8266 9.49219 46.6778 9.86719 46.3027 10.6875C45.7518 11.9062 45.9159 12.1992 49.1512 15.4453L51.8708 18.1641L50.5813 19.4531L49.2919 20.7422L47.8266 19.2891C47.0178 18.4922 46.2441 17.7773 46.1035 17.707C45.7401 17.5195 44.8257 17.543 44.4272 17.7539C43.7239 18.1172 43.3839 18.9023 43.548 19.7695C43.6184 20.1328 43.9114 20.4961 45.1657 21.7734L46.7013 23.3203L45.3884 24.6445L44.0755 25.957L41.2974 23.1797C39.7617 21.6562 38.3902 20.3555 38.2496 20.2852C38.1089 20.2148 37.7807 20.1562 37.5111 20.1562C36.2568 20.1562 35.4362 21.2109 35.7645 22.418C35.87 22.8398 36.3037 23.3203 38.695 25.7227L41.4966 28.5352L40.2072 29.8242L38.9177 31.1016L37.4759 29.6719C35.87 28.0898 35.4362 27.8203 34.5922 27.9492C33.9124 28.0547 33.2325 28.6875 33.1152 29.3438C32.9511 30.2109 33.1856 30.6328 34.7915 32.2617L36.2685 33.75L35.0142 35.0156L33.76 36.2695L31.0404 33.5508C29.54 32.0625 28.145 30.7617 27.934 30.6562C27.0783 30.2344 25.9295 30.6094 25.5544 31.4297C25.0035 32.6484 25.1676 32.9414 28.4029 36.1875L31.1225 38.9062L29.833 40.1953L28.5436 41.4844L27.0783 40.0312C26.2695 39.2344 25.4958 38.5195 25.3551 38.4492C24.9918 38.2617 24.0774 38.2852 23.6789 38.4961C22.9755 38.8594 22.6356 39.6445 22.7997 40.5234C22.87 40.875 23.1631 41.2383 24.4174 42.5156L25.953 44.0625L24.6401 45.3867L23.3272 46.6992L20.549 43.9219C19.0134 42.3984 17.6419 41.0977 17.5013 41.0273C17.3606 40.957 17.0324 40.8984 16.7628 40.8984C15.5085 40.8984 14.6879 41.9531 15.0162 43.1602C15.1217 43.582 15.5554 44.0625 17.9467 46.4648L20.7483 49.2773L19.4589 50.5664L18.1694 51.8438L16.7276 50.4141C15.1217 48.832 14.6879 48.5625 13.8439 48.6914C13.164 48.7969 12.4842 49.4297 12.3669 50.0859C12.2028 50.9531 12.4373 51.375 14.0549 53.0039L15.5319 54.5039L14.5824 55.4297C13.6798 56.3086 13.5978 56.3672 13.1172 56.3672H12.6014L8.12349 51.8789L3.63389 47.4023V46.875V46.3477L25.0035 24.9961L46.3613 3.63281H46.8888H47.4163L51.8942 8.12109ZM8.48688 5.34375C13.7853 6.67969 14.5238 7.01953 16.7979 9.24609L17.5833 10.0195L13.8088 13.793L10.0225 17.5781L9.40121 16.957C8.29933 15.8906 7.36155 14.625 6.84577 13.5352C6.45894 12.7031 6.13072 11.625 5.34533 8.47266C4.79438 6.26953 4.33722 4.44141 4.33722 4.40625C4.33722 4.30078 4.31377 4.28906 8.48688 5.34375ZM23.21 15.6445L26.1991 18.6328L22.4129 22.418L18.6383 26.1914L15.6257 23.168L12.6014 20.1562L16.3525 16.4062C18.4156 14.3438 20.127 12.6562 20.1622 12.6562C20.1974 12.6562 21.5689 14.0039 23.21 15.6445ZM45.1071 37.5352L48.7644 41.1914L44.9781 44.9766L41.2036 48.75L37.5111 45.0586L33.8186 41.3672L37.5697 37.6172C39.6328 35.5547 41.3442 33.8672 41.3794 33.8672C41.4146 33.8672 43.0909 35.5195 45.1071 37.5352ZM53.4181 45.8555C55.153 47.625 55.4695 48 55.8681 48.8086C56.3252 49.7227 56.3252 49.7461 56.3252 51.0938C56.3252 52.4297 56.3135 52.4766 55.8915 53.332C55.3288 54.4805 54.4966 55.3125 53.3478 55.875C52.4921 56.2969 52.4452 56.3086 51.1088 56.3086C49.7608 56.3086 49.7373 56.3086 48.823 55.8516C48.0142 55.4531 47.6391 55.1484 45.8338 53.3672L43.7825 51.3398L47.5336 47.5781C49.5967 45.5156 51.3198 43.8281 51.355 43.8281C51.3902 43.8281 52.328 44.7422 53.4181 45.8555Z" fill="black"/>
</svg>
