<svg width="63" height="60" viewBox="0 0 63 60" fill="none" xmlns="http://www.w3.org/2000/svg">
<path d="M4.07337 0.219738C2.70768 0.71188 1.56345 1.74538 0.837535 3.12338C-0.0606248 4.82127 0.000892986 3.41867 0.000892986 24.0271C0.000892986 44.6356 -0.0606248 43.233 0.837535 44.9309C1.57575 46.3335 2.73228 47.3547 4.1595 47.8468C4.77468 48.056 5.24221 48.0806 9.24087 48.0806H13.6455L13.9654 47.7976C14.2115 47.6008 14.3099 47.367 14.3592 46.961C14.4207 46.4565 14.3838 46.3458 14.0516 45.9767L13.6825 45.5584L9.32699 45.4969C5.06996 45.4353 4.97153 45.4353 4.5286 45.1524C3.90112 44.7709 3.34746 44.0943 2.96605 43.2822L2.64616 42.6055L2.60925 30.7572L2.58464 18.9212H29.2834H55.9821V25.1345V31.3478H55.4285C54.7641 31.3478 54.2227 31.5569 53.6813 32.0122L53.2876 32.3443L52.2049 31.9137L51.1222 31.4831L51.0484 30.8802C50.9377 30.0559 50.6301 29.453 50.0518 28.9609C49.3505 28.358 48.7722 28.235 46.8037 28.2965C45.1919 28.3334 45.0565 28.358 44.5029 28.6779C43.7401 29.1331 43.1864 30.0559 43.1864 30.8925C43.1864 31.4093 43.1495 31.4954 42.8542 31.6184C42.6574 31.6923 42.1652 31.9014 41.7469 32.0983C41.0087 32.4305 40.9841 32.4305 40.7749 32.1967C40.1105 31.4585 38.5234 31.1386 37.5514 31.5323C37.01 31.7661 34.8938 33.8085 34.5739 34.4237C34.0572 35.4448 34.1802 36.626 34.9061 37.5857L35.3244 38.1393L34.8938 39.1359L34.4632 40.1448L33.8603 40.2186C33.0483 40.3294 32.4454 40.6246 31.9409 41.1906C31.375 41.8181 31.2519 42.3225 31.2519 44.045V45.4969H27.5609C23.4761 45.4969 23.3161 45.5215 22.9347 46.2474C22.701 46.7026 22.7871 47.3055 23.1193 47.7361L23.3531 48.0191L28.9143 48.0806L34.4632 48.1421L34.8938 49.2125L35.3367 50.2952L34.9922 50.689C34.5001 51.2795 34.3278 51.7963 34.3278 52.6329C34.3278 53.6664 34.5739 54.0724 36.0749 55.5366C37.2438 56.6808 37.4037 56.8038 38.0312 56.9392C38.9417 57.136 39.7783 56.9515 40.5411 56.3732C41.0825 55.9549 41.0948 55.9426 41.4885 56.1517C41.71 56.2625 42.1652 56.447 42.4974 56.5701L43.1249 56.7792L43.1987 57.4682C43.2971 58.3418 43.777 59.1784 44.4414 59.6214C44.9335 59.9412 45.0196 59.9535 46.9144 59.9905C49.1905 60.0397 49.6827 59.9166 50.3348 59.1907C50.8392 58.6125 51.0607 58.0588 51.0607 57.4067V56.8777L52.1803 56.3978L53.2999 55.9303L53.6198 56.2379C54.2227 56.7915 54.7518 56.9884 55.6253 56.9884C56.2651 56.9884 56.5358 56.9269 56.9787 56.6685C57.6185 56.2871 59.4271 54.4662 59.7101 53.9125C60.2145 52.9282 60.0669 51.6363 59.3656 50.812L58.9473 50.3322L59.4025 49.2002L59.8454 48.0806H60.4114C61.4941 48.0683 62.5768 47.2809 62.8721 46.272C62.9582 45.9767 62.9951 45.0662 62.9705 43.8851C62.9336 41.9903 62.9336 41.9657 62.5768 41.449C62.1093 40.7846 61.3342 40.3294 60.4975 40.2432L59.8454 40.1817L59.4025 39.1359L58.9596 38.0901L59.3779 37.5488C59.8823 36.8844 60.0915 36.1585 60.0054 35.3833C59.9193 34.6697 59.7224 34.276 59.0703 33.5378L58.5659 32.9718V19.4502C58.5659 8.0079 58.529 5.80556 58.3813 5.07965C57.9507 3.03725 56.6957 1.32706 55.0224 0.50272L54.0874 0.035183L29.4187 0.0105782C5.18069 -0.0140305 4.72546 -0.0140305 4.07337 0.219738ZM53.9766 2.92652C54.7148 3.34484 55.0963 3.80008 55.5761 4.83358L55.9206 5.57179L55.9575 10.9484L55.9944 16.3374H29.2834H2.57234L2.60925 10.8869L2.64616 5.44875L3.00296 4.68593C3.38437 3.8616 4.1595 3.02495 4.83619 2.74197C5.16839 2.59433 9.03171 2.56972 29.2834 2.55742H53.3368L53.9766 2.92652ZM48.4769 31.9629C48.5631 33.4886 48.5631 33.4886 50.384 34.0545C50.8638 34.2022 51.6513 34.5467 52.1434 34.8051C53.4722 35.5187 53.8782 35.4818 54.8625 34.5836L55.6253 33.8946L56.5481 34.8051L57.4585 35.7032L56.8557 36.3307C55.7853 37.4257 55.7607 37.6841 56.5235 39.1974C56.8188 39.8003 57.1879 40.6985 57.3355 41.2029C57.7415 42.5317 57.9507 42.7163 59.2795 42.7901L60.3499 42.8516L60.3868 44.1681L60.4237 45.4969H59.464C57.9753 45.4969 57.7784 45.6814 57.2617 47.3916C57.1386 47.7976 56.8065 48.5851 56.5112 49.151C55.7607 50.6028 55.7853 50.8489 56.7326 51.8455L57.4955 52.6206L56.6588 53.4942C56.1913 53.9617 55.736 54.3554 55.6376 54.3554C55.5392 54.3554 55.1332 54.0478 54.7395 53.6787C53.8536 52.8421 53.4845 52.7929 52.3526 53.4204C51.9465 53.6541 51.0238 54.0478 50.3225 54.2816C48.6246 54.8599 48.5508 54.946 48.4892 56.3363L48.4523 57.4436L47.1358 57.4067L45.8317 57.3698L45.7702 56.2994C45.6963 54.9706 45.5118 54.7614 44.1953 54.3677C43.7032 54.2201 42.8173 53.851 42.239 53.5557C40.7257 52.7683 40.4304 52.7929 39.4461 53.7402L38.6833 54.4662L37.7974 53.5803C37.3053 53.0882 36.9116 52.6329 36.9116 52.5714C36.9116 52.5099 37.2192 52.1408 37.6006 51.7594C38.4987 50.8612 38.5234 50.5044 37.7974 49.1879C37.5268 48.6835 37.1577 47.7853 36.9731 47.1947C36.5179 45.7429 36.3333 45.583 34.9676 45.4969L33.8972 45.4353V44.1435V42.8516L34.9553 42.8147C36.3087 42.7655 36.5302 42.5932 36.9116 41.3013C37.0592 40.7969 37.4283 39.8987 37.7236 39.3082C38.4741 37.7948 38.4618 37.4872 37.5883 36.5399C37.2192 36.1338 36.9116 35.7524 36.9116 35.6909C36.9116 35.6294 37.293 35.1988 37.7605 34.7435L38.6218 33.8946L39.36 34.5836C40.4181 35.5556 40.6273 35.5802 42.1529 34.8174C42.8173 34.4729 43.7647 34.0792 44.2445 33.9438C45.4749 33.587 45.6963 33.3163 45.7455 32.1106C45.7702 31.5938 45.8071 31.0894 45.8317 31.0033C45.8809 30.8925 46.2131 30.8556 47.1482 30.8802L48.4154 30.9171L48.4769 31.9629Z" fill="black"/>
<path d="M9.95466 5.5479C8.62587 6.11386 7.78923 7.07354 7.43243 8.45154C6.95259 10.3709 7.87536 12.3887 9.65937 13.2745C10.1884 13.5329 10.4468 13.5698 11.5049 13.5698C12.5384 13.5698 12.8337 13.5206 13.3012 13.2868C14.2117 12.8439 14.8392 12.2164 15.2821 11.3183C15.6512 10.5801 15.6881 10.3955 15.6881 9.44813C15.6758 8.6361 15.6143 8.26699 15.4051 7.79945C14.9868 6.87669 14.3716 6.21229 13.5104 5.75706C12.8337 5.38795 12.5999 5.33874 11.6895 5.30183C10.8036 5.26492 10.5329 5.30183 9.95466 5.5479ZM12.3169 8.13165C12.5507 8.27929 12.8337 8.62379 12.969 8.88217C13.252 9.47274 13.1044 10.0756 12.5507 10.617C12.2185 10.9369 12.0709 10.9861 11.5049 10.9861C10.9389 10.9861 10.7913 10.9369 10.4714 10.6293C10.0162 10.1863 9.81932 9.58347 9.96696 9.06672C10.1023 8.59918 10.2869 8.36542 10.7667 8.07013C11.2588 7.77485 11.8125 7.78715 12.3169 8.13165Z" fill="black"/>
<path d="M20.917 5.47354C19.8097 5.85495 19.0592 6.54395 18.444 7.72509C18.198 8.19263 18.161 8.46331 18.1487 9.44759C18.1487 10.8625 18.4071 11.5023 19.3791 12.4743C20.265 13.3601 21.1262 13.6677 22.5165 13.6062C23.7469 13.5447 24.4974 13.2248 25.3217 12.3881C27.9178 9.75518 25.9984 5.23977 22.295 5.26438C21.8398 5.27668 21.2246 5.36281 20.917 5.47354ZM23.021 8.03268C23.8207 8.451 24.1406 9.69366 23.6115 10.3581C22.8364 11.3423 21.3846 11.2193 20.8678 10.1366C20.6218 9.61984 20.6218 9.28764 20.8432 8.85702C21.3108 7.95886 22.2089 7.61436 23.021 8.03268Z" fill="black"/>
<path d="M35.5953 5.43635C34.4265 5.80545 33.4053 6.77743 32.9624 7.95858C32.6179 8.89365 32.6671 10.4685 33.0854 11.2928C33.4668 12.0434 34.2542 12.8431 35.0048 13.2368L35.6199 13.569L42.1408 13.6059C49.3999 13.6428 49.3261 13.6551 50.4703 12.8185C51.6515 11.9449 52.3405 10.2347 52.0698 8.80752C51.7991 7.3557 50.9748 6.24838 49.7075 5.64551L49.0308 5.32561L42.5715 5.30101C37.5147 5.2887 36.0014 5.31331 35.5953 5.43635ZM48.6002 8.0324C49.7813 8.63527 49.7813 10.2593 48.6002 10.8622C48.3049 11.0222 47.3206 11.0468 42.3869 11.0468C35.9275 11.0468 36.0383 11.0591 35.5584 10.2716C35.0786 9.48422 35.3985 8.3769 36.2105 8.0324C36.8134 7.76172 48.0835 7.76172 48.6002 8.0324Z" fill="black"/>
<path d="M45.5242 36.7001C44.1708 37.0077 42.7682 37.7828 41.7716 38.7917C38.5727 41.9784 38.8065 47.1582 42.2884 50.0618C43.0635 50.7139 44.6507 51.4767 45.6226 51.6613C46.6684 51.8581 48.5755 51.7474 49.5967 51.4152C51.7129 50.7508 53.583 48.893 54.3459 46.7275C54.7642 45.5095 54.8749 43.5901 54.5796 42.4213C53.9275 39.8375 51.9836 37.7213 49.5229 36.9339C48.2802 36.5402 46.6561 36.4418 45.5242 36.7001ZM47.9972 39.2224C49.5844 39.5176 50.9132 40.5388 51.6391 42.0276C52.082 42.9134 52.1066 43.0242 52.1066 44.1315C52.0943 45.7925 51.799 46.5061 50.6425 47.6626C49.486 48.8191 48.7724 49.1144 47.1237 49.1267C46.0656 49.1267 45.881 49.0898 45.1305 48.733C43.0266 47.7364 41.8085 45.5341 42.1899 43.4302C42.5837 41.3263 44.0232 39.7883 46.0779 39.2716C46.8653 39.0747 47.1852 39.0747 47.9972 39.2224Z" fill="black"/>
<path d="M19.133 26.0936C18.8377 26.3397 18.6777 26.8933 17.5335 31.7163C16.8199 34.6569 16.2416 37.2529 16.2416 37.4744C16.2416 38.6924 18.2594 39.0739 18.7024 37.9419C18.7639 37.782 19.3667 35.309 20.0557 32.4422C21.3968 26.8441 21.4214 26.5857 20.8555 26.0813C20.4125 25.7122 19.5759 25.7122 19.133 26.0936Z" fill="black"/>
<path d="M11.3693 26.783C11.0248 26.9307 7.70287 30.5602 7.24763 31.2861C6.91544 31.8275 6.92774 32.8118 7.28455 33.267C7.99815 34.1775 10.8772 37.3395 11.1725 37.524C11.7138 37.8809 12.2675 37.807 12.7473 37.3272C13.2026 36.872 13.2887 36.3675 13.018 35.8631C12.9442 35.7154 12.2183 34.8665 11.4185 33.9683C10.6188 33.0825 9.96672 32.295 9.96672 32.2335C9.96672 32.172 10.6065 31.4092 11.3939 30.5356C13.0057 28.727 13.2395 28.3579 13.1164 27.755C12.9811 26.9922 12.0706 26.4878 11.3693 26.783Z" fill="black"/>
<path d="M25.1491 26.7831C24.7062 26.98 24.3617 27.5213 24.3617 28.0381C24.3617 28.5425 24.3002 28.4687 26.8593 31.3354C27.2407 31.7784 27.5606 32.1844 27.5606 32.2336C27.5606 32.2828 26.9085 33.0579 26.1088 33.9561C25.2968 34.8543 24.5832 35.7155 24.5093 35.8631C23.9188 36.9582 25.2106 38.2008 26.2811 37.5856C26.5886 37.4134 29.9598 33.6608 30.2797 33.1318C30.5504 32.7134 30.5873 31.7907 30.3535 31.397C30.1936 31.1017 27.0439 27.5336 26.5394 27.0661C26.2072 26.7585 25.5428 26.6232 25.1491 26.7831Z" fill="black"/>
<path d="M18.0379 45.6814C17.5212 45.952 17.3612 46.235 17.3489 46.8256C17.3489 47.5884 17.8411 48.0806 18.6285 48.0806C19.3913 48.0806 19.8097 47.7115 19.8958 46.9609C19.9573 46.4688 19.9204 46.3458 19.6128 46.0013C19.1822 45.5214 18.5547 45.3984 18.0379 45.6814Z" fill="black"/>
</svg>
