<svg width="47" height="47" viewBox="0 0 47 47" fill="none" xmlns="http://www.w3.org/2000/svg">
<path d="M21.6611 32.4095V25.6952H18.8567C18.7111 25.6952 18.5714 25.6422 18.4685 25.5479C18.3655 25.4535 18.3077 25.3256 18.3077 25.1921V22.5365C18.3077 22.4031 18.3655 22.2751 18.4685 22.1808C18.5714 22.0865 18.7111 22.0335 18.8567 22.0335H21.65V19.4628C21.5831 18.8531 21.6628 18.2375 21.8833 17.6591C22.1038 17.0807 22.4599 16.5535 22.9264 16.1146C23.393 15.6757 23.9587 15.3358 24.584 15.1186C25.2092 14.9015 25.8787 14.8124 26.5455 14.8577H28.8825C29.0295 14.8574 29.1707 14.9101 29.2757 15.0044C29.3806 15.0987 29.4409 15.227 29.4436 15.3616V17.6102C29.4404 17.7446 29.3799 17.8726 29.275 17.9666C29.1701 18.0606 29.0292 18.1133 28.8825 18.1133H27.4219C25.8444 18.1133 25.5412 18.7982 25.5412 19.8052V22.0325H29.2915C29.3694 22.0302 29.447 22.0434 29.5188 22.0713C29.5906 22.0992 29.6549 22.1411 29.7072 22.194C29.7596 22.247 29.7987 22.3098 29.8219 22.378C29.8451 22.4463 29.8518 22.5183 29.8415 22.5891L29.502 25.2549C29.485 25.377 29.4197 25.4892 29.3186 25.5701C29.2174 25.6511 29.0873 25.6953 28.953 25.6943H25.5644V32.4086C25.5663 32.5272 25.5422 32.645 25.4935 32.7549C25.4448 32.8648 25.3725 32.9647 25.2809 33.0485C25.1893 33.1324 25.0803 33.1985 24.9603 33.243C24.8403 33.2875 24.7117 33.3095 24.5823 33.3076H22.6311C22.5027 33.308 22.3754 33.2849 22.2568 33.2398C22.1382 33.1946 22.0306 33.1282 21.9403 33.0445C21.85 32.9608 21.7788 32.8615 21.7309 32.7523C21.6829 32.6431 21.6592 32.5272 21.6611 32.4095Z" fill="white"/>
<circle cx="23.5" cy="23.5" r="23" stroke="white"/>
</svg>
