<svg width="339" height="466" viewBox="0 0 339 466" fill="none" xmlns="http://www.w3.org/2000/svg">
<path d="M269 126.783C269 131.201 272.582 134.783 277 134.783C281.418 134.783 285 131.201 285 126.783C285 122.365 281.418 118.783 277 118.783C272.582 118.783 269 122.365 269 126.783ZM132.391 2L132.391 0.5L132.391 2ZM2 126.783L0.500016 126.776L0.499977 126.785L0.500035 126.793L2 126.783ZM53.4711 240.523L52.1595 241.251L52.1595 241.251L53.4711 240.523ZM70.1236 303.628L71.6225 303.684L71.6225 303.684L70.1236 303.628ZM137.382 458C137.382 462.418 140.964 466 145.382 466C149.801 466 153.382 462.418 153.382 458C153.382 453.582 149.801 450 145.382 450C140.964 450 137.382 453.582 137.382 458ZM278.5 126.783C278.5 58.2108 211.185 0.499974 132.391 0.5L132.391 3.5C209.96 3.49997 275.5 60.2688 275.5 126.783H278.5ZM132.391 0.5C57.8728 0.500025 0.818432 57.4008 0.500016 126.776L3.49998 126.79C3.81048 59.1398 59.4495 3.50002 132.391 3.5L132.391 0.5ZM0.500035 126.793C0.659629 150.204 8.13389 168.957 18.2782 186.785C23.3419 195.684 29.0861 204.378 34.9121 213.288C40.7473 222.211 46.6745 231.366 52.1595 241.251L54.7827 239.796C49.2391 229.804 43.2573 220.568 37.4229 211.646C31.5794 202.71 25.8934 194.102 20.8857 185.302C10.8874 167.73 3.65483 149.49 3.49997 126.773L0.500035 126.793ZM52.1595 241.251C67.5222 268.939 69.0515 292.256 68.6247 303.571L71.6225 303.684C72.0655 291.941 70.4636 268.057 54.7827 239.796L52.1595 241.251ZM77.0293 312.697H194.268V309.697H77.0293V312.697ZM199.031 317.461V324.666H202.031V317.461H199.031ZM194.268 329.429H84.245V332.429H194.268V329.429ZM76.4812 337.193V345.094H79.4812V337.193H76.4812ZM84.245 352.858H194.268V349.858H84.245V352.858ZM199.031 357.622V364.137H202.031V357.622H199.031ZM194.268 368.901H84.245V371.901H194.268V368.901ZM76.4812 376.665V386.643H79.4812V376.665H76.4812ZM84.245 394.407H194.268V391.407H84.245V394.407ZM199.031 399.171V406.032H202.031V399.171H199.031ZM194.268 410.796H151.646V413.796H194.268V410.796ZM143.882 418.56V458H146.882V418.56H143.882ZM151.646 410.796C147.358 410.796 143.882 414.272 143.882 418.56H146.882C146.882 415.929 149.015 413.796 151.646 413.796V410.796ZM199.031 406.032C199.031 408.663 196.899 410.796 194.268 410.796V413.796C198.555 413.796 202.031 410.32 202.031 406.032H199.031ZM194.268 394.407C196.899 394.407 199.031 396.539 199.031 399.171H202.031C202.031 394.883 198.555 391.407 194.268 391.407V394.407ZM76.4812 386.643C76.4812 390.931 79.9572 394.407 84.245 394.407V391.407C81.614 391.407 79.4812 389.274 79.4812 386.643H76.4812ZM84.245 368.901C79.9572 368.901 76.4812 372.377 76.4812 376.665H79.4812C79.4812 374.034 81.614 371.901 84.245 371.901V368.901ZM199.031 364.137C199.031 366.768 196.899 368.901 194.268 368.901V371.901C198.555 371.901 202.031 368.425 202.031 364.137H199.031ZM194.268 352.858C196.899 352.858 199.031 354.991 199.031 357.622H202.031C202.031 353.334 198.555 349.858 194.268 349.858V352.858ZM76.4812 345.094C76.4812 349.382 79.9572 352.858 84.245 352.858V349.858C81.614 349.858 79.4812 347.725 79.4812 345.094H76.4812ZM84.245 329.429C79.9572 329.429 76.4812 332.905 76.4812 337.193H79.4812C79.4812 334.562 81.614 332.429 84.245 332.429V329.429ZM199.031 324.666C199.031 327.297 196.899 329.429 194.268 329.429V332.429C198.555 332.429 202.031 328.953 202.031 324.666H199.031ZM194.268 312.697C196.899 312.697 199.031 314.83 199.031 317.461H202.031C202.031 313.173 198.556 309.697 194.268 309.697V312.697ZM68.6247 303.571C68.4478 308.259 72.1264 312.697 77.0293 312.697V309.697C74.0358 309.697 71.5017 306.888 71.6225 303.684L68.6247 303.571Z" fill="#3DB8DB"/>
<circle cx="137" cy="130" r="116" fill="#3DB8DB"/>
<g filter="url(#filter0_d_294_2774)">
<ellipse cx="135.5" cy="129" rx="103.5" ry="103" fill="white"/>
</g>
<path d="M56.0729 95V83.2H57.7849V95H56.0729ZM66.0824 95V91.08C66.0824 90.8507 66.0824 90.656 66.0824 90.496C66.0824 90.336 66.0824 90.1867 66.0824 90.048C66.0824 89.632 66.0184 89.2667 65.8904 88.952C65.7624 88.632 65.5518 88.384 65.2584 88.208C64.9651 88.0267 64.5731 87.936 64.0824 87.936C63.6504 87.936 63.2584 88.0427 62.9064 88.256C62.5598 88.4693 62.2824 88.76 62.0744 89.128C61.8718 89.4907 61.7704 89.904 61.7704 90.368L61.0264 90C61.0264 89.312 61.1891 88.696 61.5144 88.152C61.8398 87.6027 62.2744 87.168 62.8184 86.848C63.3678 86.528 63.9678 86.368 64.6184 86.368C65.2904 86.368 65.8638 86.4987 66.3384 86.76C66.8184 87.016 67.1838 87.384 67.4344 87.864C67.6904 88.3387 67.8184 88.9067 67.8184 89.568C67.8184 89.8133 67.8184 90.0853 67.8184 90.384C67.8184 90.6827 67.8184 90.9707 67.8184 91.248V95H66.0824ZM60.0344 95V86.504H61.7704V95H60.0344ZM76.0512 95V91.08C76.0512 90.8507 76.0512 90.656 76.0512 90.496C76.0512 90.336 76.0512 90.1867 76.0512 90.048C76.0512 89.632 75.9872 89.2667 75.8592 88.952C75.7312 88.632 75.5205 88.384 75.2272 88.208C74.9339 88.0267 74.5419 87.936 74.0512 87.936C73.6192 87.936 73.2272 88.0427 72.8752 88.256C72.5285 88.4693 72.2512 88.76 72.0432 89.128C71.8405 89.4907 71.7392 89.904 71.7392 90.368L70.9952 90C70.9952 89.312 71.1579 88.696 71.4832 88.152C71.8085 87.6027 72.2432 87.168 72.7872 86.848C73.3365 86.528 73.9365 86.368 74.5872 86.368C75.2592 86.368 75.8325 86.4987 76.3072 86.76C76.7872 87.016 77.1525 87.384 77.4032 87.864C77.6592 88.3387 77.7872 88.9067 77.7872 89.568C77.7872 89.8133 77.7872 90.0853 77.7872 90.384C77.7872 90.6827 77.7872 90.9707 77.7872 91.248V95H76.0512ZM70.0032 95V86.504H71.7392V95H70.0032ZM84.0759 95.16C83.2013 95.16 82.4279 94.9707 81.7559 94.592C81.0893 94.2133 80.5666 93.6933 80.1879 93.032C79.8146 92.3653 79.6279 91.6027 79.6279 90.744C79.6279 89.8907 79.8146 89.136 80.1879 88.48C80.5666 87.8187 81.0893 87.304 81.7559 86.936C82.4279 86.5627 83.2013 86.376 84.0759 86.376C84.9506 86.376 85.7213 86.5627 86.3879 86.936C87.0599 87.304 87.5826 87.8187 87.9559 88.48C88.3346 89.136 88.5239 89.8907 88.5239 90.744C88.5239 91.6027 88.3346 92.3653 87.9559 93.032C87.5826 93.6933 87.0599 94.2133 86.3879 94.592C85.7213 94.9707 84.9506 95.16 84.0759 95.16ZM84.0759 93.672C84.6093 93.672 85.0786 93.552 85.4839 93.312C85.8893 93.072 86.2066 92.7333 86.4359 92.296C86.6653 91.8533 86.7799 91.336 86.7799 90.744C86.7799 90.1573 86.6653 89.648 86.4359 89.216C86.2066 88.784 85.8893 88.4507 85.4839 88.216C85.0786 87.9813 84.6093 87.864 84.0759 87.864C83.5479 87.864 83.0786 87.9813 82.6679 88.216C82.2626 88.4507 81.9453 88.784 81.7159 89.216C81.4866 89.648 81.3719 90.1573 81.3719 90.744C81.3719 91.336 81.4866 91.8533 81.7159 92.296C81.9453 92.7333 82.2626 93.072 82.6679 93.312C83.0786 93.552 83.5479 93.672 84.0759 93.672ZM97.2874 86.504L94.5354 95H92.2314L89.4074 86.504H91.1994L93.5194 94.272H93.2474L95.4954 86.504H97.2874ZM101.322 95.168C100.682 95.168 100.12 95.0667 99.6342 94.864C99.1542 94.6613 98.7809 94.3707 98.5142 93.992C98.2475 93.6133 98.1142 93.1573 98.1142 92.624C98.1142 92.0533 98.2635 91.5813 98.5622 91.208C98.8662 90.8347 99.2822 90.5467 99.8102 90.344C100.344 90.136 100.949 90 101.626 89.936C102.634 89.8347 103.344 89.736 103.754 89.64C104.17 89.544 104.378 89.3867 104.378 89.168C104.378 89.1627 104.378 89.1573 104.378 89.152C104.378 88.72 104.194 88.392 103.826 88.168C103.458 87.944 102.933 87.832 102.25 87.832C101.53 87.832 100.973 87.96 100.578 88.216C100.189 88.4667 99.9942 88.8667 99.9942 89.416H98.2902C98.2902 88.7653 98.4582 88.2133 98.7942 87.76C99.1355 87.3067 99.6049 86.9627 100.202 86.728C100.8 86.488 101.485 86.368 102.258 86.368C102.968 86.368 103.613 86.4773 104.194 86.696C104.781 86.9093 105.248 87.2293 105.594 87.656C105.941 88.0827 106.114 88.6133 106.114 89.248C106.114 89.36 106.114 89.472 106.114 89.584C106.114 89.6907 106.114 89.8 106.114 89.912V93.304C106.114 93.5013 106.122 93.6933 106.138 93.88C106.154 94.0613 106.184 94.224 106.226 94.368C106.274 94.5333 106.33 94.6693 106.394 94.776C106.464 94.8827 106.52 94.9573 106.562 95H104.834C104.802 94.968 104.754 94.9013 104.69 94.8C104.632 94.6933 104.578 94.5707 104.53 94.432C104.482 94.2987 104.445 94.1467 104.418 93.976C104.397 93.8 104.386 93.6107 104.386 93.408L104.706 93.632C104.546 93.9413 104.304 94.2107 103.978 94.44C103.658 94.6693 103.272 94.848 102.818 94.976C102.37 95.104 101.872 95.168 101.322 95.168ZM101.682 93.728C102.178 93.728 102.629 93.6507 103.034 93.496C103.445 93.336 103.773 93.096 104.018 92.776C104.264 92.4507 104.386 92.0427 104.386 91.552V90.144L104.794 90.68C104.453 90.8133 104.034 90.9227 103.538 91.008C103.048 91.088 102.541 91.1547 102.018 91.208C101.298 91.272 100.757 91.3973 100.394 91.584C100.032 91.7653 99.8502 92.0693 99.8502 92.496C99.8502 92.9067 99.9995 93.216 100.298 93.424C100.602 93.6267 101.064 93.728 101.682 93.728ZM111.635 95.144C111.353 95.144 111.07 95.1147 110.787 95.056C110.51 94.9973 110.254 94.8907 110.019 94.736C109.79 94.576 109.606 94.3493 109.467 94.056C109.329 93.7627 109.259 93.3787 109.259 92.904C109.259 92.792 109.259 92.6747 109.259 92.552C109.259 92.4293 109.259 92.304 109.259 92.176V87.944H107.219V86.504H108.291C108.521 86.504 108.699 86.496 108.827 86.48C108.961 86.4587 109.057 86.4133 109.115 86.344C109.179 86.2693 109.219 86.152 109.235 85.992C109.251 85.832 109.259 85.6133 109.259 85.336V83.696H110.995V86.504H113.595V87.944H110.995V91.712C110.995 91.8187 110.995 91.9253 110.995 92.032C110.995 92.1387 110.995 92.2373 110.995 92.328C110.995 92.7547 111.046 93.0907 111.147 93.336C111.254 93.5813 111.494 93.704 111.867 93.704C112.027 93.704 112.179 93.6907 112.323 93.664C112.467 93.6373 112.577 93.608 112.651 93.576V94.992C112.555 95.0293 112.419 95.064 112.243 95.096C112.067 95.128 111.865 95.144 111.635 95.144ZM115.277 95V86.504H116.989V95H115.277ZM116.141 84.744C115.843 84.744 115.584 84.664 115.365 84.504C115.152 84.3387 115.045 84.112 115.045 83.824C115.045 83.5413 115.152 83.32 115.365 83.16C115.584 82.9947 115.843 82.912 116.141 82.912C116.435 82.912 116.688 82.9947 116.901 83.16C117.12 83.32 117.229 83.5413 117.229 83.824C117.229 84.112 117.12 84.3387 116.901 84.504C116.688 84.664 116.435 84.744 116.141 84.744ZM125.348 95V91.08C125.348 90.8507 125.348 90.656 125.348 90.496C125.348 90.336 125.348 90.1867 125.348 90.048C125.348 89.632 125.284 89.2667 125.156 88.952C125.028 88.632 124.817 88.384 124.524 88.208C124.231 88.0267 123.839 87.936 123.348 87.936C122.916 87.936 122.524 88.0427 122.172 88.256C121.825 88.4693 121.548 88.76 121.34 89.128C121.137 89.4907 121.036 89.904 121.036 90.368L120.292 90C120.292 89.312 120.455 88.696 120.78 88.152C121.105 87.6027 121.54 87.168 122.084 86.848C122.633 86.528 123.233 86.368 123.884 86.368C124.556 86.368 125.129 86.4987 125.604 86.76C126.084 87.016 126.449 87.384 126.7 87.864C126.956 88.3387 127.084 88.9067 127.084 89.568C127.084 89.8133 127.084 90.0853 127.084 90.384C127.084 90.6827 127.084 90.9707 127.084 91.248V95H125.348ZM119.3 95V86.504H121.036V95H119.3ZM134.845 94.32C135.325 94.3627 135.746 94.4533 136.109 94.592C136.471 94.7253 136.754 94.9227 136.957 95.184C137.165 95.4507 137.269 95.8 137.269 96.232C137.269 96.7173 137.103 97.1387 136.773 97.496C136.447 97.8587 135.959 98.1387 135.309 98.336C134.658 98.5387 133.85 98.64 132.885 98.64C131.503 98.64 130.45 98.44 129.725 98.04C128.999 97.64 128.637 97.096 128.637 96.408C128.637 96.2 128.661 96.016 128.709 95.856C128.757 95.696 128.815 95.5627 128.885 95.456L130.501 95.696C130.463 95.7493 130.426 95.8267 130.389 95.928C130.351 96.0347 130.333 96.1627 130.333 96.312C130.333 96.6907 130.565 96.96 131.029 97.12C131.493 97.28 132.135 97.36 132.957 97.36C133.559 97.36 134.058 97.3173 134.453 97.232C134.853 97.152 135.151 97.0347 135.349 96.88C135.546 96.7253 135.645 96.544 135.645 96.336C135.645 96.0213 135.509 95.824 135.237 95.744C134.965 95.664 134.637 95.608 134.253 95.576L131.029 95.312C130.469 95.264 130.01 95.096 129.653 94.808C129.301 94.52 129.125 94.1573 129.125 93.72C129.125 93.448 129.194 93.1947 129.333 92.96C129.471 92.7253 129.631 92.528 129.813 92.368C129.999 92.208 130.159 92.1093 130.293 92.072L131.429 92.616C131.306 92.632 131.157 92.7147 130.981 92.864C130.81 93.008 130.725 93.1787 130.725 93.376C130.725 93.5573 130.799 93.7067 130.949 93.824C131.103 93.9413 131.402 94.0187 131.845 94.056L134.845 94.32ZM135.909 86.504H137.485L136.837 89.824C136.719 90.4427 136.503 91.0027 136.189 91.504C135.879 92 135.458 92.392 134.925 92.68C134.397 92.968 133.738 93.112 132.949 93.112C132.127 93.112 131.421 92.9707 130.829 92.688C130.237 92.4053 129.781 92.0133 129.461 91.512C129.146 91.0053 128.989 90.4293 128.989 89.784C128.989 89.128 129.151 88.5413 129.477 88.024C129.807 87.5067 130.261 87.1013 130.837 86.808C131.418 86.5147 132.082 86.368 132.829 86.368C133.458 86.368 134.015 86.4747 134.501 86.688C134.991 86.9013 135.381 87.1733 135.669 87.504C135.957 87.8347 136.114 88.1787 136.141 88.536L135.645 88.592L135.909 86.504ZM132.941 91.696C133.405 91.696 133.805 91.6213 134.141 91.472C134.477 91.3173 134.735 91.096 134.917 90.808C135.098 90.5147 135.189 90.1627 135.189 89.752C135.189 89.3467 135.098 89 134.917 88.712C134.735 88.4187 134.477 88.1947 134.141 88.04C133.805 87.88 133.407 87.8 132.949 87.8C132.506 87.8 132.114 87.8827 131.773 88.048C131.437 88.208 131.173 88.4347 130.981 88.728C130.789 89.0213 130.693 89.3707 130.693 89.776C130.693 90.1813 130.783 90.528 130.965 90.816C131.146 91.0987 131.405 91.3173 131.741 91.472C132.077 91.6213 132.477 91.696 132.941 91.696ZM143.128 98.496V86.504H144.864V98.496H143.128ZM147.6 95.168C146.939 95.168 146.326 95.0027 145.76 94.672C145.195 94.336 144.736 93.8773 144.384 93.296C144.038 92.7147 143.864 92.056 143.864 91.32C143.864 91.2987 143.864 91.2827 143.864 91.272C143.864 91.256 143.864 91.24 143.864 91.224L144.872 91.2C144.872 91.2107 144.872 91.224 144.872 91.24C144.872 91.2507 144.872 91.264 144.872 91.28C144.872 91.7173 144.984 92.112 145.208 92.464C145.438 92.8107 145.734 93.0853 146.096 93.288C146.459 93.4907 146.848 93.592 147.264 93.592C147.947 93.592 148.52 93.36 148.984 92.896C149.454 92.4267 149.688 91.7067 149.688 90.736C149.688 89.76 149.456 89.0427 148.992 88.584C148.528 88.12 147.952 87.888 147.264 87.888C146.848 87.888 146.459 87.9893 146.096 88.192C145.734 88.3893 145.438 88.6613 145.208 89.008C144.984 89.3493 144.872 89.7413 144.872 90.184L143.864 90.144C143.864 89.4027 144.038 88.7493 144.384 88.184C144.736 87.6133 145.195 87.168 145.76 86.848C146.326 86.528 146.939 86.368 147.6 86.368C148.288 86.368 148.926 86.5387 149.512 86.88C150.099 87.216 150.571 87.7093 150.928 88.36C151.291 89.0107 151.472 89.8027 151.472 90.736C151.472 91.6907 151.296 92.4987 150.944 93.16C150.592 93.8213 150.123 94.3227 149.536 94.664C148.95 95 148.304 95.168 147.6 95.168ZM156.338 95.168C155.698 95.168 155.135 95.0667 154.65 94.864C154.17 94.6613 153.796 94.3707 153.53 93.992C153.263 93.6133 153.13 93.1573 153.13 92.624C153.13 92.0533 153.279 91.5813 153.578 91.208C153.882 90.8347 154.298 90.5467 154.826 90.344C155.359 90.136 155.964 90 156.642 89.936C157.65 89.8347 158.359 89.736 158.77 89.64C159.186 89.544 159.394 89.3867 159.394 89.168C159.394 89.1627 159.394 89.1573 159.394 89.152C159.394 88.72 159.21 88.392 158.842 88.168C158.474 87.944 157.948 87.832 157.266 87.832C156.546 87.832 155.988 87.96 155.594 88.216C155.204 88.4667 155.01 88.8667 155.01 89.416H153.306C153.306 88.7653 153.474 88.2133 153.81 87.76C154.151 87.3067 154.62 86.9627 155.218 86.728C155.815 86.488 156.5 86.368 157.274 86.368C157.983 86.368 158.628 86.4773 159.21 86.696C159.796 86.9093 160.263 87.2293 160.61 87.656C160.956 88.0827 161.13 88.6133 161.13 89.248C161.13 89.36 161.13 89.472 161.13 89.584C161.13 89.6907 161.13 89.8 161.13 89.912V93.304C161.13 93.5013 161.138 93.6933 161.154 93.88C161.17 94.0613 161.199 94.224 161.242 94.368C161.29 94.5333 161.346 94.6693 161.41 94.776C161.479 94.8827 161.535 94.9573 161.578 95H159.85C159.818 94.968 159.77 94.9013 159.706 94.8C159.647 94.6933 159.594 94.5707 159.546 94.432C159.498 94.2987 159.46 94.1467 159.434 93.976C159.412 93.8 159.402 93.6107 159.402 93.408L159.722 93.632C159.562 93.9413 159.319 94.2107 158.994 94.44C158.674 94.6693 158.287 94.848 157.834 94.976C157.386 95.104 156.887 95.168 156.338 95.168ZM156.698 93.728C157.194 93.728 157.644 93.6507 158.05 93.496C158.46 93.336 158.788 93.096 159.034 92.776C159.279 92.4507 159.402 92.0427 159.402 91.552V90.144L159.81 90.68C159.468 90.8133 159.05 90.9227 158.554 91.008C158.063 91.088 157.556 91.1547 157.034 91.208C156.314 91.272 155.772 91.3973 155.41 91.584C155.047 91.7653 154.866 92.0693 154.866 92.496C154.866 92.9067 155.015 93.216 155.314 93.424C155.618 93.6267 156.079 93.728 156.698 93.728ZM166.651 95.144C166.368 95.144 166.085 95.1147 165.803 95.056C165.525 94.9973 165.269 94.8907 165.035 94.736C164.805 94.576 164.621 94.3493 164.483 94.056C164.344 93.7627 164.275 93.3787 164.275 92.904C164.275 92.792 164.275 92.6747 164.275 92.552C164.275 92.4293 164.275 92.304 164.275 92.176V87.944H162.235V86.504H163.307C163.536 86.504 163.715 86.496 163.843 86.48C163.976 86.4587 164.072 86.4133 164.131 86.344C164.195 86.2693 164.235 86.152 164.251 85.992C164.267 85.832 164.275 85.6133 164.275 85.336V83.696H166.011V86.504H168.611V87.944H166.011V91.712C166.011 91.8187 166.011 91.9253 166.011 92.032C166.011 92.1387 166.011 92.2373 166.011 92.328C166.011 92.7547 166.061 93.0907 166.163 93.336C166.269 93.5813 166.509 93.704 166.883 93.704C167.043 93.704 167.195 93.6907 167.339 93.664C167.483 93.6373 167.592 93.608 167.667 93.576V94.992C167.571 95.0293 167.435 95.064 167.259 95.096C167.083 95.128 166.88 95.144 166.651 95.144ZM176.325 95V91.888C176.325 91.7493 176.325 91.5813 176.325 91.384C176.325 91.1867 176.325 90.9867 176.325 90.784C176.325 90.576 176.325 90.4027 176.325 90.264C176.325 89.5013 176.167 88.9227 175.853 88.528C175.543 88.1333 175.034 87.936 174.325 87.936C173.85 87.936 173.439 88.0293 173.093 88.216C172.746 88.4027 172.477 88.6587 172.285 88.984C172.098 89.3093 172.005 89.68 172.005 90.096L171.189 89.76C171.189 89.1147 171.343 88.5387 171.653 88.032C171.967 87.52 172.397 87.1147 172.941 86.816C173.49 86.5173 174.117 86.368 174.821 86.368C175.845 86.368 176.639 86.6747 177.205 87.288C177.775 87.896 178.061 88.744 178.061 89.832C178.061 90.1093 178.061 90.4373 178.061 90.816C178.061 91.1893 178.061 91.5973 178.061 92.04V95H176.325ZM170.269 95V82.496H172.005V95H170.269ZM186.945 95L184.769 86.504H186.177L188.265 94.368H187.969L189.329 86.504H191.129L189.337 95H186.945ZM181.145 95L179.345 86.504H181.145L182.521 94.368H182.217L184.289 86.504H185.697L183.553 95H181.145ZM195.478 95.168C194.838 95.168 194.276 95.0667 193.79 94.864C193.31 94.6613 192.937 94.3707 192.67 93.992C192.404 93.6133 192.27 93.1573 192.27 92.624C192.27 92.0533 192.42 91.5813 192.718 91.208C193.022 90.8347 193.438 90.5467 193.966 90.344C194.5 90.136 195.105 90 195.782 89.936C196.79 89.8347 197.5 89.736 197.91 89.64C198.326 89.544 198.534 89.3867 198.534 89.168C198.534 89.1627 198.534 89.1573 198.534 89.152C198.534 88.72 198.35 88.392 197.982 88.168C197.614 87.944 197.089 87.832 196.406 87.832C195.686 87.832 195.129 87.96 194.734 88.216C194.345 88.4667 194.15 88.8667 194.15 89.416H192.446C192.446 88.7653 192.614 88.2133 192.95 87.76C193.292 87.3067 193.761 86.9627 194.358 86.728C194.956 86.488 195.641 86.368 196.414 86.368C197.124 86.368 197.769 86.4773 198.35 86.696C198.937 86.9093 199.404 87.2293 199.75 87.656C200.097 88.0827 200.27 88.6133 200.27 89.248C200.27 89.36 200.27 89.472 200.27 89.584C200.27 89.6907 200.27 89.8 200.27 89.912V93.304C200.27 93.5013 200.278 93.6933 200.294 93.88C200.31 94.0613 200.34 94.224 200.382 94.368C200.43 94.5333 200.486 94.6693 200.55 94.776C200.62 94.8827 200.676 94.9573 200.718 95H198.99C198.958 94.968 198.91 94.9013 198.846 94.8C198.788 94.6933 198.734 94.5707 198.686 94.432C198.638 94.2987 198.601 94.1467 198.574 93.976C198.553 93.8 198.542 93.6107 198.542 93.408L198.862 93.632C198.702 93.9413 198.46 94.2107 198.134 94.44C197.814 94.6693 197.428 94.848 196.974 94.976C196.526 95.104 196.028 95.168 195.478 95.168ZM195.838 93.728C196.334 93.728 196.785 93.6507 197.19 93.496C197.601 93.336 197.929 93.096 198.174 92.776C198.42 92.4507 198.542 92.0427 198.542 91.552V90.144L198.95 90.68C198.609 90.8133 198.19 90.9227 197.694 91.008C197.204 91.088 196.697 91.1547 196.174 91.208C195.454 91.272 194.913 91.3973 194.55 91.584C194.188 91.7653 194.006 92.0693 194.006 92.496C194.006 92.9067 194.156 93.216 194.454 93.424C194.758 93.6267 195.22 93.728 195.838 93.728ZM202.489 98.616C202.26 98.616 202.049 98.6027 201.857 98.576C201.671 98.5547 201.556 98.5333 201.513 98.512V97.096C201.583 97.128 201.697 97.1547 201.857 97.176C202.023 97.1973 202.193 97.208 202.369 97.208C202.684 97.208 202.953 97.144 203.177 97.016C203.407 96.888 203.599 96.7093 203.753 96.48C203.913 96.256 204.041 96 204.137 95.712L204.353 95.072L201.425 86.504H203.233L205.417 93.704H205.193L207.321 86.504H209.105L206.057 95.624C205.871 96.1947 205.641 96.704 205.369 97.152C205.097 97.6053 204.735 97.9627 204.281 98.224C203.828 98.4853 203.231 98.616 202.489 98.616ZM213.535 95.168C213.028 95.168 212.551 95.112 212.103 95C211.655 94.888 211.26 94.7253 210.919 94.512C210.583 94.2933 210.319 94.024 210.127 93.704C209.94 93.384 209.847 93.0133 209.847 92.592C209.847 92.5547 209.847 92.5173 209.847 92.48C209.847 92.4373 209.847 92.4027 209.847 92.376H211.575C211.575 92.4027 211.575 92.4267 211.575 92.448C211.575 92.4693 211.575 92.4987 211.575 92.536C211.575 92.9253 211.753 93.2213 212.111 93.424C212.473 93.6213 212.964 93.72 213.583 93.72C213.945 93.72 214.276 93.6827 214.575 93.608C214.879 93.5333 215.119 93.4187 215.295 93.264C215.476 93.1093 215.567 92.912 215.567 92.672C215.567 92.2827 215.375 92.0053 214.991 91.84C214.612 91.6747 214.036 91.528 213.263 91.4C212.841 91.3253 212.433 91.2293 212.039 91.112C211.649 90.9947 211.297 90.84 210.983 90.648C210.673 90.4507 210.425 90.208 210.239 89.92C210.057 89.6267 209.967 89.2747 209.967 88.864C209.967 88.3307 210.127 87.8773 210.447 87.504C210.767 87.1307 211.199 86.848 211.743 86.656C212.287 86.464 212.887 86.368 213.543 86.368C214.177 86.368 214.764 86.472 215.303 86.68C215.847 86.8827 216.284 87.1787 216.615 87.568C216.945 87.952 217.111 88.424 217.111 88.984C217.111 89.0053 217.111 89.0293 217.111 89.056C217.111 89.0827 217.111 89.1067 217.111 89.128H215.391C215.391 89.1067 215.391 89.088 215.391 89.072C215.391 89.056 215.391 89.0373 215.391 89.016C215.391 88.7387 215.303 88.512 215.127 88.336C214.951 88.16 214.721 88.0293 214.439 87.944C214.161 87.8533 213.865 87.808 213.551 87.808C213.263 87.808 212.972 87.84 212.679 87.904C212.391 87.9627 212.151 88.0667 211.959 88.216C211.767 88.36 211.671 88.5573 211.671 88.808C211.671 89.064 211.764 89.2693 211.951 89.424C212.137 89.5733 212.401 89.6987 212.743 89.8C213.084 89.896 213.481 89.984 213.935 90.064C214.351 90.1387 214.756 90.2347 215.151 90.352C215.545 90.464 215.9 90.6133 216.215 90.8C216.535 90.9867 216.788 91.2267 216.975 91.52C217.167 91.8133 217.263 92.1733 217.263 92.6C217.263 93.0427 217.161 93.424 216.959 93.744C216.756 94.064 216.479 94.3307 216.127 94.544C215.78 94.752 215.383 94.9067 214.935 95.008C214.492 95.1147 214.025 95.168 213.535 95.168ZM78.3793 121V113.944H76.5473V112.504H78.3793V111.576C78.3793 111.139 78.4326 110.747 78.5393 110.4C78.6513 110.053 78.806 109.755 79.0033 109.504C79.2006 109.248 79.4326 109.037 79.6993 108.872C79.9713 108.707 80.2673 108.584 80.5873 108.504C80.9126 108.419 81.2513 108.376 81.6033 108.376C81.8913 108.376 82.1153 108.395 82.2753 108.432C82.4406 108.464 82.55 108.493 82.6033 108.52V109.968C82.5393 109.947 82.43 109.923 82.2753 109.896C82.1206 109.869 81.9553 109.856 81.7793 109.856C81.438 109.856 81.158 109.907 80.9393 110.008C80.7206 110.109 80.55 110.251 80.4273 110.432C80.3046 110.608 80.2193 110.813 80.1713 111.048C80.1286 111.277 80.1073 111.523 80.1073 111.784V112.504H82.5233V113.944H80.1073V121H78.3793ZM87.6853 121.16C86.8106 121.16 86.0373 120.971 85.3653 120.592C84.6986 120.213 84.176 119.693 83.7973 119.032C83.424 118.365 83.2373 117.603 83.2373 116.744C83.2373 115.891 83.424 115.136 83.7973 114.48C84.176 113.819 84.6986 113.304 85.3653 112.936C86.0373 112.563 86.8106 112.376 87.6853 112.376C88.56 112.376 89.3306 112.563 89.9973 112.936C90.6693 113.304 91.192 113.819 91.5653 114.48C91.944 115.136 92.1333 115.891 92.1333 116.744C92.1333 117.603 91.944 118.365 91.5653 119.032C91.192 119.693 90.6693 120.213 89.9973 120.592C89.3306 120.971 88.56 121.16 87.6853 121.16ZM87.6853 119.672C88.2186 119.672 88.688 119.552 89.0933 119.312C89.4986 119.072 89.816 118.733 90.0453 118.296C90.2746 117.853 90.3893 117.336 90.3893 116.744C90.3893 116.157 90.2746 115.648 90.0453 115.216C89.816 114.784 89.4986 114.451 89.0933 114.216C88.688 113.981 88.2186 113.864 87.6853 113.864C87.1573 113.864 86.688 113.981 86.2773 114.216C85.872 114.451 85.5546 114.784 85.3253 115.216C85.096 115.648 84.9813 116.157 84.9813 116.744C84.9813 117.336 85.096 117.853 85.3253 118.296C85.5546 118.733 85.872 119.072 86.2773 119.312C86.688 119.552 87.1573 119.672 87.6853 119.672ZM94.0657 121V112.504H95.8017V115.216L95.3377 115.008C95.375 114.661 95.463 114.331 95.6017 114.016C95.7404 113.701 95.9244 113.421 96.1537 113.176C96.3884 112.925 96.6764 112.728 97.0177 112.584C97.359 112.44 97.7537 112.368 98.2017 112.368C98.543 112.368 98.8177 112.395 99.0257 112.448C99.239 112.501 99.3697 112.544 99.4177 112.576L99.0497 114.208C98.9964 114.171 98.887 114.123 98.7217 114.064C98.5617 114.005 98.3377 113.976 98.0497 113.976C97.6124 113.976 97.2497 114.053 96.9617 114.208C96.6737 114.363 96.4444 114.568 96.2737 114.824C96.103 115.08 95.9804 115.36 95.9057 115.664C95.8364 115.963 95.8017 116.264 95.8017 116.568V121H94.0657ZM108.175 121.168C107.669 121.168 107.191 121.112 106.743 121C106.295 120.888 105.901 120.725 105.559 120.512C105.223 120.293 104.959 120.024 104.767 119.704C104.581 119.384 104.487 119.013 104.487 118.592C104.487 118.555 104.487 118.517 104.487 118.48C104.487 118.437 104.487 118.403 104.487 118.376H106.215C106.215 118.403 106.215 118.427 106.215 118.448C106.215 118.469 106.215 118.499 106.215 118.536C106.215 118.925 106.394 119.221 106.751 119.424C107.114 119.621 107.605 119.72 108.223 119.72C108.586 119.72 108.917 119.683 109.215 119.608C109.519 119.533 109.759 119.419 109.935 119.264C110.117 119.109 110.207 118.912 110.207 118.672C110.207 118.283 110.015 118.005 109.631 117.84C109.253 117.675 108.677 117.528 107.903 117.4C107.482 117.325 107.074 117.229 106.679 117.112C106.29 116.995 105.938 116.84 105.623 116.648C105.314 116.451 105.066 116.208 104.879 115.92C104.698 115.627 104.607 115.275 104.607 114.864C104.607 114.331 104.767 113.877 105.087 113.504C105.407 113.131 105.839 112.848 106.383 112.656C106.927 112.464 107.527 112.368 108.183 112.368C108.818 112.368 109.405 112.472 109.943 112.68C110.487 112.883 110.925 113.179 111.255 113.568C111.586 113.952 111.751 114.424 111.751 114.984C111.751 115.005 111.751 115.029 111.751 115.056C111.751 115.083 111.751 115.107 111.751 115.128H110.031C110.031 115.107 110.031 115.088 110.031 115.072C110.031 115.056 110.031 115.037 110.031 115.016C110.031 114.739 109.943 114.512 109.767 114.336C109.591 114.16 109.362 114.029 109.079 113.944C108.802 113.853 108.506 113.808 108.191 113.808C107.903 113.808 107.613 113.84 107.319 113.904C107.031 113.963 106.791 114.067 106.599 114.216C106.407 114.36 106.311 114.557 106.311 114.808C106.311 115.064 106.405 115.269 106.591 115.424C106.778 115.573 107.042 115.699 107.383 115.8C107.725 115.896 108.122 115.984 108.575 116.064C108.991 116.139 109.397 116.235 109.791 116.352C110.186 116.464 110.541 116.613 110.855 116.8C111.175 116.987 111.429 117.227 111.615 117.52C111.807 117.813 111.903 118.173 111.903 118.6C111.903 119.043 111.802 119.424 111.599 119.744C111.397 120.064 111.119 120.331 110.767 120.544C110.421 120.752 110.023 120.907 109.575 121.008C109.133 121.115 108.666 121.168 108.175 121.168ZM116.912 121.152C116.309 121.152 115.808 121.051 115.408 120.848C115.008 120.64 114.69 120.371 114.456 120.04C114.221 119.704 114.056 119.339 113.96 118.944C113.864 118.544 113.816 118.155 113.816 117.776C113.816 117.579 113.816 117.373 113.816 117.16C113.816 116.941 113.816 116.723 113.816 116.504V112.504H115.56V116.256C115.56 116.448 115.56 116.637 115.56 116.824C115.56 117.005 115.56 117.176 115.56 117.336C115.56 117.747 115.613 118.125 115.72 118.472C115.826 118.813 116.013 119.091 116.28 119.304C116.552 119.512 116.93 119.616 117.416 119.616C117.869 119.616 118.264 119.483 118.6 119.216C118.936 118.944 119.197 118.603 119.384 118.192C119.57 117.776 119.664 117.36 119.664 116.944L120.424 117.352C120.424 117.843 120.341 118.315 120.176 118.768C120.016 119.221 119.784 119.629 119.48 119.992C119.176 120.349 118.805 120.632 118.368 120.84C117.936 121.048 117.45 121.152 116.912 121.152ZM119.664 121V112.504H121.4V121H119.664ZM126.941 121.168C126.434 121.168 125.957 121.112 125.509 121C125.061 120.888 124.666 120.725 124.325 120.512C123.989 120.293 123.725 120.024 123.533 119.704C123.346 119.384 123.253 119.013 123.253 118.592C123.253 118.555 123.253 118.517 123.253 118.48C123.253 118.437 123.253 118.403 123.253 118.376H124.981C124.981 118.403 124.981 118.427 124.981 118.448C124.981 118.469 124.981 118.499 124.981 118.536C124.981 118.925 125.16 119.221 125.517 119.424C125.88 119.621 126.37 119.72 126.989 119.72C127.352 119.72 127.682 119.683 127.981 119.608C128.285 119.533 128.525 119.419 128.701 119.264C128.882 119.109 128.973 118.912 128.973 118.672C128.973 118.283 128.781 118.005 128.397 117.84C128.018 117.675 127.442 117.528 126.669 117.4C126.248 117.325 125.84 117.229 125.445 117.112C125.056 116.995 124.704 116.84 124.389 116.648C124.08 116.451 123.832 116.208 123.645 115.92C123.464 115.627 123.373 115.275 123.373 114.864C123.373 114.331 123.533 113.877 123.853 113.504C124.173 113.131 124.605 112.848 125.149 112.656C125.693 112.464 126.293 112.368 126.949 112.368C127.584 112.368 128.17 112.472 128.709 112.68C129.253 112.883 129.69 113.179 130.021 113.568C130.352 113.952 130.517 114.424 130.517 114.984C130.517 115.005 130.517 115.029 130.517 115.056C130.517 115.083 130.517 115.107 130.517 115.128H128.797C128.797 115.107 128.797 115.088 128.797 115.072C128.797 115.056 128.797 115.037 128.797 115.016C128.797 114.739 128.709 114.512 128.533 114.336C128.357 114.16 128.128 114.029 127.845 113.944C127.568 113.853 127.272 113.808 126.957 113.808C126.669 113.808 126.378 113.84 126.085 113.904C125.797 113.963 125.557 114.067 125.365 114.216C125.173 114.36 125.077 114.557 125.077 114.808C125.077 115.064 125.17 115.269 125.357 115.424C125.544 115.573 125.808 115.699 126.149 115.8C126.49 115.896 126.888 115.984 127.341 116.064C127.757 116.139 128.162 116.235 128.557 116.352C128.952 116.464 129.306 116.613 129.621 116.8C129.941 116.987 130.194 117.227 130.381 117.52C130.573 117.813 130.669 118.173 130.669 118.6C130.669 119.043 130.568 119.424 130.365 119.744C130.162 120.064 129.885 120.331 129.533 120.544C129.186 120.752 128.789 120.907 128.341 121.008C127.898 121.115 127.432 121.168 126.941 121.168ZM136.073 121.144C135.79 121.144 135.507 121.115 135.225 121.056C134.947 120.997 134.691 120.891 134.457 120.736C134.227 120.576 134.043 120.349 133.905 120.056C133.766 119.763 133.697 119.379 133.697 118.904C133.697 118.792 133.697 118.675 133.697 118.552C133.697 118.429 133.697 118.304 133.697 118.176V113.944H131.657V112.504H132.729C132.958 112.504 133.137 112.496 133.265 112.48C133.398 112.459 133.494 112.413 133.553 112.344C133.617 112.269 133.657 112.152 133.673 111.992C133.689 111.832 133.697 111.613 133.697 111.336V109.696H135.433V112.504H138.033V113.944H135.433V117.712C135.433 117.819 135.433 117.925 135.433 118.032C135.433 118.139 135.433 118.237 135.433 118.328C135.433 118.755 135.483 119.091 135.585 119.336C135.691 119.581 135.931 119.704 136.305 119.704C136.465 119.704 136.617 119.691 136.761 119.664C136.905 119.637 137.014 119.608 137.089 119.576V120.992C136.993 121.029 136.857 121.064 136.681 121.096C136.505 121.128 136.302 121.144 136.073 121.144ZM142.385 121.168C141.745 121.168 141.182 121.067 140.697 120.864C140.217 120.661 139.843 120.371 139.577 119.992C139.31 119.613 139.177 119.157 139.177 118.624C139.177 118.053 139.326 117.581 139.625 117.208C139.929 116.835 140.345 116.547 140.873 116.344C141.406 116.136 142.011 116 142.689 115.936C143.697 115.835 144.406 115.736 144.817 115.64C145.233 115.544 145.441 115.387 145.441 115.168C145.441 115.163 145.441 115.157 145.441 115.152C145.441 114.72 145.257 114.392 144.889 114.168C144.521 113.944 143.995 113.832 143.313 113.832C142.593 113.832 142.035 113.96 141.641 114.216C141.251 114.467 141.057 114.867 141.057 115.416H139.353C139.353 114.765 139.521 114.213 139.857 113.76C140.198 113.307 140.667 112.963 141.265 112.728C141.862 112.488 142.547 112.368 143.321 112.368C144.03 112.368 144.675 112.477 145.257 112.696C145.843 112.909 146.31 113.229 146.657 113.656C147.003 114.083 147.177 114.613 147.177 115.248C147.177 115.36 147.177 115.472 147.177 115.584C147.177 115.691 147.177 115.8 147.177 115.912V119.304C147.177 119.501 147.185 119.693 147.201 119.88C147.217 120.061 147.246 120.224 147.289 120.368C147.337 120.533 147.393 120.669 147.457 120.776C147.526 120.883 147.582 120.957 147.625 121H145.897C145.865 120.968 145.817 120.901 145.753 120.8C145.694 120.693 145.641 120.571 145.593 120.432C145.545 120.299 145.507 120.147 145.481 119.976C145.459 119.8 145.449 119.611 145.449 119.408L145.769 119.632C145.609 119.941 145.366 120.211 145.041 120.44C144.721 120.669 144.334 120.848 143.881 120.976C143.433 121.104 142.934 121.168 142.385 121.168ZM142.745 119.728C143.241 119.728 143.691 119.651 144.097 119.496C144.507 119.336 144.835 119.096 145.081 118.776C145.326 118.451 145.449 118.043 145.449 117.552V116.144L145.857 116.68C145.515 116.813 145.097 116.923 144.601 117.008C144.11 117.088 143.603 117.155 143.081 117.208C142.361 117.272 141.819 117.397 141.457 117.584C141.094 117.765 140.913 118.069 140.913 118.496C140.913 118.907 141.062 119.216 141.361 119.424C141.665 119.627 142.126 119.728 142.745 119.728ZM149.308 121V112.504H151.02V121H149.308ZM150.172 110.744C149.874 110.744 149.615 110.664 149.396 110.504C149.183 110.339 149.076 110.112 149.076 109.824C149.076 109.541 149.183 109.32 149.396 109.16C149.615 108.995 149.874 108.912 150.172 108.912C150.466 108.912 150.719 108.995 150.932 109.16C151.151 109.32 151.26 109.541 151.26 109.824C151.26 110.112 151.151 110.339 150.932 110.504C150.719 110.664 150.466 110.744 150.172 110.744ZM159.379 121V117.08C159.379 116.851 159.379 116.656 159.379 116.496C159.379 116.336 159.379 116.187 159.379 116.048C159.379 115.632 159.315 115.267 159.187 114.952C159.059 114.632 158.849 114.384 158.555 114.208C158.262 114.027 157.87 113.936 157.379 113.936C156.947 113.936 156.555 114.043 156.203 114.256C155.857 114.469 155.579 114.76 155.371 115.128C155.169 115.491 155.067 115.904 155.067 116.368L154.323 116C154.323 115.312 154.486 114.696 154.811 114.152C155.137 113.603 155.571 113.168 156.115 112.848C156.665 112.528 157.265 112.368 157.915 112.368C158.587 112.368 159.161 112.499 159.635 112.76C160.115 113.016 160.481 113.384 160.731 113.864C160.987 114.339 161.115 114.907 161.115 115.568C161.115 115.813 161.115 116.085 161.115 116.384C161.115 116.683 161.115 116.971 161.115 117.248V121H159.379ZM153.331 121V112.504H155.067V121H153.331ZM166.244 121.168C165.604 121.168 165.041 121.067 164.556 120.864C164.076 120.661 163.703 120.371 163.436 119.992C163.169 119.613 163.036 119.157 163.036 118.624C163.036 118.053 163.185 117.581 163.484 117.208C163.788 116.835 164.204 116.547 164.732 116.344C165.265 116.136 165.871 116 166.548 115.936C167.556 115.835 168.265 115.736 168.676 115.64C169.092 115.544 169.3 115.387 169.3 115.168C169.3 115.163 169.3 115.157 169.3 115.152C169.3 114.72 169.116 114.392 168.748 114.168C168.38 113.944 167.855 113.832 167.172 113.832C166.452 113.832 165.895 113.96 165.5 114.216C165.111 114.467 164.916 114.867 164.916 115.416H163.212C163.212 114.765 163.38 114.213 163.716 113.76C164.057 113.307 164.527 112.963 165.124 112.728C165.721 112.488 166.407 112.368 167.18 112.368C167.889 112.368 168.535 112.477 169.116 112.696C169.703 112.909 170.169 113.229 170.516 113.656C170.863 114.083 171.036 114.613 171.036 115.248C171.036 115.36 171.036 115.472 171.036 115.584C171.036 115.691 171.036 115.8 171.036 115.912V119.304C171.036 119.501 171.044 119.693 171.06 119.88C171.076 120.061 171.105 120.224 171.148 120.368C171.196 120.533 171.252 120.669 171.316 120.776C171.385 120.883 171.441 120.957 171.484 121H169.756C169.724 120.968 169.676 120.901 169.612 120.8C169.553 120.693 169.5 120.571 169.452 120.432C169.404 120.299 169.367 120.147 169.34 119.976C169.319 119.8 169.308 119.611 169.308 119.408L169.628 119.632C169.468 119.941 169.225 120.211 168.9 120.44C168.58 120.669 168.193 120.848 167.74 120.976C167.292 121.104 166.793 121.168 166.244 121.168ZM166.604 119.728C167.1 119.728 167.551 119.651 167.956 119.496C168.367 119.336 168.695 119.096 168.94 118.776C169.185 118.451 169.308 118.043 169.308 117.552V116.144L169.716 116.68C169.375 116.813 168.956 116.923 168.46 117.008C167.969 117.088 167.463 117.155 166.94 117.208C166.22 117.272 165.679 117.397 165.316 117.584C164.953 117.765 164.772 118.069 164.772 118.496C164.772 118.907 164.921 119.216 165.22 119.424C165.524 119.627 165.985 119.728 166.604 119.728ZM177.616 121.168C176.954 121.168 176.341 121.003 175.776 120.672C175.21 120.336 174.752 119.877 174.4 119.296C174.053 118.715 173.88 118.056 173.88 117.32C173.88 117.299 173.88 117.283 173.88 117.272C173.88 117.256 173.88 117.24 173.88 117.224L174.888 117.2C174.888 117.211 174.888 117.224 174.888 117.24C174.888 117.251 174.888 117.264 174.888 117.28C174.888 117.717 175 118.112 175.224 118.464C175.453 118.811 175.749 119.085 176.112 119.288C176.474 119.491 176.864 119.592 177.28 119.592C177.962 119.592 178.536 119.36 179 118.896C179.469 118.427 179.704 117.707 179.704 116.736C179.704 115.76 179.472 115.043 179.008 114.584C178.544 114.12 177.968 113.888 177.28 113.888C176.864 113.888 176.474 113.989 176.112 114.192C175.749 114.389 175.453 114.661 175.224 115.008C175 115.349 174.888 115.741 174.888 116.184L173.88 116.144C173.88 115.403 174.053 114.749 174.4 114.184C174.752 113.613 175.21 113.168 175.776 112.848C176.341 112.528 176.954 112.368 177.616 112.368C178.304 112.368 178.941 112.539 179.528 112.88C180.114 113.216 180.586 113.709 180.944 114.36C181.306 115.011 181.488 115.803 181.488 116.736C181.488 117.691 181.312 118.499 180.96 119.16C180.608 119.821 180.138 120.323 179.552 120.664C178.965 121 178.32 121.168 177.616 121.168ZM173.144 121V108.496H174.888V121H173.144ZM185.241 108.496V121H183.529V108.496H185.241ZM188.182 117.36V116.008H194.438L194.198 116.408C194.198 116.376 194.198 116.344 194.198 116.312C194.198 116.275 194.198 116.243 194.198 116.216C194.198 115.784 194.104 115.387 193.918 115.024C193.731 114.656 193.451 114.363 193.078 114.144C192.71 113.92 192.248 113.808 191.694 113.808C191.139 113.808 190.651 113.928 190.23 114.168C189.814 114.403 189.488 114.739 189.254 115.176C189.024 115.608 188.91 116.128 188.91 116.736C188.91 117.355 189.022 117.888 189.246 118.336C189.47 118.779 189.792 119.12 190.214 119.36C190.635 119.6 191.139 119.72 191.726 119.72C192.136 119.72 192.491 119.68 192.79 119.6C193.094 119.515 193.342 119.403 193.534 119.264C193.731 119.125 193.88 118.976 193.982 118.816C194.083 118.651 194.142 118.488 194.158 118.328H195.886C195.854 118.675 195.739 119.019 195.542 119.36C195.35 119.696 195.075 120.003 194.718 120.28C194.366 120.552 193.934 120.771 193.422 120.936C192.915 121.096 192.331 121.176 191.67 121.176C190.784 121.176 190.008 120.989 189.342 120.616C188.675 120.243 188.155 119.725 187.782 119.064C187.408 118.397 187.222 117.635 187.222 116.776C187.222 115.901 187.411 115.133 187.79 114.472C188.168 113.811 188.694 113.296 189.366 112.928C190.038 112.555 190.808 112.368 191.678 112.368C192.563 112.368 193.328 112.555 193.974 112.928C194.624 113.301 195.126 113.816 195.478 114.472C195.83 115.128 196.006 115.883 196.006 116.736C196.006 116.837 196.003 116.955 195.998 117.088C195.992 117.221 195.984 117.312 195.974 117.36H188.182ZM97.9229 146.32C98.4029 146.363 98.8243 146.453 99.1869 146.592C99.5496 146.725 99.8323 146.923 100.035 147.184C100.243 147.451 100.347 147.8 100.347 148.232C100.347 148.717 100.182 149.139 99.8509 149.496C99.5256 149.859 99.0376 150.139 98.3869 150.336C97.7363 150.539 96.9283 150.64 95.9629 150.64C94.5816 150.64 93.5283 150.44 92.8029 150.04C92.0776 149.64 91.7149 149.096 91.7149 148.408C91.7149 148.2 91.7389 148.016 91.7869 147.856C91.8349 147.696 91.8936 147.563 91.9629 147.456L93.5789 147.696C93.5416 147.749 93.5043 147.827 93.4669 147.928C93.4296 148.035 93.4109 148.163 93.4109 148.312C93.4109 148.691 93.6429 148.96 94.1069 149.12C94.5709 149.28 95.2136 149.36 96.0349 149.36C96.6376 149.36 97.1363 149.317 97.5309 149.232C97.9309 149.152 98.2296 149.035 98.4269 148.88C98.6243 148.725 98.7229 148.544 98.7229 148.336C98.7229 148.021 98.5869 147.824 98.3149 147.744C98.0429 147.664 97.7149 147.608 97.3309 147.576L94.1069 147.312C93.5469 147.264 93.0883 147.096 92.7309 146.808C92.3789 146.52 92.2029 146.157 92.2029 145.72C92.2029 145.448 92.2723 145.195 92.4109 144.96C92.5496 144.725 92.7096 144.528 92.8909 144.368C93.0776 144.208 93.2376 144.109 93.3709 144.072L94.5069 144.616C94.3843 144.632 94.2349 144.715 94.0589 144.864C93.8883 145.008 93.8029 145.179 93.8029 145.376C93.8029 145.557 93.8776 145.707 94.0269 145.824C94.1816 145.941 94.4803 146.019 94.9229 146.056L97.9229 146.32ZM98.9869 138.504H100.563L99.9149 141.824C99.7976 142.443 99.5816 143.003 99.2669 143.504C98.9576 144 98.5363 144.392 98.0029 144.68C97.4749 144.968 96.8163 145.112 96.0269 145.112C95.2056 145.112 94.4989 144.971 93.9069 144.688C93.3149 144.405 92.8589 144.013 92.5389 143.512C92.2243 143.005 92.0669 142.429 92.0669 141.784C92.0669 141.128 92.2296 140.541 92.5549 140.024C92.8856 139.507 93.3389 139.101 93.9149 138.808C94.4963 138.515 95.1603 138.368 95.9069 138.368C96.5363 138.368 97.0936 138.475 97.5789 138.688C98.0696 138.901 98.4589 139.173 98.7469 139.504C99.0349 139.835 99.1923 140.179 99.2189 140.536L98.7229 140.592L98.9869 138.504ZM96.0189 143.696C96.4829 143.696 96.8829 143.621 97.2189 143.472C97.5549 143.317 97.8136 143.096 97.9949 142.808C98.1763 142.515 98.2669 142.163 98.2669 141.752C98.2669 141.347 98.1763 141 97.9949 140.712C97.8136 140.419 97.5549 140.195 97.2189 140.04C96.8829 139.88 96.4856 139.8 96.0269 139.8C95.5843 139.8 95.1923 139.883 94.8509 140.048C94.5149 140.208 94.2509 140.435 94.0589 140.728C93.8669 141.021 93.7709 141.371 93.7709 141.776C93.7709 142.181 93.8616 142.528 94.0429 142.816C94.2243 143.099 94.4829 143.317 94.8189 143.472C95.1549 143.621 95.5549 143.696 96.0189 143.696ZM102.206 147V138.504H103.942V141.216L103.478 141.008C103.516 140.661 103.604 140.331 103.742 140.016C103.881 139.701 104.065 139.421 104.294 139.176C104.529 138.925 104.817 138.728 105.158 138.584C105.5 138.44 105.894 138.368 106.342 138.368C106.684 138.368 106.958 138.395 107.166 138.448C107.38 138.501 107.51 138.544 107.558 138.576L107.19 140.208C107.137 140.171 107.028 140.123 106.862 140.064C106.702 140.005 106.478 139.976 106.19 139.976C105.753 139.976 105.39 140.053 105.102 140.208C104.814 140.363 104.585 140.568 104.414 140.824C104.244 141.08 104.121 141.36 104.046 141.664C103.977 141.963 103.942 142.264 103.942 142.568V147H102.206ZM112.904 147.16C112.029 147.16 111.256 146.971 110.584 146.592C109.917 146.213 109.395 145.693 109.016 145.032C108.643 144.365 108.456 143.603 108.456 142.744C108.456 141.891 108.643 141.136 109.016 140.48C109.395 139.819 109.917 139.304 110.584 138.936C111.256 138.563 112.029 138.376 112.904 138.376C113.779 138.376 114.549 138.563 115.216 138.936C115.888 139.304 116.411 139.819 116.784 140.48C117.163 141.136 117.352 141.891 117.352 142.744C117.352 143.603 117.163 144.365 116.784 145.032C116.411 145.693 115.888 146.213 115.216 146.592C114.549 146.971 113.779 147.16 112.904 147.16ZM112.904 145.672C113.437 145.672 113.907 145.552 114.312 145.312C114.717 145.072 115.035 144.733 115.264 144.296C115.493 143.853 115.608 143.336 115.608 142.744C115.608 142.157 115.493 141.648 115.264 141.216C115.035 140.784 114.717 140.451 114.312 140.216C113.907 139.981 113.437 139.864 112.904 139.864C112.376 139.864 111.907 139.981 111.496 140.216C111.091 140.451 110.773 140.784 110.544 141.216C110.315 141.648 110.2 142.157 110.2 142.744C110.2 143.336 110.315 143.853 110.544 144.296C110.773 144.733 111.091 145.072 111.496 145.312C111.907 145.552 112.376 145.672 112.904 145.672ZM125.929 147L123.753 138.504H125.161L127.249 146.368H126.953L128.313 138.504H130.113L128.321 147H125.929ZM120.129 147L118.329 138.504H120.129L121.505 146.368H121.201L123.273 138.504H124.681L122.537 147H120.129ZM135.276 147.144C134.993 147.144 134.71 147.115 134.428 147.056C134.15 146.997 133.894 146.891 133.66 146.736C133.43 146.576 133.246 146.349 133.108 146.056C132.969 145.763 132.9 145.379 132.9 144.904C132.9 144.792 132.9 144.675 132.9 144.552C132.9 144.429 132.9 144.304 132.9 144.176V139.944H130.86V138.504H131.932C132.161 138.504 132.34 138.496 132.468 138.48C132.601 138.459 132.697 138.413 132.756 138.344C132.82 138.269 132.86 138.152 132.876 137.992C132.892 137.832 132.9 137.613 132.9 137.336V135.696H134.636V138.504H137.236V139.944H134.636V143.712C134.636 143.819 134.636 143.925 134.636 144.032C134.636 144.139 134.636 144.237 134.636 144.328C134.636 144.755 134.686 145.091 134.788 145.336C134.894 145.581 135.134 145.704 135.508 145.704C135.668 145.704 135.82 145.691 135.964 145.664C136.108 145.637 136.217 145.608 136.292 145.576V146.992C136.196 147.029 136.06 147.064 135.884 147.096C135.708 147.128 135.505 147.144 135.276 147.144ZM144.95 147V143.888C144.95 143.749 144.95 143.581 144.95 143.384C144.95 143.187 144.95 142.987 144.95 142.784C144.95 142.576 144.95 142.403 144.95 142.264C144.95 141.501 144.792 140.923 144.478 140.528C144.168 140.133 143.659 139.936 142.95 139.936C142.475 139.936 142.064 140.029 141.718 140.216C141.371 140.403 141.102 140.659 140.91 140.984C140.723 141.309 140.63 141.68 140.63 142.096L139.814 141.76C139.814 141.115 139.968 140.539 140.278 140.032C140.592 139.52 141.022 139.115 141.566 138.816C142.115 138.517 142.742 138.368 143.446 138.368C144.47 138.368 145.264 138.675 145.83 139.288C146.4 139.896 146.686 140.744 146.686 141.832C146.686 142.109 146.686 142.437 146.686 142.816C146.686 143.189 146.686 143.597 146.686 144.04V147H144.95ZM138.894 147V134.496H140.63V147H138.894ZM155.838 147.168C155.198 147.168 154.635 147.067 154.15 146.864C153.67 146.661 153.296 146.371 153.03 145.992C152.763 145.613 152.63 145.157 152.63 144.624C152.63 144.053 152.779 143.581 153.078 143.208C153.382 142.835 153.798 142.547 154.326 142.344C154.859 142.136 155.464 142 156.142 141.936C157.15 141.835 157.859 141.736 158.27 141.64C158.686 141.544 158.894 141.387 158.894 141.168C158.894 141.163 158.894 141.157 158.894 141.152C158.894 140.72 158.71 140.392 158.342 140.168C157.974 139.944 157.448 139.832 156.766 139.832C156.046 139.832 155.488 139.96 155.094 140.216C154.704 140.467 154.51 140.867 154.51 141.416H152.806C152.806 140.765 152.974 140.213 153.31 139.76C153.651 139.307 154.12 138.963 154.718 138.728C155.315 138.488 156 138.368 156.774 138.368C157.483 138.368 158.128 138.477 158.71 138.696C159.296 138.909 159.763 139.229 160.11 139.656C160.456 140.083 160.63 140.613 160.63 141.248C160.63 141.36 160.63 141.472 160.63 141.584C160.63 141.691 160.63 141.8 160.63 141.912V145.304C160.63 145.501 160.638 145.693 160.654 145.88C160.67 146.061 160.699 146.224 160.742 146.368C160.79 146.533 160.846 146.669 160.91 146.776C160.979 146.883 161.035 146.957 161.078 147H159.35C159.318 146.968 159.27 146.901 159.206 146.8C159.147 146.693 159.094 146.571 159.046 146.432C158.998 146.299 158.96 146.147 158.934 145.976C158.912 145.8 158.902 145.611 158.902 145.408L159.222 145.632C159.062 145.941 158.819 146.211 158.494 146.44C158.174 146.669 157.787 146.848 157.334 146.976C156.886 147.104 156.387 147.168 155.838 147.168ZM156.198 145.728C156.694 145.728 157.144 145.651 157.55 145.496C157.96 145.336 158.288 145.096 158.534 144.776C158.779 144.451 158.902 144.043 158.902 143.552V142.144L159.31 142.68C158.968 142.813 158.55 142.923 158.054 143.008C157.563 143.088 157.056 143.155 156.534 143.208C155.814 143.272 155.272 143.397 154.91 143.584C154.547 143.765 154.366 144.069 154.366 144.496C154.366 144.907 154.515 145.216 154.814 145.424C155.118 145.627 155.579 145.728 156.198 145.728ZM168.786 147V143.08C168.786 142.851 168.786 142.656 168.786 142.496C168.786 142.336 168.786 142.187 168.786 142.048C168.786 141.632 168.722 141.267 168.594 140.952C168.466 140.632 168.255 140.384 167.962 140.208C167.668 140.027 167.276 139.936 166.786 139.936C166.354 139.936 165.962 140.043 165.61 140.256C165.263 140.469 164.986 140.76 164.778 141.128C164.575 141.491 164.474 141.904 164.474 142.368L163.73 142C163.73 141.312 163.892 140.696 164.218 140.152C164.543 139.603 164.978 139.168 165.522 138.848C166.071 138.528 166.671 138.368 167.322 138.368C167.994 138.368 168.567 138.499 169.042 138.76C169.522 139.016 169.887 139.384 170.138 139.864C170.394 140.339 170.522 140.907 170.522 141.568C170.522 141.813 170.522 142.085 170.522 142.384C170.522 142.683 170.522 142.971 170.522 143.248V147H168.786ZM162.738 147V138.504H164.474V147H162.738ZM176.226 147.168C175.528 147.168 174.885 147 174.298 146.664C173.712 146.323 173.242 145.821 172.89 145.16C172.538 144.499 172.362 143.691 172.362 142.736C172.362 141.803 172.541 141.011 172.898 140.36C173.256 139.709 173.728 139.216 174.314 138.88C174.901 138.539 175.538 138.368 176.226 138.368C176.888 138.368 177.501 138.528 178.066 138.848C178.637 139.168 179.096 139.613 179.442 140.184C179.789 140.749 179.962 141.403 179.962 142.144C179.962 142.165 179.962 142.187 179.962 142.208C179.962 142.224 179.962 142.24 179.962 142.256L178.954 142.288C178.954 142.272 178.954 142.256 178.954 142.24C178.954 142.219 178.954 142.2 178.954 142.184C178.954 141.741 178.842 141.349 178.618 141.008C178.394 140.661 178.098 140.389 177.73 140.192C177.368 139.989 176.981 139.888 176.57 139.888C175.882 139.888 175.306 140.12 174.842 140.584C174.378 141.043 174.146 141.76 174.146 142.736C174.146 143.707 174.378 144.427 174.842 144.896C175.312 145.36 175.888 145.592 176.57 145.592C176.997 145.592 177.392 145.491 177.754 145.288C178.117 145.08 178.408 144.797 178.626 144.44C178.845 144.083 178.954 143.675 178.954 143.216L179.962 143.256C179.962 143.992 179.794 144.656 179.458 145.248C179.128 145.84 178.68 146.309 178.114 146.656C177.554 146.997 176.925 147.168 176.226 147.168ZM178.954 147V134.496H180.698V147H178.954ZM78.2055 173.144C77.9228 173.144 77.6402 173.115 77.3575 173.056C77.0802 172.997 76.8242 172.891 76.5895 172.736C76.3602 172.576 76.1762 172.349 76.0375 172.056C75.8988 171.763 75.8295 171.379 75.8295 170.904C75.8295 170.792 75.8295 170.675 75.8295 170.552C75.8295 170.429 75.8295 170.304 75.8295 170.176V165.944H73.7895V164.504H74.8615C75.0908 164.504 75.2695 164.496 75.3975 164.48C75.5308 164.459 75.6268 164.413 75.6855 164.344C75.7495 164.269 75.7895 164.152 75.8055 163.992C75.8215 163.832 75.8295 163.613 75.8295 163.336V161.696H77.5655V164.504H80.1655V165.944H77.5655V169.712C77.5655 169.819 77.5655 169.925 77.5655 170.032C77.5655 170.139 77.5655 170.237 77.5655 170.328C77.5655 170.755 77.6162 171.091 77.7175 171.336C77.8242 171.581 78.0642 171.704 78.4375 171.704C78.5975 171.704 78.7495 171.691 78.8935 171.664C79.0375 171.637 79.1468 171.608 79.2215 171.576V172.992C79.1255 173.029 78.9895 173.064 78.8135 173.096C78.6375 173.128 78.4348 173.144 78.2055 173.144ZM81.8235 173V164.504H83.5595V167.216L83.0955 167.008C83.1328 166.661 83.2208 166.331 83.3595 166.016C83.4982 165.701 83.6822 165.421 83.9115 165.176C84.1462 164.925 84.4342 164.728 84.7755 164.584C85.1168 164.44 85.5115 164.368 85.9595 164.368C86.3008 164.368 86.5755 164.395 86.7835 164.448C86.9968 164.501 87.1275 164.544 87.1755 164.576L86.8075 166.208C86.7542 166.171 86.6448 166.123 86.4795 166.064C86.3195 166.005 86.0955 165.976 85.8075 165.976C85.3702 165.976 85.0075 166.053 84.7195 166.208C84.4315 166.363 84.2022 166.568 84.0315 166.824C83.8608 167.08 83.7382 167.36 83.6635 167.664C83.5942 167.963 83.5595 168.264 83.5595 168.568V173H81.8235ZM91.3613 173.168C90.7213 173.168 90.1586 173.067 89.6733 172.864C89.1933 172.661 88.8199 172.371 88.5533 171.992C88.2866 171.613 88.1533 171.157 88.1533 170.624C88.1533 170.053 88.3026 169.581 88.6013 169.208C88.9053 168.835 89.3213 168.547 89.8493 168.344C90.3826 168.136 90.9879 168 91.6653 167.936C92.6733 167.835 93.3826 167.736 93.7933 167.64C94.2093 167.544 94.4173 167.387 94.4173 167.168C94.4173 167.163 94.4173 167.157 94.4173 167.152C94.4173 166.72 94.2333 166.392 93.8653 166.168C93.4973 165.944 92.9719 165.832 92.2893 165.832C91.5693 165.832 91.0119 165.96 90.6173 166.216C90.2279 166.467 90.0333 166.867 90.0333 167.416H88.3293C88.3293 166.765 88.4973 166.213 88.8333 165.76C89.1746 165.307 89.6439 164.963 90.2413 164.728C90.8386 164.488 91.5239 164.368 92.2973 164.368C93.0066 164.368 93.6519 164.477 94.2333 164.696C94.8199 164.909 95.2866 165.229 95.6333 165.656C95.9799 166.083 96.1533 166.613 96.1533 167.248C96.1533 167.36 96.1533 167.472 96.1533 167.584C96.1533 167.691 96.1533 167.8 96.1533 167.912V171.304C96.1533 171.501 96.1613 171.693 96.1773 171.88C96.1933 172.061 96.2226 172.224 96.2653 172.368C96.3133 172.533 96.3693 172.669 96.4333 172.776C96.5026 172.883 96.5586 172.957 96.6013 173H94.8733C94.8413 172.968 94.7933 172.901 94.7293 172.8C94.6706 172.693 94.6173 172.571 94.5693 172.432C94.5213 172.299 94.4839 172.147 94.4573 171.976C94.4359 171.8 94.4253 171.611 94.4253 171.408L94.7453 171.632C94.5853 171.941 94.3426 172.211 94.0173 172.44C93.6973 172.669 93.3106 172.848 92.8573 172.976C92.4093 173.104 91.9106 173.168 91.3613 173.168ZM91.7213 171.728C92.2173 171.728 92.6679 171.651 93.0733 171.496C93.4839 171.336 93.8119 171.096 94.0573 170.776C94.3026 170.451 94.4253 170.043 94.4253 169.552V168.144L94.8333 168.68C94.4919 168.813 94.0733 168.923 93.5773 169.008C93.0866 169.088 92.5799 169.155 92.0573 169.208C91.3373 169.272 90.7959 169.397 90.4333 169.584C90.0706 169.765 89.8893 170.069 89.8893 170.496C89.8893 170.907 90.0386 171.216 90.3373 171.424C90.6413 171.627 91.1026 171.728 91.7213 171.728ZM104.309 173V169.08C104.309 168.851 104.309 168.656 104.309 168.496C104.309 168.336 104.309 168.187 104.309 168.048C104.309 167.632 104.245 167.267 104.117 166.952C103.989 166.632 103.778 166.384 103.485 166.208C103.192 166.027 102.8 165.936 102.309 165.936C101.877 165.936 101.485 166.043 101.133 166.256C100.786 166.469 100.509 166.76 100.301 167.128C100.098 167.491 99.997 167.904 99.997 168.368L99.253 168C99.253 167.312 99.4157 166.696 99.741 166.152C100.066 165.603 100.501 165.168 101.045 164.848C101.594 164.528 102.194 164.368 102.845 164.368C103.517 164.368 104.09 164.499 104.565 164.76C105.045 165.016 105.41 165.384 105.661 165.864C105.917 166.339 106.045 166.907 106.045 167.568C106.045 167.813 106.045 168.085 106.045 168.384C106.045 168.683 106.045 168.971 106.045 169.248V173H104.309ZM98.261 173V164.504H99.997V173H98.261ZM111.574 173.168C111.067 173.168 110.59 173.112 110.142 173C109.694 172.888 109.299 172.725 108.958 172.512C108.622 172.293 108.358 172.024 108.166 171.704C107.979 171.384 107.886 171.013 107.886 170.592C107.886 170.555 107.886 170.517 107.886 170.48C107.886 170.437 107.886 170.403 107.886 170.376H109.614C109.614 170.403 109.614 170.427 109.614 170.448C109.614 170.469 109.614 170.499 109.614 170.536C109.614 170.925 109.792 171.221 110.15 171.424C110.512 171.621 111.003 171.72 111.622 171.72C111.984 171.72 112.315 171.683 112.614 171.608C112.918 171.533 113.158 171.419 113.334 171.264C113.515 171.109 113.606 170.912 113.606 170.672C113.606 170.283 113.414 170.005 113.03 169.84C112.651 169.675 112.075 169.528 111.302 169.4C110.88 169.325 110.472 169.229 110.078 169.112C109.688 168.995 109.336 168.84 109.022 168.648C108.712 168.451 108.464 168.208 108.278 167.92C108.096 167.627 108.006 167.275 108.006 166.864C108.006 166.331 108.166 165.877 108.486 165.504C108.806 165.131 109.238 164.848 109.782 164.656C110.326 164.464 110.926 164.368 111.582 164.368C112.216 164.368 112.803 164.472 113.342 164.68C113.886 164.883 114.323 165.179 114.654 165.568C114.984 165.952 115.15 166.424 115.15 166.984C115.15 167.005 115.15 167.029 115.15 167.056C115.15 167.083 115.15 167.107 115.15 167.128H113.43C113.43 167.107 113.43 167.088 113.43 167.072C113.43 167.056 113.43 167.037 113.43 167.016C113.43 166.739 113.342 166.512 113.166 166.336C112.99 166.16 112.76 166.029 112.478 165.944C112.2 165.853 111.904 165.808 111.59 165.808C111.302 165.808 111.011 165.84 110.718 165.904C110.43 165.963 110.19 166.067 109.998 166.216C109.806 166.36 109.71 166.557 109.71 166.808C109.71 167.064 109.803 167.269 109.99 167.424C110.176 167.573 110.44 167.699 110.782 167.8C111.123 167.896 111.52 167.984 111.974 168.064C112.39 168.139 112.795 168.235 113.19 168.352C113.584 168.464 113.939 168.613 114.254 168.8C114.574 168.987 114.827 169.227 115.014 169.52C115.206 169.813 115.302 170.173 115.302 170.6C115.302 171.043 115.2 171.424 114.998 171.744C114.795 172.064 114.518 172.331 114.166 172.544C113.819 172.752 113.422 172.907 112.974 173.008C112.531 173.115 112.064 173.168 111.574 173.168ZM118.168 173V165.944H116.336V164.504H118.168V163.576C118.168 163.139 118.222 162.747 118.328 162.4C118.44 162.053 118.595 161.755 118.792 161.504C118.99 161.248 119.222 161.037 119.488 160.872C119.76 160.707 120.056 160.584 120.376 160.504C120.702 160.419 121.04 160.376 121.392 160.376C121.68 160.376 121.904 160.395 122.064 160.432C122.23 160.464 122.339 160.493 122.392 160.52V161.968C122.328 161.947 122.219 161.923 122.064 161.896C121.91 161.869 121.744 161.856 121.568 161.856C121.227 161.856 120.947 161.907 120.728 162.008C120.51 162.109 120.339 162.251 120.216 162.432C120.094 162.608 120.008 162.813 119.96 163.048C119.918 163.277 119.896 163.523 119.896 163.784V164.504H122.312V165.944H119.896V173H118.168ZM127.474 173.16C126.6 173.16 125.826 172.971 125.154 172.592C124.488 172.213 123.965 171.693 123.586 171.032C123.213 170.365 123.026 169.603 123.026 168.744C123.026 167.891 123.213 167.136 123.586 166.48C123.965 165.819 124.488 165.304 125.154 164.936C125.826 164.563 126.6 164.376 127.474 164.376C128.349 164.376 129.12 164.563 129.786 164.936C130.458 165.304 130.981 165.819 131.354 166.48C131.733 167.136 131.922 167.891 131.922 168.744C131.922 169.603 131.733 170.365 131.354 171.032C130.981 171.693 130.458 172.213 129.786 172.592C129.12 172.971 128.349 173.16 127.474 173.16ZM127.474 171.672C128.008 171.672 128.477 171.552 128.882 171.312C129.288 171.072 129.605 170.733 129.834 170.296C130.064 169.853 130.178 169.336 130.178 168.744C130.178 168.157 130.064 167.648 129.834 167.216C129.605 166.784 129.288 166.451 128.882 166.216C128.477 165.981 128.008 165.864 127.474 165.864C126.946 165.864 126.477 165.981 126.066 166.216C125.661 166.451 125.344 166.784 125.114 167.216C124.885 167.648 124.77 168.157 124.77 168.744C124.77 169.336 124.885 169.853 125.114 170.296C125.344 170.733 125.661 171.072 126.066 171.312C126.477 171.552 126.946 171.672 127.474 171.672ZM133.855 173V164.504H135.591V167.216L135.127 167.008C135.164 166.661 135.252 166.331 135.391 166.016C135.529 165.701 135.713 165.421 135.943 165.176C136.177 164.925 136.465 164.728 136.807 164.584C137.148 164.44 137.543 164.368 137.991 164.368C138.332 164.368 138.607 164.395 138.815 164.448C139.028 164.501 139.159 164.544 139.207 164.576L138.839 166.208C138.785 166.171 138.676 166.123 138.511 166.064C138.351 166.005 138.127 165.976 137.839 165.976C137.401 165.976 137.039 166.053 136.751 166.208C136.463 166.363 136.233 166.568 136.063 166.824C135.892 167.08 135.769 167.36 135.695 167.664C135.625 167.963 135.591 168.264 135.591 168.568V173H133.855ZM145.861 173V169.4C145.861 169.075 145.861 168.795 145.861 168.56C145.861 168.32 145.861 168.117 145.861 167.952C145.861 167.744 145.845 167.523 145.813 167.288C145.786 167.053 145.722 166.835 145.621 166.632C145.525 166.424 145.373 166.256 145.165 166.128C144.957 166 144.671 165.936 144.309 165.936C143.946 165.936 143.639 166.008 143.389 166.152C143.138 166.296 142.935 166.488 142.781 166.728C142.626 166.963 142.514 167.227 142.445 167.52C142.375 167.808 142.341 168.099 142.341 168.392L141.605 167.992C141.605 167.325 141.735 166.72 141.997 166.176C142.263 165.627 142.637 165.189 143.117 164.864C143.602 164.533 144.173 164.368 144.829 164.368C145.495 164.368 146.029 164.507 146.429 164.784C146.834 165.056 147.127 165.429 147.309 165.904C147.49 166.373 147.581 166.907 147.581 167.504C147.581 167.723 147.581 168.008 147.581 168.36C147.581 168.712 147.581 169.12 147.581 169.584V173H145.861ZM140.605 173V164.504H142.341V173H140.605ZM151.093 173V169.408C151.093 169.056 151.093 168.763 151.093 168.528C151.093 168.288 151.093 168.088 151.093 167.928C151.093 167.709 151.079 167.485 151.053 167.256C151.026 167.021 150.962 166.805 150.861 166.608C150.759 166.411 150.602 166.251 150.389 166.128C150.181 166 149.89 165.936 149.517 165.936C149.149 165.936 148.839 166.008 148.589 166.152C148.343 166.291 148.146 166.477 147.997 166.712C147.847 166.941 147.741 167.195 147.677 167.472C147.613 167.749 147.581 168.024 147.581 168.296L146.845 167.912C146.845 167.272 146.973 166.683 147.229 166.144C147.49 165.605 147.858 165.176 148.333 164.856C148.813 164.531 149.381 164.368 150.037 164.368C150.677 164.368 151.202 164.496 151.613 164.752C152.023 165.008 152.327 165.363 152.525 165.816C152.722 166.269 152.821 166.795 152.821 167.392C152.821 167.621 152.821 167.909 152.821 168.256C152.821 168.603 152.821 169.005 152.821 169.464V173H151.093ZM157.971 173.168C157.331 173.168 156.768 173.067 156.283 172.864C155.803 172.661 155.429 172.371 155.163 171.992C154.896 171.613 154.763 171.157 154.763 170.624C154.763 170.053 154.912 169.581 155.211 169.208C155.515 168.835 155.931 168.547 156.459 168.344C156.992 168.136 157.597 168 158.275 167.936C159.283 167.835 159.992 167.736 160.403 167.64C160.819 167.544 161.027 167.387 161.027 167.168C161.027 167.163 161.027 167.157 161.027 167.152C161.027 166.72 160.843 166.392 160.475 166.168C160.107 165.944 159.581 165.832 158.899 165.832C158.179 165.832 157.621 165.96 157.227 166.216C156.837 166.467 156.643 166.867 156.643 167.416H154.939C154.939 166.765 155.107 166.213 155.443 165.76C155.784 165.307 156.253 164.963 156.851 164.728C157.448 164.488 158.133 164.368 158.907 164.368C159.616 164.368 160.261 164.477 160.843 164.696C161.429 164.909 161.896 165.229 162.243 165.656C162.589 166.083 162.763 166.613 162.763 167.248C162.763 167.36 162.763 167.472 162.763 167.584C162.763 167.691 162.763 167.8 162.763 167.912V171.304C162.763 171.501 162.771 171.693 162.787 171.88C162.803 172.061 162.832 172.224 162.875 172.368C162.923 172.533 162.979 172.669 163.043 172.776C163.112 172.883 163.168 172.957 163.211 173H161.483C161.451 172.968 161.403 172.901 161.339 172.8C161.28 172.693 161.227 172.571 161.179 172.432C161.131 172.299 161.093 172.147 161.067 171.976C161.045 171.8 161.035 171.611 161.035 171.408L161.355 171.632C161.195 171.941 160.952 172.211 160.627 172.44C160.307 172.669 159.92 172.848 159.467 172.976C159.019 173.104 158.52 173.168 157.971 173.168ZM158.331 171.728C158.827 171.728 159.277 171.651 159.683 171.496C160.093 171.336 160.421 171.096 160.667 170.776C160.912 170.451 161.035 170.043 161.035 169.552V168.144L161.443 168.68C161.101 168.813 160.683 168.923 160.187 169.008C159.696 169.088 159.189 169.155 158.667 169.208C157.947 169.272 157.405 169.397 157.043 169.584C156.68 169.765 156.499 170.069 156.499 170.496C156.499 170.907 156.648 171.216 156.947 171.424C157.251 171.627 157.712 171.728 158.331 171.728ZM168.284 173.144C168.001 173.144 167.718 173.115 167.436 173.056C167.158 172.997 166.902 172.891 166.668 172.736C166.438 172.576 166.254 172.349 166.116 172.056C165.977 171.763 165.908 171.379 165.908 170.904C165.908 170.792 165.908 170.675 165.908 170.552C165.908 170.429 165.908 170.304 165.908 170.176V165.944H163.868V164.504H164.94C165.169 164.504 165.348 164.496 165.476 164.48C165.609 164.459 165.705 164.413 165.764 164.344C165.828 164.269 165.868 164.152 165.884 163.992C165.9 163.832 165.908 163.613 165.908 163.336V161.696H167.644V164.504H170.244V165.944H167.644V169.712C167.644 169.819 167.644 169.925 167.644 170.032C167.644 170.139 167.644 170.237 167.644 170.328C167.644 170.755 167.694 171.091 167.796 171.336C167.902 171.581 168.142 171.704 168.516 171.704C168.676 171.704 168.828 171.691 168.972 171.664C169.116 171.637 169.225 171.608 169.3 171.576V172.992C169.204 173.029 169.068 173.064 168.892 173.096C168.716 173.128 168.513 173.144 168.284 173.144ZM171.926 173V164.504H173.638V173H171.926ZM172.79 162.744C172.491 162.744 172.232 162.664 172.014 162.504C171.8 162.339 171.694 162.112 171.694 161.824C171.694 161.541 171.8 161.32 172.014 161.16C172.232 160.995 172.491 160.912 172.79 160.912C173.083 160.912 173.336 160.995 173.55 161.16C173.768 161.32 173.878 161.541 173.878 161.824C173.878 162.112 173.768 162.339 173.55 162.504C173.336 162.664 173.083 162.744 172.79 162.744ZM180.053 173.16C179.178 173.16 178.405 172.971 177.733 172.592C177.066 172.213 176.543 171.693 176.165 171.032C175.791 170.365 175.605 169.603 175.605 168.744C175.605 167.891 175.791 167.136 176.165 166.48C176.543 165.819 177.066 165.304 177.733 164.936C178.405 164.563 179.178 164.376 180.053 164.376C180.927 164.376 181.698 164.563 182.365 164.936C183.037 165.304 183.559 165.819 183.933 166.48C184.311 167.136 184.501 167.891 184.501 168.744C184.501 169.603 184.311 170.365 183.933 171.032C183.559 171.693 183.037 172.213 182.365 172.592C181.698 172.971 180.927 173.16 180.053 173.16ZM180.053 171.672C180.586 171.672 181.055 171.552 181.461 171.312C181.866 171.072 182.183 170.733 182.413 170.296C182.642 169.853 182.757 169.336 182.757 168.744C182.757 168.157 182.642 167.648 182.413 167.216C182.183 166.784 181.866 166.451 181.461 166.216C181.055 165.981 180.586 165.864 180.053 165.864C179.525 165.864 179.055 165.981 178.645 166.216C178.239 166.451 177.922 166.784 177.693 167.216C177.463 167.648 177.349 168.157 177.349 168.744C177.349 169.336 177.463 169.853 177.693 170.296C177.922 170.733 178.239 171.072 178.645 171.312C179.055 171.552 179.525 171.672 180.053 171.672ZM192.481 173V169.08C192.481 168.851 192.481 168.656 192.481 168.496C192.481 168.336 192.481 168.187 192.481 168.048C192.481 167.632 192.417 167.267 192.289 166.952C192.161 166.632 191.95 166.384 191.657 166.208C191.364 166.027 190.972 165.936 190.481 165.936C190.049 165.936 189.657 166.043 189.305 166.256C188.958 166.469 188.681 166.76 188.473 167.128C188.27 167.491 188.169 167.904 188.169 168.368L187.425 168C187.425 167.312 187.588 166.696 187.913 166.152C188.238 165.603 188.673 165.168 189.217 164.848C189.766 164.528 190.366 164.368 191.017 164.368C191.689 164.368 192.262 164.499 192.737 164.76C193.217 165.016 193.582 165.384 193.833 165.864C194.089 166.339 194.217 166.907 194.217 167.568C194.217 167.813 194.217 168.085 194.217 168.384C194.217 168.683 194.217 168.971 194.217 169.248V173H192.481ZM186.433 173V164.504H188.169V173H186.433ZM197.418 173.216C197.119 173.216 196.866 173.115 196.658 172.912C196.455 172.709 196.354 172.459 196.354 172.16C196.354 171.867 196.455 171.619 196.658 171.416C196.866 171.208 197.119 171.104 197.418 171.104C197.706 171.104 197.954 171.208 198.162 171.416C198.37 171.619 198.474 171.867 198.474 172.16C198.474 172.459 198.37 172.709 198.162 172.912C197.954 173.115 197.706 173.216 197.418 173.216Z" fill="black"/>
<path d="M81.9197 299V281.3H85.0397V299H81.9197ZM97.2015 299V293.348C97.2015 293.028 97.2015 292.748 97.2015 292.508C97.2015 292.26 97.2015 292.036 97.2015 291.836C97.2015 291.26 97.1175 290.744 96.9495 290.288C96.7895 289.824 96.5095 289.46 96.1095 289.196C95.7175 288.932 95.1735 288.8 94.4775 288.8C93.8695 288.8 93.3295 288.948 92.8575 289.244C92.3855 289.532 92.0135 289.932 91.7415 290.444C91.4775 290.948 91.3455 291.532 91.3455 292.196L90.2775 291.536C90.2775 290.472 90.5175 289.528 90.9975 288.704C91.4855 287.872 92.1375 287.22 92.9535 286.748C93.7695 286.276 94.6735 286.04 95.6655 286.04C96.6895 286.04 97.5495 286.24 98.2455 286.64C98.9495 287.04 99.4775 287.608 99.8295 288.344C100.189 289.08 100.369 289.944 100.369 290.936C100.369 291.32 100.369 291.752 100.369 292.232C100.369 292.712 100.369 293.184 100.369 293.648V299H97.2015ZM88.1895 299V286.256H91.3455V299H88.1895ZM112.412 299V293.348C112.412 293.028 112.412 292.748 112.412 292.508C112.412 292.26 112.412 292.036 112.412 291.836C112.412 291.26 112.328 290.744 112.16 290.288C112 289.824 111.72 289.46 111.32 289.196C110.928 288.932 110.384 288.8 109.688 288.8C109.08 288.8 108.54 288.948 108.068 289.244C107.596 289.532 107.224 289.932 106.952 290.444C106.688 290.948 106.556 291.532 106.556 292.196L105.488 291.536C105.488 290.472 105.728 289.528 106.208 288.704C106.696 287.872 107.348 287.22 108.164 286.748C108.98 286.276 109.884 286.04 110.876 286.04C111.9 286.04 112.76 286.24 113.456 286.64C114.16 287.04 114.688 287.608 115.04 288.344C115.4 289.08 115.58 289.944 115.58 290.936C115.58 291.32 115.58 291.752 115.58 292.232C115.58 292.712 115.58 293.184 115.58 293.648V299H112.412ZM103.4 299V286.256H106.556V299H103.4ZM124.875 299.252C123.531 299.252 122.347 298.972 121.323 298.412C120.299 297.844 119.495 297.06 118.911 296.06C118.335 295.06 118.047 293.916 118.047 292.628C118.047 291.332 118.335 290.192 118.911 289.208C119.495 288.216 120.299 287.44 121.323 286.88C122.347 286.32 123.531 286.04 124.875 286.04C126.219 286.04 127.403 286.32 128.427 286.88C129.451 287.44 130.251 288.216 130.827 289.208C131.411 290.192 131.703 291.332 131.703 292.628C131.703 293.916 131.411 295.06 130.827 296.06C130.251 297.06 129.451 297.844 128.427 298.412C127.403 298.972 126.219 299.252 124.875 299.252ZM124.875 296.672C125.603 296.672 126.239 296.504 126.783 296.168C127.327 295.832 127.751 295.364 128.055 294.764C128.359 294.156 128.511 293.444 128.511 292.628C128.511 291.812 128.359 291.108 128.055 290.516C127.751 289.916 127.327 289.452 126.783 289.124C126.239 288.796 125.603 288.632 124.875 288.632C124.155 288.632 123.519 288.796 122.967 289.124C122.423 289.452 121.999 289.916 121.695 290.516C121.391 291.108 121.239 291.812 121.239 292.628C121.239 293.444 121.391 294.156 121.695 294.764C121.999 295.364 122.423 295.832 122.967 296.168C123.519 296.504 124.155 296.672 124.875 296.672ZM145.077 286.256L141.081 299H136.845L132.753 286.256H136.017L139.221 297.896H138.717L141.813 286.256H145.077ZM150.893 299.264C149.941 299.264 149.105 299.116 148.385 298.82C147.665 298.516 147.101 298.08 146.693 297.512C146.285 296.944 146.081 296.26 146.081 295.46C146.081 294.588 146.317 293.872 146.789 293.312C147.269 292.744 147.913 292.308 148.721 292.004C149.529 291.692 150.425 291.492 151.409 291.404C152.865 291.26 153.881 291.124 154.457 290.996C155.041 290.86 155.333 290.644 155.333 290.348C155.333 290.34 155.333 290.336 155.333 290.336C155.333 290.328 155.333 290.324 155.333 290.324C155.333 289.764 155.081 289.332 154.577 289.028C154.073 288.724 153.361 288.572 152.441 288.572C151.473 288.572 150.729 288.744 150.209 289.088C149.697 289.424 149.441 289.96 149.441 290.696H146.321C146.321 289.696 146.585 288.852 147.113 288.164C147.649 287.468 148.381 286.94 149.309 286.58C150.237 286.22 151.289 286.04 152.465 286.04C153.561 286.04 154.565 286.204 155.477 286.532C156.389 286.86 157.121 287.356 157.673 288.02C158.225 288.684 158.501 289.512 158.501 290.504C158.501 290.672 158.501 290.84 158.501 291.008C158.501 291.176 158.501 291.344 158.501 291.512V296.312C158.501 296.616 158.509 296.916 158.525 297.212C158.549 297.5 158.593 297.76 158.657 297.992C158.737 298.248 158.833 298.464 158.945 298.64C159.057 298.816 159.145 298.936 159.209 299H156.089C156.033 298.944 155.953 298.836 155.849 298.676C155.753 298.508 155.665 298.316 155.585 298.1C155.505 297.86 155.445 297.604 155.405 297.332C155.365 297.052 155.345 296.744 155.345 296.408L155.969 296.84C155.729 297.328 155.361 297.756 154.865 298.124C154.377 298.484 153.793 298.764 153.113 298.964C152.433 299.164 151.693 299.264 150.893 299.264ZM151.661 296.78C152.317 296.78 152.925 296.668 153.485 296.444C154.045 296.22 154.497 295.876 154.841 295.412C155.185 294.94 155.357 294.336 155.357 293.6V291.896L156.125 292.76C155.613 292.952 154.997 293.112 154.277 293.24C153.557 293.36 152.829 293.456 152.093 293.528C151.149 293.616 150.437 293.78 149.957 294.02C149.485 294.26 149.249 294.652 149.249 295.196C149.249 295.724 149.449 296.12 149.849 296.384C150.249 296.648 150.853 296.78 151.661 296.78ZM166.983 299.24C166.527 299.24 166.063 299.196 165.591 299.108C165.119 299.02 164.687 298.856 164.295 298.616C163.903 298.376 163.587 298.024 163.347 297.56C163.107 297.096 162.987 296.484 162.987 295.724C162.987 295.548 162.987 295.372 162.987 295.196C162.987 295.012 162.987 294.824 162.987 294.632V288.776H159.975V286.256H161.199C161.615 286.256 161.943 286.24 162.183 286.208C162.423 286.168 162.599 286.08 162.711 285.944C162.823 285.808 162.895 285.596 162.927 285.308C162.967 285.012 162.987 284.604 162.987 284.084V282.056H166.155V286.256H169.947V288.776H166.155V293.888C166.155 294.04 166.155 294.192 166.155 294.344C166.155 294.488 166.155 294.628 166.155 294.764C166.155 295.356 166.227 295.832 166.371 296.192C166.515 296.552 166.855 296.732 167.391 296.732C167.647 296.732 167.887 296.708 168.111 296.66C168.343 296.612 168.515 296.564 168.627 296.516V298.988C168.475 299.044 168.255 299.1 167.967 299.156C167.679 299.212 167.351 299.24 166.983 299.24ZM172.27 299V286.256H175.39V299H172.27ZM173.842 283.904C173.33 283.904 172.882 283.768 172.498 283.496C172.122 283.216 171.934 282.828 171.934 282.332C171.934 281.844 172.122 281.464 172.498 281.192C172.882 280.92 173.33 280.784 173.842 280.784C174.346 280.784 174.786 280.92 175.162 281.192C175.538 281.464 175.726 281.844 175.726 282.332C175.726 282.828 175.538 283.216 175.162 283.496C174.786 283.768 174.346 283.904 173.842 283.904ZM189.702 286.256L185.706 299H181.47L177.378 286.256H180.642L183.846 297.896H183.342L186.438 286.256H189.702ZM192.326 293.648V291.404H201.242L200.882 292.004C200.882 291.956 200.882 291.904 200.882 291.848C200.882 291.784 200.882 291.732 200.882 291.692C200.882 291.14 200.758 290.624 200.51 290.144C200.262 289.656 199.886 289.264 199.382 288.968C198.878 288.664 198.238 288.512 197.462 288.512C196.694 288.512 196.026 288.676 195.458 289.004C194.898 289.324 194.462 289.788 194.15 290.396C193.846 291.004 193.694 291.732 193.694 292.58C193.694 293.452 193.842 294.204 194.138 294.836C194.434 295.46 194.866 295.94 195.434 296.276C196.01 296.604 196.71 296.768 197.534 296.768C198.094 296.768 198.578 296.716 198.986 296.612C199.394 296.508 199.726 296.368 199.982 296.192C200.246 296.008 200.442 295.812 200.57 295.604C200.706 295.396 200.786 295.188 200.81 294.98H203.954C203.906 295.516 203.726 296.04 203.414 296.552C203.11 297.056 202.682 297.516 202.13 297.932C201.578 298.34 200.906 298.668 200.114 298.916C199.33 299.156 198.434 299.276 197.426 299.276C196.058 299.276 194.862 298.996 193.838 298.436C192.814 297.876 192.014 297.096 191.438 296.096C190.87 295.096 190.586 293.952 190.586 292.664C190.586 291.344 190.874 290.188 191.45 289.196C192.034 288.204 192.842 287.432 193.874 286.88C194.906 286.32 196.09 286.04 197.426 286.04C198.802 286.04 199.99 286.32 200.99 286.88C201.998 287.44 202.774 288.22 203.318 289.22C203.862 290.212 204.134 291.368 204.134 292.688C204.134 292.856 204.13 293.036 204.122 293.228C204.114 293.42 204.102 293.56 204.086 293.648H192.326ZM218.472 299.264C217.216 299.264 216.12 299.064 215.184 298.664C214.248 298.264 213.52 297.664 213 296.864C212.48 296.056 212.22 295.056 212.22 293.864C212.22 293.728 212.22 293.608 212.22 293.504C212.22 293.392 212.22 293.268 212.22 293.132H215.376C215.376 293.252 215.376 293.364 215.376 293.468C215.376 293.564 215.376 293.676 215.376 293.804C215.376 294.764 215.636 295.484 216.156 295.964C216.684 296.436 217.46 296.672 218.484 296.672C219.516 296.672 220.304 296.5 220.848 296.156C221.4 295.812 221.676 295.26 221.676 294.5C221.676 293.948 221.488 293.48 221.112 293.096C220.744 292.704 220.236 292.36 219.588 292.064C218.94 291.768 218.204 291.492 217.38 291.236C216.452 290.948 215.608 290.576 214.848 290.12C214.088 289.664 213.48 289.088 213.024 288.392C212.568 287.696 212.34 286.84 212.34 285.824C212.34 284.808 212.6 283.944 213.12 283.232C213.648 282.52 214.368 281.98 215.28 281.612C216.2 281.236 217.244 281.048 218.412 281.048C219.636 281.048 220.712 281.24 221.64 281.624C222.576 282.008 223.308 282.58 223.836 283.34C224.364 284.1 224.628 285.048 224.628 286.184C224.628 286.336 224.628 286.468 224.628 286.58C224.628 286.692 224.628 286.82 224.628 286.964H221.46C221.46 286.86 221.46 286.756 221.46 286.652C221.46 286.54 221.46 286.432 221.46 286.328C221.46 285.416 221.212 284.744 220.716 284.312C220.22 283.872 219.468 283.652 218.46 283.652C217.476 283.652 216.72 283.824 216.192 284.168C215.664 284.512 215.4 285.06 215.4 285.812C215.4 286.372 215.58 286.84 215.94 287.216C216.3 287.592 216.792 287.92 217.416 288.2C218.048 288.472 218.764 288.748 219.564 289.028C220.628 289.38 221.548 289.78 222.324 290.228C223.1 290.668 223.7 291.22 224.124 291.884C224.548 292.54 224.76 293.376 224.76 294.392C224.76 295.432 224.496 296.316 223.968 297.044C223.448 297.764 222.716 298.316 221.772 298.7C220.836 299.076 219.736 299.264 218.472 299.264ZM233.264 299.24C232.808 299.24 232.344 299.196 231.872 299.108C231.4 299.02 230.968 298.856 230.576 298.616C230.184 298.376 229.868 298.024 229.628 297.56C229.388 297.096 229.268 296.484 229.268 295.724C229.268 295.548 229.268 295.372 229.268 295.196C229.268 295.012 229.268 294.824 229.268 294.632V288.776H226.256V286.256H227.48C227.896 286.256 228.224 286.24 228.464 286.208C228.704 286.168 228.88 286.08 228.992 285.944C229.104 285.808 229.176 285.596 229.208 285.308C229.248 285.012 229.268 284.604 229.268 284.084V282.056H232.436V286.256H236.228V288.776H232.436V293.888C232.436 294.04 232.436 294.192 232.436 294.344C232.436 294.488 232.436 294.628 232.436 294.764C232.436 295.356 232.508 295.832 232.652 296.192C232.796 296.552 233.136 296.732 233.672 296.732C233.928 296.732 234.168 296.708 234.392 296.66C234.624 296.612 234.796 296.564 234.908 296.516V298.988C234.756 299.044 234.536 299.1 234.248 299.156C233.96 299.212 233.632 299.24 233.264 299.24ZM238.611 299V286.256H241.767V290.492L241.035 290.084C241.115 289.532 241.263 289.012 241.479 288.524C241.695 288.028 241.983 287.596 242.343 287.228C242.703 286.852 243.139 286.56 243.651 286.352C244.163 286.144 244.747 286.04 245.403 286.04C245.923 286.04 246.331 286.08 246.627 286.16C246.931 286.232 247.119 286.292 247.191 286.34L246.615 289.232C246.535 289.176 246.371 289.108 246.123 289.028C245.883 288.94 245.559 288.896 245.151 288.896C244.503 288.896 243.959 289.008 243.519 289.232C243.087 289.448 242.743 289.744 242.487 290.12C242.231 290.488 242.047 290.896 241.935 291.344C241.823 291.784 241.767 292.224 241.767 292.664V299H238.611ZM253.315 299.264C252.363 299.264 251.527 299.116 250.807 298.82C250.087 298.516 249.523 298.08 249.115 297.512C248.707 296.944 248.503 296.26 248.503 295.46C248.503 294.588 248.739 293.872 249.211 293.312C249.691 292.744 250.335 292.308 251.143 292.004C251.951 291.692 252.847 291.492 253.831 291.404C255.287 291.26 256.303 291.124 256.879 290.996C257.463 290.86 257.755 290.644 257.755 290.348C257.755 290.34 257.755 290.336 257.755 290.336C257.755 290.328 257.755 290.324 257.755 290.324C257.755 289.764 257.503 289.332 256.999 289.028C256.495 288.724 255.783 288.572 254.863 288.572C253.895 288.572 253.151 288.744 252.631 289.088C252.119 289.424 251.863 289.96 251.863 290.696H248.743C248.743 289.696 249.007 288.852 249.535 288.164C250.071 287.468 250.803 286.94 251.731 286.58C252.659 286.22 253.711 286.04 254.887 286.04C255.983 286.04 256.987 286.204 257.899 286.532C258.811 286.86 259.543 287.356 260.095 288.02C260.647 288.684 260.923 289.512 260.923 290.504C260.923 290.672 260.923 290.84 260.923 291.008C260.923 291.176 260.923 291.344 260.923 291.512V296.312C260.923 296.616 260.931 296.916 260.947 297.212C260.971 297.5 261.015 297.76 261.079 297.992C261.159 298.248 261.255 298.464 261.367 298.64C261.479 298.816 261.567 298.936 261.631 299H258.511C258.455 298.944 258.375 298.836 258.271 298.676C258.175 298.508 258.087 298.316 258.007 298.1C257.927 297.86 257.867 297.604 257.827 297.332C257.787 297.052 257.767 296.744 257.767 296.408L258.391 296.84C258.151 297.328 257.783 297.756 257.287 298.124C256.799 298.484 256.215 298.764 255.535 298.964C254.855 299.164 254.115 299.264 253.315 299.264ZM254.083 296.78C254.739 296.78 255.347 296.668 255.907 296.444C256.467 296.22 256.919 295.876 257.263 295.412C257.607 294.94 257.779 294.336 257.779 293.6V291.896L258.547 292.76C258.035 292.952 257.419 293.112 256.699 293.24C255.979 293.36 255.251 293.456 254.515 293.528C253.571 293.616 252.859 293.78 252.379 294.02C251.907 294.26 251.671 294.652 251.671 295.196C251.671 295.724 251.871 296.12 252.271 296.384C252.671 296.648 253.275 296.78 254.083 296.78ZM269.405 299.24C268.949 299.24 268.485 299.196 268.013 299.108C267.541 299.02 267.109 298.856 266.717 298.616C266.325 298.376 266.009 298.024 265.769 297.56C265.529 297.096 265.409 296.484 265.409 295.724C265.409 295.548 265.409 295.372 265.409 295.196C265.409 295.012 265.409 294.824 265.409 294.632V288.776H262.397V286.256H263.621C264.037 286.256 264.365 286.24 264.605 286.208C264.845 286.168 265.021 286.08 265.133 285.944C265.245 285.808 265.317 285.596 265.349 285.308C265.389 285.012 265.409 284.604 265.409 284.084V282.056H268.577V286.256H272.369V288.776H268.577V293.888C268.577 294.04 268.577 294.192 268.577 294.344C268.577 294.488 268.577 294.628 268.577 294.764C268.577 295.356 268.649 295.832 268.793 296.192C268.937 296.552 269.277 296.732 269.813 296.732C270.069 296.732 270.309 296.708 270.533 296.66C270.765 296.612 270.937 296.564 271.049 296.516V298.988C270.897 299.044 270.677 299.1 270.389 299.156C270.101 299.212 269.773 299.24 269.405 299.24ZM275.576 293.648V291.404H284.492L284.132 292.004C284.132 291.956 284.132 291.904 284.132 291.848C284.132 291.784 284.132 291.732 284.132 291.692C284.132 291.14 284.008 290.624 283.76 290.144C283.512 289.656 283.136 289.264 282.632 288.968C282.128 288.664 281.488 288.512 280.712 288.512C279.944 288.512 279.276 288.676 278.708 289.004C278.148 289.324 277.712 289.788 277.4 290.396C277.096 291.004 276.944 291.732 276.944 292.58C276.944 293.452 277.092 294.204 277.388 294.836C277.684 295.46 278.116 295.94 278.684 296.276C279.26 296.604 279.96 296.768 280.784 296.768C281.344 296.768 281.828 296.716 282.236 296.612C282.644 296.508 282.976 296.368 283.232 296.192C283.496 296.008 283.692 295.812 283.82 295.604C283.956 295.396 284.036 295.188 284.06 294.98H287.204C287.156 295.516 286.976 296.04 286.664 296.552C286.36 297.056 285.932 297.516 285.38 297.932C284.828 298.34 284.156 298.668 283.364 298.916C282.58 299.156 281.684 299.276 280.676 299.276C279.308 299.276 278.112 298.996 277.088 298.436C276.064 297.876 275.264 297.096 274.688 296.096C274.12 295.096 273.836 293.952 273.836 292.664C273.836 291.344 274.124 290.188 274.7 289.196C275.284 288.204 276.092 287.432 277.124 286.88C278.156 286.32 279.34 286.04 280.676 286.04C282.052 286.04 283.24 286.32 284.24 286.88C285.248 287.44 286.024 288.22 286.568 289.22C287.112 290.212 287.384 291.368 287.384 292.688C287.384 292.856 287.38 293.036 287.372 293.228C287.364 293.42 287.352 293.56 287.336 293.648H275.576ZM298.554 297.74C299.306 297.812 299.966 297.952 300.534 298.16C301.102 298.368 301.546 298.676 301.866 299.084C302.186 299.5 302.346 300.052 302.346 300.74C302.346 301.508 302.086 302.172 301.566 302.732C301.046 303.292 300.282 303.724 299.274 304.028C298.274 304.332 297.042 304.484 295.578 304.484C293.45 304.484 291.814 304.176 290.67 303.56C289.526 302.952 288.954 302.124 288.954 301.076C288.954 300.78 288.99 300.512 289.062 300.272C289.134 300.032 289.222 299.832 289.326 299.672L292.218 300.092C292.17 300.156 292.122 300.256 292.074 300.392C292.026 300.536 292.002 300.708 292.002 300.908C292.002 301.404 292.334 301.76 292.998 301.976C293.67 302.2 294.562 302.312 295.674 302.312C296.49 302.312 297.17 302.256 297.714 302.144C298.266 302.032 298.682 301.872 298.962 301.664C299.25 301.456 299.394 301.212 299.394 300.932C299.394 300.516 299.206 300.248 298.83 300.128C298.454 300.008 298.006 299.928 297.486 299.888L292.65 299.444C291.786 299.356 291.074 299.1 290.514 298.676C289.962 298.252 289.686 297.692 289.686 296.996C289.686 296.572 289.798 296.18 290.022 295.82C290.254 295.46 290.518 295.16 290.814 294.92C291.11 294.672 291.362 294.52 291.57 294.464L293.37 295.352C293.202 295.376 293.002 295.484 292.77 295.676C292.546 295.868 292.434 296.096 292.434 296.36C292.434 296.608 292.546 296.816 292.77 296.984C292.994 297.144 293.426 297.256 294.066 297.32L298.554 297.74ZM299.982 286.256H302.814L301.662 291.2C301.446 292.128 301.098 292.96 300.618 293.696C300.138 294.432 299.498 295.012 298.698 295.436C297.898 295.86 296.89 296.072 295.674 296.072C294.41 296.072 293.318 295.868 292.398 295.46C291.486 295.044 290.782 294.464 290.286 293.72C289.79 292.968 289.542 292.104 289.542 291.128C289.542 290.128 289.794 289.248 290.298 288.488C290.81 287.72 291.51 287.12 292.398 286.688C293.294 286.256 294.306 286.04 295.434 286.04C296.346 286.04 297.166 286.192 297.894 286.496C298.622 286.792 299.202 287.18 299.634 287.66C300.074 288.14 300.31 288.652 300.342 289.196L299.634 289.328L299.982 286.256ZM295.662 293.636C296.278 293.636 296.81 293.536 297.258 293.336C297.706 293.136 298.054 292.848 298.302 292.472C298.55 292.088 298.674 291.624 298.674 291.08C298.674 290.544 298.55 290.084 298.302 289.7C298.054 289.316 297.706 289.024 297.258 288.824C296.81 288.616 296.282 288.512 295.674 288.512C295.082 288.512 294.558 288.616 294.102 288.824C293.646 289.032 293.286 289.332 293.022 289.724C292.766 290.108 292.638 290.568 292.638 291.104C292.638 291.64 292.762 292.1 293.01 292.484C293.266 292.86 293.618 293.148 294.066 293.348C294.522 293.54 295.054 293.636 295.662 293.636ZM304.879 299V286.256H307.999V299H304.879ZM306.451 283.904C305.939 283.904 305.491 283.768 305.107 283.496C304.731 283.216 304.543 282.828 304.543 282.332C304.543 281.844 304.731 281.464 305.107 281.192C305.491 280.92 305.939 280.784 306.451 280.784C306.955 280.784 307.395 280.92 307.771 281.192C308.147 281.464 308.335 281.844 308.335 282.332C308.335 282.828 308.147 283.216 307.771 283.496C307.395 283.768 306.955 283.904 306.451 283.904ZM312.303 293.648V291.404H321.219L320.859 292.004C320.859 291.956 320.859 291.904 320.859 291.848C320.859 291.784 320.859 291.732 320.859 291.692C320.859 291.14 320.735 290.624 320.487 290.144C320.239 289.656 319.863 289.264 319.359 288.968C318.855 288.664 318.215 288.512 317.439 288.512C316.671 288.512 316.003 288.676 315.435 289.004C314.875 289.324 314.439 289.788 314.127 290.396C313.823 291.004 313.671 291.732 313.671 292.58C313.671 293.452 313.819 294.204 314.115 294.836C314.411 295.46 314.843 295.94 315.411 296.276C315.987 296.604 316.687 296.768 317.511 296.768C318.071 296.768 318.555 296.716 318.963 296.612C319.371 296.508 319.703 296.368 319.959 296.192C320.223 296.008 320.419 295.812 320.547 295.604C320.683 295.396 320.763 295.188 320.787 294.98H323.931C323.883 295.516 323.703 296.04 323.391 296.552C323.087 297.056 322.659 297.516 322.107 297.932C321.555 298.34 320.883 298.668 320.091 298.916C319.307 299.156 318.411 299.276 317.403 299.276C316.035 299.276 314.839 298.996 313.815 298.436C312.791 297.876 311.991 297.096 311.415 296.096C310.847 295.096 310.563 293.952 310.563 292.664C310.563 291.344 310.851 290.188 311.427 289.196C312.011 288.204 312.819 287.432 313.851 286.88C314.883 286.32 316.067 286.04 317.403 286.04C318.779 286.04 319.967 286.32 320.967 286.88C321.975 287.44 322.751 288.22 323.295 289.22C323.839 290.212 324.111 291.368 324.111 292.688C324.111 292.856 324.107 293.036 324.099 293.228C324.091 293.42 324.079 293.56 324.063 293.648H312.303ZM331.861 299.264C331.101 299.264 330.377 299.18 329.689 299.012C329.009 298.844 328.401 298.592 327.865 298.256C327.337 297.92 326.917 297.504 326.605 297.008C326.301 296.504 326.149 295.924 326.149 295.268C326.149 295.22 326.149 295.172 326.149 295.124C326.149 295.076 326.149 295.032 326.149 294.992H329.293C329.293 295.032 329.293 295.068 329.293 295.1C329.293 295.124 329.293 295.16 329.293 295.208C329.293 295.728 329.529 296.12 330.001 296.384C330.481 296.64 331.133 296.768 331.957 296.768C332.405 296.768 332.825 296.72 333.217 296.624C333.617 296.528 333.937 296.38 334.177 296.18C334.425 295.98 334.549 295.724 334.549 295.412C334.549 294.908 334.289 294.548 333.769 294.332C333.257 294.116 332.449 293.92 331.345 293.744C330.737 293.64 330.137 293.5 329.545 293.324C328.953 293.148 328.413 292.912 327.925 292.616C327.445 292.32 327.057 291.952 326.761 291.512C326.473 291.072 326.329 290.536 326.329 289.904C326.329 289.064 326.577 288.36 327.073 287.792C327.577 287.216 328.249 286.78 329.089 286.484C329.937 286.188 330.869 286.04 331.885 286.04C332.861 286.04 333.769 286.2 334.609 286.52C335.449 286.84 336.125 287.3 336.637 287.9C337.157 288.5 337.417 289.224 337.417 290.072C337.417 290.104 337.417 290.14 337.417 290.18C337.417 290.212 337.417 290.24 337.417 290.264H334.297C334.297 290.24 334.297 290.216 334.297 290.192C334.297 290.168 334.297 290.14 334.297 290.108C334.297 289.74 334.181 289.44 333.949 289.208C333.717 288.976 333.417 288.804 333.049 288.692C332.681 288.58 332.293 288.524 331.885 288.524C331.525 288.524 331.153 288.564 330.769 288.644C330.385 288.716 330.065 288.848 329.809 289.04C329.553 289.224 329.425 289.484 329.425 289.82C329.425 290.14 329.557 290.4 329.821 290.6C330.085 290.8 330.453 290.968 330.925 291.104C331.397 291.232 331.941 291.348 332.557 291.452C333.141 291.548 333.729 291.68 334.321 291.848C334.921 292.016 335.469 292.24 335.965 292.52C336.461 292.8 336.861 293.168 337.165 293.624C337.477 294.072 337.633 294.628 337.633 295.292C337.633 295.996 337.473 296.596 337.153 297.092C336.833 297.588 336.397 298 335.845 298.328C335.301 298.648 334.685 298.884 333.997 299.036C333.309 299.188 332.597 299.264 331.861 299.264Z" fill="black"/>
<defs>
<filter id="filter0_d_294_2774" x="14.4612" y="23.4945" width="224.539" height="223.539" filterUnits="userSpaceOnUse" color-interpolation-filters="sRGB">
<feFlood flood-opacity="0" result="BackgroundImageFix"/>
<feColorMatrix in="SourceAlpha" type="matrix" values="0 0 0 0 0 0 0 0 0 0 0 0 0 0 0 0 0 0 127 0" result="hardAlpha"/>
<feOffset dx="-8.76941" dy="6.26386"/>
<feGaussianBlur stdDeviation="4.38471"/>
<feComposite in2="hardAlpha" operator="out"/>
<feColorMatrix type="matrix" values="0 0 0 0 0 0 0 0 0 0 0 0 0 0 0 0 0 0 0.35 0"/>
<feBlend mode="normal" in2="BackgroundImageFix" result="effect1_dropShadow_294_2774"/>
<feBlend mode="normal" in="SourceGraphic" in2="effect1_dropShadow_294_2774" result="shape"/>
</filter>
</defs>
</svg>
