<svg width="300" height="440" viewBox="0 0 309 466" fill="none" xmlns="http://www.w3.org/2000/svg">
<path d="M269 126.783C269 131.201 272.582 134.783 277 134.783C281.418 134.783 285 131.201 285 126.783C285 122.365 281.418 118.783 277 118.783C272.582 118.783 269 122.365 269 126.783ZM132.391 2V0.5V2ZM2 126.783L0.500016 126.776L0.499977 126.785L0.500035 126.793L2 126.783ZM53.4711 240.523L54.7827 239.796L53.4711 240.523ZM70.1236 303.628L68.6246 303.571L70.1236 303.628ZM137.382 458C137.382 462.418 140.964 466 145.382 466C149.801 466 153.382 462.418 153.382 458C153.382 453.582 149.801 450 145.382 450C140.964 450 137.382 453.582 137.382 458ZM278.5 126.783C278.5 58.2108 211.185 0.499974 132.391 0.5V3.5C209.96 3.49997 275.5 60.2688 275.5 126.783H278.5ZM132.391 0.5C57.8728 0.500025 0.818432 57.4008 0.500016 126.776L3.49998 126.79C3.81048 59.1398 59.4495 3.50002 132.391 3.5V0.5ZM0.500035 126.793C0.659629 150.204 8.13389 168.957 18.2782 186.785C23.3419 195.684 29.0861 204.378 34.9121 213.288C40.7473 222.211 46.6745 231.365 52.1595 241.251L54.7827 239.796C49.2391 229.804 43.2573 220.568 37.4229 211.646C31.5794 202.71 25.8934 194.102 20.8857 185.302C10.8874 167.73 3.65483 149.49 3.49997 126.773L0.500035 126.793ZM52.1595 241.251C67.5222 268.939 69.0515 292.256 68.6246 303.571L71.6225 303.684C72.0655 291.941 70.4635 268.057 54.7827 239.796L52.1595 241.251ZM77.0293 312.697H194.268V309.697H77.0293V312.697ZM199.031 317.461V324.665H202.031V317.461H199.031ZM194.268 329.429H84.245V332.429H194.268V329.429ZM76.4812 337.193V345.094H79.4812V337.193H76.4812ZM84.245 352.858H194.268V349.858H84.245V352.858ZM199.031 357.621V364.137H202.031V357.621H199.031ZM194.268 368.901H84.245V371.901H194.268V368.901ZM76.4812 376.665V386.643H79.4812V376.665H76.4812ZM84.245 394.407H194.268V391.407H84.245V394.407ZM199.031 399.17V406.032H202.031V399.17H199.031ZM194.268 410.796H151.646V413.796H194.268V410.796ZM143.882 418.56V458H146.882V418.56H143.882ZM151.646 410.796C147.358 410.796 143.882 414.272 143.882 418.56H146.882C146.882 415.929 149.015 413.796 151.646 413.796V410.796ZM199.031 406.032C199.031 408.663 196.899 410.796 194.268 410.796V413.796C198.555 413.796 202.031 410.32 202.031 406.032H199.031ZM194.268 394.407C196.899 394.407 199.031 396.539 199.031 399.17H202.031C202.031 394.883 198.555 391.407 194.268 391.407V394.407ZM76.4812 386.643C76.4812 390.931 79.9572 394.407 84.245 394.407V391.407C81.614 391.407 79.4812 389.274 79.4812 386.643H76.4812ZM84.245 368.901C79.9572 368.901 76.4812 372.377 76.4812 376.665H79.4812C79.4812 374.034 81.614 371.901 84.245 371.901V368.901ZM199.031 364.137C199.031 366.768 196.899 368.901 194.268 368.901V371.901C198.555 371.901 202.031 368.425 202.031 364.137H199.031ZM194.268 352.858C196.899 352.858 199.031 354.99 199.031 357.621H202.031C202.031 353.334 198.555 349.858 194.268 349.858V352.858ZM76.4812 345.094C76.4812 349.382 79.9572 352.858 84.245 352.858V349.858C81.614 349.858 79.4812 347.725 79.4812 345.094H76.4812ZM84.245 329.429C79.9572 329.429 76.4812 332.905 76.4812 337.193H79.4812C79.4812 334.562 81.614 332.429 84.245 332.429V329.429ZM199.031 324.665C199.031 327.297 196.899 329.429 194.268 329.429V332.429C198.555 332.429 202.031 328.953 202.031 324.665H199.031ZM194.268 312.697C196.899 312.697 199.031 314.83 199.031 317.461H202.031C202.031 313.173 198.556 309.697 194.268 309.697V312.697ZM68.6246 303.571C68.4478 308.259 72.1264 312.697 77.0293 312.697V309.697C74.0358 309.697 71.5017 306.888 71.6225 303.684L68.6246 303.571Z" fill="#3DB8DB"/>
<circle cx="137" cy="130" r="116" fill="#3DB8DB"/>
<g filter="url(#filter0_d_294_2775)">
<ellipse cx="135.5" cy="129" rx="103.5" ry="103" fill="white"/>
</g>
<path d="M91.3371 83.64H87.7611L88.3051 82.728V94H86.5691V82.728L87.1691 83.64H83.5451V82.2H91.3371V83.64ZM92.1048 94V85.504H93.8408V88.216L93.3768 88.008C93.4141 87.6613 93.5021 87.3307 93.6408 87.016C93.7794 86.7013 93.9634 86.4213 94.1928 86.176C94.4274 85.9253 94.7154 85.728 95.0568 85.584C95.3981 85.44 95.7928 85.368 96.2408 85.368C96.5821 85.368 96.8568 85.3947 97.0648 85.448C97.2781 85.5013 97.4088 85.544 97.4568 85.576L97.0888 87.208C97.0354 87.1707 96.9261 87.1227 96.7608 87.064C96.6008 87.0053 96.3768 86.976 96.0888 86.976C95.6514 86.976 95.2888 87.0533 95.0008 87.208C94.7128 87.3627 94.4834 87.568 94.3128 87.824C94.1421 88.08 94.0194 88.36 93.9448 88.664C93.8754 88.9627 93.8408 89.264 93.8408 89.568V94H92.1048ZM101.643 94.168C101.003 94.168 100.44 94.0667 99.9545 93.864C99.4745 93.6613 99.1012 93.3707 98.8345 92.992C98.5678 92.6133 98.4345 92.1573 98.4345 91.624C98.4345 91.0533 98.5838 90.5813 98.8825 90.208C99.1865 89.8347 99.6025 89.5467 100.131 89.344C100.664 89.136 101.269 89 101.947 88.936C102.955 88.8347 103.664 88.736 104.075 88.64C104.491 88.544 104.699 88.3867 104.699 88.168C104.699 88.1627 104.699 88.1573 104.699 88.152C104.699 87.72 104.515 87.392 104.147 87.168C103.779 86.944 103.253 86.832 102.571 86.832C101.851 86.832 101.293 86.96 100.899 87.216C100.509 87.4667 100.315 87.8667 100.315 88.416H98.6105C98.6105 87.7653 98.7785 87.2133 99.1145 86.76C99.4558 86.3067 99.9252 85.9627 100.523 85.728C101.12 85.488 101.805 85.368 102.579 85.368C103.288 85.368 103.933 85.4773 104.515 85.696C105.101 85.9093 105.568 86.2293 105.915 86.656C106.261 87.0827 106.435 87.6133 106.435 88.248C106.435 88.36 106.435 88.472 106.435 88.584C106.435 88.6907 106.435 88.8 106.435 88.912V92.304C106.435 92.5013 106.443 92.6933 106.459 92.88C106.475 93.0613 106.504 93.224 106.547 93.368C106.595 93.5333 106.651 93.6693 106.715 93.776C106.784 93.8827 106.84 93.9573 106.883 94H105.155C105.123 93.968 105.075 93.9013 105.011 93.8C104.952 93.6933 104.899 93.5707 104.851 93.432C104.803 93.2987 104.765 93.1467 104.739 92.976C104.717 92.8 104.707 92.6107 104.707 92.408L105.027 92.632C104.867 92.9413 104.624 93.2107 104.299 93.44C103.979 93.6693 103.592 93.848 103.139 93.976C102.691 94.104 102.192 94.168 101.643 94.168ZM102.003 92.728C102.499 92.728 102.949 92.6507 103.355 92.496C103.765 92.336 104.093 92.096 104.339 91.776C104.584 91.4507 104.707 91.0427 104.707 90.552V89.144L105.115 89.68C104.773 89.8133 104.355 89.9227 103.859 90.008C103.368 90.088 102.861 90.1547 102.339 90.208C101.619 90.272 101.077 90.3973 100.715 90.584C100.352 90.7653 100.171 91.0693 100.171 91.496C100.171 91.9067 100.32 92.216 100.619 92.424C100.923 92.6267 101.384 92.728 102.003 92.728ZM114.59 94V90.08C114.59 89.8507 114.59 89.656 114.59 89.496C114.59 89.336 114.59 89.1867 114.59 89.048C114.59 88.632 114.526 88.2667 114.398 87.952C114.27 87.632 114.06 87.384 113.766 87.208C113.473 87.0267 113.081 86.936 112.59 86.936C112.158 86.936 111.766 87.0427 111.414 87.256C111.068 87.4693 110.79 87.76 110.582 88.128C110.38 88.4907 110.278 88.904 110.278 89.368L109.534 89C109.534 88.312 109.697 87.696 110.022 87.152C110.348 86.6027 110.782 86.168 111.326 85.848C111.876 85.528 112.476 85.368 113.126 85.368C113.798 85.368 114.372 85.4987 114.846 85.76C115.326 86.016 115.692 86.384 115.942 86.864C116.198 87.3387 116.326 87.9067 116.326 88.568C116.326 88.8133 116.326 89.0853 116.326 89.384C116.326 89.6827 116.326 89.9707 116.326 90.248V94H114.59ZM108.542 94V85.504H110.278V94H108.542ZM121.855 94.168C121.348 94.168 120.871 94.112 120.423 94C119.975 93.888 119.58 93.7253 119.239 93.512C118.903 93.2933 118.639 93.024 118.447 92.704C118.26 92.384 118.167 92.0133 118.167 91.592C118.167 91.5547 118.167 91.5173 118.167 91.48C118.167 91.4373 118.167 91.4027 118.167 91.376H119.895C119.895 91.4027 119.895 91.4267 119.895 91.448C119.895 91.4693 119.895 91.4987 119.895 91.536C119.895 91.9253 120.074 92.2213 120.431 92.424C120.794 92.6213 121.284 92.72 121.903 92.72C122.266 92.72 122.596 92.6827 122.895 92.608C123.199 92.5333 123.439 92.4187 123.615 92.264C123.796 92.1093 123.887 91.912 123.887 91.672C123.887 91.2827 123.695 91.0053 123.311 90.84C122.932 90.6747 122.356 90.528 121.583 90.4C121.162 90.3253 120.754 90.2293 120.359 90.112C119.97 89.9947 119.618 89.84 119.303 89.648C118.994 89.4507 118.746 89.208 118.559 88.92C118.378 88.6267 118.287 88.2747 118.287 87.864C118.287 87.3307 118.447 86.8773 118.767 86.504C119.087 86.1307 119.519 85.848 120.063 85.656C120.607 85.464 121.207 85.368 121.863 85.368C122.498 85.368 123.084 85.472 123.623 85.68C124.167 85.8827 124.604 86.1787 124.935 86.568C125.266 86.952 125.431 87.424 125.431 87.984C125.431 88.0053 125.431 88.0293 125.431 88.056C125.431 88.0827 125.431 88.1067 125.431 88.128H123.711C123.711 88.1067 123.711 88.088 123.711 88.072C123.711 88.056 123.711 88.0373 123.711 88.016C123.711 87.7387 123.623 87.512 123.447 87.336C123.271 87.16 123.042 87.0293 122.759 86.944C122.482 86.8533 122.186 86.808 121.871 86.808C121.583 86.808 121.292 86.84 120.999 86.904C120.711 86.9627 120.471 87.0667 120.279 87.216C120.087 87.36 119.991 87.5573 119.991 87.808C119.991 88.064 120.084 88.2693 120.271 88.424C120.458 88.5733 120.722 88.6987 121.063 88.8C121.404 88.896 121.802 88.984 122.255 89.064C122.671 89.1387 123.076 89.2347 123.471 89.352C123.866 89.464 124.22 89.6133 124.535 89.8C124.855 89.9867 125.108 90.2267 125.295 90.52C125.487 90.8133 125.583 91.1733 125.583 91.6C125.583 92.0427 125.482 92.424 125.279 92.744C125.076 93.064 124.799 93.3307 124.447 93.544C124.1 93.752 123.703 93.9067 123.255 94.008C122.812 94.1147 122.346 94.168 121.855 94.168ZM128.45 94V86.944H126.618V85.504H128.45V84.576C128.45 84.1387 128.503 83.7467 128.61 83.4C128.722 83.0533 128.876 82.7547 129.074 82.504C129.271 82.248 129.503 82.0373 129.77 81.872C130.042 81.7067 130.338 81.584 130.658 81.504C130.983 81.4187 131.322 81.376 131.674 81.376C131.962 81.376 132.186 81.3947 132.346 81.432C132.511 81.464 132.62 81.4933 132.674 81.52V82.968C132.61 82.9467 132.5 82.9227 132.346 82.896C132.191 82.8693 132.026 82.856 131.85 82.856C131.508 82.856 131.228 82.9067 131.01 83.008C130.791 83.1093 130.62 83.2507 130.498 83.432C130.375 83.608 130.29 83.8133 130.242 84.048C130.199 84.2773 130.178 84.5227 130.178 84.784V85.504H132.594V86.944H130.178V94H128.45ZM137.756 94.16C136.881 94.16 136.108 93.9707 135.436 93.592C134.769 93.2133 134.246 92.6933 133.868 92.032C133.494 91.3653 133.308 90.6027 133.308 89.744C133.308 88.8907 133.494 88.136 133.868 87.48C134.246 86.8187 134.769 86.304 135.436 85.936C136.108 85.5627 136.881 85.376 137.756 85.376C138.63 85.376 139.401 85.5627 140.068 85.936C140.74 86.304 141.262 86.8187 141.636 87.48C142.014 88.136 142.204 88.8907 142.204 89.744C142.204 90.6027 142.014 91.3653 141.636 92.032C141.262 92.6933 140.74 93.2133 140.068 93.592C139.401 93.9707 138.63 94.16 137.756 94.16ZM137.756 92.672C138.289 92.672 138.758 92.552 139.164 92.312C139.569 92.072 139.886 91.7333 140.116 91.296C140.345 90.8533 140.46 90.336 140.46 89.744C140.46 89.1573 140.345 88.648 140.116 88.216C139.886 87.784 139.569 87.4507 139.164 87.216C138.758 86.9813 138.289 86.864 137.756 86.864C137.228 86.864 136.758 86.9813 136.348 87.216C135.942 87.4507 135.625 87.784 135.396 88.216C135.166 88.648 135.052 89.1573 135.052 89.744C135.052 90.336 135.166 90.8533 135.396 91.296C135.625 91.7333 135.942 92.072 136.348 92.312C136.758 92.552 137.228 92.672 137.756 92.672ZM144.136 94V85.504H145.872V88.216L145.408 88.008C145.445 87.6613 145.533 87.3307 145.672 87.016C145.811 86.7013 145.995 86.4213 146.224 86.176C146.459 85.9253 146.747 85.728 147.088 85.584C147.429 85.44 147.824 85.368 148.272 85.368C148.613 85.368 148.888 85.3947 149.096 85.448C149.309 85.5013 149.44 85.544 149.488 85.576L149.12 87.208C149.067 87.1707 148.957 87.1227 148.792 87.064C148.632 87.0053 148.408 86.976 148.12 86.976C147.683 86.976 147.32 87.0533 147.032 87.208C146.744 87.3627 146.515 87.568 146.344 87.824C146.173 88.08 146.051 88.36 145.976 88.664C145.907 88.9627 145.872 89.264 145.872 89.568V94H144.136ZM156.142 94V90.4C156.142 90.0747 156.142 89.7947 156.142 89.56C156.142 89.32 156.142 89.1173 156.142 88.952C156.142 88.744 156.126 88.5227 156.094 88.288C156.067 88.0533 156.003 87.8347 155.902 87.632C155.806 87.424 155.654 87.256 155.446 87.128C155.238 87 154.953 86.936 154.59 86.936C154.227 86.936 153.921 87.008 153.67 87.152C153.419 87.296 153.217 87.488 153.062 87.728C152.907 87.9627 152.795 88.2267 152.726 88.52C152.657 88.808 152.622 89.0987 152.622 89.392L151.886 88.992C151.886 88.3253 152.017 87.72 152.278 87.176C152.545 86.6267 152.918 86.1893 153.398 85.864C153.883 85.5333 154.454 85.368 155.11 85.368C155.777 85.368 156.31 85.5067 156.71 85.784C157.115 86.056 157.409 86.4293 157.59 86.904C157.771 87.3733 157.862 87.9067 157.862 88.504C157.862 88.7227 157.862 89.008 157.862 89.36C157.862 89.712 157.862 90.12 157.862 90.584V94H156.142ZM150.886 94V85.504H152.622V94H150.886ZM161.374 94V90.408C161.374 90.056 161.374 89.7627 161.374 89.528C161.374 89.288 161.374 89.088 161.374 88.928C161.374 88.7093 161.361 88.4853 161.334 88.256C161.307 88.0213 161.243 87.8053 161.142 87.608C161.041 87.4107 160.883 87.2507 160.67 87.128C160.462 87 160.171 86.936 159.798 86.936C159.43 86.936 159.121 87.008 158.87 87.152C158.625 87.2907 158.427 87.4773 158.278 87.712C158.129 87.9413 158.022 88.1947 157.958 88.472C157.894 88.7493 157.862 89.024 157.862 89.296L157.126 88.912C157.126 88.272 157.254 87.6827 157.51 87.144C157.771 86.6053 158.139 86.176 158.614 85.856C159.094 85.5307 159.662 85.368 160.318 85.368C160.958 85.368 161.483 85.496 161.894 85.752C162.305 86.008 162.609 86.3627 162.806 86.816C163.003 87.2693 163.102 87.7947 163.102 88.392C163.102 88.6213 163.102 88.9093 163.102 89.256C163.102 89.6027 163.102 90.0053 163.102 90.464V94H161.374ZM165.332 94V85.504H167.044V94H165.332ZM166.196 83.744C165.897 83.744 165.639 83.664 165.42 83.504C165.207 83.3387 165.1 83.112 165.1 82.824C165.1 82.5413 165.207 82.32 165.42 82.16C165.639 81.9947 165.897 81.912 166.196 81.912C166.489 81.912 166.743 81.9947 166.956 82.16C167.175 82.32 167.284 82.5413 167.284 82.824C167.284 83.112 167.175 83.3387 166.956 83.504C166.743 83.664 166.489 83.744 166.196 83.744ZM175.403 94V90.08C175.403 89.8507 175.403 89.656 175.403 89.496C175.403 89.336 175.403 89.1867 175.403 89.048C175.403 88.632 175.339 88.2667 175.211 87.952C175.083 87.632 174.872 87.384 174.579 87.208C174.285 87.0267 173.893 86.936 173.403 86.936C172.971 86.936 172.579 87.0427 172.227 87.256C171.88 87.4693 171.603 87.76 171.395 88.128C171.192 88.4907 171.091 88.904 171.091 89.368L170.347 89C170.347 88.312 170.509 87.696 170.835 87.152C171.16 86.6027 171.595 86.168 172.139 85.848C172.688 85.528 173.288 85.368 173.939 85.368C174.611 85.368 175.184 85.4987 175.659 85.76C176.139 86.016 176.504 86.384 176.755 86.864C177.011 87.3387 177.139 87.9067 177.139 88.568C177.139 88.8133 177.139 89.0853 177.139 89.384C177.139 89.6827 177.139 89.9707 177.139 90.248V94H175.403ZM169.355 94V85.504H171.091V94H169.355ZM184.9 93.32C185.38 93.3627 185.801 93.4533 186.164 93.592C186.526 93.7253 186.809 93.9227 187.012 94.184C187.22 94.4507 187.324 94.8 187.324 95.232C187.324 95.7173 187.158 96.1387 186.828 96.496C186.502 96.8587 186.014 97.1387 185.364 97.336C184.713 97.5387 183.905 97.64 182.94 97.64C181.558 97.64 180.505 97.44 179.78 97.04C179.054 96.64 178.692 96.096 178.692 95.408C178.692 95.2 178.716 95.016 178.764 94.856C178.812 94.696 178.87 94.5627 178.94 94.456L180.556 94.696C180.518 94.7493 180.481 94.8267 180.444 94.928C180.406 95.0347 180.388 95.1627 180.388 95.312C180.388 95.6907 180.62 95.96 181.084 96.12C181.548 96.28 182.19 96.36 183.012 96.36C183.614 96.36 184.113 96.3173 184.508 96.232C184.908 96.152 185.206 96.0347 185.404 95.88C185.601 95.7253 185.7 95.544 185.7 95.336C185.7 95.0213 185.564 94.824 185.292 94.744C185.02 94.664 184.692 94.608 184.308 94.576L181.084 94.312C180.524 94.264 180.065 94.096 179.708 93.808C179.356 93.52 179.18 93.1573 179.18 92.72C179.18 92.448 179.249 92.1947 179.388 91.96C179.526 91.7253 179.686 91.528 179.868 91.368C180.054 91.208 180.214 91.1093 180.348 91.072L181.484 91.616C181.361 91.632 181.212 91.7147 181.036 91.864C180.865 92.008 180.78 92.1787 180.78 92.376C180.78 92.5573 180.854 92.7067 181.004 92.824C181.158 92.9413 181.457 93.0187 181.9 93.056L184.9 93.32ZM185.964 85.504H187.54L186.892 88.824C186.774 89.4427 186.558 90.0027 186.244 90.504C185.934 91 185.513 91.392 184.98 91.68C184.452 91.968 183.793 92.112 183.004 92.112C182.182 92.112 181.476 91.9707 180.884 91.688C180.292 91.4053 179.836 91.0133 179.516 90.512C179.201 90.0053 179.044 89.4293 179.044 88.784C179.044 88.128 179.206 87.5413 179.532 87.024C179.862 86.5067 180.316 86.1013 180.892 85.808C181.473 85.5147 182.137 85.368 182.884 85.368C183.513 85.368 184.07 85.4747 184.556 85.688C185.046 85.9013 185.436 86.1733 185.724 86.504C186.012 86.8347 186.169 87.1787 186.196 87.536L185.7 87.592L185.964 85.504ZM182.996 90.696C183.46 90.696 183.86 90.6213 184.196 90.472C184.532 90.3173 184.79 90.096 184.972 89.808C185.153 89.5147 185.244 89.1627 185.244 88.752C185.244 88.3467 185.153 88 184.972 87.712C184.79 87.4187 184.532 87.1947 184.196 87.04C183.86 86.88 183.462 86.8 183.004 86.8C182.561 86.8 182.169 86.8827 181.828 87.048C181.492 87.208 181.228 87.4347 181.036 87.728C180.844 88.0213 180.748 88.3707 180.748 88.776C180.748 89.1813 180.838 89.528 181.02 89.816C181.201 90.0987 181.46 90.3173 181.796 90.472C182.132 90.6213 182.532 90.696 182.996 90.696ZM76.0188 120V107.496H77.6668V114.992L77.2428 114.792L81.0348 111.504H83.2188L79.1068 115.144L79.5228 114.368L83.2188 120H81.3708L78.3948 115.304L78.7868 115.424L77.4508 116.608L77.6668 115.816V120H76.0188ZM90.5981 120V116.08C90.5981 115.851 90.5981 115.656 90.5981 115.496C90.5981 115.336 90.5981 115.187 90.5981 115.048C90.5981 114.632 90.5341 114.267 90.4061 113.952C90.2781 113.632 90.0674 113.384 89.7741 113.208C89.4807 113.027 89.0887 112.936 88.5981 112.936C88.1661 112.936 87.7741 113.043 87.4221 113.256C87.0754 113.469 86.7981 113.76 86.5901 114.128C86.3874 114.491 86.2861 114.904 86.2861 115.368L85.5421 115C85.5421 114.312 85.7047 113.696 86.0301 113.152C86.3554 112.603 86.7901 112.168 87.3341 111.848C87.8834 111.528 88.4834 111.368 89.1341 111.368C89.8061 111.368 90.3794 111.499 90.8541 111.76C91.3341 112.016 91.6994 112.384 91.9501 112.864C92.2061 113.339 92.3341 113.907 92.3341 114.568C92.3341 114.813 92.3341 115.085 92.3341 115.384C92.3341 115.683 92.3341 115.971 92.3341 116.248V120H90.5981ZM84.5501 120V111.504H86.2861V120H84.5501ZM98.6228 120.16C97.7481 120.16 96.9748 119.971 96.3028 119.592C95.6361 119.213 95.1135 118.693 94.7348 118.032C94.3615 117.365 94.1748 116.603 94.1748 115.744C94.1748 114.891 94.3615 114.136 94.7348 113.48C95.1135 112.819 95.6361 112.304 96.3028 111.936C96.9748 111.563 97.7481 111.376 98.6228 111.376C99.4975 111.376 100.268 111.563 100.935 111.936C101.607 112.304 102.129 112.819 102.503 113.48C102.881 114.136 103.071 114.891 103.071 115.744C103.071 116.603 102.881 117.365 102.503 118.032C102.129 118.693 101.607 119.213 100.935 119.592C100.268 119.971 99.4975 120.16 98.6228 120.16ZM98.6228 118.672C99.1561 118.672 99.6255 118.552 100.031 118.312C100.436 118.072 100.753 117.733 100.983 117.296C101.212 116.853 101.327 116.336 101.327 115.744C101.327 115.157 101.212 114.648 100.983 114.216C100.753 113.784 100.436 113.451 100.031 113.216C99.6255 112.981 99.1561 112.864 98.6228 112.864C98.0948 112.864 97.6255 112.981 97.2148 113.216C96.8095 113.451 96.4921 113.784 96.2628 114.216C96.0335 114.648 95.9188 115.157 95.9188 115.744C95.9188 116.336 96.0335 116.853 96.2628 117.296C96.4921 117.733 96.8095 118.072 97.2148 118.312C97.6255 118.552 98.0948 118.672 98.6228 118.672ZM111.648 120L109.472 111.504H110.88L112.968 119.368H112.672L114.032 111.504H115.832L114.04 120H111.648ZM105.848 120L104.048 111.504H105.848L107.224 119.368H106.92L108.992 111.504H110.4L108.256 120H105.848ZM119.195 107.496V120H117.483V107.496H119.195ZM122.135 116.36V115.008H128.391L128.151 115.408C128.151 115.376 128.151 115.344 128.151 115.312C128.151 115.275 128.151 115.243 128.151 115.216C128.151 114.784 128.057 114.387 127.871 114.024C127.684 113.656 127.404 113.363 127.031 113.144C126.663 112.92 126.201 112.808 125.647 112.808C125.092 112.808 124.604 112.928 124.183 113.168C123.767 113.403 123.441 113.739 123.207 114.176C122.977 114.608 122.863 115.128 122.863 115.736C122.863 116.355 122.975 116.888 123.199 117.336C123.423 117.779 123.745 118.12 124.167 118.36C124.588 118.6 125.092 118.72 125.679 118.72C126.089 118.72 126.444 118.68 126.743 118.6C127.047 118.515 127.295 118.403 127.487 118.264C127.684 118.125 127.833 117.976 127.935 117.816C128.036 117.651 128.095 117.488 128.111 117.328H129.839C129.807 117.675 129.692 118.019 129.495 118.36C129.303 118.696 129.028 119.003 128.671 119.28C128.319 119.552 127.887 119.771 127.375 119.936C126.868 120.096 126.284 120.176 125.623 120.176C124.737 120.176 123.961 119.989 123.295 119.616C122.628 119.243 122.108 118.725 121.735 118.064C121.361 117.397 121.175 116.635 121.175 115.776C121.175 114.901 121.364 114.133 121.743 113.472C122.121 112.811 122.647 112.296 123.319 111.928C123.991 111.555 124.761 111.368 125.631 111.368C126.516 111.368 127.281 111.555 127.927 111.928C128.577 112.301 129.079 112.816 129.431 113.472C129.783 114.128 129.959 114.883 129.959 115.736C129.959 115.837 129.956 115.955 129.951 116.088C129.945 116.221 129.937 116.312 129.927 116.36H122.135ZM135.414 120.168C134.715 120.168 134.072 120 133.486 119.664C132.899 119.323 132.43 118.821 132.078 118.16C131.726 117.499 131.55 116.691 131.55 115.736C131.55 114.803 131.728 114.011 132.086 113.36C132.443 112.709 132.915 112.216 133.502 111.88C134.088 111.539 134.726 111.368 135.414 111.368C136.075 111.368 136.688 111.528 137.254 111.848C137.824 112.168 138.283 112.613 138.63 113.184C138.976 113.749 139.15 114.403 139.15 115.144C139.15 115.165 139.15 115.187 139.15 115.208C139.15 115.224 139.15 115.24 139.15 115.256L138.142 115.288C138.142 115.272 138.142 115.256 138.142 115.24C138.142 115.219 138.142 115.2 138.142 115.184C138.142 114.741 138.03 114.349 137.806 114.008C137.582 113.661 137.286 113.389 136.918 113.192C136.555 112.989 136.168 112.888 135.758 112.888C135.07 112.888 134.494 113.12 134.03 113.584C133.566 114.043 133.334 114.76 133.334 115.736C133.334 116.707 133.566 117.427 134.03 117.896C134.499 118.36 135.075 118.592 135.758 118.592C136.184 118.592 136.579 118.491 136.942 118.288C137.304 118.08 137.595 117.797 137.814 117.44C138.032 117.083 138.142 116.675 138.142 116.216L139.15 116.256C139.15 116.992 138.982 117.656 138.646 118.248C138.315 118.84 137.867 119.309 137.302 119.656C136.742 119.997 136.112 120.168 135.414 120.168ZM138.142 120V107.496H139.886V120H138.142ZM147.689 119.32C148.169 119.363 148.59 119.453 148.953 119.592C149.315 119.725 149.598 119.923 149.801 120.184C150.009 120.451 150.113 120.8 150.113 121.232C150.113 121.717 149.947 122.139 149.617 122.496C149.291 122.859 148.803 123.139 148.153 123.336C147.502 123.539 146.694 123.64 145.729 123.64C144.347 123.64 143.294 123.44 142.569 123.04C141.843 122.64 141.481 122.096 141.481 121.408C141.481 121.2 141.505 121.016 141.553 120.856C141.601 120.696 141.659 120.563 141.729 120.456L143.345 120.696C143.307 120.749 143.27 120.827 143.233 120.928C143.195 121.035 143.177 121.163 143.177 121.312C143.177 121.691 143.409 121.96 143.873 122.12C144.337 122.28 144.979 122.36 145.801 122.36C146.403 122.36 146.902 122.317 147.297 122.232C147.697 122.152 147.995 122.035 148.193 121.88C148.39 121.725 148.489 121.544 148.489 121.336C148.489 121.021 148.353 120.824 148.081 120.744C147.809 120.664 147.481 120.608 147.097 120.576L143.873 120.312C143.313 120.264 142.854 120.096 142.497 119.808C142.145 119.52 141.969 119.157 141.969 118.72C141.969 118.448 142.038 118.195 142.177 117.96C142.315 117.725 142.475 117.528 142.657 117.368C142.843 117.208 143.003 117.109 143.137 117.072L144.273 117.616C144.15 117.632 144.001 117.715 143.825 117.864C143.654 118.008 143.569 118.179 143.569 118.376C143.569 118.557 143.643 118.707 143.793 118.824C143.947 118.941 144.246 119.019 144.689 119.056L147.689 119.32ZM148.753 111.504H150.329L149.681 114.824C149.563 115.443 149.347 116.003 149.033 116.504C148.723 117 148.302 117.392 147.769 117.68C147.241 117.968 146.582 118.112 145.793 118.112C144.971 118.112 144.265 117.971 143.673 117.688C143.081 117.405 142.625 117.013 142.305 116.512C141.99 116.005 141.833 115.429 141.833 114.784C141.833 114.128 141.995 113.541 142.321 113.024C142.651 112.507 143.105 112.101 143.681 111.808C144.262 111.515 144.926 111.368 145.673 111.368C146.302 111.368 146.859 111.475 147.345 111.688C147.835 111.901 148.225 112.173 148.513 112.504C148.801 112.835 148.958 113.179 148.985 113.536L148.489 113.592L148.753 111.504ZM145.785 116.696C146.249 116.696 146.649 116.621 146.985 116.472C147.321 116.317 147.579 116.096 147.761 115.808C147.942 115.515 148.033 115.163 148.033 114.752C148.033 114.347 147.942 114 147.761 113.712C147.579 113.419 147.321 113.195 146.985 113.04C146.649 112.88 146.251 112.8 145.793 112.8C145.35 112.8 144.958 112.883 144.617 113.048C144.281 113.208 144.017 113.435 143.825 113.728C143.633 114.021 143.537 114.371 143.537 114.776C143.537 115.181 143.627 115.528 143.809 115.816C143.99 116.099 144.249 116.317 144.585 116.472C144.921 116.621 145.321 116.696 145.785 116.696ZM152.213 116.36V115.008H158.469L158.229 115.408C158.229 115.376 158.229 115.344 158.229 115.312C158.229 115.275 158.229 115.243 158.229 115.216C158.229 114.784 158.136 114.387 157.949 114.024C157.762 113.656 157.482 113.363 157.109 113.144C156.741 112.92 156.28 112.808 155.725 112.808C155.17 112.808 154.682 112.928 154.261 113.168C153.845 113.403 153.52 113.739 153.285 114.176C153.056 114.608 152.941 115.128 152.941 115.736C152.941 116.355 153.053 116.888 153.277 117.336C153.501 117.779 153.824 118.12 154.245 118.36C154.666 118.6 155.17 118.72 155.757 118.72C156.168 118.72 156.522 118.68 156.821 118.6C157.125 118.515 157.373 118.403 157.565 118.264C157.762 118.125 157.912 117.976 158.013 117.816C158.114 117.651 158.173 117.488 158.189 117.328H159.917C159.885 117.675 159.77 118.019 159.573 118.36C159.381 118.696 159.106 119.003 158.749 119.28C158.397 119.552 157.965 119.771 157.453 119.936C156.946 120.096 156.362 120.176 155.701 120.176C154.816 120.176 154.04 119.989 153.373 119.616C152.706 119.243 152.186 118.725 151.813 118.064C151.44 117.397 151.253 116.635 151.253 115.776C151.253 114.901 151.442 114.133 151.821 113.472C152.2 112.811 152.725 112.296 153.397 111.928C154.069 111.555 154.84 111.368 155.709 111.368C156.594 111.368 157.36 111.555 158.005 111.928C158.656 112.301 159.157 112.816 159.509 113.472C159.861 114.128 160.037 114.883 160.037 115.736C160.037 115.837 160.034 115.955 160.029 116.088C160.024 116.221 160.016 116.312 160.005 116.36H152.213ZM165.996 120V111.504H167.708V120H165.996ZM166.86 109.744C166.561 109.744 166.303 109.664 166.084 109.504C165.871 109.339 165.764 109.112 165.764 108.824C165.764 108.541 165.871 108.32 166.084 108.16C166.303 107.995 166.561 107.912 166.86 107.912C167.153 107.912 167.407 107.995 167.62 108.16C167.839 108.32 167.948 108.541 167.948 108.824C167.948 109.112 167.839 109.339 167.62 109.504C167.407 109.664 167.153 109.744 166.86 109.744ZM176.067 120V116.08C176.067 115.851 176.067 115.656 176.067 115.496C176.067 115.336 176.067 115.187 176.067 115.048C176.067 114.632 176.003 114.267 175.875 113.952C175.747 113.632 175.536 113.384 175.243 113.208C174.949 113.027 174.557 112.936 174.067 112.936C173.635 112.936 173.243 113.043 172.891 113.256C172.544 113.469 172.267 113.76 172.059 114.128C171.856 114.491 171.755 114.904 171.755 115.368L171.011 115C171.011 114.312 171.173 113.696 171.499 113.152C171.824 112.603 172.259 112.168 172.803 111.848C173.352 111.528 173.952 111.368 174.603 111.368C175.275 111.368 175.848 111.499 176.323 111.76C176.803 112.016 177.168 112.384 177.419 112.864C177.675 113.339 177.803 113.907 177.803 114.568C177.803 114.813 177.803 115.085 177.803 115.384C177.803 115.683 177.803 115.971 177.803 116.248V120H176.067ZM170.019 120V111.504H171.755V120H170.019ZM183.401 120.144C183.118 120.144 182.835 120.115 182.553 120.056C182.275 119.997 182.019 119.891 181.785 119.736C181.555 119.576 181.371 119.349 181.233 119.056C181.094 118.763 181.025 118.379 181.025 117.904C181.025 117.792 181.025 117.675 181.025 117.552C181.025 117.429 181.025 117.304 181.025 117.176V112.944H178.985V111.504H180.057C180.286 111.504 180.465 111.496 180.593 111.48C180.726 111.459 180.822 111.413 180.881 111.344C180.945 111.269 180.985 111.152 181.001 110.992C181.017 110.832 181.025 110.613 181.025 110.336V108.696H182.761V111.504H185.361V112.944H182.761V116.712C182.761 116.819 182.761 116.925 182.761 117.032C182.761 117.139 182.761 117.237 182.761 117.328C182.761 117.755 182.811 118.091 182.913 118.336C183.019 118.581 183.259 118.704 183.633 118.704C183.793 118.704 183.945 118.691 184.089 118.664C184.233 118.637 184.342 118.608 184.417 118.576V119.992C184.321 120.029 184.185 120.064 184.009 120.096C183.833 120.128 183.63 120.144 183.401 120.144ZM190.873 120.16C189.998 120.16 189.225 119.971 188.553 119.592C187.886 119.213 187.363 118.693 186.985 118.032C186.611 117.365 186.425 116.603 186.425 115.744C186.425 114.891 186.611 114.136 186.985 113.48C187.363 112.819 187.886 112.304 188.553 111.936C189.225 111.563 189.998 111.376 190.873 111.376C191.747 111.376 192.518 111.563 193.185 111.936C193.857 112.304 194.379 112.819 194.753 113.48C195.131 114.136 195.321 114.891 195.321 115.744C195.321 116.603 195.131 117.365 194.753 118.032C194.379 118.693 193.857 119.213 193.185 119.592C192.518 119.971 191.747 120.16 190.873 120.16ZM190.873 118.672C191.406 118.672 191.875 118.552 192.281 118.312C192.686 118.072 193.003 117.733 193.233 117.296C193.462 116.853 193.577 116.336 193.577 115.744C193.577 115.157 193.462 114.648 193.233 114.216C193.003 113.784 192.686 113.451 192.281 113.216C191.875 112.981 191.406 112.864 190.873 112.864C190.345 112.864 189.875 112.981 189.465 113.216C189.059 113.451 188.742 113.784 188.513 114.216C188.283 114.648 188.169 115.157 188.169 115.744C188.169 116.336 188.283 116.853 188.513 117.296C188.742 117.733 189.059 118.072 189.465 118.312C189.875 118.552 190.345 118.672 190.873 118.672ZM55.3769 146.168C54.7369 146.168 54.1742 146.067 53.6889 145.864C53.2089 145.661 52.8355 145.371 52.5689 144.992C52.3022 144.613 52.1689 144.157 52.1689 143.624C52.1689 143.053 52.3182 142.581 52.6169 142.208C52.9209 141.835 53.3369 141.547 53.8649 141.344C54.3982 141.136 55.0035 141 55.6809 140.936C56.6889 140.835 57.3982 140.736 57.8089 140.64C58.2249 140.544 58.4329 140.387 58.4329 140.168C58.4329 140.163 58.4329 140.157 58.4329 140.152C58.4329 139.72 58.2489 139.392 57.8809 139.168C57.5129 138.944 56.9875 138.832 56.3049 138.832C55.5849 138.832 55.0275 138.96 54.6329 139.216C54.2435 139.467 54.0489 139.867 54.0489 140.416H52.3449C52.3449 139.765 52.5129 139.213 52.8489 138.76C53.1902 138.307 53.6595 137.963 54.2569 137.728C54.8542 137.488 55.5395 137.368 56.3129 137.368C57.0222 137.368 57.6675 137.477 58.2489 137.696C58.8355 137.909 59.3022 138.229 59.6489 138.656C59.9955 139.083 60.1689 139.613 60.1689 140.248C60.1689 140.36 60.1689 140.472 60.1689 140.584C60.1689 140.691 60.1689 140.8 60.1689 140.912V144.304C60.1689 144.501 60.1769 144.693 60.1929 144.88C60.2089 145.061 60.2382 145.224 60.2809 145.368C60.3289 145.533 60.3849 145.669 60.4489 145.776C60.5182 145.883 60.5742 145.957 60.6169 146H58.8889C58.8569 145.968 58.8089 145.901 58.7449 145.8C58.6862 145.693 58.6329 145.571 58.5849 145.432C58.5369 145.299 58.4995 145.147 58.4729 144.976C58.4515 144.8 58.4409 144.611 58.4409 144.408L58.7609 144.632C58.6009 144.941 58.3582 145.211 58.0329 145.44C57.7129 145.669 57.3262 145.848 56.8729 145.976C56.4249 146.104 55.9262 146.168 55.3769 146.168ZM55.7369 144.728C56.2329 144.728 56.6835 144.651 57.0889 144.496C57.4995 144.336 57.8275 144.096 58.0729 143.776C58.3182 143.451 58.4409 143.043 58.4409 142.552V141.144L58.8489 141.68C58.5075 141.813 58.0889 141.923 57.5929 142.008C57.1022 142.088 56.5955 142.155 56.0729 142.208C55.3529 142.272 54.8115 142.397 54.4489 142.584C54.0862 142.765 53.9049 143.069 53.9049 143.496C53.9049 143.907 54.0542 144.216 54.3529 144.424C54.6569 144.627 55.1182 144.728 55.7369 144.728ZM66.3966 146.168C65.5433 146.168 64.778 145.989 64.1006 145.632C63.4286 145.269 62.898 144.755 62.5086 144.088C62.1246 143.421 61.9326 142.637 61.9326 141.736C61.9326 140.835 62.1246 140.059 62.5086 139.408C62.898 138.752 63.4286 138.248 64.1006 137.896C64.778 137.544 65.5433 137.368 66.3966 137.368C67.042 137.368 67.6153 137.467 68.1166 137.664C68.618 137.856 69.042 138.112 69.3886 138.432C69.7353 138.752 69.9993 139.104 70.1806 139.488C70.362 139.872 70.4526 140.256 70.4526 140.64C70.4526 140.645 70.4526 140.653 70.4526 140.664C70.4526 140.675 70.4526 140.685 70.4526 140.696H68.7326C68.7326 140.669 68.73 140.64 68.7246 140.608C68.7193 140.571 68.714 140.536 68.7086 140.504C68.666 140.189 68.5433 139.909 68.3406 139.664C68.138 139.419 67.8713 139.224 67.5406 139.08C67.21 138.936 66.8233 138.864 66.3806 138.864C65.8953 138.864 65.4473 138.971 65.0366 139.184C64.6313 139.392 64.306 139.709 64.0606 140.136C63.8153 140.563 63.6926 141.096 63.6926 141.736C63.6926 142.376 63.8126 142.915 64.0526 143.352C64.298 143.784 64.6233 144.112 65.0286 144.336C65.4393 144.56 65.89 144.672 66.3806 144.672C66.9086 144.672 67.3406 144.592 67.6766 144.432C68.0126 144.267 68.266 144.048 68.4366 143.776C68.6073 143.499 68.706 143.2 68.7326 142.88H70.4526C70.4526 143.264 70.3646 143.653 70.1886 144.048C70.0126 144.437 69.754 144.792 69.4126 145.112C69.0713 145.432 68.6473 145.688 68.1406 145.88C67.6393 146.072 67.058 146.168 66.3966 146.168ZM75.8618 146.144C75.5791 146.144 75.2964 146.115 75.0138 146.056C74.7364 145.997 74.4804 145.891 74.2458 145.736C74.0164 145.576 73.8324 145.349 73.6938 145.056C73.5551 144.763 73.4858 144.379 73.4858 143.904C73.4858 143.792 73.4858 143.675 73.4858 143.552C73.4858 143.429 73.4858 143.304 73.4858 143.176V138.944H71.4458V137.504H72.5178C72.7471 137.504 72.9258 137.496 73.0538 137.48C73.1871 137.459 73.2831 137.413 73.3418 137.344C73.4058 137.269 73.4458 137.152 73.4618 136.992C73.4778 136.832 73.4858 136.613 73.4858 136.336V134.696H75.2218V137.504H77.8218V138.944H75.2218V142.712C75.2218 142.819 75.2218 142.925 75.2218 143.032C75.2218 143.139 75.2218 143.237 75.2218 143.328C75.2218 143.755 75.2724 144.091 75.3738 144.336C75.4804 144.581 75.7204 144.704 76.0938 144.704C76.2538 144.704 76.4058 144.691 76.5498 144.664C76.6938 144.637 76.8031 144.608 76.8778 144.576V145.992C76.7818 146.029 76.6458 146.064 76.4698 146.096C76.2938 146.128 76.0911 146.144 75.8618 146.144ZM79.5038 146V137.504H81.2158V146H79.5038ZM80.3678 135.744C80.0691 135.744 79.8104 135.664 79.5918 135.504C79.3784 135.339 79.2718 135.112 79.2718 134.824C79.2718 134.541 79.3784 134.32 79.5918 134.16C79.8104 133.995 80.0691 133.912 80.3678 133.912C80.6611 133.912 80.9144 133.995 81.1278 134.16C81.3464 134.32 81.4558 134.541 81.4558 134.824C81.4558 135.112 81.3464 135.339 81.1278 135.504C80.9144 135.664 80.6611 135.744 80.3678 135.744ZM87.6306 146.16C86.756 146.16 85.9826 145.971 85.3106 145.592C84.644 145.213 84.1213 144.693 83.7426 144.032C83.3693 143.365 83.1826 142.603 83.1826 141.744C83.1826 140.891 83.3693 140.136 83.7426 139.48C84.1213 138.819 84.644 138.304 85.3106 137.936C85.9826 137.563 86.756 137.376 87.6306 137.376C88.5053 137.376 89.276 137.563 89.9426 137.936C90.6146 138.304 91.1373 138.819 91.5106 139.48C91.8893 140.136 92.0786 140.891 92.0786 141.744C92.0786 142.603 91.8893 143.365 91.5106 144.032C91.1373 144.693 90.6146 145.213 89.9426 145.592C89.276 145.971 88.5053 146.16 87.6306 146.16ZM87.6306 144.672C88.164 144.672 88.6333 144.552 89.0386 144.312C89.444 144.072 89.7613 143.733 89.9906 143.296C90.22 142.853 90.3346 142.336 90.3346 141.744C90.3346 141.157 90.22 140.648 89.9906 140.216C89.7613 139.784 89.444 139.451 89.0386 139.216C88.6333 138.981 88.164 138.864 87.6306 138.864C87.1026 138.864 86.6333 138.981 86.2226 139.216C85.8173 139.451 85.5 139.784 85.2706 140.216C85.0413 140.648 84.9266 141.157 84.9266 141.744C84.9266 142.336 85.0413 142.853 85.2706 143.296C85.5 143.733 85.8173 144.072 86.2226 144.312C86.6333 144.552 87.1026 144.672 87.6306 144.672ZM100.059 146V142.08C100.059 141.851 100.059 141.656 100.059 141.496C100.059 141.336 100.059 141.187 100.059 141.048C100.059 140.632 99.995 140.267 99.867 139.952C99.739 139.632 99.5283 139.384 99.235 139.208C98.9417 139.027 98.5497 138.936 98.059 138.936C97.627 138.936 97.235 139.043 96.883 139.256C96.5363 139.469 96.259 139.76 96.051 140.128C95.8483 140.491 95.747 140.904 95.747 141.368L95.003 141C95.003 140.312 95.1657 139.696 95.491 139.152C95.8163 138.603 96.251 138.168 96.795 137.848C97.3443 137.528 97.9443 137.368 98.595 137.368C99.267 137.368 99.8403 137.499 100.315 137.76C100.795 138.016 101.16 138.384 101.411 138.864C101.667 139.339 101.795 139.907 101.795 140.568C101.795 140.813 101.795 141.085 101.795 141.384C101.795 141.683 101.795 141.971 101.795 142.248V146H100.059ZM94.011 146V137.504H95.747V146H94.011ZM106.924 146.168C106.284 146.168 105.721 146.067 105.236 145.864C104.756 145.661 104.382 145.371 104.116 144.992C103.849 144.613 103.716 144.157 103.716 143.624C103.716 143.053 103.865 142.581 104.164 142.208C104.468 141.835 104.884 141.547 105.412 141.344C105.945 141.136 106.55 141 107.228 140.936C108.236 140.835 108.945 140.736 109.356 140.64C109.772 140.544 109.98 140.387 109.98 140.168C109.98 140.163 109.98 140.157 109.98 140.152C109.98 139.72 109.796 139.392 109.428 139.168C109.06 138.944 108.534 138.832 107.852 138.832C107.132 138.832 106.574 138.96 106.18 139.216C105.79 139.467 105.596 139.867 105.596 140.416H103.892C103.892 139.765 104.06 139.213 104.396 138.76C104.737 138.307 105.206 137.963 105.804 137.728C106.401 137.488 107.086 137.368 107.86 137.368C108.569 137.368 109.214 137.477 109.796 137.696C110.382 137.909 110.849 138.229 111.196 138.656C111.542 139.083 111.716 139.613 111.716 140.248C111.716 140.36 111.716 140.472 111.716 140.584C111.716 140.691 111.716 140.8 111.716 140.912V144.304C111.716 144.501 111.724 144.693 111.74 144.88C111.756 145.061 111.785 145.224 111.828 145.368C111.876 145.533 111.932 145.669 111.996 145.776C112.065 145.883 112.121 145.957 112.164 146H110.436C110.404 145.968 110.356 145.901 110.292 145.8C110.233 145.693 110.18 145.571 110.132 145.432C110.084 145.299 110.046 145.147 110.02 144.976C109.998 144.8 109.988 144.611 109.988 144.408L110.308 144.632C110.148 144.941 109.905 145.211 109.58 145.44C109.26 145.669 108.873 145.848 108.42 145.976C107.972 146.104 107.473 146.168 106.924 146.168ZM107.284 144.728C107.78 144.728 108.23 144.651 108.636 144.496C109.046 144.336 109.374 144.096 109.62 143.776C109.865 143.451 109.988 143.043 109.988 142.552V141.144L110.396 141.68C110.054 141.813 109.636 141.923 109.14 142.008C108.649 142.088 108.142 142.155 107.62 142.208C106.9 142.272 106.358 142.397 105.996 142.584C105.633 142.765 105.452 143.069 105.452 143.496C105.452 143.907 105.601 144.216 105.9 144.424C106.204 144.627 106.665 144.728 107.284 144.728ZM118.296 146.168C117.634 146.168 117.021 146.003 116.456 145.672C115.89 145.336 115.432 144.877 115.08 144.296C114.733 143.715 114.56 143.056 114.56 142.32C114.56 142.299 114.56 142.283 114.56 142.272C114.56 142.256 114.56 142.24 114.56 142.224L115.568 142.2C115.568 142.211 115.568 142.224 115.568 142.24C115.568 142.251 115.568 142.264 115.568 142.28C115.568 142.717 115.68 143.112 115.904 143.464C116.133 143.811 116.429 144.085 116.792 144.288C117.154 144.491 117.544 144.592 117.96 144.592C118.642 144.592 119.216 144.36 119.68 143.896C120.149 143.427 120.384 142.707 120.384 141.736C120.384 140.76 120.152 140.043 119.688 139.584C119.224 139.12 118.648 138.888 117.96 138.888C117.544 138.888 117.154 138.989 116.792 139.192C116.429 139.389 116.133 139.661 115.904 140.008C115.68 140.349 115.568 140.741 115.568 141.184L114.56 141.144C114.56 140.403 114.733 139.749 115.08 139.184C115.432 138.613 115.89 138.168 116.456 137.848C117.021 137.528 117.634 137.368 118.296 137.368C118.984 137.368 119.621 137.539 120.208 137.88C120.794 138.216 121.266 138.709 121.624 139.36C121.986 140.011 122.168 140.803 122.168 141.736C122.168 142.691 121.992 143.499 121.64 144.16C121.288 144.821 120.818 145.323 120.232 145.664C119.645 146 119 146.168 118.296 146.168ZM113.824 146V133.496H115.568V146H113.824ZM125.921 133.496V146H124.209V133.496H125.921ZM128.861 142.36V141.008H135.117L134.877 141.408C134.877 141.376 134.877 141.344 134.877 141.312C134.877 141.275 134.877 141.243 134.877 141.216C134.877 140.784 134.784 140.387 134.597 140.024C134.411 139.656 134.131 139.363 133.757 139.144C133.389 138.92 132.928 138.808 132.373 138.808C131.819 138.808 131.331 138.928 130.909 139.168C130.493 139.403 130.168 139.739 129.933 140.176C129.704 140.608 129.589 141.128 129.589 141.736C129.589 142.355 129.701 142.888 129.925 143.336C130.149 143.779 130.472 144.12 130.893 144.36C131.315 144.6 131.819 144.72 132.405 144.72C132.816 144.72 133.171 144.68 133.469 144.6C133.773 144.515 134.021 144.403 134.213 144.264C134.411 144.125 134.56 143.976 134.661 143.816C134.763 143.651 134.821 143.488 134.837 143.328H136.565C136.533 143.675 136.419 144.019 136.221 144.36C136.029 144.696 135.755 145.003 135.397 145.28C135.045 145.552 134.613 145.771 134.101 145.936C133.595 146.096 133.011 146.176 132.349 146.176C131.464 146.176 130.688 145.989 130.021 145.616C129.355 145.243 128.835 144.725 128.461 144.064C128.088 143.397 127.901 142.635 127.901 141.776C127.901 140.901 128.091 140.133 128.469 139.472C128.848 138.811 129.373 138.296 130.045 137.928C130.717 137.555 131.488 137.368 132.357 137.368C133.243 137.368 134.008 137.555 134.653 137.928C135.304 138.301 135.805 138.816 136.157 139.472C136.509 140.128 136.685 140.883 136.685 141.736C136.685 141.837 136.683 141.955 136.677 142.088C136.672 142.221 136.664 142.312 136.653 142.36H128.861ZM138.892 148.304L138.636 147.848C138.85 147.752 139.066 147.6 139.284 147.392C139.503 147.184 139.687 146.957 139.836 146.712C139.991 146.472 140.068 146.248 140.068 146.04C140.068 145.976 140.06 145.915 140.044 145.856C140.028 145.792 140.004 145.736 139.972 145.688H140.412C140.343 145.859 140.223 145.989 140.052 146.08C139.887 146.171 139.706 146.216 139.508 146.216C139.226 146.216 138.978 146.128 138.764 145.952C138.556 145.776 138.452 145.523 138.452 145.192C138.452 144.872 138.564 144.613 138.788 144.416C139.012 144.219 139.303 144.12 139.66 144.12C140.044 144.12 140.348 144.243 140.572 144.488C140.796 144.728 140.908 145.056 140.908 145.472C140.908 145.883 140.804 146.28 140.596 146.664C140.394 147.048 140.138 147.381 139.828 147.664C139.519 147.952 139.207 148.165 138.892 148.304ZM150.496 146.168C149.989 146.168 149.512 146.112 149.064 146C148.616 145.888 148.221 145.725 147.88 145.512C147.544 145.293 147.28 145.024 147.088 144.704C146.901 144.384 146.808 144.013 146.808 143.592C146.808 143.555 146.808 143.517 146.808 143.48C146.808 143.437 146.808 143.403 146.808 143.376H148.536C148.536 143.403 148.536 143.427 148.536 143.448C148.536 143.469 148.536 143.499 148.536 143.536C148.536 143.925 148.714 144.221 149.072 144.424C149.434 144.621 149.925 144.72 150.544 144.72C150.906 144.72 151.237 144.683 151.536 144.608C151.84 144.533 152.08 144.419 152.256 144.264C152.437 144.109 152.528 143.912 152.528 143.672C152.528 143.283 152.336 143.005 151.952 142.84C151.573 142.675 150.997 142.528 150.224 142.4C149.802 142.325 149.394 142.229 149 142.112C148.61 141.995 148.258 141.84 147.944 141.648C147.634 141.451 147.386 141.208 147.2 140.92C147.018 140.627 146.928 140.275 146.928 139.864C146.928 139.331 147.088 138.877 147.408 138.504C147.728 138.131 148.16 137.848 148.704 137.656C149.248 137.464 149.848 137.368 150.504 137.368C151.138 137.368 151.725 137.472 152.264 137.68C152.808 137.883 153.245 138.179 153.576 138.568C153.906 138.952 154.072 139.424 154.072 139.984C154.072 140.005 154.072 140.029 154.072 140.056C154.072 140.083 154.072 140.107 154.072 140.128H152.352C152.352 140.107 152.352 140.088 152.352 140.072C152.352 140.056 152.352 140.037 152.352 140.016C152.352 139.739 152.264 139.512 152.088 139.336C151.912 139.16 151.682 139.029 151.4 138.944C151.122 138.853 150.826 138.808 150.512 138.808C150.224 138.808 149.933 138.84 149.64 138.904C149.352 138.963 149.112 139.067 148.92 139.216C148.728 139.36 148.632 139.557 148.632 139.808C148.632 140.064 148.725 140.269 148.912 140.424C149.098 140.573 149.362 140.699 149.704 140.8C150.045 140.896 150.442 140.984 150.896 141.064C151.312 141.139 151.717 141.235 152.112 141.352C152.506 141.464 152.861 141.613 153.176 141.8C153.496 141.987 153.749 142.227 153.936 142.52C154.128 142.813 154.224 143.173 154.224 143.6C154.224 144.043 154.122 144.424 153.92 144.744C153.717 145.064 153.44 145.331 153.088 145.544C152.741 145.752 152.344 145.907 151.896 146.008C151.453 146.115 150.986 146.168 150.496 146.168ZM159.627 146.144C159.345 146.144 159.062 146.115 158.779 146.056C158.502 145.997 158.246 145.891 158.011 145.736C157.782 145.576 157.598 145.349 157.459 145.056C157.321 144.763 157.251 144.379 157.251 143.904C157.251 143.792 157.251 143.675 157.251 143.552C157.251 143.429 157.251 143.304 157.251 143.176V138.944H155.211V137.504H156.283C156.513 137.504 156.691 137.496 156.819 137.48C156.953 137.459 157.049 137.413 157.107 137.344C157.171 137.269 157.211 137.152 157.227 136.992C157.243 136.832 157.251 136.613 157.251 136.336V134.696H158.987V137.504H161.587V138.944H158.987V142.712C158.987 142.819 158.987 142.925 158.987 143.032C158.987 143.139 158.987 143.237 158.987 143.328C158.987 143.755 159.038 144.091 159.139 144.336C159.246 144.581 159.486 144.704 159.859 144.704C160.019 144.704 160.171 144.691 160.315 144.664C160.459 144.637 160.569 144.608 160.643 144.576V145.992C160.547 146.029 160.411 146.064 160.235 146.096C160.059 146.128 159.857 146.144 159.627 146.144ZM163.245 146V137.504H164.981V140.216L164.517 140.008C164.555 139.661 164.643 139.331 164.781 139.016C164.92 138.701 165.104 138.421 165.333 138.176C165.568 137.925 165.856 137.728 166.197 137.584C166.539 137.44 166.933 137.368 167.381 137.368C167.723 137.368 167.997 137.395 168.205 137.448C168.419 137.501 168.549 137.544 168.597 137.576L168.229 139.208C168.176 139.171 168.067 139.123 167.901 139.064C167.741 139.005 167.517 138.976 167.229 138.976C166.792 138.976 166.429 139.053 166.141 139.208C165.853 139.363 165.624 139.568 165.453 139.824C165.283 140.08 165.16 140.36 165.085 140.664C165.016 140.963 164.981 141.264 164.981 141.568V146H163.245ZM172.783 146.168C172.143 146.168 171.58 146.067 171.095 145.864C170.615 145.661 170.242 145.371 169.975 144.992C169.708 144.613 169.575 144.157 169.575 143.624C169.575 143.053 169.724 142.581 170.023 142.208C170.327 141.835 170.743 141.547 171.271 141.344C171.804 141.136 172.41 141 173.087 140.936C174.095 140.835 174.804 140.736 175.215 140.64C175.631 140.544 175.839 140.387 175.839 140.168C175.839 140.163 175.839 140.157 175.839 140.152C175.839 139.72 175.655 139.392 175.287 139.168C174.919 138.944 174.394 138.832 173.711 138.832C172.991 138.832 172.434 138.96 172.039 139.216C171.65 139.467 171.455 139.867 171.455 140.416H169.751C169.751 139.765 169.919 139.213 170.255 138.76C170.596 138.307 171.066 137.963 171.663 137.728C172.26 137.488 172.946 137.368 173.719 137.368C174.428 137.368 175.074 137.477 175.655 137.696C176.242 137.909 176.708 138.229 177.055 138.656C177.402 139.083 177.575 139.613 177.575 140.248C177.575 140.36 177.575 140.472 177.575 140.584C177.575 140.691 177.575 140.8 177.575 140.912V144.304C177.575 144.501 177.583 144.693 177.599 144.88C177.615 145.061 177.644 145.224 177.687 145.368C177.735 145.533 177.791 145.669 177.855 145.776C177.924 145.883 177.98 145.957 178.023 146H176.295C176.263 145.968 176.215 145.901 176.151 145.8C176.092 145.693 176.039 145.571 175.991 145.432C175.943 145.299 175.906 145.147 175.879 144.976C175.858 144.8 175.847 144.611 175.847 144.408L176.167 144.632C176.007 144.941 175.764 145.211 175.439 145.44C175.119 145.669 174.732 145.848 174.279 145.976C173.831 146.104 173.332 146.168 172.783 146.168ZM173.143 144.728C173.639 144.728 174.09 144.651 174.495 144.496C174.906 144.336 175.234 144.096 175.479 143.776C175.724 143.451 175.847 143.043 175.847 142.552V141.144L176.255 141.68C175.914 141.813 175.495 141.923 174.999 142.008C174.508 142.088 174.002 142.155 173.479 142.208C172.759 142.272 172.218 142.397 171.855 142.584C171.492 142.765 171.311 143.069 171.311 143.496C171.311 143.907 171.46 144.216 171.759 144.424C172.063 144.627 172.524 144.728 173.143 144.728ZM183.096 146.144C182.813 146.144 182.531 146.115 182.248 146.056C181.971 145.997 181.715 145.891 181.48 145.736C181.251 145.576 181.067 145.349 180.928 145.056C180.789 144.763 180.72 144.379 180.72 143.904C180.72 143.792 180.72 143.675 180.72 143.552C180.72 143.429 180.72 143.304 180.72 143.176V138.944H178.68V137.504H179.752C179.981 137.504 180.16 137.496 180.288 137.48C180.421 137.459 180.517 137.413 180.576 137.344C180.64 137.269 180.68 137.152 180.696 136.992C180.712 136.832 180.72 136.613 180.72 136.336V134.696H182.456V137.504H185.056V138.944H182.456V142.712C182.456 142.819 182.456 142.925 182.456 143.032C182.456 143.139 182.456 143.237 182.456 143.328C182.456 143.755 182.507 144.091 182.608 144.336C182.715 144.581 182.955 144.704 183.328 144.704C183.488 144.704 183.64 144.691 183.784 144.664C183.928 144.637 184.037 144.608 184.112 144.576V145.992C184.016 146.029 183.88 146.064 183.704 146.096C183.528 146.128 183.325 146.144 183.096 146.144ZM187.08 142.36V141.008H193.336L193.096 141.408C193.096 141.376 193.096 141.344 193.096 141.312C193.096 141.275 193.096 141.243 193.096 141.216C193.096 140.784 193.003 140.387 192.816 140.024C192.629 139.656 192.349 139.363 191.976 139.144C191.608 138.92 191.147 138.808 190.592 138.808C190.037 138.808 189.549 138.928 189.128 139.168C188.712 139.403 188.387 139.739 188.152 140.176C187.923 140.608 187.808 141.128 187.808 141.736C187.808 142.355 187.92 142.888 188.144 143.336C188.368 143.779 188.691 144.12 189.112 144.36C189.533 144.6 190.037 144.72 190.624 144.72C191.035 144.72 191.389 144.68 191.688 144.6C191.992 144.515 192.24 144.403 192.432 144.264C192.629 144.125 192.779 143.976 192.88 143.816C192.981 143.651 193.04 143.488 193.056 143.328H194.784C194.752 143.675 194.637 144.019 194.44 144.36C194.248 144.696 193.973 145.003 193.616 145.28C193.264 145.552 192.832 145.771 192.32 145.936C191.813 146.096 191.229 146.176 190.568 146.176C189.683 146.176 188.907 145.989 188.24 145.616C187.573 145.243 187.053 144.725 186.68 144.064C186.307 143.397 186.12 142.635 186.12 141.776C186.12 140.901 186.309 140.133 186.688 139.472C187.067 138.811 187.592 138.296 188.264 137.928C188.936 137.555 189.707 137.368 190.576 137.368C191.461 137.368 192.227 137.555 192.872 137.928C193.523 138.301 194.024 138.816 194.376 139.472C194.728 140.128 194.904 140.883 194.904 141.736C194.904 141.837 194.901 141.955 194.896 142.088C194.891 142.221 194.883 142.312 194.872 142.36H187.08ZM202.415 145.32C202.895 145.363 203.316 145.453 203.679 145.592C204.042 145.725 204.324 145.923 204.527 146.184C204.735 146.451 204.839 146.8 204.839 147.232C204.839 147.717 204.674 148.139 204.343 148.496C204.018 148.859 203.53 149.139 202.879 149.336C202.228 149.539 201.42 149.64 200.455 149.64C199.074 149.64 198.02 149.44 197.295 149.04C196.57 148.64 196.207 148.096 196.207 147.408C196.207 147.2 196.231 147.016 196.279 146.856C196.327 146.696 196.386 146.563 196.455 146.456L198.071 146.696C198.034 146.749 197.996 146.827 197.959 146.928C197.922 147.035 197.903 147.163 197.903 147.312C197.903 147.691 198.135 147.96 198.599 148.12C199.063 148.28 199.706 148.36 200.527 148.36C201.13 148.36 201.628 148.317 202.023 148.232C202.423 148.152 202.722 148.035 202.919 147.88C203.116 147.725 203.215 147.544 203.215 147.336C203.215 147.021 203.079 146.824 202.807 146.744C202.535 146.664 202.207 146.608 201.823 146.576L198.599 146.312C198.039 146.264 197.58 146.096 197.223 145.808C196.871 145.52 196.695 145.157 196.695 144.72C196.695 144.448 196.764 144.195 196.903 143.96C197.042 143.725 197.202 143.528 197.383 143.368C197.57 143.208 197.73 143.109 197.863 143.072L198.999 143.616C198.876 143.632 198.727 143.715 198.551 143.864C198.38 144.008 198.295 144.179 198.295 144.376C198.295 144.557 198.37 144.707 198.519 144.824C198.674 144.941 198.972 145.019 199.415 145.056L202.415 145.32ZM203.479 137.504H205.055L204.407 140.824C204.29 141.443 204.074 142.003 203.759 142.504C203.45 143 203.028 143.392 202.495 143.68C201.967 143.968 201.308 144.112 200.519 144.112C199.698 144.112 198.991 143.971 198.399 143.688C197.807 143.405 197.351 143.013 197.031 142.512C196.716 142.005 196.559 141.429 196.559 140.784C196.559 140.128 196.722 139.541 197.047 139.024C197.378 138.507 197.831 138.101 198.407 137.808C198.988 137.515 199.652 137.368 200.399 137.368C201.028 137.368 201.586 137.475 202.071 137.688C202.562 137.901 202.951 138.173 203.239 138.504C203.527 138.835 203.684 139.179 203.711 139.536L203.215 139.592L203.479 137.504ZM200.511 142.696C200.975 142.696 201.375 142.621 201.711 142.472C202.047 142.317 202.306 142.096 202.487 141.808C202.668 141.515 202.759 141.163 202.759 140.752C202.759 140.347 202.668 140 202.487 139.712C202.306 139.419 202.047 139.195 201.711 139.04C201.375 138.88 200.978 138.8 200.519 138.8C200.076 138.8 199.684 138.883 199.343 139.048C199.007 139.208 198.743 139.435 198.551 139.728C198.359 140.021 198.263 140.371 198.263 140.776C198.263 141.181 198.354 141.528 198.535 141.816C198.716 142.099 198.975 142.317 199.311 142.472C199.647 142.621 200.047 142.696 200.511 142.696ZM206.723 146V137.504H208.435V146H206.723ZM207.587 135.744C207.288 135.744 207.029 135.664 206.811 135.504C206.597 135.339 206.491 135.112 206.491 134.824C206.491 134.541 206.597 134.32 206.811 134.16C207.029 133.995 207.288 133.912 207.587 133.912C207.88 133.912 208.133 133.995 208.347 134.16C208.565 134.32 208.675 134.541 208.675 134.824C208.675 135.112 208.565 135.339 208.347 135.504C208.133 135.664 207.88 135.744 207.587 135.744ZM214.865 146.168C214.012 146.168 213.247 145.989 212.569 145.632C211.897 145.269 211.367 144.755 210.977 144.088C210.593 143.421 210.401 142.637 210.401 141.736C210.401 140.835 210.593 140.059 210.977 139.408C211.367 138.752 211.897 138.248 212.569 137.896C213.247 137.544 214.012 137.368 214.865 137.368C215.511 137.368 216.084 137.467 216.585 137.664C217.087 137.856 217.511 138.112 217.857 138.432C218.204 138.752 218.468 139.104 218.649 139.488C218.831 139.872 218.921 140.256 218.921 140.64C218.921 140.645 218.921 140.653 218.921 140.664C218.921 140.675 218.921 140.685 218.921 140.696H217.201C217.201 140.669 217.199 140.64 217.193 140.608C217.188 140.571 217.183 140.536 217.177 140.504C217.135 140.189 217.012 139.909 216.809 139.664C216.607 139.419 216.34 139.224 216.009 139.08C215.679 138.936 215.292 138.864 214.849 138.864C214.364 138.864 213.916 138.971 213.505 139.184C213.1 139.392 212.775 139.709 212.529 140.136C212.284 140.563 212.161 141.096 212.161 141.736C212.161 142.376 212.281 142.915 212.521 143.352C212.767 143.784 213.092 144.112 213.497 144.336C213.908 144.56 214.359 144.672 214.849 144.672C215.377 144.672 215.809 144.592 216.145 144.432C216.481 144.267 216.735 144.048 216.905 143.776C217.076 143.499 217.175 143.2 217.201 142.88H218.921C218.921 143.264 218.833 143.653 218.657 144.048C218.481 144.437 218.223 144.792 217.881 145.112C217.54 145.432 217.116 145.688 216.609 145.88C216.108 146.072 215.527 146.168 214.865 146.168ZM100.761 172.168C100.255 172.168 99.7773 172.112 99.3293 172C98.8813 171.888 98.4866 171.725 98.1453 171.512C97.8093 171.293 97.5453 171.024 97.3533 170.704C97.1666 170.384 97.0733 170.013 97.0733 169.592C97.0733 169.555 97.0733 169.517 97.0733 169.48C97.0733 169.437 97.0733 169.403 97.0733 169.376H98.8013C98.8013 169.403 98.8013 169.427 98.8013 169.448C98.8013 169.469 98.8013 169.499 98.8013 169.536C98.8013 169.925 98.9799 170.221 99.3373 170.424C99.6999 170.621 100.191 170.72 100.809 170.72C101.172 170.72 101.503 170.683 101.801 170.608C102.105 170.533 102.345 170.419 102.521 170.264C102.703 170.109 102.793 169.912 102.793 169.672C102.793 169.283 102.601 169.005 102.217 168.84C101.839 168.675 101.263 168.528 100.489 168.4C100.068 168.325 99.6599 168.229 99.2653 168.112C98.8759 167.995 98.5239 167.84 98.2093 167.648C97.8999 167.451 97.6519 167.208 97.4653 166.92C97.2839 166.627 97.1933 166.275 97.1933 165.864C97.1933 165.331 97.3533 164.877 97.6733 164.504C97.9933 164.131 98.4253 163.848 98.9693 163.656C99.5133 163.464 100.113 163.368 100.769 163.368C101.404 163.368 101.991 163.472 102.529 163.68C103.073 163.883 103.511 164.179 103.841 164.568C104.172 164.952 104.337 165.424 104.337 165.984C104.337 166.005 104.337 166.029 104.337 166.056C104.337 166.083 104.337 166.107 104.337 166.128H102.617C102.617 166.107 102.617 166.088 102.617 166.072C102.617 166.056 102.617 166.037 102.617 166.016C102.617 165.739 102.529 165.512 102.353 165.336C102.177 165.16 101.948 165.029 101.665 164.944C101.388 164.853 101.092 164.808 100.777 164.808C100.489 164.808 100.199 164.84 99.9053 164.904C99.6173 164.963 99.3773 165.067 99.1853 165.216C98.9933 165.36 98.8973 165.557 98.8973 165.808C98.8973 166.064 98.9906 166.269 99.1773 166.424C99.3639 166.573 99.6279 166.699 99.9693 166.8C100.311 166.896 100.708 166.984 101.161 167.064C101.577 167.139 101.983 167.235 102.377 167.352C102.772 167.464 103.127 167.613 103.441 167.8C103.761 167.987 104.015 168.227 104.201 168.52C104.393 168.813 104.489 169.173 104.489 169.6C104.489 170.043 104.388 170.424 104.185 170.744C103.983 171.064 103.705 171.331 103.353 171.544C103.007 171.752 102.609 171.907 102.161 172.008C101.719 172.115 101.252 172.168 100.761 172.168ZM110.506 172.16C109.631 172.16 108.858 171.971 108.186 171.592C107.519 171.213 106.996 170.693 106.618 170.032C106.244 169.365 106.058 168.603 106.058 167.744C106.058 166.891 106.244 166.136 106.618 165.48C106.996 164.819 107.519 164.304 108.186 163.936C108.858 163.563 109.631 163.376 110.506 163.376C111.38 163.376 112.151 163.563 112.818 163.936C113.49 164.304 114.012 164.819 114.386 165.48C114.764 166.136 114.954 166.891 114.954 167.744C114.954 168.603 114.764 169.365 114.386 170.032C114.012 170.693 113.49 171.213 112.818 171.592C112.151 171.971 111.38 172.16 110.506 172.16ZM110.506 170.672C111.039 170.672 111.508 170.552 111.914 170.312C112.319 170.072 112.636 169.733 112.866 169.296C113.095 168.853 113.21 168.336 113.21 167.744C113.21 167.157 113.095 166.648 112.866 166.216C112.636 165.784 112.319 165.451 111.914 165.216C111.508 164.981 111.039 164.864 110.506 164.864C109.978 164.864 109.508 164.981 109.098 165.216C108.692 165.451 108.375 165.784 108.146 166.216C107.916 166.648 107.802 167.157 107.802 167.744C107.802 168.336 107.916 168.853 108.146 169.296C108.375 169.733 108.692 170.072 109.098 170.312C109.508 170.552 109.978 170.672 110.506 170.672ZM118.718 159.496V172H117.006V159.496H118.718ZM124.138 172.152C123.536 172.152 123.034 172.051 122.634 171.848C122.234 171.64 121.917 171.371 121.682 171.04C121.448 170.704 121.282 170.339 121.186 169.944C121.09 169.544 121.042 169.155 121.042 168.776C121.042 168.579 121.042 168.373 121.042 168.16C121.042 167.941 121.042 167.723 121.042 167.504V163.504H122.786V167.256C122.786 167.448 122.786 167.637 122.786 167.824C122.786 168.005 122.786 168.176 122.786 168.336C122.786 168.747 122.84 169.125 122.946 169.472C123.053 169.813 123.24 170.091 123.506 170.304C123.778 170.512 124.157 170.616 124.642 170.616C125.096 170.616 125.49 170.483 125.826 170.216C126.162 169.944 126.424 169.603 126.61 169.192C126.797 168.776 126.89 168.36 126.89 167.944L127.65 168.352C127.65 168.843 127.568 169.315 127.402 169.768C127.242 170.221 127.01 170.629 126.706 170.992C126.402 171.349 126.032 171.632 125.594 171.84C125.162 172.048 124.677 172.152 124.138 172.152ZM126.89 172V163.504H128.626V172H126.89ZM134.456 172.144C134.173 172.144 133.89 172.115 133.608 172.056C133.33 171.997 133.074 171.891 132.84 171.736C132.61 171.576 132.426 171.349 132.288 171.056C132.149 170.763 132.08 170.379 132.08 169.904C132.08 169.792 132.08 169.675 132.08 169.552C132.08 169.429 132.08 169.304 132.08 169.176V164.944H130.04V163.504H131.112C131.341 163.504 131.52 163.496 131.648 163.48C131.781 163.459 131.877 163.413 131.936 163.344C132 163.269 132.04 163.152 132.056 162.992C132.072 162.832 132.08 162.613 132.08 162.336V160.696H133.816V163.504H136.416V164.944H133.816V168.712C133.816 168.819 133.816 168.925 133.816 169.032C133.816 169.139 133.816 169.237 133.816 169.328C133.816 169.755 133.866 170.091 133.968 170.336C134.074 170.581 134.314 170.704 134.688 170.704C134.848 170.704 135 170.691 135.144 170.664C135.288 170.637 135.397 170.608 135.472 170.576V171.992C135.376 172.029 135.24 172.064 135.064 172.096C134.888 172.128 134.685 172.144 134.456 172.144ZM138.098 172V163.504H139.81V172H138.098ZM138.962 161.744C138.663 161.744 138.404 161.664 138.186 161.504C137.972 161.339 137.866 161.112 137.866 160.824C137.866 160.541 137.972 160.32 138.186 160.16C138.404 159.995 138.663 159.912 138.962 159.912C139.255 159.912 139.508 159.995 139.722 160.16C139.94 160.32 140.05 160.541 140.05 160.824C140.05 161.112 139.94 161.339 139.722 161.504C139.508 161.664 139.255 161.744 138.962 161.744ZM146.224 172.16C145.35 172.16 144.576 171.971 143.904 171.592C143.238 171.213 142.715 170.693 142.336 170.032C141.963 169.365 141.776 168.603 141.776 167.744C141.776 166.891 141.963 166.136 142.336 165.48C142.715 164.819 143.238 164.304 143.904 163.936C144.576 163.563 145.35 163.376 146.224 163.376C147.099 163.376 147.87 163.563 148.536 163.936C149.208 164.304 149.731 164.819 150.104 165.48C150.483 166.136 150.672 166.891 150.672 167.744C150.672 168.603 150.483 169.365 150.104 170.032C149.731 170.693 149.208 171.213 148.536 171.592C147.87 171.971 147.099 172.16 146.224 172.16ZM146.224 170.672C146.758 170.672 147.227 170.552 147.632 170.312C148.038 170.072 148.355 169.733 148.584 169.296C148.814 168.853 148.928 168.336 148.928 167.744C148.928 167.157 148.814 166.648 148.584 166.216C148.355 165.784 148.038 165.451 147.632 165.216C147.227 164.981 146.758 164.864 146.224 164.864C145.696 164.864 145.227 164.981 144.816 165.216C144.411 165.451 144.094 165.784 143.864 166.216C143.635 166.648 143.52 167.157 143.52 167.744C143.52 168.336 143.635 168.853 143.864 169.296C144.094 169.733 144.411 170.072 144.816 170.312C145.227 170.552 145.696 170.672 146.224 170.672ZM158.653 172V168.08C158.653 167.851 158.653 167.656 158.653 167.496C158.653 167.336 158.653 167.187 158.653 167.048C158.653 166.632 158.589 166.267 158.461 165.952C158.333 165.632 158.122 165.384 157.829 165.208C157.535 165.027 157.143 164.936 156.653 164.936C156.221 164.936 155.829 165.043 155.477 165.256C155.13 165.469 154.853 165.76 154.645 166.128C154.442 166.491 154.341 166.904 154.341 167.368L153.597 167C153.597 166.312 153.759 165.696 154.085 165.152C154.41 164.603 154.845 164.168 155.389 163.848C155.938 163.528 156.538 163.368 157.189 163.368C157.861 163.368 158.434 163.499 158.909 163.76C159.389 164.016 159.754 164.384 160.005 164.864C160.261 165.339 160.389 165.907 160.389 166.568C160.389 166.813 160.389 167.085 160.389 167.384C160.389 167.683 160.389 167.971 160.389 168.248V172H158.653ZM152.605 172V163.504H154.341V172H152.605ZM165.918 172.168C165.411 172.168 164.934 172.112 164.486 172C164.038 171.888 163.643 171.725 163.302 171.512C162.966 171.293 162.702 171.024 162.51 170.704C162.323 170.384 162.23 170.013 162.23 169.592C162.23 169.555 162.23 169.517 162.23 169.48C162.23 169.437 162.23 169.403 162.23 169.376H163.958C163.958 169.403 163.958 169.427 163.958 169.448C163.958 169.469 163.958 169.499 163.958 169.536C163.958 169.925 164.136 170.221 164.494 170.424C164.856 170.621 165.347 170.72 165.966 170.72C166.328 170.72 166.659 170.683 166.958 170.608C167.262 170.533 167.502 170.419 167.678 170.264C167.859 170.109 167.95 169.912 167.95 169.672C167.95 169.283 167.758 169.005 167.374 168.84C166.995 168.675 166.419 168.528 165.646 168.4C165.224 168.325 164.816 168.229 164.422 168.112C164.032 167.995 163.68 167.84 163.366 167.648C163.056 167.451 162.808 167.208 162.622 166.92C162.44 166.627 162.35 166.275 162.35 165.864C162.35 165.331 162.51 164.877 162.83 164.504C163.15 164.131 163.582 163.848 164.126 163.656C164.67 163.464 165.27 163.368 165.926 163.368C166.56 163.368 167.147 163.472 167.686 163.68C168.23 163.883 168.667 164.179 168.998 164.568C169.328 164.952 169.494 165.424 169.494 165.984C169.494 166.005 169.494 166.029 169.494 166.056C169.494 166.083 169.494 166.107 169.494 166.128H167.774C167.774 166.107 167.774 166.088 167.774 166.072C167.774 166.056 167.774 166.037 167.774 166.016C167.774 165.739 167.686 165.512 167.51 165.336C167.334 165.16 167.104 165.029 166.822 164.944C166.544 164.853 166.248 164.808 165.934 164.808C165.646 164.808 165.355 164.84 165.062 164.904C164.774 164.963 164.534 165.067 164.342 165.216C164.15 165.36 164.054 165.557 164.054 165.808C164.054 166.064 164.147 166.269 164.334 166.424C164.52 166.573 164.784 166.699 165.126 166.8C165.467 166.896 165.864 166.984 166.318 167.064C166.734 167.139 167.139 167.235 167.534 167.352C167.928 167.464 168.283 167.613 168.598 167.8C168.918 167.987 169.171 168.227 169.358 168.52C169.55 168.813 169.646 169.173 169.646 169.6C169.646 170.043 169.544 170.424 169.342 170.744C169.139 171.064 168.862 171.331 168.51 171.544C168.163 171.752 167.766 171.907 167.318 172.008C166.875 172.115 166.408 172.168 165.918 172.168ZM172.574 172.216C172.275 172.216 172.022 172.115 171.814 171.912C171.611 171.709 171.51 171.459 171.51 171.16C171.51 170.867 171.611 170.619 171.814 170.416C172.022 170.208 172.275 170.104 172.574 170.104C172.862 170.104 173.11 170.208 173.318 170.416C173.526 170.619 173.63 170.867 173.63 171.16C173.63 171.459 173.526 171.709 173.318 171.912C173.11 172.115 172.862 172.216 172.574 172.216Z" fill="black"/>
<path d="M81.572 299V281.3H84.692V299H81.572ZM96.8538 299V293.348C96.8538 293.028 96.8538 292.748 96.8538 292.508C96.8538 292.26 96.8538 292.036 96.8538 291.836C96.8538 291.26 96.7698 290.744 96.6018 290.288C96.4418 289.824 96.1618 289.46 95.7618 289.196C95.3698 288.932 94.8258 288.8 94.1298 288.8C93.5218 288.8 92.9818 288.948 92.5098 289.244C92.0378 289.532 91.6658 289.932 91.3938 290.444C91.1298 290.948 90.9978 291.532 90.9978 292.196L89.9298 291.536C89.9298 290.472 90.1698 289.528 90.6498 288.704C91.1378 287.872 91.7898 287.22 92.6058 286.748C93.4218 286.276 94.3258 286.04 95.3178 286.04C96.3418 286.04 97.2018 286.24 97.8978 286.64C98.6018 287.04 99.1298 287.608 99.4818 288.344C99.8418 289.08 100.022 289.944 100.022 290.936C100.022 291.32 100.022 291.752 100.022 292.232C100.022 292.712 100.022 293.184 100.022 293.648V299H96.8538ZM87.8418 299V286.256H90.9978V299H87.8418ZM108.201 299.264C107.441 299.264 106.717 299.18 106.029 299.012C105.349 298.844 104.741 298.592 104.205 298.256C103.677 297.92 103.257 297.504 102.945 297.008C102.641 296.504 102.489 295.924 102.489 295.268C102.489 295.22 102.489 295.172 102.489 295.124C102.489 295.076 102.489 295.032 102.489 294.992H105.633C105.633 295.032 105.633 295.068 105.633 295.1C105.633 295.124 105.633 295.16 105.633 295.208C105.633 295.728 105.869 296.12 106.341 296.384C106.821 296.64 107.473 296.768 108.297 296.768C108.745 296.768 109.165 296.72 109.557 296.624C109.957 296.528 110.277 296.38 110.517 296.18C110.765 295.98 110.889 295.724 110.889 295.412C110.889 294.908 110.629 294.548 110.109 294.332C109.597 294.116 108.789 293.92 107.685 293.744C107.077 293.64 106.477 293.5 105.885 293.324C105.293 293.148 104.753 292.912 104.265 292.616C103.785 292.32 103.397 291.952 103.101 291.512C102.813 291.072 102.669 290.536 102.669 289.904C102.669 289.064 102.917 288.36 103.413 287.792C103.917 287.216 104.589 286.78 105.429 286.484C106.277 286.188 107.209 286.04 108.225 286.04C109.201 286.04 110.109 286.2 110.949 286.52C111.789 286.84 112.465 287.3 112.977 287.9C113.497 288.5 113.757 289.224 113.757 290.072C113.757 290.104 113.757 290.14 113.757 290.18C113.757 290.212 113.757 290.24 113.757 290.264H110.637C110.637 290.24 110.637 290.216 110.637 290.192C110.637 290.168 110.637 290.14 110.637 290.108C110.637 289.74 110.521 289.44 110.289 289.208C110.057 288.976 109.757 288.804 109.389 288.692C109.021 288.58 108.633 288.524 108.225 288.524C107.865 288.524 107.493 288.564 107.109 288.644C106.725 288.716 106.405 288.848 106.149 289.04C105.893 289.224 105.765 289.484 105.765 289.82C105.765 290.14 105.897 290.4 106.161 290.6C106.425 290.8 106.793 290.968 107.265 291.104C107.737 291.232 108.281 291.348 108.897 291.452C109.481 291.548 110.069 291.68 110.661 291.848C111.261 292.016 111.809 292.24 112.305 292.52C112.801 292.8 113.201 293.168 113.505 293.624C113.817 294.072 113.973 294.628 113.973 295.292C113.973 295.996 113.813 296.596 113.493 297.092C113.173 297.588 112.737 298 112.185 298.328C111.641 298.648 111.025 298.884 110.337 299.036C109.649 299.188 108.937 299.264 108.201 299.264ZM116.516 299V286.256H119.636V299H116.516ZM118.088 283.904C117.576 283.904 117.128 283.768 116.744 283.496C116.368 283.216 116.18 282.828 116.18 282.332C116.18 281.844 116.368 281.464 116.744 281.192C117.128 280.92 117.576 280.784 118.088 280.784C118.592 280.784 119.032 280.92 119.408 281.192C119.784 281.464 119.972 281.844 119.972 282.332C119.972 282.828 119.784 283.216 119.408 283.496C119.032 283.768 118.592 283.904 118.088 283.904ZM131.332 297.74C132.084 297.812 132.744 297.952 133.312 298.16C133.88 298.368 134.324 298.676 134.644 299.084C134.964 299.5 135.124 300.052 135.124 300.74C135.124 301.508 134.864 302.172 134.344 302.732C133.824 303.292 133.06 303.724 132.052 304.028C131.052 304.332 129.82 304.484 128.356 304.484C126.228 304.484 124.592 304.176 123.448 303.56C122.304 302.952 121.732 302.124 121.732 301.076C121.732 300.78 121.768 300.512 121.84 300.272C121.912 300.032 122 299.832 122.104 299.672L124.996 300.092C124.948 300.156 124.9 300.256 124.852 300.392C124.804 300.536 124.78 300.708 124.78 300.908C124.78 301.404 125.112 301.76 125.776 301.976C126.448 302.2 127.34 302.312 128.452 302.312C129.268 302.312 129.948 302.256 130.492 302.144C131.044 302.032 131.46 301.872 131.74 301.664C132.028 301.456 132.172 301.212 132.172 300.932C132.172 300.516 131.984 300.248 131.608 300.128C131.232 300.008 130.784 299.928 130.264 299.888L125.428 299.444C124.564 299.356 123.852 299.1 123.292 298.676C122.74 298.252 122.464 297.692 122.464 296.996C122.464 296.572 122.576 296.18 122.8 295.82C123.032 295.46 123.296 295.16 123.592 294.92C123.888 294.672 124.14 294.52 124.348 294.464L126.148 295.352C125.98 295.376 125.78 295.484 125.548 295.676C125.324 295.868 125.212 296.096 125.212 296.36C125.212 296.608 125.324 296.816 125.548 296.984C125.772 297.144 126.204 297.256 126.844 297.32L131.332 297.74ZM132.76 286.256H135.592L134.44 291.2C134.224 292.128 133.876 292.96 133.396 293.696C132.916 294.432 132.276 295.012 131.476 295.436C130.676 295.86 129.668 296.072 128.452 296.072C127.188 296.072 126.096 295.868 125.176 295.46C124.264 295.044 123.56 294.464 123.064 293.72C122.568 292.968 122.32 292.104 122.32 291.128C122.32 290.128 122.572 289.248 123.076 288.488C123.588 287.72 124.288 287.12 125.176 286.688C126.072 286.256 127.084 286.04 128.212 286.04C129.124 286.04 129.944 286.192 130.672 286.496C131.4 286.792 131.98 287.18 132.412 287.66C132.852 288.14 133.088 288.652 133.12 289.196L132.412 289.328L132.76 286.256ZM128.44 293.636C129.056 293.636 129.588 293.536 130.036 293.336C130.484 293.136 130.832 292.848 131.08 292.472C131.328 292.088 131.452 291.624 131.452 291.08C131.452 290.544 131.328 290.084 131.08 289.7C130.832 289.316 130.484 289.024 130.036 288.824C129.588 288.616 129.06 288.512 128.452 288.512C127.86 288.512 127.336 288.616 126.88 288.824C126.424 289.032 126.064 289.332 125.8 289.724C125.544 290.108 125.416 290.568 125.416 291.104C125.416 291.64 125.54 292.1 125.788 292.484C126.044 292.86 126.396 293.148 126.844 293.348C127.3 293.54 127.832 293.636 128.44 293.636ZM146.741 299V294.404C146.741 294.212 146.741 293.972 146.741 293.684C146.741 293.396 146.741 293.104 146.741 292.808C146.741 292.512 146.741 292.268 146.741 292.076C146.741 291.02 146.533 290.212 146.117 289.652C145.709 289.084 145.009 288.8 144.017 288.8C143.353 288.8 142.785 288.932 142.313 289.196C141.849 289.452 141.493 289.812 141.245 290.276C140.997 290.74 140.873 291.276 140.873 291.884L139.721 291.272C139.721 290.256 139.949 289.356 140.405 288.572C140.869 287.78 141.509 287.16 142.325 286.712C143.141 286.264 144.077 286.04 145.133 286.04C146.677 286.04 147.857 286.5 148.673 287.42C149.489 288.332 149.897 289.604 149.897 291.236C149.897 291.652 149.897 292.148 149.897 292.724C149.897 293.292 149.897 293.932 149.897 294.644V299H146.741ZM137.717 299V280.244H140.873V299H137.717ZM158.503 299.24C158.047 299.24 157.583 299.196 157.111 299.108C156.639 299.02 156.207 298.856 155.815 298.616C155.423 298.376 155.107 298.024 154.867 297.56C154.627 297.096 154.507 296.484 154.507 295.724C154.507 295.548 154.507 295.372 154.507 295.196C154.507 295.012 154.507 294.824 154.507 294.632V288.776H151.495V286.256H152.719C153.135 286.256 153.463 286.24 153.703 286.208C153.943 286.168 154.118 286.08 154.23 285.944C154.343 285.808 154.415 285.596 154.447 285.308C154.487 285.012 154.507 284.604 154.507 284.084V282.056H157.674V286.256H161.467V288.776H157.674V293.888C157.674 294.04 157.674 294.192 157.674 294.344C157.674 294.488 157.674 294.628 157.674 294.764C157.674 295.356 157.747 295.832 157.891 296.192C158.035 296.552 158.375 296.732 158.911 296.732C159.167 296.732 159.407 296.708 159.631 296.66C159.863 296.612 160.035 296.564 160.147 296.516V298.988C159.995 299.044 159.775 299.1 159.487 299.156C159.199 299.212 158.871 299.24 158.503 299.24ZM168.646 299.264C167.886 299.264 167.162 299.18 166.474 299.012C165.794 298.844 165.186 298.592 164.65 298.256C164.122 297.92 163.702 297.504 163.39 297.008C163.086 296.504 162.934 295.924 162.934 295.268C162.934 295.22 162.934 295.172 162.934 295.124C162.934 295.076 162.934 295.032 162.934 294.992H166.078C166.078 295.032 166.078 295.068 166.078 295.1C166.078 295.124 166.078 295.16 166.078 295.208C166.078 295.728 166.314 296.12 166.786 296.384C167.266 296.64 167.918 296.768 168.742 296.768C169.19 296.768 169.61 296.72 170.002 296.624C170.402 296.528 170.722 296.38 170.962 296.18C171.21 295.98 171.334 295.724 171.334 295.412C171.334 294.908 171.074 294.548 170.554 294.332C170.042 294.116 169.234 293.92 168.13 293.744C167.522 293.64 166.922 293.5 166.33 293.324C165.738 293.148 165.198 292.912 164.71 292.616C164.23 292.32 163.842 291.952 163.546 291.512C163.258 291.072 163.114 290.536 163.114 289.904C163.114 289.064 163.362 288.36 163.858 287.792C164.362 287.216 165.034 286.78 165.874 286.484C166.722 286.188 167.654 286.04 168.67 286.04C169.646 286.04 170.554 286.2 171.394 286.52C172.234 286.84 172.91 287.3 173.422 287.9C173.942 288.5 174.202 289.224 174.202 290.072C174.202 290.104 174.202 290.14 174.202 290.18C174.202 290.212 174.202 290.24 174.202 290.264H171.082C171.082 290.24 171.082 290.216 171.082 290.192C171.082 290.168 171.082 290.14 171.082 290.108C171.082 289.74 170.966 289.44 170.734 289.208C170.502 288.976 170.202 288.804 169.834 288.692C169.466 288.58 169.078 288.524 168.67 288.524C168.31 288.524 167.938 288.564 167.554 288.644C167.17 288.716 166.85 288.848 166.594 289.04C166.338 289.224 166.21 289.484 166.21 289.82C166.21 290.14 166.342 290.4 166.606 290.6C166.87 290.8 167.238 290.968 167.71 291.104C168.182 291.232 168.726 291.348 169.342 291.452C169.926 291.548 170.514 291.68 171.106 291.848C171.706 292.016 172.254 292.24 172.75 292.52C173.246 292.8 173.646 293.168 173.95 293.624C174.262 294.072 174.418 294.628 174.418 295.292C174.418 295.996 174.258 296.596 173.938 297.092C173.618 297.588 173.182 298 172.63 298.328C172.086 298.648 171.47 298.884 170.782 299.036C170.094 299.188 169.382 299.264 168.646 299.264ZM188.758 299.264C187.502 299.264 186.406 299.064 185.47 298.664C184.534 298.264 183.806 297.664 183.286 296.864C182.766 296.056 182.506 295.056 182.506 293.864C182.506 293.728 182.506 293.608 182.506 293.504C182.506 293.392 182.506 293.268 182.506 293.132H185.662C185.662 293.252 185.662 293.364 185.662 293.468C185.662 293.564 185.662 293.676 185.662 293.804C185.662 294.764 185.922 295.484 186.442 295.964C186.97 296.436 187.746 296.672 188.77 296.672C189.802 296.672 190.59 296.5 191.134 296.156C191.686 295.812 191.962 295.26 191.962 294.5C191.962 293.948 191.774 293.48 191.398 293.096C191.03 292.704 190.522 292.36 189.874 292.064C189.226 291.768 188.49 291.492 187.666 291.236C186.738 290.948 185.894 290.576 185.134 290.12C184.374 289.664 183.766 289.088 183.31 288.392C182.854 287.696 182.626 286.84 182.626 285.824C182.626 284.808 182.886 283.944 183.406 283.232C183.934 282.52 184.654 281.98 185.566 281.612C186.486 281.236 187.53 281.048 188.698 281.048C189.922 281.048 190.998 281.24 191.926 281.624C192.862 282.008 193.594 282.58 194.122 283.34C194.65 284.1 194.914 285.048 194.914 286.184C194.914 286.336 194.914 286.468 194.914 286.58C194.914 286.692 194.914 286.82 194.914 286.964H191.746C191.746 286.86 191.746 286.756 191.746 286.652C191.746 286.54 191.746 286.432 191.746 286.328C191.746 285.416 191.498 284.744 191.002 284.312C190.506 283.872 189.754 283.652 188.746 283.652C187.762 283.652 187.006 283.824 186.478 284.168C185.95 284.512 185.686 285.06 185.686 285.812C185.686 286.372 185.866 286.84 186.226 287.216C186.586 287.592 187.078 287.92 187.702 288.2C188.334 288.472 189.05 288.748 189.85 289.028C190.914 289.38 191.834 289.78 192.61 290.228C193.386 290.668 193.986 291.22 194.41 291.884C194.834 292.54 195.046 293.376 195.046 294.392C195.046 295.432 194.782 296.316 194.254 297.044C193.734 297.764 193.002 298.316 192.058 298.7C191.122 299.076 190.022 299.264 188.758 299.264ZM203.549 299.24C203.093 299.24 202.629 299.196 202.157 299.108C201.685 299.02 201.253 298.856 200.861 298.616C200.469 298.376 200.153 298.024 199.913 297.56C199.673 297.096 199.553 296.484 199.553 295.724C199.553 295.548 199.553 295.372 199.553 295.196C199.553 295.012 199.553 294.824 199.553 294.632V288.776H196.541V286.256H197.765C198.181 286.256 198.509 286.24 198.749 286.208C198.989 286.168 199.165 286.08 199.277 285.944C199.389 285.808 199.461 285.596 199.493 285.308C199.533 285.012 199.553 284.604 199.553 284.084V282.056H202.721V286.256H206.513V288.776H202.721V293.888C202.721 294.04 202.721 294.192 202.721 294.344C202.721 294.488 202.721 294.628 202.721 294.764C202.721 295.356 202.793 295.832 202.937 296.192C203.081 296.552 203.421 296.732 203.957 296.732C204.213 296.732 204.453 296.708 204.677 296.66C204.909 296.612 205.081 296.564 205.193 296.516V298.988C205.041 299.044 204.821 299.1 204.533 299.156C204.245 299.212 203.917 299.24 203.549 299.24ZM208.896 299V286.256H212.053V290.492L211.321 290.084C211.401 289.532 211.549 289.012 211.765 288.524C211.981 288.028 212.269 287.596 212.629 287.228C212.989 286.852 213.425 286.56 213.937 286.352C214.449 286.144 215.033 286.04 215.689 286.04C216.209 286.04 216.617 286.08 216.913 286.16C217.217 286.232 217.405 286.292 217.477 286.34L216.901 289.232C216.821 289.176 216.657 289.108 216.409 289.028C216.169 288.94 215.845 288.896 215.437 288.896C214.789 288.896 214.245 289.008 213.805 289.232C213.373 289.448 213.029 289.744 212.773 290.12C212.517 290.488 212.333 290.896 212.221 291.344C212.109 291.784 212.053 292.224 212.053 292.664V299H208.896ZM223.6 299.264C222.648 299.264 221.812 299.116 221.092 298.82C220.372 298.516 219.808 298.08 219.4 297.512C218.992 296.944 218.788 296.26 218.788 295.46C218.788 294.588 219.024 293.872 219.496 293.312C219.976 292.744 220.62 292.308 221.428 292.004C222.236 291.692 223.132 291.492 224.116 291.404C225.572 291.26 226.588 291.124 227.164 290.996C227.748 290.86 228.04 290.644 228.04 290.348C228.04 290.34 228.04 290.336 228.04 290.336C228.04 290.328 228.04 290.324 228.04 290.324C228.04 289.764 227.788 289.332 227.284 289.028C226.78 288.724 226.068 288.572 225.148 288.572C224.18 288.572 223.436 288.744 222.916 289.088C222.404 289.424 222.148 289.96 222.148 290.696H219.028C219.028 289.696 219.292 288.852 219.82 288.164C220.356 287.468 221.088 286.94 222.016 286.58C222.944 286.22 223.996 286.04 225.172 286.04C226.268 286.04 227.272 286.204 228.184 286.532C229.096 286.86 229.828 287.356 230.38 288.02C230.932 288.684 231.208 289.512 231.208 290.504C231.208 290.672 231.208 290.84 231.208 291.008C231.208 291.176 231.208 291.344 231.208 291.512V296.312C231.208 296.616 231.216 296.916 231.232 297.212C231.256 297.5 231.3 297.76 231.364 297.992C231.444 298.248 231.54 298.464 231.652 298.64C231.764 298.816 231.852 298.936 231.916 299H228.796C228.74 298.944 228.66 298.836 228.556 298.676C228.46 298.508 228.372 298.316 228.292 298.1C228.212 297.86 228.152 297.604 228.112 297.332C228.072 297.052 228.052 296.744 228.052 296.408L228.676 296.84C228.436 297.328 228.068 297.756 227.572 298.124C227.084 298.484 226.5 298.764 225.82 298.964C225.14 299.164 224.4 299.264 223.6 299.264ZM224.368 296.78C225.024 296.78 225.632 296.668 226.192 296.444C226.752 296.22 227.204 295.876 227.548 295.412C227.892 294.94 228.064 294.336 228.064 293.6V291.896L228.832 292.76C228.32 292.952 227.704 293.112 226.984 293.24C226.264 293.36 225.536 293.456 224.8 293.528C223.856 293.616 223.144 293.78 222.664 294.02C222.192 294.26 221.956 294.652 221.956 295.196C221.956 295.724 222.156 296.12 222.556 296.384C222.956 296.648 223.56 296.78 224.368 296.78ZM239.69 299.24C239.234 299.24 238.77 299.196 238.298 299.108C237.826 299.02 237.394 298.856 237.002 298.616C236.61 298.376 236.294 298.024 236.054 297.56C235.814 297.096 235.694 296.484 235.694 295.724C235.694 295.548 235.694 295.372 235.694 295.196C235.694 295.012 235.694 294.824 235.694 294.632V288.776H232.682V286.256H233.906C234.322 286.256 234.65 286.24 234.89 286.208C235.13 286.168 235.306 286.08 235.418 285.944C235.53 285.808 235.602 285.596 235.634 285.308C235.674 285.012 235.694 284.604 235.694 284.084V282.056H238.862V286.256H242.654V288.776H238.862V293.888C238.862 294.04 238.862 294.192 238.862 294.344C238.862 294.488 238.862 294.628 238.862 294.764C238.862 295.356 238.934 295.832 239.078 296.192C239.222 296.552 239.562 296.732 240.098 296.732C240.354 296.732 240.594 296.708 240.818 296.66C241.05 296.612 241.222 296.564 241.334 296.516V298.988C241.182 299.044 240.962 299.1 240.674 299.156C240.386 299.212 240.058 299.24 239.69 299.24ZM245.862 293.648V291.404H254.778L254.418 292.004C254.418 291.956 254.418 291.904 254.418 291.848C254.418 291.784 254.418 291.732 254.418 291.692C254.418 291.14 254.294 290.624 254.046 290.144C253.798 289.656 253.422 289.264 252.918 288.968C252.414 288.664 251.774 288.512 250.998 288.512C250.23 288.512 249.562 288.676 248.994 289.004C248.434 289.324 247.998 289.788 247.686 290.396C247.382 291.004 247.23 291.732 247.23 292.58C247.23 293.452 247.378 294.204 247.674 294.836C247.97 295.46 248.402 295.94 248.97 296.276C249.546 296.604 250.246 296.768 251.07 296.768C251.63 296.768 252.114 296.716 252.522 296.612C252.93 296.508 253.262 296.368 253.518 296.192C253.782 296.008 253.978 295.812 254.106 295.604C254.242 295.396 254.322 295.188 254.346 294.98H257.49C257.442 295.516 257.262 296.04 256.95 296.552C256.646 297.056 256.218 297.516 255.666 297.932C255.114 298.34 254.442 298.668 253.65 298.916C252.866 299.156 251.97 299.276 250.962 299.276C249.594 299.276 248.398 298.996 247.374 298.436C246.35 297.876 245.55 297.096 244.974 296.096C244.406 295.096 244.122 293.952 244.122 292.664C244.122 291.344 244.41 290.188 244.986 289.196C245.57 288.204 246.378 287.432 247.41 286.88C248.442 286.32 249.626 286.04 250.962 286.04C252.338 286.04 253.526 286.32 254.526 286.88C255.534 287.44 256.31 288.22 256.854 289.22C257.398 290.212 257.67 291.368 257.67 292.688C257.67 292.856 257.666 293.036 257.658 293.228C257.65 293.42 257.638 293.56 257.622 293.648H245.862ZM268.84 297.74C269.592 297.812 270.252 297.952 270.82 298.16C271.388 298.368 271.832 298.676 272.152 299.084C272.472 299.5 272.632 300.052 272.632 300.74C272.632 301.508 272.372 302.172 271.852 302.732C271.332 303.292 270.568 303.724 269.56 304.028C268.56 304.332 267.328 304.484 265.864 304.484C263.736 304.484 262.1 304.176 260.956 303.56C259.812 302.952 259.24 302.124 259.24 301.076C259.24 300.78 259.276 300.512 259.348 300.272C259.42 300.032 259.508 299.832 259.612 299.672L262.504 300.092C262.456 300.156 262.408 300.256 262.36 300.392C262.312 300.536 262.288 300.708 262.288 300.908C262.288 301.404 262.62 301.76 263.284 301.976C263.956 302.2 264.848 302.312 265.96 302.312C266.776 302.312 267.456 302.256 268 302.144C268.552 302.032 268.968 301.872 269.248 301.664C269.536 301.456 269.68 301.212 269.68 300.932C269.68 300.516 269.492 300.248 269.116 300.128C268.74 300.008 268.292 299.928 267.772 299.888L262.936 299.444C262.072 299.356 261.36 299.1 260.8 298.676C260.248 298.252 259.972 297.692 259.972 296.996C259.972 296.572 260.084 296.18 260.308 295.82C260.54 295.46 260.804 295.16 261.1 294.92C261.396 294.672 261.648 294.52 261.855 294.464L263.656 295.352C263.488 295.376 263.288 295.484 263.056 295.676C262.832 295.868 262.72 296.096 262.72 296.36C262.72 296.608 262.832 296.816 263.056 296.984C263.28 297.144 263.712 297.256 264.352 297.32L268.84 297.74ZM270.268 286.256H273.1L271.948 291.2C271.732 292.128 271.384 292.96 270.904 293.696C270.424 294.432 269.784 295.012 268.984 295.436C268.184 295.86 267.176 296.072 265.96 296.072C264.696 296.072 263.604 295.868 262.684 295.46C261.772 295.044 261.068 294.464 260.572 293.72C260.076 292.968 259.828 292.104 259.828 291.128C259.828 290.128 260.08 289.248 260.584 288.488C261.096 287.72 261.796 287.12 262.684 286.688C263.58 286.256 264.592 286.04 265.72 286.04C266.632 286.04 267.452 286.192 268.18 286.496C268.908 286.792 269.488 287.18 269.92 287.66C270.36 288.14 270.596 288.652 270.628 289.196L269.92 289.328L270.268 286.256ZM265.948 293.636C266.564 293.636 267.096 293.536 267.544 293.336C267.992 293.136 268.34 292.848 268.588 292.472C268.836 292.088 268.96 291.624 268.96 291.08C268.96 290.544 268.836 290.084 268.588 289.7C268.34 289.316 267.992 289.024 267.544 288.824C267.096 288.616 266.568 288.512 265.96 288.512C265.368 288.512 264.844 288.616 264.388 288.824C263.932 289.032 263.572 289.332 263.308 289.724C263.052 290.108 262.924 290.568 262.924 291.104C262.924 291.64 263.048 292.1 263.296 292.484C263.552 292.86 263.904 293.148 264.352 293.348C264.808 293.54 265.34 293.636 265.948 293.636ZM275.165 299V286.256H278.285V299H275.165ZM276.737 283.904C276.225 283.904 275.777 283.768 275.393 283.496C275.017 283.216 274.829 282.828 274.829 282.332C274.829 281.844 275.017 281.464 275.393 281.192C275.777 280.92 276.225 280.784 276.737 280.784C277.241 280.784 277.681 280.92 278.057 281.192C278.433 281.464 278.621 281.844 278.621 282.332C278.621 282.828 278.433 283.216 278.057 283.496C277.681 283.768 277.241 283.904 276.737 283.904ZM282.588 293.648V291.404H291.504L291.144 292.004C291.144 291.956 291.144 291.904 291.144 291.848C291.144 291.784 291.144 291.732 291.144 291.692C291.144 291.14 291.02 290.624 290.772 290.144C290.524 289.656 290.148 289.264 289.644 288.968C289.14 288.664 288.5 288.512 287.724 288.512C286.956 288.512 286.288 288.676 285.72 289.004C285.16 289.324 284.724 289.788 284.412 290.396C284.108 291.004 283.956 291.732 283.956 292.58C283.956 293.452 284.104 294.204 284.4 294.836C284.696 295.46 285.128 295.94 285.696 296.276C286.272 296.604 286.972 296.768 287.796 296.768C288.356 296.768 288.84 296.716 289.248 296.612C289.656 296.508 289.988 296.368 290.244 296.192C290.508 296.008 290.704 295.812 290.832 295.604C290.968 295.396 291.048 295.188 291.072 294.98H294.216C294.168 295.516 293.988 296.04 293.676 296.552C293.372 297.056 292.944 297.516 292.392 297.932C291.84 298.34 291.168 298.668 290.376 298.916C289.592 299.156 288.696 299.276 287.688 299.276C286.32 299.276 285.124 298.996 284.1 298.436C283.076 297.876 282.276 297.096 281.7 296.096C281.132 295.096 280.848 293.952 280.848 292.664C280.848 291.344 281.136 290.188 281.712 289.196C282.296 288.204 283.104 287.432 284.136 286.88C285.168 286.32 286.352 286.04 287.688 286.04C289.064 286.04 290.252 286.32 291.252 286.88C292.26 287.44 293.036 288.22 293.58 289.22C294.124 290.212 294.396 291.368 294.396 292.688C294.396 292.856 294.392 293.036 294.384 293.228C294.376 293.42 294.364 293.56 294.348 293.648H282.588ZM302.146 299.264C301.386 299.264 300.662 299.18 299.974 299.012C299.294 298.844 298.686 298.592 298.15 298.256C297.622 297.92 297.202 297.504 296.89 297.008C296.586 296.504 296.434 295.924 296.434 295.268C296.434 295.22 296.434 295.172 296.434 295.124C296.434 295.076 296.434 295.032 296.434 294.992H299.578C299.578 295.032 299.578 295.068 299.578 295.1C299.578 295.124 299.578 295.16 299.578 295.208C299.578 295.728 299.814 296.12 300.286 296.384C300.766 296.64 301.418 296.768 302.242 296.768C302.69 296.768 303.11 296.72 303.502 296.624C303.902 296.528 304.222 296.38 304.462 296.18C304.71 295.98 304.834 295.724 304.834 295.412C304.834 294.908 304.574 294.548 304.054 294.332C303.542 294.116 302.734 293.92 301.63 293.744C301.022 293.64 300.422 293.5 299.83 293.324C299.238 293.148 298.698 292.912 298.21 292.616C297.73 292.32 297.342 291.952 297.046 291.512C296.758 291.072 296.614 290.536 296.614 289.904C296.614 289.064 296.862 288.36 297.358 287.792C297.862 287.216 298.534 286.78 299.374 286.484C300.222 286.188 301.154 286.04 302.17 286.04C303.146 286.04 304.054 286.2 304.894 286.52C305.734 286.84 306.41 287.3 306.922 287.9C307.442 288.5 307.702 289.224 307.702 290.072C307.702 290.104 307.702 290.14 307.702 290.18C307.702 290.212 307.702 290.24 307.702 290.264H304.582C304.582 290.24 304.582 290.216 304.582 290.192C304.582 290.168 304.582 290.14 304.582 290.108C304.582 289.74 304.466 289.44 304.234 289.208C304.002 288.976 303.702 288.804 303.334 288.692C302.966 288.58 302.578 288.524 302.17 288.524C301.81 288.524 301.438 288.564 301.054 288.644C300.67 288.716 300.35 288.848 300.094 289.04C299.838 289.224 299.71 289.484 299.71 289.82C299.71 290.14 299.842 290.4 300.106 290.6C300.37 290.8 300.738 290.968 301.21 291.104C301.682 291.232 302.226 291.348 302.842 291.452C303.426 291.548 304.014 291.68 304.606 291.848C305.206 292.016 305.754 292.24 306.25 292.52C306.746 292.8 307.146 293.168 307.45 293.624C307.762 294.072 307.918 294.628 307.918 295.292C307.918 295.996 307.758 296.596 307.438 297.092C307.118 297.588 306.682 298 306.13 298.328C305.586 298.648 304.97 298.884 304.282 299.036C303.594 299.188 302.882 299.264 302.146 299.264Z" fill="black"/>
<defs>
<filter id="filter0_d_294_2775" x="14.4612" y="23.4945" width="224.539" height="223.539" filterUnits="userSpaceOnUse" color-interpolation-filters="sRGB">
<feFlood flood-opacity="0" result="BackgroundImageFix"/>
<feColorMatrix in="SourceAlpha" type="matrix" values="0 0 0 0 0 0 0 0 0 0 0 0 0 0 0 0 0 0 127 0" result="hardAlpha"/>
<feOffset dx="-8.76941" dy="6.26386"/>
<feGaussianBlur stdDeviation="4.38471"/>
<feComposite in2="hardAlpha" operator="out"/>
<feColorMatrix type="matrix" values="0 0 0 0 0 0 0 0 0 0 0 0 0 0 0 0 0 0 0.35 0"/>
<feBlend mode="normal" in2="BackgroundImageFix" result="effect1_dropShadow_294_2775"/>
<feBlend mode="normal" in="SourceGraphic" in2="effect1_dropShadow_294_2775" result="shape"/>
</filter>
</defs>
</svg>
