<svg width="47" height="47" viewBox="0 0 47 47" fill="none" xmlns="http://www.w3.org/2000/svg">
<path d="M25.0259 14.8467C26.0643 14.8494 26.5914 14.855 27.0464 14.8679L27.2255 14.8744C27.4322 14.8818 27.6362 14.891 27.8827 14.9021C28.8648 14.9482 29.5349 15.1033 30.1229 15.3313C30.7321 15.5657 31.2453 15.8833 31.7585 16.3956C32.228 16.8568 32.5912 17.4151 32.8227 18.0312C33.0507 18.6192 33.2058 19.2893 33.2519 20.2724C33.263 20.5179 33.2722 20.7219 33.2796 20.9296L33.2852 21.1087C33.299 21.5628 33.3046 22.0899 33.3064 23.1283L33.3073 23.8169V25.0261C33.3096 25.6994 33.3025 26.3727 33.2861 27.0458L33.2806 27.2248C33.2732 27.4325 33.2639 27.6365 33.2529 27.8821C33.2067 28.8651 33.0498 29.5343 32.8227 30.1232C32.5912 30.7394 32.228 31.2976 31.7585 31.7589C31.2972 32.2284 30.739 32.5917 30.1229 32.8232C29.5349 33.0512 28.8648 33.2062 27.8827 33.2524L27.2255 33.2801L27.0464 33.2856C26.5914 33.2985 26.0643 33.305 25.0259 33.3068L24.3373 33.3078H23.1291C22.4555 33.3101 21.7819 33.3031 21.1086 33.2865L20.9295 33.281C20.7104 33.2727 20.4913 33.2632 20.2723 33.2524C19.2902 33.2062 18.6201 33.0512 18.0312 32.8232C17.4154 32.5915 16.8575 32.2283 16.3965 31.7589C15.9266 31.2977 15.5631 30.7395 15.3313 30.1232C15.1033 29.5352 14.9482 28.8651 14.9021 27.8821L14.8744 27.2248L14.8698 27.0458C14.8528 26.3727 14.8451 25.6994 14.8467 25.0261V23.1283C14.8442 22.455 14.8509 21.7818 14.867 21.1087L14.8735 20.9296C14.8809 20.7219 14.8901 20.5179 14.9012 20.2724C14.9473 19.2893 15.1024 18.6201 15.3304 18.0312C15.5627 17.4148 15.9269 16.8566 16.3974 16.3956C16.8581 15.9262 17.4157 15.563 18.0312 15.3313C18.6201 15.1033 19.2893 14.9482 20.2723 14.9021C20.5178 14.891 20.7227 14.8818 20.9295 14.8744L21.1086 14.8688C21.7816 14.8524 22.4549 14.8454 23.1281 14.8476L25.0259 14.8467ZM24.077 19.462C22.853 19.462 21.6791 19.9482 20.8136 20.8137C19.9481 21.6793 19.4619 22.8532 19.4619 24.0772C19.4619 25.3013 19.9481 26.4752 20.8136 27.3407C21.6791 28.2062 22.853 28.6925 24.077 28.6925C25.301 28.6925 26.4749 28.2062 27.3404 27.3407C28.2059 26.4752 28.6922 25.3013 28.6922 24.0772C28.6922 22.8532 28.2059 21.6793 27.3404 20.8137C26.4749 19.9482 25.301 19.462 24.077 19.462ZM24.077 21.3081C24.4407 21.308 24.8008 21.3796 25.1367 21.5187C25.4727 21.6578 25.778 21.8617 26.0352 22.1188C26.2924 22.3759 26.4964 22.6811 26.6356 23.0171C26.7748 23.353 26.8465 23.7131 26.8466 24.0768C26.8466 24.4404 26.7751 24.8005 26.636 25.1365C26.4969 25.4725 26.2929 25.7778 26.0359 26.035C25.7788 26.2922 25.4735 26.4962 25.1376 26.6354C24.8017 26.7746 24.4416 26.8463 24.0779 26.8464C23.3435 26.8464 22.6392 26.5546 22.1199 26.0353C21.6006 25.516 21.3089 24.8117 21.3089 24.0772C21.3089 23.3428 21.6006 22.6384 22.1199 22.1191C22.6392 21.5998 23.3435 21.3081 24.0779 21.3081M28.9239 18.0774C28.6178 18.0774 28.3244 18.1989 28.108 18.4153C27.8916 18.6317 27.7701 18.9252 27.7701 19.2312C27.7701 19.5372 27.8916 19.8307 28.108 20.0471C28.3244 20.2634 28.6178 20.385 28.9239 20.385C29.2299 20.385 29.5233 20.2634 29.7397 20.0471C29.9561 19.8307 30.0776 19.5372 30.0776 19.2312C30.0776 18.9252 29.9561 18.6317 29.7397 18.4153C29.5233 18.1989 29.2299 18.0774 28.9239 18.0774Z" fill="white"/>
<circle cx="23.5" cy="23.5" r="23" stroke="white"/>
</svg>
