<svg width="47" height="47" viewBox="0 0 47 47" fill="none" xmlns="http://www.w3.org/2000/svg">
<path d="M19.7208 33.1544H16.1324V21.599H19.7208V33.1544ZM17.9244 20.0228C16.7771 20.0228 15.8462 19.0721 15.8462 17.9248C15.8462 17.3737 16.0651 16.8451 16.4549 16.4554C16.8446 16.0656 17.3732 15.8467 17.9244 15.8467C18.4756 15.8467 19.0042 16.0656 19.394 16.4554C19.7837 16.8451 20.0027 17.3737 20.0027 17.9248C20.0027 19.0721 19.0717 20.0228 17.9244 20.0228ZM33.1508 33.1544H29.5704V27.5294C29.5704 26.1886 29.5432 24.4696 27.7049 24.4696C25.8393 24.4696 25.5531 25.9259 25.5531 27.4329V33.1544H21.9684V21.599H25.4097V23.1753H25.4597C25.9388 22.2672 27.109 21.3091 28.8546 21.3091C32.4863 21.3091 33.1539 23.7007 33.1539 26.8068V33.1544H33.1508Z" fill="white"/>
<circle cx="23.5" cy="23.5" r="23" stroke="white"/>
</svg>
