<svg width="75" height="78" viewBox="0 0 75 78" fill="none" xmlns="http://www.w3.org/2000/svg">
<path fill-rule="evenodd" clip-rule="evenodd" d="M34.8358 34.6351C35.1612 34.9976 35.4942 35.3694 35.9006 35.8447C36.2994 36.3108 36.6278 36.7953 36.8875 37.2995C37.0571 37.624 37.3688 37.8083 37.7324 37.8083H52.3957C52.7593 37.8083 53.071 37.6225 53.2406 37.2995C53.5003 36.7937 53.8303 36.3108 54.2275 35.8447C54.6339 35.3694 54.9685 34.9976 55.2924 34.6351C57.7215 31.928 59.8389 29.5652 59.8389 24.189C59.8389 20.1215 58.1844 16.4379 55.5124 13.7735C52.8357 11.1044 49.1416 9.45459 45.0625 9.45459C40.9834 9.45459 37.2893 11.1044 34.6127 13.7735C31.9407 16.4379 30.2861 20.1215 30.2861 24.189C30.2877 29.5652 32.4067 31.9264 34.8358 34.6351ZM34.9137 21.6404L35.9923 21.29L36.061 21.2687C36.1481 20.9929 36.2428 20.7294 36.3513 20.4704C36.4598 20.2068 36.5805 19.9524 36.7149 19.7011L36.6752 19.6325L36.1252 18.557C35.8746 18.0558 35.9816 17.4693 36.3589 17.0975L37.216 16.2429L38.0731 15.3883C38.4795 14.9785 39.0997 14.9084 39.5794 15.1811L40.6137 15.7036L40.6825 15.7417C40.933 15.6077 41.1897 15.4873 41.454 15.3791C41.7137 15.271 41.978 15.1765 42.2545 15.0897L42.2759 15.0211L42.6533 13.8679C42.8259 13.3408 43.3209 12.9996 43.848 12.9996H46.2725C46.8607 12.9996 47.3557 13.4018 47.4932 13.9456L47.8446 15.0211L47.866 15.0897C48.1425 15.1765 48.4068 15.271 48.6665 15.3791C48.9308 15.4873 49.1859 15.6077 49.438 15.7417L49.5068 15.7036L50.5854 15.1552C51.088 14.9054 51.6762 15.012 52.0489 15.3883L52.906 16.2429L53.7631 17.0975C54.174 17.5028 54.2443 18.1213 53.9709 18.5996L53.4468 19.631L53.4071 19.6995C53.5416 19.9494 53.6622 20.2053 53.7707 20.4689C53.8792 20.7278 53.9739 20.9914 54.061 21.2671L54.1297 21.2885L55.2817 21.6647C55.8149 21.8338 56.1525 22.3259 56.1525 22.856H56.1571V25.2737C56.1571 25.8617 55.7537 26.3538 55.2083 26.4909L54.1297 26.8413L54.061 26.8626C53.9739 27.1384 53.8792 27.4019 53.7707 27.6609C53.6622 27.9199 53.5416 28.1788 53.4071 28.4302L53.4468 28.4988L53.9968 29.5743C54.2474 30.0755 54.1404 30.659 53.7631 31.0337L52.906 31.8884L52.0489 32.743C51.6426 33.1528 51.0223 33.2229 50.5426 32.9502L49.5083 32.4231L49.4395 32.388C49.189 32.5221 48.9323 32.6424 48.668 32.7506C48.4083 32.8588 48.144 32.9532 47.8675 33.0401L47.8461 33.1086L47.4687 34.2573C47.2961 34.7889 46.8011 35.1256 46.274 35.1256V35.1302H43.8495C43.2598 35.1302 42.7663 34.728 42.6288 34.1841L42.2774 33.1086L42.2561 33.0401C41.9795 32.9532 41.7152 32.8588 41.4555 32.7506C41.1912 32.6424 40.9361 32.5221 40.684 32.388L40.6153 32.4231L39.5367 32.9761C39.034 33.2259 38.4459 33.1193 38.0731 32.743L37.216 31.8884L36.3589 31.0337C35.948 30.6285 35.8777 30.0054 36.1512 29.5271L36.6752 28.4988L36.7149 28.4302C36.5805 28.1804 36.4598 27.9244 36.3513 27.6609C36.2428 27.4019 36.1481 27.1384 36.061 26.8626L35.9923 26.8413L34.8404 26.465C34.3072 26.2929 33.9695 25.7993 33.9695 25.2737H33.965V22.856C33.965 22.2711 34.3683 21.779 34.9137 21.6404Z" fill="#3DB8DB"/>
<path fill-rule="evenodd" clip-rule="evenodd" d="M37.4893 24.6899H37.4847C37.8957 24.824 38.2257 25.1607 38.325 25.6055C38.4121 25.9772 38.5282 26.3444 38.6764 26.7024C38.82 27.0436 38.9835 27.3635 39.1653 27.6651C39.4341 28.0323 39.4907 28.5381 39.2691 28.9692L38.9224 29.6425L38.7879 29.9061L39.0003 30.1133L39.208 30.325L39.4723 30.191L40.1476 29.8451V29.8497C40.528 29.6547 41.0001 29.6593 41.3912 29.9061C41.712 30.1087 42.0542 30.2854 42.4224 30.4378C42.7646 30.5764 43.1114 30.6922 43.4659 30.7744C43.9074 30.8521 44.2924 31.1675 44.4406 31.6214L44.6743 32.339L44.766 32.6193H45.3633L45.455 32.339L45.6888 31.6214C45.8232 31.2147 46.1608 30.8872 46.6115 30.7881C46.9843 30.7013 47.3479 30.5855 47.7069 30.4378C48.0491 30.2946 48.37 30.1316 48.6725 29.9457C49.0452 29.6821 49.5479 29.6258 49.9802 29.8467L50.6555 30.1925L50.9198 30.3265L51.1276 30.1148L51.3399 29.9076L51.2055 29.6441L50.8587 28.9707H50.8633C50.6677 28.5914 50.6723 28.1206 50.9198 27.7322C51.123 27.4123 51.3002 27.071 51.453 26.7039C51.592 26.3626 51.7081 26.0168 51.7906 25.6634C51.8685 25.2231 52.1848 24.8392 52.64 24.6914L53.3626 24.4584L53.6392 24.3685V23.7728L53.3626 23.6814L52.64 23.4483H52.6446C52.2336 23.3143 51.9037 22.9776 51.8043 22.5282C51.7173 22.1565 51.6012 21.7939 51.453 21.4359C51.3094 21.0947 51.1459 20.7748 50.9641 20.4731C50.6952 20.1014 50.6387 19.6002 50.8602 19.1691L51.207 18.4957L51.3414 18.2322L51.1291 18.025L50.9213 17.8132L50.657 17.9473L49.9817 18.2931V18.2885C49.6013 18.4835 49.1293 18.4744 48.7427 18.2322C48.4173 18.0296 48.0751 17.8513 47.7084 17.7005C47.3662 17.5573 47.0194 17.4461 46.665 17.3638C46.2235 17.2861 45.8385 16.9708 45.6903 16.5138L45.4565 15.7962L45.3649 15.5205H44.7675L44.6759 15.7962L44.4421 16.5138C44.3077 16.9236 43.97 17.2526 43.5194 17.3516C43.1466 17.4339 42.783 17.5543 42.424 17.702C42.0817 17.8452 41.7609 18.0082 41.4584 18.1895C41.0856 18.4576 40.583 18.514 40.1507 18.2931L39.4754 17.9473L39.2111 17.8132L39.0033 18.025L38.791 18.2322L38.9254 18.4957L39.2722 19.1691H39.2676C39.4632 19.5499 39.4586 20.0191 39.2111 20.4046C39.0079 20.7291 38.8307 21.0703 38.6779 21.4359C38.5389 21.7726 38.4228 22.123 38.3403 22.4764C38.2624 22.9167 37.9461 23.3006 37.4908 23.4483L36.7682 23.6814L36.4917 23.7728V24.3685L36.7682 24.4584L37.4893 24.6899ZM41.379 20.3924C42.3231 19.4555 43.6263 18.872 45.0639 18.872C46.5015 18.872 47.8047 19.4555 48.7488 20.3924C49.6884 21.3338 50.2735 22.6333 50.2735 24.0668C50.2735 25.5004 49.6884 26.7998 48.7488 27.7367C47.8047 28.6782 46.5015 29.2617 45.0639 29.2617C43.6263 29.2617 42.3231 28.6782 41.379 27.7367C40.4394 26.7998 39.8543 25.5004 39.8543 24.0668C39.8543 22.6333 40.4394 21.3338 41.379 20.3924Z" fill="#3DB8DB"/>
<path fill-rule="evenodd" clip-rule="evenodd" d="M45.0641 26.7449C45.8051 26.7449 46.4758 26.4463 46.9647 25.9589C47.449 25.4759 47.7484 24.8056 47.7484 24.0668C47.7484 23.3279 47.449 22.6591 46.9647 22.1716C46.4758 21.6887 45.8036 21.3901 45.0641 21.3901C44.3247 21.3901 43.6525 21.6887 43.1636 22.1716C42.6793 22.6591 42.3799 23.3294 42.3799 24.0668C42.3799 24.8056 42.6793 25.4744 43.1636 25.9589C43.6525 26.4463 44.3232 26.7449 45.0641 26.7449Z" fill="#3DB8DB"/>
<path fill-rule="evenodd" clip-rule="evenodd" d="M51.366 40.3262H38.7636C38.1525 40.3262 37.6591 40.8182 37.6591 41.4276C37.6545 41.9456 37.6499 42.4681 37.6499 42.983C37.6499 44.7623 38.3771 46.3772 39.5504 47.5471C40.7237 48.7171 42.3432 49.4468 44.1276 49.4468H45.9991C47.7835 49.4468 49.4029 48.7171 50.5762 47.5471C51.7495 46.3772 52.4767 44.7623 52.4767 42.983C52.4767 42.4696 52.4721 41.9471 52.4676 41.4276C52.4691 40.8182 51.9756 40.3262 51.366 40.3262Z" fill="#3DB8DB"/>
<path fill-rule="evenodd" clip-rule="evenodd" d="M22.0685 25.4484H25.9184C26.612 25.4484 27.1788 24.8832 27.1788 24.187C27.1788 23.4954 26.612 22.9302 25.9184 22.9302H22.0685C21.3749 22.9302 20.8081 23.4954 20.8081 24.187C20.8081 24.8832 21.3764 25.4484 22.0685 25.4484Z" fill="#3DB8DB"/>
<path fill-rule="evenodd" clip-rule="evenodd" d="M64.2142 25.4484H68.0595C68.7531 25.4484 69.3199 24.8832 69.3199 24.187C69.3199 23.4954 68.7531 22.9302 68.0595 22.9302H64.2142C63.5175 22.9302 62.9492 23.4954 62.9492 24.187C62.9492 24.8832 63.5175 25.4484 64.2142 25.4484Z" fill="#3DB8DB"/>
<path fill-rule="evenodd" clip-rule="evenodd" d="M29.6994 41.2937L32.4188 38.582C32.9077 38.0899 32.9077 37.2947 32.4188 36.8026C31.9254 36.3106 31.1233 36.3106 30.6344 36.8026L27.915 39.5143C27.4216 40.0064 27.4216 40.8016 27.915 41.2937C28.4039 41.7857 29.206 41.7857 29.6994 41.2937Z" fill="#3DB8DB"/>
<path fill-rule="evenodd" clip-rule="evenodd" d="M59.4937 11.5778L62.2131 8.86617C62.7065 8.3741 62.7065 7.57888 62.2131 7.08682C61.7242 6.59476 60.9221 6.59476 60.4287 7.08682L57.7138 9.79849C57.2204 10.2906 57.2204 11.0858 57.7138 11.5778C58.2043 12.0714 59.0048 12.0714 59.4937 11.5778Z" fill="#3DB8DB"/>
<path fill-rule="evenodd" clip-rule="evenodd" d="M45.0641 6.35415C45.7608 6.35415 46.3245 5.79354 46.3245 5.09734V1.26139C46.3245 0.566709 45.7608 0 45.0641 0C44.3675 0 43.8037 0.565186 43.8037 1.26139V5.09581C43.8037 5.79201 44.3675 6.35415 45.0641 6.35415Z" fill="#3DB8DB"/>
<path fill-rule="evenodd" clip-rule="evenodd" d="M59.4937 36.8026C59.0048 36.3106 58.2027 36.3106 57.7138 36.8026C57.2204 37.2947 57.2204 38.0899 57.7138 38.582L60.4287 41.2937C60.9221 41.7857 61.7242 41.7857 62.2131 41.2937C62.7065 40.8016 62.7065 40.0064 62.2131 39.5143L59.4937 36.8026Z" fill="#3DB8DB"/>
<path fill-rule="evenodd" clip-rule="evenodd" d="M30.6344 11.5778C31.1233 12.0699 31.9254 12.0699 32.4188 11.5778C32.9077 11.0858 32.9077 10.2906 32.4188 9.79849L29.6994 7.08682C29.206 6.59476 28.4039 6.59476 27.915 7.08682C27.4216 7.57888 27.4216 8.3741 27.915 8.86617L30.6344 11.5778Z" fill="#3DB8DB"/>
<path fill-rule="evenodd" clip-rule="evenodd" d="M12.2908 53.6299H0.316244C0.229163 53.6299 0.151247 53.668 0.0947205 53.7243C0.0336105 53.7853 0 53.863 0 53.9483V76.8436C0 76.9305 0.0351383 77.0082 0.0947205 77.0645C0.151247 77.1255 0.229163 77.159 0.316244 77.159H12.2908C12.3778 77.159 12.4558 77.1239 12.5153 77.0645C12.5719 77.0082 12.607 76.9305 12.607 76.8436V53.9498C12.607 53.863 12.5719 53.7853 12.5153 53.7259C12.4542 53.6695 12.3763 53.6299 12.2908 53.6299ZM6.30503 62.4779C4.12187 62.4779 2.35579 60.7122 2.35579 58.5398C2.35579 56.3629 4.1234 54.6018 6.30503 54.6018C8.4836 54.6018 10.2543 56.3644 10.2543 58.5398C10.2543 60.7122 8.4836 62.4779 6.30503 62.4779Z" fill="#3DB8DB"/>
<path fill-rule="evenodd" clip-rule="evenodd" d="M6.30519 57.0381C5.47409 57.0381 4.79883 57.7114 4.79883 58.5417C4.79883 59.3704 5.47409 60.0438 6.30519 60.0438C7.13629 60.0438 7.8085 59.3704 7.8085 58.5417C7.8085 57.7114 7.13629 57.0381 6.30519 57.0381Z" fill="#3DB8DB"/>
<path fill-rule="evenodd" clip-rule="evenodd" d="M74.9331 61.412C74.8506 61.1484 74.6948 60.9108 74.4519 60.7249C73.7766 60.2024 72.5025 60.0165 70.5241 60.501L56.1326 63.9942C55.6392 64.1115 55.3015 64.5304 55.2878 65.0301C55.2786 65.3759 55.2267 65.7217 55.132 66.0584C54.9502 66.7241 54.6034 67.3533 54.1145 67.8895C52.9534 69.1677 51.0055 69.9279 48.5367 69.3962L28.3734 65.0392C27.6936 64.893 27.2597 64.2227 27.4079 63.5448C27.5545 62.8668 28.2267 62.4342 28.9066 62.582L49.0698 66.9389C50.5472 67.2588 51.6472 66.878 52.2522 66.2092C52.4691 65.967 52.6249 65.6867 52.7074 65.3881C52.7853 65.1078 52.7945 64.8138 52.7288 64.5243C52.5638 63.8159 51.9099 63.138 50.6465 62.7663L30.6773 56.9194C29.0013 56.4274 27.3987 56.1593 25.8007 56.112C24.1935 56.0602 22.5741 56.2324 20.8721 56.6178L15.9879 57.7314C15.4807 57.8472 15.1309 58.2844 15.1309 58.8069V71.2441C15.1309 71.7407 15.4471 72.1642 15.9283 72.3029L32.8085 77.1869C35.0695 77.8435 37.2741 78.1025 39.4511 77.9639C41.6297 77.8298 43.7854 77.2951 45.9471 76.3612L72.7011 64.8016C73.9523 64.2623 74.7284 63.3071 74.9408 62.3748C75.0233 62.0305 75.0187 61.6969 74.9331 61.412Z" fill="#3DB8DB"/>
</svg>
