<svg width="60" height="61" viewBox="0 0 60 61" fill="none" xmlns="http://www.w3.org/2000/svg">
<path d="M2.22901 0.195175C1.9009 0.312359 1.45561 0.628754 1.04547 1.03889C-0.102925 2.199 0.00253942 -0.859467 0.00253942 29.9948C0.00253942 60.849 -0.102925 57.7905 1.04547 58.9506C2.19386 60.099 -0.0326158 59.9936 23.6735 59.9936C47.3795 59.9936 45.1531 60.099 46.3015 58.9506C47.4499 57.7905 47.3444 60.849 47.3444 29.9948C47.3444 -0.859467 47.4499 2.199 46.3015 1.03889C45.1531 -0.109497 47.3795 -0.00403214 23.6266 0.0076828C4.88906 0.0076828 2.69774 0.0311203 2.22901 0.195175ZM44.3797 2.6443C44.5554 2.7732 44.7664 3.06615 44.8484 3.2888C45.0476 3.863 45.0476 56.1265 44.8484 56.7007C44.7664 56.9234 44.5554 57.2163 44.3797 57.3452L44.0516 57.5913H23.6735H3.29538L2.96726 57.3452C2.79149 57.2163 2.56884 56.8999 2.48681 56.6538C2.36963 56.314 2.3462 50.7713 2.36963 29.7604L2.40479 3.2888L2.65087 2.96069C2.77977 2.78492 3.07273 2.57399 3.29538 2.49196C3.60005 2.38649 8.42798 2.35134 23.8727 2.37477L44.0516 2.39821L44.3797 2.6443Z" fill="black"/>
<path d="M21.6345 9.44001C21.3884 9.6861 21.3298 9.86187 21.3298 10.3072C21.3298 10.7525 21.3884 10.9282 21.6345 11.1743L21.9509 11.479H26.3569C31.2435 11.479 31.1497 11.4907 31.4075 10.7173C31.513 10.4126 31.513 10.2017 31.4075 9.89703C31.1497 9.12362 31.2435 9.13534 26.3569 9.13534H21.9509L21.6345 9.44001Z" fill="black"/>
<path d="M34.7942 9.47518C34.5247 9.7447 34.4544 9.92047 34.4544 10.3072C34.4544 10.6939 34.5247 10.8697 34.7942 11.1392L35.134 11.479H37.7706H40.3955L40.7119 11.1743C41.1455 10.729 41.1455 9.88532 40.7119 9.44002L40.3955 9.13535H37.7706H35.134L34.7942 9.47518Z" fill="black"/>
<path d="M14.6503 11.5731C14.4628 11.5965 13.537 12.4402 12.166 13.7995L9.97468 15.9674L9.0255 15.0768C8.13491 14.2097 8.0646 14.1745 7.53727 14.1745C7.1037 14.1745 6.91621 14.2331 6.6584 14.4909C6.38888 14.7487 6.33029 14.901 6.33029 15.3932V15.9674L7.83023 17.4791L9.34189 18.979H9.96296H10.584L13.1503 16.4244C14.5682 15.0299 15.8338 13.7409 15.951 13.5652C16.2205 13.1902 16.2674 12.4519 16.0447 12.0887C15.7987 11.6902 15.201 11.4676 14.6503 11.5731Z" fill="black"/>
<path d="M21.6345 16.94C21.3884 17.1861 21.3298 17.3619 21.3298 17.8072C21.3298 18.2525 21.3884 18.4282 21.6345 18.6743L21.9509 18.979H31.1732H40.3954L40.7118 18.6743C41.1454 18.229 41.1454 17.3853 40.7118 16.94L40.3954 16.6353H31.1732H21.9509L21.6345 16.94Z" fill="black"/>
<path d="M6.63497 25.3773C6.38888 25.6351 6.33029 25.7992 6.33029 26.2679V26.8538L7.8771 28.4241L9.4122 29.9943L7.8771 31.5646L6.33029 33.1348V33.7208C6.33029 34.5293 6.71699 34.916 7.52556 34.916H8.11147L9.68172 33.3692L11.252 31.8341L12.8222 33.3692L14.3925 34.916H14.9784C15.7869 34.916 16.1736 34.5293 16.1736 33.7208V33.1348L14.6268 31.5646L13.0917 29.9943L14.6268 28.4241L16.1736 26.8538V26.2679C16.1736 25.4594 15.7869 25.0727 14.9784 25.0727H14.3925L12.8222 26.6195L11.252 28.1546L9.68172 26.6195L8.11147 25.0727H7.52556C7.05683 25.0727 6.89277 25.1313 6.63497 25.3773Z" fill="black"/>
<path d="M21.6345 25.3775C21.3884 25.6236 21.3298 25.7994 21.3298 26.2447C21.3298 26.69 21.3884 26.8657 21.6345 27.1118L21.9509 27.4165H26.3569C31.2435 27.4165 31.1497 27.4282 31.4075 26.6548C31.513 26.3501 31.513 26.1392 31.4075 25.8345C31.1497 25.0611 31.2435 25.0728 26.3569 25.0728H21.9509L21.6345 25.3775Z" fill="black"/>
<path d="M34.7942 25.4127C34.5247 25.6822 34.4544 25.858 34.4544 26.2447C34.4544 26.6314 34.5247 26.8072 34.7942 27.0767L35.134 27.4165H37.7706H40.3955L40.7119 27.1118C41.1455 26.6665 41.1455 25.8228 40.7119 25.3775L40.3955 25.0728H37.7706H35.134L34.7942 25.4127Z" fill="black"/>
<path d="M21.6345 32.877C21.3884 33.1231 21.3298 33.2989 21.3298 33.7442C21.3298 34.1895 21.3884 34.3653 21.6345 34.6113L21.9509 34.916H31.1732H40.3954L40.7118 34.6113C41.1454 34.166 41.1454 33.3223 40.7118 32.877L40.3954 32.5724H31.1732H21.9509L21.6345 32.877Z" fill="black"/>
<path d="M6.63497 41.3143C6.38888 41.5722 6.33029 41.7362 6.33029 42.2049V42.7909L7.8771 44.3611L9.4122 45.9314L7.8771 47.5016L6.33029 49.0718V49.6578C6.33029 50.4663 6.71699 50.853 7.52556 50.853H8.11147L9.68172 49.3062L11.252 47.7711L12.8222 49.3062L14.3925 50.853H14.9784C15.7869 50.853 16.1736 50.4663 16.1736 49.6578V49.0718L14.6268 47.5016L13.0917 45.9314L14.6268 44.3611L16.1736 42.7909V42.2049C16.1736 41.3964 15.7869 41.0097 14.9784 41.0097H14.3925L12.8222 42.5565L11.252 44.0916L9.68172 42.5565L8.11147 41.0097H7.52556C7.05683 41.0097 6.89277 41.0683 6.63497 41.3143Z" fill="black"/>
<path d="M21.6345 41.3145C21.3884 41.5606 21.3298 41.7364 21.3298 42.1817C21.3298 42.627 21.3884 42.8027 21.6345 43.0488L21.9509 43.3535H26.3569C31.2435 43.3535 31.1497 43.3652 31.4075 42.5918C31.513 42.2871 31.513 42.0762 31.4075 41.7715C31.1497 40.9981 31.2435 41.0098 26.3569 41.0098H21.9509L21.6345 41.3145Z" fill="black"/>
<path d="M34.7942 41.3497C34.5247 41.6192 34.4544 41.795 34.4544 42.1817C34.4544 42.5684 34.5247 42.7442 34.7942 43.0137L35.134 43.3535H37.7706H40.3955L40.7119 43.0488C41.1455 42.6035 41.1455 41.7598 40.7119 41.3145L40.3955 41.0099H37.7706H35.134L34.7942 41.3497Z" fill="black"/>
<path d="M21.6345 48.814C21.3884 49.0601 21.3298 49.2359 21.3298 49.6812C21.3298 50.1265 21.3884 50.3023 21.6345 50.5484L21.9509 50.853H31.1732H40.3954L40.7118 50.5484C41.1454 50.1031 41.1454 49.2593 40.7118 48.814L40.3954 48.5094H31.1732H21.9509L21.6345 48.814Z" fill="black"/>
<path d="M53.8594 6.60468C52.6407 7.12028 51.7853 7.99915 51.34 9.19442C51.0939 9.83892 51.0939 10.0147 51.0939 19.1432V28.4358L51.3986 28.7522C51.8439 29.1858 52.6876 29.1858 53.1329 28.7522L53.4376 28.4358V21.4869V14.5262H55.5468H57.6561V32.3966V50.267H55.5468H53.4376V44.068V37.8808L53.1329 37.5644C52.6876 37.1308 51.8439 37.1308 51.3986 37.5644L51.0939 37.8808V44.9235V51.9779L52.7813 55.716C53.7071 57.7784 54.5859 59.583 54.7266 59.7236C55.0898 60.1103 56.0039 60.1103 56.3671 59.7236C56.5077 59.5713 57.3866 57.7667 58.3124 55.716L59.9998 51.9779L59.9764 30.7561L59.9412 9.54597L59.5662 8.77256C59.1092 7.84682 58.371 7.132 57.4452 6.69843C56.8945 6.44062 56.5781 6.38203 55.664 6.34688C54.7031 6.32344 54.457 6.35859 53.8594 6.60468ZM56.4023 8.94833C57.1991 9.27645 57.6561 10.2256 57.6561 11.5381V12.0654H55.5468H53.4376V11.5381C53.4376 9.80377 54.1875 8.78428 55.4648 8.78428C55.7695 8.78428 56.1914 8.85459 56.4023 8.94833ZM56.2734 54.1926C55.9101 55.0012 55.582 55.6574 55.5468 55.6574C55.5117 55.6574 55.1836 55.0012 54.8203 54.1926L54.1641 52.7278H55.5468H56.9296L56.2734 54.1926Z" fill="black"/>
<path d="M51.3986 32.2911C51.1525 32.5372 51.0939 32.713 51.0939 33.1583C51.0939 33.6035 51.1525 33.7793 51.3986 34.0254C51.6447 34.2715 51.8204 34.3301 52.2657 34.3301C52.711 34.3301 52.8868 34.2715 53.1329 34.0254C53.379 33.7793 53.4376 33.6035 53.4376 33.1583C53.4376 32.713 53.379 32.5372 53.1329 32.2911C52.8868 32.045 52.711 31.9864 52.2657 31.9864C51.8204 31.9864 51.6447 32.045 51.3986 32.2911Z" fill="black"/>
</svg>
