<svg width="578" height="578" viewBox="0 0 578 578" fill="none" xmlns="http://www.w3.org/2000/svg">
<path d="M265.988 435.736C260.513 439.525 254.819 443.332 248.313 444.746C241.807 446.16 234.227 444.652 230.169 439.373C223.819 431.112 227.129 416.424 232.848 408.956C234.8 406.407 236.902 404.079 239.133 401.961C257.349 384.677 284.208 381.778 307.949 386.278C321.519 388.85 337.65 393.554 348.531 402.462C351.85 405.178 354.617 408.733 355.726 412.876C356.611 416.183 356.289 420.02 354.023 422.586C352.279 424.561 349.665 425.517 347.108 426.153C335.957 428.931 324.257 427.034 312.841 425.722C304.596 424.774 296.104 424.157 287.913 425.857C279.724 427.557 272.83 430.999 265.988 435.736Z" fill="#E0E0E0"/>
<path d="M162.454 342.147L162.446 342.151L162.513 366.345L162.523 366.339C162.527 366.991 162.885 367.655 163.628 368.19L176.38 377.365C175.399 378.114 174.246 378.661 173.156 378.73L136.012 381.08C134.095 381.2 132.54 382.857 132.54 384.777V405.499C132.54 405.534 132.557 405.564 132.559 405.599L132.606 429.662C132.606 431.582 134.161 433.239 136.077 433.36L173.222 435.709C174.288 435.777 175.416 436.3 176.385 437.024L163.562 446.25C162.818 446.784 162.461 447.447 162.457 448.099L162.447 448.102L162.514 472.334L162.516 472.332C162.541 473.024 162.974 473.697 163.817 474.182L191.69 490.274C193.354 491.234 196.114 491.358 197.858 490.551L226.112 477.462C227.856 476.655 230.743 476.503 232.577 477.077C239.616 479.277 246.972 481.011 254.513 482.291C256.407 482.613 258.237 484.37 258.595 486.259L262.129 504.876C262.487 506.764 264.334 508.293 266.256 508.293L307.238 508.294C309.158 508.294 311.007 506.764 311.365 504.877L314.9 486.259C315.259 484.371 317.091 482.613 318.984 482.291C326.525 481.011 333.883 479.275 340.922 477.076C342.754 476.502 345.641 476.655 347.384 477.463L375.639 490.552C377.381 491.36 380.143 491.235 381.806 490.276L409.68 474.183C410.538 473.687 410.967 472.997 410.975 472.292L410.985 472.294L410.918 448.107L410.906 448.105C410.905 447.452 410.546 446.787 409.801 446.251L397.05 437.076C398.032 436.326 399.183 435.78 400.274 435.71L437.418 433.36C439.334 433.239 440.889 431.582 440.888 429.662L440.831 400.6C440.831 400.588 440.823 400.577 440.823 400.564L440.822 384.779C440.822 382.858 439.268 381.203 437.352 381.081L400.21 378.73C399.143 378.662 398.014 378.139 397.046 377.416L409.868 368.19C410.622 367.646 410.982 366.972 410.975 366.311L410.985 366.315L410.918 342.153L410.908 342.152C410.901 341.446 410.473 340.753 409.612 340.257L381.738 324.164C380.074 323.205 377.313 323.081 375.569 323.888L347.314 336.978C345.571 337.786 342.684 337.936 340.849 337.363C333.812 335.161 326.457 333.429 318.918 332.149C317.025 331.828 315.193 330.069 314.834 328.182L311.297 309.563C310.94 307.675 309.091 306.146 307.17 306.145L266.188 306.144C264.267 306.144 262.419 307.674 262.062 309.561L258.527 328.179C258.168 330.067 256.336 331.825 254.443 332.147C246.901 333.427 239.545 335.161 232.507 337.361C230.673 337.935 227.788 337.782 226.045 336.975L197.792 323.886C196.05 323.079 193.288 323.203 191.624 324.163L163.75 340.257C162.893 340.754 162.463 341.443 162.454 342.147ZM353.418 433.671C316.563 454.95 256.804 454.947 219.949 433.669C205.536 425.348 196.787 415.003 193.646 404.219C197.63 395.427 206.443 386.84 219.961 379.036C256.82 357.757 316.573 357.757 353.43 379.035C367.847 387.36 376.294 396.62 379.13 406.083C375.557 416.192 366.999 425.83 353.418 433.671Z" fill="#3DB8DB"/>
<g opacity="0.2">
<path d="M132.602 429.676C132.594 431.575 134.153 433.234 136.083 433.352L173.231 435.717C173.822 435.755 174.446 435.964 175.052 436.244L175.009 412.046C174.405 411.764 173.755 411.571 173.141 411.545L136.007 409.203C134.259 409.075 132.814 407.668 132.565 405.979L132.602 429.676ZM162.501 366.368L162.525 366.354C162.515 366.991 162.898 367.654 163.629 368.212L176.409 377.382C177.147 376.799 177.753 376.101 178.164 375.39C180.119 371.829 182.603 368.31 185.649 364.941C185.774 364.774 185.899 364.607 186.06 364.45C186.405 364.063 186.662 363.63 186.805 363.168C186.845 363.019 186.886 362.869 186.911 362.695C186.954 362.386 186.937 362.081 186.88 361.766C186.79 361.281 186.553 360.818 186.185 360.399C186.052 360.224 185.858 360.051 185.655 359.916L163.562 344.026C163.358 343.89 163.214 343.752 163.058 343.59C162.836 343.369 162.663 343.123 162.611 342.87C162.499 342.619 162.446 342.365 162.469 342.13L162.446 342.144L162.501 366.368ZM162.515 472.35C162.531 473.035 162.975 473.695 163.826 474.183L191.689 490.278C192.832 490.945 194.489 491.189 195.999 491.012L195.958 466.874C194.45 467.052 192.78 466.784 191.637 466.117L163.75 450.036C162.974 449.567 162.534 448.969 162.447 448.325L162.515 472.35ZM344.607 476.812C345.605 476.899 346.61 477.108 347.378 477.454L375.624 490.549C376.354 490.885 377.244 491.003 378.153 491.047L378.091 466.922C377.17 466.917 376.278 466.737 375.571 466.388L347.322 453.293C346.555 452.946 345.573 452.724 344.538 452.627L344.607 476.812ZM262.678 506.237C263.437 507.441 264.812 508.29 266.27 508.3L307.236 508.305C308.141 508.286 308.992 507.955 309.718 507.408L309.688 483.232C308.973 483.802 308.087 484.125 307.18 484.142L266.178 484.128C264.831 484.148 263.534 483.38 262.747 482.288L262.678 506.237Z" fill="black"/>
</g>
<path d="M191.625 324.164L163.751 340.258C162.087 341.219 162.003 342.907 163.562 344.029L185.652 359.923C187.212 361.044 187.357 363.041 186.062 364.458C182.835 367.987 180.21 371.651 178.174 375.398C177.257 377.086 175.074 378.608 173.157 378.731L136.012 381.081C134.096 381.201 132.541 382.858 132.541 384.778V405.5C132.541 407.422 134.095 409.077 136.011 409.199L173.156 411.549C175.074 411.671 177.257 413.195 178.174 414.883C180.209 418.63 182.834 422.294 186.062 425.823C187.357 427.24 187.211 429.234 185.651 430.356L163.562 446.251C162.003 447.372 162.087 449.061 163.751 450.02L191.624 466.113C193.288 467.074 196.049 467.197 197.791 466.39L226.046 453.301C227.79 452.494 230.678 452.343 232.512 452.916C239.551 455.116 246.906 456.851 254.447 458.131C256.342 458.452 258.172 460.211 258.529 462.097L262.064 480.718C262.422 482.605 264.27 484.134 266.191 484.134H307.176C309.096 484.133 310.943 482.605 311.303 480.717L314.836 462.098C315.195 460.212 317.027 458.452 318.921 458.131C326.46 456.851 333.817 455.115 340.856 452.915C342.689 452.342 345.574 452.494 347.318 453.301L375.572 466.392C377.315 467.2 380.076 467.076 381.74 466.114L409.613 450.021C411.277 449.061 411.361 447.373 409.802 446.252L387.712 430.358C386.152 429.235 386.007 427.24 387.303 425.823C390.53 422.294 393.155 418.631 395.191 414.883C396.109 413.195 398.293 411.672 400.211 411.55L437.354 409.2C439.271 409.078 440.825 407.424 440.825 405.503L440.824 384.781C440.823 382.861 439.269 381.205 437.353 381.083L400.211 378.731C398.293 378.61 396.108 377.086 395.19 375.397C393.153 371.649 390.528 367.987 387.301 364.458C386.006 363.039 386.152 361.045 387.712 359.924L409.802 344.029C411.361 342.907 411.277 341.219 409.613 340.258L381.739 324.165C380.075 323.206 377.314 323.081 375.57 323.889L347.315 336.979C345.572 337.787 342.684 337.937 340.85 337.364C333.813 335.163 326.458 333.43 318.919 332.15C317.026 331.827 315.194 330.07 314.835 328.184L311.298 309.564C310.941 307.676 309.092 306.147 307.171 306.147L266.188 306.146C264.268 306.147 262.42 307.676 262.063 309.563L258.528 328.183C258.169 330.069 256.337 331.827 254.444 332.15C246.902 333.431 239.546 335.165 232.507 337.365C230.674 337.937 227.788 337.785 226.045 336.979L197.791 323.889C196.049 323.08 193.289 323.205 191.625 324.164ZM353.416 356.611C390.271 377.889 390.272 412.393 353.418 433.671C316.562 454.95 256.804 454.947 219.948 433.669C183.093 412.389 183.093 377.891 219.948 356.611C256.805 335.332 316.559 335.334 353.416 356.611Z" fill="#3DB8DB"/>
<g opacity="0.3">
<path d="M191.625 324.164L163.751 340.258C162.087 341.219 162.003 342.907 163.562 344.029L185.652 359.923C187.212 361.044 187.357 363.041 186.062 364.458C182.835 367.987 180.21 371.651 178.174 375.398C177.257 377.086 175.074 378.608 173.157 378.731L136.012 381.081C134.096 381.201 132.541 382.858 132.541 384.778V405.5C132.541 407.422 134.095 409.077 136.011 409.199L173.156 411.549C175.074 411.671 177.257 413.195 178.174 414.883C180.209 418.63 182.834 422.294 186.062 425.823C187.357 427.24 187.211 429.234 185.651 430.356L163.562 446.251C162.003 447.372 162.087 449.061 163.751 450.02L191.624 466.113C193.288 467.074 196.049 467.197 197.791 466.39L226.046 453.301C227.79 452.494 230.678 452.343 232.512 452.916C239.551 455.116 246.906 456.851 254.447 458.131C256.342 458.452 258.172 460.211 258.529 462.097L262.064 480.718C262.422 482.605 264.27 484.134 266.191 484.134H307.176C309.096 484.133 310.943 482.605 311.303 480.717L314.836 462.098C315.195 460.212 317.027 458.452 318.921 458.131C326.46 456.851 333.817 455.115 340.856 452.915C342.689 452.342 345.574 452.494 347.318 453.301L375.572 466.392C377.315 467.2 380.076 467.076 381.74 466.114L409.613 450.021C411.277 449.061 411.361 447.373 409.802 446.252L387.712 430.358C386.152 429.235 386.007 427.24 387.303 425.823C390.53 422.294 393.155 418.631 395.191 414.883C396.109 413.195 398.293 411.672 400.211 411.55L437.354 409.2C439.271 409.078 440.825 407.424 440.825 405.503L440.824 384.781C440.823 382.861 439.269 381.205 437.353 381.083L400.211 378.731C398.293 378.61 396.108 377.086 395.19 375.397C393.153 371.649 390.528 367.987 387.301 364.458C386.006 363.039 386.152 361.045 387.712 359.924L409.802 344.029C411.361 342.907 411.277 341.219 409.613 340.258L381.739 324.165C380.075 323.206 377.314 323.081 375.57 323.889L347.315 336.979C345.572 337.787 342.684 337.937 340.85 337.364C333.813 335.163 326.458 333.43 318.919 332.15C317.026 331.827 315.194 330.07 314.835 328.184L311.298 309.564C310.941 307.676 309.092 306.147 307.171 306.147L266.188 306.146C264.268 306.147 262.42 307.676 262.063 309.563L258.528 328.183C258.169 330.069 256.337 331.827 254.444 332.15C246.902 333.431 239.546 335.165 232.507 337.365C230.674 337.937 227.788 337.785 226.045 336.979L197.791 323.889C196.049 323.08 193.289 323.205 191.625 324.164ZM353.416 356.611C390.271 377.889 390.272 412.393 353.418 433.671C316.562 454.95 256.804 454.947 219.948 433.669C183.093 412.389 183.093 377.891 219.948 356.611C256.805 335.332 316.559 335.334 353.416 356.611Z" fill="white"/>
</g>
<path d="M299.899 379.65L297.583 359.036L321.06 356.922C321.06 356.922 320.067 372.811 320.209 380.098C320.276 383.533 322.704 389.995 322.704 389.995C322.704 389.995 312.877 395.095 307.777 393.009C302.676 390.922 299.303 382.882 299.425 381.411C299.546 379.939 299.899 379.65 299.899 379.65Z" fill="#FFBDA7"/>
<path d="M349.915 412.089C350.239 412.094 350.482 415.083 348.694 416.547C346.631 418.237 340.076 421.47 332.214 420.33C324.352 419.19 320.131 416.716 317.026 414.062C313.922 411.409 309.571 407.667 306.021 406.831C302.724 406.054 298.285 403.335 297.243 402.309C296.203 401.282 296.433 396.804 296.433 396.804L349.915 412.089Z" fill="black"/>
<path d="M299.896 379.615C299.896 379.615 298.907 379.609 298.684 380.643C298.418 381.874 298.09 385.46 297.531 387.477C296.755 390.282 296.162 396.047 296.554 398.349C296.946 400.652 303.184 403.521 306.609 404.874C310.108 406.256 314.132 409.05 317.654 412.017C321.3 415.087 329.032 418.349 334.169 418.401C340.247 418.463 347.124 416.643 348.744 413.895C350.747 410.495 352.235 406.532 343.303 402.265C341.611 401.457 335.686 397.862 333.667 396.561C328.206 393.041 324.379 389.832 321.95 383.728C321.666 383.015 321.37 382.225 320.689 381.853C320.167 381.568 319.533 381.597 318.94 381.667C317.435 381.849 311.433 382.558 310.052 383.177C308.833 383.724 307.105 384.355 307.102 385.881C307.101 386.411 307.248 386.932 307.413 387.437C307.515 387.75 307.593 388.165 307.313 388.345C307.048 388.514 306.706 388.311 306.475 388.099C305.546 387.251 304.876 386.172 304.099 385.186C303.683 384.659 302.358 382.971 301.829 382.551C301.348 382.17 300.729 381.972 300.304 381.541C299.764 380.994 299.907 380.331 299.896 379.615Z" fill="black"/>
<path d="M317.654 412.018C316.106 410.714 314.461 409.453 312.806 408.321V408.313C312.806 408.313 323.284 414.839 327.619 412.034C330.412 410.227 329.142 407.95 329.089 407.229C329.036 406.507 338.869 401.592 341.554 401.324C342.293 401.742 342.903 402.102 343.302 402.267C350.287 405.158 351.156 408.746 349.903 413.217C348.283 415.964 342.129 418.724 334.274 418.589C329.138 418.498 321.3 415.088 317.654 412.018Z" fill="black"/>
<path d="M328.387 405.116C333.949 407.418 331.54 408.408 329.966 408.601C328.393 408.795 319.064 403.208 313.396 398.628C307.483 393.85 302.926 387.496 300.729 385.741C299.91 385.087 299.031 384.285 298.248 383.537C298.418 382.325 298.558 381.221 298.683 380.642C298.906 379.608 299.895 379.614 299.895 379.614C299.908 380.33 299.765 380.993 300.302 381.54C300.728 381.971 301.346 382.169 301.827 382.551C302.356 382.971 303.681 384.658 304.097 385.185C304.873 386.171 305.545 387.248 306.473 388.097C311.252 394.298 322.826 402.813 328.387 405.116Z" fill="black"/>
<path d="M329.583 407.784C329.46 407.781 329.336 407.74 329.234 407.654C329.001 407.46 328.971 407.115 329.171 406.884C330.788 405.005 338.366 400.609 342.48 401.126C342.785 401.163 343 401.437 342.961 401.735C342.923 402.034 342.676 402.238 342.341 402.209C338.5 401.735 331.297 406.1 330.016 407.591C329.905 407.72 329.744 407.786 329.583 407.784Z" fill="black"/>
<path d="M324.751 404.736C324.628 404.734 324.504 404.692 324.402 404.607C324.169 404.411 324.141 404.068 324.339 403.837C325.955 401.958 333.53 397.567 337.648 398.081C337.952 398.118 338.168 398.392 338.127 398.69C338.089 398.989 337.82 399.201 337.509 399.164C333.665 398.696 326.465 403.054 325.184 404.543C325.073 404.674 324.912 404.74 324.751 404.736Z" fill="black"/>
<path d="M319.915 401.848C319.791 401.845 319.667 401.804 319.565 401.718C319.332 401.524 319.304 401.179 319.502 400.948C321.119 399.069 328.697 394.67 332.811 395.191C333.115 395.228 333.331 395.502 333.292 395.802C333.254 396.1 332.989 396.313 332.672 396.276C328.828 395.802 321.628 400.164 320.347 401.654C320.237 401.785 320.076 401.85 319.915 401.848Z" fill="black"/>
<path d="M315.445 398.566C315.321 398.563 315.198 398.522 315.097 398.436C314.862 398.242 314.836 397.898 315.033 397.666C316.65 395.787 324.244 391.394 328.342 391.911C328.647 391.948 328.863 392.222 328.823 392.52C328.785 392.818 328.518 393.03 328.204 392.994C324.366 392.523 317.161 396.883 315.879 398.373C315.766 398.502 315.606 398.568 315.445 398.566Z" fill="black"/>
<path d="M311.068 395.285C310.947 395.283 310.826 395.242 310.725 395.161C310.488 394.97 310.456 394.626 310.649 394.394C312.873 391.728 320.792 388.083 324.904 388.599C325.208 388.636 325.424 388.91 325.385 389.208C325.347 389.507 325.078 389.711 324.765 389.682C321.062 389.22 313.479 392.724 311.505 395.086C311.394 395.22 311.229 395.287 311.068 395.285Z" fill="black"/>
<path d="M262.161 384.653L267.746 359.899L243.325 356.09L242.934 380.527C242.934 380.527 241.069 387.099 242.445 389.359C243.82 391.619 258.492 393.996 259.837 392.491C261.18 390.986 262.161 384.653 262.161 384.653Z" fill="#FFBDA7"/>
<path d="M259.723 423.664C259.081 429.216 257.916 432.806 255.514 435.814C253.111 438.822 248.831 439.336 244.594 437.85C240.357 436.365 234.996 433.123 234.006 428.144C233.015 423.165 233.425 419.887 234.653 414.814L259.723 423.664Z" fill="black"/>
<path d="M242.934 380.527C241.163 380.434 241.642 384.805 240.807 392.292C239.904 400.391 236.252 406.74 234.953 413.233C233.468 420.652 233.75 424.083 236.515 429.017C239.279 433.952 249.64 439.728 255.176 433.824C259.688 429.01 260.153 423.117 260.137 415.524C260.119 407.676 260.037 402.147 260.686 396.272C261.308 390.657 263.663 385.469 262.161 384.653C262.002 385.469 260.498 391.157 259.508 391.065C259.452 390.331 259.503 389.66 259.593 388.931C259.671 388.298 259.645 387.592 259.199 387.047C258.749 386.498 257.06 385.813 256.351 385.6C254.629 385.082 251.553 384.439 249.794 384.082C248.919 383.904 248.038 383.76 247.156 383.66C246.441 383.58 245.595 383.53 244.906 383.669C244.483 383.755 244.085 383.97 243.913 384.32C243.786 384.579 243.793 384.881 243.779 385.171C243.753 385.694 243.653 386.207 243.482 386.695C243.406 386.91 243.219 387.16 242.969 387.076C242.766 387.007 242.697 386.771 242.705 386.584C242.741 385.672 242.873 381.006 242.934 380.527Z" fill="black"/>
<path d="M235.459 411.133C235.233 412.202 233.838 419.29 235.993 420.863C238.324 422.564 239.921 417.052 239.921 417.052C239.921 417.052 245.628 416.214 253.67 420.396C253.192 421.515 254.267 425.531 256.557 424.991C258.831 424.454 260.119 416.286 260.136 416.18C260.122 423.456 259.557 429.151 255.177 433.825C249.642 439.729 239.28 433.953 236.516 429.018C233.751 424.083 233.469 420.653 234.954 413.234C235.102 412.49 235.273 411.797 235.459 411.133Z" fill="black"/>
<path d="M240.54 417.615C240.37 420.342 237.371 419.048 237.428 415.175C237.484 411.302 239.516 401.897 240.285 395.565C240.798 386.454 241.161 380.435 242.932 380.527C242.921 380.619 242.919 380.712 242.909 380.804C242.909 380.804 242.727 385.994 242.701 386.584C242.383 392.149 242.312 402.963 241.52 407.991C240.729 413.017 240.709 414.888 240.54 417.615Z" fill="black"/>
<path d="M252.723 420.204C253.434 417.592 254.01 415.838 254.874 410.826C255.732 405.852 258.71 395.892 260.185 390.536C260.662 389.656 262.161 384.653 262.161 384.653C263.387 385 262.161 389.772 261.588 392.004C261.015 394.237 260.314 396.63 259.597 399.834C257.765 406.147 257.591 415.625 256.409 419.259C255.228 422.895 252.012 422.816 252.723 420.204Z" fill="black"/>
<path d="M253.832 420.638C253.751 420.621 253.671 420.59 253.596 420.547C253.535 420.509 247.271 416.823 240.061 417.634C239.706 417.672 239.358 417.443 239.28 417.124C239.202 416.804 239.426 416.512 239.78 416.472C247.493 415.605 253.979 419.429 254.253 419.594C254.565 419.782 254.672 420.146 254.49 420.409C254.355 420.608 254.088 420.693 253.832 420.638Z" fill="black"/>
<path d="M255.597 414.891C255.524 414.875 255.452 414.849 255.381 414.811C255.312 414.773 248.256 410.899 240.226 411.556C239.871 411.58 239.53 411.347 239.462 411.024C239.396 410.703 239.632 410.417 239.987 410.388C248.479 409.699 255.694 413.666 255.998 413.833C256.317 414.012 256.438 414.375 256.268 414.645C256.136 414.855 255.862 414.947 255.597 414.891Z" fill="black"/>
<path d="M240.931 405.975C240.685 405.923 240.47 405.75 240.395 405.518C240.295 405.199 240.493 404.892 240.841 404.831C248.871 403.425 256.514 407.946 256.837 408.141C257.15 408.328 257.256 408.692 257.074 408.957C256.891 409.219 256.486 409.274 256.179 409.092C256.106 409.049 248.68 404.666 241.209 405.981C241.116 405.999 241.023 405.995 240.931 405.975Z" fill="black"/>
<path d="M241.646 400.721C241.404 400.671 241.191 400.501 241.114 400.274C241.006 399.956 241.198 399.646 241.544 399.581C250.383 397.885 257.564 402.682 257.864 402.886C258.165 403.09 258.246 403.458 258.045 403.709C257.843 403.959 257.428 403.998 257.136 403.793C257.07 403.747 250.16 399.149 241.933 400.725C241.837 400.743 241.739 400.741 241.646 400.721Z" fill="black"/>
<path d="M242.476 394.821C242.238 394.77 242.027 394.605 241.947 394.381C241.834 394.065 242.022 393.752 242.366 393.682C250.655 391.975 258.468 396.947 258.795 397.163C259.102 397.36 259.191 397.728 258.996 397.984C258.805 398.241 258.4 398.292 258.092 398.088C258.016 398.04 250.469 393.239 242.772 394.825C242.673 394.843 242.572 394.842 242.476 394.821Z" fill="black"/>
<path d="M251.141 198.437C247.782 242.365 246.302 307.904 246.302 307.904C246.002 311.239 244.103 315.909 242.555 332.364C240.922 349.722 242.153 369.831 242.153 369.831C242.153 369.831 256.827 376.096 265.947 372.859C265.947 372.859 274.579 340.358 279.322 319.914C283.809 300.566 287.114 270.31 287.114 270.31L292.442 299.457C292.442 299.457 291.773 311.98 292.086 320.744C292.452 330.937 297.954 369.965 297.954 369.965C297.954 369.965 311.588 378.13 321.074 370.348C321.074 370.348 325.691 313.066 326 300.805C326.603 276.757 327.292 229.458 324.451 198.434H251.141V198.437Z" fill="black"/>
<path d="M287.112 270.311L291.907 239.064C291.907 239.064 302.954 237.38 308.63 231.918C308.63 231.918 304.955 239.158 294.534 241.952L289.773 270.393L292.44 299.458L287.112 270.311Z" fill="black"/>
<path d="M241.9 370.68C245.998 373.893 257.933 376.633 266.1 373.679L267.745 366.783C261.579 368.859 248.877 367.542 242.039 363.323L241.9 370.68Z" fill="black"/>
<path d="M297.953 370.769C300.718 373.573 313.534 375.894 321.105 371.458L321.664 364.535C315.925 367.733 302.737 367.187 297.113 363.904L297.953 370.769Z" fill="black"/>
<path d="M247.255 267.052C247.255 267.052 245.984 297.965 246.072 300.217C246.16 302.469 262.962 306.919 263.398 305.489C264.124 303.107 263.942 297.794 265.393 272.186C251.461 270.384 247.255 267.052 247.255 267.052Z" fill="#3DB8DB"/>
<path d="M262.772 280.996C262.266 280.827 261.713 280.877 261.188 280.864C260.571 280.849 259.955 280.821 259.34 280.77C258.04 280.662 256.745 280.463 255.47 280.176C254.03 279.853 252.608 279.417 251.227 278.887C250.101 278.456 249.036 277.872 247.909 277.452C247.802 277.412 247.785 277.617 247.853 277.667C248.921 278.447 250.188 278.982 251.402 279.471C252.545 279.931 253.716 280.305 254.91 280.602C256.181 280.918 257.471 281.147 258.77 281.287C259.42 281.356 260.072 281.404 260.725 281.429C261.342 281.452 262.224 281.593 262.782 281.283C262.866 281.235 262.876 281.032 262.772 280.996Z" fill="black"/>
<path d="M255.461 276.682C255.3 276.364 255.176 276.166 254.814 276.124C254.519 276.089 254.212 276.163 253.968 276.339C253.738 276.505 253.585 276.756 253.551 277.039C253.492 277.523 253.74 277.97 254.152 278.201C254.508 278.401 255.012 278.432 255.354 278.181C255.579 278.016 255.643 277.747 255.646 277.475C255.65 277.204 255.584 276.922 255.461 276.682ZM255.142 277.625C254.956 277.876 254.555 277.933 254.296 277.784C253.867 277.536 253.955 276.705 254.481 276.65C254.645 276.632 254.819 276.669 254.951 276.772C255.174 276.947 255.331 277.372 255.142 277.625Z" fill="black"/>
<path d="M331.188 138.017C335.232 144.484 345.514 158.426 345.514 158.426C345.514 158.426 366.982 143.537 369.036 140.674C373.155 134.933 374.159 130.19 379.541 128.803C384.923 127.415 391.715 125.784 391.715 125.784L386.649 150.986C384.335 153.613 381.48 152.516 375.708 158.181C371.418 162.391 360.954 171.397 351.916 178.29C344.32 184.084 338.875 180.929 335.339 176.625C326.681 166.086 319.366 157.601 319.366 157.601L306.485 118.215C318.356 119.523 323.27 125.355 331.188 138.017Z" fill="#FFA8A7"/>
<path d="M303.893 117.172C314.927 116.865 322.008 122.178 328.957 132.653C333.163 138.994 345.62 157.478 345.62 157.478L360.92 146.854C360.92 146.854 363.049 153.845 367.719 157.349C371.775 160.393 375.184 158.692 375.184 158.692C375.184 158.692 369.293 165.569 358.656 174.186C347.084 183.56 343.169 184.343 338.025 180.439C335.479 178.507 333.797 176.395 328.958 170.809C323.143 164.098 318.948 158.411 318.948 158.411L303.893 117.172Z" fill="black"/>
<path d="M281.978 114.894C281.978 114.894 266.219 118.1 257.182 120.472C254.098 121.282 251.412 130.06 252.726 148.205C253.256 155.505 253.821 170.154 253.883 175.619C253.971 183.36 249.508 208.746 249.508 208.746C273.38 223.42 317.981 218.664 326.537 210.806C326.537 210.806 324.669 168.006 324.369 162.814C323.253 143.416 321.998 134.87 315.47 126.019C311.047 120.022 303.893 117.173 303.893 117.173L281.978 114.894Z" fill="#3DB8DB"/>
<path d="M390.506 74.7537L396.978 76.5212L384.37 105.374L387.169 115.755L391.662 114.94L404.404 85.8096L410.875 87.5772C411.15 88.3401 411.399 89.1308 411.624 89.9678C415.596 104.696 410.017 125.46 399.164 136.346C393.688 141.839 387.928 143.753 383.051 142.422L383.052 142.424L376.611 140.663C376.213 140.555 375.824 140.42 375.439 140.27L250.591 263.807C249.87 275.987 244.798 288.999 236.95 296.871C232.88 300.953 228.66 303.06 224.75 303.343L218.278 301.576L230.886 272.722L228.087 262.341L223.594 263.156L210.852 292.285L204.381 290.518C204.105 289.755 203.857 288.964 203.632 288.127C199.66 273.398 205.239 252.634 216.091 241.748C221.504 236.32 227.191 234.394 232.031 235.634V235.626L232.147 235.657C232.175 235.664 232.201 235.672 232.229 235.679L238.453 237.38L238.434 237.387C238.899 237.503 239.35 237.668 239.799 237.841L364.665 114.288C365.386 102.108 370.458 89.0962 378.307 81.2238C382.376 77.1431 386.597 75.0369 390.506 74.7537Z" fill="#3DB8DB"/>
<path opacity="0.2" d="M390.506 74.7537L396.978 76.5212L384.37 105.374L387.169 115.755L391.662 114.94L404.404 85.8096L410.875 87.5772C411.15 88.3401 411.399 89.1308 411.624 89.9678C415.596 104.696 410.017 125.46 399.164 136.346C393.688 141.839 387.928 143.753 383.051 142.422L383.052 142.424L376.611 140.663C376.213 140.555 375.824 140.42 375.439 140.27L250.591 263.807C249.87 275.987 244.798 288.999 236.95 296.871C232.88 300.953 228.66 303.06 224.75 303.343L218.278 301.576L230.886 272.722L228.087 262.341L223.594 263.156L210.852 292.285L204.381 290.518C204.105 289.755 203.857 288.964 203.632 288.127C199.66 273.398 205.239 252.634 216.091 241.748C221.504 236.32 227.191 234.394 232.031 235.634V235.626L232.147 235.657C232.175 235.664 232.201 235.672 232.229 235.679L238.453 237.38L238.434 237.387C238.899 237.503 239.35 237.668 239.799 237.841L364.665 114.288C365.386 102.108 370.458 89.0962 378.307 81.2238C382.376 77.1431 386.597 75.0369 390.506 74.7537Z" fill="white"/>
<path opacity="0.4" d="M384.37 105.374L377.898 103.606L381.454 116.792L387.17 115.755L384.37 105.374Z" fill="#3DB8DB"/>
<path opacity="0.4" d="M223.593 263.157L217.122 261.389L227.33 259.537L228.087 262.342L223.593 263.157Z" fill="#3DB8DB"/>
<path opacity="0.4" d="M250.591 263.807L244.12 262.04L370.606 136.883L377.076 138.651L250.591 263.807Z" fill="#3DB8DB"/>
<path d="M238.18 239.446L364.665 114.29C365.386 102.11 370.458 89.0985 378.306 81.2261C382.376 77.1443 386.596 75.0369 390.506 74.7537L377.899 103.607L381.455 116.793L391.662 114.941L404.404 85.8108C404.679 86.5738 404.927 87.3645 405.153 88.2014C409.125 102.93 403.546 123.694 392.692 134.58C384.737 142.56 376.183 142.988 370.605 136.884L244.12 262.04C243.398 274.218 238.327 287.231 230.479 295.103C226.409 299.185 222.189 301.293 218.278 301.576L230.886 272.722L227.33 259.537L217.122 261.389L204.381 290.518C204.105 289.755 203.857 288.964 203.632 288.127C199.66 273.398 205.239 252.634 216.091 241.748C224.048 233.768 232.601 233.341 238.18 239.446Z" fill="#3DB8DB"/>
<path opacity="0.6" d="M238.18 239.446L364.665 114.29C365.386 102.11 370.458 89.0985 378.306 81.2261C382.376 77.1443 386.596 75.0369 390.506 74.7537L377.899 103.607L381.455 116.793L391.662 114.941L404.404 85.8108C404.679 86.5738 404.927 87.3645 405.153 88.2014C409.125 102.93 403.546 123.694 392.692 134.58C384.737 142.56 376.183 142.988 370.605 136.884L244.12 262.04C243.398 274.218 238.327 287.231 230.479 295.103C226.409 299.185 222.189 301.293 218.278 301.576L230.886 272.722L227.33 259.537L217.122 261.389L204.381 290.518C204.105 289.755 203.857 288.964 203.632 288.127C199.66 273.398 205.239 252.634 216.091 241.748C224.048 233.768 232.601 233.341 238.18 239.446Z" fill="white"/>
<path opacity="0.2" d="M355.5 131.043L249.772 235.639C247.243 238.143 245.836 242.663 246.631 245.737C247.426 248.809 250.12 249.272 252.65 246.768L358.405 142.122C360.934 139.618 362.334 135.109 361.532 132.05C360.73 128.99 358.029 128.539 355.5 131.043Z" fill="#3DB8DB"/>
<path opacity="0.2" d="M253.07 236.537L358.798 131.942C359.478 131.27 360.167 130.827 360.832 130.574C361.123 130.973 361.373 131.444 361.531 132.049C362.334 135.108 360.933 139.617 358.404 142.121L252.649 246.767C251.974 247.435 251.29 247.877 250.631 248.129C250.337 247.726 250.086 247.248 249.928 246.635C249.134 243.562 250.54 239.041 253.07 236.537Z" fill="#3DB8DB"/>
<path opacity="0.2" d="M228.087 262.341L227.33 259.537L217.122 261.389L204.381 290.518L210.852 292.286L223.594 263.156L228.087 262.341Z" fill="#3DB8DB"/>
<path opacity="0.2" d="M390.506 74.7527L377.898 103.606L381.454 116.792L376.747 103.634L390.506 74.7527Z" fill="white"/>
<path opacity="0.2" d="M218.278 301.576L232.328 272.736L227.33 259.537L230.886 272.722L218.278 301.576Z" fill="white"/>
<path d="M288.79 189.043C292.092 186.226 292.974 185.918 296.466 185.798C299.958 185.678 301.558 185.581 302.921 185.648C304.284 185.715 308.955 186.775 309.855 187.335C311.47 188.341 308.966 190.772 306.337 190.701C303.708 190.63 300.286 190.274 300.286 190.274L288.79 189.043Z" fill="#F0997A"/>
<path d="M256.798 121.065C246.201 123.879 240.464 128.21 238.271 133.707C234.393 143.433 225.705 173.717 224.345 181.627C222.984 189.538 223.689 191.602 230.187 195.203C235.596 198.201 258.072 204.976 268.446 207.735C271.262 208.484 274.26 207.858 276.549 206.055L286.081 198.546L246.731 179.957L255.642 153.266C255.642 153.266 263.775 133.554 256.798 121.065Z" fill="#FFA8A7"/>
<path d="M257.182 120.472C250.221 122.454 244.835 125.191 241.522 128.559C236.833 133.324 237.465 133.23 231.239 152.899C225.014 172.569 223.224 182.306 222.787 186.237C222.35 190.169 222.877 191.902 228.977 195.271C235.077 198.641 252.155 203.026 252.155 203.026C252.155 203.026 252.443 196.74 254.599 191.602C256.754 186.465 259.839 186.148 259.839 186.148L247.84 179.515C247.84 179.515 255.217 158.729 257.856 151.852C260.494 144.974 263.41 132.325 257.182 120.472Z" fill="black"/>
<path d="M273.697 201.618C274.854 201.405 275.258 196.585 277.208 195.901C279.158 195.218 279.422 195.488 280.385 193.625C281.348 191.763 282.765 191.033 283.954 191.133C285.144 191.232 284.698 189.023 286.913 188.471C288.607 188.049 293.482 188.128 295.491 188.327C297.499 188.525 302.059 191.443 304.024 192.841C305.989 194.24 304.619 195.566 303.38 196.21C302.141 196.854 299.705 196.281 299.705 196.281C299.705 196.281 301.711 198.065 301.244 198.891C300.627 199.976 298.556 200.931 295.673 199.687C297.559 201.003 297.344 202.264 295.778 202.894C294.579 203.377 292.851 203.145 290.813 202.396C288.25 201.454 284.835 200.309 282.803 201.132L280.808 202.704L273.697 201.618Z" fill="#FFA8A7"/>
<path d="M273.697 201.618C274.207 201.561 274.488 201.04 274.752 200.675C274.998 200.264 275.2 199.845 275.391 199.427C275.782 198.603 276.111 197.752 276.58 197.087C276.803 196.758 277.066 196.472 277.351 196.358L278.618 195.857C279.05 195.698 279.572 195.388 279.844 194.95C280.103 194.514 280.27 194.084 280.385 193.625C280.074 193.976 279.808 194.363 279.471 194.628C279.157 194.911 278.815 195.01 278.372 195.113C277.936 195.207 277.484 195.326 277.025 195.464C276.434 195.67 276.059 196.108 275.756 196.513C275.189 197.368 274.905 198.27 274.658 199.158L274.304 200.475C274.179 200.902 274.085 201.355 273.697 201.618Z" fill="#F0997A"/>
<path d="M299.705 196.28C298.676 195.452 297.647 194.647 296.573 193.897C295.486 193.143 294.456 192.402 293.162 191.806C291.733 191.386 290.491 191.335 289.157 191.245C287.845 191.17 286.53 191.184 285.213 191.28C286.501 191.573 287.787 191.82 289.073 192.024L290.991 192.347C291.61 192.454 292.293 192.562 292.788 192.739C293.877 193.217 295.017 193.956 296.158 194.561C297.299 195.195 298.478 195.786 299.705 196.28Z" fill="#F0997A"/>
<path d="M281.804 195.609C283.031 195.8 284.301 195.815 285.484 195.897C286.659 195.989 287.741 196.375 288.848 196.876C291.077 197.847 293.307 198.898 295.671 199.685C293.671 198.191 291.523 196.976 289.248 195.953C288.114 195.457 286.809 195.045 285.506 195.115C284.227 195.166 283.038 195.411 281.804 195.609Z" fill="#F0997A"/>
<path d="M397.79 136.195C400.29 132.956 400.539 132.112 400.49 128.819C400.442 125.525 400.459 124.014 400.333 122.734C400.207 121.453 398.993 117.105 398.424 116.284C397.402 114.81 395.23 117.281 395.419 119.752C395.607 122.224 396.101 125.429 396.101 125.429L397.79 136.195Z" fill="#F28F8F"/>
<path d="M386.649 150.986C386.796 149.887 391.316 149.284 391.869 147.417C392.421 145.549 392.157 145.314 393.865 144.321C395.574 143.328 396.196 141.96 396.046 140.845C395.897 139.729 397.999 140.047 398.416 137.936C398.735 136.321 398.435 131.734 398.155 129.852C397.875 127.97 394.918 123.813 393.51 122.029C392.102 120.243 390.917 121.594 390.368 122.79C389.819 123.987 390.472 126.254 390.472 126.254C390.472 126.254 388.699 124.447 387.944 124.925C386.951 125.556 386.146 127.55 387.452 130.207C386.127 128.492 384.949 128.753 384.427 130.257C384.028 131.407 384.327 133.024 385.127 134.908C386.133 137.276 387.197 140.678 386.516 142.63C385.903 143.516 384.55 145.465 384.55 145.465L386.649 150.986Z" fill="#FFA8A7"/>
<path d="M390.474 126.254C391.3 127.183 392.106 128.116 392.861 129.092C393.62 130.08 394.366 131.015 394.988 132.207C395.449 133.533 395.554 134.699 395.701 135.95C395.833 137.181 395.88 138.421 395.85 139.666C395.514 138.467 395.222 137.267 394.97 136.066L394.579 134.275C394.448 133.697 394.316 133.059 394.127 132.601C393.626 131.598 392.878 130.559 392.256 129.512C391.605 128.467 390.994 127.384 390.474 126.254Z" fill="#F28F8F"/>
<path d="M391.931 143.076C391.695 141.928 391.622 140.734 391.489 139.623C391.347 138.521 390.934 137.52 390.412 136.501C389.394 134.447 388.302 132.397 387.451 130.207C388.949 132.021 390.193 133.987 391.261 136.082C391.782 137.127 392.23 138.336 392.223 139.567C392.236 140.774 392.06 141.905 391.931 143.076Z" fill="#F28F8F"/>
<path d="M271.754 104.416C268.18 99.2125 264.919 94.7503 262.185 90.1055C259.548 85.6283 257.931 82.1303 257.951 77.7768C257.963 75.1989 259.382 71.6245 261.246 70.7841C258.495 61.3627 266.752 56.9873 270.504 55.8625C271.944 55.4313 274.575 55.0614 275.946 54.6071C277.23 52.5713 277.904 51.4269 279.658 50.1114C281.916 48.4178 286.811 47.952 289.175 50.9391C290.714 49.5495 292.767 48.8756 295.806 49.4652C298.703 50.027 299.293 52.065 299.59 53.5655C303.465 51.0951 306.865 53.851 307.805 56.0451C308.753 58.2554 307.891 59.2519 309.116 60.7431C310.496 62.4228 312.916 62.254 313.569 60.7963C314.124 63.2401 313.268 65.1764 310.585 65.1925C311.584 66.4757 311.925 68.2143 311.553 69.8616C311.048 72.095 308.911 73.5134 307.132 73.6545C306.926 75.0243 306.939 76.2682 306.157 77.4843C305.403 78.653 304.405 79.8275 303.169 80.5061C299.23 82.6689 294.785 83.5544 290.473 84.707C288.767 85.1636 287.062 85.6202 285.355 86.0768C285.057 86.1566 283.499 86.3416 283.329 86.6202C283.328 86.6225 271.754 104.416 271.754 104.416Z" fill="black"/>
<path d="M265.166 98.0866C269.156 100.17 271.628 97.5259 271.628 97.5259L271.831 108.613L271.821 112.413C271.933 115.506 276.049 119.384 281.152 122.631C287.843 126.889 296.461 133.662 297.832 134.772C298.086 131.911 296.909 121.245 294.593 117.416L294.543 108.866C294.543 108.866 298.497 108.71 301.055 108.202C305.323 107.366 308.765 103.752 309.726 99.0218C310.729 94.0787 310.626 86.0989 309.233 80.3223C308.879 78.8473 308.672 77.3318 308.742 75.8163C308.927 71.7899 308.073 69.5022 306.846 66.1995C301.892 62.6564 288.452 62.6309 278.596 69.4247C281.083 74.5054 280.011 79.8796 275.723 82.4482C276.024 84.077 276.465 88.2109 273.764 88.2883C271.818 88.3438 271.549 85.9139 269.432 83.8817C267.272 81.8066 262.625 81.5396 261.004 84.8076C258.736 89.3808 260.795 95.8047 265.166 98.0866Z" fill="#FFA8A7"/>
<path d="M294.543 108.865C287.672 108.451 282.443 108.005 278.604 103.263C276.196 100.29 274.027 95.4082 274.027 95.4082C274.027 95.4082 275.071 101.414 277.535 105.381C279.433 108.439 283.802 110.827 294.557 111.136L294.543 108.865Z" fill="#F28F8F"/>
<path d="M306.51 76.4046L302.117 74.6325C302.565 73.3921 303.91 72.7817 305.124 73.2719C306.335 73.7597 306.957 75.1631 306.51 76.4046Z" fill="black"/>
<path d="M306.499 79.9605C306.553 81.1731 305.649 82.195 304.481 82.2424C303.313 82.2898 302.324 81.3454 302.271 80.1327C302.218 78.9201 303.122 77.8982 304.289 77.8496C305.458 77.8022 306.447 78.7467 306.499 79.9605Z" fill="black"/>
<path d="M291.334 80.854C291.388 82.0666 290.484 83.0885 289.316 83.1359C288.148 83.1833 287.159 82.2388 287.106 81.025C287.053 79.8124 287.957 78.7905 289.124 78.7419C290.293 78.6945 291.282 79.6402 291.334 80.854Z" fill="black"/>
<path d="M303.697 88.4987L297.056 90.428L295.316 77.2508C297.778 77.2011 301.026 83.2655 303.697 88.4987Z" fill="#F28F8F"/>
<path d="M289 75.7306L284.747 77.8484C284.189 76.6242 284.688 75.1584 285.863 74.5734C287.037 73.9874 288.442 74.5064 289 75.7306Z" fill="black"/>
<path d="M291.422 93.2336L299.005 95.0012C298.561 97.1664 296.503 98.5258 294.408 98.038C292.314 97.549 290.977 95.3988 291.422 93.2336Z" fill="#B16668"/>
<path d="M292.319 94.4902C291.997 94.4498 291.683 94.4567 291.376 94.4856C291.547 96.1722 292.724 97.645 294.407 98.0369C294.829 98.1351 295.246 98.1409 295.653 98.097C295.801 96.3468 294.341 94.7457 292.319 94.4902Z" fill="#F28F8F"/>
<path d="M315.797 95.2683C315.649 97.2797 314.188 99.3559 311.329 99.6507C310.963 99.6888 310.573 99.6934 310.166 99.6726L310.206 98.9779C313.366 99.1617 314.967 97.1606 315.108 95.2209C315.266 93.0973 313.818 90.6998 310.365 89.6952C310.36 89.4513 310.357 89.2074 310.338 88.9646C314.315 90.0339 315.983 92.8129 315.797 95.2683Z" fill="#455A64"/>
<path d="M308.792 101.591L305.805 101.286C304.524 101.156 303.592 100.011 303.721 98.7306C303.852 97.4497 304.996 96.5168 306.277 96.6475L309.264 96.9515C310.545 97.0821 311.479 98.2266 311.348 99.5074C311.219 100.787 310.073 101.72 308.792 101.591Z" fill="black"/>
<path d="M297.832 134.772C298.36 131.601 300.524 129.434 301.957 129.153C305.613 128.436 307.957 132.735 307.957 132.735C307.957 132.735 307.269 124.114 301.258 116.639C296.626 112.207 294.559 111.507 294.559 111.507L294.593 117.417C294.593 117.417 295.665 119.377 296.576 124.048C297.622 129.406 297.832 134.772 297.832 134.772Z" fill="black"/>
<path d="M271.826 110.613C269.103 111.136 267.316 115.583 264.021 118.78C264.021 118.78 269.16 132.965 285.824 139.437C286.68 136.343 286.786 134.199 289.54 132.783C292.293 131.368 297.831 134.772 297.831 134.772C297.831 134.772 296.275 132.342 294.658 131.23C287.238 126.129 285.328 124.833 281.594 122.356C271.648 115.757 271.82 112.413 271.82 112.413L271.826 110.613Z" fill="black"/>
<path d="M268.475 85.634L262.943 84.7623C262.943 84.7623 261.983 74.3399 262.871 68.7807C263.7 63.596 266.448 58.9304 269.342 57.0507C271.44 55.6924 273.74 54.8994 275.947 54.6069C274.987 55.0647 274.573 55.1965 272.865 56.5502C271.746 57.5143 268.054 62.0701 267.67 70.6522C267.285 79.232 268.475 85.634 268.475 85.634Z" fill="#455A64"/>
<path d="M274.497 96.2841C275.718 91.5491 273.919 84.9033 270.485 81.4688C269.475 80.4585 268.415 79.8007 267.336 79.5163C266.543 79.3071 265.786 79.314 265.087 79.5129C264.68 79.6285 263.039 80.0793 262.623 80.1984C260.948 80.677 259.617 82.263 258.992 84.6802C257.77 89.4152 259.57 96.061 263.002 99.4955C264.014 100.507 265.073 101.164 266.153 101.448C266.95 101.658 267.713 101.65 268.416 101.447C268.817 101.331 270.437 100.885 270.849 100.769C272.533 100.298 273.871 98.7106 274.497 96.2841Z" fill="#37474F"/>
<path d="M266.154 101.449C265.075 101.165 264.015 100.508 263.004 99.4966C259.57 96.0621 257.772 89.4163 258.993 84.6813C259.879 81.248 262.193 79.4897 264.889 80.2007C265.968 80.485 267.028 81.1416 268.038 82.1531C271.471 85.5876 273.27 92.2335 272.049 96.9684C271.163 100.402 268.849 102.16 266.154 101.449Z" fill="black"/>
<path d="M271.526 96.8298C272.706 92.2566 270.974 85.8605 267.658 82.5439C265.999 80.8839 264.258 80.3117 262.784 80.7255C262.581 80.7822 261.769 81.0088 261.566 81.0654C260.091 81.4758 258.884 82.8722 258.293 85.1611C257.114 89.7342 258.844 96.1304 262.161 99.447C263.82 101.106 265.56 101.678 267.032 101.265C267.237 101.209 268.053 100.98 268.258 100.923C269.729 100.513 270.936 99.1163 271.526 96.8298Z" fill="#F0F0F0"/>
<path d="M266.433 82.8862C269.749 86.2027 271.481 92.5989 270.301 97.172C269.122 101.745 265.477 102.765 262.161 99.447C258.846 96.1305 257.114 89.7343 258.293 85.1612C259.473 80.588 263.117 79.5696 266.433 82.8862Z" fill="#E0E0E0"/>
<path d="M270.301 97.1732C271.48 92.6 269.749 86.2039 266.433 82.8873C264.778 81.2308 263.039 80.6574 261.569 81.0666C261.156 81.1811 260.403 81.447 259.991 81.5626C258.519 81.9752 257.315 83.3705 256.725 85.6548C255.545 90.2279 257.278 96.6241 260.593 99.9406C262.248 101.596 263.986 102.171 265.457 101.761C265.87 101.647 266.623 101.381 267.033 101.267C268.505 100.855 269.712 99.4586 270.301 97.1732Z" fill="#3DB8DB"/>
<path opacity="0.15" d="M264.865 83.3798C268.181 86.6964 269.912 93.0925 268.733 97.6657C267.553 102.239 263.909 103.257 260.593 99.9407C257.277 96.6241 255.545 90.228 256.725 85.6548C257.905 81.0817 261.549 80.0632 264.865 83.3798Z" fill="white"/>
<path d="M262.973 87.7088C264.715 89.4509 265.625 92.8102 265.004 95.2124C264.384 97.6146 262.47 98.1498 260.728 96.4077C258.986 94.6656 258.076 91.3063 258.695 88.9041C259.317 86.5019 261.232 85.9667 262.973 87.7088Z" fill="black"/>
<path d="M264.432 90.4635L261.661 92.1097L260.227 86.8083C260.999 86.5898 261.914 86.8903 262.784 87.7608C263.478 88.4602 264.043 89.4139 264.432 90.4635Z" fill="#455A64"/>
<path d="M264.816 95.2666C264.506 96.4665 263.873 97.2017 263.098 97.4144L261.661 92.1095L264.432 90.4634C265.008 92.0367 265.187 93.825 264.816 95.2666Z" fill="#37474F"/>
<path d="M263.098 97.4146C262.322 97.633 261.41 97.3325 260.539 96.462C259.84 95.765 259.279 94.8078 258.893 93.757L261.661 92.1108L263.098 97.4146Z" fill="#455A64"/>
<path d="M261.662 92.1095L258.893 93.7557C258.314 92.1823 258.137 90.3975 258.508 88.9583C258.819 87.756 259.452 87.0231 260.226 86.8081L261.662 92.1095Z" fill="#37474F"/>
<path d="M235.257 77.0947C228.272 66.9266 209.598 58.4924 186.508 58.2739C165.505 58.0751 139.941 64.2504 133.552 84.4296C128.102 101.639 144.878 117.629 162.296 121.034C169.85 122.511 176.888 123.147 183.315 123.256C186.543 129.286 194.115 132.993 199.816 133.379C196.869 129.888 196.096 125.862 196.032 122.776C202.453 122.173 207.91 121.115 212.17 120.051C242.408 112.493 243.071 88.4733 235.257 77.0947Z" fill="#3DB8DB"/>
<path opacity="0.4" d="M235.257 77.0947C228.272 66.9266 209.598 58.4924 186.508 58.2739C165.505 58.0751 139.941 64.2504 133.552 84.4296C128.102 101.639 144.878 117.629 162.296 121.034C169.85 122.511 176.888 123.147 183.315 123.256C186.543 129.286 194.115 132.993 199.816 133.379C196.869 129.888 196.096 125.862 196.032 122.776C202.453 122.173 207.91 121.115 212.17 120.051C242.408 112.493 243.071 88.4733 235.257 77.0947Z" fill="white"/>
<path d="M156.621 84.3152C153.157 84.3152 150.351 87.122 150.351 90.5853C150.351 94.0487 153.157 96.8555 156.621 96.8555C160.084 96.8555 162.891 94.0476 162.891 90.5853C162.891 87.1231 160.083 84.3152 156.621 84.3152ZM185.985 84.3152C182.522 84.3152 179.715 87.122 179.715 90.5853C179.715 94.0487 182.522 96.8555 185.985 96.8555C189.449 96.8555 192.256 94.0476 192.256 90.5853C192.256 87.1231 189.449 84.3152 185.985 84.3152ZM215.351 84.3152C211.888 84.3152 209.081 87.122 209.081 90.5853C209.081 94.0487 211.888 96.8555 215.351 96.8555C218.815 96.8555 221.621 94.0476 221.621 90.5853C221.621 87.1231 218.815 84.3152 215.351 84.3152Z" fill="white"/>
<path d="M113.526 209.731L153.667 187.594L125.378 217.219L113.526 209.731Z" fill="#3DB8DB"/>
<path opacity="0.4" d="M113.526 209.731L153.667 187.594L125.378 217.219L113.526 209.731Z" fill="white"/>
<path d="M153.668 187.594L109.055 204.695L97.2051 197.205L153.668 187.594Z" fill="#3DB8DB"/>
<path opacity="0.4" d="M153.668 187.594L109.055 204.695L97.2051 197.205L153.668 187.594Z" fill="white"/>
<path d="M109.056 204.695L111.402 216.12L113.527 209.731L153.668 187.594L109.056 204.695Z" fill="#3DB8DB"/>
<path d="M111.402 216.12L117.477 212.227L113.527 209.731L111.402 216.12Z" fill="#3DB8DB"/>
<path opacity="0.2" d="M111.402 216.12L117.477 212.227L113.527 209.731L111.402 216.12Z" fill="black"/>
<path opacity="0.2" d="M113.526 209.731L117.476 212.227L116.508 212.847L113.526 209.731Z" fill="black"/>
<path d="M101.723 219.139C101.516 219.134 101.313 219.049 101.165 218.891C100.881 218.586 100.911 218.121 101.231 217.854C102.047 217.171 102.869 216.533 103.67 215.958C104.009 215.715 104.497 215.777 104.757 216.103C105.016 216.427 104.95 216.887 104.609 217.133C103.838 217.685 103.048 218.3 102.26 218.958C102.105 219.085 101.914 219.145 101.723 219.139Z" fill="#3DB8DB"/>
<path d="M157.148 304.974C155.615 304.927 154.108 304.858 152.624 304.767C152.197 304.74 151.872 304.39 151.898 303.985C151.926 303.582 152.259 303.307 152.72 303.299C154.699 303.421 156.72 303.503 158.787 303.544C158.789 303.544 158.793 303.544 158.795 303.544C159.219 303.556 159.556 303.89 159.549 304.294C159.541 304.7 159.188 305.022 158.759 305.013C158.219 305.002 157.682 304.99 157.148 304.974ZM163.836 305.023C163.426 305.011 163.092 304.694 163.085 304.3C163.077 303.894 163.418 303.559 163.846 303.554C165.833 303.525 167.876 303.455 169.916 303.347C170.341 303.348 170.71 303.635 170.737 304.041C170.762 304.446 170.435 304.793 170.007 304.816C167.945 304.925 165.881 304.994 163.873 305.023C163.862 305.023 163.849 305.023 163.836 305.023ZM147.58 304.357C147.56 304.357 147.541 304.356 147.522 304.354C145.478 304.151 143.427 303.894 141.427 303.594C141.003 303.531 140.714 303.154 140.779 302.753C140.845 302.352 141.241 302.087 141.664 302.141C143.638 302.439 145.661 302.691 147.678 302.892C148.104 302.934 148.414 303.296 148.372 303.7C148.331 304.086 147.982 304.37 147.58 304.357ZM175.013 304.471C174.625 304.459 174.298 304.175 174.264 303.799C174.224 303.396 174.539 303.038 174.966 303.004C176.948 302.84 178.981 302.636 181.01 302.4C181.425 302.344 181.822 302.636 181.876 303.041C181.929 303.444 181.628 303.811 181.203 303.859C179.157 304.097 177.106 304.302 175.105 304.468C175.075 304.472 175.044 304.472 175.013 304.471ZM136.518 302.743C136.474 302.741 136.429 302.737 136.385 302.728C134.345 302.33 132.33 301.878 130.395 301.388C129.981 301.284 129.733 300.88 129.843 300.487C129.953 300.096 130.382 299.866 130.791 299.967C132.696 300.45 134.681 300.894 136.691 301.287C137.111 301.369 137.383 301.759 137.298 302.155C137.223 302.512 136.888 302.754 136.518 302.743ZM125.688 300.046C125.618 300.043 125.545 300.032 125.473 300.011C123.502 299.406 121.553 298.737 119.677 298.024C119.28 297.872 119.084 297.446 119.244 297.068C119.4 296.691 119.851 296.504 120.251 296.66C122.093 297.359 124.011 298.016 125.946 298.611C126.354 298.737 126.58 299.151 126.448 299.537C126.342 299.856 126.025 300.056 125.688 300.046ZM115.275 296.148C115.171 296.144 115.067 296.122 114.968 296.077C113.087 295.234 111.244 294.326 109.492 293.377C109.12 293.175 108.989 292.726 109.202 292.372C109.414 292.022 109.886 291.9 110.26 292.099C111.976 293.03 113.783 293.921 115.627 294.748C116.015 294.921 116.182 295.359 116 295.727C115.864 296.001 115.575 296.157 115.275 296.148ZM105.52 290.932C105.38 290.927 105.239 290.887 105.113 290.807C103.377 289.705 101.703 288.535 100.135 287.328C99.8033 287.072 99.7513 286.609 100.021 286.294C100.29 285.981 100.776 285.931 101.112 286.189C102.642 287.365 104.277 288.509 105.974 289.586C106.33 289.812 106.427 290.269 106.189 290.606C106.035 290.825 105.779 290.94 105.52 290.932ZM96.7827 284.299C96.5966 284.293 96.4116 284.225 96.2683 284.094C94.7574 282.717 93.3343 281.272 92.0408 279.797C91.7668 279.485 91.8107 279.02 92.1402 278.761C92.4685 278.504 92.9563 278.544 93.2326 278.858C94.4903 280.292 95.8729 281.696 97.3422 283.034C97.6508 283.316 97.6624 283.782 97.3665 284.074C97.2069 284.229 96.9931 284.304 96.7827 284.299ZM89.5588 276.198C89.3161 276.192 89.0814 276.077 88.9358 275.872C87.759 274.21 86.7151 272.492 85.8319 270.764C85.6458 270.399 85.8065 269.96 86.1926 269.783C86.5798 269.607 87.0411 269.762 87.2295 270.127C88.0792 271.792 89.086 273.449 90.2235 275.054C90.4628 275.392 90.368 275.848 90.0132 276.075C89.8733 276.164 89.7149 276.203 89.5588 276.198ZM84.5973 266.71C84.2794 266.701 83.9869 266.505 83.8817 266.201C83.3881 264.769 82.9986 263.325 82.7269 261.908C82.6321 261.417 82.5489 260.929 82.476 260.439C82.4171 260.036 82.7142 259.665 83.1384 259.611C83.5534 259.557 83.9534 259.838 84.0135 260.241C84.0817 260.709 84.1615 261.177 84.2528 261.648C84.5129 263 84.884 264.38 85.3568 265.748C85.4897 266.134 85.2678 266.548 84.8609 266.674C84.773 266.701 84.684 266.712 84.5973 266.71ZM82.8494 256.268C82.4333 256.255 82.098 255.933 82.0957 255.536C82.0922 255.066 82.098 254.597 82.1119 254.132C82.1558 252.661 82.2911 251.157 82.513 249.66C82.5731 249.258 82.9801 248.983 83.3904 249.038C83.8147 249.096 84.1095 249.468 84.0505 249.872C83.8355 251.313 83.7049 252.763 83.6632 254.179C83.6494 254.628 83.6448 255.079 83.6482 255.533C83.6505 255.938 83.3049 256.269 82.8772 256.271C82.8679 256.269 82.8587 256.268 82.8494 256.268ZM84.2586 245.776C84.2008 245.775 84.143 245.767 84.0852 245.753C83.6702 245.65 83.4216 245.248 83.528 244.856C84.0343 243.003 84.6805 241.127 85.4493 239.278C85.6053 238.9 86.055 238.715 86.4538 238.867C86.8527 239.016 87.0492 239.443 86.892 239.82C86.1475 241.614 85.5209 243.434 85.0308 245.228C84.9383 245.566 84.6123 245.786 84.2586 245.776ZM88.2306 235.888C88.1196 235.884 88.0075 235.859 87.9035 235.808C87.5208 235.624 87.3682 235.18 87.5601 234.819C88.4768 233.102 89.5057 231.392 90.6212 229.738C90.8513 229.397 91.3298 229.296 91.6928 229.516C92.0547 229.735 92.1599 230.19 91.9298 230.532C90.842 232.144 89.8374 233.811 88.945 235.485C88.8051 235.749 88.5219 235.897 88.2306 235.888ZM94.1644 226.922C94.0083 226.917 93.8534 226.868 93.7193 226.771C93.3771 226.526 93.3101 226.065 93.569 225.741C94.8233 224.176 96.1608 222.67 97.5457 221.264C97.8381 220.969 98.3271 220.952 98.6415 221.231C98.9548 221.508 98.9733 221.974 98.6808 222.27C97.3318 223.64 96.0278 225.108 94.8048 226.633C94.6476 226.829 94.4071 226.929 94.1644 226.922Z" fill="#3DB8DB"/>
<path d="M186.196 303.198C185.83 303.188 185.51 302.93 185.453 302.574C185.387 302.173 185.677 301.797 186.1 301.736C187.108 301.59 188.127 301.435 189.15 301.27C189.57 301.203 189.974 301.472 190.047 301.872C190.119 302.272 189.836 302.651 189.413 302.721C188.381 302.886 187.355 303.042 186.338 303.19C186.292 303.196 186.243 303.199 186.196 303.198Z" fill="#3DB8DB"/>
<path d="M425.834 302.275L472.297 279.036L490.807 287.224L425.834 302.275Z" fill="#3DB8DB"/>
<path opacity="0.4" d="M425.834 302.275L472.297 279.036L490.807 287.224L425.834 302.275Z" fill="white"/>
<path d="M425.834 302.276L466.766 274.913L459.435 264.377L425.834 302.276Z" fill="#3DB8DB"/>
<path opacity="0.4" d="M425.834 302.276L466.766 274.913L459.435 264.377L425.834 302.276Z" fill="white"/>
<path d="M466.766 274.913L465.992 282.19L425.834 302.275L466.766 274.913Z" fill="#3DB8DB"/>
<path d="M472.37 274.805C472.177 274.802 471.985 274.728 471.838 274.58C471.534 274.278 471.532 273.787 471.834 273.483C473.239 272.065 474.531 270.491 475.669 268.805C475.908 268.45 476.391 268.356 476.746 268.595C477.102 268.835 477.194 269.317 476.955 269.672C475.762 271.439 474.409 273.09 472.934 274.575C472.779 274.733 472.575 274.809 472.37 274.805ZM478.863 265.529C478.755 265.526 478.646 265.502 478.542 265.452C478.156 265.267 477.993 264.804 478.178 264.418C479.041 262.617 479.766 260.707 480.334 258.743C480.452 258.332 480.877 258.089 481.294 258.213C481.706 258.331 481.943 258.761 481.824 259.174C481.234 261.22 480.478 263.211 479.579 265.089C479.44 265.371 479.157 265.534 478.863 265.529ZM482.165 254.683C482.131 254.682 482.097 254.679 482.062 254.675C481.638 254.611 481.346 254.216 481.41 253.793C481.669 252.081 481.815 250.32 481.846 248.56C481.85 248.283 481.853 248.005 481.852 247.726C481.85 247.297 482.197 246.949 482.625 246.948C482.631 246.948 482.637 246.948 482.641 246.948C483.062 246.955 483.403 247.3 483.403 247.722C483.403 248.011 483.402 248.298 483.397 248.586C483.365 250.415 483.213 252.245 482.944 254.023C482.885 254.412 482.548 254.69 482.165 254.683ZM482.279 243.34C481.9 243.333 481.573 243.049 481.525 242.662C481.273 240.665 480.869 238.657 480.326 236.693C480.211 236.281 480.454 235.853 480.867 235.738C481.282 235.624 481.707 235.867 481.822 236.279C482.385 238.315 482.802 240.396 483.063 242.467C483.116 242.893 482.816 243.28 482.39 243.334C482.355 243.34 482.316 243.341 482.279 243.34ZM479.391 232.372C479.09 232.366 478.807 232.186 478.687 231.89C477.924 230.024 477.018 228.186 475.995 226.422C475.78 226.052 475.906 225.577 476.277 225.362C476.649 225.147 477.122 225.273 477.337 225.644C478.396 227.468 479.333 229.371 480.122 231.303C480.285 231.698 480.095 232.153 479.698 232.313C479.596 232.356 479.492 232.374 479.391 232.372ZM473.812 222.492C473.579 222.487 473.35 222.38 473.201 222.177C472.008 220.565 470.685 218.997 469.264 217.516C468.968 217.208 468.978 216.716 469.288 216.419C469.597 216.121 470.087 216.134 470.385 216.444C471.85 217.971 473.216 219.59 474.449 221.256C474.703 221.601 474.63 222.086 474.286 222.34C474.145 222.446 473.977 222.494 473.812 222.492ZM466.051 214.209C465.878 214.206 465.705 214.145 465.562 214.024C464.635 213.236 463.669 212.465 462.686 211.736C462.035 211.253 461.37 210.78 460.692 210.318C460.339 210.076 460.247 209.594 460.489 209.241C460.73 208.887 461.211 208.792 461.566 209.037C462.261 209.511 462.943 209.995 463.61 210.49C464.619 211.239 465.614 212.031 466.567 212.843C466.893 213.12 466.932 213.61 466.655 213.936C466.499 214.121 466.276 214.213 466.051 214.209ZM456.733 207.71C456.607 207.708 456.479 207.675 456.361 207.607C454.638 206.616 452.806 205.66 450.915 204.769C450.528 204.587 450.362 204.124 450.544 203.736C450.729 203.347 451.19 203.185 451.577 203.365C453.507 204.276 455.376 205.25 457.135 206.26C457.506 206.474 457.635 206.949 457.421 207.32C457.274 207.575 457.007 207.715 456.733 207.71ZM446.492 202.78C446.401 202.779 446.307 202.761 446.218 202.724C444.351 201.976 442.404 201.269 440.432 200.623C440.024 200.49 439.803 200.05 439.936 199.645C440.069 199.235 440.511 199.02 440.915 199.148C442.92 199.804 444.898 200.523 446.795 201.284C447.192 201.443 447.386 201.895 447.226 202.292C447.102 202.601 446.804 202.785 446.492 202.78ZM435.706 199.173C435.643 199.172 435.579 199.163 435.513 199.146C433.577 198.613 431.563 198.118 429.524 197.675C429.106 197.583 428.84 197.171 428.931 196.752C429.022 196.333 429.44 196.066 429.854 196.159C431.919 196.608 433.963 197.111 435.926 197.649C436.339 197.764 436.582 198.19 436.468 198.604C436.371 198.952 436.052 199.18 435.706 199.173ZM373.234 197.934C372.888 197.928 372.577 197.691 372.494 197.34C372.395 196.923 372.651 196.505 373.067 196.404C375.053 195.928 377.111 195.499 379.184 195.129C379.608 195.053 380.009 195.335 380.084 195.756C380.159 196.178 379.879 196.581 379.458 196.656C377.414 197.022 375.386 197.444 373.43 197.913C373.362 197.929 373.296 197.935 373.234 197.934ZM424.597 196.703C424.558 196.701 424.518 196.699 424.477 196.691C422.488 196.345 420.433 196.039 418.372 195.782C417.948 195.729 417.646 195.342 417.699 194.917C417.751 194.492 418.153 194.181 418.565 194.243C420.65 194.502 422.728 194.811 424.744 195.162C425.166 195.234 425.448 195.637 425.375 196.059C425.307 196.441 424.973 196.71 424.597 196.703ZM384.412 195.874C384.036 195.867 383.71 195.586 383.659 195.201C383.602 194.776 383.9 194.386 384.325 194.329C386.358 194.058 388.447 193.833 390.53 193.659C390.946 193.628 391.332 193.942 391.368 194.367C391.404 194.794 391.086 195.169 390.659 195.206C388.602 195.377 386.538 195.599 384.53 195.866C384.491 195.873 384.451 195.875 384.412 195.874ZM413.31 195.251C413.292 195.251 413.274 195.251 413.257 195.248C411.218 195.074 409.145 194.944 407.098 194.862C406.67 194.846 406.337 194.484 406.353 194.057C406.369 193.635 406.721 193.304 407.142 193.312C407.147 193.312 407.153 193.312 407.159 193.312C409.229 193.394 411.326 193.525 413.389 193.702C413.816 193.739 414.132 194.114 414.096 194.541C414.06 194.95 413.715 195.258 413.31 195.251ZM395.741 194.882C395.334 194.875 395 194.552 394.981 194.14C394.962 193.712 395.294 193.349 395.722 193.331C397.778 193.24 399.877 193.198 401.961 193.202C401.964 193.202 401.969 193.202 401.972 193.202C402.395 193.21 402.735 193.556 402.734 193.98C402.733 194.408 402.385 194.754 401.956 194.754C399.898 194.749 397.822 194.792 395.789 194.881C395.775 194.883 395.759 194.882 395.741 194.882Z" fill="#3DB8DB"/>
</svg>
