<svg width="75" height="75" viewBox="0 0 75 75" fill="none" xmlns="http://www.w3.org/2000/svg">
<path fill-rule="evenodd" clip-rule="evenodd" d="M67.8205 27.6797L67.4618 16.2194C67.3452 12.6029 71.9687 12.0922 72.4355 15.6771L74.864 34.2494C75.348 37.9291 74.5443 41.3666 72.3837 43.9988L59.982 59.1072C58.9449 60.3706 58.4567 61.9551 58.5603 63.745L58.5777 64.0451H42.2093L42.3 54.7326C42.3301 51.8529 43.1427 49.3735 44.8149 47.3415L48.2459 43.1617C49.3607 41.8036 50.5706 40.9506 52.0917 40.4558L53.751 39.9136L62.1038 29.7377C64.1391 27.2583 67.7645 28.7375 67.972 32.4699C68.0281 33.6228 67.6955 34.7967 66.9738 35.6706L59.8526 44.3461C59.4983 44.7831 59.4983 45.4884 59.8526 45.9254C60.2113 46.357 60.7902 46.357 61.1489 45.9254L68.2702 37.2499C70.487 34.5441 70.2795 30.059 67.8208 27.6795L67.8205 27.6797ZM7.17749 27.6797L7.54045 16.2194C7.65707 12.6029 3.03355 12.0922 2.5625 15.6771L0.133973 34.2494C-0.345605 37.9291 0.458062 41.3666 2.61433 43.9988L15.016 59.1072C16.0575 60.3706 16.5413 61.9551 16.4419 63.745L16.4245 64.0451H32.7887L32.698 54.7326C32.6721 51.8529 31.8555 49.3735 30.1875 47.3415L26.7565 43.1617C25.6417 41.8036 24.4318 40.9506 22.9107 40.4558L21.2471 39.9136L12.8987 29.7377C10.8591 27.2583 7.23801 28.7375 7.02627 32.4699C6.97444 33.6228 7.30722 34.7967 8.02445 35.6706L15.1457 44.3461C15.5044 44.7831 15.5044 45.4884 15.1457 45.9254C14.787 46.357 14.2081 46.357 13.8536 45.9254L6.73236 37.2499C4.5113 34.5441 4.71878 30.059 7.17749 27.6795V27.6797ZM35.8095 75H13.3004V66.2718H35.8093L35.8095 75ZM19.5403 9.20733C16.9822 12.3291 16.9822 17.4301 19.5403 20.5519C22.7812 22.526 26.2943 23.6683 28.8524 20.5519L42.1573 4.34318C46.9105 -1.44748 54.6929 -1.44748 59.4504 4.34318C64.2037 10.139 64.2037 19.62 59.4504 25.4108C54.6929 31.2067 46.9105 31.2067 42.1573 25.4108L38.7955 21.3153L42.784 16.4564L46.1459 20.5519C48.7083 23.6683 52.8955 23.6683 55.458 20.5519C58.0204 17.4303 58.0204 12.3291 55.458 9.20733C52.8955 6.08571 48.7084 6.08571 46.1459 9.20733L32.8454 25.4106C28.0879 31.2065 20.3055 31.2065 15.5521 25.4106C10.7946 19.62 10.7946 10.139 15.5521 4.343C20.3054 -1.44767 28.0878 -1.44767 32.8454 4.343L36.2072 8.44387L32.2145 13.3028L28.8527 9.20715C26.2946 6.08553 22.1031 6.08553 19.5406 9.20715L19.5403 9.20733ZM39.1885 75H61.6974V66.2718H39.1885V75Z" fill="#3DB8DB"/>
</svg>
