<svg width="1320" height="277" viewBox="0 0 1320 277" fill="none" xmlns="http://www.w3.org/2000/svg">
<path opacity="0.1" d="M151.043 154.085C151.043 169.686 148.029 183.603 142.001 195.835C135.974 207.89 127.73 217.374 117.271 224.288C106.811 231.202 94.9335 234.659 81.6374 234.659C68.5187 234.659 56.641 231.202 46.0042 224.288C35.5446 217.374 27.3011 207.89 21.2736 195.835C15.2461 183.603 12.2323 169.686 12.2323 154.085C12.2323 138.485 15.2461 124.657 21.2736 112.602C27.3011 100.37 35.5446 90.7965 46.0042 83.8825C56.641 76.7913 68.5187 73.2458 81.6374 73.2458C94.9335 73.2458 106.811 76.7913 117.271 83.8825C127.73 90.7965 135.974 100.37 142.001 112.602C148.029 124.657 151.043 138.485 151.043 154.085ZM108.229 154.085C108.229 145.753 107.077 138.485 104.772 132.28C102.468 126.075 99.2768 121.2 95.1994 117.654C91.2992 114.109 86.7786 112.336 81.6374 112.336C76.319 112.336 71.6211 114.109 67.5437 117.654C63.4662 121.2 60.2752 126.075 57.9706 132.28C55.8432 138.485 54.7795 145.753 54.7795 154.085C54.7795 162.418 55.8432 169.686 57.9706 175.891C60.2752 182.096 63.4662 186.971 67.5437 190.516C71.6211 193.885 76.319 195.569 81.6374 195.569C86.7786 195.569 91.2992 193.885 95.1994 190.516C99.2768 186.971 102.468 182.096 104.772 175.891C107.077 169.686 108.229 162.418 108.229 154.085ZM294.708 193.708V232H179.83V193.708H217.591V125.898C215.996 128.025 213.514 130.153 210.145 132.28C206.777 134.407 202.966 136.446 198.711 138.396C194.633 140.346 190.467 141.942 186.213 143.183C181.958 144.246 178.058 144.778 174.512 144.778V105.422C177.526 105.422 181.249 104.536 185.681 102.763C190.113 100.813 194.545 98.4195 198.977 95.583C203.586 92.7465 207.575 89.9101 210.943 87.0736C214.489 84.2371 216.705 81.9325 217.591 80.1597H260.936V193.708H294.708Z" fill="#3DB8DB"/>
<path d="M93.2085 144L96.7438 129.811H101.461L104.977 144H101.922L99.0975 131.626H99.1167L96.2635 144H93.2085ZM95.7447 140.714V138.39H102.47V140.714H95.7447ZM110.81 144.231C110.202 144.231 109.616 144.16 109.052 144.019C108.489 143.878 107.983 143.67 107.535 143.395C107.093 143.119 106.74 142.777 106.478 142.367C106.222 141.951 106.093 141.467 106.093 140.916C106.093 140.891 106.093 140.862 106.093 140.83C106.093 140.791 106.093 140.762 106.093 140.743H109.052C109.052 140.762 109.052 140.785 109.052 140.81C109.052 140.83 109.052 140.852 109.052 140.878C109.052 141.249 109.216 141.521 109.542 141.694C109.875 141.867 110.324 141.954 110.887 141.954C111.182 141.954 111.464 141.925 111.733 141.867C112.008 141.803 112.232 141.704 112.405 141.569C112.585 141.429 112.674 141.252 112.674 141.041C112.674 140.702 112.485 140.461 112.107 140.321C111.736 140.18 111.137 140.039 110.311 139.898C109.843 139.821 109.369 139.712 108.889 139.571C108.409 139.43 107.967 139.245 107.563 139.014C107.16 138.777 106.836 138.479 106.593 138.121C106.35 137.755 106.228 137.314 106.228 136.795C106.228 136.103 106.436 135.52 106.852 135.046C107.275 134.572 107.836 134.214 108.534 133.97C109.232 133.727 110 133.605 110.839 133.605C111.64 133.605 112.386 133.74 113.078 134.009C113.769 134.271 114.33 134.652 114.759 135.152C115.188 135.645 115.403 136.241 115.403 136.939C115.403 136.952 115.403 136.971 115.403 136.997C115.403 137.022 115.403 137.048 115.403 137.073H112.472C112.472 137.048 112.472 137.025 112.472 137.006C112.472 136.987 112.472 136.971 112.472 136.958C112.472 136.702 112.389 136.494 112.223 136.334C112.063 136.174 111.858 136.055 111.608 135.978C111.358 135.895 111.099 135.853 110.83 135.853C110.586 135.853 110.333 135.882 110.071 135.94C109.815 135.991 109.597 136.081 109.417 136.209C109.238 136.33 109.148 136.503 109.148 136.728C109.148 136.945 109.245 137.125 109.437 137.266C109.629 137.4 109.898 137.512 110.244 137.602C110.59 137.685 110.99 137.765 111.445 137.842C111.874 137.912 112.325 138.012 112.799 138.14C113.279 138.261 113.728 138.438 114.144 138.668C114.567 138.892 114.906 139.19 115.162 139.562C115.425 139.927 115.556 140.391 115.556 140.955C115.556 141.537 115.422 142.037 115.153 142.453C114.884 142.87 114.519 143.209 114.058 143.472C113.603 143.728 113.094 143.917 112.53 144.038C111.973 144.167 111.4 144.231 110.81 144.231ZM121.656 144.231C121.047 144.231 120.461 144.16 119.898 144.019C119.334 143.878 118.828 143.67 118.38 143.395C117.938 143.119 117.586 142.777 117.323 142.367C117.067 141.951 116.939 141.467 116.939 140.916C116.939 140.891 116.939 140.862 116.939 140.83C116.939 140.791 116.939 140.762 116.939 140.743H119.898C119.898 140.762 119.898 140.785 119.898 140.81C119.898 140.83 119.898 140.852 119.898 140.878C119.898 141.249 120.061 141.521 120.388 141.694C120.721 141.867 121.169 141.954 121.733 141.954C122.027 141.954 122.309 141.925 122.578 141.867C122.853 141.803 123.078 141.704 123.251 141.569C123.43 141.429 123.52 141.252 123.52 141.041C123.52 140.702 123.331 140.461 122.953 140.321C122.581 140.18 121.982 140.039 121.156 139.898C120.689 139.821 120.215 139.712 119.734 139.571C119.254 139.43 118.812 139.245 118.409 139.014C118.005 138.777 117.682 138.479 117.438 138.121C117.195 137.755 117.073 137.314 117.073 136.795C117.073 136.103 117.281 135.52 117.698 135.046C118.12 134.572 118.681 134.214 119.379 133.97C120.077 133.727 120.846 133.605 121.685 133.605C122.485 133.605 123.231 133.74 123.923 134.009C124.615 134.271 125.175 134.652 125.604 135.152C126.033 135.645 126.248 136.241 126.248 136.939C126.248 136.952 126.248 136.971 126.248 136.997C126.248 137.022 126.248 137.048 126.248 137.073H123.318C123.318 137.048 123.318 137.025 123.318 137.006C123.318 136.987 123.318 136.971 123.318 136.958C123.318 136.702 123.235 136.494 123.068 136.334C122.908 136.174 122.703 136.055 122.453 135.978C122.203 135.895 121.944 135.853 121.675 135.853C121.432 135.853 121.179 135.882 120.916 135.94C120.66 135.991 120.442 136.081 120.263 136.209C120.083 136.33 119.994 136.503 119.994 136.728C119.994 136.945 120.09 137.125 120.282 137.266C120.474 137.4 120.743 137.512 121.089 137.602C121.435 137.685 121.835 137.765 122.29 137.842C122.719 137.912 123.171 138.012 123.644 138.14C124.125 138.261 124.573 138.438 124.989 138.668C125.412 138.892 125.752 139.19 126.008 139.562C126.27 139.927 126.402 140.391 126.402 140.955C126.402 141.537 126.267 142.037 125.998 142.453C125.729 142.87 125.364 143.209 124.903 143.472C124.448 143.728 123.939 143.917 123.375 144.038C122.818 144.167 122.245 144.231 121.656 144.231ZM129.398 139.792V137.823H136.161L135.873 138.322C135.873 138.271 135.873 138.223 135.873 138.178C135.873 138.127 135.873 138.079 135.873 138.034C135.873 137.669 135.787 137.32 135.614 136.987C135.441 136.647 135.172 136.372 134.807 136.161C134.448 135.943 133.987 135.834 133.423 135.834C132.86 135.834 132.373 135.956 131.963 136.199C131.56 136.436 131.249 136.779 131.031 137.227C130.82 137.675 130.714 138.217 130.714 138.851C130.714 139.504 130.817 140.064 131.022 140.532C131.233 140.993 131.544 141.348 131.954 141.598C132.37 141.848 132.885 141.973 133.5 141.973C133.897 141.973 134.24 141.938 134.528 141.867C134.816 141.79 135.05 141.694 135.23 141.579C135.415 141.464 135.556 141.336 135.652 141.195C135.748 141.054 135.806 140.916 135.825 140.782H138.765C138.726 141.211 138.579 141.633 138.323 142.05C138.067 142.46 137.711 142.831 137.257 143.164C136.802 143.491 136.248 143.75 135.595 143.942C134.948 144.134 134.208 144.231 133.375 144.231C132.248 144.231 131.265 144.006 130.426 143.558C129.587 143.103 128.937 142.479 128.476 141.685C128.015 140.884 127.784 139.962 127.784 138.918C127.784 137.861 128.018 136.936 128.485 136.142C128.959 135.341 129.616 134.72 130.455 134.278C131.3 133.829 132.277 133.605 133.385 133.605C134.519 133.605 135.499 133.833 136.325 134.287C137.151 134.736 137.788 135.367 138.237 136.18C138.685 136.987 138.909 137.928 138.909 139.004C138.909 139.165 138.906 139.318 138.899 139.466C138.893 139.613 138.883 139.722 138.871 139.792H129.398ZM145.016 144.231C144.408 144.231 143.822 144.16 143.258 144.019C142.695 143.878 142.189 143.67 141.74 143.395C141.299 143.119 140.946 142.777 140.684 142.367C140.428 141.951 140.299 141.467 140.299 140.916C140.299 140.891 140.299 140.862 140.299 140.83C140.299 140.791 140.299 140.762 140.299 140.743H143.258C143.258 140.762 143.258 140.785 143.258 140.81C143.258 140.83 143.258 140.852 143.258 140.878C143.258 141.249 143.422 141.521 143.748 141.694C144.081 141.867 144.53 141.954 145.093 141.954C145.388 141.954 145.67 141.925 145.939 141.867C146.214 141.803 146.438 141.704 146.611 141.569C146.791 141.429 146.88 141.252 146.88 141.041C146.88 140.702 146.691 140.461 146.313 140.321C145.942 140.18 145.343 140.039 144.517 139.898C144.049 139.821 143.575 139.712 143.095 139.571C142.615 139.43 142.173 139.245 141.769 139.014C141.366 138.777 141.042 138.479 140.799 138.121C140.556 137.755 140.434 137.314 140.434 136.795C140.434 136.103 140.642 135.52 141.058 135.046C141.481 134.572 142.042 134.214 142.74 133.97C143.438 133.727 144.206 133.605 145.045 133.605C145.846 133.605 146.592 133.74 147.284 134.009C147.975 134.271 148.536 134.652 148.965 135.152C149.394 135.645 149.609 136.241 149.609 136.939C149.609 136.952 149.609 136.971 149.609 136.997C149.609 137.022 149.609 137.048 149.609 137.073H146.678C146.678 137.048 146.678 137.025 146.678 137.006C146.678 136.987 146.678 136.971 146.678 136.958C146.678 136.702 146.595 136.494 146.429 136.334C146.269 136.174 146.064 136.055 145.814 135.978C145.564 135.895 145.305 135.853 145.036 135.853C144.792 135.853 144.539 135.882 144.277 135.94C144.021 135.991 143.803 136.081 143.623 136.209C143.444 136.33 143.354 136.503 143.354 136.728C143.354 136.945 143.451 137.125 143.643 137.266C143.835 137.4 144.104 137.512 144.45 137.602C144.796 137.685 145.196 137.765 145.651 137.842C146.08 137.912 146.531 138.012 147.005 138.14C147.485 138.261 147.934 138.438 148.35 138.668C148.773 138.892 149.112 139.19 149.368 139.562C149.631 139.927 149.762 140.391 149.762 140.955C149.762 141.537 149.628 142.037 149.359 142.453C149.09 142.87 148.725 143.209 148.264 143.472C147.809 143.728 147.3 143.917 146.736 144.038C146.179 144.167 145.606 144.231 145.016 144.231ZM155.862 144.231C155.253 144.231 154.667 144.16 154.104 144.019C153.54 143.878 153.034 143.67 152.586 143.395C152.144 143.119 151.792 142.777 151.529 142.367C151.273 141.951 151.145 141.467 151.145 140.916C151.145 140.891 151.145 140.862 151.145 140.83C151.145 140.791 151.145 140.762 151.145 140.743H154.104C154.104 140.762 154.104 140.785 154.104 140.81C154.104 140.83 154.104 140.852 154.104 140.878C154.104 141.249 154.267 141.521 154.594 141.694C154.927 141.867 155.375 141.954 155.939 141.954C156.233 141.954 156.515 141.925 156.784 141.867C157.059 141.803 157.284 141.704 157.457 141.569C157.636 141.429 157.726 141.252 157.726 141.041C157.726 140.702 157.537 140.461 157.159 140.321C156.787 140.18 156.188 140.039 155.362 139.898C154.895 139.821 154.421 139.712 153.94 139.571C153.46 139.43 153.018 139.245 152.615 139.014C152.211 138.777 151.888 138.479 151.644 138.121C151.401 137.755 151.279 137.314 151.279 136.795C151.279 136.103 151.487 135.52 151.904 135.046C152.326 134.572 152.887 134.214 153.585 133.97C154.283 133.727 155.052 133.605 155.891 133.605C156.691 133.605 157.437 133.74 158.129 134.009C158.821 134.271 159.381 134.652 159.81 135.152C160.239 135.645 160.454 136.241 160.454 136.939C160.454 136.952 160.454 136.971 160.454 136.997C160.454 137.022 160.454 137.048 160.454 137.073H157.524C157.524 137.048 157.524 137.025 157.524 137.006C157.524 136.987 157.524 136.971 157.524 136.958C157.524 136.702 157.441 136.494 157.274 136.334C157.114 136.174 156.909 136.055 156.659 135.978C156.409 135.895 156.15 135.853 155.881 135.853C155.638 135.853 155.385 135.882 155.122 135.94C154.866 135.991 154.648 136.081 154.469 136.209C154.289 136.33 154.2 136.503 154.2 136.728C154.2 136.945 154.296 137.125 154.488 137.266C154.68 137.4 154.949 137.512 155.295 137.602C155.641 137.685 156.041 137.765 156.496 137.842C156.925 137.912 157.376 138.012 157.85 138.14C158.331 138.261 158.779 138.438 159.195 138.668C159.618 138.892 159.958 139.19 160.214 139.562C160.476 139.927 160.608 140.391 160.608 140.955C160.608 141.537 160.473 142.037 160.204 142.453C159.935 142.87 159.57 143.209 159.109 143.472C158.654 143.728 158.145 143.917 157.581 144.038C157.024 144.167 156.451 144.231 155.862 144.231ZM168.83 144V140.052C168.83 139.674 168.83 139.347 168.83 139.072C168.83 138.79 168.83 138.556 168.83 138.37C168.83 138.108 168.814 137.848 168.782 137.592C168.757 137.336 168.693 137.099 168.59 136.881C168.494 136.657 168.344 136.481 168.139 136.353C167.934 136.218 167.655 136.151 167.303 136.151C166.976 136.151 166.694 136.222 166.457 136.362C166.22 136.497 166.025 136.686 165.871 136.929C165.724 137.166 165.615 137.442 165.545 137.755C165.474 138.063 165.439 138.386 165.439 138.726L164.622 138.053C164.622 137.189 164.779 136.423 165.093 135.757C165.407 135.085 165.852 134.56 166.429 134.182C167.011 133.797 167.7 133.605 168.494 133.605C169.346 133.605 170.009 133.788 170.483 134.153C170.963 134.512 171.299 134.992 171.491 135.594C171.69 136.19 171.789 136.849 171.789 137.573C171.789 137.848 171.789 138.22 171.789 138.687C171.789 139.155 171.789 139.715 171.789 140.369V144H168.83ZM162.461 144V133.797H165.439V144H162.461ZM175.171 144V140.061C175.171 139.67 175.171 139.334 175.171 139.052C175.171 138.771 175.171 138.537 175.171 138.351C175.171 138.069 175.155 137.8 175.123 137.544C175.091 137.282 175.024 137.045 174.921 136.833C174.819 136.622 174.665 136.455 174.46 136.334C174.255 136.212 173.976 136.151 173.624 136.151C173.298 136.151 173.016 136.222 172.779 136.362C172.548 136.497 172.359 136.683 172.212 136.92C172.065 137.157 171.956 137.426 171.885 137.727C171.821 138.028 171.789 138.342 171.789 138.668L170.973 138.005C170.973 137.153 171.126 136.398 171.434 135.738C171.748 135.078 172.19 134.56 172.76 134.182C173.336 133.797 174.024 133.605 174.825 133.605C175.658 133.605 176.314 133.781 176.794 134.134C177.281 134.486 177.627 134.957 177.832 135.546C178.043 136.129 178.149 136.782 178.149 137.506C178.149 137.794 178.149 138.165 178.149 138.62C178.149 139.075 178.149 139.629 178.149 140.282V144H175.171ZM181.523 139.792V137.823H188.287L187.998 138.322C187.998 138.271 187.998 138.223 187.998 138.178C187.998 138.127 187.998 138.079 187.998 138.034C187.998 137.669 187.912 137.32 187.739 136.987C187.566 136.647 187.297 136.372 186.932 136.161C186.573 135.943 186.112 135.834 185.549 135.834C184.985 135.834 184.498 135.956 184.088 136.199C183.685 136.436 183.374 136.779 183.156 137.227C182.945 137.675 182.839 138.217 182.839 138.851C182.839 139.504 182.942 140.064 183.147 140.532C183.358 140.993 183.669 141.348 184.079 141.598C184.495 141.848 185.011 141.973 185.625 141.973C186.023 141.973 186.365 141.938 186.653 141.867C186.942 141.79 187.175 141.694 187.355 141.579C187.54 141.464 187.681 141.336 187.777 141.195C187.873 141.054 187.931 140.916 187.95 140.782H190.89C190.852 141.211 190.704 141.633 190.448 142.05C190.192 142.46 189.837 142.831 189.382 143.164C188.927 143.491 188.373 143.75 187.72 143.942C187.073 144.134 186.333 144.231 185.501 144.231C184.373 144.231 183.39 144.006 182.551 143.558C181.712 143.103 181.062 142.479 180.601 141.685C180.14 140.884 179.909 139.962 179.909 138.918C179.909 137.861 180.143 136.936 180.611 136.142C181.085 135.341 181.741 134.72 182.58 134.278C183.425 133.829 184.402 133.605 185.51 133.605C186.644 133.605 187.624 133.833 188.45 134.287C189.276 134.736 189.913 135.367 190.362 136.18C190.81 136.987 191.034 137.928 191.034 139.004C191.034 139.165 191.031 139.318 191.025 139.466C191.018 139.613 191.009 139.722 190.996 139.792H181.523ZM200.081 144V139.667C200.081 139.424 200.081 139.203 200.081 139.004C200.081 138.806 200.081 138.627 200.081 138.466C200.081 138.044 200.027 137.659 199.918 137.314C199.809 136.961 199.614 136.68 199.332 136.468C199.05 136.257 198.644 136.151 198.112 136.151C197.651 136.151 197.251 136.257 196.911 136.468C196.578 136.68 196.322 136.974 196.143 137.352C195.963 137.73 195.874 138.165 195.874 138.659L195.047 138.063C195.047 137.179 195.239 136.404 195.624 135.738C196.008 135.072 196.527 134.55 197.18 134.172C197.84 133.794 198.57 133.605 199.37 133.605C200.209 133.605 200.898 133.775 201.436 134.114C201.98 134.447 202.384 134.915 202.646 135.517C202.915 136.113 203.05 136.811 203.05 137.611C203.05 137.938 203.05 138.303 203.05 138.707C203.05 139.11 203.05 139.523 203.05 139.946V144H200.081ZM192.895 144V133.797H195.874V144H192.895ZM210.069 144.211C209.678 144.211 209.275 144.176 208.859 144.106C208.449 144.042 208.064 143.91 207.706 143.712C207.353 143.507 207.068 143.209 206.851 142.818C206.633 142.428 206.524 141.912 206.524 141.272C206.524 141.131 206.524 140.987 206.524 140.839C206.524 140.692 206.524 140.545 206.524 140.397V136.103H204.17V133.797H204.833C205.217 133.797 205.522 133.781 205.746 133.749C205.976 133.717 206.146 133.637 206.255 133.509C206.37 133.375 206.444 133.167 206.476 132.885C206.508 132.603 206.524 132.215 206.524 131.722V130.435H209.512V133.797H212.48V136.103H209.512V139.773C209.512 139.888 209.512 140 209.512 140.109C209.512 140.218 209.512 140.324 209.512 140.426C209.512 140.868 209.563 141.227 209.665 141.502C209.774 141.778 210.04 141.915 210.463 141.915C210.674 141.915 210.873 141.896 211.058 141.858C211.251 141.819 211.395 141.781 211.491 141.742V143.981C211.356 144.038 211.167 144.09 210.924 144.134C210.681 144.186 210.396 144.211 210.069 144.211ZM151.689 170.221C150.709 170.221 149.825 170.074 149.037 169.779C148.256 169.484 147.638 169.052 147.183 168.482C146.729 167.906 146.501 167.201 146.501 166.369C146.501 165.69 146.677 165.088 147.03 164.562C147.388 164.037 147.904 163.538 148.576 163.064C149.255 162.59 150.075 162.093 151.036 161.575C151.868 161.114 152.474 160.672 152.851 160.249C153.229 159.82 153.418 159.378 153.418 158.923C153.418 158.641 153.357 158.408 153.236 158.222C153.114 158.03 152.951 157.882 152.746 157.78C152.541 157.677 152.31 157.626 152.054 157.626C151.811 157.626 151.58 157.677 151.362 157.78C151.151 157.876 150.978 158.02 150.844 158.212C150.716 158.398 150.651 158.632 150.651 158.914C150.651 159.304 150.78 159.721 151.036 160.162C151.298 160.604 151.635 161.078 152.044 161.584L156.886 167.435C157.123 167.717 157.344 167.896 157.549 167.973C157.754 168.05 157.924 168.088 158.058 168.088C158.199 168.088 158.347 168.069 158.5 168.031C158.66 167.992 158.776 167.96 158.846 167.935V170C158.808 170.013 158.683 170.045 158.472 170.096C158.26 170.154 157.988 170.183 157.655 170.183C157.296 170.183 156.915 170.106 156.512 169.952C156.108 169.792 155.762 169.536 155.474 169.183L150.21 162.891C149.915 162.526 149.611 162.129 149.297 161.7C148.983 161.264 148.72 160.803 148.509 160.316C148.298 159.823 148.192 159.311 148.192 158.779C148.192 158.209 148.355 157.694 148.682 157.232C149.015 156.765 149.47 156.393 150.046 156.118C150.623 155.836 151.286 155.695 152.035 155.695C152.797 155.695 153.457 155.833 154.014 156.108C154.571 156.384 155.003 156.752 155.311 157.213C155.618 157.674 155.772 158.19 155.772 158.76C155.772 159.407 155.631 159.986 155.349 160.499C155.074 161.011 154.67 161.488 154.139 161.93C153.614 162.366 152.976 162.798 152.227 163.227C151.253 163.784 150.511 164.281 149.998 164.716C149.492 165.145 149.239 165.651 149.239 166.234C149.239 166.593 149.351 166.916 149.575 167.204C149.8 167.486 150.097 167.707 150.469 167.867C150.847 168.027 151.263 168.107 151.718 168.107C152.499 168.107 153.159 167.986 153.697 167.742C154.241 167.499 154.702 167.179 155.08 166.782C155.477 166.365 155.791 165.898 156.022 165.379C156.252 164.854 156.368 164.197 156.368 163.41H158.789C158.789 164.197 158.692 164.896 158.5 165.504C158.315 166.112 158.068 166.65 157.761 167.118C157.453 167.579 157.114 167.989 156.742 168.348C156.179 168.905 155.468 169.356 154.61 169.702C153.758 170.048 152.784 170.221 151.689 170.221ZM99.7717 190.822C99.7717 191.437 99.6533 192.061 99.4163 192.695C99.1857 193.329 98.8335 193.912 98.3595 194.444C97.892 194.975 97.2964 195.408 96.5726 195.741C95.8553 196.067 95.0035 196.231 94.0172 196.231C92.7042 196.231 91.5834 195.92 90.6548 195.299C89.7261 194.671 89.0152 193.806 88.522 192.705C88.0353 191.603 87.7919 190.338 87.7919 188.91C87.7919 187.482 88.0353 186.22 88.522 185.125C89.0152 184.03 89.7261 183.172 90.6548 182.55C91.5834 181.929 92.7042 181.618 94.0172 181.618C95.1124 181.618 96.0442 181.817 96.8128 182.214C97.5878 182.611 98.2058 183.127 98.6669 183.761C99.1345 184.395 99.4515 185.064 99.618 185.769C99.7205 186.198 99.7717 186.611 99.7717 187.008H96.784C96.784 186.816 96.768 186.63 96.7359 186.451C96.6719 185.983 96.5246 185.567 96.294 185.202C96.0635 184.837 95.756 184.549 95.3718 184.337C94.9939 184.119 94.5424 184.011 94.0172 184.011C93.4023 184.011 92.8547 184.187 92.3744 184.539C91.894 184.891 91.5162 185.429 91.2408 186.153C90.9654 186.877 90.8277 187.796 90.8277 188.91C90.8277 190.031 90.9654 190.956 91.2408 191.686C91.5162 192.41 91.894 192.951 92.3744 193.31C92.8547 193.662 93.4023 193.838 94.0172 193.838C94.4591 193.838 94.8498 193.758 95.1892 193.598C95.5351 193.438 95.8233 193.217 96.0539 192.935C96.2908 192.654 96.4702 192.33 96.5918 191.965C96.7199 191.6 96.784 191.219 96.784 190.822H99.7717ZM106.825 196.221C105.723 196.221 104.753 195.994 103.914 195.539C103.075 195.084 102.418 194.46 101.944 193.666C101.477 192.865 101.243 191.943 101.243 190.899C101.243 189.861 101.477 188.945 101.944 188.151C102.418 187.351 103.075 186.729 103.914 186.287C104.753 185.839 105.723 185.615 106.825 185.615C107.926 185.615 108.897 185.839 109.736 186.287C110.575 186.729 111.228 187.351 111.695 188.151C112.169 188.945 112.406 189.861 112.406 190.899C112.406 191.943 112.169 192.865 111.695 193.666C111.228 194.46 110.575 195.084 109.736 195.539C108.897 195.994 107.926 196.221 106.825 196.221ZM106.825 193.858C107.344 193.858 107.795 193.736 108.179 193.493C108.564 193.249 108.861 192.907 109.073 192.465C109.284 192.016 109.39 191.494 109.39 190.899C109.39 190.303 109.284 189.788 109.073 189.352C108.861 188.91 108.564 188.571 108.179 188.334C107.795 188.097 107.344 187.978 106.825 187.978C106.312 187.978 105.861 188.097 105.47 188.334C105.086 188.571 104.788 188.91 104.577 189.352C104.365 189.788 104.26 190.303 104.26 190.899C104.26 191.494 104.365 192.016 104.577 192.465C104.788 192.907 105.086 193.249 105.47 193.493C105.861 193.736 106.312 193.858 106.825 193.858ZM121.453 196V191.667C121.453 191.424 121.453 191.203 121.453 191.004C121.453 190.806 121.453 190.627 121.453 190.466C121.453 190.044 121.398 189.659 121.289 189.314C121.18 188.961 120.985 188.68 120.703 188.468C120.422 188.257 120.015 188.151 119.483 188.151C119.022 188.151 118.622 188.257 118.282 188.468C117.949 188.68 117.693 188.974 117.514 189.352C117.334 189.73 117.245 190.165 117.245 190.659L116.419 190.063C116.419 189.179 116.611 188.404 116.995 187.738C117.379 187.072 117.898 186.55 118.551 186.172C119.211 185.794 119.941 185.605 120.742 185.605C121.581 185.605 122.269 185.775 122.807 186.114C123.352 186.447 123.755 186.915 124.018 187.517C124.287 188.113 124.421 188.811 124.421 189.611C124.421 189.938 124.421 190.303 124.421 190.707C124.421 191.11 124.421 191.523 124.421 191.946V196H121.453ZM114.267 196V185.797H117.245V196H114.267ZM130.897 196.231C130.288 196.231 129.702 196.16 129.139 196.019C128.575 195.878 128.069 195.67 127.621 195.395C127.179 195.119 126.827 194.777 126.564 194.367C126.308 193.951 126.18 193.467 126.18 192.916C126.18 192.891 126.18 192.862 126.18 192.83C126.18 192.791 126.18 192.762 126.18 192.743H129.139C129.139 192.762 129.139 192.785 129.139 192.81C129.139 192.83 129.139 192.852 129.139 192.878C129.139 193.249 129.302 193.521 129.629 193.694C129.962 193.867 130.41 193.954 130.974 193.954C131.268 193.954 131.55 193.925 131.819 193.867C132.095 193.803 132.319 193.704 132.492 193.569C132.671 193.429 132.761 193.252 132.761 193.041C132.761 192.702 132.572 192.461 132.194 192.321C131.822 192.18 131.224 192.039 130.397 191.898C129.93 191.821 129.456 191.712 128.975 191.571C128.495 191.43 128.053 191.245 127.65 191.014C127.246 190.777 126.923 190.479 126.679 190.121C126.436 189.755 126.314 189.314 126.314 188.795C126.314 188.103 126.523 187.52 126.939 187.046C127.362 186.572 127.922 186.214 128.62 185.97C129.318 185.727 130.087 185.605 130.926 185.605C131.726 185.605 132.472 185.74 133.164 186.009C133.856 186.271 134.416 186.652 134.845 187.152C135.274 187.645 135.489 188.241 135.489 188.939C135.489 188.952 135.489 188.971 135.489 188.997C135.489 189.022 135.489 189.048 135.489 189.073H132.559C132.559 189.048 132.559 189.025 132.559 189.006C132.559 188.987 132.559 188.971 132.559 188.958C132.559 188.702 132.476 188.494 132.309 188.334C132.149 188.174 131.944 188.055 131.694 187.978C131.444 187.895 131.185 187.853 130.916 187.853C130.673 187.853 130.42 187.882 130.157 187.94C129.901 187.991 129.683 188.081 129.504 188.209C129.325 188.33 129.235 188.503 129.235 188.728C129.235 188.945 129.331 189.125 129.523 189.266C129.715 189.4 129.984 189.512 130.33 189.602C130.676 189.685 131.076 189.765 131.531 189.842C131.96 189.912 132.412 190.012 132.886 190.14C133.366 190.261 133.814 190.438 134.23 190.668C134.653 190.892 134.993 191.19 135.249 191.562C135.511 191.927 135.643 192.391 135.643 192.955C135.643 193.537 135.508 194.037 135.239 194.453C134.97 194.87 134.605 195.209 134.144 195.472C133.689 195.728 133.18 195.917 132.617 196.038C132.059 196.167 131.486 196.231 130.897 196.231ZM141.118 196.192C140.394 196.192 139.798 196.077 139.331 195.846C138.863 195.609 138.495 195.292 138.226 194.895C137.957 194.498 137.768 194.056 137.659 193.569C137.55 193.083 137.496 192.59 137.496 192.09C137.496 191.859 137.496 191.616 137.496 191.36C137.496 191.104 137.496 190.841 137.496 190.572V185.797H140.474V190.101C140.474 190.319 140.474 190.53 140.474 190.735C140.474 190.94 140.474 191.129 140.474 191.302C140.474 191.731 140.522 192.125 140.618 192.484C140.714 192.843 140.89 193.131 141.147 193.348C141.409 193.566 141.781 193.675 142.261 193.675C142.729 193.675 143.126 193.544 143.452 193.281C143.779 193.012 144.029 192.67 144.202 192.253C144.375 191.837 144.461 191.408 144.461 190.966L145.297 191.648C145.297 192.289 145.198 192.884 144.999 193.435C144.807 193.986 144.531 194.469 144.173 194.886C143.814 195.295 143.375 195.616 142.857 195.846C142.344 196.077 141.765 196.192 141.118 196.192ZM144.461 196V185.797H147.439V196H144.461ZM152.757 180.984V196H149.818V180.984H152.757ZM160.149 196.211C159.758 196.211 159.354 196.176 158.938 196.106C158.528 196.042 158.144 195.91 157.785 195.712C157.433 195.507 157.148 195.209 156.93 194.818C156.712 194.428 156.604 193.912 156.604 193.272C156.604 193.131 156.604 192.987 156.604 192.839C156.604 192.692 156.604 192.545 156.604 192.397V188.103H154.25V185.797H154.913C155.297 185.797 155.601 185.781 155.825 185.749C156.056 185.717 156.226 185.637 156.335 185.509C156.45 185.375 156.524 185.167 156.556 184.885C156.588 184.603 156.604 184.215 156.604 183.722V182.435H159.591V185.797H162.56V188.103H159.591V191.773C159.591 191.888 159.591 192 159.591 192.109C159.591 192.218 159.591 192.324 159.591 192.426C159.591 192.868 159.643 193.227 159.745 193.502C159.854 193.778 160.12 193.915 160.542 193.915C160.754 193.915 160.952 193.896 161.138 193.858C161.33 193.819 161.474 193.781 161.57 193.742V195.981C161.436 196.038 161.247 196.09 161.004 196.134C160.76 196.186 160.475 196.211 160.149 196.211ZM167.58 196.211C166.837 196.211 166.174 196.093 165.591 195.856C165.015 195.619 164.563 195.276 164.237 194.828C163.91 194.38 163.747 193.835 163.747 193.195C163.747 192.471 163.945 191.882 164.342 191.427C164.739 190.972 165.265 190.627 165.918 190.39C166.578 190.146 167.292 189.986 168.06 189.909C169.181 189.8 169.953 189.701 170.376 189.611C170.805 189.522 171.019 189.365 171.019 189.141C171.019 189.134 171.019 189.128 171.019 189.121C171.019 188.744 170.837 188.446 170.472 188.228C170.113 188.01 169.61 187.901 168.963 187.901C168.278 187.901 167.753 188.026 167.388 188.276C167.029 188.519 166.85 188.894 166.85 189.4H163.92C163.92 188.58 164.141 187.889 164.583 187.325C165.031 186.761 165.636 186.335 166.398 186.047C167.16 185.753 168.022 185.605 168.983 185.605C169.879 185.605 170.709 185.743 171.471 186.018C172.233 186.287 172.845 186.694 173.306 187.238C173.773 187.783 174.007 188.475 174.007 189.314C174.007 189.448 174.007 189.583 174.007 189.717C174.007 189.845 174.007 189.976 174.007 190.111V193.723C174.007 193.986 174.013 194.239 174.026 194.482C174.045 194.719 174.084 194.937 174.141 195.135C174.206 195.36 174.286 195.545 174.382 195.693C174.478 195.84 174.558 195.942 174.622 196H171.692C171.647 195.955 171.576 195.862 171.48 195.721C171.391 195.58 171.314 195.417 171.25 195.231C171.173 195.007 171.115 194.783 171.077 194.559C171.045 194.328 171.029 194.059 171.029 193.752L171.644 194.175C171.464 194.597 171.173 194.962 170.769 195.27C170.372 195.571 169.898 195.805 169.348 195.971C168.803 196.131 168.214 196.211 167.58 196.211ZM168.377 193.983C168.845 193.983 169.28 193.899 169.684 193.733C170.094 193.56 170.427 193.291 170.683 192.926C170.939 192.561 171.067 192.084 171.067 191.494V190.466L171.807 191.187C171.384 191.341 170.894 191.469 170.337 191.571C169.786 191.667 169.236 191.744 168.685 191.802C168.031 191.866 167.542 191.978 167.215 192.138C166.895 192.292 166.735 192.554 166.735 192.926C166.735 193.278 166.872 193.544 167.148 193.723C167.423 193.896 167.833 193.983 168.377 193.983ZM180.976 196.211C180.585 196.211 180.182 196.176 179.766 196.106C179.356 196.042 178.971 195.91 178.613 195.712C178.261 195.507 177.976 195.209 177.758 194.818C177.54 194.428 177.431 193.912 177.431 193.272C177.431 193.131 177.431 192.987 177.431 192.839C177.431 192.692 177.431 192.545 177.431 192.397V188.103H175.077V185.797H175.74C176.125 185.797 176.429 185.781 176.653 185.749C176.884 185.717 177.053 185.637 177.162 185.509C177.277 185.375 177.351 185.167 177.383 184.885C177.415 184.603 177.431 184.215 177.431 183.722V182.435H180.419V185.797H183.387V188.103H180.419V191.773C180.419 191.888 180.419 192 180.419 192.109C180.419 192.218 180.419 192.324 180.419 192.426C180.419 192.868 180.47 193.227 180.573 193.502C180.681 193.778 180.947 193.915 181.37 193.915C181.581 193.915 181.78 193.896 181.966 193.858C182.158 193.819 182.302 193.781 182.398 193.742V195.981C182.263 196.038 182.074 196.09 181.831 196.134C181.588 196.186 181.303 196.211 180.976 196.211ZM185.078 196V185.797H188.027V196H185.078ZM186.548 184.135C186.086 184.135 185.683 184.014 185.337 183.77C184.998 183.527 184.828 183.184 184.828 182.742C184.828 182.294 184.998 181.948 185.337 181.705C185.683 181.461 186.086 181.34 186.548 181.34C187.015 181.34 187.419 181.461 187.758 181.705C188.104 181.948 188.277 182.294 188.277 182.742C188.277 183.191 188.104 183.537 187.758 183.78C187.419 184.017 187.015 184.135 186.548 184.135ZM195.332 196.221C194.231 196.221 193.261 195.994 192.422 195.539C191.583 195.084 190.926 194.46 190.452 193.666C189.985 192.865 189.751 191.943 189.751 190.899C189.751 189.861 189.985 188.945 190.452 188.151C190.926 187.351 191.583 186.729 192.422 186.287C193.261 185.839 194.231 185.615 195.332 185.615C196.434 185.615 197.404 185.839 198.243 186.287C199.082 186.729 199.736 187.351 200.203 188.151C200.677 188.945 200.914 189.861 200.914 190.899C200.914 191.943 200.677 192.865 200.203 193.666C199.736 194.46 199.082 195.084 198.243 195.539C197.404 195.994 196.434 196.221 195.332 196.221ZM195.332 193.858C195.851 193.858 196.303 193.736 196.687 193.493C197.071 193.249 197.369 192.907 197.58 192.465C197.792 192.016 197.898 191.494 197.898 190.899C197.898 190.303 197.792 189.788 197.58 189.352C197.369 188.91 197.071 188.571 196.687 188.334C196.303 188.097 195.851 187.978 195.332 187.978C194.82 187.978 194.369 188.097 193.978 188.334C193.594 188.571 193.296 188.91 193.084 189.352C192.873 189.788 192.767 190.303 192.767 190.899C192.767 191.494 192.873 192.016 193.084 192.465C193.296 192.907 193.594 193.249 193.978 193.493C194.369 193.736 194.82 193.858 195.332 193.858ZM209.96 196V191.667C209.96 191.424 209.96 191.203 209.96 191.004C209.96 190.806 209.96 190.627 209.96 190.466C209.96 190.044 209.906 189.659 209.797 189.314C209.688 188.961 209.493 188.68 209.211 188.468C208.929 188.257 208.523 188.151 207.991 188.151C207.53 188.151 207.13 188.257 206.79 188.468C206.457 188.68 206.201 188.974 206.022 189.352C205.842 189.73 205.753 190.165 205.753 190.659L204.926 190.063C204.926 189.179 205.118 188.404 205.503 187.738C205.887 187.072 206.406 186.55 207.059 186.172C207.719 185.794 208.449 185.605 209.249 185.605C210.088 185.605 210.777 185.775 211.315 186.114C211.859 186.447 212.263 186.915 212.525 187.517C212.794 188.113 212.929 188.811 212.929 189.611C212.929 189.938 212.929 190.303 212.929 190.707C212.929 191.11 212.929 191.523 212.929 191.946V196H209.96ZM202.774 196V185.797H205.753V196H202.774Z" fill="#3DB8DB"/>
<path opacity="0.1" d="M645.043 154.085C645.043 169.686 642.029 183.603 636.001 195.835C629.974 207.89 621.73 217.374 611.271 224.288C600.811 231.202 588.933 234.659 575.637 234.659C562.519 234.659 550.641 231.202 540.004 224.288C529.545 217.374 521.301 207.89 515.274 195.835C509.246 183.603 506.232 169.686 506.232 154.085C506.232 138.485 509.246 124.657 515.274 112.602C521.301 100.37 529.545 90.7965 540.004 83.8825C550.641 76.7913 562.519 73.2458 575.637 73.2458C588.933 73.2458 600.811 76.7913 611.271 83.8825C621.73 90.7965 629.974 100.37 636.001 112.602C642.029 124.657 645.043 138.485 645.043 154.085ZM602.229 154.085C602.229 145.753 601.077 138.485 598.772 132.28C596.468 126.075 593.277 121.2 589.199 117.654C585.299 114.109 580.779 112.336 575.637 112.336C570.319 112.336 565.621 114.109 561.544 117.654C557.466 121.2 554.275 126.075 551.971 132.28C549.843 138.485 548.78 145.753 548.78 154.085C548.78 162.418 549.843 169.686 551.971 175.891C554.275 182.096 557.466 186.971 561.544 190.516C565.621 193.885 570.319 195.569 575.637 195.569C580.779 195.569 585.299 193.885 589.199 190.516C593.277 186.971 596.468 182.096 598.772 175.891C601.077 169.686 602.229 162.418 602.229 154.085ZM666.651 232C666.651 223.668 667.271 216.222 668.512 209.663C669.93 203.103 672.146 197.164 675.16 191.846C678.351 186.35 682.517 181.298 687.658 176.689C692.977 171.902 699.625 167.381 707.602 163.127C715.934 158.695 722.848 154.972 728.344 151.958C734.017 148.767 738.538 146.108 741.906 143.98C745.274 141.853 747.579 139.814 748.82 137.864C750.238 135.737 750.947 133.432 750.947 130.95C750.947 127.582 750.15 124.657 748.554 122.175C746.958 119.693 744.654 117.832 741.64 116.591C738.626 115.172 734.903 114.463 730.471 114.463C726.926 114.463 723.558 114.907 720.366 115.793C717.175 116.679 714.073 118.009 711.059 119.782C708.223 121.555 705.475 123.682 702.816 126.164C700.157 128.468 697.497 131.128 694.838 134.141L667.98 102.763C670.994 99.7491 674.806 96.7353 679.415 93.7216C684.201 90.7078 689.608 88.0486 695.636 85.744C701.663 83.2621 708.223 81.312 715.314 79.8937C722.582 78.2982 730.117 77.5005 737.917 77.5005C750.681 77.5005 761.407 79.4505 770.094 83.3507C778.958 87.0736 785.694 92.392 790.303 99.3059C794.913 106.22 797.217 114.375 797.217 123.771C797.217 129.798 796.242 135.116 794.292 139.726C792.519 144.158 790.126 148.147 787.112 151.692C784.099 155.238 780.642 158.429 776.742 161.265C773.019 164.102 769.296 166.672 765.573 168.977C761.318 171.104 757.329 173.232 753.606 175.359C749.884 177.309 746.427 179.259 743.236 181.209C740.045 182.982 737.031 184.932 734.194 187.06C731.535 189.01 728.965 191.226 726.483 193.708H800.142V232H666.651Z" fill="#3DB8DB"/>
<path d="M579.409 137V122.83H582.349V137H579.409ZM591.06 137V133.052C591.06 132.674 591.06 132.347 591.06 132.072C591.06 131.79 591.06 131.556 591.06 131.37C591.06 131.108 591.044 130.848 591.012 130.592C590.987 130.336 590.923 130.099 590.82 129.881C590.724 129.657 590.574 129.481 590.369 129.353C590.164 129.218 589.885 129.151 589.533 129.151C589.206 129.151 588.924 129.222 588.687 129.362C588.45 129.497 588.255 129.686 588.101 129.929C587.954 130.166 587.845 130.442 587.775 130.755C587.704 131.063 587.669 131.386 587.669 131.726L586.853 131.053C586.853 130.189 587.009 129.423 587.323 128.757C587.637 128.085 588.082 127.56 588.659 127.182C589.241 126.797 589.93 126.605 590.724 126.605C591.576 126.605 592.239 126.788 592.713 127.153C593.193 127.512 593.529 127.992 593.721 128.594C593.92 129.19 594.019 129.849 594.019 130.573C594.019 130.848 594.019 131.22 594.019 131.687C594.019 132.155 594.019 132.715 594.019 133.369V137H591.06ZM584.691 137V126.797H587.669V137H584.691ZM597.401 137V133.061C597.401 132.67 597.401 132.334 597.401 132.052C597.401 131.771 597.401 131.537 597.401 131.351C597.401 131.069 597.385 130.8 597.353 130.544C597.321 130.282 597.254 130.045 597.151 129.833C597.049 129.622 596.895 129.455 596.69 129.334C596.485 129.212 596.206 129.151 595.854 129.151C595.528 129.151 595.246 129.222 595.009 129.362C594.778 129.497 594.589 129.683 594.442 129.92C594.295 130.157 594.186 130.426 594.115 130.727C594.051 131.028 594.019 131.342 594.019 131.668L593.203 131.005C593.203 130.153 593.356 129.398 593.664 128.738C593.978 128.078 594.42 127.56 594.99 127.182C595.566 126.797 596.255 126.605 597.055 126.605C597.888 126.605 598.544 126.781 599.025 127.134C599.511 127.486 599.857 127.957 600.062 128.546C600.273 129.129 600.379 129.782 600.379 130.506C600.379 130.794 600.379 131.165 600.379 131.62C600.379 132.075 600.379 132.629 600.379 133.282V137H597.401ZM602.61 141.198V126.797H605.598V141.198H602.61ZM608.749 137.231C607.942 137.231 607.202 137.016 606.53 136.587C605.857 136.151 605.319 135.569 604.916 134.838C604.512 134.102 604.311 133.276 604.311 132.36C604.311 132.334 604.311 132.312 604.311 132.293C604.311 132.267 604.311 132.238 604.311 132.206L605.598 132.177C605.598 132.197 605.598 132.216 605.598 132.235C605.598 132.254 605.598 132.273 605.598 132.293C605.598 132.767 605.713 133.183 605.944 133.542C606.174 133.894 606.472 134.166 606.837 134.358C607.202 134.55 607.583 134.646 607.98 134.646C608.634 134.646 609.201 134.422 609.681 133.974C610.168 133.519 610.411 132.811 610.411 131.851C610.411 130.89 610.171 130.192 609.69 129.756C609.21 129.314 608.64 129.093 607.98 129.093C607.583 129.093 607.202 129.19 606.837 129.382C606.472 129.567 606.174 129.833 605.944 130.179C605.713 130.525 605.598 130.938 605.598 131.418L604.311 131.342C604.311 130.419 604.512 129.606 604.916 128.901C605.319 128.19 605.857 127.63 606.53 127.22C607.202 126.81 607.942 126.605 608.749 126.605C609.575 126.605 610.347 126.81 611.064 127.22C611.782 127.624 612.361 128.216 612.803 128.997C613.251 129.779 613.476 130.73 613.476 131.851C613.476 133.023 613.258 134.009 612.822 134.81C612.387 135.61 611.81 136.215 611.093 136.625C610.376 137.029 609.594 137.231 608.749 137.231ZM618.416 121.984V137H615.476V121.984H618.416ZM621.935 132.792V130.823H628.699L628.41 131.322C628.41 131.271 628.41 131.223 628.41 131.178C628.41 131.127 628.41 131.079 628.41 131.034C628.41 130.669 628.324 130.32 628.151 129.987C627.978 129.647 627.709 129.372 627.344 129.161C626.985 128.943 626.524 128.834 625.961 128.834C625.397 128.834 624.91 128.956 624.5 129.199C624.097 129.436 623.786 129.779 623.568 130.227C623.357 130.675 623.251 131.217 623.251 131.851C623.251 132.504 623.354 133.064 623.559 133.532C623.77 133.993 624.081 134.348 624.491 134.598C624.907 134.848 625.423 134.973 626.037 134.973C626.435 134.973 626.777 134.938 627.065 134.867C627.354 134.79 627.587 134.694 627.767 134.579C627.952 134.464 628.093 134.336 628.189 134.195C628.285 134.054 628.343 133.916 628.362 133.782H631.302C631.264 134.211 631.116 134.633 630.86 135.05C630.604 135.46 630.248 135.831 629.794 136.164C629.339 136.491 628.785 136.75 628.132 136.942C627.485 137.134 626.745 137.231 625.913 137.231C624.785 137.231 623.802 137.006 622.963 136.558C622.124 136.103 621.474 135.479 621.013 134.685C620.552 133.884 620.321 132.962 620.321 131.918C620.321 130.861 620.555 129.936 621.023 129.142C621.497 128.341 622.153 127.72 622.992 127.278C623.837 126.829 624.814 126.605 625.922 126.605C627.056 126.605 628.036 126.833 628.862 127.287C629.688 127.736 630.325 128.367 630.774 129.18C631.222 129.987 631.446 130.928 631.446 132.004C631.446 132.165 631.443 132.318 631.437 132.466C631.43 132.613 631.421 132.722 631.408 132.792H621.935ZM639.677 137V133.052C639.677 132.674 639.677 132.347 639.677 132.072C639.677 131.79 639.677 131.556 639.677 131.37C639.677 131.108 639.661 130.848 639.629 130.592C639.603 130.336 639.539 130.099 639.437 129.881C639.341 129.657 639.19 129.481 638.985 129.353C638.78 129.218 638.501 129.151 638.149 129.151C637.823 129.151 637.541 129.222 637.304 129.362C637.067 129.497 636.872 129.686 636.718 129.929C636.57 130.166 636.462 130.442 636.391 130.755C636.321 131.063 636.285 131.386 636.285 131.726L635.469 131.053C635.469 130.189 635.626 129.423 635.94 128.757C636.253 128.085 636.699 127.56 637.275 127.182C637.858 126.797 638.546 126.605 639.341 126.605C640.192 126.605 640.855 126.788 641.329 127.153C641.809 127.512 642.146 127.992 642.338 128.594C642.536 129.19 642.636 129.849 642.636 130.573C642.636 130.848 642.636 131.22 642.636 131.687C642.636 132.155 642.636 132.715 642.636 133.369V137H639.677ZM633.307 137V126.797H636.285V137H633.307ZM646.017 137V133.061C646.017 132.67 646.017 132.334 646.017 132.052C646.017 131.771 646.017 131.537 646.017 131.351C646.017 131.069 646.001 130.8 645.969 130.544C645.937 130.282 645.87 130.045 645.768 129.833C645.665 129.622 645.511 129.455 645.306 129.334C645.101 129.212 644.823 129.151 644.471 129.151C644.144 129.151 643.862 129.222 643.625 129.362C643.395 129.497 643.206 129.683 643.058 129.92C642.911 130.157 642.802 130.426 642.732 130.727C642.668 131.028 642.636 131.342 642.636 131.668L641.819 131.005C641.819 130.153 641.973 129.398 642.28 128.738C642.594 128.078 643.036 127.56 643.606 127.182C644.182 126.797 644.871 126.605 645.671 126.605C646.504 126.605 647.161 126.781 647.641 127.134C648.128 127.486 648.474 127.957 648.678 128.546C648.89 129.129 648.995 129.782 648.995 130.506C648.995 130.794 648.995 131.165 648.995 131.62C648.995 132.075 648.995 132.629 648.995 133.282V137H646.017ZM652.37 132.792V130.823H659.133L658.845 131.322C658.845 131.271 658.845 131.223 658.845 131.178C658.845 131.127 658.845 131.079 658.845 131.034C658.845 130.669 658.758 130.32 658.585 129.987C658.413 129.647 658.144 129.372 657.778 129.161C657.42 128.943 656.959 128.834 656.395 128.834C655.831 128.834 655.345 128.956 654.935 129.199C654.531 129.436 654.221 129.779 654.003 130.227C653.792 130.675 653.686 131.217 653.686 131.851C653.686 132.504 653.788 133.064 653.993 133.532C654.205 133.993 654.515 134.348 654.925 134.598C655.342 134.848 655.857 134.973 656.472 134.973C656.869 134.973 657.212 134.938 657.5 134.867C657.788 134.79 658.022 134.694 658.201 134.579C658.387 134.464 658.528 134.336 658.624 134.195C658.72 134.054 658.778 133.916 658.797 133.782H661.737C661.698 134.211 661.551 134.633 661.295 135.05C661.038 135.46 660.683 135.831 660.228 136.164C659.774 136.491 659.22 136.75 658.566 136.942C657.919 137.134 657.18 137.231 656.347 137.231C655.22 137.231 654.237 137.006 653.398 136.558C652.559 136.103 651.909 135.479 651.448 134.685C650.986 133.884 650.756 132.962 650.756 131.918C650.756 130.861 650.99 129.936 651.457 129.142C651.931 128.341 652.588 127.72 653.427 127.278C654.272 126.829 655.249 126.605 656.357 126.605C657.49 126.605 658.47 126.833 659.296 127.287C660.123 127.736 660.76 128.367 661.208 129.18C661.656 129.987 661.881 130.928 661.881 132.004C661.881 132.165 661.877 132.318 661.871 132.466C661.865 132.613 661.855 132.722 661.842 132.792H652.37ZM670.928 137V132.667C670.928 132.424 670.928 132.203 670.928 132.004C670.928 131.806 670.928 131.627 670.928 131.466C670.928 131.044 670.873 130.659 670.765 130.314C670.656 129.961 670.46 129.68 670.178 129.468C669.897 129.257 669.49 129.151 668.958 129.151C668.497 129.151 668.097 129.257 667.758 129.468C667.425 129.68 667.168 129.974 666.989 130.352C666.81 130.73 666.72 131.165 666.72 131.659L665.894 131.063C665.894 130.179 666.086 129.404 666.47 128.738C666.854 128.072 667.373 127.55 668.027 127.172C668.686 126.794 669.416 126.605 670.217 126.605C671.056 126.605 671.744 126.775 672.282 127.114C672.827 127.447 673.23 127.915 673.493 128.517C673.762 129.113 673.896 129.811 673.896 130.611C673.896 130.938 673.896 131.303 673.896 131.707C673.896 132.11 673.896 132.523 673.896 132.946V137H670.928ZM663.742 137V126.797H666.72V137H663.742ZM680.915 137.211C680.525 137.211 680.121 137.176 679.705 137.106C679.295 137.042 678.911 136.91 678.552 136.712C678.2 136.507 677.915 136.209 677.697 135.818C677.479 135.428 677.37 134.912 677.37 134.272C677.37 134.131 677.37 133.987 677.37 133.839C677.37 133.692 677.37 133.545 677.37 133.397V129.103H675.017V126.797H675.68C676.064 126.797 676.368 126.781 676.592 126.749C676.823 126.717 676.993 126.637 677.101 126.509C677.217 126.375 677.29 126.167 677.322 125.885C677.354 125.603 677.37 125.215 677.37 124.722V123.435H680.358V126.797H683.327V129.103H680.358V132.773C680.358 132.888 680.358 133 680.358 133.109C680.358 133.218 680.358 133.324 680.358 133.426C680.358 133.868 680.409 134.227 680.512 134.502C680.621 134.778 680.887 134.915 681.309 134.915C681.521 134.915 681.719 134.896 681.905 134.858C682.097 134.819 682.241 134.781 682.337 134.742V136.981C682.203 137.038 682.014 137.09 681.77 137.134C681.527 137.186 681.242 137.211 680.915 137.211ZM688.347 137.211C687.604 137.211 686.941 137.093 686.358 136.856C685.782 136.619 685.33 136.276 685.004 135.828C684.677 135.38 684.514 134.835 684.514 134.195C684.514 133.471 684.712 132.882 685.109 132.427C685.506 131.972 686.032 131.627 686.685 131.39C687.345 131.146 688.059 130.986 688.827 130.909C689.948 130.8 690.72 130.701 691.142 130.611C691.572 130.522 691.786 130.365 691.786 130.141C691.786 130.134 691.786 130.128 691.786 130.121C691.786 129.744 691.604 129.446 691.239 129.228C690.88 129.01 690.377 128.901 689.73 128.901C689.045 128.901 688.52 129.026 688.155 129.276C687.796 129.519 687.617 129.894 687.617 130.4H684.687C684.687 129.58 684.908 128.889 685.35 128.325C685.798 127.761 686.403 127.335 687.165 127.047C687.927 126.753 688.789 126.605 689.749 126.605C690.646 126.605 691.476 126.743 692.238 127.018C693 127.287 693.611 127.694 694.073 128.238C694.54 128.783 694.774 129.475 694.774 130.314C694.774 130.448 694.774 130.583 694.774 130.717C694.774 130.845 694.774 130.976 694.774 131.111V134.723C694.774 134.986 694.78 135.239 694.793 135.482C694.812 135.719 694.851 135.937 694.908 136.135C694.972 136.36 695.053 136.545 695.149 136.693C695.245 136.84 695.325 136.942 695.389 137H692.459C692.414 136.955 692.343 136.862 692.247 136.721C692.158 136.58 692.081 136.417 692.017 136.231C691.94 136.007 691.882 135.783 691.844 135.559C691.812 135.328 691.796 135.059 691.796 134.752L692.411 135.175C692.231 135.597 691.94 135.962 691.536 136.27C691.139 136.571 690.665 136.805 690.115 136.971C689.57 137.131 688.981 137.211 688.347 137.211ZM689.144 134.983C689.612 134.983 690.047 134.899 690.451 134.733C690.861 134.56 691.194 134.291 691.45 133.926C691.706 133.561 691.834 133.084 691.834 132.494V131.466L692.574 132.187C692.151 132.341 691.661 132.469 691.104 132.571C690.553 132.667 690.002 132.744 689.452 132.802C688.798 132.866 688.308 132.978 687.982 133.138C687.662 133.292 687.501 133.554 687.501 133.926C687.501 134.278 687.639 134.544 687.915 134.723C688.19 134.896 688.6 134.983 689.144 134.983ZM701.743 137.211C701.352 137.211 700.949 137.176 700.533 137.106C700.123 137.042 699.738 136.91 699.38 136.712C699.027 136.507 698.742 136.209 698.525 135.818C698.307 135.428 698.198 134.912 698.198 134.272C698.198 134.131 698.198 133.987 698.198 133.839C698.198 133.692 698.198 133.545 698.198 133.397V129.103H695.844V126.797H696.507C696.891 126.797 697.196 126.781 697.42 126.749C697.65 126.717 697.82 126.637 697.929 126.509C698.044 126.375 698.118 126.167 698.15 125.885C698.182 125.603 698.198 125.215 698.198 124.722V123.435H701.186V126.797H704.154V129.103H701.186V132.773C701.186 132.888 701.186 133 701.186 133.109C701.186 133.218 701.186 133.324 701.186 133.426C701.186 133.868 701.237 134.227 701.34 134.502C701.448 134.778 701.714 134.915 702.137 134.915C702.348 134.915 702.547 134.896 702.733 134.858C702.925 134.819 703.069 134.781 703.165 134.742V136.981C703.03 137.038 702.841 137.09 702.598 137.134C702.355 137.186 702.07 137.211 701.743 137.211ZM705.845 137V126.797H708.794V137H705.845ZM707.314 125.135C706.853 125.135 706.45 125.014 706.104 124.77C705.765 124.527 705.595 124.184 705.595 123.742C705.595 123.294 705.765 122.948 706.104 122.705C706.45 122.461 706.853 122.34 707.314 122.34C707.782 122.34 708.185 122.461 708.525 122.705C708.871 122.948 709.044 123.294 709.044 123.742C709.044 124.191 708.871 124.537 708.525 124.78C708.185 125.017 707.782 125.135 707.314 125.135ZM716.099 137.221C714.998 137.221 714.027 136.994 713.188 136.539C712.349 136.084 711.693 135.46 711.219 134.666C710.752 133.865 710.518 132.943 710.518 131.899C710.518 130.861 710.752 129.945 711.219 129.151C711.693 128.351 712.349 127.729 713.188 127.287C714.027 126.839 714.998 126.615 716.099 126.615C717.201 126.615 718.171 126.839 719.01 127.287C719.849 127.729 720.503 128.351 720.97 129.151C721.444 129.945 721.681 130.861 721.681 131.899C721.681 132.943 721.444 133.865 720.97 134.666C720.503 135.46 719.849 136.084 719.01 136.539C718.171 136.994 717.201 137.221 716.099 137.221ZM716.099 134.858C716.618 134.858 717.07 134.736 717.454 134.493C717.838 134.249 718.136 133.907 718.347 133.465C718.559 133.016 718.664 132.494 718.664 131.899C718.664 131.303 718.559 130.788 718.347 130.352C718.136 129.91 717.838 129.571 717.454 129.334C717.07 129.097 716.618 128.978 716.099 128.978C715.587 128.978 715.135 129.097 714.745 129.334C714.361 129.571 714.063 129.91 713.851 130.352C713.64 130.788 713.534 131.303 713.534 131.899C713.534 132.494 713.64 133.016 713.851 133.465C714.063 133.907 714.361 134.249 714.745 134.493C715.135 134.736 715.587 134.858 716.099 134.858ZM730.727 137V132.667C730.727 132.424 730.727 132.203 730.727 132.004C730.727 131.806 730.727 131.627 730.727 131.466C730.727 131.044 730.673 130.659 730.564 130.314C730.455 129.961 730.26 129.68 729.978 129.468C729.696 129.257 729.289 129.151 728.758 129.151C728.297 129.151 727.896 129.257 727.557 129.468C727.224 129.68 726.968 129.974 726.788 130.352C726.609 130.73 726.519 131.165 726.519 131.659L725.693 131.063C725.693 130.179 725.885 129.404 726.27 128.738C726.654 128.072 727.173 127.55 727.826 127.172C728.486 126.794 729.216 126.605 730.016 126.605C730.855 126.605 731.544 126.775 732.082 127.114C732.626 127.447 733.03 127.915 733.292 128.517C733.561 129.113 733.696 129.811 733.696 130.611C733.696 130.938 733.696 131.303 733.696 131.707C733.696 132.11 733.696 132.523 733.696 132.946V137H730.727ZM723.541 137V126.797H726.519V137H723.541ZM652.886 163.221C651.906 163.221 651.022 163.074 650.234 162.779C649.453 162.484 648.835 162.052 648.38 161.482C647.925 160.906 647.698 160.201 647.698 159.369C647.698 158.69 647.874 158.088 648.226 157.562C648.585 157.037 649.1 156.538 649.773 156.064C650.452 155.59 651.272 155.093 652.232 154.575C653.065 154.114 653.67 153.672 654.048 153.249C654.426 152.82 654.615 152.378 654.615 151.923C654.615 151.641 654.554 151.408 654.432 151.222C654.311 151.03 654.147 150.882 653.942 150.78C653.737 150.677 653.507 150.626 653.251 150.626C653.007 150.626 652.777 150.677 652.559 150.78C652.348 150.876 652.175 151.02 652.04 151.212C651.912 151.398 651.848 151.632 651.848 151.914C651.848 152.304 651.976 152.721 652.232 153.162C652.495 153.604 652.831 154.078 653.241 154.584L658.083 160.435C658.32 160.717 658.541 160.896 658.746 160.973C658.951 161.05 659.12 161.088 659.255 161.088C659.396 161.088 659.543 161.069 659.697 161.031C659.857 160.992 659.972 160.96 660.043 160.935V163C660.004 163.013 659.879 163.045 659.668 163.096C659.457 163.154 659.184 163.183 658.851 163.183C658.493 163.183 658.112 163.106 657.708 162.952C657.305 162.792 656.959 162.536 656.671 162.183L651.406 155.891C651.111 155.526 650.807 155.129 650.493 154.7C650.18 154.264 649.917 153.803 649.706 153.316C649.494 152.823 649.389 152.311 649.389 151.779C649.389 151.209 649.552 150.694 649.879 150.232C650.212 149.765 650.666 149.393 651.243 149.118C651.819 148.836 652.482 148.695 653.231 148.695C653.994 148.695 654.653 148.833 655.21 149.108C655.768 149.384 656.2 149.752 656.507 150.213C656.815 150.674 656.968 151.19 656.968 151.76C656.968 152.407 656.828 152.986 656.546 153.499C656.27 154.011 655.867 154.488 655.335 154.93C654.81 155.366 654.173 155.798 653.424 156.227C652.45 156.784 651.707 157.281 651.195 157.716C650.689 158.145 650.436 158.651 650.436 159.234C650.436 159.593 650.548 159.916 650.772 160.204C650.996 160.486 651.294 160.707 651.665 160.867C652.043 161.027 652.46 161.107 652.914 161.107C653.696 161.107 654.355 160.986 654.893 160.742C655.438 160.499 655.899 160.179 656.277 159.782C656.674 159.365 656.988 158.898 657.218 158.379C657.449 157.854 657.564 157.197 657.564 156.41H659.985C659.985 157.197 659.889 157.896 659.697 158.504C659.511 159.112 659.265 159.65 658.957 160.118C658.65 160.579 658.31 160.989 657.939 161.348C657.375 161.905 656.664 162.356 655.806 162.702C654.954 163.048 653.981 163.221 652.886 163.221ZM602.291 189V174.83H605.231V189H602.291ZM614.759 189V184.667C614.759 184.424 614.759 184.203 614.759 184.004C614.759 183.806 614.759 183.627 614.759 183.466C614.759 183.044 614.705 182.659 614.596 182.314C614.487 181.961 614.292 181.68 614.01 181.468C613.728 181.257 613.321 181.151 612.79 181.151C612.329 181.151 611.928 181.257 611.589 181.468C611.256 181.68 611 181.974 610.82 182.352C610.641 182.73 610.551 183.165 610.551 183.659L609.725 183.063C609.725 182.179 609.917 181.404 610.301 180.738C610.686 180.072 611.205 179.55 611.858 179.172C612.517 178.794 613.248 178.605 614.048 178.605C614.887 178.605 615.576 178.775 616.114 179.114C616.658 179.447 617.062 179.915 617.324 180.517C617.593 181.113 617.728 181.811 617.728 182.611C617.728 182.938 617.728 183.303 617.728 183.707C617.728 184.11 617.728 184.523 617.728 184.946V189H614.759ZM607.573 189V178.797H610.551V189H607.573ZM624.747 189.211C624.356 189.211 623.953 189.176 623.536 189.106C623.126 189.042 622.742 188.91 622.383 188.712C622.031 188.507 621.746 188.209 621.528 187.818C621.311 187.428 621.202 186.912 621.202 186.272C621.202 186.131 621.202 185.987 621.202 185.839C621.202 185.692 621.202 185.545 621.202 185.397V181.103H618.848V178.797H619.511C619.895 178.797 620.199 178.781 620.424 178.749C620.654 178.717 620.824 178.637 620.933 178.509C621.048 178.375 621.122 178.167 621.154 177.885C621.186 177.603 621.202 177.215 621.202 176.722V175.435H624.19V178.797H627.158V181.103H624.19V184.773C624.19 184.888 624.19 185 624.19 185.109C624.19 185.218 624.19 185.324 624.19 185.426C624.19 185.868 624.241 186.227 624.343 186.502C624.452 186.778 624.718 186.915 625.141 186.915C625.352 186.915 625.551 186.896 625.736 186.858C625.928 186.819 626.072 186.781 626.169 186.742V188.981C626.034 189.038 625.845 189.09 625.602 189.134C625.358 189.186 625.073 189.211 624.747 189.211ZM629.863 184.792V182.823H636.626L636.338 183.322C636.338 183.271 636.338 183.223 636.338 183.178C636.338 183.127 636.338 183.079 636.338 183.034C636.338 182.669 636.251 182.32 636.079 181.987C635.906 181.647 635.637 181.372 635.272 181.161C634.913 180.943 634.452 180.834 633.888 180.834C633.325 180.834 632.838 180.956 632.428 181.199C632.024 181.436 631.714 181.779 631.496 182.227C631.285 182.675 631.179 183.217 631.179 183.851C631.179 184.504 631.281 185.064 631.486 185.532C631.698 185.993 632.008 186.348 632.418 186.598C632.835 186.848 633.35 186.973 633.965 186.973C634.362 186.973 634.705 186.938 634.993 186.867C635.281 186.79 635.515 186.694 635.694 186.579C635.88 186.464 636.021 186.336 636.117 186.195C636.213 186.054 636.271 185.916 636.29 185.782H639.23C639.191 186.211 639.044 186.633 638.788 187.05C638.532 187.46 638.176 187.831 637.721 188.164C637.267 188.491 636.713 188.75 636.059 188.942C635.412 189.134 634.673 189.231 633.84 189.231C632.713 189.231 631.73 189.006 630.891 188.558C630.052 188.103 629.402 187.479 628.941 186.685C628.479 185.884 628.249 184.962 628.249 183.918C628.249 182.861 628.483 181.936 628.95 181.142C629.424 180.341 630.081 179.72 630.92 179.278C631.765 178.829 632.742 178.605 633.85 178.605C634.983 178.605 635.963 178.833 636.789 179.287C637.616 179.736 638.253 180.367 638.701 181.18C639.15 181.987 639.374 182.928 639.374 184.004C639.374 184.165 639.371 184.318 639.364 184.466C639.358 184.613 639.348 184.722 639.335 184.792H629.863ZM648.277 187.79C648.904 187.854 649.452 187.975 649.92 188.155C650.394 188.328 650.762 188.587 651.024 188.933C651.287 189.272 651.418 189.727 651.418 190.297C651.418 190.957 651.201 191.517 650.765 191.978C650.336 192.446 649.705 192.801 648.872 193.045C648.04 193.288 647.031 193.41 645.846 193.41C644.098 193.41 642.743 193.157 641.783 192.651C640.828 192.151 640.351 191.482 640.351 190.643C640.351 190.406 640.377 190.191 640.428 189.999C640.486 189.813 640.556 189.653 640.639 189.519L643.348 189.913C643.316 189.957 643.281 190.025 643.243 190.114C643.211 190.21 643.195 190.329 643.195 190.47C643.195 190.809 643.448 191.062 643.954 191.229C644.466 191.395 645.126 191.479 645.933 191.479C646.503 191.479 646.99 191.437 647.393 191.354C647.803 191.277 648.114 191.162 648.325 191.008C648.543 190.854 648.652 190.678 648.652 190.479C648.652 190.191 648.511 190.002 648.229 189.913C647.953 189.823 647.633 189.759 647.268 189.721L643.406 189.327C642.695 189.256 642.106 189.051 641.638 188.712C641.171 188.372 640.937 187.914 640.937 187.338C640.937 186.979 641.036 186.653 641.235 186.358C641.433 186.057 641.661 185.81 641.917 185.618C642.173 185.42 642.388 185.295 642.561 185.244L644.079 186.012C643.957 186.031 643.813 186.108 643.646 186.243C643.486 186.377 643.406 186.534 643.406 186.714C643.406 186.893 643.496 187.047 643.675 187.175C643.861 187.303 644.197 187.389 644.684 187.434L648.277 187.79ZM649.286 178.797H651.908L650.842 182.717C650.643 183.46 650.349 184.123 649.958 184.706C649.567 185.282 649.045 185.737 648.392 186.07C647.745 186.403 646.929 186.569 645.942 186.569C644.905 186.569 644.005 186.409 643.243 186.089C642.487 185.769 641.904 185.317 641.494 184.735C641.084 184.145 640.879 183.45 640.879 182.65C640.879 181.849 641.088 181.145 641.504 180.536C641.927 179.928 642.5 179.454 643.224 179.114C643.954 178.775 644.78 178.605 645.702 178.605C646.4 178.605 647.038 178.721 647.614 178.951C648.197 179.175 648.664 179.473 649.017 179.845C649.375 180.216 649.561 180.626 649.574 181.074L649.026 181.218L649.286 178.797ZM645.923 184.389C646.346 184.389 646.717 184.321 647.038 184.187C647.358 184.046 647.608 183.844 647.787 183.582C647.966 183.313 648.056 182.989 648.056 182.611C648.056 182.24 647.966 181.923 647.787 181.66C647.608 181.398 647.358 181.196 647.038 181.055C646.717 180.914 646.346 180.844 645.923 180.844C645.52 180.844 645.155 180.917 644.828 181.065C644.508 181.206 644.255 181.411 644.069 181.68C643.883 181.942 643.79 182.262 643.79 182.64C643.79 183.012 643.88 183.329 644.059 183.591C644.239 183.847 644.488 184.046 644.809 184.187C645.129 184.321 645.5 184.389 645.923 184.389ZM653.356 189V178.797H656.344V182.314L655.729 181.929C655.8 181.449 655.928 181.007 656.113 180.604C656.299 180.2 656.539 179.851 656.834 179.556C657.129 179.255 657.478 179.022 657.881 178.855C658.291 178.689 658.759 178.605 659.284 178.605C659.694 178.605 660.014 178.637 660.244 178.701C660.481 178.759 660.629 178.804 660.686 178.836L660.196 181.507C660.139 181.475 660.011 181.423 659.812 181.353C659.614 181.282 659.357 181.247 659.044 181.247C658.531 181.247 658.102 181.334 657.756 181.507C657.41 181.68 657.132 181.91 656.92 182.198C656.715 182.48 656.568 182.794 656.478 183.14C656.389 183.486 656.344 183.835 656.344 184.187V189H653.356ZM665.465 189.211C664.722 189.211 664.059 189.093 663.476 188.856C662.9 188.619 662.448 188.276 662.121 187.828C661.795 187.38 661.632 186.835 661.632 186.195C661.632 185.471 661.83 184.882 662.227 184.427C662.624 183.972 663.149 183.627 663.803 183.39C664.462 183.146 665.176 182.986 665.945 182.909C667.066 182.8 667.838 182.701 668.26 182.611C668.689 182.522 668.904 182.365 668.904 182.141C668.904 182.134 668.904 182.128 668.904 182.121C668.904 181.744 668.721 181.446 668.356 181.228C667.998 181.01 667.495 180.901 666.848 180.901C666.163 180.901 665.638 181.026 665.273 181.276C664.914 181.519 664.735 181.894 664.735 182.4H661.804C661.804 181.58 662.025 180.889 662.467 180.325C662.916 179.761 663.521 179.335 664.283 179.047C665.045 178.753 665.907 178.605 666.867 178.605C667.764 178.605 668.593 178.743 669.356 179.018C670.118 179.287 670.729 179.694 671.19 180.238C671.658 180.783 671.892 181.475 671.892 182.314C671.892 182.448 671.892 182.583 671.892 182.717C671.892 182.845 671.892 182.976 671.892 183.111V186.723C671.892 186.986 671.898 187.239 671.911 187.482C671.93 187.719 671.969 187.937 672.026 188.135C672.09 188.36 672.17 188.545 672.266 188.693C672.362 188.84 672.443 188.942 672.507 189H669.576C669.532 188.955 669.461 188.862 669.365 188.721C669.275 188.58 669.199 188.417 669.135 188.231C669.058 188.007 669 187.783 668.962 187.559C668.93 187.328 668.914 187.059 668.914 186.752L669.528 187.175C669.349 187.597 669.058 187.962 668.654 188.27C668.257 188.571 667.783 188.805 667.232 188.971C666.688 189.131 666.099 189.211 665.465 189.211ZM666.262 186.983C666.73 186.983 667.165 186.899 667.569 186.733C667.979 186.56 668.312 186.291 668.568 185.926C668.824 185.561 668.952 185.084 668.952 184.494V183.466L669.692 184.187C669.269 184.341 668.779 184.469 668.222 184.571C667.671 184.667 667.12 184.744 666.57 184.802C665.916 184.866 665.426 184.978 665.1 185.138C664.779 185.292 664.619 185.554 664.619 185.926C664.619 186.278 664.757 186.544 665.032 186.723C665.308 186.896 665.718 186.983 666.262 186.983ZM678.861 189.211C678.47 189.211 678.067 189.176 677.65 189.106C677.24 189.042 676.856 188.91 676.498 188.712C676.145 188.507 675.86 188.209 675.643 187.818C675.425 187.428 675.316 186.912 675.316 186.272C675.316 186.131 675.316 185.987 675.316 185.839C675.316 185.692 675.316 185.545 675.316 185.397V181.103H672.962V178.797H673.625C674.009 178.797 674.314 178.781 674.538 178.749C674.768 178.717 674.938 178.637 675.047 178.509C675.162 178.375 675.236 178.167 675.268 177.885C675.3 177.603 675.316 177.215 675.316 176.722V175.435H678.304V178.797H681.272V181.103H678.304V184.773C678.304 184.888 678.304 185 678.304 185.109C678.304 185.218 678.304 185.324 678.304 185.426C678.304 185.868 678.355 186.227 678.457 186.502C678.566 186.778 678.832 186.915 679.255 186.915C679.466 186.915 679.665 186.896 679.85 186.858C680.042 186.819 680.187 186.781 680.283 186.742V188.981C680.148 189.038 679.959 189.09 679.716 189.134C679.472 189.186 679.187 189.211 678.861 189.211ZM682.962 189V178.797H685.912V189H682.962ZM684.432 177.135C683.971 177.135 683.568 177.014 683.222 176.77C682.882 176.527 682.713 176.184 682.713 175.742C682.713 175.294 682.882 174.948 683.222 174.705C683.568 174.461 683.971 174.34 684.432 174.34C684.9 174.34 685.303 174.461 685.643 174.705C685.989 174.948 686.162 175.294 686.162 175.742C686.162 176.191 685.989 176.537 685.643 176.78C685.303 177.017 684.9 177.135 684.432 177.135ZM693.217 189.221C692.116 189.221 691.145 188.994 690.306 188.539C689.467 188.084 688.811 187.46 688.337 186.666C687.869 185.865 687.636 184.943 687.636 183.899C687.636 182.861 687.869 181.945 688.337 181.151C688.811 180.351 689.467 179.729 690.306 179.287C691.145 178.839 692.116 178.615 693.217 178.615C694.319 178.615 695.289 178.839 696.128 179.287C696.967 179.729 697.62 180.351 698.088 181.151C698.562 181.945 698.799 182.861 698.799 183.899C698.799 184.943 698.562 185.865 698.088 186.666C697.62 187.46 696.967 188.084 696.128 188.539C695.289 188.994 694.319 189.221 693.217 189.221ZM693.217 186.858C693.736 186.858 694.188 186.736 694.572 186.493C694.956 186.249 695.254 185.907 695.465 185.465C695.677 185.016 695.782 184.494 695.782 183.899C695.782 183.303 695.677 182.788 695.465 182.352C695.254 181.91 694.956 181.571 694.572 181.334C694.188 181.097 693.736 180.978 693.217 180.978C692.705 180.978 692.253 181.097 691.863 181.334C691.478 181.571 691.181 181.91 690.969 182.352C690.758 182.788 690.652 183.303 690.652 183.899C690.652 184.494 690.758 185.016 690.969 185.465C691.181 185.907 691.478 186.249 691.863 186.493C692.253 186.736 692.705 186.858 693.217 186.858ZM707.845 189V184.667C707.845 184.424 707.845 184.203 707.845 184.004C707.845 183.806 707.845 183.627 707.845 183.466C707.845 183.044 707.791 182.659 707.682 182.314C707.573 181.961 707.378 181.68 707.096 181.468C706.814 181.257 706.407 181.151 705.876 181.151C705.415 181.151 705.014 181.257 704.675 181.468C704.342 181.68 704.086 181.974 703.906 182.352C703.727 182.73 703.637 183.165 703.637 183.659L702.811 183.063C702.811 182.179 703.003 181.404 703.388 180.738C703.772 180.072 704.291 179.55 704.944 179.172C705.604 178.794 706.334 178.605 707.134 178.605C707.973 178.605 708.662 178.775 709.2 179.114C709.744 179.447 710.148 179.915 710.41 180.517C710.679 181.113 710.814 181.811 710.814 182.611C710.814 182.938 710.814 183.303 710.814 183.707C710.814 184.11 710.814 184.523 710.814 184.946V189H707.845ZM700.659 189V178.797H703.637V189H700.659Z" fill="#3DB8DB"/>
<g opacity="0.1">
<path d="M1156.04 154.085C1156.04 169.686 1153.03 183.603 1147 195.835C1140.97 207.89 1132.73 217.374 1122.27 224.288C1111.81 231.202 1099.93 234.659 1086.64 234.659C1073.52 234.659 1061.64 231.202 1051 224.288C1040.54 217.374 1032.3 207.89 1026.27 195.835C1020.25 183.603 1017.23 169.686 1017.23 154.085C1017.23 138.485 1020.25 124.657 1026.27 112.602C1032.3 100.37 1040.54 90.7965 1051 83.8825C1061.64 76.7913 1073.52 73.2458 1086.64 73.2458C1099.93 73.2458 1111.81 76.7913 1122.27 83.8825C1132.73 90.7965 1140.97 100.37 1147 112.602C1153.03 124.657 1156.04 138.485 1156.04 154.085ZM1113.23 154.085C1113.23 145.753 1112.08 138.485 1109.77 132.28C1107.47 126.075 1104.28 121.2 1100.2 117.654C1096.3 114.109 1091.78 112.336 1086.64 112.336C1081.32 112.336 1076.62 114.109 1072.54 117.654C1068.47 121.2 1065.28 126.075 1062.97 132.28C1060.84 138.485 1059.78 145.753 1059.78 154.085C1059.78 162.418 1060.84 169.686 1062.97 175.891C1065.28 182.096 1068.47 186.971 1072.54 190.516C1076.62 193.885 1081.32 195.569 1086.64 195.569C1091.78 195.569 1096.3 193.885 1100.2 190.516C1104.28 186.971 1107.47 182.096 1109.77 175.891C1112.08 169.686 1113.23 162.418 1113.23 154.085ZM1272.49 169.195C1279.91 170.432 1286.36 173.347 1291.83 177.94C1297.49 182.357 1301.82 187.922 1304.82 194.635C1308 201.172 1309.59 208.592 1309.59 216.895C1309.59 227.848 1306.67 237.388 1300.84 245.515C1295.01 253.642 1286.71 259.913 1275.93 264.33C1265.16 268.747 1252.44 270.955 1237.77 270.955C1224.35 270.955 1212.33 268.923 1201.73 264.86C1191.31 260.973 1182.3 255.143 1174.7 247.37L1197.49 217.16C1202.26 221.93 1207.74 225.64 1213.92 228.29C1220.11 230.94 1227.35 232.265 1235.65 232.265C1245.72 232.265 1253.23 230.498 1258.18 226.965C1263.13 223.255 1265.6 217.69 1265.6 210.27C1265.6 202.32 1262.6 196.313 1256.59 192.25C1250.76 188.187 1241.48 186.155 1228.76 186.155H1220.81V155.68H1229.56C1239.28 155.68 1246.96 153.648 1252.61 149.585C1258.27 145.345 1261.09 139.957 1261.09 133.42C1261.09 129.533 1260.12 126.265 1258.18 123.615C1256.41 120.965 1253.85 119.022 1250.49 117.785C1247.31 116.372 1243.43 115.665 1238.83 115.665C1231.77 115.665 1225.23 117.343 1219.22 120.7C1213.22 124.057 1208.18 129.003 1204.12 135.54L1177.35 104.8C1181.24 99.6767 1186.54 95.26 1193.25 91.55C1200.14 87.6633 1207.92 84.66 1216.57 82.54C1225.23 80.42 1234.24 79.36 1243.6 79.36C1256.15 79.36 1267.1 81.3033 1276.46 85.19C1286 89.0767 1293.34 94.5533 1298.46 101.62C1303.76 108.51 1306.41 116.725 1306.41 126.265C1306.41 133.155 1305 139.692 1302.17 145.875C1299.34 151.882 1295.37 157.005 1290.24 161.245C1285.12 165.308 1279.2 167.958 1272.49 169.195Z" fill="#3DB8DB"/>
</g>
<path d="M1107.84 137.231C1106.95 137.231 1106.13 137.07 1105.36 136.75C1104.59 136.43 1103.92 135.959 1103.33 135.338C1102.75 134.717 1102.29 133.951 1101.96 133.042C1101.63 132.126 1101.46 131.079 1101.46 129.9C1101.46 128.716 1101.62 127.672 1101.95 126.769C1102.28 125.859 1102.74 125.097 1103.32 124.482C1103.91 123.867 1104.58 123.403 1105.35 123.089C1106.12 122.775 1106.95 122.618 1107.84 122.618C1108.72 122.618 1109.55 122.775 1110.32 123.089C1111.09 123.403 1111.77 123.867 1112.35 124.482C1112.94 125.097 1113.39 125.859 1113.72 126.769C1114.04 127.672 1114.21 128.716 1114.21 129.9C1114.21 131.079 1114.04 132.126 1113.71 133.042C1113.38 133.951 1112.92 134.717 1112.33 135.338C1111.75 135.959 1111.07 136.43 1110.3 136.75C1109.53 137.07 1108.71 137.231 1107.84 137.231ZM1107.84 134.838C1108.43 134.838 1108.99 134.675 1109.49 134.348C1110 134.022 1110.41 133.497 1110.72 132.773C1111.03 132.043 1111.18 131.085 1111.18 129.9C1111.18 128.709 1111.02 127.755 1110.71 127.038C1110.4 126.32 1110 125.805 1109.49 125.491C1108.99 125.171 1108.43 125.011 1107.84 125.011C1107.24 125.011 1106.69 125.171 1106.18 125.491C1105.67 125.805 1105.26 126.32 1104.96 127.038C1104.65 127.755 1104.5 128.709 1104.5 129.9C1104.5 131.092 1104.65 132.049 1104.96 132.773C1105.26 133.497 1105.67 134.022 1106.18 134.348C1106.69 134.675 1107.24 134.838 1107.84 134.838ZM1116.17 141.198V126.797H1119.16V141.198H1116.17ZM1122.31 137.231C1121.5 137.231 1120.76 137.016 1120.09 136.587C1119.42 136.151 1118.88 135.569 1118.48 134.838C1118.07 134.102 1117.87 133.276 1117.87 132.36C1117.87 132.334 1117.87 132.312 1117.87 132.293C1117.87 132.267 1117.87 132.238 1117.87 132.206L1119.16 132.177C1119.16 132.197 1119.16 132.216 1119.16 132.235C1119.16 132.254 1119.16 132.273 1119.16 132.293C1119.16 132.767 1119.27 133.183 1119.5 133.542C1119.73 133.894 1120.03 134.166 1120.4 134.358C1120.76 134.55 1121.14 134.646 1121.54 134.646C1122.19 134.646 1122.76 134.422 1123.24 133.974C1123.73 133.519 1123.97 132.811 1123.97 131.851C1123.97 130.89 1123.73 130.192 1123.25 129.756C1122.77 129.314 1122.2 129.093 1121.54 129.093C1121.14 129.093 1120.76 129.19 1120.4 129.382C1120.03 129.567 1119.73 129.833 1119.5 130.179C1119.27 130.525 1119.16 130.938 1119.16 131.418L1117.87 131.342C1117.87 130.419 1118.07 129.606 1118.48 128.901C1118.88 128.19 1119.42 127.63 1120.09 127.22C1120.76 126.81 1121.5 126.605 1122.31 126.605C1123.13 126.605 1123.91 126.81 1124.62 127.22C1125.34 127.624 1125.92 128.216 1126.36 128.997C1126.81 129.779 1127.04 130.73 1127.04 131.851C1127.04 133.023 1126.82 134.009 1126.38 134.81C1125.95 135.61 1125.37 136.215 1124.65 136.625C1123.94 137.029 1123.15 137.231 1122.31 137.231ZM1133.83 137.211C1133.44 137.211 1133.04 137.176 1132.62 137.106C1132.21 137.042 1131.83 136.91 1131.47 136.712C1131.12 136.507 1130.83 136.209 1130.61 135.818C1130.4 135.428 1130.29 134.912 1130.29 134.272C1130.29 134.131 1130.29 133.987 1130.29 133.839C1130.29 133.692 1130.29 133.545 1130.29 133.397V129.103H1127.93V126.797H1128.6C1128.98 126.797 1129.28 126.781 1129.51 126.749C1129.74 126.717 1129.91 126.637 1130.02 126.509C1130.13 126.375 1130.21 126.167 1130.24 125.885C1130.27 125.603 1130.29 125.215 1130.29 124.722V123.435H1133.27V126.797H1136.24V129.103H1133.27V132.773C1133.27 132.888 1133.27 133 1133.27 133.109C1133.27 133.218 1133.27 133.324 1133.27 133.426C1133.27 133.868 1133.33 134.227 1133.43 134.502C1133.54 134.778 1133.8 134.915 1134.23 134.915C1134.44 134.915 1134.63 134.896 1134.82 134.858C1135.01 134.819 1135.16 134.781 1135.25 134.742V136.981C1135.12 137.038 1134.93 137.09 1134.69 137.134C1134.44 137.186 1134.16 137.211 1133.83 137.211ZM1137.93 137V126.797H1140.88V137H1137.93ZM1139.4 125.135C1138.94 125.135 1138.54 125.014 1138.19 124.77C1137.85 124.527 1137.68 124.184 1137.68 123.742C1137.68 123.294 1137.85 122.948 1138.19 122.705C1138.54 122.461 1138.94 122.34 1139.4 122.34C1139.87 122.34 1140.27 122.461 1140.61 122.705C1140.96 122.948 1141.13 123.294 1141.13 123.742C1141.13 124.191 1140.96 124.537 1140.61 124.78C1140.27 125.017 1139.87 125.135 1139.4 125.135ZM1149.45 137V133.052C1149.45 132.674 1149.45 132.347 1149.45 132.072C1149.45 131.79 1149.45 131.556 1149.45 131.37C1149.45 131.108 1149.43 130.848 1149.4 130.592C1149.37 130.336 1149.31 130.099 1149.21 129.881C1149.11 129.657 1148.96 129.481 1148.75 129.353C1148.55 129.218 1148.27 129.151 1147.92 129.151C1147.59 129.151 1147.31 129.222 1147.07 129.362C1146.84 129.497 1146.64 129.686 1146.49 129.929C1146.34 130.166 1146.23 130.442 1146.16 130.755C1146.09 131.063 1146.05 131.386 1146.05 131.726L1145.24 131.053C1145.24 130.189 1145.4 129.423 1145.71 128.757C1146.02 128.085 1146.47 127.56 1147.04 127.182C1147.63 126.797 1148.32 126.605 1149.11 126.605C1149.96 126.605 1150.62 126.788 1151.1 127.153C1151.58 127.512 1151.92 127.992 1152.11 128.594C1152.31 129.19 1152.4 129.849 1152.4 130.573C1152.4 130.848 1152.4 131.22 1152.4 131.687C1152.4 132.155 1152.4 132.715 1152.4 133.369V137H1149.45ZM1143.08 137V126.797H1146.05V137H1143.08ZM1155.79 137V133.061C1155.79 132.67 1155.79 132.334 1155.79 132.052C1155.79 131.771 1155.79 131.537 1155.79 131.351C1155.79 131.069 1155.77 130.8 1155.74 130.544C1155.71 130.282 1155.64 130.045 1155.54 129.833C1155.43 129.622 1155.28 129.455 1155.08 129.334C1154.87 129.212 1154.59 129.151 1154.24 129.151C1153.91 129.151 1153.63 129.222 1153.39 129.362C1153.16 129.497 1152.97 129.683 1152.83 129.92C1152.68 130.157 1152.57 130.426 1152.5 130.727C1152.44 131.028 1152.4 131.342 1152.4 131.668L1151.59 131.005C1151.59 130.153 1151.74 129.398 1152.05 128.738C1152.36 128.078 1152.81 127.56 1153.38 127.182C1153.95 126.797 1154.64 126.605 1155.44 126.605C1156.27 126.605 1156.93 126.781 1157.41 127.134C1157.9 127.486 1158.24 127.957 1158.45 128.546C1158.66 129.129 1158.76 129.782 1158.76 130.506C1158.76 130.794 1158.76 131.165 1158.76 131.62C1158.76 132.075 1158.76 132.629 1158.76 133.282V137H1155.79ZM1160.88 137V126.797H1163.83V137H1160.88ZM1162.35 125.135C1161.89 125.135 1161.49 125.014 1161.14 124.77C1160.8 124.527 1160.63 124.184 1160.63 123.742C1160.63 123.294 1160.8 122.948 1161.14 122.705C1161.49 122.461 1161.89 122.34 1162.35 122.34C1162.82 122.34 1163.22 122.461 1163.56 122.705C1163.91 122.948 1164.08 123.294 1164.08 123.742C1164.08 124.191 1163.91 124.537 1163.56 124.78C1163.22 125.017 1162.82 125.135 1162.35 125.135ZM1168.63 134.666H1174.16V137H1165.44V134.79L1170.84 129.017L1170.9 129.122H1165.63V126.797H1174.05V129.007L1168.7 134.762L1168.63 134.666ZM1179.11 137.211C1178.37 137.211 1177.7 137.093 1177.12 136.856C1176.54 136.619 1176.09 136.276 1175.77 135.828C1175.44 135.38 1175.28 134.835 1175.28 134.195C1175.28 133.471 1175.47 132.882 1175.87 132.427C1176.27 131.972 1176.79 131.627 1177.45 131.39C1178.11 131.146 1178.82 130.986 1179.59 130.909C1180.71 130.8 1181.48 130.701 1181.9 130.611C1182.33 130.522 1182.55 130.365 1182.55 130.141C1182.55 130.134 1182.55 130.128 1182.55 130.121C1182.55 129.744 1182.37 129.446 1182 129.228C1181.64 129.01 1181.14 128.901 1180.49 128.901C1179.81 128.901 1179.28 129.026 1178.92 129.276C1178.56 129.519 1178.38 129.894 1178.38 130.4H1175.45C1175.45 129.58 1175.67 128.889 1176.11 128.325C1176.56 127.761 1177.16 127.335 1177.93 127.047C1178.69 126.753 1179.55 126.605 1180.51 126.605C1181.41 126.605 1182.24 126.743 1183 127.018C1183.76 127.287 1184.37 127.694 1184.83 128.238C1185.3 128.783 1185.54 129.475 1185.54 130.314C1185.54 130.448 1185.54 130.583 1185.54 130.717C1185.54 130.845 1185.54 130.976 1185.54 131.111V134.723C1185.54 134.986 1185.54 135.239 1185.55 135.482C1185.57 135.719 1185.61 135.937 1185.67 136.135C1185.73 136.36 1185.81 136.545 1185.91 136.693C1186.01 136.84 1186.09 136.942 1186.15 137H1183.22C1183.18 136.955 1183.11 136.862 1183.01 136.721C1182.92 136.58 1182.84 136.417 1182.78 136.231C1182.7 136.007 1182.64 135.783 1182.61 135.559C1182.57 135.328 1182.56 135.059 1182.56 134.752L1183.17 135.175C1182.99 135.597 1182.7 135.962 1182.3 136.27C1181.9 136.571 1181.43 136.805 1180.88 136.971C1180.33 137.131 1179.74 137.211 1179.11 137.211ZM1179.91 134.983C1180.37 134.983 1180.81 134.899 1181.21 134.733C1181.62 134.56 1181.96 134.291 1182.21 133.926C1182.47 133.561 1182.6 133.084 1182.6 132.494V131.466L1183.34 132.187C1182.91 132.341 1182.42 132.469 1181.87 132.571C1181.32 132.667 1180.76 132.744 1180.21 132.802C1179.56 132.866 1179.07 132.978 1178.74 133.138C1178.42 133.292 1178.26 133.554 1178.26 133.926C1178.26 134.278 1178.4 134.544 1178.68 134.723C1178.95 134.896 1179.36 134.983 1179.91 134.983ZM1192.5 137.211C1192.11 137.211 1191.71 137.176 1191.29 137.106C1190.88 137.042 1190.5 136.91 1190.14 136.712C1189.79 136.507 1189.5 136.209 1189.29 135.818C1189.07 135.428 1188.96 134.912 1188.96 134.272C1188.96 134.131 1188.96 133.987 1188.96 133.839C1188.96 133.692 1188.96 133.545 1188.96 133.397V129.103H1186.61V126.797H1187.27C1187.65 126.797 1187.96 126.781 1188.18 126.749C1188.41 126.717 1188.58 126.637 1188.69 126.509C1188.81 126.375 1188.88 126.167 1188.91 125.885C1188.94 125.603 1188.96 125.215 1188.96 124.722V123.435H1191.95V126.797H1194.92V129.103H1191.95V132.773C1191.95 132.888 1191.95 133 1191.95 133.109C1191.95 133.218 1191.95 133.324 1191.95 133.426C1191.95 133.868 1192 134.227 1192.1 134.502C1192.21 134.778 1192.48 134.915 1192.9 134.915C1193.11 134.915 1193.31 134.896 1193.49 134.858C1193.69 134.819 1193.83 134.781 1193.93 134.742V136.981C1193.79 137.038 1193.6 137.09 1193.36 137.134C1193.12 137.186 1192.83 137.211 1192.5 137.211ZM1196.61 137V126.797H1199.56V137H1196.61ZM1198.08 125.135C1197.62 125.135 1197.21 125.014 1196.87 124.77C1196.53 124.527 1196.36 124.184 1196.36 123.742C1196.36 123.294 1196.53 122.948 1196.87 122.705C1197.21 122.461 1197.62 122.34 1198.08 122.34C1198.54 122.34 1198.95 122.461 1199.29 122.705C1199.63 122.948 1199.81 123.294 1199.81 123.742C1199.81 124.191 1199.63 124.537 1199.29 124.78C1198.95 125.017 1198.54 125.135 1198.08 125.135ZM1206.86 137.221C1205.76 137.221 1204.79 136.994 1203.95 136.539C1203.11 136.084 1202.45 135.46 1201.98 134.666C1201.51 133.865 1201.28 132.943 1201.28 131.899C1201.28 130.861 1201.51 129.945 1201.98 129.151C1202.45 128.351 1203.11 127.729 1203.95 127.287C1204.79 126.839 1205.76 126.615 1206.86 126.615C1207.96 126.615 1208.93 126.839 1209.77 127.287C1210.61 127.729 1211.26 128.351 1211.73 129.151C1212.21 129.945 1212.44 130.861 1212.44 131.899C1212.44 132.943 1212.21 133.865 1211.73 134.666C1211.26 135.46 1210.61 136.084 1209.77 136.539C1208.93 136.994 1207.96 137.221 1206.86 137.221ZM1206.86 134.858C1207.38 134.858 1207.83 134.736 1208.22 134.493C1208.6 134.249 1208.9 133.907 1209.11 133.465C1209.32 133.016 1209.43 132.494 1209.43 131.899C1209.43 131.303 1209.32 130.788 1209.11 130.352C1208.9 129.91 1208.6 129.571 1208.22 129.334C1207.83 129.097 1207.38 128.978 1206.86 128.978C1206.35 128.978 1205.9 129.097 1205.51 129.334C1205.12 129.571 1204.82 129.91 1204.61 130.352C1204.4 130.788 1204.3 131.303 1204.3 131.899C1204.3 132.494 1204.4 133.016 1204.61 133.465C1204.82 133.907 1205.12 134.249 1205.51 134.493C1205.9 134.736 1206.35 134.858 1206.86 134.858ZM1221.49 137V132.667C1221.49 132.424 1221.49 132.203 1221.49 132.004C1221.49 131.806 1221.49 131.627 1221.49 131.466C1221.49 131.044 1221.43 130.659 1221.33 130.314C1221.22 129.961 1221.02 129.68 1220.74 129.468C1220.46 129.257 1220.05 129.151 1219.52 129.151C1219.06 129.151 1218.66 129.257 1218.32 129.468C1217.99 129.68 1217.73 129.974 1217.55 130.352C1217.37 130.73 1217.28 131.165 1217.28 131.659L1216.46 131.063C1216.46 130.179 1216.65 129.404 1217.03 128.738C1217.42 128.072 1217.93 127.55 1218.59 127.172C1219.25 126.794 1219.98 126.605 1220.78 126.605C1221.62 126.605 1222.31 126.775 1222.84 127.114C1223.39 127.447 1223.79 127.915 1224.05 128.517C1224.32 129.113 1224.46 129.811 1224.46 130.611C1224.46 130.938 1224.46 131.303 1224.46 131.707C1224.46 132.11 1224.46 132.523 1224.46 132.946V137H1221.49ZM1214.3 137V126.797H1217.28V137H1214.3ZM1161.89 163.221C1160.91 163.221 1160.02 163.074 1159.23 162.779C1158.45 162.484 1157.83 162.052 1157.38 161.482C1156.93 160.906 1156.7 160.201 1156.7 159.369C1156.7 158.69 1156.87 158.088 1157.23 157.562C1157.58 157.037 1158.1 156.538 1158.77 156.064C1159.45 155.59 1160.27 155.093 1161.23 154.575C1162.06 154.114 1162.67 153.672 1163.05 153.249C1163.43 152.82 1163.61 152.378 1163.61 151.923C1163.61 151.641 1163.55 151.408 1163.43 151.222C1163.31 151.03 1163.15 150.882 1162.94 150.78C1162.74 150.677 1162.51 150.626 1162.25 150.626C1162.01 150.626 1161.78 150.677 1161.56 150.78C1161.35 150.876 1161.17 151.02 1161.04 151.212C1160.91 151.398 1160.85 151.632 1160.85 151.914C1160.85 152.304 1160.98 152.721 1161.23 153.162C1161.49 153.604 1161.83 154.078 1162.24 154.584L1167.08 160.435C1167.32 160.717 1167.54 160.896 1167.75 160.973C1167.95 161.05 1168.12 161.088 1168.25 161.088C1168.4 161.088 1168.54 161.069 1168.7 161.031C1168.86 160.992 1168.97 160.96 1169.04 160.935V163C1169 163.013 1168.88 163.045 1168.67 163.096C1168.46 163.154 1168.18 163.183 1167.85 163.183C1167.49 163.183 1167.11 163.106 1166.71 162.952C1166.3 162.792 1165.96 162.536 1165.67 162.183L1160.41 155.891C1160.11 155.526 1159.81 155.129 1159.49 154.7C1159.18 154.264 1158.92 153.803 1158.71 153.316C1158.49 152.823 1158.39 152.311 1158.39 151.779C1158.39 151.209 1158.55 150.694 1158.88 150.232C1159.21 149.765 1159.67 149.393 1160.24 149.118C1160.82 148.836 1161.48 148.695 1162.23 148.695C1162.99 148.695 1163.65 148.833 1164.21 149.108C1164.77 149.384 1165.2 149.752 1165.51 150.213C1165.81 150.674 1165.97 151.19 1165.97 151.76C1165.97 152.407 1165.83 152.986 1165.55 153.499C1165.27 154.011 1164.87 154.488 1164.34 154.93C1163.81 155.366 1163.17 155.798 1162.42 156.227C1161.45 156.784 1160.71 157.281 1160.19 157.716C1159.69 158.145 1159.44 158.651 1159.44 159.234C1159.44 159.593 1159.55 159.916 1159.77 160.204C1160 160.486 1160.29 160.707 1160.67 160.867C1161.04 161.027 1161.46 161.107 1161.91 161.107C1162.7 161.107 1163.36 160.986 1163.89 160.742C1164.44 160.499 1164.9 160.179 1165.28 159.782C1165.67 159.365 1165.99 158.898 1166.22 158.379C1166.45 157.854 1166.56 157.197 1166.56 156.41H1168.99C1168.99 157.197 1168.89 157.896 1168.7 158.504C1168.51 159.112 1168.26 159.65 1167.96 160.118C1167.65 160.579 1167.31 160.989 1166.94 161.348C1166.38 161.905 1165.66 162.356 1164.81 162.702C1163.95 163.048 1162.98 163.221 1161.89 163.221ZM1131.37 189.231C1130.34 189.231 1129.44 189.067 1128.66 188.741C1127.88 188.414 1127.28 187.927 1126.83 187.28C1126.4 186.627 1126.18 185.817 1126.18 184.85C1126.18 184.747 1126.18 184.654 1126.18 184.571C1126.18 184.482 1126.18 184.385 1126.18 184.283H1129.17C1129.17 184.379 1129.17 184.466 1129.17 184.542C1129.17 184.613 1129.17 184.696 1129.17 184.792C1129.17 185.452 1129.35 185.958 1129.73 186.31C1130.1 186.662 1130.65 186.838 1131.38 186.838C1132.11 186.838 1132.68 186.723 1133.08 186.493C1133.48 186.256 1133.67 185.868 1133.67 185.33C1133.67 184.952 1133.52 184.619 1133.22 184.331C1132.93 184.043 1132.52 183.787 1132.01 183.562C1131.51 183.332 1130.93 183.117 1130.27 182.919C1129.56 182.695 1128.9 182.4 1128.29 182.035C1127.69 181.67 1127.2 181.206 1126.82 180.642C1126.46 180.078 1126.28 179.383 1126.28 178.557C1126.28 177.725 1126.5 177.017 1126.94 176.434C1127.38 175.845 1127.98 175.397 1128.75 175.089C1129.51 174.775 1130.37 174.618 1131.33 174.618C1132.34 174.618 1133.22 174.775 1133.99 175.089C1134.77 175.397 1135.37 175.861 1135.81 176.482C1136.25 177.097 1136.47 177.866 1136.47 178.788C1136.47 178.89 1136.47 178.986 1136.47 179.076C1136.47 179.159 1136.47 179.255 1136.47 179.364H1133.49C1133.49 179.294 1133.49 179.22 1133.49 179.143C1133.49 179.066 1133.49 178.993 1133.49 178.922C1133.49 178.301 1133.32 177.824 1132.97 177.491C1132.63 177.158 1132.1 176.991 1131.37 176.991C1130.66 176.991 1130.12 177.119 1129.73 177.376C1129.34 177.632 1129.15 178.026 1129.15 178.557C1129.15 178.942 1129.29 179.268 1129.56 179.537C1129.84 179.806 1130.23 180.046 1130.72 180.258C1131.2 180.469 1131.76 180.68 1132.38 180.892C1133.22 181.186 1133.96 181.513 1134.59 181.872C1135.22 182.224 1135.71 182.669 1136.06 183.207C1136.4 183.739 1136.58 184.417 1136.58 185.244C1136.58 186.089 1136.36 186.81 1135.92 187.405C1135.49 188.001 1134.87 188.456 1134.09 188.769C1133.31 189.077 1132.4 189.231 1131.37 189.231ZM1142.15 189.192C1141.42 189.192 1140.83 189.077 1140.36 188.846C1139.89 188.609 1139.53 188.292 1139.26 187.895C1138.99 187.498 1138.8 187.056 1138.69 186.569C1138.58 186.083 1138.53 185.59 1138.53 185.09C1138.53 184.859 1138.53 184.616 1138.53 184.36C1138.53 184.104 1138.53 183.841 1138.53 183.572V178.797H1141.5V183.101C1141.5 183.319 1141.5 183.53 1141.5 183.735C1141.5 183.94 1141.5 184.129 1141.5 184.302C1141.5 184.731 1141.55 185.125 1141.65 185.484C1141.74 185.843 1141.92 186.131 1142.18 186.348C1142.44 186.566 1142.81 186.675 1143.29 186.675C1143.76 186.675 1144.16 186.544 1144.48 186.281C1144.81 186.012 1145.06 185.67 1145.23 185.253C1145.41 184.837 1145.49 184.408 1145.49 183.966L1146.33 184.648C1146.33 185.289 1146.23 185.884 1146.03 186.435C1145.84 186.986 1145.56 187.469 1145.2 187.886C1144.84 188.295 1144.41 188.616 1143.89 188.846C1143.37 189.077 1142.8 189.192 1142.15 189.192ZM1145.49 189V178.797H1148.47V189H1145.49ZM1150.7 193.198V178.797H1153.69V193.198H1150.7ZM1156.84 189.231C1156.04 189.231 1155.3 189.016 1154.62 188.587C1153.95 188.151 1153.41 187.569 1153.01 186.838C1152.61 186.102 1152.4 185.276 1152.4 184.36C1152.4 184.334 1152.4 184.312 1152.4 184.293C1152.4 184.267 1152.4 184.238 1152.4 184.206L1153.69 184.177C1153.69 184.197 1153.69 184.216 1153.69 184.235C1153.69 184.254 1153.69 184.273 1153.69 184.293C1153.69 184.767 1153.81 185.183 1154.04 185.542C1154.27 185.894 1154.57 186.166 1154.93 186.358C1155.3 186.55 1155.68 186.646 1156.07 186.646C1156.73 186.646 1157.29 186.422 1157.77 185.974C1158.26 185.519 1158.5 184.811 1158.5 183.851C1158.5 182.89 1158.26 182.192 1157.78 181.756C1157.3 181.314 1156.73 181.093 1156.07 181.093C1155.68 181.093 1155.3 181.19 1154.93 181.382C1154.57 181.567 1154.27 181.833 1154.04 182.179C1153.81 182.525 1153.69 182.938 1153.69 183.418L1152.4 183.342C1152.4 182.419 1152.61 181.606 1153.01 180.901C1153.41 180.19 1153.95 179.63 1154.62 179.22C1155.3 178.81 1156.04 178.605 1156.84 178.605C1157.67 178.605 1158.44 178.81 1159.16 179.22C1159.88 179.624 1160.46 180.216 1160.9 180.997C1161.35 181.779 1161.57 182.73 1161.57 183.851C1161.57 185.023 1161.35 186.009 1160.92 186.81C1160.48 187.61 1159.9 188.215 1159.19 188.625C1158.47 189.029 1157.69 189.231 1156.84 189.231ZM1163.43 193.198V178.797H1166.41V193.198H1163.43ZM1169.56 189.231C1168.76 189.231 1168.02 189.016 1167.35 188.587C1166.67 188.151 1166.13 187.569 1165.73 186.838C1165.33 186.102 1165.13 185.276 1165.13 184.36C1165.13 184.334 1165.13 184.312 1165.13 184.293C1165.13 184.267 1165.13 184.238 1165.13 184.206L1166.41 184.177C1166.41 184.197 1166.41 184.216 1166.41 184.235C1166.41 184.254 1166.41 184.273 1166.41 184.293C1166.41 184.767 1166.53 185.183 1166.76 185.542C1166.99 185.894 1167.29 186.166 1167.65 186.358C1168.02 186.55 1168.4 186.646 1168.8 186.646C1169.45 186.646 1170.02 186.422 1170.5 185.974C1170.98 185.519 1171.23 184.811 1171.23 183.851C1171.23 182.89 1170.99 182.192 1170.51 181.756C1170.03 181.314 1169.46 181.093 1168.8 181.093C1168.4 181.093 1168.02 181.19 1167.65 181.382C1167.29 181.567 1166.99 181.833 1166.76 182.179C1166.53 182.525 1166.41 182.938 1166.41 183.418L1165.13 183.342C1165.13 182.419 1165.33 181.606 1165.73 180.901C1166.13 180.19 1166.67 179.63 1167.35 179.22C1168.02 178.81 1168.76 178.605 1169.56 178.605C1170.39 178.605 1171.16 178.81 1171.88 179.22C1172.6 179.624 1173.18 180.216 1173.62 180.997C1174.07 181.779 1174.29 182.73 1174.29 183.851C1174.29 185.023 1174.07 186.009 1173.64 186.81C1173.2 187.61 1172.63 188.215 1171.91 188.625C1171.19 189.029 1170.41 189.231 1169.56 189.231ZM1181.26 189.221C1180.16 189.221 1179.19 188.994 1178.35 188.539C1177.51 188.084 1176.85 187.46 1176.38 186.666C1175.91 185.865 1175.68 184.943 1175.68 183.899C1175.68 182.861 1175.91 181.945 1176.38 181.151C1176.85 180.351 1177.51 179.729 1178.35 179.287C1179.19 178.839 1180.16 178.615 1181.26 178.615C1182.36 178.615 1183.33 178.839 1184.17 179.287C1185.01 179.729 1185.66 180.351 1186.13 181.151C1186.6 181.945 1186.84 182.861 1186.84 183.899C1186.84 184.943 1186.6 185.865 1186.13 186.666C1185.66 187.46 1185.01 188.084 1184.17 188.539C1183.33 188.994 1182.36 189.221 1181.26 189.221ZM1181.26 186.858C1181.78 186.858 1182.23 186.736 1182.61 186.493C1183 186.249 1183.29 185.907 1183.51 185.465C1183.72 185.016 1183.82 184.494 1183.82 183.899C1183.82 183.303 1183.72 182.788 1183.51 182.352C1183.29 181.91 1183 181.571 1182.61 181.334C1182.23 181.097 1181.78 180.978 1181.26 180.978C1180.75 180.978 1180.29 181.097 1179.9 181.334C1179.52 181.571 1179.22 181.91 1179.01 182.352C1178.8 182.788 1178.69 183.303 1178.69 183.899C1178.69 184.494 1178.8 185.016 1179.01 185.465C1179.22 185.907 1179.52 186.249 1179.9 186.493C1180.29 186.736 1180.75 186.858 1181.26 186.858ZM1188.7 189V178.797H1191.69V182.314L1191.07 181.929C1191.14 181.449 1191.27 181.007 1191.46 180.604C1191.64 180.2 1191.88 179.851 1192.18 179.556C1192.47 179.255 1192.82 179.022 1193.23 178.855C1193.64 178.689 1194.1 178.605 1194.63 178.605C1195.04 178.605 1195.36 178.637 1195.59 178.701C1195.83 178.759 1195.97 178.804 1196.03 178.836L1195.54 181.507C1195.48 181.475 1195.35 181.423 1195.16 181.353C1194.96 181.282 1194.7 181.247 1194.39 181.247C1193.88 181.247 1193.45 181.334 1193.1 181.507C1192.75 181.68 1192.48 181.91 1192.26 182.198C1192.06 182.48 1191.91 182.794 1191.82 183.14C1191.73 183.486 1191.69 183.835 1191.69 184.187V189H1188.7ZM1202.55 189.211C1202.16 189.211 1201.76 189.176 1201.34 189.106C1200.93 189.042 1200.55 188.91 1200.19 188.712C1199.84 188.507 1199.55 188.209 1199.33 187.818C1199.12 187.428 1199.01 186.912 1199.01 186.272C1199.01 186.131 1199.01 185.987 1199.01 185.839C1199.01 185.692 1199.01 185.545 1199.01 185.397V181.103H1196.65V178.797H1197.32C1197.7 178.797 1198.01 178.781 1198.23 178.749C1198.46 178.717 1198.63 178.637 1198.74 178.509C1198.85 178.375 1198.93 178.167 1198.96 177.885C1198.99 177.603 1199.01 177.215 1199.01 176.722V175.435H1202V178.797H1204.96V181.103H1202V184.773C1202 184.888 1202 185 1202 185.109C1202 185.218 1202 185.324 1202 185.426C1202 185.868 1202.05 186.227 1202.15 186.502C1202.26 186.778 1202.52 186.915 1202.95 186.915C1203.16 186.915 1203.36 186.896 1203.54 186.858C1203.73 186.819 1203.88 186.781 1203.97 186.742V188.981C1203.84 189.038 1203.65 189.09 1203.41 189.134C1203.16 189.186 1202.88 189.211 1202.55 189.211Z" fill="#3DB8DB"/>
</svg>
