<svg width="312" height="103" viewBox="0 0 312 103" fill="none" xmlns="http://www.w3.org/2000/svg">
<g filter="url(#filter0_d_233_901)">
<path d="M26 3H286V86C286 91.5228 281.523 96 276 96H36C30.4772 96 26 91.5229 26 86V3Z" fill="#3DB8DB"/>
</g>
<path d="M286 3L312 34H286V3Z" fill="#3DA0BD"/>
<path d="M26 3L0 34H26V3Z" fill="#3DA0BD"/>
<path d="M107.193 59V36.875H113.808C115.278 36.875 116.613 37.14 117.813 37.67C119.013 38.19 120.043 38.935 120.903 39.905C121.763 40.875 122.428 42.04 122.898 43.4C123.368 44.75 123.603 46.255 123.603 47.915C123.603 49.575 123.368 51.085 122.898 52.445C122.428 53.795 121.763 54.96 120.903 55.94C120.043 56.92 119.013 57.675 117.813 58.205C116.613 58.735 115.278 59 113.808 59H107.193ZM111.153 57.815L109.368 55.85H113.298C114.498 55.85 115.568 55.53 116.508 54.89C117.458 54.24 118.208 53.325 118.758 52.145C119.308 50.955 119.583 49.545 119.583 47.915C119.583 46.275 119.308 44.865 118.758 43.685C118.208 42.505 117.458 41.6 116.508 40.97C115.568 40.34 114.498 40.025 113.298 40.025H109.368L111.153 38.06V57.815ZM128.366 52.31V49.505H139.511L139.061 50.255C139.061 50.195 139.061 50.13 139.061 50.06C139.061 49.98 139.061 49.915 139.061 49.865C139.061 49.175 138.906 48.53 138.596 47.93C138.286 47.32 137.816 46.83 137.186 46.46C136.556 46.08 135.756 45.89 134.786 45.89C133.826 45.89 132.991 46.095 132.281 46.505C131.581 46.905 131.036 47.485 130.646 48.245C130.266 49.005 130.076 49.915 130.076 50.975C130.076 52.065 130.261 53.005 130.631 53.795C131.001 54.575 131.541 55.175 132.251 55.595C132.971 56.005 133.846 56.21 134.876 56.21C135.576 56.21 136.181 56.145 136.691 56.015C137.201 55.885 137.616 55.71 137.936 55.49C138.266 55.26 138.511 55.015 138.671 54.755C138.841 54.495 138.941 54.235 138.971 53.975H142.901C142.841 54.645 142.616 55.3 142.226 55.94C141.846 56.57 141.311 57.145 140.621 57.665C139.931 58.175 139.091 58.585 138.101 58.895C137.121 59.195 136.001 59.345 134.741 59.345C133.031 59.345 131.536 58.995 130.256 58.295C128.976 57.595 127.976 56.62 127.256 55.37C126.546 54.12 126.191 52.69 126.191 51.08C126.191 49.43 126.551 47.985 127.271 46.745C128.001 45.505 129.011 44.54 130.301 43.85C131.591 43.15 133.071 42.8 134.741 42.8C136.461 42.8 137.946 43.15 139.196 43.85C140.456 44.55 141.426 45.525 142.106 46.775C142.786 48.015 143.126 49.46 143.126 51.11C143.126 51.32 143.121 51.545 143.111 51.785C143.101 52.025 143.086 52.2 143.066 52.31H128.366ZM152.813 59.33C151.863 59.33 150.958 59.225 150.098 59.015C149.248 58.805 148.488 58.49 147.818 58.07C147.158 57.65 146.633 57.13 146.243 56.51C145.863 55.88 145.673 55.155 145.673 54.335C145.673 54.275 145.673 54.215 145.673 54.155C145.673 54.095 145.673 54.04 145.673 53.99H149.603C149.603 54.04 149.603 54.085 149.603 54.125C149.603 54.155 149.603 54.2 149.603 54.26C149.603 54.91 149.898 55.4 150.488 55.73C151.088 56.05 151.903 56.21 152.933 56.21C153.493 56.21 154.018 56.15 154.508 56.03C155.008 55.91 155.408 55.725 155.708 55.475C156.018 55.225 156.173 54.905 156.173 54.515C156.173 53.885 155.848 53.435 155.198 53.165C154.558 52.895 153.548 52.65 152.168 52.43C151.408 52.3 150.658 52.125 149.918 51.905C149.178 51.685 148.503 51.39 147.893 51.02C147.293 50.65 146.808 50.19 146.438 49.64C146.078 49.09 145.898 48.42 145.898 47.63C145.898 46.58 146.208 45.7 146.828 44.99C147.458 44.27 148.298 43.725 149.348 43.355C150.408 42.985 151.573 42.8 152.843 42.8C154.063 42.8 155.198 43 156.248 43.4C157.298 43.8 158.143 44.375 158.783 45.125C159.433 45.875 159.758 46.78 159.758 47.84C159.758 47.88 159.758 47.925 159.758 47.975C159.758 48.015 159.758 48.05 159.758 48.08H155.858C155.858 48.05 155.858 48.02 155.858 47.99C155.858 47.96 155.858 47.925 155.858 47.885C155.858 47.425 155.713 47.05 155.423 46.76C155.133 46.47 154.758 46.255 154.298 46.115C153.838 45.975 153.353 45.905 152.843 45.905C152.393 45.905 151.928 45.955 151.448 46.055C150.968 46.145 150.568 46.31 150.248 46.55C149.928 46.78 149.768 47.105 149.768 47.525C149.768 47.925 149.933 48.25 150.263 48.5C150.593 48.75 151.053 48.96 151.643 49.13C152.233 49.29 152.913 49.435 153.683 49.565C154.413 49.685 155.148 49.85 155.888 50.06C156.638 50.27 157.323 50.55 157.943 50.9C158.563 51.25 159.063 51.71 159.443 52.28C159.833 52.84 160.028 53.535 160.028 54.365C160.028 55.245 159.828 55.995 159.428 56.615C159.028 57.235 158.483 57.75 157.793 58.16C157.113 58.56 156.343 58.855 155.483 59.045C154.623 59.235 153.733 59.33 152.813 59.33ZM163.208 59V43.07H167.108V59H163.208ZM165.173 40.13C164.533 40.13 163.973 39.96 163.493 39.62C163.023 39.27 162.788 38.785 162.788 38.165C162.788 37.555 163.023 37.08 163.493 36.74C163.973 36.4 164.533 36.23 165.173 36.23C165.803 36.23 166.353 36.4 166.823 36.74C167.293 37.08 167.528 37.555 167.528 38.165C167.528 38.785 167.293 39.27 166.823 39.62C166.353 39.96 165.803 40.13 165.173 40.13ZM181.727 57.425C182.667 57.515 183.492 57.69 184.202 57.95C184.912 58.21 185.467 58.595 185.867 59.105C186.267 59.625 186.467 60.315 186.467 61.175C186.467 62.135 186.142 62.965 185.492 63.665C184.842 64.365 183.887 64.905 182.627 65.285C181.377 65.665 179.837 65.855 178.007 65.855C175.347 65.855 173.302 65.47 171.872 64.7C170.442 63.94 169.727 62.905 169.727 61.595C169.727 61.225 169.772 60.89 169.862 60.59C169.952 60.29 170.062 60.04 170.192 59.84L173.807 60.365C173.747 60.445 173.687 60.57 173.627 60.74C173.567 60.92 173.537 61.135 173.537 61.385C173.537 62.005 173.952 62.45 174.782 62.72C175.622 63 176.737 63.14 178.127 63.14C179.147 63.14 179.997 63.07 180.677 62.93C181.367 62.79 181.887 62.59 182.237 62.33C182.597 62.07 182.777 61.765 182.777 61.415C182.777 60.895 182.542 60.56 182.072 60.41C181.602 60.26 181.042 60.16 180.392 60.11L174.347 59.555C173.267 59.445 172.377 59.125 171.677 58.595C170.987 58.065 170.642 57.365 170.642 56.495C170.642 55.965 170.782 55.475 171.062 55.025C171.352 54.575 171.682 54.2 172.052 53.9C172.422 53.59 172.737 53.4 172.997 53.33L175.247 54.44C175.037 54.47 174.787 54.605 174.497 54.845C174.217 55.085 174.077 55.37 174.077 55.7C174.077 56.01 174.217 56.27 174.497 56.48C174.777 56.68 175.317 56.82 176.117 56.9L181.727 57.425ZM183.512 43.07H187.052L185.612 49.25C185.342 50.41 184.907 51.45 184.307 52.37C183.707 53.29 182.907 54.015 181.907 54.545C180.907 55.075 179.647 55.34 178.127 55.34C176.547 55.34 175.182 55.085 174.032 54.575C172.892 54.055 172.012 53.33 171.392 52.4C170.772 51.46 170.462 50.38 170.462 49.16C170.462 47.91 170.777 46.81 171.407 45.86C172.047 44.9 172.922 44.15 174.032 43.61C175.152 43.07 176.417 42.8 177.827 42.8C178.967 42.8 179.992 42.99 180.902 43.37C181.812 43.74 182.537 44.225 183.077 44.825C183.627 45.425 183.922 46.065 183.962 46.745L183.077 46.91L183.512 43.07ZM178.112 52.295C178.882 52.295 179.547 52.17 180.107 51.92C180.667 51.67 181.102 51.31 181.412 50.84C181.722 50.36 181.877 49.78 181.877 49.1C181.877 48.43 181.722 47.855 181.412 47.375C181.102 46.895 180.667 46.53 180.107 46.28C179.547 46.02 178.887 45.89 178.127 45.89C177.387 45.89 176.732 46.02 176.162 46.28C175.592 46.54 175.142 46.915 174.812 47.405C174.492 47.885 174.332 48.46 174.332 49.13C174.332 49.8 174.487 50.375 174.797 50.855C175.117 51.325 175.557 51.685 176.117 51.935C176.687 52.175 177.352 52.295 178.112 52.295ZM200.974 59V51.935C200.974 51.535 200.974 51.185 200.974 50.885C200.974 50.575 200.974 50.295 200.974 50.045C200.974 49.325 200.869 48.68 200.659 48.11C200.459 47.53 200.109 47.075 199.609 46.745C199.119 46.415 198.439 46.25 197.569 46.25C196.809 46.25 196.134 46.435 195.544 46.805C194.954 47.165 194.489 47.665 194.149 48.305C193.819 48.935 193.654 49.665 193.654 50.495L192.319 49.67C192.319 48.34 192.619 47.16 193.219 46.13C193.829 45.09 194.644 44.275 195.664 43.685C196.684 43.095 197.814 42.8 199.054 42.8C200.334 42.8 201.409 43.05 202.279 43.55C203.159 44.05 203.819 44.76 204.259 45.68C204.709 46.6 204.934 47.68 204.934 48.92C204.934 49.4 204.934 49.94 204.934 50.54C204.934 51.14 204.934 51.73 204.934 52.31V59H200.974ZM189.709 59V43.07H193.654V59H189.709Z" fill="white"/>
<defs>
<filter id="filter0_d_233_901" x="21" y="0" width="270" height="103" filterUnits="userSpaceOnUse" color-interpolation-filters="sRGB">
<feFlood flood-opacity="0" result="BackgroundImageFix"/>
<feColorMatrix in="SourceAlpha" type="matrix" values="0 0 0 0 0 0 0 0 0 0 0 0 0 0 0 0 0 0 127 0" result="hardAlpha"/>
<feOffset dy="2"/>
<feGaussianBlur stdDeviation="2.5"/>
<feComposite in2="hardAlpha" operator="out"/>
<feColorMatrix type="matrix" values="0 0 0 0 0.239618 0 0 0 0 0.719936 0 0 0 0 0.858333 0 0 0 0.15 0"/>
<feBlend mode="normal" in2="BackgroundImageFix" result="effect1_dropShadow_233_901"/>
<feBlend mode="normal" in="SourceGraphic" in2="effect1_dropShadow_233_901" result="shape"/>
</filter>
</defs>
</svg>
