<svg width="312" height="103" viewBox="0 0 312 103" fill="none" xmlns="http://www.w3.org/2000/svg">
<g filter="url(#filter0_d_233_933)">
<path d="M26 3H286V86C286 91.5228 281.523 96 276 96H36C30.4772 96 26 91.5229 26 86V3Z" fill="#3DB8DB"/>
</g>
<path d="M286 3L312 34H286V3Z" fill="#3DA0BD"/>
<path d="M26 3L0 34H26V3Z" fill="#3DA0BD"/>
<path d="M145.464 57.85H148.839C148.839 58.38 149.009 58.82 149.349 59.17C149.699 59.52 150.114 59.8 150.594 60.01C151.084 60.23 151.544 60.39 151.974 60.49C152.404 60.6 152.709 60.675 152.889 60.715L151.749 63.37C151.579 63.35 151.259 63.295 150.789 63.205C150.319 63.115 149.784 62.955 149.184 62.725C148.584 62.505 147.999 62.19 147.429 61.78C146.869 61.38 146.399 60.855 146.019 60.205C145.649 59.565 145.464 58.78 145.464 57.85ZM147.219 58.33C145.879 58.33 144.629 58.08 143.469 57.58C142.309 57.08 141.289 56.345 140.409 55.375C139.539 54.395 138.859 53.2 138.369 51.79C137.889 50.37 137.649 48.745 137.649 46.915C137.649 45.085 137.889 43.465 138.369 42.055C138.859 40.645 139.539 39.46 140.409 38.5C141.279 37.53 142.294 36.8 143.454 36.31C144.624 35.81 145.879 35.56 147.219 35.56C148.579 35.56 149.839 35.81 150.999 36.31C152.169 36.8 153.189 37.53 154.059 38.5C154.929 39.46 155.604 40.645 156.084 42.055C156.574 43.465 156.819 45.085 156.819 46.915C156.819 48.745 156.574 50.37 156.084 51.79C155.594 53.2 154.909 54.395 154.029 55.375C153.159 56.345 152.144 57.08 150.984 57.58C149.824 58.08 148.569 58.33 147.219 58.33ZM147.219 55.075C148.259 55.075 149.199 54.795 150.039 54.235C150.879 53.665 151.544 52.78 152.034 51.58C152.534 50.38 152.784 48.825 152.784 46.915C152.784 44.995 152.534 43.445 152.034 42.265C151.534 41.075 150.864 40.205 150.024 39.655C149.184 39.105 148.249 38.83 147.219 38.83C146.209 38.83 145.279 39.105 144.429 39.655C143.589 40.205 142.914 41.075 142.404 42.265C141.904 43.445 141.654 44.995 141.654 46.915C141.654 48.835 141.904 50.395 142.404 51.595C142.914 52.795 143.589 53.675 144.429 54.235C145.279 54.795 146.209 55.075 147.219 55.075ZM158.119 58L163.834 35.845H170.074L175.744 58H171.679L166.939 38.29H166.969L162.184 58H158.119ZM161.809 52.615V49.45H172.099V52.615H161.809Z" fill="white"/>
<defs>
<filter id="filter0_d_233_933" x="21" y="0" width="270" height="103" filterUnits="userSpaceOnUse" color-interpolation-filters="sRGB">
<feFlood flood-opacity="0" result="BackgroundImageFix"/>
<feColorMatrix in="SourceAlpha" type="matrix" values="0 0 0 0 0 0 0 0 0 0 0 0 0 0 0 0 0 0 127 0" result="hardAlpha"/>
<feOffset dy="2"/>
<feGaussianBlur stdDeviation="2.5"/>
<feComposite in2="hardAlpha" operator="out"/>
<feColorMatrix type="matrix" values="0 0 0 0 0.239618 0 0 0 0 0.719936 0 0 0 0 0.858333 0 0 0 0.15 0"/>
<feBlend mode="normal" in2="BackgroundImageFix" result="effect1_dropShadow_233_933"/>
<feBlend mode="normal" in="SourceGraphic" in2="effect1_dropShadow_233_933" result="shape"/>
</filter>
</defs>
</svg>
