<svg width="500" height="500" viewBox="0 0 500 500" fill="none" xmlns="http://www.w3.org/2000/svg">
<path d="M289.24 446.384C314.658 446.384 335.264 434.487 335.264 419.812C335.264 405.137 314.658 393.24 289.24 393.24C263.822 393.24 243.216 405.137 243.216 419.812C243.216 434.487 263.822 446.384 289.24 446.384Z" fill="#E0E0E0"/>
<path d="M104.258 460.122L184.95 337.594L130.521 306.169L49.8291 428.698L104.258 460.122Z" fill="#3DB8DB"/>
<path opacity="0.2" d="M104.258 460.122L184.95 337.594L130.521 306.169L49.8291 428.698L104.258 460.122Z" fill="white"/>
<path d="M184.949 337.594L104.258 460.122L136.915 441.267L195.764 352.258L184.949 337.594Z" fill="#3DB8DB"/>
<path opacity="0.2" d="M184.949 337.594L104.258 460.122L136.915 441.267L195.764 352.258L184.949 337.594Z" fill="black"/>
<path d="M331.38 71.906L336.713 95.773L358.632 108.598L353.177 84.49L331.38 71.906Z" fill="#3DB8DB"/>
<path opacity="0.2" d="M331.38 71.906L336.713 95.773L358.632 108.598L353.177 84.49L331.38 71.906Z" fill="black"/>
<path d="M284.128 189.61L353.177 84.4899L331.38 71.9059L414.256 48.5249L429.352 128.47L407.606 115.915L338.556 221.035L284.128 189.61Z" fill="#3DB8DB"/>
<path opacity="0.2" d="M284.128 189.61L353.177 84.4899L331.38 71.9059L414.256 48.5249L429.352 128.47L407.606 115.915L338.556 221.035L284.128 189.61Z" fill="white"/>
<path d="M407.606 115.915L338.592 221.034L350.815 234.926L413.145 140.063L434.834 152.592L429.352 128.47L407.606 115.915Z" fill="#3DB8DB"/>
<path opacity="0.2" d="M407.606 115.915L338.592 221.034L350.815 234.926L413.145 140.063L434.834 152.592L429.352 128.47L407.606 115.915Z" fill="black"/>
<path d="M296.351 203.604L284.128 189.712L338.592 221.034L350.815 234.926L296.351 203.604Z" fill="#3DB8DB"/>
<path opacity="0.4" d="M296.351 203.604L284.128 189.712L338.592 221.034L350.815 234.926L296.351 203.604Z" fill="black"/>
<path opacity="0.2" d="M413.145 140.063L407.606 115.915L429.352 128.47L434.834 152.592L413.145 140.063Z" fill="black"/>
<path d="M328.922 395.622C328.922 401.399 328.876 409.216 328.906 414.192C328.914 415.275 328.921 416.608 328.921 418.38C328.929 418.388 328.929 418.395 328.921 418.403C328.126 423.606 324.279 428.687 317.38 432.671C301.78 441.675 276.486 441.675 260.885 432.671C252.842 428.029 248.95 421.895 249.207 415.813V415.768C249.253 415.253 249.306 414.715 249.374 414.155C249.374 414.132 249.381 414.11 249.381 414.094C250.055 408.179 250.541 402.262 250.874 396.711C251.404 387.904 251.33 384.026 251.258 379.285C251.169 373.435 248.738 368.837 242.566 363.65C236.394 358.455 224.126 340.719 224.126 340.719L305.498 298.893L328.634 372.17C328.634 372.168 328.922 389.844 328.922 395.622Z" fill="#FFA8A7"/>
<path d="M306.124 283.73C306.124 283.73 304.588 289.894 297.317 281.74C290.046 273.586 278.15 261.122 265.615 249.131C259.606 243.383 235.53 224.015 219.376 209.38C214.23 204.071 206.917 200.353 201.891 204.216C196.865 208.079 196.85 217.569 200.016 222.273C202.818 226.437 208.822 232.218 213.406 236.37C213.377 236.621 213.349 236.868 213.319 237.121C212.452 244.687 210.903 253.197 210.168 262.373C209.73 267.836 203.142 274.724 203.231 280.335C205.169 288.304 215.757 296.91 223.245 302.889C230.733 308.868 233.993 311.302 233.909 313.189C233.779 316.083 221.653 305.56 216.258 301.856C216.558 319.029 205.585 321.096 205.585 321.096C207.233 324.402 216.591 331.683 229.892 348.712C235.143 355.434 288.583 311.197 288.583 311.197L301.273 303.051L310.203 288.276L306.124 283.73Z" fill="#FFA8A7"/>
<path d="M301.685 298.884C296.672 305.177 276.982 325.284 292.476 351.933C290.81 350.35 289.932 349.139 289.576 348.661C287.349 345.723 285.608 342.413 284.366 338.945C284.32 338.816 284.283 338.695 284.237 338.574C280.716 328.426 281.92 318.104 288.485 309.38C293.657 302.526 303.071 295.87 304.328 288.478C304.374 288.205 304.404 287.94 304.419 287.675C304.638 289.978 304.896 294.863 301.685 298.884Z" fill="#F28F8F"/>
<path opacity="0.5" d="M199.03 208.01C197.056 212.529 197.641 218.746 200.015 222.274C202.817 226.438 208.821 232.219 213.405 236.371C213.382 236.571 213.359 236.77 213.336 236.97C215.357 238.704 217.53 240.543 219.914 242.641C225.653 247.692 233.243 254.207 238.972 259.267C241.84 261.8 255.474 272.767 260.418 277.18C252.805 268.833 235.712 253.68 227.11 245.211C220.615 238.817 211.044 229.898 207.925 226.346C204.806 222.794 202.986 220.361 201.89 219.02C198.066 214.334 198.908 208.924 199.03 208.01Z" fill="#F28F8F"/>
<path d="M213.617 328.5C216.312 328.255 219.772 326.259 221.17 323.943C223.182 320.609 223.563 318.019 223.02 312.82C222.881 311.49 222.551 309.091 221.551 305.654C219.767 304.371 217.911 302.992 216.257 301.857C216.557 319.03 205.584 321.097 205.584 321.097C206.331 322.594 208.663 324.912 212.222 328.576C212.689 328.566 213.155 328.542 213.617 328.5Z" fill="#F28F8F"/>
<path d="M204.828 259.118C204.398 259.513 210.477 265.368 211.116 265.725C213.367 266.979 217.671 265.417 219.532 263.861C220.707 262.879 221.565 261.556 222.159 260.145C224.184 255.337 223.195 249.855 222.168 244.74C222.007 243.939 221.778 243.04 221.065 242.641C220.946 245.316 218.585 246.484 216.837 248.089C215.169 249.621 213.502 251.153 211.834 252.684C209.498 254.828 207.163 256.973 204.828 259.118Z" fill="#F28F8F"/>
<path d="M218.649 262.267L250.472 294.387L213.319 263.245L218.649 262.267Z" fill="#F28F8F"/>
<path d="M214.301 289.709C217.382 288.714 219.952 286.231 221.022 283.175C221.934 280.57 221.777 277.728 221.601 274.974C221.451 272.632 221.286 270.245 220.421 268.063L205.535 273.116C204.244 275.612 203.193 278.078 203.229 280.336C204.019 283.585 206.084 286.878 208.997 290.044C210.697 290.331 212.66 290.239 214.301 289.709Z" fill="#F28F8F"/>
<path d="M210.34 236.129C216.882 235.532 220.314 238.403 221.777 244.267C222.331 246.486 222.389 250.002 221.777 254.363C221.165 258.724 217.035 263.948 211.718 263.166C211.633 263.153 211.547 263.14 211.461 263.126C202.865 261.729 201.891 257.111 201.891 249.658C201.891 242.205 204.52 236.66 210.34 236.129Z" fill="#FFA8A7"/>
<path opacity="0.5" d="M218.063 237.858C218.537 238.268 221.311 240.985 221.336 248.506C221.363 256.728 217.238 258.433 212.685 259.165C208.132 259.897 201.991 257.063 201.991 252.945L201.988 252.946C202.382 258.477 204.209 261.948 211.461 263.126C211.548 263.14 211.634 263.153 211.719 263.166C217.036 263.948 221.166 258.723 221.778 254.363C222.39 250.002 222.332 246.485 221.778 244.267C221.059 241.39 219.863 239.238 218.063 237.858Z" fill="#F28F8F"/>
<path d="M210.488 262.337C216.463 261.792 219.599 264.414 220.936 269.771C221.441 271.798 221.495 275.01 220.936 278.994C220.377 282.977 216.604 287.75 211.747 287.035C211.669 287.023 211.591 287.011 211.512 286.999C203.66 285.723 202.77 281.505 202.77 274.696C202.77 267.887 205.172 262.822 210.488 262.337Z" fill="#FFA8A7"/>
<path opacity="0.5" d="M218.816 265.172C219.658 266.421 220.269 269.496 219.774 274.153C219.125 280.255 217.819 283.221 212.479 283.605C206.947 284.003 203.548 281.442 202.964 278.747C203.49 283.186 205.362 285.998 211.512 286.998C211.591 287.011 211.67 287.023 211.747 287.034C216.604 287.749 220.377 282.976 220.936 278.993C221.495 275.01 221.442 271.797 220.936 269.771C220.467 267.893 219.771 266.359 218.816 265.172Z" fill="#F28F8F"/>
<path d="M210.809 299.304C217.01 298.738 221.651 301.685 221.651 307.019V316.59C221.651 321.685 217.156 325.677 212.115 324.935C212.034 324.923 211.953 324.911 211.871 324.897C203.722 323.573 203.82 316.129 203.722 312.22C203.624 308.312 205.292 299.807 210.809 299.304Z" fill="#FFA8A7"/>
<path opacity="0.5" d="M218.631 301.008C221.34 303.844 220.285 309.614 220.076 315.305C219.931 319.253 217.876 322.525 212.479 322.525C207.082 322.525 204.665 319.227 203.932 315.999L203.929 315.992C204.376 319.72 205.934 323.932 211.871 324.897C211.953 324.91 212.035 324.923 212.115 324.935C217.156 325.676 221.651 321.685 221.651 316.59V307.019C221.651 304.388 220.518 302.342 218.631 301.008Z" fill="#F28F8F"/>
<path d="M142.069 297.42L275.461 196.285L329.925 227.709L196.498 328.845L142.069 297.42Z" fill="#3DB8DB"/>
<path d="M329.925 227.709L342.148 241.6L207.313 343.509L196.498 328.845L329.925 227.709Z" fill="#3DB8DB"/>
<path opacity="0.2" d="M329.925 227.709L342.148 241.6L207.313 343.509L196.498 328.845L329.925 227.709Z" fill="black"/>
<path d="M142.069 297.423L152.884 312.087L207.313 343.509L196.498 328.845L142.069 297.423Z" fill="#3DB8DB"/>
<path opacity="0.4" d="M142.069 297.423L152.884 312.087L207.313 343.509L196.498 328.845L142.069 297.423Z" fill="black"/>
<path d="M328.632 372.169C328.632 357.987 329.666 338.957 332.012 322.551C334.358 306.145 333.905 292.102 333.187 288.135C332.469 284.168 332.266 278.402 326.143 271.084C323.258 267.635 316.93 262.606 311.653 256.409C306.329 250.156 301.36 243.213 298.544 239.416C295.727 235.619 288.733 241.732 289.073 253.838C289.351 263.727 296.109 272.38 298.721 276.078C301.906 280.59 304.169 284.948 304.423 287.669C304.638 289.972 304.898 294.851 301.685 298.885C296.674 305.177 276.981 325.284 292.479 351.934V376.384L328.632 372.169Z" fill="#FFA8A7"/>
<path d="M299.809 246.818C299.809 246.818 305.819 254.971 307.739 256.019C309.658 257.067 310.205 254.677 310.205 254.677L310.198 254.666C307.438 250.788 302.289 243.734 298.543 239.416C299.025 240.229 300.124 243.212 299.809 246.818Z" fill="#FFA8A7"/>
<path opacity="0.6" d="M299.809 246.818C299.809 246.818 305.818 254.974 307.739 256.019C309.535 256.996 310.205 254.677 310.205 254.677L310.198 254.666C307.438 250.788 302.289 243.734 298.543 239.416C299.025 240.229 300.124 243.212 299.809 246.818Z" fill="white"/>
<path d="M310.205 254.677L310.198 254.666C310.205 254.677 309.62 253.751 309.305 253.417C309.579 255.328 308.193 256.213 308.193 256.213C309.774 256.676 310.205 254.677 310.205 254.677Z" fill="#F28F8F"/>
<path d="M251.195 430.154C249.484 427.267 246.639 424.555 242.65 422.252C228.681 414.187 206.032 414.187 192.062 422.252C188.073 424.555 185.228 427.267 183.517 430.154H181.585V437.463H181.61C181.867 442.544 185.344 447.581 192.062 451.459C206.031 459.524 228.68 459.524 242.65 451.459C249.367 447.581 252.87 442.544 253.127 437.462V437.463V430.154H251.195Z" fill="#3DB8DB"/>
<path opacity="0.25" d="M251.195 430.154C249.484 427.267 246.639 424.555 242.65 422.252C228.681 414.187 206.032 414.187 192.062 422.252C188.073 424.555 185.228 427.267 183.517 430.154H181.585V437.463H181.61C181.867 442.544 185.344 447.581 192.062 451.459C206.031 459.524 228.68 459.524 242.65 451.459C249.367 447.581 252.87 442.544 253.127 437.462V437.463V430.154H251.195Z" fill="black"/>
<path opacity="0.1" d="M217.359 416.203C208.204 416.203 199.048 418.219 192.063 422.252C188.074 424.555 185.229 427.267 183.519 430.154H181.586V437.463H181.611C181.869 442.544 185.346 447.581 192.063 451.459C199.048 455.492 208.204 457.508 217.359 457.508V416.203Z" fill="black"/>
<path opacity="0.1" d="M197.821 419.556C195.785 420.324 193.852 421.22 192.064 422.252C188.075 424.555 185.23 427.267 183.52 430.154H181.587V437.463H181.612C181.87 442.544 185.347 447.581 192.064 451.459C193.852 452.491 195.786 453.387 197.821 454.155V419.556Z" fill="black"/>
<path opacity="0.5" d="M236.893 419.556C238.929 420.324 240.862 421.22 242.65 422.252C246.639 424.555 249.484 427.267 251.194 430.154H253.127V437.463V437.462C252.869 442.543 249.367 447.58 242.65 451.459C240.862 452.491 238.928 453.387 236.893 454.155V419.556Z" fill="#3DB8DB"/>
<path d="M192.063 415.553C178.093 423.618 178.095 436.695 192.063 444.76C204.286 451.817 223.153 452.7 237.038 447.408L237.04 447.407C237.225 447.336 237.409 447.265 237.594 447.191C239.372 446.484 241.067 445.675 242.651 444.76C254.3 438.034 256.236 427.825 248.454 419.941C248.452 419.938 248.45 419.937 248.45 419.937C246.903 418.368 244.969 416.892 242.65 415.553C228.683 407.489 206.033 407.488 192.063 415.553Z" fill="#3DB8DB"/>
<path opacity="0.2" d="M192.063 415.553C178.093 423.618 178.095 436.695 192.063 444.76C204.286 451.817 223.153 452.7 237.038 447.408L237.04 447.407C237.225 447.336 237.409 447.265 237.594 447.191C239.372 446.484 241.067 445.675 242.651 444.76C254.3 438.034 256.236 427.825 248.454 419.941C248.452 419.938 248.45 419.937 248.45 419.937C246.903 418.368 244.969 416.892 242.65 415.553C228.683 407.489 206.033 407.488 192.063 415.553Z" fill="black"/>
<path opacity="0.5" d="M248.454 419.942C248.604 420.111 253.49 425.266 252.195 432.684C250.958 439.782 241.019 445.756 237.594 447.192C239.372 446.485 241.067 445.676 242.651 444.761C254.3 438.034 256.236 427.825 248.454 419.942Z" fill="#F5F5F5"/>
<path opacity="0.5" d="M186.26 440.373C186.11 440.204 181.224 435.049 182.519 427.632C183.756 420.534 193.695 414.56 197.121 413.124C195.343 413.831 193.648 414.64 192.064 415.555C180.415 422.28 178.479 432.49 186.26 440.373Z" fill="#F5F5F5"/>
<path d="M240.882 443.704C253.868 436.207 253.868 424.051 240.882 416.554C227.896 409.057 206.842 409.057 193.856 416.554C180.87 424.051 180.87 436.207 193.856 443.704C206.842 451.201 227.896 451.201 240.882 443.704Z" fill="#3DB8DB"/>
<path opacity="0.4" d="M240.882 443.704C253.868 436.207 253.868 424.051 240.882 416.554C227.896 409.057 206.842 409.057 193.856 416.554C180.87 424.051 180.87 436.207 193.856 443.704C206.842 451.201 227.896 451.201 240.882 443.704Z" fill="white"/>
<path opacity="0.2" d="M249.111 435.862C251.784 430.922 250.912 425.476 246.5 420.857C245.684 420.003 244.743 419.178 243.683 418.39C242.861 417.774 241.96 417.182 240.991 416.616C240.46 416.305 239.915 416.009 239.353 415.728C240.735 418.002 240.229 420.439 232.397 420.896C217.071 421.791 236.493 436.437 236.493 436.437C236.493 436.437 246.372 431.667 249.111 435.862Z" fill="white"/>
<path opacity="0.5" d="M247.53 431.811C249.83 431.553 250.97 429.188 250.076 426.528C249.182 423.868 246.593 421.92 244.293 422.178C241.993 422.436 240.853 424.801 241.747 427.461C242.641 430.121 245.23 432.068 247.53 431.811Z" fill="white"/>
<path d="M223.289 444.017C222.534 438.326 197.656 422.57 197.656 422.57C197.656 422.57 192.139 420.356 193.971 416.5C193.014 417.049 192.127 417.623 191.311 418.22C190.736 418.635 190.198 419.061 189.695 419.5C182.289 425.913 182.279 434.337 189.698 440.758C190.198 441.195 190.739 441.623 191.311 442.04C192.074 442.596 192.893 443.13 193.778 443.645C194.622 444.14 195.504 444.598 196.414 445.026C197.139 445.369 197.893 445.692 198.656 445.992C199.416 446.293 200.194 446.573 200.988 446.833C203.352 447.609 205.847 448.201 208.41 448.616C208.963 448.704 209.523 448.786 210.08 448.858C212.525 449.172 215.01 449.329 217.502 449.324C220.56 449.318 223.617 449.07 226.581 448.579C226.579 448.577 222.577 447.76 223.289 444.017Z" fill="#3DB8DB"/>
<path opacity="0.3" d="M223.289 444.017C222.534 438.326 197.656 422.57 197.656 422.57C197.656 422.57 192.139 420.356 193.971 416.5C193.014 417.049 192.127 417.623 191.311 418.22C190.736 418.635 190.198 419.061 189.695 419.5C182.289 425.913 182.279 434.337 189.698 440.758C190.198 441.195 190.739 441.623 191.311 442.04C192.074 442.596 192.893 443.13 193.778 443.645C194.622 444.14 195.504 444.598 196.414 445.026C197.139 445.369 197.893 445.692 198.656 445.992C199.416 446.293 200.194 446.573 200.988 446.833C203.352 447.609 205.847 448.201 208.41 448.616C208.963 448.704 209.523 448.786 210.08 448.858C212.525 449.172 215.01 449.329 217.502 449.324C220.56 449.318 223.617 449.07 226.581 448.579C226.579 448.577 222.577 447.76 223.289 444.017Z" fill="white"/>
<path d="M199.841 420.014C190.561 425.372 190.185 433.92 198.709 439.539C199.071 439.777 199.451 440.013 199.845 440.241C209.52 445.827 225.2 445.827 234.875 440.241C244.55 434.656 244.553 425.6 234.878 420.015C234.484 419.787 234.075 419.568 233.662 419.359C223.93 414.437 209.121 414.657 199.841 420.014Z" fill="#3DB8DB"/>
<path opacity="0.2" d="M199.841 420.014C190.561 425.372 190.185 433.92 198.709 439.539C199.071 439.777 199.451 440.013 199.845 440.241C209.52 445.827 225.2 445.827 234.875 440.241C244.55 434.656 244.553 425.6 234.878 420.015C234.484 419.787 234.075 419.568 233.662 419.359C223.93 414.437 209.121 414.657 199.841 420.014Z" fill="black"/>
<path d="M217.371 443.799C230.448 443.799 241.05 437.678 241.05 430.128C241.05 422.578 230.448 416.457 217.371 416.457C204.293 416.457 193.692 422.578 193.692 430.128C193.692 437.678 204.293 443.799 217.371 443.799Z" fill="#3DB8DB"/>
<path opacity="0.5" d="M217.371 443.799C230.448 443.799 241.05 437.678 241.05 430.128C241.05 422.578 230.448 416.457 217.371 416.457C204.293 416.457 193.692 422.578 193.692 430.128C193.692 437.678 204.293 443.799 217.371 443.799Z" fill="black"/>
<path d="M200.627 424.274C209.874 418.935 224.867 418.935 234.115 424.274C237.897 426.457 240.13 429.195 240.818 432.034C240.129 434.873 237.896 437.611 234.115 439.794C224.868 445.133 209.875 445.133 200.628 439.794C196.846 437.611 194.613 434.873 193.925 432.034C194.613 429.195 196.846 426.457 200.627 424.274Z" fill="#3DB8DB"/>
<path opacity="0.35" d="M200.627 424.274C209.874 418.935 224.867 418.935 234.115 424.274C237.897 426.457 240.13 429.195 240.818 432.034C240.129 434.873 237.896 437.611 234.115 439.794C224.868 445.133 209.875 445.133 200.628 439.794C196.846 437.611 194.613 434.873 193.925 432.034C194.613 429.195 196.846 426.457 200.627 424.274Z" fill="black"/>
<path d="M232.281 434.246C232.279 433.785 232.287 431.904 232.283 431.42C232.274 430.261 231.48 429.137 229.755 428.127C229.736 428.113 229.714 428.1 229.695 428.089C226.515 426.253 223.23 426.493 220.303 427.23C220.294 427.232 220.287 427.232 220.278 427.234C219.034 427.548 217.852 427.952 216.773 428.322C215.282 428.84 214.059 429.261 213.012 429.486C213.009 429.488 213.009 429.488 213.006 429.49C212.352 429.629 211.765 429.694 211.218 429.66C210.695 429.629 210.209 429.499 209.737 429.267C209.777 429.24 209.813 429.212 209.855 429.185C209.971 429.107 210.096 429.031 210.227 428.956C210.558 428.765 210.887 428.6 211.218 428.463C213.062 427.683 214.838 427.719 216.483 428.344L219.519 425.281V422.471C216.821 421.556 214.017 421.46 211.218 422.17C210.336 422.394 209.455 422.701 208.579 423.083L205.543 421.33L201.919 423.422V426.232L203.16 426.948C202.805 427.499 202.625 428.048 202.627 428.587C202.629 429.054 202.632 430.921 202.631 431.392C202.628 432.553 203.463 433.672 205.211 434.681C206.899 435.656 208.578 436.062 210.213 436.122L210.216 436.12C210.547 436.135 210.885 436.131 211.216 436.116C213.111 436.026 214.927 435.519 216.59 434.955C216.946 434.836 217.293 434.715 217.636 434.595L214.58 437.659V440.469C218.894 442.198 223.106 441.377 226.289 439.962L229.287 441.693L232.91 439.601V436.791L231.666 436.073C232.074 435.462 232.284 434.849 232.281 434.246ZM224.641 434.004C224.363 434.164 224.081 434.305 223.8 434.425C221.646 435.347 219.426 435.15 217.876 434.513C220.713 433.513 223.082 432.637 225.101 433.712C224.959 433.81 224.808 433.908 224.641 434.004Z" fill="#3DB8DB"/>
<path d="M220.304 427.23C220.295 427.232 220.288 427.232 220.279 427.234C219.035 427.548 217.853 427.952 216.774 428.322C215.283 428.84 214.06 429.261 213.013 429.486C213.01 429.488 213.01 429.488 213.007 429.49C212.353 429.629 211.766 429.694 211.219 429.66C210.606 429.624 210.043 429.461 209.496 429.146C208.33 428.473 208.161 427.487 209.856 426.375C209.972 426.297 210.097 426.222 210.228 426.146C210.559 425.955 210.888 425.79 211.219 425.653C213.063 424.873 214.839 424.909 216.484 425.534L219.52 422.471C216.822 421.556 214.017 421.46 211.219 422.17C210.337 422.394 209.456 422.701 208.58 423.083L205.544 421.33L201.92 423.422L204.921 425.155C204.921 425.155 204.912 425.164 204.893 425.178C201.848 427.492 201.785 429.893 205.212 431.871C206.9 432.846 208.579 433.252 210.214 433.311L210.217 433.309C210.548 433.323 210.886 433.32 211.217 433.305C213.112 433.215 214.928 432.707 216.591 432.144C220.068 430.981 222.885 429.611 225.226 430.963C226.796 431.869 226.361 433.008 224.638 434.003C224.36 434.163 224.078 434.304 223.797 434.424C221.593 435.368 219.317 435.141 217.763 434.467L214.58 437.658C218.894 439.387 223.106 438.566 226.289 437.151L229.287 438.882L232.911 436.79L229.913 435.059C232.927 432.727 233.274 430.187 229.754 428.126C229.735 428.112 229.713 428.099 229.695 428.088C226.517 426.253 223.231 426.493 220.304 427.23Z" fill="#3DB8DB"/>
<g opacity="0.3">
<path d="M220.304 427.23C220.295 427.232 220.288 427.232 220.279 427.234C219.035 427.548 217.853 427.952 216.774 428.322C215.283 428.84 214.06 429.261 213.013 429.486C213.01 429.488 213.01 429.488 213.007 429.49C212.353 429.629 211.766 429.694 211.219 429.66C210.606 429.624 210.043 429.461 209.496 429.146C208.33 428.473 208.161 427.487 209.856 426.375C209.972 426.297 210.097 426.222 210.228 426.146C210.559 425.955 210.888 425.79 211.219 425.653C213.063 424.873 214.839 424.909 216.484 425.534L219.52 422.471C216.822 421.556 214.017 421.46 211.219 422.17C210.337 422.394 209.456 422.701 208.58 423.083L205.544 421.33L201.92 423.422L204.921 425.155C204.921 425.155 204.912 425.164 204.893 425.178C201.848 427.492 201.785 429.893 205.212 431.871C206.9 432.846 208.579 433.252 210.214 433.311L210.217 433.309C210.548 433.323 210.886 433.32 211.217 433.305C213.112 433.215 214.928 432.707 216.591 432.144C220.068 430.981 222.885 429.611 225.226 430.963C226.796 431.869 226.361 433.008 224.638 434.003C224.36 434.163 224.078 434.304 223.797 434.424C221.593 435.368 219.317 435.141 217.763 434.467L214.58 437.658C218.894 439.387 223.106 438.566 226.289 437.151L229.287 438.882L232.911 436.79L229.913 435.059C232.927 432.727 233.274 430.187 229.754 428.126C229.735 428.112 229.713 428.099 229.695 428.088C226.517 426.253 223.231 426.493 220.304 427.23Z" fill="white"/>
</g>
<path opacity="0.45" d="M201.923 423.421L205.58 421.763L208.581 423.082L205.545 421.33L201.923 423.421Z" fill="#F5F5F5"/>
<path opacity="0.45" d="M210.799 422.284C212.753 421.861 215.914 421.741 218.587 422.547L216.484 425.533L219.52 422.471C216.288 421.44 213.426 421.51 210.799 422.284Z" fill="#F5F5F5"/>
<path opacity="0.45" d="M229.696 428.089C229.715 428.1 229.737 428.112 229.755 428.127C233.275 430.188 232.928 432.728 229.914 435.06C232.584 432.15 232.103 430.121 229.201 428.446C226.306 426.774 222.598 426.792 220.303 427.229C223.231 426.493 226.517 426.253 229.696 428.089Z" fill="#F5F5F5"/>
<path opacity="0.45" d="M229.915 435.06L232.214 436.826L229.29 438.883L232.913 436.791L229.915 435.06Z" fill="#F5F5F5"/>
<path opacity="0.45" d="M223.8 434.424C220.617 435.933 218.026 434.928 218.026 434.928L214.584 437.659L217.767 434.468C219.32 435.141 221.596 435.369 223.8 434.424Z" fill="#F5F5F5"/>
<path opacity="0.45" d="M213.007 429.49C211.637 430.028 209.665 429.937 208.667 429.079C207.62 428.178 208.292 427.213 209.855 426.375C208.16 427.487 208.329 428.473 209.495 429.146C210.042 429.462 210.605 429.624 211.218 429.66C211.766 429.694 212.354 429.629 213.007 429.49Z" fill="#F5F5F5"/>
<path opacity="0.45" d="M204.894 425.177C204.638 425.404 202.457 427.437 203.419 429.47C204.441 431.638 207.639 433.029 210.218 433.309L210.215 433.311C208.58 433.252 206.901 432.845 205.213 431.871C201.786 429.892 201.849 427.491 204.894 425.177Z" fill="#F5F5F5"/>
<path d="M257.962 419.859C256.251 416.972 253.406 414.26 249.417 411.957C235.448 403.892 212.799 403.892 198.829 411.957C194.84 414.26 191.995 416.972 190.284 419.859H188.352V427.168H188.377C188.634 432.249 192.112 437.286 198.829 441.164C212.798 449.229 235.447 449.229 249.417 441.164C256.134 437.286 259.637 432.249 259.894 427.167V427.168V419.859H257.962Z" fill="#3DB8DB"/>
<path opacity="0.25" d="M257.962 419.859C256.251 416.972 253.406 414.26 249.417 411.957C235.448 403.892 212.799 403.892 198.829 411.957C194.84 414.26 191.995 416.972 190.284 419.859H188.352V427.168H188.377C188.634 432.249 192.112 437.286 198.829 441.164C212.798 449.229 235.447 449.229 249.417 441.164C256.134 437.286 259.637 432.249 259.894 427.167V427.168V419.859H257.962Z" fill="black"/>
<path opacity="0.1" d="M224.126 405.909C214.971 405.909 205.815 407.925 198.83 411.958C194.841 414.261 191.996 416.973 190.286 419.86H188.353V427.169H188.378C188.636 432.25 192.113 437.287 198.83 441.165C205.815 445.198 214.971 447.214 224.126 447.214V405.909Z" fill="black"/>
<path opacity="0.1" d="M204.587 409.261C202.551 410.029 200.618 410.925 198.83 411.957C194.841 414.26 191.996 416.972 190.286 419.859H188.353V427.168H188.378C188.636 432.249 192.113 437.286 198.83 441.164C200.618 442.196 202.551 443.092 204.587 443.86V409.261Z" fill="black"/>
<path opacity="0.5" d="M243.66 409.261C245.696 410.029 247.629 410.925 249.417 411.957C253.406 414.26 256.251 416.972 257.961 419.859H259.894V427.168V427.167C259.636 432.248 256.134 437.286 249.417 441.164C247.629 442.196 245.696 443.092 243.66 443.86V409.261Z" fill="#3DB8DB"/>
<path d="M198.829 405.259C184.859 413.325 184.861 426.401 198.829 434.466C211.052 441.523 229.919 442.406 243.804 437.113L243.806 437.112C243.991 437.041 244.175 436.97 244.36 436.896C246.138 436.189 247.833 435.38 249.417 434.465C261.066 427.739 263.002 417.53 255.22 409.646C255.218 409.643 255.216 409.642 255.216 409.642C253.669 408.073 251.735 406.597 249.417 405.258C235.449 397.195 212.799 397.194 198.829 405.259Z" fill="#3DB8DB"/>
<path opacity="0.2" d="M198.829 405.259C184.859 413.325 184.861 426.401 198.829 434.466C211.052 441.523 229.919 442.406 243.804 437.113L243.806 437.112C243.991 437.041 244.175 436.97 244.36 436.896C246.138 436.189 247.833 435.38 249.417 434.465C261.066 427.739 263.002 417.53 255.22 409.646C255.218 409.643 255.216 409.642 255.216 409.642C253.669 408.073 251.735 406.597 249.417 405.258C235.449 397.195 212.799 397.194 198.829 405.259Z" fill="black"/>
<path opacity="0.5" d="M255.221 409.647C255.371 409.816 260.257 414.971 258.962 422.389C257.725 429.487 247.786 435.461 244.361 436.897C246.139 436.19 247.834 435.381 249.418 434.466C261.067 427.74 263.003 417.531 255.221 409.647Z" fill="#F5F5F5"/>
<path opacity="0.5" d="M193.027 430.078C192.877 429.909 187.991 424.754 189.286 417.337C190.523 410.239 200.462 404.265 203.888 402.829C202.11 403.536 200.415 404.345 198.831 405.26C187.181 411.986 185.246 422.195 193.027 430.078Z" fill="#F5F5F5"/>
<path d="M247.649 433.41C260.635 425.913 260.635 413.757 247.649 406.26C234.663 398.763 213.609 398.763 200.623 406.26C187.637 413.757 187.637 425.913 200.623 433.41C213.609 440.907 234.663 440.907 247.649 433.41Z" fill="#3DB8DB"/>
<path opacity="0.4" d="M247.649 433.41C260.635 425.913 260.635 413.757 247.649 406.26C234.663 398.763 213.609 398.763 200.623 406.26C187.637 413.757 187.637 425.913 200.623 433.41C213.609 440.907 234.663 440.907 247.649 433.41Z" fill="white"/>
<path opacity="0.2" d="M255.878 425.568C258.551 420.628 257.679 415.182 253.267 410.563C252.451 409.709 251.51 408.884 250.45 408.096C249.628 407.48 248.727 406.888 247.758 406.322C247.227 406.012 246.682 405.716 246.12 405.434C247.502 407.708 246.995 410.145 239.164 410.602C223.838 411.497 243.26 426.143 243.26 426.143C243.26 426.143 253.139 421.373 255.878 425.568Z" fill="white"/>
<path opacity="0.5" d="M254.297 421.517C256.597 421.259 257.737 418.894 256.843 416.234C255.949 413.574 253.36 411.626 251.06 411.884C248.76 412.142 247.62 414.507 248.514 417.167C249.408 419.827 251.997 421.774 254.297 421.517Z" fill="white"/>
<path d="M230.055 433.723C229.3 428.032 204.422 412.276 204.422 412.276C204.422 412.276 198.905 410.062 200.737 406.206C199.78 406.755 198.893 407.329 198.076 407.926C197.501 408.341 196.963 408.767 196.46 409.206C189.054 415.619 189.044 424.043 196.463 430.464C196.963 430.901 197.504 431.329 198.076 431.746C198.839 432.302 199.658 432.836 200.543 433.351C201.387 433.846 202.269 434.304 203.179 434.732C203.904 435.075 204.658 435.398 205.421 435.698C206.181 435.999 206.959 436.279 207.753 436.539C210.117 437.315 212.611 437.907 215.175 438.322C215.728 438.411 216.288 438.492 216.844 438.564C219.289 438.878 221.774 439.035 224.266 439.03C227.325 439.024 230.381 438.776 233.345 438.285C233.346 438.283 229.344 437.466 230.055 433.723Z" fill="#3DB8DB"/>
<path opacity="0.3" d="M230.055 433.723C229.3 428.032 204.422 412.276 204.422 412.276C204.422 412.276 198.905 410.062 200.737 406.206C199.78 406.755 198.893 407.329 198.076 407.926C197.501 408.341 196.963 408.767 196.46 409.206C189.054 415.619 189.044 424.043 196.463 430.464C196.963 430.901 197.504 431.329 198.076 431.746C198.839 432.302 199.658 432.836 200.543 433.351C201.387 433.846 202.269 434.304 203.179 434.732C203.904 435.075 204.658 435.398 205.421 435.698C206.181 435.999 206.959 436.279 207.753 436.539C210.117 437.315 212.611 437.907 215.175 438.322C215.728 438.411 216.288 438.492 216.844 438.564C219.289 438.878 221.774 439.035 224.266 439.03C227.325 439.024 230.381 438.776 233.345 438.285C233.346 438.283 229.344 437.466 230.055 433.723Z" fill="white"/>
<path d="M206.607 409.72C197.327 415.078 196.951 423.626 205.475 429.245C205.837 429.483 206.217 429.719 206.611 429.947C216.286 435.533 231.966 435.533 241.641 429.947C251.316 424.361 251.319 415.306 241.644 409.721C241.25 409.493 240.841 409.274 240.428 409.065C230.696 404.143 215.888 404.362 206.607 409.72Z" fill="#3DB8DB"/>
<path opacity="0.2" d="M206.607 409.72C197.327 415.078 196.951 423.626 205.475 429.245C205.837 429.483 206.217 429.719 206.611 429.947C216.286 435.533 231.966 435.533 241.641 429.947C251.316 424.361 251.319 415.306 241.644 409.721C241.25 409.493 240.841 409.274 240.428 409.065C230.696 404.143 215.888 404.362 206.607 409.72Z" fill="black"/>
<path d="M207.394 410.166C198.147 415.505 198.147 424.161 207.394 429.5C216.641 434.839 231.634 434.839 240.882 429.5C250.129 424.161 250.129 415.505 240.882 410.166C231.634 404.828 216.641 404.828 207.394 410.166Z" fill="#3DB8DB"/>
<path opacity="0.5" d="M207.394 410.166C198.147 415.505 198.147 424.161 207.394 429.5C216.641 434.839 231.634 434.839 240.882 429.5C250.129 424.161 250.129 415.505 240.882 410.166C231.634 404.828 216.641 404.828 207.394 410.166Z" fill="black"/>
<path d="M207.394 413.98C216.641 408.641 231.634 408.641 240.882 413.98C244.663 416.163 246.896 418.901 247.585 421.74C246.896 424.579 244.663 427.317 240.882 429.5C231.635 434.839 216.642 434.839 207.394 429.5C203.612 427.317 201.379 424.578 200.691 421.74C201.38 418.901 203.613 416.163 207.394 413.98Z" fill="#3DB8DB"/>
<path opacity="0.35" d="M207.394 413.98C216.641 408.641 231.634 408.641 240.882 413.98C244.663 416.163 246.896 418.901 247.585 421.74C246.896 424.579 244.663 427.317 240.882 429.5C231.635 434.839 216.642 434.839 207.394 429.5C203.612 427.317 201.379 424.578 200.691 421.74C201.38 418.901 203.613 416.163 207.394 413.98Z" fill="black"/>
<path d="M239.048 423.952C239.046 423.491 239.054 421.61 239.05 421.126C239.042 419.967 238.247 418.843 236.522 417.833C236.503 417.819 236.481 417.806 236.462 417.795C233.282 415.959 229.997 416.199 227.07 416.936C227.061 416.938 227.054 416.938 227.045 416.94C225.801 417.254 224.619 417.658 223.54 418.028C222.049 418.546 220.826 418.967 219.779 419.192C219.776 419.194 219.776 419.194 219.773 419.196C219.12 419.335 218.532 419.4 217.985 419.366C217.462 419.335 216.976 419.205 216.504 418.973C216.544 418.946 216.58 418.918 216.622 418.891C216.738 418.813 216.863 418.738 216.994 418.662C217.325 418.471 217.654 418.307 217.985 418.169C219.83 417.389 221.605 417.425 223.25 418.05L226.286 414.987V412.177C223.588 411.262 220.783 411.166 217.985 411.876C217.103 412.1 216.222 412.407 215.346 412.789L212.31 411.036L208.687 413.128V415.938L209.928 416.655C209.573 417.206 209.393 417.755 209.395 418.294C209.397 418.761 209.4 420.628 209.399 421.099C209.396 422.26 210.231 423.379 211.979 424.388C213.667 425.363 215.346 425.769 216.981 425.828L216.984 425.826C217.315 425.84 217.653 425.837 217.985 425.822C219.88 425.732 221.696 425.225 223.359 424.661C223.715 424.542 224.062 424.421 224.405 424.301L221.349 427.365V430.175C225.663 431.904 229.875 431.083 233.057 429.668L236.055 431.399L239.678 429.307V426.497L238.434 425.779C238.841 425.168 239.051 424.555 239.048 423.952ZM231.407 423.71C231.129 423.871 230.847 424.011 230.566 424.131C228.412 425.053 226.192 424.856 224.642 424.219C227.479 423.219 229.848 422.343 231.867 423.418C231.725 423.515 231.574 423.613 231.407 423.71Z" fill="#3DB8DB"/>
<path d="M227.071 416.935C227.062 416.937 227.055 416.937 227.046 416.939C225.802 417.253 224.62 417.657 223.541 418.027C222.05 418.545 220.827 418.966 219.78 419.191C219.777 419.193 219.777 419.193 219.774 419.195C219.121 419.334 218.533 419.399 217.986 419.365C217.373 419.329 216.81 419.166 216.263 418.851C215.097 418.178 214.928 417.192 216.622 416.08C216.738 416.002 216.863 415.927 216.994 415.851C217.325 415.66 217.654 415.495 217.985 415.358C219.83 414.578 221.605 414.614 223.25 415.239L226.286 412.176C223.588 411.261 220.783 411.165 217.985 411.875C217.103 412.099 216.222 412.406 215.346 412.788L212.31 411.035L208.687 413.127L211.688 414.86C211.688 414.86 211.679 414.869 211.66 414.883C208.615 417.197 208.552 419.598 211.979 421.576C213.667 422.551 215.346 422.957 216.981 423.016L216.984 423.014C217.315 423.029 217.653 423.025 217.984 423.01C219.879 422.92 221.695 422.412 223.358 421.849C226.835 420.687 229.652 419.317 231.993 420.668C233.563 421.574 233.128 422.713 231.405 423.708C231.127 423.869 230.845 424.009 230.564 424.129C228.36 425.073 226.084 424.846 224.53 424.172L221.347 427.363C225.661 429.092 229.873 428.271 233.055 426.856L236.053 428.587L239.676 426.495L236.678 424.764C239.692 422.432 240.039 419.892 236.519 417.831C236.5 417.817 236.478 417.804 236.46 417.793C233.283 415.959 229.997 416.199 227.071 416.935Z" fill="#3DB8DB"/>
<g opacity="0.3">
<path d="M227.071 416.935C227.062 416.937 227.055 416.937 227.046 416.939C225.802 417.253 224.62 417.657 223.541 418.027C222.05 418.545 220.827 418.966 219.78 419.191C219.777 419.193 219.777 419.193 219.774 419.195C219.121 419.334 218.533 419.399 217.986 419.365C217.373 419.329 216.81 419.166 216.263 418.851C215.097 418.178 214.928 417.192 216.622 416.08C216.738 416.002 216.863 415.927 216.994 415.851C217.325 415.66 217.654 415.495 217.985 415.358C219.83 414.578 221.605 414.614 223.25 415.239L226.286 412.176C223.588 411.261 220.783 411.165 217.985 411.875C217.103 412.099 216.222 412.406 215.346 412.788L212.31 411.035L208.687 413.127L211.688 414.86C211.688 414.86 211.679 414.869 211.66 414.883C208.615 417.197 208.552 419.598 211.979 421.576C213.667 422.551 215.346 422.957 216.981 423.016L216.984 423.014C217.315 423.029 217.653 423.025 217.984 423.01C219.879 422.92 221.695 422.412 223.358 421.849C226.835 420.687 229.652 419.317 231.993 420.668C233.563 421.574 233.128 422.713 231.405 423.708C231.127 423.869 230.845 424.009 230.564 424.129C228.36 425.073 226.084 424.846 224.53 424.172L221.347 427.363C225.661 429.092 229.873 428.271 233.055 426.856L236.053 428.587L239.676 426.495L236.678 424.764C239.692 422.432 240.039 419.892 236.519 417.831C236.5 417.817 236.478 417.804 236.46 417.793C233.283 415.959 229.997 416.199 227.071 416.935Z" fill="white"/>
</g>
<path opacity="0.45" d="M208.689 413.127L212.347 411.469L215.348 412.788L212.312 411.035L208.689 413.127Z" fill="#F5F5F5"/>
<path opacity="0.45" d="M217.566 411.99C219.52 411.567 222.681 411.447 225.354 412.253L223.251 415.239L226.287 412.177C223.055 411.145 220.192 411.216 217.566 411.99Z" fill="#F5F5F5"/>
<path opacity="0.45" d="M236.463 417.795C236.482 417.806 236.504 417.819 236.522 417.833C240.042 419.894 239.695 422.434 236.681 424.766C239.351 421.856 238.87 419.827 235.968 418.152C233.073 416.481 229.365 416.499 227.07 416.935C229.997 416.199 233.283 415.959 236.463 417.795Z" fill="#F5F5F5"/>
<path opacity="0.45" d="M236.682 424.766L238.98 426.532L236.057 428.589L239.68 426.497L236.682 424.766Z" fill="#F5F5F5"/>
<path opacity="0.45" d="M230.566 424.13C227.383 425.639 224.791 424.634 224.791 424.634L221.349 427.365L224.532 424.174C226.086 424.847 228.362 425.074 230.566 424.13Z" fill="#F5F5F5"/>
<path opacity="0.45" d="M219.774 419.195C218.405 419.733 216.432 419.641 215.435 418.783C214.388 417.882 215.06 416.917 216.623 416.079C214.928 417.191 215.097 418.177 216.264 418.85C216.811 419.166 217.374 419.328 217.987 419.364C218.533 419.399 219.121 419.334 219.774 419.195Z" fill="#F5F5F5"/>
<path opacity="0.45" d="M211.661 414.883C211.405 415.11 209.224 417.143 210.186 419.176C211.208 421.344 214.405 422.735 216.985 423.015L216.982 423.017C215.347 422.957 213.668 422.551 211.98 421.577C208.553 419.598 208.616 417.197 211.661 414.883Z" fill="#F5F5F5"/>
<path d="M249.839 407.822C248.128 404.935 245.283 402.223 241.295 399.92C227.325 391.855 204.677 391.855 190.707 399.92C186.718 402.223 183.873 404.935 182.162 407.822H180.23V415.13H180.255C180.512 420.211 183.99 425.248 190.707 429.126C204.676 437.191 227.325 437.191 241.295 429.126C248.012 425.248 251.515 420.211 251.772 415.129V407.821L249.839 407.822Z" fill="#3DB8DB"/>
<path opacity="0.25" d="M249.839 407.822C248.128 404.935 245.283 402.223 241.295 399.92C227.325 391.855 204.677 391.855 190.707 399.92C186.718 402.223 183.873 404.935 182.162 407.822H180.23V415.13H180.255C180.512 420.211 183.99 425.248 190.707 429.126C204.676 437.191 227.325 437.191 241.295 429.126C248.012 425.248 251.515 420.211 251.772 415.129V407.821L249.839 407.822Z" fill="black"/>
<path opacity="0.1" d="M216.002 393.871C206.847 393.871 197.691 395.887 190.706 399.92C186.717 402.223 183.872 404.935 182.161 407.822H180.228V415.13H180.253C180.511 420.211 183.988 425.248 190.705 429.126C197.69 433.159 206.846 435.175 216.001 435.175L216.002 393.871Z" fill="black"/>
<path opacity="0.1" d="M196.464 397.224C194.428 397.992 192.495 398.888 190.707 399.92C186.718 402.223 183.873 404.935 182.162 407.822H180.229V415.13H180.254C180.512 420.211 183.989 425.248 190.706 429.126C192.494 430.158 194.427 431.054 196.463 431.823V397.224H196.464Z" fill="black"/>
<path opacity="0.5" d="M235.537 397.224C237.573 397.992 239.506 398.888 241.294 399.92C245.283 402.223 248.128 404.935 249.838 407.822H251.771V415.13C251.513 420.211 248.011 425.248 241.294 429.127C239.506 430.159 237.572 431.055 235.537 431.823V397.224Z" fill="#3DB8DB"/>
<path d="M190.706 393.222C176.736 401.287 176.738 414.364 190.706 422.429C202.929 429.486 221.796 430.369 235.681 425.076L235.683 425.075C235.868 425.004 236.052 424.933 236.237 424.859C238.015 424.152 239.71 423.343 241.294 422.428C252.943 415.702 254.879 405.493 247.098 397.609C247.096 397.606 247.094 397.605 247.094 397.605C245.547 396.036 243.613 394.56 241.294 393.221C227.326 385.158 204.676 385.157 190.706 393.222Z" fill="#3DB8DB"/>
<path opacity="0.2" d="M190.706 393.222C176.736 401.287 176.738 414.364 190.706 422.429C202.929 429.486 221.796 430.369 235.681 425.076L235.683 425.075C235.868 425.004 236.052 424.933 236.237 424.859C238.015 424.152 239.71 423.343 241.294 422.428C252.943 415.702 254.879 405.493 247.098 397.609C247.096 397.606 247.094 397.605 247.094 397.605C245.547 396.036 243.613 394.56 241.294 393.221C227.326 385.158 204.676 385.157 190.706 393.222Z" fill="black"/>
<path opacity="0.5" d="M247.097 397.61C247.247 397.779 252.133 402.934 250.838 410.352C249.601 417.45 239.662 423.424 236.237 424.859C238.015 424.152 239.71 423.343 241.294 422.428C252.943 415.703 254.879 405.494 247.097 397.61Z" fill="#F5F5F5"/>
<path opacity="0.5" d="M184.904 418.041C184.754 417.872 179.868 412.717 181.163 405.299C182.4 398.201 192.339 392.227 195.765 390.791C193.987 391.498 192.292 392.307 190.708 393.222C179.058 399.949 177.122 410.158 184.904 418.041Z" fill="#F5F5F5"/>
<path d="M216.014 426.995C234.379 426.995 249.266 418.4 249.266 407.797C249.266 397.194 234.379 388.599 216.014 388.599C197.649 388.599 182.762 397.194 182.762 407.797C182.762 418.4 197.649 426.995 216.014 426.995Z" fill="#3DB8DB"/>
<path opacity="0.4" d="M216.014 426.995C234.379 426.995 249.266 418.4 249.266 407.797C249.266 397.194 234.379 388.599 216.014 388.599C197.649 388.599 182.762 397.194 182.762 407.797C182.762 418.4 197.649 426.995 216.014 426.995Z" fill="white"/>
<path opacity="0.2" d="M184.272 413.531C181.599 408.591 182.471 403.145 186.883 398.526C187.699 397.672 188.64 396.847 189.7 396.059C190.522 395.443 191.423 394.851 192.392 394.285C192.923 393.975 193.467 393.679 194.03 393.397C192.648 395.671 193.155 398.108 200.986 398.565C216.312 399.46 196.89 414.107 196.89 414.107C196.89 414.107 187.011 409.336 184.272 413.531Z" fill="white"/>
<path opacity="0.5" d="M185.853 409.48C183.553 409.222 182.413 406.857 183.307 404.197C184.201 401.537 186.79 399.589 189.09 399.847C191.39 400.105 192.53 402.47 191.636 405.13C190.742 407.789 188.153 409.737 185.853 409.48Z" fill="white"/>
<path d="M210.095 421.686C210.85 415.995 235.728 400.239 235.728 400.239C235.728 400.239 241.245 398.025 239.413 394.169C240.37 394.718 241.257 395.292 242.074 395.889C242.649 396.304 243.187 396.73 243.691 397.169C251.097 403.582 251.107 412.007 243.688 418.427C243.188 418.864 242.647 419.292 242.075 419.708C241.312 420.264 240.493 420.798 239.608 421.313C238.764 421.808 237.882 422.266 236.972 422.694C236.247 423.037 235.493 423.36 234.73 423.66C233.97 423.962 233.192 424.241 232.398 424.501C230.034 425.277 227.54 425.869 224.976 426.284C224.423 426.373 223.863 426.454 223.307 426.526C220.862 426.84 218.377 426.997 215.885 426.992C212.827 426.986 209.77 426.738 206.806 426.247C206.806 426.247 210.806 425.428 210.095 421.686Z" fill="#3DB8DB"/>
<path opacity="0.3" d="M210.095 421.686C210.85 415.995 235.728 400.239 235.728 400.239C235.728 400.239 241.245 398.025 239.413 394.169C240.37 394.718 241.257 395.292 242.074 395.889C242.649 396.304 243.187 396.73 243.691 397.169C251.097 403.582 251.107 412.007 243.688 418.427C243.188 418.864 242.647 419.292 242.075 419.708C241.312 420.264 240.493 420.798 239.608 421.313C238.764 421.808 237.882 422.266 236.972 422.694C236.247 423.037 235.493 423.36 234.73 423.66C233.97 423.962 233.192 424.241 232.398 424.501C230.034 425.277 227.54 425.869 224.976 426.284C224.423 426.373 223.863 426.454 223.307 426.526C220.862 426.84 218.377 426.997 215.885 426.992C212.827 426.986 209.77 426.738 206.806 426.247C206.806 426.247 210.806 425.428 210.095 421.686Z" fill="white"/>
<path d="M233.542 397.683C242.822 403.041 243.198 411.589 234.674 417.208C234.312 417.446 233.932 417.682 233.538 417.91C223.863 423.496 208.183 423.496 198.508 417.91C188.833 412.324 188.83 403.269 198.504 397.683C198.898 397.456 199.307 397.236 199.72 397.027C209.454 392.106 224.262 392.325 233.542 397.683Z" fill="#3DB8DB"/>
<path opacity="0.2" d="M233.542 397.683C242.822 403.041 243.198 411.589 234.674 417.208C234.312 417.446 233.932 417.682 233.538 417.91C223.863 423.496 208.183 423.496 198.508 417.91C188.833 412.324 188.83 403.269 198.504 397.683C198.898 397.456 199.307 397.236 199.72 397.027C209.454 392.106 224.262 392.325 233.542 397.683Z" fill="black"/>
<path d="M232.756 398.129C242.003 403.468 242.003 412.124 232.756 417.463C223.509 422.802 208.516 422.802 199.268 417.463C190.021 412.124 190.021 403.468 199.268 398.129C208.516 392.79 223.509 392.79 232.756 398.129Z" fill="#3DB8DB"/>
<path opacity="0.5" d="M232.756 398.129C242.003 403.468 242.003 412.124 232.756 417.463C223.509 422.802 208.516 422.802 199.268 417.463C190.021 412.124 190.021 403.468 199.268 398.129C208.516 392.79 223.509 392.79 232.756 398.129Z" fill="black"/>
<path d="M232.756 401.943C223.509 396.604 208.516 396.604 199.268 401.943C195.486 404.126 193.254 406.864 192.565 409.703C193.254 412.542 195.487 415.28 199.268 417.463C208.515 422.802 223.508 422.802 232.755 417.463C236.537 415.28 238.77 412.542 239.458 409.703C238.77 406.864 236.537 404.126 232.756 401.943Z" fill="#3DB8DB"/>
<path opacity="0.35" d="M232.756 401.943C223.509 396.604 208.516 396.604 199.268 401.943C195.486 404.126 193.254 406.864 192.565 409.703C193.254 412.542 195.487 415.28 199.268 417.463C208.515 422.802 223.508 422.802 232.755 417.463C236.537 415.28 238.77 412.542 239.458 409.703C238.77 406.864 236.537 404.126 232.756 401.943Z" fill="black"/>
<path d="M230.924 411.914C230.922 411.453 230.93 409.572 230.926 409.088C230.917 407.929 230.123 406.805 228.398 405.795C228.379 405.781 228.357 405.768 228.338 405.757C225.158 403.921 221.873 404.161 218.946 404.898C218.937 404.9 218.93 404.9 218.921 404.902C217.677 405.216 216.495 405.62 215.416 405.99C213.925 406.508 212.702 406.929 211.655 407.154C211.652 407.156 211.652 407.156 211.649 407.158C210.995 407.297 210.408 407.362 209.861 407.328C209.338 407.297 208.852 407.167 208.38 406.935C208.42 406.908 208.456 406.88 208.498 406.853C208.614 406.775 208.739 406.7 208.87 406.624C209.201 406.433 209.53 406.269 209.861 406.131C211.705 405.351 213.481 405.387 215.126 406.012L218.162 402.949V400.139C215.464 399.224 212.66 399.128 209.861 399.838C208.979 400.062 208.098 400.369 207.222 400.751L204.186 398.998L200.562 401.09V403.9L201.803 404.617C201.448 405.168 201.268 405.717 201.27 406.256C201.272 406.723 201.275 408.59 201.274 409.061C201.271 410.222 202.106 411.341 203.854 412.35C205.542 413.325 207.221 413.731 208.856 413.79L208.859 413.788C209.19 413.803 209.528 413.799 209.86 413.784C211.755 413.694 213.571 413.187 215.234 412.623C215.59 412.504 215.937 412.383 216.28 412.263L213.224 415.327V418.137C217.538 419.866 221.75 419.045 224.933 417.63L227.931 419.361L231.554 417.269V414.459L230.31 413.741C230.717 413.131 230.927 412.518 230.924 411.914ZM223.284 411.673C223.006 411.834 222.725 411.974 222.443 412.094C220.289 413.016 218.069 412.819 216.519 412.182C219.356 411.182 221.725 410.306 223.744 411.381C223.602 411.478 223.451 411.576 223.284 411.673Z" fill="#3DB8DB"/>
<path d="M218.948 404.898C218.938 404.9 218.932 404.9 218.923 404.902C217.679 405.216 216.497 405.62 215.418 405.99C213.927 406.508 212.704 406.929 211.657 407.154C211.654 407.156 211.654 407.156 211.651 407.158C210.997 407.297 210.41 407.362 209.863 407.328C209.25 407.292 208.687 407.129 208.14 406.814C206.974 406.141 206.805 405.155 208.5 404.043C208.616 403.965 208.741 403.89 208.872 403.814C209.203 403.623 209.532 403.458 209.863 403.321C211.707 402.541 213.483 402.577 215.128 403.202L218.164 400.139C215.466 399.224 212.661 399.128 209.863 399.838C208.981 400.062 208.1 400.369 207.224 400.751L204.188 398.998L200.564 401.09L203.565 402.823C203.565 402.823 203.556 402.832 203.537 402.846C200.492 405.16 200.429 407.561 203.856 409.539C205.544 410.514 207.223 410.92 208.858 410.979L208.861 410.977C209.192 410.991 209.53 410.988 209.861 410.974C211.756 410.884 213.572 410.376 215.235 409.813C218.712 408.65 221.529 407.28 223.87 408.632C225.439 409.538 225.005 410.677 223.282 411.672C223.004 411.833 222.723 411.973 222.441 412.093C220.237 413.037 217.961 412.81 216.407 412.136L213.224 415.327C217.538 417.056 221.75 416.235 224.932 414.82L227.93 416.551L231.553 414.459L228.555 412.728C231.569 410.396 231.916 407.856 228.395 405.795C228.376 405.781 228.354 405.768 228.336 405.757C225.16 403.922 221.874 404.162 218.948 404.898Z" fill="#3DB8DB"/>
<g opacity="0.3">
<path d="M218.948 404.898C218.938 404.9 218.932 404.9 218.923 404.902C217.679 405.216 216.497 405.62 215.418 405.99C213.927 406.508 212.704 406.929 211.657 407.154C211.654 407.156 211.654 407.156 211.651 407.158C210.997 407.297 210.41 407.362 209.863 407.328C209.25 407.292 208.687 407.129 208.14 406.814C206.974 406.141 206.805 405.155 208.5 404.043C208.616 403.965 208.741 403.89 208.872 403.814C209.203 403.623 209.532 403.458 209.863 403.321C211.707 402.541 213.483 402.577 215.128 403.202L218.164 400.139C215.466 399.224 212.661 399.128 209.863 399.838C208.981 400.062 208.1 400.369 207.224 400.751L204.188 398.998L200.564 401.09L203.565 402.823C203.565 402.823 203.556 402.832 203.537 402.846C200.492 405.16 200.429 407.561 203.856 409.539C205.544 410.514 207.223 410.92 208.858 410.979L208.861 410.977C209.192 410.991 209.53 410.988 209.861 410.974C211.756 410.884 213.572 410.376 215.235 409.813C218.712 408.65 221.529 407.28 223.87 408.632C225.439 409.538 225.005 410.677 223.282 411.672C223.004 411.833 222.723 411.973 222.441 412.093C220.237 413.037 217.961 412.81 216.407 412.136L213.224 415.327C217.538 417.056 221.75 416.235 224.932 414.82L227.93 416.551L231.553 414.459L228.555 412.728C231.569 410.396 231.916 407.856 228.395 405.795C228.376 405.781 228.354 405.768 228.336 405.757C225.16 403.922 221.874 404.162 218.948 404.898Z" fill="white"/>
</g>
<path opacity="0.45" d="M200.566 401.09L204.223 399.432L207.224 400.751L204.188 398.998L200.566 401.09Z" fill="#F5F5F5"/>
<path opacity="0.45" d="M209.442 399.953C211.396 399.529 214.557 399.41 217.23 400.216L215.127 403.202L218.163 400.14C214.931 399.108 212.069 399.178 209.442 399.953Z" fill="#F5F5F5"/>
<path opacity="0.45" d="M228.339 405.758C228.358 405.769 228.38 405.781 228.398 405.796C231.918 407.857 231.571 410.397 228.558 412.729C231.228 409.819 230.747 407.791 227.845 406.115C224.95 404.443 221.242 404.462 218.947 404.898C221.874 404.162 225.16 403.922 228.339 405.758Z" fill="#F5F5F5"/>
<path opacity="0.45" d="M228.558 412.728L230.857 414.495L227.933 416.552L231.556 414.46L228.558 412.728Z" fill="#F5F5F5"/>
<path opacity="0.45" d="M222.443 412.093C219.26 413.602 216.668 412.597 216.668 412.597L213.226 415.328L216.409 412.137C217.963 412.81 220.239 413.037 222.443 412.093Z" fill="#F5F5F5"/>
<path opacity="0.45" d="M211.65 407.158C210.281 407.696 208.308 407.605 207.311 406.746C206.264 405.845 206.936 404.88 208.499 404.042C206.804 405.154 206.973 406.139 208.139 406.813C208.686 407.129 209.249 407.291 209.862 407.327C210.409 407.362 210.997 407.297 211.65 407.158Z" fill="#F5F5F5"/>
<path opacity="0.45" d="M203.537 402.846C203.281 403.073 201.099 405.106 202.062 407.139C203.084 409.307 206.281 410.698 208.861 410.978L208.858 410.98C207.223 410.92 205.544 410.514 203.856 409.54C200.43 407.561 200.492 405.16 203.537 402.846Z" fill="#F5F5F5"/>
<path d="M184.406 404.186L185.308 397.343L186.21 404.186L198.062 404.707L186.21 405.227L185.308 412.07L184.406 405.227L172.553 404.707L184.406 404.186Z" fill="white"/>
<g opacity="0.3">
<path d="M398.773 418.082C398.722 418.082 398.67 418.069 398.624 418.042L379.26 406.862C379.168 406.809 379.111 406.711 379.111 406.604C379.111 406.497 379.168 406.399 379.26 406.346L403.466 392.371C403.559 392.317 403.672 392.317 403.764 392.371L423.128 403.551C423.22 403.604 423.276 403.702 423.276 403.809C423.276 403.916 423.219 404.014 423.128 404.067L398.923 418.042C398.876 418.069 398.824 418.082 398.773 418.082ZM380.005 406.605L398.773 417.441L422.382 403.81L403.614 392.974L380.005 406.605Z" fill="#3DB8DB"/>
</g>
<path d="M398.773 414.99L398.771 314.764L384.248 306.379L384.25 406.605L398.773 414.99Z" fill="#3DB8DB"/>
<path opacity="0.2" d="M398.773 414.99L398.771 314.764L384.248 306.379L384.25 406.605L398.773 414.99Z" fill="black"/>
<path d="M398.773 414.99L418.137 403.81L418.14 303.586L398.771 314.764L398.773 414.99Z" fill="#3DB8DB"/>
<path d="M418.14 303.586L403.617 295.201L384.248 306.379L398.771 314.764L418.14 303.586Z" fill="#3DB8DB"/>
<path opacity="0.25" d="M418.14 303.586L403.617 295.201L384.248 306.379L398.771 314.764L418.14 303.586Z" fill="white"/>
<path opacity="0.3" d="M418.14 303.585L398.579 314.368L392.226 310.822L384.247 306.379L392.084 311.068L398.508 314.903C398.356 317.083 398.314 406.131 398.344 408.311C398.377 410.538 398.481 412.764 398.772 414.99C399.062 412.764 399.165 410.537 399.197 408.31C399.225 406.199 399.184 317.222 399.043 315.112L418.14 303.585Z" fill="white"/>
<g opacity="0.3">
<path d="M362.466 439.045C362.415 439.045 362.363 439.032 362.317 439.005L342.953 427.825C342.861 427.772 342.805 427.674 342.805 427.567C342.805 427.461 342.862 427.362 342.953 427.309L367.159 413.335C367.252 413.282 367.364 413.282 367.457 413.335L386.821 424.515C386.913 424.568 386.97 424.666 386.97 424.773C386.97 424.88 386.913 424.978 386.821 425.031L362.616 439.006C362.568 439.032 362.517 439.045 362.466 439.045ZM343.697 427.567L362.465 438.403L386.074 424.772L367.307 413.937L343.697 427.567Z" fill="#3DB8DB"/>
</g>
<path d="M362.466 435.952L362.463 375.819L347.94 367.434L347.943 427.567L362.466 435.952Z" fill="#3DB8DB"/>
<path opacity="0.1" d="M362.466 435.952L362.463 375.819L347.94 367.434L347.943 427.567L362.466 435.952Z" fill="white"/>
<path d="M362.466 435.952L381.83 424.772L381.832 364.64L362.463 375.819L362.466 435.952Z" fill="#3DB8DB"/>
<path opacity="0.3" d="M362.466 435.952L381.83 424.772L381.832 364.64L362.463 375.819L362.466 435.952Z" fill="white"/>
<path d="M381.832 364.64L367.309 356.255L347.94 367.434L362.463 375.819L381.832 364.64Z" fill="#3DB8DB"/>
<path opacity="0.55" d="M381.832 364.64L367.309 356.255L347.94 367.434L362.463 375.819L381.832 364.64Z" fill="white"/>
<path opacity="0.3" d="M362.721 376.176L381.832 364.64L362.268 375.425C360.159 374.23 358.038 373.055 355.919 371.877L347.94 367.434L355.777 372.123C357.919 373.406 360.058 374.693 362.211 375.958C362.143 378.219 362.073 389.126 362.052 391.386C362.029 393.693 362.019 419.803 362.038 422.11C362.051 424.417 362.089 426.724 362.166 429.031C362.224 431.338 362.318 433.645 362.466 435.952C362.614 433.645 362.707 431.338 362.765 429.031C362.841 426.724 362.879 424.417 362.891 422.11C362.909 419.803 362.898 393.693 362.875 391.386C362.854 389.198 362.787 378.364 362.721 376.176Z" fill="white"/>
<g opacity="0.3">
<path d="M326.158 460.007C326.107 460.007 326.055 459.994 326.009 459.967L306.645 448.787C306.553 448.734 306.496 448.636 306.496 448.529C306.496 448.422 306.553 448.324 306.645 448.271L330.851 434.296C330.944 434.243 331.056 434.243 331.149 434.296L350.513 445.476C350.605 445.529 350.662 445.627 350.662 445.734C350.662 445.841 350.605 445.939 350.513 445.992L326.308 459.967C326.261 459.994 326.209 460.007 326.158 460.007ZM307.39 448.53L326.158 459.366L349.767 445.735L330.999 434.899L307.39 448.53Z" fill="#3DB8DB"/>
</g>
<path d="M326.158 456.914L326.155 435.782L311.633 427.397L311.635 448.53L326.158 456.914Z" fill="#3DB8DB"/>
<path opacity="0.45" d="M326.158 456.914L326.155 435.782L311.633 427.397L311.635 448.53L326.158 456.914Z" fill="black"/>
<path d="M326.158 456.914L345.522 445.735L345.525 424.603L326.155 435.782L326.158 456.914Z" fill="#3DB8DB"/>
<path opacity="0.3" d="M326.158 456.914L345.522 445.735L345.525 424.603L326.155 435.782L326.158 456.914Z" fill="black"/>
<path d="M345.525 424.603L331.001 416.218L311.633 427.397L326.155 435.782L345.525 424.603Z" fill="#3DB8DB"/>
<path opacity="0.15" d="M345.525 424.603L331.001 416.218L311.633 427.397L326.155 435.782L345.525 424.603Z" fill="black"/>
<path opacity="0.3" d="M345.525 424.603L325.964 435.386L319.611 431.84L311.632 427.397L319.469 432.086L325.889 435.918C325.741 437.245 325.7 451.47 325.73 452.797C325.763 454.17 325.867 455.542 326.158 456.915C326.448 455.542 326.551 454.17 326.583 452.797C326.61 451.538 326.572 437.382 326.441 436.123L345.525 424.603Z" fill="white"/>
<g opacity="0.3">
<path d="M435.081 397.12C435.03 397.12 434.978 397.107 434.932 397.08L415.568 385.9C415.476 385.847 415.419 385.749 415.419 385.642C415.419 385.535 415.476 385.437 415.568 385.384L439.774 371.409C439.867 371.356 439.979 371.356 440.072 371.409L459.436 382.589C459.528 382.642 459.585 382.74 459.585 382.847C459.585 382.954 459.528 383.052 459.436 383.105L435.23 397.08C435.184 397.107 435.132 397.12 435.081 397.12ZM416.313 385.643L435.081 396.479L458.691 382.848L439.923 372.012L416.313 385.643Z" fill="#3DB8DB"/>
</g>
<path d="M435.081 394.028L435.078 255.288L420.556 246.903L420.558 385.643L435.081 394.028Z" fill="#3DB8DB"/>
<path opacity="0.3" d="M435.081 394.028L435.078 255.288L420.556 246.903L420.558 385.643L435.081 394.028Z" fill="white"/>
<path d="M435.081 394.028L454.445 382.848L454.448 244.109L435.078 255.288L435.081 394.028Z" fill="#3DB8DB"/>
<path opacity="0.55" d="M435.081 394.028L454.445 382.848L454.448 244.109L435.078 255.288L435.081 394.028Z" fill="white"/>
<path d="M454.448 244.109L439.924 235.724L420.556 246.903L435.078 255.288L454.448 244.109Z" fill="#3DB8DB"/>
<path opacity="0.75" d="M454.448 244.109L439.924 235.724L420.556 246.903L435.078 255.288L454.448 244.109Z" fill="white"/>
<path opacity="0.3" d="M435.335 255.646L454.448 244.11L434.884 254.895C432.775 253.7 430.654 252.525 428.535 251.347L420.556 246.904L428.393 251.593C430.535 252.876 432.674 254.163 434.827 255.428C434.759 257.99 434.688 290.124 434.668 292.686C434.645 295.294 434.635 375.77 434.654 378.378C434.667 380.986 434.705 383.595 434.781 386.203C434.839 388.811 434.933 391.42 435.081 394.028C435.229 391.42 435.322 388.811 435.38 386.203C435.456 383.595 435.494 380.986 435.506 378.378C435.525 375.77 435.514 295.294 435.49 292.686C435.47 290.196 435.401 258.135 435.335 255.646Z" fill="white"/>
<path opacity="0.2" d="M225.514 284.067C229.982 280.215 235.907 276.602 243.119 273.331C251.225 269.655 260.971 266.397 267.739 262.399C276.534 257.203 279.887 250.94 279.245 244.638C278.882 241.069 276.755 237.111 268.642 234.481C266.565 233.808 264.034 233.232 261.308 233.1C257.305 232.906 253.835 233.69 251.041 234.535C236.135 239.046 229.806 245.977 224.806 252.712C219.805 259.446 213.732 263.349 202.817 269.696C198.146 272.412 193.135 275.071 188.723 277.821C188.687 277.843 188.652 277.865 188.616 277.888C186.388 279.285 183.933 280.58 182.178 282.079C179.379 284.47 176.915 286.936 175.907 289.546C174.899 292.156 175.402 294.933 178.378 297.532C179.144 298.201 180.141 298.887 181.843 299.342C183.284 299.727 185.088 299.905 186.83 299.964C190.38 300.084 193.81 299.747 196.709 299.179C199.608 298.611 202.025 297.822 204.256 296.989C213.985 293.359 220.179 288.666 225.514 284.067Z" fill="black"/>
<path d="M179.801 151.349C178.984 153.517 176.604 158.122 176.753 158.703C177.159 160.293 177.238 161.263 176.887 163.118C176.677 164.227 167.084 167.998 167.084 167.998L166.851 166.481C166.694 165.458 166.822 164.414 167.23 163.463C168.341 160.869 170.61 155.197 171.317 150.616L179.801 151.349Z" fill="#FFA8A7"/>
<path d="M177.038 162.144L166.887 166.708L167.085 167.999C167.085 167.999 176.678 164.228 176.888 163.119C176.954 162.762 177.001 162.445 177.038 162.144Z" fill="#F28F8F"/>
<path d="M146.253 181.659L143.202 212.998C143.054 214.517 144.043 215.5 145.281 216.401L148.392 218.627C149.251 219.243 149.741 219.469 150.917 219.384C151.431 219.351 152.321 219.021 152.747 218.834C152.775 218.83 152.797 218.818 152.819 218.806L153.007 218.721L188.586 202.552C191.186 201.37 192.957 198.892 193.234 196.05L196.013 167.514C196.076 166.865 195.694 166.023 195.163 165.644L189.85 161.85C189.321 161.467 188.404 161.377 187.811 161.651L147.451 179.993C147.148 180.123 146.867 180.385 146.652 180.682C146.436 180.986 146.284 181.337 146.253 181.659Z" fill="black"/>
<path d="M146.253 181.659L143.202 212.998C143.054 214.517 144.043 215.5 145.281 216.401L148.392 218.627C149.251 219.243 149.741 219.469 150.917 219.384C151.431 219.351 152.321 219.021 152.747 218.834L152.748 218.821C151.375 219.308 150.407 218.524 150.559 216.97L153.434 187.442C153.482 186.949 153.707 186.418 154.035 185.96L146.653 180.682C146.436 180.986 146.284 181.337 146.253 181.659Z" fill="black"/>
<path d="M153.432 187.442C153.527 186.459 154.341 185.322 155.239 184.914L193.385 167.578C194.893 166.893 195.995 167.681 195.835 169.329L193.236 196.046C192.96 198.889 191.187 201.368 188.587 202.55L153.007 218.72C151.499 219.405 150.397 218.618 150.557 216.969L153.432 187.442Z" fill="black"/>
<path d="M194.372 168.831C194.346 168.869 194.361 168.995 194.343 169.184L191.745 195.902C191.521 198.204 190.074 200.228 187.967 201.186L152.387 217.357C152.213 217.436 152.094 217.461 152.028 217.468C152.045 217.428 152.03 217.303 152.049 217.116L154.924 187.588C154.974 187.079 155.395 186.49 155.86 186.278L194.006 168.944C194.188 168.86 194.309 168.837 194.372 168.831ZM194.408 167.331C194.1 167.331 193.755 167.41 193.386 167.579L155.24 184.914C154.342 185.322 153.528 186.46 153.433 187.442L150.558 216.97C150.436 218.215 151.035 218.969 151.985 218.969C152.293 218.969 152.638 218.889 153.008 218.721L188.589 202.55C191.188 201.368 192.961 198.889 193.238 196.046L195.836 169.329C195.955 168.085 195.357 167.331 194.408 167.331Z" fill="black"/>
<path d="M191.571 163.079L151.119 181.672C149.956 182.206 149.165 183.318 149.041 184.592L145.901 216.845L146.451 217.239L149.624 184.648C149.727 183.586 150.394 182.65 151.363 182.204L192.12 163.471L191.571 163.079Z" fill="#3DB8DB"/>
<path opacity="0.2" d="M149.692 182.855C149.332 183.36 149.103 183.956 149.041 184.591L145.901 216.845L146.451 217.239L149.624 184.648C149.675 184.117 149.867 183.619 150.168 183.197L149.692 182.855Z" fill="black"/>
<path opacity="0.2" d="M150.168 183.197C150.469 182.774 150.878 182.428 151.363 182.204L192.12 163.471L191.571 163.079L151.119 181.672C150.54 181.938 150.051 182.351 149.692 182.855" fill="black"/>
<path d="M177.584 165.76L177.112 170.613L178.903 171.894L179.531 165.449C179.563 165.119 179.342 164.961 179.041 165.098L177.584 165.76Z" fill="#3DB8DB"/>
<path opacity="0.4" d="M177.584 165.76L177.112 170.613L178.903 171.894L179.531 165.449C179.563 165.119 179.342 164.961 179.041 165.098L177.584 165.76Z" fill="black"/>
<path d="M163.78 169.257L163.015 177.113L164.725 178.338L166.013 177.751L166.641 171.307C166.673 170.976 166.947 170.593 167.25 170.456L177.012 166.021L179.04 165.099C179.342 164.962 179.563 165.119 179.531 165.45L178.903 171.894L180.195 171.307L180.959 163.453C180.962 163.42 180.963 163.384 180.96 163.35C180.951 163.037 180.767 162.674 180.523 162.501L179.795 161.978C179.526 161.785 179.06 161.739 178.755 161.877L164.386 168.406C164.082 168.546 163.812 168.927 163.78 169.257Z" fill="#3DB8DB"/>
<path opacity="0.2" d="M165.489 170.482L164.725 178.339L166.013 177.752L166.641 171.308C166.673 170.977 166.947 170.594 167.25 170.457L177.012 166.022L179.04 165.1C179.342 164.963 179.563 165.12 179.531 165.451L178.903 171.895L180.195 171.308L180.959 163.454C180.962 163.421 180.963 163.385 180.96 163.351C180.94 163.091 180.735 162.981 180.465 163.103L166.096 169.632C165.795 169.771 165.521 170.152 165.489 170.482Z" fill="black"/>
<path d="M175.48 165.398C175.69 165.405 175.893 165.466 176.061 165.594C176.323 165.154 176.83 164.871 177.342 164.88C177.567 164.884 177.828 164.975 177.886 165.192C177.905 165.264 177.899 165.34 177.892 165.415C177.823 166.138 177.723 166.858 177.594 167.572C177.5 168.088 177.369 168.641 176.973 168.985C176.648 169.267 176.169 169.357 175.764 169.212C175.618 169.554 175.322 169.822 174.979 169.96C174.899 169.992 173.89 170.08 173.952 169.962C173.573 170.671 172.737 171.401 171.657 171.186C171.657 171.186 171.388 171.962 169.964 171.795C168.539 171.628 167.909 170.057 167.909 170.057C167.989 169.618 168.14 169.442 168.63 169.252C168.873 169.158 169.134 169.049 169.366 168.933C169.701 168.766 169.918 168.377 170.159 168.093C170.405 167.804 170.69 167.531 171.045 167.395C171.4 167.26 171.839 167.289 172.115 167.549C172.147 167.255 172.344 167.008 172.548 166.794C172.732 166.602 172.961 166.41 173.236 166.381C173.317 166.373 173.967 166.486 173.888 166.656C174.083 166.235 174.354 165.831 174.751 165.592C174.968 165.46 175.228 165.389 175.48 165.398Z" fill="#FFA8A7"/>
<path d="M181.229 150.617C180.608 153.488 179.047 156.067 179.741 158.479C180.209 160.109 180.337 159.942 180.148 161.603C180.078 162.219 179.826 163.195 179.615 163.778C179.49 164.125 179.368 164.472 179.242 164.819C179.11 165.183 178.976 165.55 178.785 165.887C178.539 166.322 178.201 166.699 177.881 167.077C177.318 167.742 176.734 168.405 176.012 168.893C175.973 168.919 175.932 168.942 175.887 168.956C175.708 169.015 175.504 168.933 175.377 168.794C174.75 168.105 175.224 167.103 175.553 166.406C175.92 165.63 176.352 164.845 176.334 163.961C176.332 163.852 176.325 163.506 176.335 162.959C176.33 162.961 175.448 162.739 175.448 162.739C175.448 162.739 172.581 162.049 172.529 160.661C172.477 159.274 173.579 157.937 174.405 156.313C175.251 154.65 175.577 153.623 176.423 149.42L181.229 150.617Z" fill="#FFA8A7"/>
<path d="M178.785 165.886C178.132 166.95 177.296 167.898 176.36 168.725C176.203 168.844 176.068 169.05 175.784 169.074C174.446 168.822 175.076 167.055 175.526 166.277C175.893 165.54 176.311 164.802 176.334 163.96C176.391 164.805 176.012 165.603 175.67 166.345C175.319 167.068 174.692 168.547 175.776 168.875C176.914 168.198 177.937 166.941 178.785 165.886Z" fill="#F28F8F"/>
<path d="M176.107 162.69C175.758 162.512 175.375 162.381 175.044 162.167C174.787 162 174.572 161.771 174.4 161.519C173.983 160.908 173.611 160.105 173.732 159.351C173.74 159.305 173.687 159.221 173.66 159.298C173.353 160.147 173.589 161.113 174.046 161.867C174.26 162.22 174.58 162.503 174.929 162.718C175.109 162.829 175.303 162.913 175.509 162.965C175.743 163.024 175.91 163.029 176.128 162.927C176.207 162.89 176.173 162.723 176.107 162.69Z" fill="#F28F8F"/>
<path d="M198.274 93.047C192.076 92.57 187.128 93.8 183.925 101.951C180.307 111.157 176.745 118.258 174.952 124.957C173.158 131.655 170.508 152.844 170.508 152.844C170.508 152.844 175.191 156.922 180.343 155.062L188.142 130.979L198.274 111.491V93.047Z" fill="#E6E6E6"/>
<path d="M268.64 245.088C269.074 244.786 269.707 245.903 269.722 246.6C269.765 248.602 268.418 251.533 265.497 254.126C262.576 256.719 255.569 259.477 253.551 260.503C251.533 261.529 248.685 264.432 246.895 265.847C243.633 268.424 240.625 268.8 238.81 268.302C238.098 268.107 237.681 267.465 237.376 266.883C236.65 265.501 236.616 265.16 236.774 265.086L268.64 245.088Z" fill="black"/>
<path d="M234.948 260.897C235.402 262.391 236.424 264.734 237.373 265.987C238.353 266.77 239.784 266.728 240.828 266.511C243.582 265.938 245.801 264.515 248.073 262.526C249.435 261.334 250.922 260.041 252.834 259.107C254.935 258.081 259.687 256.03 261.749 254.916C263.499 253.97 265.53 252.374 266.716 250.739C267.718 249.357 268.99 246.825 268.862 245.525C267.939 242.828 266.876 241.51 265.001 241.467C263.021 241.422 260.794 242.438 257.725 243.858C256.806 244.284 255.665 244.853 255.165 245.064C253.273 245.862 251.532 246.658 250.132 247.326C248.933 247.898 247.752 248.446 246.394 248.457C245.747 248.462 245.221 248.392 244.703 248.005C244.071 247.535 243.569 246.617 242.992 246.871C242.992 246.871 233.864 254.209 233.094 254.747C232.207 255.37 233.573 256.373 234.948 260.897Z" fill="black"/>
<path d="M255.894 244.536C256.297 244.567 256.823 244.809 257.13 245.004C257.551 245.27 257.901 245.555 258.246 245.916C258.667 246.356 258.09 246.812 257.513 246.36C257.118 246.05 256.69 245.689 256.009 245.363C255.684 245.207 255.095 245.095 254.785 245.226C254.551 245.326 254.245 245.458 254.245 245.458C254.168 245 255.359 244.495 255.894 244.536Z" fill="#FAFAFA"/>
<path d="M251.048 246.544C251.386 246.303 251.734 246.235 252.158 246.304C252.658 246.385 253.088 246.65 253.466 246.97C253.773 247.23 254.486 247.936 254.72 248.266C254.942 248.576 254.157 249 253.872 248.686C253.59 248.377 253.053 247.813 252.701 247.521C252.485 247.341 251.597 246.698 251.012 246.91L250.762 247.031C250.696 246.917 250.805 246.753 250.898 246.667C250.945 246.622 250.995 246.581 251.048 246.544Z" fill="#FAFAFA"/>
<path d="M248.335 247.954C248.645 247.9 248.824 247.84 249.117 247.966C249.392 248.085 249.764 248.318 249.979 248.532C250.573 249.125 250.772 249.438 251.124 250.031C251.372 250.45 250.535 250.771 250.35 250.501C249.766 249.649 249.438 249.062 248.646 248.644C247.993 248.3 247.585 248.315 247.585 248.315C247.564 248.227 247.673 248.154 247.755 248.124C247.882 248.078 248.2 247.977 248.335 247.954Z" fill="#FAFAFA"/>
<path d="M226.816 244.244C226.816 244.244 231.942 253.312 233.357 255.332C233.809 255.978 235.256 255.53 236.085 255.448C236.913 255.366 238.222 255.238 239.113 255.488C241.747 256.227 243.244 255.909 242.62 252.39C242.492 251.67 242.735 251.191 243.589 250.902C244.227 250.685 244.959 250.614 245.476 250.172C245.533 250.064 245.402 249.956 245.292 249.901C244.446 249.488 243.968 249.194 243.378 247.915C241.554 243.958 239.885 235.808 239.885 235.808L226.816 244.244Z" fill="#FFA8A7"/>
<path d="M187.99 264.523C189.56 262.012 190.409 257.178 193.864 247.355L206.675 256.736L199.337 271.043C198.92 271.76 198.905 272.839 198.759 273.049C197.047 275.509 187.99 264.523 187.99 264.523Z" fill="#FFA8A7"/>
<path d="M183.245 269.879C183.264 269.734 183.187 268.55 183.224 268.408C183.557 267.133 184.345 266.781 185.356 266.069C186.61 265.186 187.825 264.129 188.147 263.682C188.486 263.213 188.551 262.97 189.077 262.756C189.973 262.392 191.413 262.363 193.186 263.295C196.092 264.821 196.98 266.66 196.812 268.652C196.685 270.171 196.558 272.191 197.897 273.095C198.454 273.471 199.335 271.043 199.335 271.043C200.161 272.427 199.001 274.343 198.396 277.147C197.981 279.07 198.082 279.908 198.315 281.861C198.609 284.323 198.949 284.313 200.256 284.484C201.382 284.632 204.575 284.418 206.517 285.774C209.194 287.644 208.479 290.131 208.479 290.131C208.133 291.077 205.221 295.668 194.585 293.954C191.5 293.457 185.019 288.606 185.118 288.153C185.21 287.732 185.108 287.185 185.093 286.76C185.056 285.672 185.009 284.585 184.962 283.498C184.919 282.507 185.02 281.354 184.781 280.391C184.569 279.534 184.468 278.713 184.385 277.822C184.181 275.639 183.978 273.455 183.774 271.272C183.715 270.643 183.16 270.499 183.245 269.879Z" fill="black"/>
<path d="M181.905 269.448C180.856 270.463 181.494 273.408 182.901 276.943C183.525 278.511 184.687 281.21 184.346 284.079C184.005 286.948 183.945 288.304 184.684 289.649C185.841 291.753 192.025 294.445 195.669 295.288C195.669 295.288 192.33 291.097 191.964 284.763C191.597 278.43 191.114 274.347 188.218 271.539C184.556 267.987 181.905 269.448 181.905 269.448Z" fill="black"/>
<path d="M208.479 290.132C208.479 290.132 206.346 294.129 198.117 293.998C194.878 293.947 193.144 292.369 193.064 287.445C192.968 281.511 192.49 275.518 190.571 272.572C188.652 269.626 185.595 268.198 183.224 268.408C182.812 268.474 182.291 268.867 181.905 269.448C181.905 269.448 184.278 268.668 187.97 271.732C190.696 273.994 191.433 278.719 191.392 284.587C191.374 287.112 191.221 289.976 191.96 291.891C192.642 293.657 194.153 294.867 195.889 295.354C200.363 296.611 206.485 294.54 208.034 292.649C208.923 291.388 208.479 290.132 208.479 290.132Z" fill="black"/>
<path d="M198.593 283.407C198.593 283.407 199.193 283.831 199.259 284.389C199.324 284.947 199.131 286.236 197.962 286.966C197.467 287.275 197.035 287.167 197.822 286.127C198.609 285.087 198.593 283.407 198.593 283.407Z" fill="#FAFAFA"/>
<path d="M198.151 280.336C198.151 280.336 198.412 280.504 198.478 281.329C198.513 281.771 197.825 283.552 196.959 283.977C196.093 284.401 196.561 283.403 196.937 282.913C197.349 282.375 198.075 281.153 198.151 280.336Z" fill="#FAFAFA"/>
<path d="M198.443 276.943C198.443 276.943 198.724 277.021 198.424 278.156C198.322 278.539 197.189 279.663 196.63 279.73C196.072 279.797 195.801 279.518 196.486 279.021C197.026 278.63 198.338 277.493 198.443 276.943Z" fill="#FAFAFA"/>
<path d="M219.439 150.118C219.439 150.118 224.417 156.084 227.427 167.243C231.081 180.789 232.495 191.208 233.637 198.769C234.356 203.519 235.043 208.101 236.697 217.235C238.268 225.915 242.171 244.694 242.171 244.694C242.171 244.694 241.485 247.556 237.623 249.246C233.761 250.936 229.582 250.288 229.582 250.288C229.582 250.288 226.934 245.765 221.413 235.11C217.667 227.881 217.05 223.944 216.325 220.244C215.783 217.458 215.138 212.018 215.191 209.516L194.468 174.303C194.468 174.303 192.246 171.99 190.31 167.129C187.381 159.776 191.121 149.182 191.121 149.182L219.439 150.118Z" fill="black"/>
<path d="M219.439 150.118C219.439 150.118 224.417 156.084 227.427 167.243C231.081 180.789 232.495 191.208 233.637 198.769C234.356 203.519 235.043 208.101 236.697 217.235C238.268 225.915 242.171 244.694 242.171 244.694C242.171 244.694 241.485 247.556 237.623 249.246C233.761 250.936 229.582 250.288 229.582 250.288C229.582 250.288 226.934 245.765 221.413 235.11C217.667 227.881 217.05 223.944 216.325 220.244C215.783 217.458 215.138 212.018 215.191 209.516L194.468 174.303C194.468 174.303 192.246 171.99 190.31 167.129C187.381 159.776 191.121 149.182 191.121 149.182L219.439 150.118Z" fill="black"/>
<path d="M233.231 196.056C232.141 188.778 230.663 179.239 227.427 167.243C226.493 163.781 225.37 160.821 224.265 158.382L197.979 157.92C196.023 162.491 194.475 168.202 198.756 175.178L199.883 183.5L215.192 209.514C215.139 212.017 215.784 217.457 216.326 220.242C217.051 223.942 217.668 227.879 221.414 235.108C221.579 235.425 221.732 235.72 221.891 236.026C223.552 233.548 226.146 229.53 227.138 227.183C228.644 223.616 229.676 216.743 231.255 208.037C231.836 204.83 232.589 200.18 233.231 196.056Z" fill="black"/>
<path d="M202.162 150.118C200.862 151.45 197.625 155.914 197.097 162.784C196.873 165.693 197.701 171.177 201.099 175.303C202.139 190.542 205.151 219.893 205.151 219.893C201.124 224.039 200.081 226.714 197.75 234.146C196.335 238.658 192.207 252.298 190.612 257.386C200.381 257.81 202.221 266.181 202.221 266.181C202.221 266.181 214.062 247.093 220.038 236.309C224.456 228.338 225.021 226.439 226.221 221.691C227.42 216.943 227.645 212.54 229.097 202.624C230.549 192.708 233.124 179.049 233.835 169.287C234.546 159.526 234.679 149.18 234.679 149.18L202.162 150.118Z" fill="black"/>
<path d="M189.243 162.062C190.231 161.779 191.637 160.834 192.169 159.985C192.488 159.474 192.681 158.748 192.925 157.828C193.192 156.824 193.524 155.573 194.155 154.166L194.908 154.503C194.305 155.851 193.996 157.014 193.723 158.041C193.46 159.028 193.254 159.807 192.869 160.423C192.238 161.434 190.603 162.578 189.314 162.886C189.286 162.61 189.261 162.336 189.243 162.062Z" fill="black"/>
<path d="M208.815 170.794C208.605 170.789 208.427 170.771 208.288 170.741C207.092 170.477 206.162 169.673 204.31 167.304C202.899 165.5 203.044 164.204 203.282 162.058C203.37 161.27 204.2 157.057 204.252 155.947L205.043 156.387C204.989 157.523 204.191 161.349 204.102 162.149C203.865 164.283 203.758 165.257 204.96 166.796C206.673 168.986 207.491 169.72 208.465 169.935C209.409 170.148 213.592 169.455 214.707 168.684C215.35 168.236 216.429 162.73 217.059 157.884L217.877 157.991C217.559 160.44 216.423 168.501 215.177 169.363C214.07 170.128 210.477 170.838 208.815 170.794Z" fill="black"/>
<path d="M190.911 97.4679C188.119 102.805 188.465 107.585 189.27 115.072C190.013 121.977 190.534 126.254 191.17 134.795C191.897 144.553 190.597 150.707 190.597 150.707C190.597 150.707 190.873 154.842 203.039 157.94C224.42 163.386 234.68 157.181 234.68 157.181C234.68 157.181 235.196 145.139 234.367 129.389C233.438 111.744 233.13 109.162 231.766 104.965C230.763 102.646 228.866 100.561 226.296 99.3939C224.174 98.4299 219.091 96.7669 216.074 95.6029C209.053 92.8939 200.938 93.0619 200.938 93.0619C194.85 92.6519 192.36 94.6969 190.911 97.4679Z" fill="#F5F5F5"/>
<path d="M199.444 94.01C199.897 94.01 200.377 94.027 200.871 94.06L200.915 94.063L200.959 94.062C200.965 94.062 201.057 94.06 201.225 94.06C202.573 94.06 209.609 94.179 215.714 96.536C216.935 97.007 218.511 97.566 220.034 98.107C222.303 98.912 224.649 99.745 225.883 100.305C228.066 101.296 229.867 103.122 230.83 105.32C232.115 109.287 232.424 111.491 233.368 129.442C234.084 143.043 233.789 153.988 233.701 156.565C232.277 157.253 227.569 159.179 219.522 159.179C214.498 159.179 209.035 158.436 203.285 156.972C193.217 154.408 191.785 151.223 191.614 150.712C191.835 149.549 192.831 143.648 192.166 134.721C191.628 127.491 191.172 123.312 190.595 118.021L190.263 114.966C189.459 107.495 189.134 103.02 191.795 97.933C192.811 95.992 194.513 94.01 199.444 94.01ZM199.444 93.01C194.428 93.01 192.235 94.936 190.91 97.468C188.118 102.805 188.464 107.585 189.269 115.072C190.012 121.977 190.533 126.254 191.169 134.795C191.896 144.553 190.595 150.707 190.595 150.707C190.595 150.707 190.871 154.842 203.037 157.94C209.557 159.6 215.045 160.178 219.521 160.178C229.724 160.178 234.678 157.181 234.678 157.181C234.678 157.181 235.194 145.139 234.365 129.389C233.437 111.744 233.128 109.162 231.764 104.965C230.761 102.647 228.864 100.561 226.294 99.394C224.171 98.43 219.089 96.767 216.072 95.603C209.83 93.194 202.723 93.06 201.223 93.06C201.036 93.06 200.936 93.062 200.936 93.062C200.415 93.027 199.917 93.01 199.444 93.01Z" fill="#E0E0E0"/>
<path d="M216.601 89.558L216.026 96.049C212.474 96.823 203.842 96.268 202.222 94.061L202.562 88.113L216.601 89.558Z" fill="#FFA8A7"/>
<path d="M225.853 72.9199C225.853 72.9199 227.502 74.1669 228.753 78.4759L226.31 80.2679C225.506 77.2409 224.639 74.1579 225.853 72.9199Z" fill="#F28F8F"/>
<path d="M219.554 60.8589C225.618 61.2619 226.632 64.4219 225.731 74.7639C227.859 84.5829 224.92 88.4669 223.654 89.7529C220.796 91.2839 217.891 91.5369 213.943 90.5079C210.934 89.7239 203.311 87.4629 200.118 82.7329C196.362 77.1679 195.38 68.7059 199.381 65.5569C205.011 61.1239 217.139 60.6989 219.554 60.8589Z" fill="#FFA8A7"/>
<path d="M223.654 89.7529C222.953 90.4639 218.896 91.7489 216.396 91.4749L216.602 89.5579C216.602 89.5579 220.074 90.2069 223.654 89.7529Z" fill="#F28F8F"/>
<path d="M220.188 68.002C220.059 68.446 219.866 68.872 219.618 69.262C218.936 70.335 217.962 70.912 216.923 71.563C217.301 72.828 217.709 74.137 217.726 75.479C217.731 75.908 217.697 76.362 217.454 76.721C217.027 77.355 216.307 77.293 215.975 76.705C215.577 75.999 215.298 75.264 214.741 74.651C214.097 73.942 213.217 73.405 212.25 73.31C208.592 72.954 208.578 78.649 210.045 80.577C212.445 83.733 214.416 81.708 214.416 81.708C214.416 81.708 215.65 86.575 212.123 88.684C212.123 88.684 206.44 90.077 202.562 88.113C200.787 84.46 198.393 82.328 196.487 78.438C193.153 71.633 194.75 65.656 197.022 64.427C196.383 61.249 198.316 58.126 202.427 56.187C206.479 54.275 212.079 55.25 216.388 55.94C218.948 56.35 221.596 56.2 224.094 55.504C224.448 55.405 224.806 55.295 225.173 55.296C225.54 55.298 225.929 55.431 226.141 55.731C226.418 56.122 226.321 56.669 226.109 57.098C225.897 57.527 225.583 57.907 225.426 58.36C226.314 58.118 227.242 58.779 227.642 59.608C228.203 60.769 227.97 62.216 227.235 63.275C226.5 64.334 225.327 65.032 224.091 65.399C222.855 65.765 221.55 65.826 220.261 65.817C220.434 66.535 220.394 67.291 220.188 68.002Z" fill="black"/>
<path d="M216.272 93.2789C217.199 93.2339 218.206 95.1479 220.025 97.0419C220.025 97.0419 214.898 100.016 207.25 98.8639C199.603 97.7119 198.135 93.0579 198.135 93.0579C198.135 93.0579 199.883 91.7159 200.804 90.8109C201.924 89.7109 202.472 89.6929 202.472 89.6929L202.382 91.2589C202.382 91.2589 203.849 92.7779 208.51 93.7209C213.172 94.6629 216.272 93.2789 216.272 93.2789Z" fill="#E6E6E6"/>
<path d="M243.339 138.313C243.339 138.313 241.153 127.35 239.559 119.663C237.965 111.977 238.582 103.098 226.483 100.056C224.482 103.109 223.177 107.786 223.852 113.619C224.527 119.452 227.188 128.6 227.857 131.692C228.527 134.784 230.793 140.942 233.677 145.227C237.512 150.925 244.664 160.565 247.56 164.108C248.9 165.748 250.062 167.408 251.295 169.152C252.581 170.97 254.288 172.383 255.812 174.009C256.515 174.76 257.525 175.298 258.513 175.574C259.163 175.756 259.808 175.506 260.424 175.676C261.062 175.851 261.448 176.44 262.202 176.461C263.04 176.484 263.721 175.906 264.478 175.979C265.27 176.055 266.042 176.342 266.872 176.321C267.62 176.301 268.13 176.195 268.846 176.494C269.432 176.74 270.252 177.516 270.92 177.12C271.668 176.675 271.44 175.858 271.175 175.183C270.707 173.992 269.396 172.823 268.279 172.231C266.985 171.545 265.867 170.568 264.495 170.034C263.254 169.552 262.168 168.49 261.273 167.496C260.648 166.801 260.239 165.728 261.507 165.713C263.001 165.696 264.854 166.263 266.214 165.319C267.155 164.666 266.836 163.834 265.924 163.439C264.398 162.777 263.011 162.04 261.587 161.157C260.17 160.278 258.861 159.255 257.424 158.419C256.677 157.984 255.856 157.621 255.051 157.287C252.798 156.351 251.817 154.097 250.681 152.107C249.098 149.332 245.113 142.002 243.339 138.313Z" fill="#FFA8A7"/>
<path d="M225.896 126.594C225.896 126.594 223.775 118.256 223.231 114.772C222.686 111.288 222.377 102.226 225.986 99.2581C228.591 99.8921 235.559 101.132 237.566 107.686C239.574 114.24 242.603 131.502 242.603 131.502L251.675 152.929C251.675 152.929 251.711 154.925 247.91 157.5C244.109 160.076 242.17 159.198 242.17 159.198C242.17 159.198 234.679 147.859 231.044 142.27C228.604 138.516 228.003 136.028 225.896 126.594Z" fill="#E6E6E6"/>
<path d="M157.351 90.7681L157.367 77.8801L168.206 76.7381C168.442 76.7131 168.654 76.7651 168.829 76.8681C169.354 77.1761 174.338 80.0611 174.511 80.1611C175.041 80.4661 175.236 81.2361 174.743 81.7551L163.04 94.0661L157.351 90.7681Z" fill="#3DB8DB"/>
<path d="M123.349 119.845L123.348 79.9651C123.348 79.3861 123.755 78.6811 124.256 78.3921L156.777 59.6541C157.279 59.3641 158.09 59.3681 158.588 59.6631L163.645 62.6501C164.144 62.9451 164.548 63.6531 164.548 64.2321L164.549 104.112C164.549 104.691 164.142 105.396 163.641 105.685L131.12 124.423C130.618 124.713 129.807 124.709 129.309 124.414L124.252 121.427C123.754 121.133 123.349 120.424 123.349 119.845Z" fill="#3DB8DB"/>
<path opacity="0.15" d="M130.972 124.495C130.54 124.662 130.212 124.42 130.21 123.898L130.212 84.0201C130.213 83.7291 130.314 83.4091 130.48 83.1241L123.595 79.1021C123.441 79.3801 123.346 79.6861 123.348 79.9671V119.848C123.347 120.425 123.75 121.132 124.251 121.429L129.307 124.415C129.762 124.68 130.472 124.711 130.972 124.495Z" fill="black"/>
<path d="M173.897 80.035L164.55 81.02L164.549 64.232C164.549 63.653 164.142 63.418 163.641 63.708L131.12 82.445C130.619 82.735 130.212 83.439 130.212 84.018L130.213 123.898C130.213 124.477 130.619 124.712 131.121 124.422L163.642 105.684C164.144 105.394 164.551 104.69 164.551 104.111L164.55 92.477L174.744 81.753C175.398 81.066 174.841 79.935 173.897 80.035Z" fill="#3DB8DB"/>
<path opacity="0.35" d="M173.897 80.035L164.55 81.02L164.549 64.232C164.549 63.653 164.142 63.418 163.641 63.708L131.12 82.445C130.619 82.735 130.212 83.439 130.212 84.018L130.213 123.898C130.213 124.477 130.619 124.712 131.121 124.422L163.642 105.684C164.144 105.394 164.551 104.69 164.551 104.111L164.55 92.477L174.744 81.753C175.398 81.066 174.841 79.935 173.897 80.035Z" fill="white"/>
<path d="M156.848 98.058C156.919 97.873 156.919 97.684 156.84 97.595L155.448 96.052C155.134 95.7 155.072 95.027 155.277 94.248C155.286 94.233 155.287 94.221 155.288 94.21C155.288 94.21 155.288 94.21 155.293 94.203C155.492 93.443 155.924 92.741 156.422 92.377L158.649 90.758C158.78 90.665 158.883 90.477 158.907 90.29C159.026 89.352 159.085 88.384 159.088 87.429C159.091 86.512 159.033 85.616 158.916 84.754C158.893 84.602 158.793 84.528 158.662 84.583L156.437 85.524C155.941 85.726 155.51 85.534 155.313 85.011C155.307 84.991 155.304 84.976 155.298 84.956C155.094 84.425 155.159 83.666 155.476 82.962L156.871 79.821C156.949 79.644 156.954 79.448 156.879 79.351C156.083 78.285 155.103 77.53 153.955 77.127C153.852 77.087 153.714 77.172 153.609 77.333L151.853 80.197C151.463 80.832 150.914 81.239 150.421 81.256C150.413 81.259 150.406 81.251 150.397 81.255C149.906 81.261 149.571 80.873 149.517 80.247L149.267 77.422C149.253 77.256 149.153 77.181 149.027 77.217C147.707 77.658 146.205 78.524 144.879 79.6C144.756 79.702 144.656 79.893 144.641 80.077L144.379 83.199C144.328 83.886 143.985 84.662 143.499 85.215C143.49 85.23 143.482 85.233 143.472 85.248C142.978 85.793 142.429 86.022 142.042 85.829L140.294 84.984C140.191 84.932 140.05 85.014 139.942 85.17C138.798 86.891 137.811 88.774 137.008 90.763C136.933 90.944 136.937 91.137 137.016 91.226L138.404 92.765C138.716 93.101 138.775 93.797 138.571 94.565C138.569 94.588 138.564 94.607 138.558 94.626C138.349 95.401 137.932 96.069 137.434 96.433L135.194 98.063C135.072 98.153 134.964 98.348 134.945 98.528C134.825 99.477 134.762 100.441 134.76 101.396C134.759 102.34 134.817 103.237 134.934 104.048C134.956 104.211 135.061 104.278 135.189 104.219L137.421 103.286C137.913 103.08 138.343 103.283 138.551 103.818C138.55 103.83 138.557 103.838 138.556 103.849C138.763 104.395 138.699 105.143 138.382 105.847L136.99 108.992C136.907 109.177 136.903 109.361 136.973 109.465C137.772 110.535 138.757 111.283 139.901 111.693C140.005 111.733 140.147 111.64 140.248 111.476L142.004 108.611C142.394 107.976 142.944 107.569 143.435 107.563C143.443 107.56 143.455 107.56 143.463 107.557C143.95 107.548 144.282 107.931 144.339 108.562L144.589 111.387C144.603 111.553 144.698 111.635 144.829 111.592C145.489 111.372 146.185 111.053 146.9 110.643C147.612 110.229 148.31 109.749 148.977 109.209C149.1 109.107 149.196 108.912 149.215 108.732L149.477 105.61C149.532 104.915 149.866 104.154 150.353 103.602C150.366 103.591 150.379 103.58 150.383 103.573C150.877 103.017 151.419 102.79 151.814 102.98L153.561 103.837C153.66 103.885 153.805 103.807 153.91 103.647C155.059 101.919 156.042 100.043 156.848 98.058ZM146.919 102.607C143.526 104.552 140.776 102.458 140.786 97.938C140.793 93.414 143.554 88.144 146.944 86.195C150.33 84.253 153.078 86.358 153.072 90.882C153.065 95.406 150.301 100.662 146.919 102.607Z" fill="white"/>
</svg>
