<svg width="229" height="155" viewBox="0 0 229 148" fill="none" xmlns="http://www.w3.org/2000/svg">
<g clip-path="url(#clip0_620_10039)">
<path fill-rule="evenodd" clip-rule="evenodd" d="M211.243 25.794C212.8 26.6009 214.22 27.6032 215.478 28.762L220.003 27.1593L224.256 33.8382L220.867 37.2243C221.383 38.8512 221.688 40.5571 221.756 42.3027L226.093 44.3519L224.353 52.0663L219.552 52.0769C218.742 53.6259 217.733 55.0388 216.568 56.2907L218.179 60.7929L211.467 65.024L208.063 61.6527C206.428 62.1657 204.713 62.4682 202.958 62.5363L200.899 66.8513L193.144 65.1212L193.135 60.3441C191.578 59.538 190.158 58.535 188.9 57.3758L184.374 58.9785L180.122 52.2996L183.511 48.9131C182.996 47.2862 182.692 45.5807 182.622 43.8355L178.286 41.7862L180.025 34.0714L184.826 34.0616C185.636 32.5126 186.644 31.0993 187.809 29.8475L186.199 25.3453L192.91 21.1141L196.314 24.4863C197.95 23.9732 199.664 23.67 201.419 23.6023L203.478 19.2876L211.232 21.0177L211.243 25.794ZM204.407 34.8718C199.814 33.8465 195.254 36.7203 194.223 41.2913C193.193 45.862 196.082 50.3982 200.675 51.4232C205.27 52.4482 209.829 49.5744 210.859 45.0037C211.889 40.4327 209.001 35.8968 204.407 34.8718Z" fill="#E0E0E0"/>
<path d="M168.59 11.0287C168.59 11.0287 169.158 11.0681 170.078 11.4919C170.979 11.9093 172.255 12.8205 173.043 14.478C173.426 15.2973 173.689 16.289 173.649 17.3624C173.604 18.4271 173.317 19.5806 172.651 20.5958C172.334 21.1104 171.921 21.5841 171.441 21.997C170.966 22.4166 170.412 22.7709 169.804 23.0299C168.599 23.5751 167.169 23.7176 165.797 23.4239C164.43 23.1066 163.197 22.3701 162.341 21.3648C161.903 20.8722 161.554 20.3168 161.305 19.7353C161.047 19.1579 160.877 18.5541 160.812 17.9537C160.645 16.7522 160.881 15.5877 161.298 14.6058C161.722 13.6182 162.386 12.8333 163.084 12.2552C164.508 11.0915 166.053 10.8102 167.046 10.8155C168.061 10.8234 168.59 11.0287 168.59 11.0287C168.583 11.0726 168.04 10.9199 167.05 10.955C166.078 10.9917 164.594 11.307 163.247 12.4492C162.587 13.0167 161.965 13.7763 161.573 14.723C161.188 15.6644 160.974 16.7741 161.141 17.9114C161.208 18.48 161.372 19.0506 161.62 19.5961C161.859 20.1455 162.191 20.6695 162.608 21.1334C163.421 22.0817 164.584 22.7724 165.876 23.073C167.172 23.3494 168.52 23.2189 169.662 22.7074C170.238 22.465 170.763 22.1323 171.215 21.7372C171.673 21.3493 172.067 20.9035 172.371 20.4177C173.011 19.4608 173.293 18.3662 173.35 17.3518C173.401 16.3295 173.164 15.3782 172.811 14.5842C172.084 12.9789 170.878 12.0628 170.015 11.617C169.135 11.1641 168.578 11.0715 168.59 11.0287Z" fill="#E0E0E0"/>
<path d="M173.638 4.3269C173.634 4.32955 173.629 4.25582 173.625 4.10724C173.621 3.94353 173.615 3.72386 173.609 3.43954C173.601 2.82742 173.588 1.94535 173.572 0.800512L173.617 0.85609C172.15 0.537365 170.22 0.118448 167.886 -0.388184L167.989 -0.438091C167.532 0.528669 167.025 1.60356 166.482 2.75332L166.455 2.81079L166.39 2.81343C165.199 2.8641 163.932 3.06788 162.653 3.47319L162.585 3.49474L162.534 3.44408C161.749 2.67052 160.898 1.83268 160.014 0.961955L160.173 0.979346C158.615 1.96652 156.962 3.01419 155.226 4.11442L155.283 3.94731C155.654 4.9757 156.061 6.10806 156.479 7.26877L156.51 7.35347L156.448 7.41963C155.649 8.27939 154.882 9.33084 154.274 10.501L154.231 10.5842L154.136 10.5846C153.038 10.5884 151.826 10.5929 150.592 10.597L150.749 10.4719C150.348 12.2614 149.915 14.1911 149.472 16.1689L149.38 15.9813C150.378 16.4517 151.473 16.9678 152.583 17.491L152.677 17.5353L152.681 17.6385C152.727 18.8162 152.935 20.0983 153.332 21.3414L153.364 21.4416L153.289 21.5165C152.506 22.2999 151.651 23.1547 150.788 24.0179L150.812 23.7997C151.807 25.3605 152.873 27.0331 153.954 28.7288L153.743 28.6562C154.798 28.2823 155.936 27.8785 157.083 27.4725L157.186 27.4358L157.266 27.5095C158.146 28.3216 159.2 29.0774 160.351 29.6718L160.352 29.6725L160.353 29.6729C160.397 29.744 160.257 29.5145 160.451 29.8325V29.8359V29.8427V29.8566V29.8842V29.9398L160.452 30.051L160.452 30.2729L160.453 30.7164L160.455 31.6008C160.456 32.1894 160.457 32.7755 160.458 33.3588L160.317 33.1842C162.251 33.6163 164.16 34.0428 166.041 34.4628L165.841 34.56C166.353 33.4878 166.86 32.4261 167.362 31.375L167.409 31.2786L167.516 31.2745C168.793 31.2261 170.048 31.0053 171.238 30.6325L171.34 30.6007L171.414 30.6752C172.264 31.5176 173.1 32.3471 173.925 33.166L173.712 33.143C175.404 32.0783 177.058 31.0382 178.67 30.0241L178.602 30.2192C178.2 29.091 177.805 27.9829 177.417 26.894L177.385 26.8017L177.451 26.7303C178.331 25.7881 179.062 24.748 179.634 23.6572L179.678 23.5736H179.773C180.988 23.5729 182.166 23.5725 183.317 23.5718L183.17 23.6886C183.626 21.6859 184.057 19.7955 184.467 17.9962L184.542 18.1504C183.417 17.6158 182.362 17.1137 181.344 16.6298L181.273 16.5961L181.27 16.5182C181.22 15.1722 180.985 13.9348 180.63 12.7998L180.608 12.731L180.659 12.6807C181.571 11.7752 182.393 10.9596 183.169 10.1891L183.154 10.3207C181.947 8.40529 180.918 6.77348 180.037 5.37646L180.132 5.40898C178.795 5.87289 177.698 6.25362 176.784 6.57083L176.751 6.58255L176.725 6.55873C175.784 5.68347 174.983 5.1515 174.449 4.81387C174.187 4.65659 173.986 4.53636 173.839 4.44827C173.698 4.36925 173.634 4.32917 173.638 4.3269C173.642 4.32463 173.716 4.35753 173.854 4.42369C173.993 4.49515 174.205 4.60366 174.48 4.76472C175.026 5.08723 175.842 5.60634 176.804 6.47518L176.745 6.46308C177.655 6.13452 178.747 5.7398 180.078 5.2585L180.138 5.23657L180.174 5.2914C181.067 6.68048 182.11 8.30359 183.335 10.2084L183.381 10.2795L183.32 10.34C182.549 11.1158 181.733 11.9366 180.827 12.8482L180.856 12.7294C181.224 13.8807 181.471 15.1386 181.529 16.5088L181.455 16.3972C182.475 16.8763 183.533 17.3731 184.66 17.9024L184.759 17.9493L184.736 18.057C184.333 19.8582 183.911 21.7505 183.463 23.7547L183.437 23.8712L183.316 23.8716C182.166 23.8761 180.988 23.8806 179.772 23.8852L179.911 23.8016C179.329 24.9181 178.584 25.9839 177.688 26.9499L177.722 26.7866C178.112 27.8744 178.51 28.9814 178.915 30.1088L178.959 30.2332L178.847 30.3043C177.237 31.3213 175.586 32.3649 173.895 33.4329L173.779 33.5063L173.682 33.4099C172.855 32.5921 172.017 31.7641 171.167 30.9228L171.343 30.9656C170.124 31.3493 168.838 31.5769 167.529 31.628L167.682 31.5274C167.181 32.5789 166.675 33.6409 166.163 34.7139L166.102 34.8424L165.963 34.8114C164.081 34.3921 162.172 33.9668 160.238 33.5358L160.097 33.5044L160.097 33.3611C160.095 32.7777 160.094 32.1913 160.093 31.603L160.091 30.7187L160.09 30.2752L160.09 30.0533L160.089 29.9421V29.8865V29.8589V29.8449V29.8377V29.8343C160.284 30.1519 160.143 29.9221 160.186 29.9928L160.185 29.9924L160.184 29.9916C159.003 29.3822 157.923 28.6071 157.021 27.7738L157.204 27.8112C156.057 28.2173 154.918 28.6203 153.862 28.9935L153.727 29.0415L153.65 28.9209C152.571 27.224 151.506 25.5506 150.513 23.9888L150.437 23.8697L150.537 23.7703C151.401 22.9078 152.257 22.0545 153.041 21.2719L152.998 21.4465C152.593 20.1724 152.382 18.8586 152.337 17.6525L152.435 17.7999C151.326 17.2744 150.231 16.756 149.235 16.2838L149.113 16.2263L149.143 16.0959C149.591 14.1193 150.028 12.1907 150.434 10.402L150.462 10.2768H150.591C151.825 10.2761 153.036 10.2753 154.135 10.2749L153.997 10.3581C154.623 9.16373 155.409 8.09262 156.229 7.21773L156.198 7.36821C155.784 6.2056 155.381 5.07173 155.015 4.04221L154.977 3.93521L155.073 3.87509C156.815 2.78318 158.473 1.74308 160.035 0.763082L160.123 0.70826L160.195 0.780473C161.075 1.65649 161.92 2.49887 162.701 3.27696L162.582 3.24823C163.885 2.84406 165.172 2.64556 166.382 2.60284L166.29 2.66295C166.842 1.51774 167.359 0.447004 167.823 -0.516354L167.855 -0.58252L167.926 -0.566261C170.254 -0.0327842 172.179 0.40844 173.642 0.744178L173.688 0.754765L173.688 0.800134C173.677 1.93476 173.669 2.80927 173.663 3.4161C173.658 3.7042 173.654 3.92651 173.651 4.09287C173.647 4.24524 173.642 4.32426 173.638 4.3269Z" fill="#E0E0E0"/>
<path d="M15.3883 91.5486C15.3883 91.5486 15.7683 91.6375 16.3451 92.0258C16.9095 92.4076 17.6729 93.1649 18.0233 94.3744C18.192 94.9718 18.26 95.6724 18.1137 96.3953C17.9651 97.1118 17.6433 97.8619 17.0793 98.477C16.8072 98.7912 16.4751 99.0665 16.1035 99.2937C15.7349 99.5258 15.321 99.7054 14.8802 99.8139C14.0028 100.051 13.0182 99.9905 12.121 99.6411C11.2295 99.2763 10.4763 98.6419 10.0074 97.8664C9.76456 97.4845 9.59052 97.0698 9.48564 96.6486C9.37505 96.2289 9.32718 95.8013 9.34884 95.3873C9.36936 94.5548 9.65854 93.7918 10.0496 93.1721C10.4467 92.5494 10.9832 92.0904 11.5202 91.7755C12.6146 91.1433 13.6923 91.1221 14.3653 91.2348C15.0524 91.3513 15.3883 91.5486 15.3883 91.5486C15.3788 91.5777 15.0277 91.4144 14.3528 91.3297C13.6904 91.2481 12.65 91.2987 11.6106 91.9248C11.1003 92.2371 10.5945 92.6833 10.2236 93.2818C9.85842 93.8772 9.59014 94.6058 9.5776 95.3949C9.55974 95.7873 9.60838 96.1923 9.71516 96.5889C9.81624 96.9874 9.98307 97.3791 10.2141 97.739C10.6602 98.4706 11.3716 99.0665 12.2133 99.412C13.0611 99.7417 13.9891 99.8011 14.8198 99.5799C15.2367 99.4789 15.6296 99.3111 15.9796 99.0929C16.3326 98.8801 16.6492 98.6214 16.9091 98.3254C17.4487 97.7469 17.7614 97.0365 17.9119 96.3552C18.0601 95.6679 18.0054 94.9975 17.8542 94.4209C17.5395 93.2534 16.8236 92.5003 16.2881 92.1033C15.7425 91.7002 15.375 91.5762 15.3883 91.5486Z" fill="#E0E0E0"/>
<path d="M19.5517 87.5616C19.5487 87.5627 19.5536 87.5124 19.5669 87.4111C19.5825 87.2995 19.6034 87.1502 19.6304 86.957C19.6923 86.5411 19.782 85.9422 19.8983 85.1649L19.9226 85.2076C18.9635 84.8307 17.7026 84.335 16.1769 83.7353L16.2521 83.713C15.8353 84.318 15.3724 84.9906 14.8769 85.7101L14.8522 85.746L14.8081 85.7407C13.9953 85.6443 13.1144 85.6435 12.2032 85.7778L12.1545 85.7849L12.1253 85.7449C11.6788 85.1343 11.1958 84.4737 10.693 83.7864L10.799 83.8155C9.63393 84.3134 8.39739 84.842 7.0989 85.3967L7.15666 85.29C7.29347 86.0273 7.44433 86.8394 7.59861 87.672L7.61001 87.7324L7.56099 87.7706C6.9241 88.2655 6.28797 88.8935 5.74608 89.6202L5.7077 89.672L5.64347 89.6618C4.89866 89.5438 4.07708 89.4138 3.24069 89.2815L3.36077 89.2138C2.8907 90.3824 2.38339 91.6422 1.86392 92.9338L1.8225 92.7965C2.44609 93.2245 3.13125 93.6948 3.82514 94.1712L3.88366 94.2117L3.87492 94.282C3.77574 95.085 3.7746 95.9766 3.9057 96.8628L3.91634 96.9343L3.85744 96.9766C3.23993 97.4216 2.56617 97.9071 1.88558 98.3971L1.92624 98.2519C2.42709 99.4186 2.96404 100.669 3.50859 101.937L3.37331 101.864C4.1299 101.726 4.94616 101.578 5.76812 101.429L5.84184 101.415L5.88782 101.474C6.39399 102.121 7.02404 102.748 7.73807 103.277L7.73921 103.278L7.7396 103.279C7.76126 103.331 7.69171 103.161 7.78824 103.397L7.78786 103.399L7.7871 103.404L7.78557 103.413L7.78254 103.432L7.77646 103.47L7.76429 103.545L7.73998 103.696L7.69133 103.996L7.59443 104.596C7.53021 104.995 7.46599 105.392 7.40177 105.788L7.32577 105.654C8.58853 106.159 9.83495 106.657 11.0628 107.149L10.9161 107.192C11.382 106.522 11.8433 105.859 12.3004 105.201L12.3426 105.141L12.4156 105.15C13.2866 105.257 14.1613 105.246 15.0091 105.124L15.0813 105.113L15.1239 105.172C15.6057 105.836 16.0804 106.49 16.5493 107.135L16.4072 107.096C17.6722 106.56 18.9076 106.037 20.1126 105.527L20.045 105.652C19.8975 104.843 19.7528 104.049 19.6106 103.269L19.5985 103.203L19.6517 103.162C20.352 102.62 20.9627 101.995 21.4715 101.319L21.5107 101.267L21.5745 101.277C22.398 101.41 23.1964 101.539 23.9762 101.665L23.8641 101.728C24.3949 100.421 24.8965 99.1876 25.3734 98.0133L25.4077 98.126C24.705 97.6401 24.0453 97.1842 23.4092 96.7445L23.3647 96.7138L23.3716 96.6609C23.4867 95.7433 23.4647 94.879 23.3503 94.071L23.3435 94.0223L23.3834 93.9939C24.1019 93.4805 24.7491 93.0181 25.3605 92.581L25.3362 92.6687C24.7301 91.2384 24.2137 90.0195 23.7717 88.9763L23.8329 89.0089C22.8753 89.1764 22.0898 89.314 21.4354 89.4285L21.4115 89.4327L21.3967 89.4138C20.8555 88.7174 20.3722 88.2689 20.0476 87.9816C19.8877 87.8466 19.7649 87.743 19.6752 87.667C19.5878 87.5967 19.5487 87.5627 19.5517 87.5616C19.5548 87.5604 19.6011 87.5907 19.687 87.6508C19.774 87.7147 19.9051 87.8115 20.0735 87.9506C20.4083 88.2292 20.9034 88.6705 21.459 89.365L21.4202 89.3503C22.0731 89.2274 22.8567 89.0799 23.812 88.9L23.8553 88.8917L23.8732 88.9325C24.3246 89.9718 24.8513 91.1862 25.47 92.6112L25.4932 92.6646L25.4457 92.699C24.8373 93.1398 24.1931 93.6067 23.478 94.1247L23.5107 94.0476C23.6323 94.868 23.66 95.7474 23.5475 96.6825L23.5099 96.5989C24.1483 97.0356 24.8099 97.4882 25.5152 97.9706L25.5775 98.0133L25.5494 98.0836C25.077 99.2599 24.5808 100.496 24.0552 101.805L24.0248 101.881L23.9431 101.868C23.1629 101.745 22.3642 101.618 21.5399 101.488L21.6429 101.447C21.125 102.139 20.5021 102.78 19.7877 103.336L19.8288 103.229C19.9728 104.009 20.1195 104.803 20.2688 105.611L20.2852 105.701L20.2012 105.736C18.9973 106.249 17.7627 106.775 16.4991 107.313L16.4125 107.35L16.357 107.273C15.8873 106.628 15.4116 105.975 14.9286 105.312L15.043 105.36C14.1746 105.487 13.2782 105.5 12.3852 105.39L12.4999 105.339C12.0436 105.997 11.583 106.661 11.1175 107.332L11.0616 107.412L10.9704 107.375C9.74185 106.885 8.49581 106.387 7.23267 105.883L7.1407 105.846L7.15628 105.749C7.22012 105.353 7.28434 104.956 7.34857 104.557L7.44547 103.958L7.49411 103.657L7.51843 103.506L7.53059 103.431L7.53667 103.393L7.53971 103.375L7.54123 103.365L7.54199 103.36L7.54237 103.358C7.63889 103.594 7.56897 103.423 7.59025 103.476L7.58987 103.475L7.58873 103.475C6.85646 102.932 6.21045 102.288 5.69174 101.625L5.81144 101.67C4.9891 101.819 4.17285 101.967 3.41625 102.105L3.31935 102.122L3.28059 102.032C2.73718 100.764 2.20137 99.5132 1.70166 98.346L1.66366 98.2572L1.74232 98.2005C2.42367 97.7112 3.09781 97.2265 3.71608 96.7823L3.66782 96.8961C3.53481 95.9883 3.53747 95.0748 3.64046 94.2525L3.69024 94.3633C2.9971 93.8858 2.31309 93.4143 1.69026 92.9848L1.61426 92.9326L1.64884 92.8475C2.17173 91.5571 2.6817 90.2985 3.15481 89.131L3.18787 89.0493L3.27489 89.0633C4.11091 89.1983 4.9321 89.3306 5.67654 89.4508L5.57393 89.492C6.13026 88.7514 6.78198 88.112 7.43445 87.6092L7.39683 87.7079C7.24559 86.875 7.09814 86.0621 6.96438 85.3244L6.95032 85.2477L7.02214 85.2174C8.32291 84.6684 9.56211 84.1459 10.7295 83.6533L10.7949 83.6257L10.8359 83.6828C11.3345 84.3728 11.814 85.0363 12.2571 85.6496L12.1796 85.6167C13.1072 85.4859 14.0017 85.4927 14.826 85.5963L14.7572 85.6269C15.2584 84.9116 15.727 84.2427 16.1484 83.6408L16.1773 83.5996L16.2236 83.6185C17.7421 84.2356 18.9973 84.746 19.9519 85.1339L19.9815 85.146L19.9762 85.1766C19.8432 85.9445 19.741 86.5358 19.6695 86.9464C19.6338 87.1411 19.6065 87.2912 19.5859 87.4035C19.5666 87.5071 19.5552 87.56 19.5517 87.5616Z" fill="#E0E0E0"/>
<path fill-rule="evenodd" clip-rule="evenodd" d="M51.3228 107.655C52.5711 108.583 53.6724 109.664 54.6095 110.858L58.8059 110.096L61.5757 116.554L58.1192 119.042C58.3381 120.541 58.3609 122.08 58.1701 123.62L61.6783 126.032L59.0464 132.548L54.8363 131.875C53.9038 133.118 52.817 134.214 51.6158 135.145L52.3819 139.321L45.8913 142.077L43.3909 138.638C41.8838 138.855 40.3375 138.877 38.7894 138.687L36.3653 142.178L29.8155 139.56L30.4919 135.371C29.2425 134.443 28.1423 133.362 27.2052 132.167L23.0081 132.929L20.2378 126.47L23.6951 123.983C23.4762 122.483 23.4546 120.945 23.6442 119.405L20.1367 116.993L22.7679 110.476L26.978 111.149C27.9105 109.907 28.9973 108.811 30.1985 107.879L29.4321 103.703L35.923 100.947L38.4234 104.387C39.9305 104.169 41.4768 104.147 43.0249 104.336L45.449 100.846L51.998 103.466L51.3228 107.655ZM44.0274 114.642C40.1479 113.092 35.7379 114.963 34.1791 118.824C32.6203 122.684 34.5025 127.072 38.382 128.623C42.2626 130.173 46.6715 128.301 48.2303 124.441C49.7891 120.58 47.908 116.193 44.0274 114.642Z" fill="#E0E0E0"/>
<path d="M51.036 66.0659H5.2334V9.39111L40.2693 9.49395L51.036 21.1253V66.0659Z" fill="#EBEBEB"/>
<path d="M18.935 41.7259C18.8757 41.7822 18.1153 41.099 16.9327 39.9485C15.7501 38.798 14.1453 37.1798 12.3988 35.3669L12.2031 35.1638L12.3977 34.9597L12.4163 34.94C14.1571 33.1116 15.7573 31.4794 16.9369 30.3183C18.1164 29.1572 18.8757 28.4672 18.9353 28.5232C18.995 28.5791 18.3433 29.3708 17.2416 30.6057C16.14 31.8401 14.5884 33.518 12.8472 35.3465L12.8286 35.3661L12.8275 34.9585C14.574 36.7722 16.1305 38.4358 17.2356 39.6604C18.3402 40.8843 18.9939 41.6695 18.935 41.7259Z" fill="black"/>
<path d="M37.3143 28.5228C37.3736 28.4664 38.134 29.1496 39.317 30.3001C40.4995 31.4506 42.1043 33.0689 43.8508 34.8818L44.0465 35.0848L43.852 35.289L43.8333 35.3086C42.0925 37.137 40.4923 38.7692 39.3128 39.9303C38.1332 41.0914 37.374 41.7814 37.3143 41.7255C37.2547 41.6695 37.9064 40.8778 39.008 39.643C40.1097 38.4081 41.6612 36.7306 43.4024 34.9022L43.421 34.8825L43.4222 35.2901C41.6757 33.4768 40.1191 31.8129 39.0141 30.5882C37.9086 29.3644 37.255 28.5791 37.3143 28.5228Z" fill="black"/>
<path d="M22.5518 43.8082C22.4119 43.7232 24.7892 39.6028 27.8616 34.6068C30.9347 29.6089 33.5385 25.6277 33.6784 25.7128C33.8182 25.7978 31.4413 29.9171 28.3682 34.915C25.2962 39.9113 22.6916 43.8937 22.5518 43.8082Z" fill="black"/>
<path d="M40.2667 9.49756L40.2256 18.9909C40.2195 20.372 41.3649 21.4832 42.7527 21.4427L51.0357 21.1342L40.2667 9.49756Z" fill="#E0E0E0"/>
<path d="M20.1992 47.7822H-0.113281V60.0647H20.1992V47.7822Z" fill="#3DB8DB"/>
<path d="M5.6582 56.4352L6.18679 55.8189C6.53298 56.3082 6.97911 56.5713 7.51682 56.5713C8.23655 56.5713 8.6101 56.1361 8.6101 55.2843V51.7228H6.30536V50.9341H9.51186V55.2393C9.51186 56.6534 8.81948 57.3509 7.51682 57.3509C6.7606 57.3505 6.06823 57.0243 5.6582 56.4352Z" fill="white"/>
<path d="M10.7861 56.553L11.1232 55.846C11.5971 56.2721 12.4076 56.5802 13.2277 56.5802C14.3297 56.5802 14.8036 56.1541 14.8036 55.6014C14.8036 54.0516 10.9412 55.0305 10.9412 52.6739C10.9412 51.695 11.7065 50.8613 13.3827 50.8613C14.1294 50.8613 14.9039 51.0606 15.4325 51.4232L15.1319 52.1483C14.5763 51.7948 13.9474 51.6319 13.3827 51.6319C12.2986 51.6319 11.8342 52.0848 11.8342 52.6379C11.8342 54.1877 15.6966 53.2179 15.6966 55.5473C15.6966 56.5171 14.913 57.3511 13.2281 57.3511C12.253 57.3504 11.2965 57.0241 10.7861 56.553Z" fill="white"/>
<path d="M90.0688 12.7438C89.0489 13.2459 88.4036 14.3012 88.4112 15.4558L88.5529 37.939C88.5598 38.9972 89.1146 39.9738 90.0125 40.5062L108.777 51.6336C108.78 51.6351 108.784 51.6351 108.786 51.6336L126.748 40.0479C127.604 39.4963 128.12 38.5337 128.113 37.5019L127.965 14.0263C127.957 12.8304 127.252 11.7536 126.17 11.2886L108.479 3.68115L90.0688 12.7438Z" fill="#3DB8DB"/>
<g opacity="0.2">
<path d="M108.479 3.68066L108.782 51.6331L126.721 40.0694C127.589 39.5102 128.12 38.5646 128.113 37.5351L127.974 13.9649C127.967 12.8016 127.27 11.752 126.196 11.2907L108.479 3.68066Z" fill="black"/>
</g>
<path d="M113.73 30.6101L102.786 30.6785L100.554 35.9403L97.5234 35.9592L106.718 14.9098L109.63 14.8916L119.118 35.8242L116.029 35.8435L113.73 30.6101ZM112.686 28.2172L108.178 17.9594L103.801 28.2728L112.686 28.2172Z" fill="white"/>
<path d="M203.238 40.4292H99.9355V100.316H203.238V40.4292Z" fill="black"/>
<path d="M108.015 97.3022C107.96 97.3022 107.916 85.0556 107.916 69.9527C107.916 54.8445 107.96 42.6006 108.015 42.6006C108.07 42.6006 108.114 54.8445 108.114 69.9527C108.114 85.0556 108.07 97.3022 108.015 97.3022Z" fill="#E0E0E0"/>
<path d="M105.891 44.9074C105.891 44.9618 105.125 45.0057 104.181 45.0057C103.235 45.0057 102.47 44.9615 102.47 44.9074C102.47 44.8533 103.235 44.8091 104.181 44.8091C105.125 44.8091 105.891 44.8529 105.891 44.9074Z" fill="#E0E0E0"/>
<path d="M105.891 48.5119C105.891 48.5663 105.125 48.6102 104.181 48.6102C103.235 48.6102 102.47 48.5659 102.47 48.5119C102.47 48.4574 103.235 48.4136 104.181 48.4136C105.125 48.4136 105.891 48.4578 105.891 48.5119Z" fill="#E0E0E0"/>
<path d="M105.891 52.1164C105.891 52.1708 105.125 52.2147 104.181 52.2147C103.235 52.2147 102.47 52.1704 102.47 52.1164C102.47 52.0619 103.235 52.0181 104.181 52.0181C105.125 52.0181 105.891 52.0619 105.891 52.1164Z" fill="#E0E0E0"/>
<path d="M105.891 55.7209C105.891 55.7753 105.125 55.8192 104.181 55.8192C103.235 55.8192 102.47 55.7749 102.47 55.7209C102.47 55.6664 103.235 55.6226 104.181 55.6226C105.125 55.6226 105.891 55.6668 105.891 55.7209Z" fill="#E0E0E0"/>
<path d="M105.891 59.3254C105.891 59.3798 105.125 59.4237 104.181 59.4237C103.235 59.4237 102.47 59.3794 102.47 59.3254C102.47 59.2709 103.235 59.2271 104.181 59.2271C105.125 59.2267 105.891 59.2709 105.891 59.3254Z" fill="#E0E0E0"/>
<path d="M105.891 62.9298C105.891 62.9843 105.125 63.0281 104.181 63.0281C103.235 63.0281 102.47 62.9839 102.47 62.9298C102.47 62.8754 103.235 62.8315 104.181 62.8315C105.125 62.8315 105.891 62.8754 105.891 62.9298Z" fill="#E0E0E0"/>
<path d="M105.891 66.5343C105.891 66.5888 105.125 66.6326 104.181 66.6326C103.235 66.6326 102.47 66.5884 102.47 66.5343C102.47 66.4803 103.235 66.436 104.181 66.436C105.125 66.4357 105.891 66.4799 105.891 66.5343Z" fill="#E0E0E0"/>
<path d="M105.891 70.1388C105.891 70.1933 105.125 70.2371 104.181 70.2371C103.235 70.2371 102.47 70.1929 102.47 70.1388C102.47 70.0848 103.235 70.0405 104.181 70.0405C105.125 70.0405 105.891 70.0844 105.891 70.1388Z" fill="#E0E0E0"/>
<path d="M105.891 73.7428C105.891 73.7973 105.125 73.8411 104.181 73.8411C103.235 73.8411 102.47 73.7969 102.47 73.7428C102.47 73.6888 103.235 73.6445 104.181 73.6445C105.125 73.6445 105.891 73.6888 105.891 73.7428Z" fill="#E0E0E0"/>
<path d="M105.891 77.3478C105.891 77.4023 105.125 77.4461 104.181 77.4461C103.235 77.4461 102.47 77.4019 102.47 77.3478C102.47 77.2937 103.235 77.2495 104.181 77.2495C105.125 77.2491 105.891 77.2934 105.891 77.3478Z" fill="#E0E0E0"/>
<path d="M105.891 80.9518C105.891 81.0063 105.125 81.0501 104.181 81.0501C103.235 81.0501 102.47 81.0063 102.47 80.9518C102.47 80.8974 103.235 80.8535 104.181 80.8535C105.125 80.8535 105.891 80.8978 105.891 80.9518Z" fill="#E0E0E0"/>
<path d="M105.891 84.5563C105.891 84.6108 105.125 84.6546 104.181 84.6546C103.235 84.6546 102.47 84.6104 102.47 84.5563C102.47 84.5019 103.235 84.458 104.181 84.458C105.125 84.4576 105.891 84.5019 105.891 84.5563Z" fill="#E0E0E0"/>
<path d="M105.891 88.1608C105.891 88.2152 105.125 88.2591 104.181 88.2591C103.235 88.2591 102.47 88.2152 102.47 88.1608C102.47 88.1063 103.235 88.0625 104.181 88.0625C105.125 88.0625 105.891 88.1063 105.891 88.1608Z" fill="#E0E0E0"/>
<path d="M105.891 91.7653C105.891 91.8197 105.125 91.8636 104.181 91.8636C103.235 91.8636 102.47 91.8194 102.47 91.7653C102.47 91.7109 103.235 91.667 104.181 91.667C105.125 91.667 105.891 91.7112 105.891 91.7653Z" fill="#E0E0E0"/>
<path d="M105.891 95.3698C105.891 95.4242 105.125 95.4681 104.181 95.4681C103.235 95.4681 102.47 95.4239 102.47 95.3698C102.47 95.3153 103.235 95.2715 104.181 95.2715C105.125 95.2715 105.891 95.3153 105.891 95.3698Z" fill="#E0E0E0"/>
<path d="M119.603 44.695C119.603 44.7494 117.616 44.7933 115.164 44.7933C112.712 44.7933 110.725 44.7491 110.725 44.695C110.725 44.6405 112.712 44.5967 115.164 44.5967C117.616 44.5967 119.603 44.6405 119.603 44.695Z" fill="#3DB8DB"/>
<path d="M119.603 95.3698C119.603 95.4242 117.616 95.4681 115.164 95.4681C112.712 95.4681 110.725 95.4239 110.725 95.3698C110.725 95.3153 112.712 95.2715 115.164 95.2715C117.616 95.2715 119.603 95.3153 119.603 95.3698Z" fill="#3DB8DB"/>
<path d="M131.968 52.1169C131.968 52.1713 128.249 52.2152 123.662 52.2152C119.074 52.2152 115.355 52.1709 115.355 52.1169C115.355 52.0624 119.074 52.0186 123.662 52.0186C128.249 52.0186 131.968 52.0624 131.968 52.1169Z" fill="#3DB8DB"/>
<path d="M151.177 52.1164C151.177 52.1708 147.458 52.2147 142.871 52.2147C138.283 52.2147 134.564 52.1704 134.564 52.1164C134.564 52.0619 138.283 52.0181 142.871 52.0181C147.458 52.0181 151.177 52.0619 151.177 52.1164Z" fill="#E0E0E0"/>
<path d="M143.835 55.7209C143.835 55.7753 138.355 55.8192 131.595 55.8192C124.833 55.8192 119.354 55.7749 119.354 55.7209C119.354 55.6664 124.833 55.6226 131.595 55.6226C138.355 55.6226 143.835 55.6668 143.835 55.7209Z" fill="#E0E0E0"/>
<path d="M143.835 59.3258C143.835 59.3803 138.355 59.4241 131.595 59.4241C124.833 59.4241 119.354 59.3799 119.354 59.3258C119.354 59.2714 124.833 59.2275 131.595 59.2275C138.355 59.2272 143.835 59.2714 143.835 59.3258Z" fill="#E0E0E0"/>
<path d="M160.687 70.1388C160.687 70.1933 155.206 70.2371 148.447 70.2371C141.685 70.2371 136.205 70.1929 136.205 70.1388C136.205 70.0848 141.685 70.0405 148.447 70.0405C155.206 70.0405 160.687 70.0844 160.687 70.1388Z" fill="#E0E0E0"/>
<path d="M153.416 62.9298C153.416 62.9843 147.935 63.0281 141.175 63.0281C134.413 63.0281 128.934 62.9839 128.934 62.9298C128.934 62.8754 134.413 62.8315 141.175 62.8315C147.935 62.8315 153.416 62.8754 153.416 62.9298Z" fill="#E0E0E0"/>
<path d="M183.333 62.9298C183.333 62.9843 177.852 63.0281 171.092 63.0281C164.33 63.0281 158.851 62.9839 158.851 62.9298C158.851 62.8754 164.33 62.8315 171.092 62.8315C177.852 62.8315 183.333 62.8754 183.333 62.9298Z" fill="#E0E0E0"/>
<path d="M172.927 55.7209C172.927 55.7753 167.446 55.8192 160.687 55.8192C153.925 55.8192 148.445 55.7749 148.445 55.7209C148.445 55.6664 153.925 55.6226 160.687 55.6226C167.446 55.6226 172.927 55.6668 172.927 55.7209Z" fill="#FAFAFA"/>
<path d="M189.838 70.1388C189.838 70.1933 184.358 70.2371 177.598 70.2371C170.836 70.2371 165.356 70.1929 165.356 70.1388C165.356 70.0848 170.836 70.0405 177.598 70.0405C184.358 70.0405 189.838 70.0844 189.838 70.1388Z" fill="#FAFAFA"/>
<path d="M186.463 59.3258C186.463 59.3803 177.952 59.4241 167.456 59.4241C156.956 59.4241 148.447 59.3799 148.447 59.3258C148.447 59.2714 156.956 59.2275 167.456 59.2275C177.952 59.2272 186.463 59.2714 186.463 59.3258Z" fill="black"/>
<path d="M119.603 48.5119C119.603 48.5663 117.616 48.6102 115.164 48.6102C112.712 48.6102 110.725 48.5659 110.725 48.5119C110.725 48.4574 112.712 48.4136 115.164 48.4136C117.616 48.4136 119.603 48.4578 119.603 48.5119Z" fill="#FAFAFA"/>
<path d="M119.603 91.7653C119.603 91.8197 117.616 91.8636 115.164 91.8636C112.712 91.8636 110.725 91.8194 110.725 91.7653C110.725 91.7109 112.712 91.667 115.164 91.667C117.616 91.667 119.603 91.7112 119.603 91.7653Z" fill="#FAFAFA"/>
<path d="M124.002 62.9298C124.002 62.9843 122.014 63.0281 119.563 63.0281C117.11 63.0281 115.123 62.9839 115.123 62.9298C115.123 62.8754 117.11 62.8315 119.563 62.8315C122.014 62.8315 124.002 62.8754 124.002 62.9298Z" fill="#FAFAFA"/>
<path d="M195.161 62.9298C195.161 62.9843 193.173 63.0281 190.722 63.0281C188.27 63.0281 186.282 62.9839 186.282 62.9298C186.282 62.8754 188.27 62.8315 190.722 62.8315C193.173 62.8315 195.161 62.8754 195.161 62.9298Z" fill="#3DB8DB"/>
<path d="M131.968 77.3263C131.968 77.3808 128.249 77.4246 123.662 77.4246C119.074 77.4246 115.355 77.3804 115.355 77.3263C115.355 77.2719 119.074 77.228 123.662 77.228C128.249 77.2277 131.968 77.2719 131.968 77.3263Z" fill="#3DB8DB"/>
<path d="M151.177 77.3263C151.177 77.3808 147.458 77.4246 142.871 77.4246C138.283 77.4246 134.564 77.3804 134.564 77.3263C134.564 77.2719 138.283 77.228 142.871 77.228C147.458 77.2277 151.177 77.2719 151.177 77.3263Z" fill="#E0E0E0"/>
<path d="M143.835 80.9308C143.835 80.9853 138.355 81.0291 131.595 81.0291C124.833 81.0291 119.354 80.9849 119.354 80.9308C119.354 80.8768 124.833 80.8325 131.595 80.8325C138.355 80.8325 143.835 80.8764 143.835 80.9308Z" fill="#E0E0E0"/>
<path d="M143.835 84.5353C143.835 84.5898 138.355 84.6336 131.595 84.6336C124.833 84.6336 119.354 84.5894 119.354 84.5353C119.354 84.4809 124.833 84.437 131.595 84.437C138.355 84.4366 143.835 84.4809 143.835 84.5353Z" fill="#E0E0E0"/>
<path d="M153.416 88.1398C153.416 88.1942 147.935 88.2381 141.175 88.2381C134.413 88.2381 128.934 88.1939 128.934 88.1398C128.934 88.0854 134.413 88.0415 141.175 88.0415C147.935 88.0415 153.416 88.0854 153.416 88.1398Z" fill="#E0E0E0"/>
<path d="M183.333 88.1398C183.333 88.1942 177.852 88.2381 171.092 88.2381C164.33 88.2381 158.851 88.1939 158.851 88.1398C158.851 88.0854 164.33 88.0415 171.092 88.0415C177.852 88.0415 183.333 88.0854 183.333 88.1398Z" fill="#E0E0E0"/>
<path d="M172.927 80.9308C172.927 80.9853 167.446 81.0291 160.687 81.0291C153.925 81.0291 148.445 80.9849 148.445 80.9308C148.445 80.8768 153.925 80.8325 160.687 80.8325C167.446 80.8325 172.927 80.8764 172.927 80.9308Z" fill="#FAFAFA"/>
<path d="M186.463 84.5353C186.463 84.5898 177.952 84.6336 167.456 84.6336C156.956 84.6336 148.447 84.5894 148.447 84.5353C148.447 84.4809 156.956 84.437 167.456 84.437C177.952 84.4366 186.463 84.4809 186.463 84.5353Z" fill="black"/>
<path d="M124.002 88.1398C124.002 88.1942 122.014 88.2381 119.563 88.2381C117.11 88.2381 115.123 88.1939 115.123 88.1398C115.123 88.0854 117.11 88.0415 119.563 88.0415C122.014 88.0415 124.002 88.0854 124.002 88.1398Z" fill="#FAFAFA"/>
<path d="M195.161 88.1398C195.161 88.1942 193.173 88.2381 190.722 88.2381C188.27 88.2381 186.282 88.1939 186.282 88.1398C186.282 88.0854 188.27 88.0415 190.722 88.0415C193.173 88.0415 195.161 88.0854 195.161 88.1398Z" fill="#3DB8DB"/>
<path d="M216.898 99.4891C216.828 99.5299 216.186 98.4663 214.89 96.6447C214.241 95.7347 213.425 94.6379 212.411 93.4208C211.392 92.2102 210.179 90.8706 208.691 89.5598C207.946 88.9076 207.135 88.2588 206.234 87.6804C205.335 87.111 204.339 86.582 203.26 86.3491C202.725 86.2346 202.171 86.2062 201.658 86.328C201.143 86.4421 200.695 86.7457 200.35 87.1613C200.001 87.5779 199.776 88.1257 199.63 88.7053C199.484 89.288 199.419 89.9107 199.404 90.5462C199.386 91.8211 199.556 93.1444 199.837 94.4741C200.121 95.805 200.51 97.1476 200.988 98.4886C201.934 101.174 203.213 103.854 204.726 106.478C206.254 109.095 207.948 111.538 209.812 113.696C210.741 114.778 211.715 115.786 212.732 116.696C213.749 117.603 214.816 118.411 215.935 119.034C216.495 119.338 217.07 119.594 217.65 119.76C218.228 119.923 218.817 120.004 219.355 119.911C219.889 119.822 220.377 119.587 220.734 119.2C221.097 118.819 221.349 118.328 221.517 117.809C221.853 116.763 221.89 115.64 221.844 114.581C221.792 113.515 221.632 112.492 221.437 111.524C221.039 109.587 220.48 107.872 219.936 106.388C219.384 104.907 218.837 103.655 218.369 102.641C217.432 100.613 216.827 99.5288 216.898 99.4891C216.927 99.472 217.109 99.725 217.429 100.224C217.743 100.725 218.192 101.476 218.715 102.472C219.239 103.468 219.843 104.708 220.452 106.19C221.053 107.674 221.669 109.4 222.121 111.378C222.344 112.368 222.53 113.42 222.607 114.537C222.673 115.651 222.665 116.843 222.299 118.055C222.113 118.656 221.823 119.266 221.35 119.778C220.885 120.298 220.201 120.645 219.498 120.765C218.788 120.892 218.076 120.794 217.411 120.615C216.742 120.431 216.108 120.154 215.499 119.831C214.287 119.171 213.166 118.332 212.104 117.399C211.043 116.462 210.035 115.431 209.078 114.327C207.157 112.123 205.425 109.637 203.869 106.971C202.328 104.298 201.031 101.564 200.073 98.807C199.591 97.4304 199.197 96.0474 198.913 94.6651C198.631 93.2832 198.461 91.8979 198.493 90.5243C198.516 89.8377 198.592 89.153 198.767 88.4853C198.943 87.8218 199.213 87.1597 199.679 86.6119C200.135 86.0656 200.779 85.6504 201.464 85.509C202.146 85.357 202.823 85.4119 203.438 85.5521C204.676 85.8425 205.717 86.4312 206.654 87.0456C207.588 87.6698 208.411 88.3568 209.16 89.0434C210.656 90.4226 211.85 91.8162 212.842 93.0756C213.827 94.3414 214.605 95.4817 215.21 96.4315C215.816 97.3805 216.244 98.1419 216.524 98.6637C216.798 99.1889 216.927 99.472 216.898 99.4891Z" fill="#3DB8DB"/>
<path d="M205.164 99.466C205.233 99.508 204.616 100.54 203.657 102.478C203.178 103.446 202.619 104.644 202.051 106.065C201.494 107.489 200.917 109.137 200.505 111.004C200.304 111.937 200.132 112.925 200.078 113.953C200.024 114.977 200.057 116.062 200.384 117.07C200.547 117.57 200.79 118.044 201.138 118.418C201.484 118.794 201.948 119.042 202.462 119.154C202.978 119.267 203.549 119.236 204.116 119.108C204.684 118.982 205.253 118.771 205.808 118.503C206.921 117.966 207.989 117.233 209.012 116.405C210.033 115.569 211.017 114.638 211.955 113.628C213.839 111.613 215.559 109.309 217.114 106.824C218.655 104.331 219.96 101.77 220.932 99.1934C221.423 97.9072 221.821 96.6149 222.118 95.3332C222.406 94.0515 222.589 92.7743 222.575 91.5437C222.569 90.9293 222.504 90.3281 222.364 89.7659C222.226 89.2041 221.999 88.6823 221.667 88.2736C221.337 87.8653 220.907 87.5628 220.414 87.4233C219.922 87.2808 219.387 87.2751 218.865 87.3534C217.812 87.5125 216.821 87.9681 215.925 88.4725C215.024 88.9799 214.212 89.5735 213.463 90.1693C211.967 91.369 210.742 92.6186 209.711 93.7498C208.686 94.8893 207.859 95.9219 207.201 96.7801C205.885 98.4989 205.233 99.5087 205.164 99.466C205.135 99.4483 205.267 99.1776 205.547 98.677C205.833 98.1802 206.27 97.4558 206.887 96.5567C207.503 95.6568 208.293 94.5789 209.293 93.3891C210.299 92.2068 211.507 90.9017 213.018 89.6328C213.775 89.0022 214.6 88.3704 215.54 87.8169C216.478 87.2687 217.52 86.7545 218.737 86.5477C219.342 86.4482 219.999 86.4365 220.649 86.6153C221.301 86.7885 221.906 87.1972 222.343 87.7295C222.785 88.2626 223.06 88.9001 223.228 89.5459C223.397 90.1943 223.472 90.8597 223.486 91.5259C223.514 92.8602 223.33 94.2016 223.04 95.5377C222.741 96.8728 222.337 98.2074 221.84 99.5311C220.854 102.182 219.527 104.799 217.955 107.343C216.369 109.877 214.608 112.226 212.663 114.286C211.695 115.319 210.675 116.273 209.607 117.135C208.535 117.989 207.411 118.752 206.198 119.322C205.593 119.607 204.961 119.837 204.302 119.976C203.647 120.115 202.951 120.154 202.274 119.999C201.601 119.848 200.963 119.491 200.516 118.989C200.065 118.489 199.782 117.899 199.601 117.317C199.245 116.141 199.242 114.983 199.316 113.903C199.394 112.82 199.594 111.803 199.824 110.847C200.292 108.937 200.926 107.278 201.54 105.855C202.165 104.434 202.781 103.248 203.316 102.299C203.849 101.348 204.306 100.635 204.625 100.159C204.951 99.6868 205.135 99.4483 205.164 99.466Z" fill="#3DB8DB"/>
<path d="M210.281 95.1158C210.282 95.1964 209.075 95.2172 206.914 95.4255C205.834 95.5302 204.516 95.6871 203.003 95.9548C201.493 96.2323 199.781 96.6112 197.968 97.246C197.065 97.5662 196.13 97.9405 195.223 98.4362C194.32 98.9292 193.409 99.5281 192.719 100.335C192.378 100.736 192.101 101.192 191.964 101.682C191.824 102.173 191.856 102.696 192.032 103.19C192.207 103.686 192.533 104.152 192.941 104.565C193.347 104.979 193.827 105.35 194.349 105.678C195.393 106.338 196.581 106.855 197.827 107.285C199.079 107.708 200.392 108.051 201.75 108.313C204.463 108.847 207.338 109.09 210.278 109.098C213.22 109.091 216.096 108.847 218.81 108.314C220.167 108.052 221.481 107.709 222.733 107.285C223.98 106.855 225.169 106.338 226.212 105.678C226.734 105.349 227.214 104.979 227.621 104.565C228.029 104.152 228.355 103.686 228.53 103.189C228.705 102.695 228.737 102.172 228.597 101.682C228.46 101.191 228.183 100.736 227.842 100.335C227.151 99.5277 226.241 98.9288 225.338 98.4358C224.43 97.9401 223.496 97.5658 222.593 97.246C220.78 96.6112 219.068 96.2327 217.558 95.9552C216.045 95.6875 214.727 95.531 213.647 95.4259C211.487 95.2172 210.28 95.1964 210.281 95.1158C210.281 95.0818 210.582 95.0516 211.157 95.0251C211.732 95.0054 212.582 94.9941 213.675 95.0432C214.767 95.0901 216.105 95.1922 217.647 95.4115C219.188 95.641 220.939 95.9767 222.818 96.5862C223.755 96.8947 224.729 97.2607 225.697 97.7643C226.659 98.2694 227.647 98.8812 228.464 99.8018C228.868 100.261 229.223 100.811 229.413 101.456C229.608 102.098 229.577 102.825 229.352 103.475C229.129 104.129 228.729 104.697 228.265 105.179C227.8 105.663 227.27 106.077 226.708 106.439C225.583 107.165 224.339 107.715 223.044 108.173C221.746 108.623 220.393 108.983 219 109.259C216.215 109.82 213.28 110.075 210.279 110.082C207.278 110.074 204.344 109.82 201.56 109.259C200.168 108.983 198.815 108.622 197.517 108.173C196.222 107.715 194.979 107.165 193.854 106.439C193.292 106.078 192.762 105.664 192.298 105.179C191.834 104.698 191.434 104.129 191.211 103.475C190.985 102.826 190.955 102.099 191.149 101.456C191.338 100.812 191.694 100.262 192.097 99.8026C192.914 98.8819 193.903 98.2702 194.865 97.7651C195.832 97.2611 196.806 96.8951 197.743 96.5866C199.623 95.9767 201.374 95.641 202.914 95.4115C204.457 95.1922 205.795 95.0897 206.888 95.0432C207.981 94.9941 208.83 95.0054 209.405 95.0251C209.98 95.0516 210.281 95.0818 210.281 95.1158Z" fill="#3DB8DB"/>
<path d="M214.362 103.709C214.644 101.983 213.467 100.356 211.732 100.075C209.997 99.794 208.362 100.966 208.079 102.692C207.797 104.418 208.975 106.045 210.71 106.325C212.444 106.606 214.08 105.435 214.362 103.709Z" fill="#3DB8DB"/>
<path d="M155.753 148.364H48.2865C45.2294 148.364 42.751 145.898 42.751 142.856V73.3031C42.751 71.6845 44.0696 70.3726 45.6964 70.3726H158.728C160.142 70.3726 161.289 71.5136 161.289 72.9208V142.856C161.289 145.898 158.811 148.364 155.753 148.364Z" fill="black"/>
<path d="M161.007 149.42H43.009C40.1293 149.42 37.7949 147.097 37.7949 144.232V142.596H166.222V144.232C166.222 147.097 163.887 149.42 161.007 149.42Z" fill="black"/>
<path d="M157.777 73.4717H45.9336V139.334H157.777V73.4717Z" fill="#E0E0E0"/>
<path d="M90.3359 142.596L91.9293 145.118H114.354L115.834 142.596H90.3359Z" fill="black"/>
<path d="M161.309 142.573H42.7705V142.949H161.309V142.573Z" fill="black"/>
<path d="M154.729 77.2871H49.2529V139.334H154.729V77.2871Z" fill="black"/>
<path d="M57.3449 137.513C57.2902 137.513 57.2461 124.298 57.2461 108.001C57.2461 91.698 57.2906 78.4858 57.3449 78.4858C57.3996 78.4858 57.4437 91.698 57.4437 108.001C57.4441 124.298 57.3996 137.513 57.3449 137.513Z" fill="#E0E0E0"/>
<path d="M55.2179 83.8361C55.2179 83.8905 54.4507 83.9344 53.5045 83.9344C52.5579 83.9344 51.791 83.8905 51.791 83.8361C51.791 83.7816 52.5579 83.7378 53.5045 83.7378C54.4511 83.7378 55.2179 83.7816 55.2179 83.8361Z" fill="#E0E0E0"/>
<path d="M55.3498 80.4865C55.3498 80.5409 54.5825 80.5848 53.6363 80.5848C52.6897 80.5848 51.9229 80.5405 51.9229 80.4865C51.9229 80.432 52.6897 80.3882 53.6363 80.3882C54.5825 80.3882 55.3498 80.4324 55.3498 80.4865Z" fill="#E0E0E0"/>
<path d="M55.2179 87.4465C55.2179 87.5009 54.4507 87.5448 53.5045 87.5448C52.5579 87.5448 51.791 87.5005 51.791 87.4465C51.791 87.3924 52.5579 87.3481 53.5045 87.3481C54.4511 87.3481 55.2179 87.392 55.2179 87.4465Z" fill="#E0E0E0"/>
<path d="M55.2179 91.0568C55.2179 91.1112 54.4507 91.1551 53.5045 91.1551C52.5579 91.1551 51.791 91.1109 51.791 91.0568C51.791 91.0023 52.5579 90.9585 53.5045 90.9585C54.4511 90.9581 55.2179 91.0023 55.2179 91.0568Z" fill="#E0E0E0"/>
<path d="M55.2179 94.6667C55.2179 94.7211 54.4507 94.765 53.5045 94.765C52.5579 94.765 51.791 94.7211 51.791 94.6667C51.791 94.6122 52.5579 94.5684 53.5045 94.5684C54.4511 94.5684 55.2179 94.6126 55.2179 94.6667Z" fill="#E0E0E0"/>
<path d="M55.2179 98.277C55.2179 98.3315 54.4507 98.3753 53.5045 98.3753C52.5579 98.3753 51.791 98.3311 51.791 98.277C51.791 98.2226 52.5579 98.1787 53.5045 98.1787C54.4511 98.1787 55.2179 98.2226 55.2179 98.277Z" fill="#E0E0E0"/>
<path d="M55.2179 101.887C55.2179 101.942 54.4507 101.986 53.5045 101.986C52.5579 101.986 51.791 101.942 51.791 101.887C51.791 101.833 52.5579 101.789 53.5045 101.789C54.4511 101.789 55.2179 101.833 55.2179 101.887Z" fill="#E0E0E0"/>
<path d="M55.2179 105.498C55.2179 105.552 54.4507 105.596 53.5045 105.596C52.5579 105.596 51.791 105.552 51.791 105.498C51.791 105.444 52.5579 105.399 53.5045 105.399C54.4511 105.399 55.2179 105.443 55.2179 105.498Z" fill="#E0E0E0"/>
<path d="M55.2179 109.108C55.2179 109.162 54.4507 109.206 53.5045 109.206C52.5579 109.206 51.791 109.162 51.791 109.108C51.791 109.053 52.5579 109.009 53.5045 109.009C54.4511 109.009 55.2179 109.054 55.2179 109.108Z" fill="#E0E0E0"/>
<path d="M55.2179 112.718C55.2179 112.772 54.4507 112.816 53.5045 112.816C52.5579 112.816 51.791 112.772 51.791 112.718C51.791 112.663 52.5579 112.62 53.5045 112.62C54.4511 112.62 55.2179 112.664 55.2179 112.718Z" fill="#E0E0E0"/>
<path d="M55.2179 116.328C55.2179 116.383 54.4507 116.427 53.5045 116.427C52.5579 116.427 51.791 116.382 51.791 116.328C51.791 116.274 52.5579 116.23 53.5045 116.23C54.4511 116.23 55.2179 116.274 55.2179 116.328Z" fill="#E0E0E0"/>
<path d="M55.2179 119.938C55.2179 119.993 54.4507 120.036 53.5045 120.036C52.5579 120.036 51.791 119.992 51.791 119.938C51.791 119.884 52.5579 119.84 53.5045 119.84C54.4511 119.839 55.2179 119.884 55.2179 119.938Z" fill="#E0E0E0"/>
<path d="M55.2179 123.549C55.2179 123.603 54.4507 123.647 53.5045 123.647C52.5579 123.647 51.791 123.603 51.791 123.549C51.791 123.494 52.5579 123.45 53.5045 123.45C54.4511 123.45 55.2179 123.494 55.2179 123.549Z" fill="#E0E0E0"/>
<path d="M55.2179 127.159C55.2179 127.213 54.4507 127.257 53.5045 127.257C52.5579 127.257 51.791 127.213 51.791 127.159C51.791 127.104 52.5579 127.061 53.5045 127.061C54.4511 127.061 55.2179 127.104 55.2179 127.159Z" fill="#E0E0E0"/>
<path d="M55.2179 130.769C55.2179 130.824 54.4507 130.868 53.5045 130.868C52.5579 130.868 51.791 130.823 51.791 130.769C51.791 130.715 52.5579 130.671 53.5045 130.671C54.4511 130.671 55.2179 130.715 55.2179 130.769Z" fill="#E0E0E0"/>
<path d="M55.2179 134.38C55.2179 134.434 54.4507 134.478 53.5045 134.478C52.5579 134.478 51.791 134.434 51.791 134.38C51.791 134.325 52.5579 134.281 53.5045 134.281C54.4511 134.281 55.2179 134.325 55.2179 134.38Z" fill="#E0E0E0"/>
<path d="M68.9529 83.6232C68.9529 83.6777 66.962 83.7215 64.5064 83.7215C62.05 83.7215 60.0596 83.6773 60.0596 83.6232C60.0596 83.5691 62.05 83.5249 64.5064 83.5249C66.9616 83.5249 68.9529 83.5688 68.9529 83.6232Z" fill="#3DB8DB"/>
<path d="M68.9529 134.38C68.9529 134.434 66.962 134.478 64.5064 134.478C62.05 134.478 60.0596 134.434 60.0596 134.38C60.0596 134.325 62.05 134.281 64.5064 134.281C66.9616 134.281 68.9529 134.325 68.9529 134.38Z" fill="#3DB8DB"/>
<path d="M81.3372 91.0568C81.3372 91.1112 77.6124 91.1551 73.0181 91.1551C68.4223 91.1551 64.6982 91.1109 64.6982 91.0568C64.6982 91.0023 68.4223 90.9585 73.0181 90.9585C77.6124 90.9581 81.3372 91.0023 81.3372 91.0568Z" fill="#3DB8DB"/>
<path d="M100.576 91.0568C100.576 91.1112 96.8513 91.1551 92.2574 91.1551C87.6619 91.1551 83.9375 91.1109 83.9375 91.0568C83.9375 91.0023 87.6616 90.9585 92.2574 90.9585C96.8513 90.9581 100.576 91.0023 100.576 91.0568Z" fill="#E0E0E0"/>
<path d="M93.2242 94.6667C93.2242 94.7211 87.7346 94.765 80.9644 94.765C74.1916 94.765 68.7031 94.7211 68.7031 94.6667C68.7031 94.6122 74.1916 94.5684 80.9644 94.5684C87.7343 94.5684 93.2242 94.6126 93.2242 94.6667Z" fill="#E0E0E0"/>
<path d="M93.2242 98.277C93.2242 98.3315 87.7346 98.3753 80.9644 98.3753C74.1916 98.3753 68.7031 98.3311 68.7031 98.277C68.7031 98.2226 74.1916 98.1787 80.9644 98.1787C87.7343 98.1787 93.2242 98.2226 93.2242 98.277Z" fill="#E0E0E0"/>
<path d="M110.102 109.108C110.102 109.162 104.613 109.206 97.8424 109.206C91.0699 109.206 85.5811 109.162 85.5811 109.108C85.5811 109.053 91.0695 109.009 97.8424 109.009C104.613 109.009 110.102 109.054 110.102 109.108Z" fill="#E0E0E0"/>
<path d="M102.818 101.887C102.818 101.941 97.3284 101.985 90.5582 101.985C83.7857 101.985 78.2969 101.941 78.2969 101.887C78.2969 101.832 83.7853 101.789 90.5582 101.789C97.3284 101.789 102.818 101.832 102.818 101.887Z" fill="#E0E0E0"/>
<path d="M132.784 101.887C132.784 101.941 127.295 101.985 120.524 101.985C113.752 101.985 108.263 101.941 108.263 101.887C108.263 101.832 113.751 101.789 120.524 101.789C127.295 101.789 132.784 101.832 132.784 101.887Z" fill="#E0E0E0"/>
<path d="M122.363 94.6667C122.363 94.7211 116.873 94.765 110.103 94.765C103.331 94.765 97.8418 94.7211 97.8418 94.6667C97.8418 94.6122 103.33 94.5684 110.103 94.5684C116.873 94.5684 122.363 94.6126 122.363 94.6667Z" fill="#FAFAFA"/>
<path d="M139.301 109.108C139.301 109.162 133.812 109.206 127.042 109.206C120.269 109.206 114.78 109.162 114.78 109.108C114.78 109.053 120.269 109.009 127.042 109.009C133.812 109.009 139.301 109.054 139.301 109.108Z" fill="#FAFAFA"/>
<path d="M135.919 98.277C135.919 98.3315 127.395 98.3753 116.881 98.3753C106.365 98.3753 97.8418 98.3311 97.8418 98.277C97.8418 98.2226 106.365 98.1787 116.881 98.1787C127.395 98.1787 135.919 98.2226 135.919 98.277Z" fill="black"/>
<path d="M68.9529 87.4465C68.9529 87.5009 66.962 87.5448 64.5064 87.5448C62.05 87.5448 60.0596 87.5005 60.0596 87.4465C60.0596 87.3924 62.05 87.3481 64.5064 87.3481C66.9616 87.3481 68.9529 87.392 68.9529 87.4465Z" fill="#FAFAFA"/>
<path d="M68.9529 130.769C68.9529 130.824 66.962 130.868 64.5064 130.868C62.05 130.868 60.0596 130.823 60.0596 130.769C60.0596 130.715 62.05 130.671 64.5064 130.671C66.9616 130.671 68.9529 130.715 68.9529 130.769Z" fill="#FAFAFA"/>
<path d="M73.3582 101.887C73.3582 101.942 71.3673 101.986 68.9117 101.986C66.4553 101.986 64.4648 101.942 64.4648 101.887C64.4648 101.833 66.4553 101.789 68.9117 101.789C71.3673 101.789 73.3582 101.833 73.3582 101.887Z" fill="#FAFAFA"/>
<path d="M144.632 101.887C144.632 101.941 142.641 101.985 140.185 101.985C137.729 101.985 135.738 101.941 135.738 101.887C135.738 101.832 137.729 101.789 140.185 101.789C142.64 101.789 144.632 101.832 144.632 101.887Z" fill="#3DB8DB"/>
<path d="M81.3372 116.307C81.3372 116.361 77.6124 116.405 73.0181 116.405C68.4223 116.405 64.6982 116.361 64.6982 116.307C64.6982 116.253 68.4223 116.208 73.0181 116.208C77.6124 116.208 81.3372 116.252 81.3372 116.307Z" fill="#3DB8DB"/>
<path d="M100.576 116.307C100.576 116.361 96.8513 116.405 92.2574 116.405C87.6619 116.405 83.9375 116.361 83.9375 116.307C83.9375 116.253 87.6616 116.208 92.2574 116.208C96.8513 116.208 100.576 116.252 100.576 116.307Z" fill="#E0E0E0"/>
<path d="M93.2242 119.917C93.2242 119.972 87.7346 120.015 80.9644 120.015C74.1916 120.015 68.7031 119.971 68.7031 119.917C68.7031 119.863 74.1916 119.819 80.9644 119.819C87.7343 119.818 93.2242 119.863 93.2242 119.917Z" fill="#E0E0E0"/>
<path d="M93.2242 123.528C93.2242 123.582 87.7346 123.626 80.9644 123.626C74.1916 123.626 68.7031 123.582 68.7031 123.528C68.7031 123.473 74.1916 123.429 80.9644 123.429C87.7343 123.429 93.2242 123.473 93.2242 123.528Z" fill="#E0E0E0"/>
<path d="M102.818 127.137C102.818 127.192 97.3284 127.236 90.5582 127.236C83.7857 127.236 78.2969 127.192 78.2969 127.137C78.2969 127.083 83.7853 127.039 90.5582 127.039C97.3284 127.039 102.818 127.083 102.818 127.137Z" fill="#E0E0E0"/>
<path d="M132.784 127.137C132.784 127.192 127.295 127.236 120.524 127.236C113.752 127.236 108.263 127.192 108.263 127.137C108.263 127.083 113.751 127.039 120.524 127.039C127.295 127.039 132.784 127.083 132.784 127.137Z" fill="#E0E0E0"/>
<path d="M122.363 119.917C122.363 119.972 116.873 120.015 110.103 120.015C103.331 120.015 97.8418 119.971 97.8418 119.917C97.8418 119.863 103.33 119.819 110.103 119.819C116.873 119.818 122.363 119.863 122.363 119.917Z" fill="#FAFAFA"/>
<path d="M135.919 123.528C135.919 123.582 127.395 123.626 116.881 123.626C106.365 123.626 97.8418 123.582 97.8418 123.528C97.8418 123.473 106.365 123.429 116.881 123.429C127.395 123.429 135.919 123.473 135.919 123.528Z" fill="black"/>
<path d="M73.3582 127.137C73.3582 127.192 71.3673 127.236 68.9117 127.236C66.4553 127.236 64.4648 127.192 64.4648 127.137C64.4648 127.083 66.4553 127.039 68.9117 127.039C71.3673 127.039 73.3582 127.083 73.3582 127.137Z" fill="#FAFAFA"/>
<path d="M144.632 127.137C144.632 127.192 142.641 127.236 140.185 127.236C137.729 127.236 135.738 127.192 135.738 127.137C135.738 127.083 137.729 127.039 140.185 127.039C142.64 127.039 144.632 127.083 144.632 127.137Z" fill="#3DB8DB"/>
<path d="M184.988 128.085L186.503 132.807C187.085 134.758 188.729 136.223 190.761 136.603L200.892 138.495L203.648 138.407L200.892 135.012L193.276 132.429C192.528 132.265 191.936 131.705 191.739 130.978L188.708 124.416L184.867 126.759L184.988 128.085Z" fill="#FFBE9D"/>
<path d="M177.73 96.3677C177.813 95.6463 177.554 94.898 177.16 94.2746C176.775 93.6651 176.21 93.1063 175.495 92.9951C174.683 92.8689 173.846 93.4005 173.523 94.1525C173.2 94.9045 173.357 95.8115 173.827 96.4826C174.07 96.8301 174.389 97.1159 174.749 97.3412C173.7 98.0327 172.865 99.0471 172.453 100.231C172.314 100.632 172.219 101.05 172.043 101.437C171.866 101.823 171.592 102.187 171.203 102.361C170.917 102.488 170.592 102.503 170.298 102.611C169.8 102.794 169.423 103.249 169.297 103.762C169.171 104.275 169.285 104.833 169.567 105.28C169.709 105.504 169.897 105.721 169.909 105.985C169.917 106.164 169.842 106.334 169.8 106.508C169.658 107.099 169.94 107.767 170.465 108.077C170.99 108.388 171.714 108.317 172.169 107.911C172.359 108.348 172.613 108.798 173.045 109.003C173.476 109.208 174.114 109.024 174.204 108.556C174.418 109.005 174.955 109.275 175.446 109.183C175.937 109.09 176.337 108.642 176.371 108.146L184.541 99.257C183.322 96.0051 178.553 96.2928 177.73 96.3677Z" fill="#3DB8DB"/>
<path d="M176.346 99.4596C175.82 99.5148 175.424 99.9613 175.435 100.488L176.012 114.175C176.034 115.791 178.982 117.702 180.721 117.666C182.478 117.629 181.961 115.774 181.986 114.237C182.029 111.668 182.028 110.703 182.029 110.718C182.029 110.718 184.249 110.351 184.708 107.47C184.937 106.037 184.865 103.688 184.743 101.767C184.634 100.039 183.483 97.9181 181.752 98.1003L176.346 99.4596Z" fill="#FFBE9D"/>
<path d="M183.991 103.632C183.998 103.827 183.838 103.994 183.633 104.005C183.429 104.016 183.257 103.867 183.25 103.672C183.243 103.477 183.404 103.31 183.608 103.299C183.813 103.288 183.984 103.437 183.991 103.632Z" fill="black"/>
<path d="M184.231 102.989C184.185 103.038 183.904 102.83 183.504 102.831C183.105 102.827 182.812 103.031 182.769 102.982C182.747 102.961 182.794 102.874 182.922 102.781C183.048 102.689 183.262 102.6 183.511 102.601C183.76 102.602 183.969 102.693 184.09 102.787C184.213 102.881 184.254 102.968 184.231 102.989Z" fill="black"/>
<path d="M180.083 103.632C180.089 103.827 179.929 103.994 179.725 104.005C179.52 104.016 179.349 103.867 179.342 103.672C179.335 103.477 179.496 103.31 179.7 103.299C179.904 103.288 180.076 103.437 180.083 103.632Z" fill="black"/>
<path d="M180.302 103.064C180.256 103.112 179.974 102.905 179.575 102.906C179.176 102.901 178.882 103.106 178.839 103.057C178.818 103.036 178.864 102.949 178.992 102.856C179.118 102.764 179.333 102.674 179.581 102.675C179.83 102.677 180.04 102.768 180.16 102.861C180.283 102.955 180.325 103.042 180.302 103.064Z" fill="black"/>
<path d="M181.753 106.013C181.752 105.99 182 105.947 182.403 105.896C182.504 105.886 182.601 105.866 182.618 105.796C182.642 105.723 182.6 105.613 182.55 105.495C182.454 105.25 182.354 104.992 182.249 104.722C181.83 103.622 181.526 102.717 181.571 102.7C181.616 102.684 181.991 103.562 182.411 104.663C182.511 104.935 182.608 105.193 182.7 105.441C182.738 105.556 182.805 105.687 182.753 105.84C182.725 105.916 182.65 105.97 182.585 105.988C182.519 106.008 182.462 106.009 182.411 106.012C182.006 106.033 181.755 106.035 181.753 106.013Z" fill="black"/>
<path d="M182.028 110.718C182.028 110.718 180.079 110.843 178.149 109.689C178.149 109.689 179.09 111.668 181.989 111.399L182.028 110.718Z" fill="#EB996E"/>
<path d="M181.583 106.971C181.439 106.782 181.187 106.678 180.937 106.705C180.764 106.723 180.588 106.807 180.483 106.947C180.378 107.088 180.356 107.287 180.452 107.421C180.559 107.572 180.785 107.607 180.976 107.553C181.166 107.499 181.331 107.374 181.486 107.25C181.53 107.216 181.573 107.18 181.6 107.132C181.627 107.085 181.633 107.024 181.6 106.985" fill="#EB996E"/>
<path d="M180.577 106.288C180.642 106.284 180.642 106.716 181.014 107.022C181.384 107.329 181.847 107.281 181.85 107.341C181.856 107.368 181.747 107.425 181.552 107.43C181.36 107.437 181.081 107.375 180.854 107.188C180.627 107 180.53 106.75 180.515 106.573C180.498 106.392 180.547 106.285 180.577 106.288Z" fill="black"/>
<path d="M180.482 102.368C180.443 102.476 180.044 102.424 179.575 102.481C179.105 102.528 178.727 102.664 178.664 102.567C178.637 102.521 178.702 102.419 178.856 102.314C179.007 102.21 179.249 102.111 179.53 102.079C179.812 102.049 180.07 102.093 180.24 102.162C180.413 102.232 180.499 102.316 180.482 102.368Z" fill="#3DB8DB"/>
<path d="M184.083 101.839C184.013 101.929 183.737 101.835 183.406 101.831C183.075 101.815 182.795 101.891 182.73 101.797C182.701 101.751 182.746 101.661 182.868 101.575C182.989 101.49 183.191 101.42 183.419 101.427C183.646 101.434 183.843 101.516 183.958 101.609C184.075 101.701 184.114 101.794 184.083 101.839Z" fill="#3DB8DB"/>
<path d="M175.756 104.068C175.536 103.917 175.229 103.973 174.999 104.106C174.467 104.412 174.202 105.112 174.399 105.691C174.597 106.27 175.235 106.666 175.845 106.587" fill="#FFBE9D"/>
<path d="M180.308 97.1403C181.363 97.1751 182.164 97.4946 183.09 97.9989C184.017 98.5033 184.791 99.3355 185.077 100.347C185.137 100.562 185.172 100.806 185.054 100.996C184.897 101.246 184.529 101.288 184.259 101.166C183.99 101.045 183.796 100.805 183.613 100.574C183.477 101.102 182.949 101.504 182.401 101.498C181.852 101.492 181.334 101.079 181.209 100.547C181.205 101.1 180.649 101.558 180.093 101.538C179.537 101.518 179.045 101.091 178.86 100.57C178.757 101.061 178.647 101.57 178.351 101.976C178.055 102.384 177.52 102.663 177.04 102.508C177.108 102.937 177.174 103.389 177.021 103.796C176.868 104.204 176.413 104.533 176 104.392C175.599 104.255 175.443 103.782 175.349 103.37C175.168 102.577 175.013 101.769 175.039 100.956C175.064 100.142 175.283 99.315 175.784 98.6719C176.303 98.0069 177.089 97.5849 177.907 97.3698C178.725 97.155 179.581 97.1308 180.427 97.1418" fill="#3DB8DB"/>
<path d="M175.554 105.727C175.545 105.707 175.441 105.752 175.301 105.688C175.164 105.634 175.038 105.431 175.053 105.196C175.061 104.957 175.216 104.786 175.362 104.734C175.506 104.675 175.613 104.703 175.619 104.681C175.63 104.667 175.521 104.59 175.33 104.633C175.238 104.654 175.13 104.709 175.047 104.809C174.964 104.907 174.91 105.043 174.903 105.188C174.882 105.478 175.065 105.742 175.266 105.787C175.462 105.839 175.569 105.739 175.554 105.727Z" fill="#EB996E"/>
<path d="M176.844 96.9466C176.812 96.9534 176.754 96.6955 176.573 96.3193C176.396 95.945 176.073 95.4546 175.575 95.0641C175.077 94.6735 174.522 94.4747 174.115 94.39C173.706 94.303 173.44 94.3064 173.439 94.2743C173.437 94.2523 173.705 94.1979 174.139 94.2527C174.569 94.3045 175.167 94.4932 175.697 94.9094C176.228 95.3253 176.551 95.8603 176.702 96.2645C176.856 96.6717 176.866 96.9439 176.844 96.9466Z" fill="#E0E0E0"/>
<path d="M170.186 107.891C170.184 107.895 170.138 107.873 170.084 107.796C170.031 107.721 169.983 107.579 170.015 107.403C170.04 107.225 170.168 107.024 170.372 106.88C170.572 106.729 170.837 106.631 171.091 106.486C171.349 106.349 171.573 106.108 171.591 105.774C171.613 105.442 171.484 105.083 171.395 104.69C171.351 104.493 171.314 104.281 171.334 104.056C171.353 103.833 171.445 103.601 171.606 103.427C171.929 103.075 172.393 102.922 172.828 102.787C173.259 102.651 173.69 102.49 173.921 102.16C174.157 101.833 174.144 101.406 174.103 101.022C174.058 100.633 173.993 100.247 174.025 99.8819C174.05 99.5182 174.147 99.1896 174.266 98.9068C174.511 98.3397 174.859 97.9635 175.123 97.7495C175.254 97.6398 175.366 97.5676 175.444 97.5241C175.523 97.4803 175.566 97.4606 175.569 97.4663C175.579 97.4814 175.417 97.579 175.174 97.8066C174.932 98.0323 174.614 98.4096 174.396 98.959C174.29 99.2331 174.205 99.548 174.189 99.8921C174.165 100.235 174.232 100.601 174.283 101.001C174.329 101.39 174.36 101.871 174.079 102.271C173.799 102.669 173.322 102.835 172.889 102.974C172.452 103.107 172.024 103.257 171.75 103.554C171.469 103.851 171.486 104.276 171.573 104.651C171.652 105.032 171.785 105.403 171.754 105.786C171.739 105.977 171.661 106.157 171.552 106.298C171.438 106.439 171.295 106.532 171.159 106.606C170.884 106.752 170.626 106.837 170.435 106.969C170.241 107.095 170.124 107.26 170.09 107.417C170.014 107.745 170.207 107.886 170.186 107.891Z" fill="#E0E0E0"/>
<path d="M180.509 100.455C180.476 100.458 180.451 100.15 180.298 99.6878C180.149 99.2277 179.845 98.6118 179.32 98.0904C178.794 97.569 178.174 97.2677 177.711 97.1206C177.246 96.9702 176.937 96.946 176.94 96.9131C176.94 96.8919 177.257 96.8658 177.75 96.9868C178.24 97.104 178.905 97.4 179.46 97.9509C180.014 98.5014 180.314 99.1623 180.433 99.6489C180.555 100.14 180.53 100.455 180.509 100.455Z" fill="#E0E0E0"/>
<path d="M182.843 99.1922C182.807 99.205 182.717 98.808 182.34 98.3014C181.973 97.7963 181.276 97.2152 180.356 96.9274C179.434 96.6412 178.536 96.6688 177.905 96.7331C177.27 96.7996 176.881 96.8889 176.873 96.8579C176.867 96.8363 177.245 96.6983 177.887 96.5951C178.523 96.4945 179.45 96.4408 180.415 96.7399C181.381 97.0416 182.102 97.673 182.455 98.2216C182.635 98.4953 182.74 98.7407 182.791 98.915C182.843 99.0893 182.855 99.1895 182.843 99.1922Z" fill="#E0E0E0"/>
<path d="M177.789 96.2237C177.808 96.2369 177.717 96.4143 177.493 96.6434C177.272 96.8725 176.903 97.1379 176.439 97.3039C175.974 97.468 175.52 97.4941 175.202 97.4563C174.883 97.4196 174.7 97.3394 174.706 97.3175C174.713 97.257 175.49 97.4415 176.373 97.1183C177.261 96.8135 177.745 96.1814 177.789 96.2237Z" fill="black"/>
<path d="M179.823 149.449C172.864 147.157 177.636 138 177.636 138L208.046 140.846C210.487 140.83 212.475 142.794 212.475 145.223C212.475 147.641 210.505 149.601 208.076 149.601L179.823 149.449Z" fill="black"/>
<path d="M172.703 149.44C165.923 147.163 170.595 137.998 170.595 137.998L200.241 140.778C203.137 140.816 204.551 142.206 204.551 145.146C204.546 147.563 203.648 149.601 200.251 149.532L172.703 149.44Z" fill="black"/>
<path d="M179.586 139.545C179.586 139.542 179.615 139.541 179.67 139.542C179.735 139.543 179.816 139.545 179.917 139.548C180.145 139.557 180.463 139.57 180.866 139.586C181.701 139.627 182.89 139.686 184.354 139.758C187.308 139.919 191.371 140.141 195.859 140.386C196.42 140.412 196.976 140.461 197.522 140.469C198.071 140.477 198.611 140.5 199.141 140.532C199.672 140.564 200.193 140.603 200.702 140.658C201.206 140.717 201.719 140.771 202.184 140.961C202.649 141.14 203.074 141.405 203.417 141.746C203.761 142.088 204.007 142.51 204.165 142.94C204.326 143.372 204.413 143.81 204.47 144.231C204.525 144.652 204.554 145.06 204.551 145.45C204.548 146.23 204.411 146.94 204.16 147.504C203.911 148.071 203.564 148.484 203.238 148.754C202.91 149.025 202.607 149.161 202.399 149.225C202.189 149.291 202.185 149.27 202.389 149.195C202.592 149.121 202.885 148.979 203.201 148.706C203.515 148.434 203.847 148.024 204.083 147.467C204.321 146.912 204.448 146.217 204.444 145.45C204.443 145.065 204.411 144.663 204.354 144.248C204.295 143.833 204.206 143.405 204.049 142.988C203.892 142.572 203.656 142.172 203.326 141.848C202.997 141.523 202.587 141.27 202.137 141.098C201.688 140.916 201.194 140.866 200.688 140.809C200.182 140.756 199.662 140.718 199.134 140.687C198.605 140.657 198.066 140.635 197.52 140.627C196.97 140.62 196.417 140.571 195.854 140.545C191.367 140.282 187.304 140.044 184.35 139.871C182.886 139.777 181.698 139.701 180.864 139.648C180.461 139.619 180.144 139.596 179.916 139.579C179.815 139.57 179.734 139.563 179.67 139.557C179.614 139.552 179.586 139.548 179.586 139.545Z" fill="black"/>
<path d="M190.126 140.142L187.688 138.951L185.991 133.323L185.829 126.154L189.271 124.709L186.54 117.884C186.042 116.876 185.038 114.205 182.451 113.324C182.436 112.829 182.449 112.343 182.539 112.194C182.744 111.858 176.238 111.658 175.868 111.791C175.525 111.916 175.927 113.107 175.886 113.308C173.574 113.942 171.324 114.889 170.482 118.055C170.154 119.289 170.262 121.89 170.44 123.144L172.248 132.646L171.234 135.764C171.233 135.765 167.681 143.129 169.027 146.008C170.374 148.887 172.665 149.533 172.665 149.533L190.367 149.499L190.126 140.142Z" fill="#3DB8DB"/>
<g opacity="0.3">
<path d="M172.362 128.873C172.674 130.179 173.153 132.122 173.662 133.366C174.037 134.282 174.45 135.199 175.084 135.96C175.948 136.997 177.186 137.687 178.495 138.031C179.804 138.374 181.183 138.388 182.527 138.228L175.827 134.462L174.045 128.301L172.362 128.873Z" fill="black"/>
</g>
<path d="M185.986 133.126C185.975 133.127 185.959 132.945 185.939 132.618C185.922 132.261 185.899 131.793 185.871 131.228C185.82 130.055 185.762 128.434 185.707 126.643C185.653 124.851 185.613 123.229 185.592 122.055C185.585 121.489 185.579 121.021 185.575 120.664C185.575 120.335 185.58 120.154 185.592 120.153C185.603 120.152 185.619 120.333 185.639 120.661C185.656 121.018 185.679 121.485 185.707 122.05C185.757 123.224 185.816 124.846 185.87 126.637C185.925 128.429 185.965 130.051 185.986 131.225C185.993 131.791 185.998 132.259 186.002 132.616C186.003 132.945 185.998 133.126 185.986 133.126Z" fill="black"/>
<path d="M179.43 126.416C179.434 126.418 179.393 126.435 179.309 126.466C179.211 126.502 179.087 126.547 178.932 126.602C178.58 126.726 178.09 126.897 177.471 127.114C176.177 127.558 174.346 128.187 172.128 128.949L172.04 128.979L172.023 128.888C171.66 126.954 171.235 124.694 170.776 122.249L170.775 122.243L170.774 122.236C170.701 121.031 170.46 119.772 170.564 118.448C170.595 118.121 170.71 117.812 170.823 117.522C170.943 117.229 171.087 116.945 171.266 116.685C171.62 116.161 172.125 115.756 172.672 115.492C173.778 114.93 175.142 115.115 176.009 115.85C176.435 116.24 176.679 116.736 176.9 117.206C177.115 117.683 177.278 118.161 177.423 118.626C177.704 119.558 177.918 120.439 178.13 121.245C178.536 122.836 178.866 124.13 179.099 125.043C179.207 125.475 179.292 125.816 179.354 126.066C179.379 126.172 179.399 126.259 179.415 126.329C179.428 126.388 179.433 126.418 179.43 126.416C179.427 126.415 179.416 126.382 179.397 126.32C179.376 126.248 179.35 126.159 179.317 126.049C179.246 125.798 179.149 125.454 179.026 125.018C178.777 124.115 178.425 122.836 177.991 121.262C177.773 120.475 177.553 119.6 177.266 118.676C177.119 118.216 176.954 117.743 176.741 117.278C176.524 116.82 176.277 116.337 175.889 115.987C175.082 115.309 173.792 115.133 172.759 115.665C172.234 115.921 171.764 116.299 171.429 116.796C171.259 117.042 171.122 117.313 171.006 117.596C170.895 117.883 170.788 118.169 170.76 118.471C170.659 119.746 170.895 121.005 170.967 122.227L170.966 122.214C171.413 124.661 171.827 126.923 172.181 128.859L172.077 128.797C174.287 128.074 176.111 127.478 177.4 127.056C178.032 126.853 178.532 126.693 178.891 126.578C179.054 126.527 179.185 126.486 179.287 126.455C179.378 126.427 179.427 126.414 179.43 126.416Z" fill="black"/>
<path d="M174.102 128.174C174.05 128.19 173.909 127.897 173.787 127.519C173.665 127.14 173.608 126.821 173.66 126.804C173.712 126.787 173.853 127.08 173.975 127.459C174.097 127.837 174.154 128.157 174.102 128.174Z" fill="black"/>
<path d="M175.845 127.684C175.792 127.697 175.676 127.411 175.586 127.047C175.496 126.682 175.466 126.375 175.519 126.362C175.573 126.349 175.688 126.634 175.778 127C175.868 127.365 175.898 127.671 175.845 127.684Z" fill="black"/>
<path d="M177.603 127.058C177.55 127.074 177.434 126.84 177.343 126.537C177.252 126.234 177.22 125.975 177.272 125.96C177.325 125.944 177.441 126.177 177.532 126.481C177.623 126.784 177.655 127.042 177.603 127.058Z" fill="black"/>
<path d="M187.12 125.608C187.074 125.636 186.874 125.385 186.736 125.02C186.597 124.656 186.579 124.337 186.632 124.327C186.686 124.316 186.788 124.604 186.921 124.951C187.053 125.298 187.168 125.58 187.12 125.608Z" fill="black"/>
<path d="M188.442 124.861C188.394 124.886 188.234 124.668 188.086 124.376C187.938 124.084 187.858 123.827 187.907 123.803C187.956 123.778 188.115 123.996 188.263 124.288C188.411 124.58 188.491 124.837 188.442 124.861Z" fill="black"/>
<path d="M176.891 113.593C176.911 113.595 176.922 113.657 176.926 113.765L176.821 113.764C176.777 113.579 176.731 113.246 176.7 112.865C176.65 112.274 176.654 111.791 176.709 111.787C176.763 111.782 176.847 112.257 176.897 112.849C176.929 113.23 176.938 113.566 176.926 113.755L176.821 113.754C176.848 113.649 176.872 113.591 176.891 113.593Z" fill="black"/>
<path d="M178.472 113.595C178.418 113.599 178.344 113.207 178.307 112.719C178.271 112.231 178.285 111.832 178.34 111.828C178.394 111.824 178.468 112.216 178.504 112.704C178.541 113.192 178.527 113.591 178.472 113.595Z" fill="black"/>
<path d="M180.128 113.949C180.073 113.95 180.023 113.476 180.015 112.89C180.007 112.305 180.045 111.829 180.099 111.829C180.154 111.828 180.205 112.302 180.213 112.888C180.22 113.473 180.183 113.949 180.128 113.949Z" fill="black"/>
<path d="M181.484 113.728C181.429 113.728 181.385 113.322 181.385 112.822C181.385 112.322 181.429 111.917 181.484 111.917C181.538 111.917 181.582 112.322 181.582 112.822C181.582 113.322 181.538 113.728 181.484 113.728Z" fill="black"/>
<path d="M190.239 140.343C190.236 140.398 186.937 140.218 182.872 139.942C178.806 139.666 175.514 139.399 175.518 139.345C175.521 139.291 178.819 139.47 182.886 139.746C186.95 140.022 190.243 140.289 190.239 140.343Z" fill="black"/>
<path d="M173.15 128.624L174.783 133.906C175.364 135.881 177.009 137.365 179.04 137.75L189.172 139.665L191.927 139.576L190.99 137.235L181.555 133.523C180.808 133.357 180.215 132.79 180.019 132.053L178.593 126.738L173.15 128.624Z" fill="#FFBE9D"/>
<path d="M182.106 139.736L182.193 139.083L189.976 138.778L193.796 129.195L208.347 130.177L203.437 140.816L182.106 139.736Z" fill="black"/>
<path d="M199.523 135.412C199.298 135.766 198.826 135.871 198.471 135.647C198.115 135.422 198.009 134.954 198.235 134.6C198.46 134.246 198.931 134.141 199.287 134.365C199.643 134.589 199.748 135.058 199.523 135.412Z" fill="white"/>
<path d="M76.4262 70.9078C82.7674 68.617 79.5111 59.1025 79.5111 59.1025L47.3241 62.0368C44.8066 62.0198 42.7568 64.0456 42.7568 66.5504C42.7568 69.0435 44.788 71.0644 47.2937 71.0644L76.4262 70.9078Z" fill="black"/>
<path d="M34.9805 97.2603L34.9156 94.0848L41.0375 91.9214L41.2906 96.3427L40.9463 96.5083C39.4091 97.2312 33.079 100.075 31.8983 100.183C30.5816 100.303 34.9805 97.2603 34.9805 97.2603Z" fill="#3DB8DB"/>
<g opacity="0.4">
<path d="M32.8658 98.8311C32.8658 98.8311 31.3674 100.004 31.6927 100.197C32.018 100.389 38.5233 97.7544 41.2909 96.3426L41.2301 96.2197L33.6684 99.3574C33.6684 99.3574 33.2032 98.7105 32.8658 98.8311Z" fill="white"/>
</g>
<path d="M41.3178 96.1799C41.319 96.1822 41.2867 96.1996 41.2244 96.2302C41.1419 96.2695 41.0518 96.3127 40.95 96.361C40.6734 96.4869 40.3336 96.642 39.9323 96.825C39.0705 97.2106 37.8727 97.7274 36.5377 98.2696C35.202 98.8114 33.9826 99.2757 33.0956 99.6001C32.6807 99.7487 32.3288 99.8742 32.0426 99.9767C31.9358 100.013 31.8412 100.045 31.7546 100.074C31.6885 100.096 31.6535 100.106 31.6524 100.103C31.6516 100.101 31.685 100.086 31.7493 100.06C31.8344 100.027 31.9275 99.9907 32.0324 99.9498C32.3162 99.8417 32.6651 99.7082 33.077 99.5513C33.959 99.2144 35.1746 98.743 36.5096 98.2012C37.8438 97.6594 39.0443 97.1505 39.9114 96.7773C40.3161 96.603 40.6593 96.4552 40.9382 96.3353C41.0423 96.2915 41.1343 96.2525 41.2187 96.2174C41.2825 96.1905 41.3167 96.1777 41.3178 96.1799Z" fill="black"/>
<path d="M33.7053 99.4443C33.6852 99.4553 33.5685 99.216 33.3105 99.0307C33.0559 98.8409 32.7914 98.8016 32.796 98.7793C32.7929 98.7604 33.081 98.7683 33.3546 98.9709C33.6308 99.1706 33.7243 99.4417 33.7053 99.4443Z" fill="black"/>
<path d="M35.0399 97.9152C35.0281 97.9318 34.9077 97.8672 34.7713 97.7704C34.6348 97.6736 34.5338 97.5817 34.5459 97.5651C34.5577 97.5485 34.6782 97.6131 34.8146 97.7099C34.951 97.8067 35.0517 97.8986 35.0399 97.9152Z" fill="black"/>
<path d="M35.402 97.4854C35.3948 97.5047 35.2808 97.4813 35.1466 97.4332C35.0125 97.3852 34.9095 97.3308 34.9163 97.3115C34.9236 97.2922 35.0376 97.3153 35.1717 97.3633C35.3062 97.4117 35.4092 97.4661 35.402 97.4854Z" fill="black"/>
<path d="M35.475 96.8323C35.483 96.8512 35.3568 96.9219 35.193 96.9904C35.0293 97.0588 34.8902 97.0989 34.8822 97.08C34.8742 97.0611 35.0004 96.9904 35.1642 96.9219C35.3279 96.8535 35.467 96.8134 35.475 96.8323Z" fill="black"/>
<path d="M35.4203 96.4145C35.4336 96.4289 35.3154 96.5525 35.1277 96.6448C34.9408 96.7382 34.7701 96.7575 34.7667 96.7382C34.7618 96.7174 34.9172 96.6671 35.0947 96.5786C35.2729 96.4909 35.4066 96.3979 35.4203 96.4145Z" fill="black"/>
<path d="M34.6434 97.4989C34.6468 97.5065 34.5134 97.5806 34.2763 97.6448C34.1581 97.677 34.0137 97.7046 33.8514 97.7171C33.7697 97.7208 33.6873 97.7322 33.5907 97.7159C33.5447 97.7065 33.4904 97.6891 33.4539 97.6395C33.4163 97.5911 33.4205 97.5178 33.4498 97.4717C33.726 97.1495 34.1566 97.2032 34.3599 97.3307C34.4689 97.3934 34.5385 97.4698 34.5787 97.5254C34.619 97.5817 34.6323 97.6176 34.6285 97.6199C34.6175 97.6297 34.5453 97.4864 34.3348 97.3768C34.231 97.3231 34.0923 97.2864 33.9392 97.3012C33.7944 97.3155 33.6059 97.3794 33.5147 97.5076C33.4741 97.5741 33.5246 97.6327 33.6048 97.6448C33.6808 97.6592 33.7686 97.6509 33.8465 97.649C34.0046 97.6403 34.1459 97.6187 34.2633 97.5938C34.4989 97.5439 34.6388 97.4876 34.6434 97.4989Z" fill="black"/>
<path d="M34.5555 97.5552C34.5521 97.5613 34.4597 97.4902 34.41 97.3193C34.386 97.2354 34.3765 97.128 34.4012 97.0127C34.4328 96.9057 34.4704 96.7605 34.63 96.7034C34.7193 96.68 34.7998 96.7594 34.8116 96.8259C34.831 96.8925 34.8245 96.959 34.8162 97.0138C34.7991 97.1269 34.7675 97.2255 34.7333 97.3042C34.6642 97.4622 34.5908 97.5416 34.584 97.5367C34.5741 97.5303 34.6304 97.4418 34.6839 97.2857C34.7105 97.2078 34.7352 97.1125 34.7478 97.0051C34.7664 96.9076 34.7444 96.7556 34.6459 96.7764C34.5506 96.8047 34.4943 96.9333 34.4681 97.0286C34.443 97.1306 34.4457 97.2286 34.4613 97.3072C34.4939 97.4671 34.5669 97.5477 34.5555 97.5552Z" fill="black"/>
<path d="M40.5673 94.6757C40.5711 94.6889 40.3978 94.7264 40.1527 94.8609C39.9091 94.9925 39.5971 95.2402 39.3885 95.6096C39.1802 95.9793 39.1305 96.3737 39.1445 96.6489C39.1571 96.9272 39.2156 97.0939 39.2019 97.0973C39.1977 97.0988 39.1787 97.0588 39.1548 96.9831C39.1305 96.9075 39.105 96.7945 39.0917 96.6523C39.0636 96.3706 39.1061 95.9589 39.3231 95.5733C39.5405 95.1884 39.8715 94.9373 40.128 94.8145C40.2568 94.7517 40.367 94.7146 40.4445 94.6954C40.5224 94.6764 40.5661 94.6715 40.5673 94.6757Z" fill="black"/>
<path d="M39.012 92.5562C39.031 92.5483 39.2666 93.0606 39.5375 93.7007C39.8092 94.3408 40.0137 94.866 39.9947 94.8743C39.9757 94.8822 39.7404 94.3699 39.4687 93.7298C39.1978 93.0897 38.993 92.5642 39.012 92.5562Z" fill="black"/>
<path d="M38.2629 96.8715C38.2728 96.8881 37.9262 97.0995 37.4649 97.2904C37.004 97.4828 36.6095 97.58 36.6046 97.5615C36.5981 97.5407 36.9796 97.4129 37.4364 97.222C37.8932 97.0326 38.2527 96.8526 38.2629 96.8715Z" fill="black"/>
<path d="M39.3791 96.4171C39.3985 96.4255 39.3806 96.5079 39.3776 96.6081C39.373 96.7086 39.3844 96.7922 39.3643 96.799C39.346 96.8062 39.2981 96.7211 39.3031 96.6054C39.3073 96.4894 39.3612 96.4084 39.3791 96.4171Z" fill="black"/>
<path d="M39.5874 95.7258C39.6064 95.7337 39.5938 95.8074 39.5593 95.891C39.5247 95.9742 39.4814 96.0354 39.462 96.0279C39.443 96.0199 39.4555 95.9462 39.4901 95.8627C39.5247 95.7791 39.5684 95.7179 39.5874 95.7258Z" fill="black"/>
<path d="M40.0915 95.2438C40.0953 95.2646 40.0193 95.2944 39.9475 95.3579C39.8745 95.4196 39.8335 95.4899 39.8133 95.4831C39.7936 95.4789 39.8088 95.3788 39.8984 95.302C39.9881 95.2245 40.09 95.2241 40.0915 95.2438Z" fill="black"/>
<path d="M40.4746 94.9578C40.4886 94.9725 40.4677 95.0148 40.4282 95.0523C40.3883 95.0897 40.3446 95.1079 40.3306 95.0931C40.3165 95.0784 40.3374 95.036 40.3769 94.9986C40.4168 94.9612 40.4605 94.943 40.4746 94.9578Z" fill="black"/>
<path d="M59.5528 61.6055L41.5781 61.9401C38.7045 61.9934 36.3082 64.1424 35.957 66.9807L32.3926 95.8013H42.155L45.1357 70.9082H59.3093L59.5528 61.6055Z" fill="black"/>
<path d="M32.5137 93.9691C32.5133 94.0152 34.652 94.0659 37.2896 94.0821C39.9284 94.0984 42.0211 94.0326 42.0671 94.0281C42.3703 93.9986 39.9291 93.9313 37.2907 93.915C34.6527 93.8992 32.5137 93.9233 32.5137 93.9691Z" fill="black"/>
<path d="M69.4393 60.6963C69.4393 60.6937 69.4089 60.6926 69.3492 60.6929C69.2808 60.6945 69.1942 60.6967 69.0862 60.699C68.8434 60.7084 68.5052 60.7213 68.0754 60.7379C67.1858 60.7795 65.9193 60.8385 64.3593 60.9115C61.2125 61.0741 56.8842 61.2979 52.1037 61.5448C51.5056 61.5716 50.9135 61.6204 50.3321 61.6283C49.7469 61.637 49.1712 61.6597 48.6061 61.6918C48.041 61.7244 47.4862 61.7641 46.944 61.8193C46.4063 61.8782 45.8598 61.9327 45.3647 62.1247C44.8695 62.3062 44.4165 62.5728 44.051 62.918C43.6846 63.2628 43.4228 63.6885 43.2545 64.1229C43.0839 64.5585 42.9904 65.0005 42.93 65.4254C42.8714 65.8508 42.8403 66.2625 42.8429 66.6565C42.8464 67.4436 42.9923 68.1597 43.2598 68.7295C43.525 69.3015 43.8944 69.7186 44.2421 69.9908C44.5913 70.2649 44.9144 70.4014 45.1367 70.4668C45.3601 70.5333 45.3639 70.5114 45.1469 70.4362C44.9307 70.3617 44.6183 70.2184 44.282 69.9424C43.9472 69.6687 43.5931 69.2543 43.3426 68.6928C43.0892 68.1329 42.9539 67.4312 42.9577 66.6565C42.9585 66.2689 42.9927 65.8625 43.0538 65.4436C43.1165 65.0254 43.2112 64.5933 43.3795 64.1728C43.5459 63.7528 43.7979 63.3494 44.149 63.0216C44.5001 62.6938 44.9368 62.4386 45.4163 62.265C45.8948 62.0816 46.4199 62.0314 46.9603 61.9735C47.4995 61.9202 48.0525 61.882 48.6156 61.8506C49.1788 61.8196 49.753 61.7981 50.3348 61.7898C50.9204 61.7822 51.5098 61.7338 52.109 61.707C56.8899 61.4415 61.2182 61.2011 64.3654 61.0264C65.9246 60.9319 67.1904 60.8555 68.0792 60.8018C68.5082 60.7723 68.8461 60.7493 69.0885 60.7326C69.1961 60.7236 69.2827 60.7164 69.3507 60.7107C69.4096 60.7035 69.4396 60.699 69.4393 60.6963Z" fill="black"/>
<path d="M63.7133 48.7427L62.1515 53.6125C61.5518 55.6235 59.8562 57.1347 57.7612 57.526L48.6844 60.0293L47.9768 58.357L47.3145 55.8859L55.1677 53.2219C55.9387 53.0529 56.5498 52.4756 56.7519 51.7251L59.8783 44.9585L63.8383 47.3745L63.7133 48.7427Z" fill="#B78876"/>
<path d="M67.5186 33.5063C64.194 33.8927 63.1231 35.238 61.7649 37.193C61.2003 38.0055 60.7496 38.888 60.4216 39.8131L57.9033 46.9132L63.1588 48.5257L62.9836 54.324L60.5904 61.3821L80.7801 62.9617L80.722 52.7058L80.5776 46.5166C80.768 44.1728 81.2589 39.2014 80.839 38.0237C79.0427 32.9853 75.0793 33.9525 72.1711 33.2345C71.5714 33.0863 68.6701 33.1161 68.1662 33.2398" fill="#3DB8DB"/>
<path d="M80.7788 52.0568C80.7788 52.1112 76.8294 52.1551 71.9588 52.1551C67.0863 52.1551 63.1377 52.1109 63.1377 52.0568C63.1377 52.0024 67.0863 51.9585 71.9588 51.9585C76.8294 51.9585 80.7788 52.0027 80.7788 52.0568Z" fill="#FAFAFA"/>
<path d="M80.4838 55.5636C80.4838 55.6181 76.5344 55.6619 71.6639 55.6619C66.7914 55.6619 62.8428 55.6177 62.8428 55.5636C62.8428 55.5096 66.7914 55.4653 71.6639 55.4653C76.5344 55.465 80.4838 55.5092 80.4838 55.5636Z" fill="#FAFAFA"/>
<path d="M80.5782 59.5871C80.5782 59.6415 76.4015 59.6854 71.2509 59.6854C66.0984 59.6854 61.9229 59.6411 61.9229 59.5871C61.9229 59.533 66.0984 59.4888 71.2509 59.4888C76.4015 59.4888 80.5782 59.533 80.5782 59.5871Z" fill="#FAFAFA"/>
<g opacity="0.3">
<path d="M78.1257 49.8146C77.8616 51.1742 77.7514 52.6408 77.2817 53.9452C76.9363 54.9051 76.5509 55.8674 75.9311 56.6791C75.0868 57.785 73.8415 58.5502 72.5084 58.9612C71.1754 59.3722 64.765 60.7991 63.373 60.6925L75.0997 55.1683L76.5129 49.3628L78.1257 49.8146Z" fill="black"/>
</g>
<path d="M77.4417 49.612L76.152 54.5505C75.6397 56.6103 74.011 58.2111 71.935 58.6954L61.5821 61.111L58.7393 61.1394V57.2511L69.1575 54.4511C69.9206 54.2473 70.5062 53.6374 70.6757 52.8695L71.6796 48.5269L77.4417 49.612Z" fill="#B78876"/>
<path d="M80.8831 37.7282C80.8831 37.7826 76.5305 37.8265 71.1622 37.8265C65.7923 37.8265 61.4404 37.7823 61.4404 37.7282C61.4404 37.6741 65.7923 37.6299 71.1622 37.6299C76.5305 37.6299 80.8831 37.6737 80.8831 37.7282Z" fill="#FAFAFA"/>
<path d="M81.0042 41.0754C81.0042 41.1298 76.313 41.1737 70.5274 41.1737C64.7399 41.1737 60.0498 41.1294 60.0498 41.0754C60.0498 41.0213 64.7399 40.9771 70.5274 40.9771C76.313 40.9767 81.0042 41.0209 81.0042 41.0754Z" fill="#FAFAFA"/>
<path d="M80.7312 44.6936C80.7316 44.748 75.7931 44.8305 69.7019 44.8781C63.6085 44.9257 58.6703 44.9201 58.6699 44.8656C58.6695 44.8112 63.607 44.7288 69.7004 44.6811C75.7915 44.6339 80.7309 44.6391 80.7312 44.6936Z" fill="#FAFAFA"/>
<path d="M80.5776 48.5265C80.5776 48.581 76.6282 48.6248 71.7576 48.6248C66.8852 48.6248 62.9365 48.5806 62.9365 48.5265C62.9365 48.4721 66.8852 48.4282 71.7576 48.4282C76.6282 48.4278 80.5776 48.4721 80.5776 48.5265Z" fill="#FAFAFA"/>
<path d="M79.2149 50.0232C79.2118 50.0229 79.2137 49.9949 79.2206 49.9412C79.2297 49.8777 79.2407 49.7994 79.2544 49.703C79.289 49.4799 79.3365 49.1741 79.3965 48.7854C79.5208 47.9861 79.7024 46.8239 79.9038 45.3686C80.0999 43.9138 80.3378 42.1648 80.4537 40.1915C80.4936 39.2157 80.5753 38.1325 80.0638 37.1763C79.8225 36.7033 79.4547 36.2852 78.9964 35.974C78.5392 35.6663 77.9901 35.4526 77.4323 35.3713L77.4197 35.3695L77.4102 35.3668C76.8064 35.1823 76.1209 35.2859 75.4893 35.4961C74.8554 35.7086 74.2265 36.0213 73.7078 36.4591C73.6007 36.5521 73.5095 36.6515 73.4365 36.7619C73.362 36.8822 73.2966 37.0073 73.2358 37.1347C73.1158 37.3903 73.0219 37.6572 72.9432 37.9276C72.7871 38.469 72.6879 39.0251 72.5917 39.573C72.3953 40.6675 72.2041 41.7315 72.0202 42.7568C71.6497 44.8049 71.3069 46.6976 71.0041 48.3714L70.9471 48.2829C73.3829 48.802 75.3836 49.2281 76.7916 49.5283C77.476 49.6796 78.016 49.7987 78.3998 49.8833C78.5738 49.9242 78.7125 49.9567 78.8193 49.982C78.9139 50.0055 78.9618 50.0195 78.961 50.0236C78.9603 50.0278 78.9105 50.0213 78.8143 50.0055C78.7064 49.9862 78.5662 49.9608 78.3899 49.9291C78.0038 49.8542 77.4608 49.7491 76.7718 49.6157C75.3586 49.3313 73.3502 48.9268 70.9053 48.4349L70.835 48.4209L70.8479 48.3464C71.1424 46.6704 71.4753 44.7743 71.8355 42.7232C72.0172 41.6967 72.206 40.6316 72.3998 39.5359C72.4952 38.9881 72.5933 38.4316 72.7529 37.8746C72.8334 37.5967 72.9303 37.32 73.0557 37.0523C73.1196 36.9192 73.188 36.7873 73.2666 36.6602C73.3529 36.5271 73.4616 36.4115 73.5752 36.3128C74.1292 35.8462 74.768 35.5324 75.4266 35.3108C76.081 35.0965 76.7969 34.9789 77.4718 35.1849L77.4501 35.1804C78.0574 35.27 78.616 35.4923 79.102 35.819C79.585 36.1483 79.9745 36.5941 80.2272 37.0943C80.3614 37.3423 80.4412 37.6073 80.5213 37.869C80.5669 38.1367 80.6407 38.3998 80.641 38.666C80.6483 38.7983 80.6555 38.9299 80.6623 39.0607C80.6597 39.1904 80.6574 39.3189 80.6547 39.4467C80.6517 39.7027 80.638 39.9541 80.622 40.2021C80.4936 42.1856 80.2409 43.9331 80.0277 45.3875C79.8092 46.8417 79.6082 48.0016 79.463 48.7975C79.3889 49.1839 79.3308 49.4882 79.2882 49.7102C79.2677 49.8051 79.251 49.8826 79.2373 49.9453C79.2255 49.9971 79.2175 50.024 79.2149 50.0232Z" fill="black"/>
<path d="M63.0997 54.2351C63.1115 54.2347 63.1198 54.0476 63.1259 53.7084C63.1282 53.3405 63.1312 52.8574 63.135 52.274C63.1354 51.063 63.124 49.3903 63.1012 47.543C63.0784 45.6953 63.0484 44.0227 63.0184 42.8117C63.0001 42.2283 62.9853 41.7455 62.9739 41.378C62.9598 41.0392 62.9462 40.8521 62.9348 40.8521C62.9234 40.8521 62.9146 41.0392 62.9085 41.378C62.9063 41.7455 62.9032 42.2287 62.8994 42.812C62.899 44.023 62.9104 45.6964 62.9332 47.5445C62.956 49.3922 62.9861 51.0652 63.0161 52.2759C63.0339 52.8592 63.0491 53.3421 63.0605 53.7096C63.075 54.0483 63.0883 54.2355 63.0997 54.2351Z" fill="black"/>
<path d="M69.4386 61.9814L69.6203 61.139L61.7788 60.3095L58.3595 50.533L42.3916 50.4233L47.6232 61.7583L69.4386 61.9814Z" fill="black"/>
<path d="M52.6229 56.6756C52.9896 56.4442 53.0987 55.961 52.8665 55.5962C52.634 55.2313 52.1483 55.1228 51.7816 55.3538C51.4149 55.5852 51.3058 56.0684 51.538 56.4336C51.7702 56.7985 52.2562 56.907 52.6229 56.6756Z" fill="white"/>
<path d="M63.489 17.4181C62.6351 17.5511 61.9013 18.2555 61.7375 19.1002C61.5737 19.9448 61.991 20.8703 62.7339 21.3101C63.055 21.5002 63.4666 21.6004 63.8006 21.4337C64.1118 21.2779 64.2767 20.9342 64.3793 20.603C64.7096 19.5399 64.6165 18.3527 64.1247 17.353" fill="black"/>
<path d="M70.0791 36.7162C68.1821 36.7162 66.6518 35.1747 66.6727 33.2877C66.6857 32.1096 66.7054 31.091 66.7054 31.091C66.7054 31.091 63.9675 30.8381 63.7668 28.1424C63.5662 25.447 63.6521 19.2234 63.6521 19.2234C66.7073 17.6887 70.3584 17.9193 73.194 19.8264L73.6151 20.1096L73.4855 33.3603C73.4673 35.2186 71.9476 36.7162 70.0791 36.7162Z" fill="#B78876"/>
<path d="M66.6992 31.0522C66.6992 31.0522 68.4214 31.0859 70.1717 29.8359C70.1717 29.8359 69.4565 31.8288 66.7361 31.7517L66.6992 31.0522Z" fill="#AA6550"/>
<path d="M72.9148 23.0902C72.965 23.0713 74.6302 22.8558 74.4729 24.8124C74.3155 26.769 72.3817 25.9637 72.3828 25.9073C72.384 25.851 72.9148 23.0902 72.9148 23.0902Z" fill="#B78876"/>
<path d="M73.0404 25.2688C73.0496 25.2631 73.0727 25.2952 73.1286 25.3262C73.1829 25.3565 73.2787 25.3818 73.3843 25.352C73.5983 25.2926 73.7993 24.9784 73.8373 24.6264C73.8567 24.4487 73.8331 24.2763 73.7807 24.1307C73.7321 23.9829 73.6473 23.8755 73.5439 23.8487C73.4417 23.8166 73.3627 23.8729 73.3342 23.9258C73.3034 23.9784 73.3129 24.0185 73.3023 24.0211C73.2962 24.0256 73.2627 23.9848 73.2848 23.9054C73.2962 23.8672 73.3228 23.823 73.3722 23.789C73.4223 23.7545 73.4934 23.7406 73.5656 23.7542C73.7165 23.7769 73.8419 23.9262 73.8989 24.0861C73.9646 24.2472 73.9954 24.4415 73.9737 24.6408C73.9297 25.034 73.6971 25.3867 73.406 25.4461C73.265 25.471 73.1525 25.4204 73.0971 25.3693C73.0401 25.3164 73.0332 25.2718 73.0404 25.2688Z" fill="#AA6550"/>
<path d="M65.5236 20.3378C65.901 20.1703 66.4774 19.6735 66.8012 19.4183C67.1276 19.934 67.6946 20.2913 68.3026 20.3654C68.9106 20.4391 69.5471 20.2278 69.9891 19.8054C70.0069 20.1548 70.216 20.4883 70.523 20.658C70.8304 20.8278 71.2252 20.8278 71.5327 20.658C71.546 21.6985 71.5593 22.7386 71.5726 23.7791C71.5764 24.0789 71.5878 24.4018 71.7698 24.6408C71.9518 24.8797 72.3729 24.9538 72.5397 24.7039C72.5081 24.3224 72.4804 23.9198 72.6469 23.5749C72.8133 23.2298 73.2488 22.9821 73.5923 23.1545C73.7234 22.5103 73.7219 21.9552 73.7029 21.3083C73.6995 21.1964 73.7211 20.8388 73.7804 20.7435C73.8876 20.5718 73.937 20.7045 74.1357 20.6637C74.7137 20.5442 75.1507 19.99 75.1948 19.4047C75.2385 18.819 74.9239 18.2364 74.4466 17.8908C73.9693 17.5453 73.3506 17.4239 72.7639 17.4897C73.1523 17.1358 73.1181 16.4673 72.7768 16.0685C72.4356 15.6696 71.872 15.5157 71.3465 15.5471C70.8202 15.5785 70.2277 15.8696 70.1624 16.3902C70.0278 15.3845 69.0926 14.5467 68.0735 14.5183C67.0543 14.49 66.0735 15.2752 65.8831 16.2719C65.2527 15.9936 64.3695 15.6855 63.7421 15.9705C63.1148 16.256 62.5687 16.7055 62.4383 17.7649C62.4383 17.7649 62.2791 19.9049 63.6407 20.3374C65.0019 20.7703 65.5236 20.3378 65.5236 20.3378Z" fill="black"/>
<path d="M64.3664 23.5388C64.3592 23.7384 64.5234 23.9089 64.7328 23.9203C64.9418 23.9316 65.1173 23.7792 65.1246 23.5792C65.1318 23.3796 64.9676 23.2087 64.7586 23.1974C64.5492 23.186 64.3737 23.3392 64.3664 23.5388Z" fill="black"/>
<path d="M64.2834 23.1132C64.3305 23.1623 64.6185 22.9506 65.0274 22.9518C65.4359 22.9468 65.7361 23.1563 65.7806 23.1064C65.8023 23.0845 65.7544 22.9952 65.6237 22.9007C65.4948 22.8066 65.2756 22.7147 65.021 22.7158C64.7664 22.7173 64.552 22.8107 64.4289 22.906C64.3028 23.002 64.2602 23.0913 64.2834 23.1132Z" fill="black"/>
<path d="M68.3723 23.6335C68.3651 23.8331 68.5292 24.0036 68.7386 24.015C68.9476 24.0263 69.1232 23.8739 69.1304 23.6739C69.1376 23.4743 68.9735 23.3034 68.7641 23.2921C68.5551 23.2811 68.3795 23.4338 68.3723 23.6335Z" fill="black"/>
<path d="M68.3039 23.1889C68.351 23.238 68.6394 23.0263 69.0479 23.0274C69.4564 23.0225 69.7566 23.232 69.8011 23.1821C69.8228 23.1601 69.7753 23.0709 69.6441 22.9764C69.5153 22.8823 69.2961 22.7904 69.0415 22.7915C68.7869 22.793 68.5725 22.8864 68.449 22.9817C68.3236 23.0777 68.2807 23.167 68.3039 23.1889Z" fill="black"/>
<path d="M66.8191 26.2069C66.821 26.1838 66.5668 26.14 66.1549 26.0878C66.0504 26.0772 65.9516 26.0564 65.9341 25.9854C65.9094 25.9101 65.9531 25.7982 66.004 25.6772C66.102 25.4258 66.205 25.1623 66.3129 24.8863C66.742 23.76 67.0521 22.8336 67.0065 22.8166C66.9609 22.8 66.5759 23.6995 66.1473 24.8258C66.0439 25.1037 65.9455 25.3683 65.8512 25.6216C65.8117 25.7396 65.7437 25.8738 65.7969 26.0296C65.825 26.1071 65.9018 26.1634 65.9687 26.1816C66.0355 26.202 66.0944 26.2031 66.1461 26.2062C66.5603 26.2285 66.8176 26.23 66.8191 26.2069Z" fill="black"/>
<path d="M68.0224 26.4883C67.9559 26.4845 67.9551 26.9261 67.5751 27.2396C67.1959 27.5541 66.7228 27.5046 66.719 27.5662C66.7129 27.5938 66.8242 27.6521 67.0241 27.6574C67.2202 27.6642 67.5064 27.6014 67.7385 27.4097C67.9703 27.2177 68.0699 26.9609 68.0851 26.7798C68.1026 26.5949 68.0528 26.4857 68.0224 26.4883Z" fill="black"/>
<path d="M68.1974 21.5946C68.2377 21.7053 68.6462 21.6528 69.1258 21.7103C69.6068 21.7583 69.9937 21.8978 70.0575 21.7987C70.086 21.7511 70.0184 21.6471 69.8622 21.5401C69.7072 21.4331 69.4598 21.3314 69.1717 21.2997C68.8837 21.2683 68.62 21.3137 68.4452 21.3847C68.2688 21.4554 68.1803 21.542 68.1974 21.5946Z" fill="black"/>
<path d="M64.4335 21.9354C64.5053 22.0277 64.7872 21.932 65.1258 21.9275C65.4644 21.9112 65.7513 21.9895 65.8174 21.8931C65.8463 21.8462 65.8011 21.7536 65.6757 21.6662C65.5522 21.5789 65.3455 21.5078 65.1129 21.5146C64.88 21.5222 64.6786 21.6057 64.5604 21.7002C64.4411 21.7951 64.4015 21.8904 64.4335 21.9354Z" fill="black"/>
<path d="M65.2107 17.2895C65.2054 17.2967 65.1735 17.2713 65.1051 17.2573C65.0382 17.2441 64.928 17.2528 64.8231 17.3303C64.7163 17.4029 64.6498 17.5625 64.6977 17.7409C64.7402 17.9182 64.8873 18.0944 65.1032 18.1806C65.3167 18.2661 65.5987 18.2683 65.835 18.1375C66.0707 18.0097 66.2436 17.7386 66.2751 17.435C66.3142 17.1311 66.1835 16.807 65.9335 16.5817C65.6865 16.3537 65.3308 16.2316 64.9728 16.277C64.6152 16.3159 64.2816 16.4921 64.0452 16.7356C63.8062 16.9795 63.6633 17.294 63.5976 17.6037C63.4627 18.2332 63.6325 18.8287 63.8753 19.2483C64.1189 19.6763 64.4279 19.9467 64.6509 20.1092C64.8778 20.2699 65.0211 20.335 65.0139 20.3501C65.0104 20.3595 64.8558 20.3187 64.608 20.1731C64.3652 20.0257 64.0274 19.761 63.7545 19.3194C63.4832 18.8869 63.2829 18.254 63.4186 17.5678C63.4855 17.2294 63.6371 16.88 63.9054 16.6017C64.1706 16.3257 64.5411 16.1265 64.9508 16.0811C65.3608 16.0282 65.7815 16.173 66.0646 16.4399C66.353 16.7004 66.508 17.0963 66.4556 17.4555C66.413 17.812 66.2044 18.1307 65.9122 18.2812C65.6211 18.4317 65.2958 18.4173 65.0473 18.3084C64.7957 18.1976 64.6281 17.9795 64.589 17.7644C64.5392 17.5489 64.6422 17.3409 64.779 17.2668C64.9113 17.1848 65.0424 17.1904 65.1153 17.2188C65.1909 17.249 65.2141 17.2865 65.2107 17.2895Z" fill="black"/>
</g>
<defs>
<clipPath id="clip0_620_10039">
<rect width="229" height="148" fill="white"/>
</clipPath>
</defs>
</svg>
