<svg width="229" height="156" viewBox="0 0 229 156" fill="none" xmlns="http://www.w3.org/2000/svg">
<g clip-path="url(#clip0_620_15478)">
<path fill-rule="evenodd" clip-rule="evenodd" d="M196.85 49.8812C197.392 50.2868 197.869 50.7591 198.275 51.2816L200.095 50.9483L201.295 53.7718L199.797 54.8592C199.891 55.5147 199.902 56.1876 199.819 56.8605L201.34 57.9151L200.199 60.7637L198.373 60.4697C197.969 61.0132 197.498 61.492 196.977 61.8992L197.309 63.7246L194.495 64.9293L193.411 63.4257C192.758 63.5208 192.087 63.5305 191.416 63.4476L190.365 64.9733L187.526 63.8289L187.819 61.9974C187.277 61.5918 186.801 61.1195 186.394 60.5971L184.574 60.9303L183.374 58.1068L184.873 57.0194C184.778 56.3639 184.768 55.6914 184.851 55.0181L183.33 53.9635L184.471 51.115L186.296 51.4094C186.7 50.8659 187.171 50.3871 187.692 49.9794L187.36 48.154L190.174 46.9493L191.258 48.4529C191.912 48.3578 192.582 48.3481 193.253 48.431L194.304 46.9053L197.143 48.0497L196.85 49.8812ZM193.687 52.9359C192.005 52.2578 190.093 53.0762 189.417 54.7638C188.741 56.4513 189.558 58.3693 191.24 59.0474C192.922 59.7256 194.834 58.9071 195.51 57.2196C196.185 55.5317 195.37 53.6141 193.687 52.9359Z" fill="#EBEBEB"/>
<path fill-rule="evenodd" clip-rule="evenodd" d="M28.0927 62.1907C29.0717 62.9239 29.9343 63.7779 30.6687 64.7218L33.9575 64.1192L36.1281 69.223L33.4194 71.1883C33.5907 72.3732 33.6084 73.5892 33.4589 74.8056L36.2079 76.7119L34.1453 81.8606L30.8465 81.3292C30.1153 82.3114 29.264 83.1768 28.3228 83.9136L28.923 87.2126L23.8361 89.3907L21.8767 86.6732C20.6957 86.845 19.4841 86.8624 18.2716 86.7128L16.3715 89.4703L11.2395 87.4019L11.7691 84.092C10.79 83.3584 9.92743 82.5043 9.19343 81.5601L5.90469 82.1622L3.7337 77.0584L6.44281 75.0931C6.2715 73.9083 6.25416 72.6927 6.4033 71.4763L3.6543 69.57L5.71645 64.4213L9.01567 64.9531C9.74685 63.9708 10.5978 63.105 11.539 62.3686L10.9388 59.0692L16.0256 56.8912L17.985 59.6091C19.166 59.4372 20.3777 59.4198 21.5902 59.5695L23.4903 56.8115L28.6227 58.88L28.0927 62.1907ZM22.3766 67.7118C19.3361 66.4861 15.8805 67.9654 14.6592 71.0157C13.4375 74.0664 14.9119 77.5324 17.9528 78.7581C20.9936 79.9834 24.4488 78.5045 25.6705 75.4538C26.8915 72.4039 25.4174 68.9371 22.3766 67.7118Z" fill="#EBEBEB"/>
<path fill-rule="evenodd" clip-rule="evenodd" d="M14.5953 36.3563C15.1371 36.7619 15.6143 37.2342 16.0206 37.7567L17.8401 37.4234L19.0413 40.2469L17.5426 41.3343C17.6374 41.9898 17.647 42.6627 17.5644 43.3356L19.0852 44.3903L17.9441 47.2388L16.119 46.9448C15.7143 47.4883 15.2435 47.9671 14.7227 48.3747L15.0548 50.2001L12.2405 51.4048L11.1566 49.9013C10.5032 49.9963 9.83292 50.006 9.16179 49.9231L8.11056 51.4488L5.27126 50.3044L5.5647 48.473C5.02296 48.0674 4.54572 47.5946 4.13941 47.0726L2.31991 47.4058L1.11913 44.5823L2.61778 43.4949C2.52306 42.8394 2.51339 42.1669 2.59602 41.4936L1.0752 40.439L2.21591 37.5905L4.04106 37.8849C4.44535 37.3414 4.91615 36.8626 5.43693 36.4549L5.10479 34.6295L7.9191 33.4245L9.00298 34.928C9.65637 34.8329 10.3267 34.8232 10.9974 34.9061L12.0487 33.3804L14.888 34.5252L14.5953 36.3563ZM11.4327 39.411C9.75029 38.7329 7.83888 39.5513 7.16292 41.2389C6.48695 42.9264 7.30279 44.844 8.98524 45.5225C10.6673 46.2003 12.5791 45.3822 13.2551 43.6943C13.931 42.0068 13.1152 40.0892 11.4327 39.411Z" fill="#F0F0F0"/>
<path fill-rule="evenodd" clip-rule="evenodd" d="M51.6183 13.8952C53.1996 14.4783 54.6745 15.2664 56.0147 16.2248L60.1253 14.1313L64.9945 20.0204L62.1846 23.6866C62.8755 25.1853 63.3753 26.7854 63.6543 28.4519L68.0341 29.8871L67.3263 37.5054L62.7578 38.1039C62.1762 39.6903 61.3906 41.1703 60.4349 42.5149L62.5212 46.6389L56.6512 51.5235L52.9968 48.7045C51.503 49.3976 49.9084 49.8987 48.2473 50.1789L46.8164 54.5738L39.2228 53.8637L38.6262 49.2799C37.0449 48.6964 35.5697 47.9083 34.2294 46.9495L30.1188 49.043L25.2496 43.1539L28.0599 39.4877C27.369 37.989 26.8696 36.3893 26.5906 34.7228L22.21 33.2872L22.9178 25.6685L27.4867 25.07C28.0683 23.4836 28.8539 22.004 29.8092 20.659L27.7225 16.535L33.5925 11.65L37.2473 14.4694C38.7411 13.7763 40.3357 13.2752 41.9968 12.995L43.4277 8.6001L51.0213 9.3098L51.6183 13.8952ZM46.2267 23.4468C41.7275 23.0258 37.7402 26.3443 37.321 30.858C36.9018 35.3718 40.2091 39.3716 44.7083 39.7922C49.2079 40.2128 53.1947 36.8947 53.6139 32.381C54.0331 27.8676 50.7255 23.8674 46.2267 23.4468Z" fill="#E0E0E0"/>
<path d="M183.32 97.2789L159.001 97.1664C156.076 97.1535 153.715 94.7704 153.728 91.8443L153.985 30.8476C153.998 27.9198 156.381 25.5565 159.307 25.5699L183.627 25.6823C186.552 25.6956 188.912 28.0783 188.9 31.0045L188.642 92.0016C188.63 94.9294 186.246 97.2926 183.32 97.2789Z" fill="black"/>
<path d="M183.593 27.7872L178.877 27.7653C178.245 27.7625 177.73 28.2963 177.727 28.9575L177.723 29.8132C177.721 30.4743 177.206 31.0085 176.573 31.0053L167.382 30.9628C166.75 30.96 166.24 30.4214 166.243 29.7598L166.247 28.9041C166.249 28.2429 165.739 27.7043 165.107 27.7014L163.448 27.6934L159.322 27.6744C157.272 27.6651 155.603 29.3198 155.594 31.3705L155.343 90.9078C155.334 92.9572 156.987 94.6257 159.036 94.6354L183.307 94.7474C185.356 94.7567 187.025 93.1024 187.034 91.0513L187.285 31.5136C187.294 29.4654 185.641 27.7969 183.593 27.7872Z" fill="white"/>
<path d="M183.196 68.2983H159.18V69.9102H183.196V68.2983Z" fill="black"/>
<path d="M182.338 74.6441C182.338 74.7019 177.212 74.7493 170.89 74.7493C164.566 74.7493 159.441 74.7019 159.441 74.6441C159.441 74.5859 164.566 74.5386 170.89 74.5386C177.212 74.5386 182.338 74.5859 182.338 74.6441Z" fill="black"/>
<path d="M182.338 36.4142C182.338 36.4725 177.212 36.5194 170.89 36.5194C164.566 36.5194 159.441 36.4725 159.441 36.4142C159.441 36.356 164.566 36.3091 170.89 36.3091C177.212 36.3087 182.338 36.356 182.338 36.4142Z" fill="black"/>
<path d="M182.338 77.5778C182.338 77.6364 177.212 77.6833 170.89 77.6833C164.566 77.6833 159.441 77.6364 159.441 77.5778C159.441 77.5196 164.566 77.4727 170.89 77.4727C177.212 77.4727 182.338 77.52 182.338 77.5778Z" fill="black"/>
<path d="M182.338 80.5123C182.338 80.5705 177.212 80.6174 170.89 80.6174C164.566 80.6174 159.441 80.5705 159.441 80.5123C159.441 80.4536 164.566 80.4067 170.89 80.4067C177.212 80.4067 182.338 80.4536 182.338 80.5123Z" fill="black"/>
<path d="M182.338 83.4459C182.338 83.5041 177.212 83.5514 170.89 83.5514C164.566 83.5514 159.441 83.5041 159.441 83.4459C159.441 83.3876 164.566 83.3403 170.89 83.3403C177.212 83.3403 182.338 83.3876 182.338 83.4459Z" fill="black"/>
<path d="M182.338 86.3796C182.338 86.4382 177.212 86.4851 170.89 86.4851C164.566 86.4851 159.441 86.4382 159.441 86.3796C159.441 86.3213 164.566 86.2744 170.89 86.2744C177.212 86.2744 182.338 86.3213 182.338 86.3796Z" fill="black"/>
<path d="M182.667 89.7061C182.667 89.7644 177.54 89.8117 171.219 89.8117C164.894 89.8117 159.77 89.7644 159.77 89.7061C159.77 89.6483 164.895 89.6006 171.219 89.6006C177.541 89.601 182.667 89.6483 182.667 89.7061Z" fill="black"/>
<path d="M183.518 39.7598H159.441V63.129H183.518V39.7598Z" fill="#E0E0E0"/>
<path d="M161.308 61.1283L167.968 49.103L173.416 56.7892L176.726 52.7073L181.651 61.1283H161.308Z" fill="#3DB8DB"/>
<path d="M175.737 46.7639C175.737 47.724 174.961 48.5024 174.004 48.5024C173.047 48.5024 172.271 47.724 172.271 46.7639C172.271 45.8039 173.047 45.0259 174.004 45.0259C174.961 45.0259 175.737 45.8039 175.737 46.7639Z" fill="#3DB8DB"/>
<path d="M181.651 61.1935C181.65 61.1914 181.648 61.1595 181.646 61.0976C181.644 61.0277 181.642 60.9387 181.64 60.8251C181.637 60.5764 181.633 60.2258 181.629 59.7733C181.623 58.8468 181.614 57.5063 181.603 55.8046C181.591 52.3912 181.574 47.5304 181.553 41.6943L181.651 41.7929C175.759 41.7978 168.776 41.8035 161.31 41.8095C161.283 41.8334 161.525 41.5932 161.423 41.6979V41.7032V41.7137V41.7347V41.7764V41.8601V42.0267V42.3595V43.0231C161.423 43.4647 161.423 43.9047 161.423 44.3422C161.422 45.2177 161.422 46.0855 161.422 46.9444C161.421 48.6619 161.42 50.3433 161.419 51.9803C161.415 55.253 161.411 58.3474 161.408 61.1939L161.308 61.0936C167.38 61.1146 172.451 61.1324 176.016 61.1445C177.794 61.1559 179.196 61.1644 180.165 61.1704C180.639 61.1757 181.006 61.1797 181.265 61.1821C181.385 61.1846 181.477 61.1862 181.55 61.1878C181.616 61.1898 181.65 61.1914 181.651 61.1935C181.653 61.1951 181.623 61.1971 181.562 61.1991C181.492 61.2003 181.402 61.2024 181.288 61.2048C181.032 61.2072 180.672 61.2117 180.207 61.2165C179.242 61.2226 177.848 61.2315 176.081 61.2428C172.5 61.2553 167.406 61.2727 161.308 61.2938L161.208 61.2942V61.1935C161.205 58.347 161.201 55.253 161.197 51.9799C161.196 50.3429 161.195 48.6615 161.194 46.944C161.194 46.0851 161.194 45.2177 161.194 44.3418C161.194 43.9038 161.194 43.4643 161.194 43.0227V42.3591L161.193 42.0263V41.8597V41.776V41.7343V41.7133V41.7028V41.6975C161.091 41.7986 161.333 41.5535 161.31 41.579C168.775 41.5851 175.759 41.5907 181.651 41.5952H181.75L181.749 41.6943C181.729 47.5563 181.711 52.4385 181.699 55.8673C181.689 57.5596 181.679 58.8921 181.674 59.8137C181.669 60.2577 181.665 60.6023 181.662 60.8465C181.66 60.9557 181.658 61.041 181.657 61.1081C181.655 61.1668 181.653 61.1951 181.651 61.1935Z" fill="black"/>
<path d="M147.387 4.87292V58.7476C147.387 61.3267 145.302 63.4178 142.731 63.4178H61.6161C59.0449 63.4178 56.9609 61.3267 56.9609 58.7476V4.87292C56.9609 2.29373 59.0449 0.202637 61.6161 0.202637H142.731C145.302 0.202232 147.387 2.29332 147.387 4.87292Z" fill="black"/>
<path d="M63.1475 2.19599L63.1475 61.4243L138.664 61.4243V2.19599L63.1475 2.19599Z" fill="white"/>
<path d="M142.842 29.3843C144.178 29.3843 145.26 30.4705 145.26 31.8098C145.26 33.1495 144.177 34.2353 142.842 34.2353C141.507 34.2353 140.425 33.1495 140.425 31.8098C140.425 30.4701 141.507 29.3843 142.842 29.3843Z" fill="black"/>
<path d="M60.5639 22.7814V40.8381C60.5639 41.1095 60.3446 41.3295 60.0741 41.3295H60.0552C59.7847 41.3295 59.5654 41.1095 59.5654 40.8381V22.7814C59.5654 22.51 59.7847 22.29 60.0552 22.29H60.0741C60.345 22.29 60.5639 22.51 60.5639 22.7814Z" fill="black"/>
<path d="M121.607 6.64648H97.5908V8.25797H121.607V6.64648Z" fill="black"/>
<path d="M90.3245 34.3574H66.3086V35.9693H90.3245V34.3574Z" fill="black"/>
<path d="M127.458 12.6491C127.458 12.7073 120.772 12.7546 112.525 12.7546C104.276 12.7546 97.5908 12.7073 97.5908 12.6491C97.5908 12.5909 104.276 12.5439 112.525 12.5439C120.772 12.5435 127.458 12.5909 127.458 12.6491Z" fill="black"/>
<path d="M127.458 16.168C127.458 16.2259 120.772 16.2732 112.525 16.2732C104.276 16.2732 97.5908 16.2259 97.5908 16.168C97.5908 16.1098 104.276 16.0625 112.525 16.0625C120.772 16.0625 127.458 16.1098 127.458 16.168Z" fill="black"/>
<path d="M127.458 19.6877C127.458 19.7459 120.772 19.7928 112.525 19.7928C104.276 19.7928 97.5908 19.7455 97.5908 19.6877C97.5908 19.6294 104.276 19.5825 112.525 19.5825C120.772 19.5825 127.458 19.6294 127.458 19.6877Z" fill="black"/>
<path d="M127.458 23.2072C127.458 23.2654 120.772 23.3123 112.525 23.3123C104.276 23.3123 97.5908 23.265 97.5908 23.2072C97.5908 23.149 104.276 23.1021 112.525 23.1021C120.772 23.1021 127.458 23.1494 127.458 23.2072Z" fill="black"/>
<path d="M127.458 26.7266C127.458 26.7849 120.772 26.8318 112.525 26.8318C104.276 26.8318 97.5908 26.7845 97.5908 26.7266C97.5908 26.6684 104.276 26.6211 112.525 26.6211C120.772 26.6211 127.458 26.6684 127.458 26.7266Z" fill="black"/>
<path d="M120.908 30.2462C120.908 30.304 115.688 30.3513 109.25 30.3513C102.81 30.3513 97.5908 30.304 97.5908 30.2462C97.5908 30.1879 102.81 30.1406 109.25 30.1406C115.688 30.1406 120.908 30.1879 120.908 30.2462Z" fill="black"/>
<path d="M105.751 40.7028C105.751 40.761 96.9797 40.8079 86.1622 40.8079C75.3407 40.8079 66.5713 40.761 66.5713 40.7028C66.5713 40.6446 75.3407 40.5977 86.1622 40.5977C96.9797 40.5973 105.751 40.6446 105.751 40.7028Z" fill="black"/>
<path d="M105.751 43.6369C105.751 43.6951 96.9797 43.742 86.1622 43.742C75.3407 43.742 66.5713 43.6947 66.5713 43.6369C66.5713 43.5786 75.3407 43.5317 86.1622 43.5317C96.9797 43.5317 105.751 43.5786 105.751 43.6369Z" fill="black"/>
<path d="M105.751 46.5704C105.751 46.6286 96.9797 46.6755 86.1622 46.6755C75.3407 46.6755 66.5713 46.6282 66.5713 46.5704C66.5713 46.5122 75.3407 46.4648 86.1622 46.4648C96.9797 46.4652 105.751 46.5122 105.751 46.5704Z" fill="black"/>
<path d="M105.751 49.5046C105.751 49.5628 96.9797 49.6101 86.1622 49.6101C75.3407 49.6101 66.5713 49.5628 66.5713 49.5046C66.5713 49.4463 75.3407 49.3994 86.1622 49.3994C96.9797 49.3994 105.751 49.4467 105.751 49.5046Z" fill="black"/>
<path d="M105.751 52.4386C105.751 52.4969 96.9797 52.5442 86.1622 52.5442C75.3407 52.5442 66.5713 52.4969 66.5713 52.4386C66.5713 52.3804 75.3407 52.3335 86.1622 52.3335C96.9797 52.3331 105.751 52.3804 105.751 52.4386Z" fill="black"/>
<path d="M90.6467 5.81836H66.5703V29.1876H90.6467V5.81836Z" fill="#3DB8DB"/>
<path d="M68.4375 27.1874L75.0976 15.1621L80.5452 22.8479L83.8557 18.7664L88.7802 27.1874H68.4375Z" fill="#E0E0E0"/>
<path d="M82.8653 12.8225C82.8653 13.7826 82.0897 14.561 81.1328 14.561C80.1759 14.561 79.4004 13.783 79.4004 12.8225C79.4004 11.8625 80.1759 11.0845 81.1328 11.0845C82.0897 11.0845 82.8653 11.8625 82.8653 12.8225Z" fill="#E0E0E0"/>
<path d="M88.7796 27.2526C88.778 27.251 88.776 27.2182 88.774 27.1568C88.7728 27.0868 88.7708 26.9974 88.7684 26.8842C88.7655 26.6355 88.7619 26.2845 88.7571 25.8324C88.751 24.9055 88.7426 23.5654 88.7317 21.8637C88.7196 18.4503 88.7022 13.5895 88.6813 7.75341L88.7796 7.85208C82.8878 7.85693 75.9036 7.86259 68.4386 7.86826C68.4112 7.89252 68.6539 7.65191 68.5511 7.75664V7.7619V7.77241V7.79344V7.83509V7.9184V8.08501V8.41782V9.08142C68.5511 9.52301 68.5507 9.96298 68.5507 10.4009C68.5507 11.2764 68.5503 12.1443 68.5498 13.0028C68.549 14.7202 68.5482 16.4017 68.547 18.0386C68.543 21.3113 68.5394 24.4057 68.5361 27.2522L68.4362 27.1519C74.5078 27.1734 79.5793 27.1907 83.1446 27.2029C84.9222 27.2142 86.3241 27.2227 87.2931 27.2292C87.7667 27.234 88.1339 27.2381 88.3935 27.2409C88.5124 27.2433 88.6059 27.2449 88.6785 27.2465C88.7442 27.2486 88.778 27.2506 88.7796 27.2526C88.7817 27.2542 88.7514 27.2563 88.6906 27.2583C88.6204 27.2595 88.5305 27.2615 88.4161 27.2643C88.1609 27.2668 87.8002 27.2708 87.335 27.2757C86.3712 27.2817 84.977 27.2906 83.2091 27.3019C79.6281 27.3145 74.5344 27.3319 68.4366 27.3529L68.3366 27.3533V27.2526C68.3334 24.4061 68.3294 21.3117 68.3257 18.039C68.3249 16.4021 68.3237 14.7206 68.3229 13.0032C68.3229 12.1447 68.3225 11.2768 68.3225 10.4013C68.3221 9.96339 68.3221 9.52382 68.3221 9.08182V8.41822V8.08541V7.9188V7.83509V7.79304V7.77201V7.76149V7.75624C68.2201 7.85734 68.4616 7.61228 68.439 7.63816C75.9041 7.64422 82.8882 7.64948 88.7801 7.65433L88.8788 7.65474L88.8784 7.75341C88.8574 13.6154 88.8401 18.4976 88.828 21.9264C88.8171 23.6188 88.8087 24.9516 88.8026 25.8728C88.7978 26.3169 88.7938 26.6614 88.7913 26.9056C88.7893 27.0144 88.7873 27.1002 88.7857 27.1673C88.7837 27.2259 88.7817 27.2542 88.7796 27.2526Z" fill="black"/>
<path d="M128.194 37.458H111.154V53.9967H128.194V37.458Z" fill="#3DB8DB"/>
<path d="M112.476 52.5812L117.189 44.0708L121.044 49.5106L123.387 46.6217L126.872 52.5812H112.476Z" fill="#E0E0E0"/>
<path d="M122.687 42.4152C122.687 43.0946 122.138 43.6454 121.461 43.6454C120.783 43.6454 120.234 43.0946 120.234 42.4152C120.234 41.7358 120.783 41.1851 121.461 41.1851C122.138 41.1855 122.687 41.7358 122.687 42.4152Z" fill="#E0E0E0"/>
<path d="M126.873 52.6268C126.872 52.6256 126.871 52.6026 126.869 52.5589C126.868 52.5096 126.867 52.4465 126.866 52.366C126.864 52.1897 126.861 51.9418 126.857 51.6215C126.853 50.9656 126.847 50.0173 126.839 48.8131C126.831 46.3972 126.818 42.9575 126.803 38.8271L126.873 38.8971C122.704 38.9003 117.761 38.9043 112.478 38.9088C112.458 38.9258 112.63 38.7555 112.557 38.8295V38.8332V38.8404V38.8554V38.8849V38.944V39.062V39.2978V39.7677C112.557 40.0803 112.557 40.3913 112.557 40.7014C112.557 41.3214 112.557 41.9352 112.557 42.543C112.556 43.7586 112.555 44.9483 112.555 46.1069C112.552 48.4232 112.549 50.613 112.547 52.6273L112.476 52.5565C116.773 52.5714 120.362 52.584 122.885 52.5925C124.143 52.6006 125.136 52.6066 125.821 52.6111C126.156 52.6147 126.416 52.6175 126.6 52.6192C126.685 52.6208 126.75 52.622 126.802 52.6232C126.848 52.6244 126.872 52.6256 126.873 52.6268C126.875 52.6281 126.853 52.6293 126.81 52.6309C126.761 52.6321 126.697 52.6333 126.616 52.6349C126.436 52.6365 126.181 52.6394 125.851 52.643C125.17 52.6475 124.183 52.6535 122.931 52.6616C120.397 52.6705 116.793 52.6831 112.477 52.6976H112.406V52.6264C112.403 50.6122 112.401 48.422 112.398 46.1061C112.397 44.9475 112.397 43.7578 112.396 42.5422C112.396 41.9344 112.395 41.3206 112.395 40.7006C112.395 40.3909 112.395 40.0795 112.395 39.7669V39.297L112.395 39.0612V38.9432V38.8841V38.8546V38.8396V38.8323V38.8287C112.322 38.9003 112.494 38.7268 112.478 38.745C117.761 38.749 122.704 38.7531 126.873 38.7563H126.943L126.943 38.8263C126.928 42.9749 126.916 46.4304 126.907 48.8567C126.899 50.0541 126.893 50.9976 126.889 51.6498C126.886 51.9641 126.883 52.2079 126.881 52.3806C126.879 52.4578 126.878 52.5181 126.877 52.5658C126.876 52.6082 126.875 52.6281 126.873 52.6268Z" fill="black"/>
<path d="M140.462 153.668H25.8043C22.5615 153.668 19.9326 151.031 19.9326 147.778V75.7003C19.9326 72.447 22.5615 69.8096 25.8043 69.8096H140.462C143.705 69.8096 146.334 72.447 146.334 75.7003V147.778C146.334 151.031 143.704 153.668 140.462 153.668Z" fill="black"/>
<path d="M144.418 154.804H21.8195C17.8573 154.804 14.6455 151.582 14.6455 147.607V147.466H151.592V147.607C151.592 151.582 148.38 154.804 144.418 154.804Z" fill="black"/>
<path d="M142.586 73.1411H23.3242V143.958H142.586V73.1411Z" fill="#E0E0E0"/>
<path d="M70.6719 147.466L72.3713 150.178H96.2836L97.8617 147.466H70.6719Z" fill="black"/>
<path d="M137.106 77.8574H27.3018V143.932H137.106V77.8574Z" fill="white"/>
<path d="M31.989 81.1158C31.989 81.6262 31.5766 82.0399 31.0675 82.0399C30.5588 82.0399 30.1465 81.6262 30.1465 81.1158C30.1465 80.6051 30.5588 80.1914 31.0675 80.1914C31.5766 80.1914 31.989 80.6051 31.989 81.1158Z" fill="black"/>
<path d="M35.7482 81.1158C35.7482 81.6262 35.3358 82.0399 34.8267 82.0399C34.318 82.0399 33.9053 81.6262 33.9053 81.1158C33.9053 80.6051 34.3176 80.1914 34.8267 80.1914C35.3358 80.1914 35.7482 80.6051 35.7482 81.1158Z" fill="black"/>
<path d="M39.5089 81.1158C39.5089 81.6262 39.0965 82.0399 38.5875 82.0399C38.0788 82.0399 37.666 81.6262 37.666 81.1158C37.666 80.6051 38.0784 80.1914 38.5875 80.1914C39.0961 80.1914 39.5089 80.6051 39.5089 81.1158Z" fill="black"/>
<path d="M137.106 85.1598C137.106 85.218 112.524 85.2649 82.2071 85.2649C51.8798 85.2649 27.3027 85.218 27.3027 85.1598C27.3027 85.1011 51.8798 85.0542 82.2071 85.0542C112.524 85.0542 137.106 85.1015 137.106 85.1598Z" fill="black"/>
<path d="M146.333 147.523H19.9316V147.927H146.333V147.523Z" fill="black"/>
<path d="M60.3206 117.262H36.3047V118.873H60.3206V117.262Z" fill="black"/>
<path d="M91.3401 94.8848H67.3242V96.4967H91.3401V94.8848Z" fill="black"/>
<path d="M127.059 100.887C127.059 100.945 113.685 100.993 97.1929 100.993C80.6944 100.993 67.3242 100.946 67.3242 100.887C67.3242 100.829 80.6944 100.782 97.1929 100.782C113.685 100.782 127.059 100.829 127.059 100.887Z" fill="black"/>
<path d="M127.059 104.407C127.059 104.465 113.685 104.512 97.1929 104.512C80.6944 104.512 67.3242 104.465 67.3242 104.407C67.3242 104.349 80.6944 104.301 97.1929 104.301C113.685 104.301 127.059 104.349 127.059 104.407Z" fill="black"/>
<path d="M127.059 107.926C127.059 107.985 113.685 108.032 97.1929 108.032C80.6944 108.032 67.3242 107.985 67.3242 107.926C67.3242 107.868 80.6944 107.821 97.1929 107.821C113.685 107.821 127.059 107.868 127.059 107.926Z" fill="black"/>
<path d="M127.059 111.445C127.059 111.503 113.685 111.551 97.1929 111.551C80.6944 111.551 67.3242 111.504 67.3242 111.445C67.3242 111.387 80.6944 111.34 97.1929 111.34C113.685 111.34 127.059 111.388 127.059 111.445Z" fill="black"/>
<path d="M127.059 114.965C127.059 115.023 113.685 115.07 97.1929 115.07C80.6944 115.07 67.3242 115.023 67.3242 114.965C67.3242 114.907 80.6944 114.859 97.1929 114.859C113.685 114.859 127.059 114.907 127.059 114.965Z" fill="black"/>
<path d="M90.6416 118.484C90.6416 118.543 85.4213 118.59 78.9833 118.59C72.5429 118.59 67.3242 118.543 67.3242 118.484C67.3242 118.427 72.5433 118.379 78.9833 118.379C85.4213 118.379 90.6416 118.427 90.6416 118.484Z" fill="black"/>
<path d="M126.622 125.315C126.622 125.373 117.832 125.421 106.992 125.421C96.1483 125.421 87.3604 125.373 87.3604 125.315C87.3604 125.257 96.1483 125.209 106.992 125.209C117.833 125.209 126.622 125.257 126.622 125.315Z" fill="black"/>
<path d="M126.622 129.05C126.622 129.109 117.832 129.156 106.992 129.156C96.1483 129.156 87.3604 129.109 87.3604 129.05C87.3604 128.993 96.1483 128.945 106.992 128.945C117.833 128.946 126.622 128.993 126.622 129.05Z" fill="black"/>
<path d="M126.622 132.787C126.622 132.845 117.832 132.892 106.992 132.892C96.1483 132.892 87.3604 132.845 87.3604 132.787C87.3604 132.729 96.1483 132.682 106.992 132.682C117.833 132.682 126.622 132.729 126.622 132.787Z" fill="black"/>
<path d="M126.622 136.523C126.622 136.581 117.832 136.628 106.992 136.628C96.1483 136.628 87.3604 136.581 87.3604 136.523C87.3604 136.464 96.1483 136.417 106.992 136.417C117.833 136.417 126.622 136.464 126.622 136.523Z" fill="black"/>
<path d="M60.3814 124.958C60.3814 125.016 55.1418 125.063 48.6796 125.063C42.2154 125.063 36.9766 125.016 36.9766 124.958C36.9766 124.9 42.2154 124.852 48.6796 124.852C55.1414 124.852 60.3814 124.9 60.3814 124.958Z" fill="black"/>
<path d="M60.3814 127.891C60.3814 127.95 55.1418 127.997 48.6796 127.997C42.2154 127.997 36.9766 127.95 36.9766 127.891C36.9766 127.833 42.2154 127.786 48.6796 127.786C55.1414 127.786 60.3814 127.833 60.3814 127.891Z" fill="black"/>
<path d="M60.3814 130.826C60.3814 130.884 55.1418 130.931 48.6796 130.931C42.2154 130.931 36.9766 130.884 36.9766 130.826C36.9766 130.768 42.2154 130.72 48.6796 130.72C55.1414 130.72 60.3814 130.768 60.3814 130.826Z" fill="black"/>
<path d="M60.3814 133.759C60.3814 133.818 55.1418 133.865 48.6796 133.865C42.2154 133.865 36.9766 133.818 36.9766 133.759C36.9766 133.701 42.2154 133.654 48.6796 133.654C55.1414 133.654 60.3814 133.701 60.3814 133.759Z" fill="black"/>
<path d="M60.3814 136.693C60.3814 136.752 55.1418 136.799 48.6796 136.799C42.2154 136.799 36.9766 136.752 36.9766 136.693C36.9766 136.635 42.2154 136.588 48.6796 136.588C55.1414 136.588 60.3814 136.635 60.3814 136.693Z" fill="black"/>
<path d="M60.3811 89.6187H36.3047V112.988H60.3811V89.6187Z" fill="#E0E0E0"/>
<path d="M38.1719 110.987L44.832 98.9619L50.2796 106.648L53.5901 102.566L58.5149 110.987H38.1719Z" fill="#3DB8DB"/>
<path d="M52.6 96.6227C52.6 97.5828 51.8245 98.3612 50.8676 98.3612C49.9107 98.3612 49.1348 97.5828 49.1348 96.6227C49.1348 95.6627 49.9107 94.8843 50.8676 94.8843C51.8245 94.8843 52.6 95.6627 52.6 96.6227Z" fill="#3DB8DB"/>
<path d="M58.5144 111.052C58.5128 111.05 58.5108 111.018 58.5088 110.957C58.5076 110.887 58.5056 110.797 58.5032 110.684C58.5003 110.436 58.4967 110.085 58.4919 109.633C58.4858 108.706 58.4774 107.366 58.4665 105.664C58.4544 102.251 58.437 97.3894 58.4161 91.5532L58.5144 91.6519C52.6226 91.6568 45.6384 91.662 38.1734 91.6685C38.146 91.6928 38.3886 91.4521 38.2858 91.5565V91.5621V91.5722V91.5933V91.6349V91.7182V91.8848V92.2177V92.8817C38.2858 93.3233 38.2854 93.7628 38.2854 94.2008C38.285 95.0767 38.285 95.9441 38.2846 96.803C38.2838 98.5204 38.283 100.201 38.2818 101.838C38.2778 105.112 38.2742 108.206 38.2709 111.052L38.171 110.952C44.2426 110.973 49.3141 110.991 52.8794 111.003C54.6574 111.014 56.0589 111.023 57.0279 111.029C57.5015 111.035 57.8687 111.038 58.1283 111.041C58.2472 111.044 58.3407 111.046 58.4133 111.047C58.4786 111.049 58.5124 111.051 58.5144 111.052C58.5165 111.054 58.4862 111.056 58.4254 111.058C58.3552 111.06 58.2657 111.062 58.1509 111.064C57.8957 111.067 57.535 111.071 57.0698 111.075C56.106 111.082 54.7118 111.09 52.9439 111.102C49.3629 111.114 44.2696 111.131 38.1714 111.152L38.0714 111.153V111.052C38.0682 108.206 38.0642 105.112 38.0605 101.838C38.0597 100.201 38.0585 98.5204 38.0577 96.803C38.0577 95.9445 38.0573 95.0767 38.0573 94.2008C38.0569 93.7628 38.0569 93.3233 38.0569 92.8817V92.2177L38.0565 91.8848V91.7182V91.6349V91.5933V91.5722V91.5621V91.5565C37.9545 91.6576 38.196 91.4129 38.1734 91.4384C45.6384 91.4445 52.6226 91.4497 58.5144 91.4546H58.6132L58.6128 91.5532C58.5918 97.4153 58.5745 102.297 58.5628 105.727C58.5519 107.419 58.5431 108.751 58.537 109.673C58.5322 110.117 58.5285 110.462 58.5257 110.706C58.5233 110.815 58.5213 110.9 58.5201 110.968C58.5181 111.026 58.516 111.054 58.5144 111.052Z" fill="black"/>
<path d="M84.3486 123.532H67.3096V140.071H84.3486V123.532Z" fill="#E0E0E0"/>
<path d="M68.6309 138.655L73.3445 130.145L77.1999 135.584L79.5427 132.696L83.0277 138.655H68.6309Z" fill="#3DB8DB"/>
<path d="M78.842 128.489C78.842 129.169 78.293 129.72 77.6158 129.72C76.9386 129.72 76.3896 129.169 76.3896 128.489C76.3896 127.81 76.9386 127.259 77.6158 127.259C78.293 127.259 78.842 127.81 78.842 128.489Z" fill="#3DB8DB"/>
<path d="M83.0273 138.702C83.0261 138.701 83.0249 138.677 83.0233 138.634C83.0225 138.584 83.0213 138.521 83.0197 138.441C83.0177 138.265 83.0149 138.017 83.0116 137.697C83.0072 137.041 83.0011 136.092 82.9935 134.888C82.9846 132.472 82.9725 129.032 82.9576 124.902L83.0273 124.972C78.8579 124.976 73.9149 124.98 68.6317 124.984C68.6124 125.001 68.7841 124.83 68.7116 124.904V124.908V124.916V124.931V124.96V125.019V125.137V125.372V125.842C68.7116 126.155 68.7116 126.466 68.7116 126.776C68.7116 127.395 68.7111 128.01 68.7107 128.617C68.7103 129.833 68.7095 131.023 68.7091 132.181C68.7063 134.498 68.7035 136.688 68.7011 138.702L68.6305 138.631C72.9274 138.646 76.5164 138.658 79.0401 138.667C80.2981 138.675 81.2901 138.682 81.9761 138.686C82.3115 138.69 82.5711 138.692 82.7553 138.694C82.8395 138.696 82.9052 138.697 82.9572 138.698C83.0024 138.699 83.0261 138.701 83.0273 138.702C83.029 138.703 83.0076 138.705 82.9645 138.706C82.9145 138.707 82.8512 138.708 82.7702 138.71C82.5896 138.712 82.334 138.715 82.0051 138.718C81.3231 138.723 80.3364 138.729 79.0848 138.737C76.5507 138.746 72.9459 138.758 68.6301 138.773H68.5596V138.702C68.5572 136.688 68.5544 134.498 68.5519 132.181C68.5511 131.023 68.5503 129.833 68.5499 128.617C68.5499 128.01 68.5495 127.396 68.5495 126.776C68.5495 126.466 68.5495 126.155 68.5495 125.842V125.372L68.5491 125.137V125.019V124.96V124.931V124.916V124.908V124.904C68.477 124.976 68.6479 124.802 68.6317 124.821C73.9149 124.825 78.8579 124.829 83.0273 124.832L83.0975 124.832V124.902C83.0826 129.051 83.0705 132.506 83.0616 134.933C83.0539 136.13 83.0479 137.074 83.0435 137.726C83.0398 138.04 83.0374 138.284 83.0354 138.457C83.0338 138.533 83.0326 138.595 83.0314 138.642C83.0302 138.683 83.029 138.703 83.0273 138.702Z" fill="black"/>
<path d="M226.622 147.631L222.587 147.151L221.642 154.729L227.539 155.494L227.627 155.028C228.004 152.952 229.396 144.442 229.148 142.991C228.87 141.373 226.622 147.631 226.622 147.631Z" fill="#3DB8DB"/>
<path d="M228.799 142.449C228.87 142.457 228.593 145.301 228.18 148.8C227.766 152.299 227.373 155.129 227.301 155.12C227.23 155.112 227.507 152.269 227.921 148.769C228.334 145.27 228.728 142.44 228.799 142.449Z" fill="black"/>
<path d="M227.462 147.276C227.421 147.334 227.21 147.253 227.019 147.065C226.826 146.877 226.742 146.668 226.799 146.625C226.857 146.581 227.024 146.706 227.201 146.878C227.376 147.052 227.505 147.217 227.462 147.276Z" fill="black"/>
<path d="M227.786 146.824C227.752 146.886 227.513 146.823 227.279 146.643C227.044 146.464 226.919 146.25 226.971 146.201C227.023 146.151 227.219 146.27 227.436 146.435C227.653 146.602 227.821 146.76 227.786 146.824Z" fill="black"/>
<path d="M227.544 152.832C227.562 152.865 227.443 152.966 227.244 153.11C227.047 153.256 226.77 153.446 226.528 153.706C226.288 153.965 226.149 154.259 226.095 154.483C226.039 154.707 226.053 154.861 226.014 154.868C225.984 154.878 225.9 154.726 225.914 154.456C225.924 154.189 226.062 153.825 226.338 153.529C226.612 153.234 226.925 153.06 227.15 152.952C227.377 152.845 227.527 152.802 227.544 152.832Z" fill="black"/>
<path d="M226.706 147.162C226.771 147.134 226.899 147.283 226.949 147.508C227 147.733 226.947 147.922 226.876 147.924C226.803 147.926 226.74 147.763 226.695 147.565C226.651 147.366 226.639 147.192 226.706 147.162Z" fill="black"/>
<path d="M226.302 147.235C226.374 147.237 226.411 147.446 226.384 147.702C226.357 147.959 226.278 148.156 226.207 148.142C226.137 148.129 226.1 147.92 226.125 147.675C226.151 147.43 226.231 147.233 226.302 147.235Z" fill="black"/>
<path d="M224.162 155.333L201.818 153.06L155.492 154.1L167.81 144.135L198.731 142.645L225.764 146.382L224.162 155.333Z" fill="black"/>
<path d="M186.398 149.109C186.398 149.168 182.049 149.215 176.686 149.215C171.32 149.215 166.973 149.168 166.973 149.109C166.973 149.051 171.32 149.004 176.686 149.004C182.049 149.004 186.398 149.051 186.398 149.109Z" fill="black"/>
<path d="M184.236 143.343L185.827 153.367H188.873L186.554 143.231L184.236 143.343Z" fill="black"/>
<path d="M196.031 153.5L195.579 149.448L188.009 150.248L188.607 156.184L189.08 156.164C191.181 156.059 199.757 155.483 201.109 154.911C202.616 154.272 196.031 153.5 196.031 153.5Z" fill="#3DB8DB"/>
<path d="M201.246 154.52C201.254 154.591 198.431 154.968 194.941 155.359C191.45 155.752 188.614 156.011 188.605 155.94C188.597 155.868 191.42 155.492 194.911 155.1C198.402 154.708 201.238 154.448 201.246 154.52Z" fill="black"/>
<path d="M196.257 154.312C196.191 154.285 196.221 154.061 196.361 153.831C196.499 153.601 196.684 153.47 196.737 153.516C196.794 153.563 196.71 153.755 196.583 153.967C196.454 154.177 196.324 154.34 196.257 154.312Z" fill="black"/>
<path d="M196.769 154.524C196.7 154.506 196.708 154.258 196.829 153.989C196.949 153.718 197.128 153.547 197.188 153.587C197.249 153.626 197.178 153.845 197.067 154.095C196.954 154.345 196.839 154.544 196.769 154.524Z" fill="black"/>
<path d="M190.882 155.657C190.855 155.681 190.73 155.587 190.544 155.426C190.358 155.267 190.111 155.04 189.803 154.862C189.497 154.687 189.18 154.618 188.951 154.617C188.721 154.612 188.575 154.661 188.558 154.625C188.542 154.598 188.67 154.481 188.936 154.432C189.197 154.382 189.581 154.434 189.932 154.636C190.281 154.837 190.521 155.103 190.678 155.299C190.833 155.496 190.909 155.633 190.882 155.657Z" fill="black"/>
<path d="M196.195 153.547C196.238 153.604 196.122 153.763 195.915 153.863C195.708 153.964 195.513 153.955 195.495 153.887C195.476 153.816 195.621 153.717 195.802 153.628C195.984 153.541 196.151 153.489 196.195 153.547Z" fill="black"/>
<path d="M196.032 153.169C196.047 153.24 195.852 153.324 195.597 153.356C195.342 153.388 195.133 153.355 195.13 153.283C195.126 153.211 195.321 153.127 195.565 153.097C195.809 153.066 196.018 153.099 196.032 153.169Z" fill="black"/>
<path d="M151.716 107.243L158.176 107.126C158.262 106.376 158.388 103.459 158.388 103.459C158.388 103.459 161.088 103.208 161.286 100.527C161.484 97.8459 161.399 91.6563 161.399 91.6563C158.386 90.1302 154.785 90.3595 151.987 92.2556L151.572 92.5371L151.716 107.243Z" fill="#B78876"/>
<path d="M160.501 96.2285C160.351 96.074 160.354 95.8273 160.508 95.6765C160.662 95.5261 160.908 95.5297 161.058 95.6838C161.208 95.8383 161.205 96.0853 161.051 96.2358C160.897 96.3862 160.651 96.383 160.501 96.2285Z" fill="black"/>
<path d="M161.186 95.6565C161.142 95.7002 160.892 95.4814 160.523 95.4567C160.155 95.4272 159.876 95.6068 159.838 95.5566C159.819 95.5344 159.866 95.4531 159.989 95.3714C160.108 95.2901 160.31 95.2169 160.54 95.2339C160.769 95.2509 160.958 95.3528 161.064 95.4511C161.174 95.5497 161.208 95.6371 161.186 95.6565Z" fill="black"/>
<path d="M156.924 95.7167C157.099 95.8408 157.142 96.0839 157.018 96.2606C156.894 96.4369 156.652 96.4794 156.476 96.3552C156.3 96.2311 156.258 95.9876 156.381 95.8113C156.505 95.635 156.748 95.5925 156.924 95.7167Z" fill="black"/>
<path d="M157.167 95.7346C157.122 95.7783 156.872 95.5595 156.504 95.5349C156.136 95.5049 155.856 95.6849 155.818 95.6347C155.8 95.6125 155.847 95.5312 155.969 95.4495C156.089 95.3683 156.29 95.2951 156.52 95.312C156.749 95.329 156.938 95.4309 157.045 95.5292C157.153 95.6279 157.188 95.7152 157.167 95.7346Z" fill="black"/>
<path d="M158.456 98.874C158.455 98.8449 158.685 98.8129 159.059 98.7842C159.156 98.7794 159.233 98.7624 159.243 98.7106C159.264 98.6532 159.233 98.5481 159.191 98.4296C159.111 98.1797 159.031 97.9265 158.946 97.6612C158.609 96.5666 158.382 95.6652 158.437 95.6482C158.492 95.6308 158.81 96.5039 159.146 97.5986C159.225 97.8659 159.301 98.1206 159.376 98.3726C159.404 98.4862 159.463 98.6209 159.404 98.7774C159.372 98.8554 159.293 98.9088 159.228 98.9217C159.163 98.9371 159.108 98.9339 159.062 98.9331C158.688 98.9234 158.456 98.9031 158.456 98.874Z" fill="black"/>
<path d="M157.234 99.2082C156.865 98.9551 158.256 99.8371 159.008 99.8468C159.008 99.8468 158.535 100.51 157.782 100.179C157 99.8354 157.234 99.2082 157.234 99.2082Z" fill="white"/>
<path d="M158.395 103.42C158.395 103.42 156.696 103.454 154.97 102.211C154.97 102.211 155.675 104.192 158.358 104.116L158.395 103.42Z" fill="#A36957"/>
<path d="M161.594 90.6911C162.207 90.6733 162.703 89.9858 162.528 89.3958C162.353 88.8062 161.563 88.5021 161.04 88.8232C161.34 88.5377 161.649 88.2405 161.807 87.8567C161.966 87.4738 161.933 86.978 161.618 86.7087C161.308 86.4434 160.835 86.479 160.46 86.6395C159.892 86.883 159.444 87.3642 158.861 87.568C158.271 87.7738 157.625 87.6699 157.001 87.6974C156.311 87.7273 155.614 87.9319 155.076 88.365C154.537 88.7985 154.176 89.4783 154.215 90.1698C153.342 90.0614 152.375 90.0485 151.685 90.5948C151.103 91.0558 150.846 91.8351 150.844 92.5792C150.842 93.3228 151.149 94.0285 151.366 94.7398V94.7378C151.496 95.1523 151.633 95.2979 151.633 95.2979L151.958 97.2216L153.149 97.1985L153.072 93.1918C153.072 93.1918 152.953 91.5047 154.4 91.6523C155.848 91.7999 157.815 93.4381 160.634 93.0252C161.09 92.9585 161.566 92.9071 161.948 92.6471C162.33 92.3871 162.604 91.933 162.551 91.4736C162.497 91.0138 162.048 90.607 161.594 90.6911Z" fill="black"/>
<path d="M152.087 94.9177C152.029 94.8954 150.103 94.6443 150.285 96.9263C150.467 99.2082 152.703 98.2688 152.702 98.2033C152.701 98.1374 152.087 94.9177 152.087 94.9177Z" fill="#B78876"/>
<path d="M151.942 97.4585C151.931 97.4517 151.904 97.4893 151.84 97.5256C151.777 97.5608 151.666 97.5904 151.544 97.5556C151.297 97.486 151.064 97.1196 151.02 96.7092C150.998 96.5017 151.026 96.3008 151.086 96.1309C151.142 95.9582 151.24 95.8333 151.359 95.8017C151.478 95.7641 151.569 95.83 151.602 95.8919C151.638 95.9534 151.627 96.0003 151.64 96.0031C151.646 96.0084 151.685 95.9611 151.659 95.8681C151.646 95.8236 151.616 95.7718 151.559 95.7322C151.5 95.6917 151.418 95.6756 151.335 95.6917C151.16 95.7176 151.015 95.8923 150.949 96.0787C150.873 96.2664 150.837 96.4928 150.862 96.7258C150.914 97.1843 151.182 97.5956 151.519 97.6648C151.682 97.6935 151.812 97.6348 151.877 97.575C151.942 97.5139 151.95 97.4618 151.942 97.4585Z" fill="#A36957"/>
<path d="M146.486 147.239C147.698 149.047 155.028 160.118 163.78 152.069C174.935 141.809 183.77 132.83 183.77 132.83L187.082 153.11L197.47 152.546C197.47 152.546 193.424 122.348 190.864 119.602C188.009 116.54 185.378 116.798 162.937 134.562L146.486 147.239Z" fill="black"/>
<path d="M183.626 112.837L193.322 105.739L193.799 106.501L184.166 113.686L183.626 112.837Z" fill="black"/>
<path d="M186.021 112.618C186.021 112.618 187.323 109.222 187.615 108.498C187.908 107.775 188.403 106.515 188.588 106.489C188.773 106.464 189.451 106.57 188.566 108.731C187.681 110.891 189.613 109.571 189.613 109.571L191.481 108.23C191.481 108.23 192.958 112.652 192.116 113.984C191.209 115.422 189.904 116.798 189.904 116.798L186.021 112.618Z" fill="#B78876"/>
<path d="M186.131 112.225C185.939 111.782 173.606 122.711 171.152 123.082L163.96 113.687C163.96 113.687 162.466 111.31 159.262 107.242C157.193 104.616 151.484 105.161 149.983 108.361C147.435 113.795 147.406 119.839 146.047 131.596L145.473 139.529C145.35 141.22 145.365 142.92 145.55 144.606C145.766 146.577 146.212 148.634 147.124 148.357L163.572 134.716L164.099 128.521C167.559 132.038 168.633 132.774 170.433 132.494C174.961 131.79 190.803 117.494 190.803 117.494C190.803 117.494 186.322 112.669 186.131 112.225Z" fill="#3DB8DB"/>
<path d="M188.67 119.496C188.652 119.517 188.305 119.263 187.785 118.802C187.266 118.342 186.58 117.666 185.893 116.857C185.207 116.047 184.651 115.26 184.281 114.672C183.91 114.084 183.717 113.7 183.739 113.686C183.766 113.67 184.004 114.026 184.404 114.589C184.803 115.153 185.372 115.918 186.053 116.721C186.734 117.522 187.396 118.208 187.887 118.693C188.377 119.179 188.69 119.472 188.67 119.496Z" fill="black"/>
<path d="M170.453 126.806C170.395 126.796 170.496 125.954 170.679 124.926C170.861 123.898 171.055 123.073 171.112 123.083C171.169 123.093 171.068 123.934 170.885 124.963C170.704 125.991 170.51 126.816 170.453 126.806Z" fill="black"/>
<path d="M172.023 126.419C171.967 126.434 171.723 125.711 171.478 124.804C171.233 123.897 171.08 123.149 171.135 123.134C171.192 123.119 171.435 123.841 171.68 124.749C171.926 125.656 172.079 126.403 172.023 126.419Z" fill="black"/>
<path d="M154.216 115.339C154.227 115.33 154.374 115.517 154.63 115.86C154.906 116.235 155.268 116.727 155.706 117.321C156.613 118.556 157.876 120.253 159.291 122.112C160.705 123.952 161.984 125.616 162.939 126.858C163.387 127.445 163.757 127.931 164.039 128.3C164.296 128.643 164.433 128.837 164.421 128.846C164.41 128.855 164.252 128.679 163.975 128.351C163.699 128.024 163.304 127.546 162.822 126.95C161.857 125.76 160.542 124.101 159.124 122.24C157.707 120.379 156.462 118.666 155.585 117.408C155.147 116.779 154.798 116.267 154.563 115.908C154.328 115.549 154.204 115.347 154.216 115.339Z" fill="black"/>
<path d="M152.111 123.328C152.073 123.371 151.554 122.968 150.954 122.428C150.354 121.887 149.898 121.415 149.937 121.371C149.976 121.328 150.494 121.731 151.095 122.271C151.695 122.811 152.151 123.285 152.111 123.328Z" fill="black"/>
<path d="M150.697 127.886C150.745 127.918 150.423 128.482 149.977 129.144C149.531 129.807 149.13 130.317 149.082 130.285C149.034 130.252 149.357 129.689 149.803 129.026C150.248 128.364 150.649 127.853 150.697 127.886Z" fill="black"/>
<path d="M152.684 134.173C152.639 134.211 152.274 133.847 151.868 133.362C151.462 132.876 151.169 132.452 151.213 132.415C151.258 132.377 151.623 132.741 152.029 133.226C152.435 133.712 152.728 134.136 152.684 134.173Z" fill="black"/>
<path d="M148.847 138.207C148.88 138.255 148.475 138.586 147.944 138.946C147.414 139.306 146.957 139.56 146.925 139.511C146.892 139.463 147.296 139.132 147.827 138.771C148.358 138.412 148.815 138.158 148.847 138.207Z" fill="black"/>
<path d="M154.212 139.272C154.184 139.319 153.635 139.002 153.139 138.411C152.639 137.822 152.418 137.227 152.468 137.207C152.523 137.18 152.819 137.711 153.299 138.274C153.775 138.842 154.248 139.222 154.212 139.272Z" fill="black"/>
<path d="M159.214 135.462C159.252 135.507 158.79 135.964 158.183 136.482C157.575 137.001 157.052 137.386 157.015 137.342C156.977 137.298 157.439 136.841 158.047 136.322C158.654 135.803 159.177 135.418 159.214 135.462Z" fill="black"/>
<path d="M148.921 142.821C148.891 142.868 148.442 142.623 148.007 142.173C147.57 141.727 147.336 141.27 147.383 141.241C147.434 141.208 147.736 141.597 148.157 142.026C148.575 142.458 148.955 142.771 148.921 142.821Z" fill="black"/>
<path d="M160.106 131.866C160.127 131.918 159.643 132.152 159.001 132.289C158.358 132.429 157.822 132.414 157.819 132.358C157.815 132.298 158.332 132.219 158.956 132.083C159.582 131.949 160.085 131.81 160.106 131.866Z" fill="black"/>
<path d="M156.38 127.612C156.435 127.635 156.231 128.27 155.985 129.051C155.772 129.726 155.595 130.292 155.514 130.424L155.469 130.413C155.482 130.389 155.493 130.379 155.5 130.381C155.508 130.383 155.513 130.397 155.515 130.424L155.469 130.413C155.459 130.259 155.569 129.669 155.785 128.989C156.033 128.197 156.328 127.591 156.38 127.612Z" fill="black"/>
<path d="M157.949 124.913C157.915 124.96 157.381 124.63 156.756 124.176C156.131 123.722 155.652 123.316 155.686 123.269C155.72 123.222 156.254 123.551 156.879 124.006C157.504 124.459 157.983 124.866 157.949 124.913Z" fill="black"/>
<path d="M154.749 118.967C154.798 118.995 154.556 119.501 154.153 120.059C153.75 120.618 153.348 121.008 153.305 120.97C153.26 120.931 153.586 120.486 153.982 119.936C154.379 119.387 154.698 118.936 154.749 118.967Z" fill="black"/>
<path d="M149.824 118.16C149.766 118.155 149.77 117.541 149.833 116.789C149.895 116.037 149.993 115.432 150.051 115.437C150.109 115.441 150.105 116.054 150.043 116.807C149.979 117.558 149.882 118.164 149.824 118.16Z" fill="black"/>
<path d="M147.91 127.072C147.853 127.072 147.795 126.413 147.781 125.598C147.768 124.783 147.804 124.122 147.862 124.121C147.919 124.12 147.977 124.78 147.991 125.594C148.004 126.409 147.968 127.07 147.91 127.072Z" fill="black"/>
<path d="M147.643 135.622C147.587 135.638 147.425 135.245 147.283 134.744C147.14 134.244 147.069 133.825 147.124 133.809C147.18 133.793 147.341 134.185 147.484 134.686C147.627 135.187 147.698 135.606 147.643 135.622Z" fill="black"/>
<path d="M154.428 111.491C154.463 111.54 153.963 111.959 153.391 112.521C152.816 113.08 152.386 113.571 152.338 113.534C152.293 113.501 152.658 112.941 153.245 112.37C153.829 111.796 154.396 111.445 154.428 111.491Z" fill="black"/>
<path d="M151.547 110.524C151.489 110.522 151.467 109.923 151.499 109.186C151.53 108.449 151.602 107.853 151.66 107.855C151.718 107.858 151.739 108.457 151.708 109.195C151.677 109.932 151.605 110.527 151.547 110.524Z" fill="black"/>
<path d="M158.609 109.562C158.57 109.608 158.094 109.255 157.492 108.845C156.892 108.433 156.39 108.116 156.418 108.063C156.443 108.013 156.999 108.251 157.61 108.671C158.223 109.088 158.646 109.52 158.609 109.562Z" fill="black"/>
<path d="M157.076 114.609C157.017 114.61 156.958 113.976 156.942 113.193C156.927 112.409 156.961 111.774 157.019 111.772C157.077 111.771 157.136 112.405 157.152 113.189C157.168 113.972 157.134 114.608 157.076 114.609Z" fill="black"/>
<path d="M161.212 117.562C161.19 117.618 160.657 117.452 159.992 117.294C159.327 117.133 158.778 117.038 158.783 116.978C158.787 116.922 159.359 116.924 160.041 117.089C160.723 117.252 161.234 117.51 161.212 117.562Z" fill="black"/>
<path d="M161.493 114.553C161.435 114.553 161.383 114.02 161.377 113.363C161.372 112.704 161.414 112.171 161.472 112.17C161.53 112.17 161.581 112.703 161.587 113.361C161.593 114.018 161.551 114.552 161.493 114.553Z" fill="black"/>
<path d="M164.643 119.602C164.586 119.605 164.509 118.934 164.472 118.104C164.436 117.274 164.453 116.599 164.511 116.596C164.569 116.594 164.646 117.264 164.682 118.095C164.719 118.925 164.701 119.6 164.643 119.602Z" fill="black"/>
<path d="M162.221 121.312C162.178 121.351 161.851 121.052 161.491 120.646C161.131 120.239 160.875 119.878 160.918 119.839C160.961 119.801 161.288 120.099 161.648 120.506C162.007 120.912 162.264 121.273 162.221 121.312Z" fill="black"/>
<path d="M165.285 123.638C165.289 123.696 164.761 123.783 164.105 123.832C163.45 123.881 162.915 123.874 162.91 123.816C162.906 123.758 163.434 123.671 164.09 123.622C164.745 123.573 165.281 123.58 165.285 123.638Z" fill="black"/>
<path d="M167.592 124.821C167.534 124.824 167.465 124.228 167.437 123.492C167.41 122.756 167.434 122.157 167.492 122.154C167.55 122.152 167.619 122.748 167.647 123.484C167.674 124.22 167.65 124.819 167.592 124.821Z" fill="black"/>
<path d="M169.866 129.248C169.866 129.305 169.208 129.35 168.402 129.258C167.596 129.168 166.965 128.977 166.978 128.922C166.99 128.863 167.633 128.96 168.426 129.048C169.218 129.139 169.866 129.188 169.866 129.248Z" fill="black"/>
<path d="M173.772 127.206C173.827 127.225 173.67 127.825 173.422 128.546C173.174 129.267 172.928 129.836 172.873 129.817C172.818 129.798 172.975 129.198 173.223 128.477C173.471 127.756 173.717 127.187 173.772 127.206Z" fill="black"/>
<path d="M176.593 123.632C176.578 123.688 176.02 123.582 175.348 123.396C174.676 123.21 174.144 123.013 174.16 122.957C174.175 122.901 174.732 123.007 175.404 123.193C176.076 123.379 176.608 123.576 176.593 123.632Z" fill="black"/>
<path d="M178.855 124.991C178.894 125.035 178.503 125.446 177.982 125.91C177.461 126.374 177.008 126.714 176.969 126.671C176.931 126.628 177.322 126.216 177.843 125.752C178.364 125.289 178.817 124.948 178.855 124.991Z" fill="black"/>
<path d="M179.765 121.642C179.712 121.66 179.477 121.089 179.344 120.343C179.209 119.597 179.232 118.98 179.288 118.979C179.348 118.976 179.419 119.576 179.551 120.306C179.681 121.036 179.822 121.624 179.765 121.642Z" fill="black"/>
<path d="M184.078 120.875C184.114 120.923 183.516 121.435 182.825 122.113C182.132 122.788 181.607 123.375 181.559 123.337C181.516 123.303 181.975 122.648 182.678 121.962C183.38 121.274 184.044 120.83 184.078 120.875Z" fill="black"/>
<path d="M184.504 119.337C184.483 119.392 183.886 119.215 183.17 118.942C182.454 118.67 181.89 118.405 181.911 118.35C181.931 118.296 182.528 118.473 183.245 118.745C183.96 119.018 184.524 119.283 184.504 119.337Z" fill="black"/>
<path d="M184.092 117.663C184.036 117.679 183.847 117.189 183.669 116.569C183.491 115.949 183.393 115.433 183.448 115.416C183.504 115.4 183.693 115.89 183.871 116.511C184.049 117.131 184.147 117.647 184.092 117.663Z" fill="black"/>
<path d="M161.527 129.315C161.48 129.348 161.141 128.95 160.77 128.425C160.398 127.9 160.136 127.447 160.183 127.414C160.23 127.38 160.57 127.778 160.941 128.303C161.312 128.828 161.575 129.281 161.527 129.315Z" fill="black"/>
<path d="M192.258 149.686C192.254 149.687 192.244 149.628 192.227 149.514C192.209 149.389 192.186 149.22 192.156 149.004C192.096 148.546 192.01 147.888 191.899 147.046C191.671 145.345 191.342 142.884 190.855 139.856C190.365 136.829 189.72 133.233 188.798 129.286C188.695 128.785 188.546 128.312 188.315 127.858C188.068 127.415 187.741 127.014 187.349 126.676C186.553 126.021 185.489 125.638 184.415 125.723C183.881 125.758 183.344 125.89 182.86 126.146C182.376 126.389 181.936 126.748 181.475 127.083C180.564 127.763 179.639 128.453 178.703 129.151C174.971 131.96 171.475 134.716 168.358 137.299C165.233 139.874 162.517 142.3 160.238 144.352C159.084 145.347 157.855 146.145 156.607 146.272C155.994 146.351 155.412 146.244 154.918 146.068C154.422 145.886 154.011 145.629 153.664 145.375C152.973 144.859 152.521 144.364 152.211 144.036C152.066 143.875 151.952 143.748 151.868 143.655C151.792 143.567 151.755 143.521 151.758 143.519C151.76 143.516 151.803 143.557 151.884 143.64C151.972 143.73 152.09 143.851 152.242 144.007C152.56 144.324 153.022 144.809 153.712 145.309C154.059 145.554 154.467 145.802 154.952 145.973C155.436 146.139 156 146.237 156.595 146.155C157.801 146.021 159.001 145.235 160.142 144.239C162.401 142.179 165.116 139.733 168.235 137.149C171.348 134.556 174.843 131.794 178.578 128.983C179.514 128.284 180.44 127.594 181.352 126.915C181.81 126.583 182.251 126.22 182.768 125.96C183.276 125.692 183.842 125.553 184.402 125.517C185.53 125.43 186.644 125.833 187.479 126.522C187.889 126.877 188.231 127.299 188.49 127.764C188.731 128.235 188.888 128.75 188.987 129.242C189.9 133.198 190.531 136.8 191.002 139.833C191.471 142.866 191.778 145.331 191.981 147.035C192.074 147.88 192.148 148.54 192.199 149C192.22 149.217 192.236 149.387 192.249 149.511C192.258 149.626 192.261 149.686 192.258 149.686Z" fill="black"/>
<path d="M196.968 149.46C196.968 149.474 196.824 149.497 196.563 149.524C196.301 149.552 195.922 149.583 195.454 149.616C194.517 149.683 193.221 149.749 191.79 149.812C190.386 149.872 189.117 149.927 188.125 149.97C187.694 149.986 187.324 150 187.014 150.011C186.752 150.018 186.605 150.015 186.604 150C186.603 149.986 186.747 149.961 187.008 149.93C187.269 149.897 187.648 149.861 188.116 149.821C189.052 149.743 190.348 149.664 191.78 149.602C193.184 149.55 194.453 149.504 195.446 149.468C195.878 149.458 196.248 149.449 196.558 149.442C196.821 149.44 196.966 149.446 196.968 149.46Z" fill="black"/>
<path d="M186.638 129.669C186.683 129.699 186.042 130.693 185.059 131.764C184.079 132.839 183.148 133.565 183.114 133.523C183.073 133.476 183.935 132.686 184.904 131.622C185.876 130.562 186.588 129.633 186.638 129.669Z" fill="black"/>
<path d="M187.028 130.897C187.056 130.949 186.269 131.424 185.309 132.02C184.346 132.616 183.571 133.109 183.537 133.06C183.504 133.015 184.23 132.44 185.198 131.841C186.165 131.241 187.002 130.847 187.028 130.897Z" fill="black"/>
<path d="M220.986 150.504C220.985 150.511 220.9 150.509 220.74 150.498C220.557 150.483 220.324 150.465 220.038 150.442C219.401 150.381 218.527 150.298 217.459 150.196C215.259 149.967 212.266 149.653 208.958 149.307C205.639 148.958 202.638 148.57 200.458 148.462C199.368 148.404 198.484 148.41 197.874 148.431C197.587 148.443 197.354 148.454 197.171 148.462C197.011 148.469 196.926 148.47 196.925 148.462C196.924 148.455 197.007 148.44 197.168 148.42C197.327 148.396 197.564 148.374 197.87 148.349C198.481 148.303 199.369 148.274 200.465 148.313C202.659 148.384 205.661 148.748 208.98 149.098C212.285 149.468 215.276 149.802 217.474 150.048C218.54 150.178 219.412 150.284 220.047 150.36C220.332 150.4 220.563 150.431 220.745 150.456C220.904 150.48 220.987 150.496 220.986 150.504Z" fill="black"/>
<path d="M220.474 155.023C220.417 155.016 220.599 152.987 220.882 150.492C221.164 147.996 221.44 145.978 221.498 145.985C221.556 145.991 221.373 148.019 221.09 150.516C220.808 153.011 220.532 155.029 220.474 155.023Z" fill="black"/>
</g>
<defs>
<clipPath id="clip0_620_15478">
<rect width="229" height="156" fill="white"/>
</clipPath>
</defs>
</svg>
