<svg width="140" height="140" viewBox="0 0 140 140" fill="none" xmlns="http://www.w3.org/2000/svg">
<rect width="140" height="140" rx="5" fill="white"/>
<path d="M81.035 67.2144L62.6227 72.7074L46.6042 79.1665L42.1228 80.2474C40.9815 81.2393 39.7848 82.2439 38.4905 83.2611C37.071 84.3799 35.7489 85.3973 34.7328 86.1346C33.6056 86.9484 31.9355 88.4742 31.0866 89.4404C29.8201 90.8899 28.8181 92.4284 28.3866 93.611C27.6211 95.7472 27.9971 97.9087 29.4723 99.9051C31.365 102.448 35.1366 105.042 39.5342 106.809C41.775 107.712 45.5465 108.869 48.3855 109.518C53.1032 110.611 62.2329 111.794 67.2569 111.972C68.2727 112.01 69.6367 112.01 69.6922 111.972C69.8037 111.908 70.5831 110.548 71.4878 108.857C74.5774 103.097 76.8041 97.6926 78.0148 93.0771C78.7384 90.2799 79.309 86.5543 79.6846 82.1423C79.7822 80.9089 79.8238 76.7765 79.7403 75.3777C79.615 73.0891 79.3923 71.2328 79.0446 69.4145C78.9889 69.1474 78.9748 68.9058 79.0028 68.8931C79.0583 68.855 79.2253 68.8042 81.4938 68.2064L81.0348 67.2148V67.2145H81.035V67.2144ZM76.8321 69.4651C76.9991 69.4651 77.4443 73.3685 77.5555 75.8354C77.5835 76.3567 77.5694 76.7 77.5417 76.7C77.4305 76.7 75.1897 75.4922 73.5895 74.5767C72.1977 73.7756 69.5535 72.1734 69.1361 71.8683C68.9966 71.7794 69.0105 71.7667 70.1518 71.4106C72.0861 70.8128 76.679 69.4651 76.8321 69.4651ZM67.4519 72.2879C67.5773 72.2879 67.8971 72.453 68.6626 72.8854C71.5295 74.5257 75.4264 76.5093 77.0964 77.1706C77.6112 77.374 77.6668 77.2976 76.484 78.0352C73.9511 79.6118 70.7918 81.163 66.9228 82.727C66.241 83.0067 65.6704 83.2228 65.6566 83.2228C65.6289 83.2228 65.7121 82.9051 65.8233 82.5236C66.7558 79.3573 67.2848 76.1532 67.3127 73.5847C67.3266 72.3131 67.3266 72.3131 67.4519 72.2752C67.4239 72.2879 67.4378 72.2879 67.4519 72.2879ZM65.5175 72.9617C65.6007 73.0379 65.5452 75.8862 65.4338 76.6617C65.1833 78.5182 64.7937 80.2474 64.1537 82.193C64.0006 82.6631 63.8612 83.0575 63.8336 83.0829C63.7777 83.1464 61.8711 81.4426 61.2448 80.7814C60.1592 79.637 59.3105 78.4927 58.6842 77.3738C58.3641 76.8016 57.8632 75.6828 57.9048 75.6446C58.1274 75.5047 65.4618 72.9109 65.5175 72.9617ZM56.4156 76.2294C56.4294 76.2294 56.4433 76.2294 56.4574 76.2421C56.4852 76.2676 56.5828 76.4711 56.6663 76.6999C57.1115 77.8061 58.1133 79.4336 58.9764 80.4763C59.9228 81.6207 61.1615 82.8412 62.1911 83.6423C62.5253 83.8966 62.8313 84.1381 62.8729 84.1763C62.9566 84.2527 62.9844 84.2398 60.7158 85.0283C58.0858 85.9437 55.2187 86.8592 51.9342 87.8255C51.1496 88.0566 50.3657 88.2897 49.5826 88.5249C49.4571 88.5631 49.4989 88.4994 49.8608 87.9782C51.489 85.6513 53.9661 81.0866 55.3579 77.8569C55.5946 77.2975 55.8311 76.7381 55.873 76.6109C55.9287 76.4328 55.9981 76.3693 56.179 76.2802C56.2764 76.255 56.3739 76.2294 56.4156 76.2294ZM53.6324 77.2848C53.6741 77.3104 52.9643 78.6707 52.2684 79.9168C50.9184 82.3199 49.4432 84.6851 47.467 87.5586C47.1331 88.0544 46.8131 88.5123 46.7712 88.5631C46.7017 88.6522 46.6737 88.6266 46.4511 88.2326C45.9779 87.3806 45.5881 86.287 45.3794 85.2825C45.1706 84.2907 45.2124 82.5616 45.4491 81.4935C45.6298 80.7053 45.6161 80.718 46.0336 80.5272C47.8149 79.7007 53.5767 77.234 53.6324 77.2848ZM77.6392 78.175V78.709C77.6392 81.5444 77.3052 85.4352 76.818 88.2708C76.7345 88.7666 76.6646 89.1734 76.651 89.1863C76.651 89.1863 76.2474 89.0846 75.7742 88.9573C73.6868 88.3596 71.4182 87.4823 69.3724 86.4526C68.0222 85.7786 66.0601 84.6723 66.1158 84.6214C66.1295 84.6088 66.7142 84.329 67.396 83.9984C70.1241 82.7015 72.7402 81.3029 75.0087 79.9169C75.8577 79.3956 77.1379 78.5565 77.4165 78.3275L77.6392 78.175ZM43.1248 81.9384C43.1805 81.9384 43.1665 82.0401 43.0831 82.4979C43.0273 82.8286 42.9578 83.4389 42.9302 83.8583C42.8186 85.7148 43.1528 87.0881 44.1548 88.9698C44.4331 89.4912 44.656 89.9235 44.6418 89.9361C44.5444 90.0125 35.3315 92.4794 32.4365 93.204C31.5737 93.4201 30.8223 93.6109 30.7664 93.6234C30.6691 93.649 30.6552 93.6363 30.6969 93.42C31.0169 91.551 32.5757 89.1097 34.7467 87.0498C36.1941 85.6766 37.3493 84.8756 39.3255 83.8455C40.745 83.1082 42.93 82.0021 43.097 81.9511C43.0971 81.9384 43.111 81.9384 43.1248 81.9384ZM64.8355 85.4859C64.8494 85.4733 65.1833 85.6387 65.5869 85.8547C68.5652 87.4315 72.7124 88.8937 76.2472 89.6438L76.5675 89.7075L76.122 89.9361C74.2712 90.8771 68.1894 93.1912 61.9686 95.3147C61.0638 95.6197 60.1733 95.925 60.006 95.9885C59.839 96.052 59.6859 96.0903 59.6859 96.0776C59.6859 96.0647 59.9366 95.6197 60.2564 95.0731C61.9961 92.0978 63.7498 88.474 64.6404 85.9564C64.752 85.7148 64.8214 85.4988 64.8355 85.4859ZM62.6227 86.1472C62.6368 86.1602 62.5253 86.4269 62.3861 86.7321C61.1754 89.4149 59.5886 92.3396 57.5568 95.62C57.042 96.4593 56.6105 97.1332 56.5964 97.1332C56.5827 97.1332 56.165 96.9042 55.6641 96.6245C52.7135 94.9715 50.0972 92.9371 48.3855 90.9663L48.1349 90.6865L49.4013 90.3686C53.9383 89.2371 57.7931 88.0164 61.6205 86.5161C62.1634 86.3126 62.6088 86.1472 62.6227 86.1472ZM76.3728 90.5339C76.3866 90.8264 75.6768 93.4457 75.0922 95.3401C74.6052 96.9295 74.1875 98.1757 73.4222 100.375C73.0883 101.342 72.7962 102.143 72.7821 102.143C72.7682 102.143 72.6847 102.13 72.6012 102.105C68.4679 101.418 64.7659 100.464 61.2867 99.1928C60.3123 98.8367 58.9207 98.2645 58.8372 98.201C58.8095 98.1753 59.6446 97.8195 60.7022 97.3999C67.0345 94.8696 73.6033 91.9959 75.8577 90.7627C76.1221 90.6101 76.3309 90.5339 76.3728 90.5339ZM44.628 91.5257C44.6558 91.5511 42.8883 93.878 40.411 97.044C39.5482 98.1503 38.5462 99.4471 38.1705 99.9303C37.7947 100.413 37.2242 101.176 36.904 101.634L36.3193 102.461L35.693 101.978C34.9553 101.418 33.6751 100.223 33.1045 99.5616C31.9076 98.2012 31.1005 96.7644 30.7804 95.4549C30.6273 94.8444 30.6273 94.5391 30.7663 94.5012C30.975 94.4503 34.6909 93.6492 38.1704 92.9116C40.1049 92.5049 42.3453 92.0217 43.1526 91.8437C43.9598 91.6654 44.6141 91.5257 44.628 91.5257ZM46.4093 92.1488L46.8545 92.6065C48.8588 94.6536 50.9045 96.167 53.3818 97.4891C53.8272 97.7181 54.1611 97.9214 54.1331 97.9343C54.036 97.9978 45.5324 100.757 41.594 102.003C39.3813 102.715 37.558 103.287 37.5443 103.287C37.5304 103.287 37.4051 103.211 37.2657 103.122L37.0153 102.956L37.4189 102.423C38.727 100.693 40.3695 98.7988 43.9461 94.8571L46.4093 92.1488ZM57.5152 99.409C57.5289 99.3964 58.1413 99.5996 58.8927 99.8542C60.7022 100.477 62.1354 100.871 64.0561 101.316C66.4221 101.863 69.8456 102.397 71.8637 102.55C72.1699 102.575 72.3369 102.601 72.2812 102.639C72.1836 102.69 70.138 103.313 68.6349 103.745C66.241 104.431 58.9346 106.402 52.9782 107.966C51.8787 108.259 50.9323 108.5 50.8767 108.513C50.7377 108.539 50.2782 108.424 50.2782 108.373C50.2782 108.348 50.6122 107.954 51.0159 107.521C53.0198 105.334 55.0101 102.893 56.6663 100.579C57.1254 99.9429 57.5152 99.4217 57.5152 99.409ZM55.0656 99.4727C55.0795 99.4854 54.0915 100.935 52.366 103.427C51.6282 104.482 50.807 105.677 50.5147 106.097C50.2364 106.504 49.8189 107.14 49.5824 107.496L49.1788 108.144L48.9701 108.093C48.4689 107.966 44.948 106.834 44.0155 106.491C42.8603 106.072 41.6635 105.563 40.7727 105.131C39.6595 104.584 38.2679 103.77 38.3791 103.745C38.4069 103.732 40.3136 103.262 42.6097 102.69C48.7055 101.176 52.0872 100.299 54.3003 99.6633C54.7039 99.5489 55.0518 99.4598 55.0656 99.4727ZM72.3924 103.185H72.4062C72.4619 103.313 70.2076 109.034 69.3861 110.84C69.2054 111.247 69.1361 111.349 69.0384 111.336C68.8018 111.323 65.5314 110.903 63.5411 110.636C60.0759 110.153 54.2585 109.225 52.7973 108.92L52.4633 108.856L54.5367 108.424C58.9903 107.508 61.1335 107.012 63.3044 106.402C66.0462 105.639 68.7602 104.686 71.5017 103.516C71.9331 103.338 72.295 103.198 72.3924 103.185Z" fill="url(#paint0_linear_1023_4672)"/>
<path d="M62.0513 28.0007C61.7451 27.9627 56.8044 29.5902 53.6175 30.7726C49.3171 32.3749 45.9772 33.9008 43.9173 35.2228C43.152 35.7189 42.1916 36.5962 42.0387 36.9394C41.9831 37.0666 41.9551 37.2191 41.9551 37.3717L43.8201 38.9865L48.2595 40.2835L58.8226 42.0128L70.9025 43.9073L71.0278 42.9537C70.9861 42.9537 70.9582 42.941 70.9168 42.941L69.3298 42.7121L69.0099 42.1908C67.3677 39.546 65.5585 36.2655 64.5008 34.0531C63.6798 32.3365 62.9004 30.3532 62.4689 28.929C62.2322 28.0644 62.2045 28.0136 62.0516 28.0009V28.0006H62.0513V28.0007ZM61.8284 28.6493H61.8427C61.8564 28.6619 61.9121 29.0181 61.9678 29.4375C62.2042 31.2178 62.636 32.9341 63.3178 34.7906C63.8326 36.1893 63.8326 36.1131 63.2343 35.9477C61.8148 35.5918 55.4547 34.5872 50.8482 34.0024C50.1105 33.9133 49.4842 33.8243 49.4842 33.8117C49.4286 33.7608 52.8103 32.1459 54.2995 31.5103C56.2061 30.7091 61.4389 28.7128 61.8284 28.6493ZM48.4124 34.3456L48.9554 34.5107C51.9056 35.4263 59.3232 36.7233 63.4151 37.0285C63.8742 37.0666 64.2641 37.1049 64.2777 37.1049C64.2916 37.1175 63.9022 37.3083 63.401 37.5243C61.425 38.4271 59.2539 39.5334 57.7508 40.3853C57.3056 40.6395 56.9018 40.8431 56.8463 40.8431C56.7906 40.8431 56.4984 40.7922 56.1922 40.754L55.6356 40.6776L54.244 39.4315C51.7946 37.2573 49.874 35.579 49.1363 34.9431L48.4124 34.3456ZM47.8559 34.7397L49.8182 36.9776C50.8897 38.211 51.9753 39.4188 52.2121 39.6858C52.4484 39.9529 52.6434 40.1692 52.6295 40.1819C52.5738 40.22 49.7906 39.724 48.3152 39.419C46.7982 39.101 46.172 38.9484 45.2396 38.6815L44.4741 38.4526V38.2744C44.4879 37.4225 45.671 36.1511 47.675 34.8543L47.8559 34.7397ZM64.5285 37.7913C64.5843 37.7913 64.6536 37.9057 64.8206 38.249C65.2938 39.2026 66.7693 41.7712 67.1308 42.267C67.2425 42.4325 67.437 42.4451 65.4749 42.1527C60.7571 41.4532 59.24 41.2245 59.24 41.1991C59.24 41.1864 59.3792 41.0974 59.5601 41.0083C61.0215 40.271 62.4966 39.33 63.8049 38.3254C64.125 38.0838 64.4173 37.855 64.4728 37.8167C64.4866 37.7913 64.5146 37.7787 64.5285 37.7913Z" fill="url(#paint1_linear_1023_4672)"/>
<path d="M42.1361 36.7607C42.1361 36.7607 41.8301 37.2059 42.1223 37.8672C42.3034 38.2739 42.8321 38.7697 43.4305 39.2784C43.4305 39.2784 49.6235 44.7967 50.3751 45.5851C53.7985 49.1961 55.2878 52.7564 55.427 57.6644C55.5104 60.8178 54.8562 63.5896 53.228 66.8066C50.3332 72.5793 44.2235 78.9496 34.8018 86.0192L36.1798 85.5995C37.0704 84.9891 38.2812 84.3408 41.1202 82.9167C47.675 79.636 55.0511 76.6225 64.0973 73.5201C77.1233 69.0443 98.5419 63.8056 110.733 62.102L112 61.9238L111.805 61.6441C110.692 60.0674 109.926 59.0884 109.007 58.0458C106.335 55.0196 103.093 52.5657 99.1263 50.5312C93.6709 47.7467 86.6147 45.5725 77.6802 43.9576C75.9962 43.6523 72.2943 43.0675 69.2882 42.6479C62.9141 41.7454 58.7947 41.1222 54.2578 40.4102C52.6297 40.1558 50.194 39.7744 48.5796 39.4566C47.7446 39.2911 46.1443 38.9479 44.8918 38.5538C43.8898 38.1976 42.4423 37.8415 42.1361 36.7607ZM45.7269 39.9396C45.7406 39.9271 45.9633 40.0031 46.2557 40.0922C46.7845 40.2573 47.4664 40.4481 48.2738 40.6517C48.8846 40.8052 49.497 40.9535 50.1108 41.0967C50.9458 41.2873 51.6415 41.4654 51.6554 41.4654C51.753 41.5544 53.1587 45.6611 53.6319 47.2378C53.8125 47.8356 53.952 48.3441 53.938 48.3441C53.9237 48.357 53.7709 48.1406 53.59 47.8482C51.9617 45.2289 49.387 42.5715 46.4087 40.4353C46.0192 40.1812 45.7269 39.9523 45.7269 39.9396ZM52.574 41.6689C52.6437 41.6689 52.9499 41.707 53.3254 41.7833C55.6914 42.2664 59.9361 43.0039 62.6499 43.4236C63.1092 43.4871 63.4711 43.5635 63.4711 43.5888C63.4711 43.6143 63.3039 43.7032 63.0951 43.805C62.6361 44.0211 60.7849 45.0255 60.1728 45.407C58.6278 46.3479 57.2363 47.3651 56.2342 48.2806C55.8306 48.6494 55.4825 48.9545 55.4825 48.9545C55.4825 48.9545 55.3993 48.7384 55.3294 48.4712C54.8287 46.7038 53.7847 44.0845 52.8384 42.2409C52.6853 41.9486 52.5599 41.6815 52.5599 41.6561C52.5599 41.6815 52.5599 41.6689 52.574 41.6689ZM64.6261 43.7669C64.7096 43.7922 64.8488 44.2245 65.1271 45.1781C65.6421 47.0219 65.8787 49.0817 65.7952 51.0017C65.7672 51.5357 65.7395 52.0315 65.7115 52.0953L65.6699 52.2223L64.9462 52.0062C63.4571 51.5739 61.0356 50.9253 58.9621 50.3914C57.7789 50.0989 56.8189 49.8319 56.8189 49.8065C56.8189 49.7301 58.5447 48.1535 59.2822 47.556C60.6875 46.4241 64.5008 43.7286 64.6261 43.7669ZM65.5864 43.8939C65.6282 43.8559 71.3481 44.7585 73.9506 45.2163C75.8852 45.5595 78.6964 46.0936 78.8633 46.1573C78.9468 46.1826 78.6544 46.3352 77.722 46.7166C74.048 48.2298 71.3201 49.5901 68.6065 51.2433C67.8968 51.6756 67.2982 52.0315 67.2844 52.0315C67.2705 52.0315 67.2566 51.6629 67.2566 51.2178C67.2566 48.802 66.7277 46.3607 65.7533 44.3009C65.656 44.0974 65.5725 43.9068 65.5864 43.8939ZM80.3802 46.5642C80.422 46.6023 80.241 47.6323 80.074 48.2425C79.573 50.1371 78.2231 52.9473 76.5672 55.5918C76.2746 56.0623 76.0103 56.4438 75.9823 56.4565C75.9547 56.4691 75.5789 56.2783 75.1474 56.0495C73.5331 55.1849 71.6961 54.3711 69.6919 53.6081C69.1354 53.3921 68.6482 53.214 68.6343 53.1887C68.5367 53.1123 73.0181 50.404 75.384 49.1071C77.2628 48.0645 80.3245 46.5132 80.3802 46.5642ZM81.4378 46.7167C81.5631 46.7167 84.0961 47.3525 85.418 47.7085C88.6886 48.5986 92.4461 49.8573 94.8955 50.8745L95.9113 51.2943L95.2018 51.4467C89.2176 52.7054 84.0961 54.1551 79.1554 55.986C78.7518 56.1386 78.3899 56.2658 78.3624 56.2658C78.3344 56.2658 78.4736 55.9734 78.6545 55.6172C80.1437 52.731 81.1039 49.7175 81.3403 47.1489C81.3545 46.9073 81.396 46.7167 81.4378 46.7167ZM56.2203 52.0062C56.262 51.968 58.1965 52.3877 59.2403 52.6545C60.8268 53.0615 64.1946 54.0913 64.1946 54.1677C64.1946 54.1804 63.819 54.4728 63.3738 54.829C61.5506 56.2149 59.7969 57.6769 57.6953 59.5334C57.069 60.0803 56.5404 60.5253 56.5126 60.5253C56.4847 60.5253 56.471 60.4488 56.4846 60.3472C56.8047 58.211 56.7353 55.4646 56.2899 52.68C56.248 52.3239 56.2064 52.0189 56.2203 52.0062ZM96.872 52.0444C96.8995 52.0697 95.9811 53.3921 95.3967 54.1422C94.5618 55.2356 93.3367 56.6854 90.5673 59.8642C89.1063 61.5424 87.4638 63.4371 86.9212 64.0728C86.3643 64.7085 85.9053 65.2424 85.8911 65.2424C85.8773 65.2424 85.6966 65.0137 85.5017 64.734C83.9429 62.5978 82.0779 60.7287 79.8651 59.0503C79.4476 58.7323 78.9886 58.389 78.8354 58.2873C78.6823 58.1856 78.557 58.0839 78.557 58.0712C78.557 58.0332 80.9226 57.1048 82.7183 56.4437C85.8636 55.2739 90.1495 53.8753 93.3647 52.9724C95.0487 52.4894 96.844 52.0189 96.872 52.0444ZM97.9435 52.2986C97.999 52.286 98.3332 52.4385 98.7368 52.6545C102.119 54.4219 105.431 56.698 108.047 59.0376C108.785 59.6989 110.608 61.4281 110.58 61.4408C110.58 61.4408 109.94 61.4916 109.188 61.5424C103.329 61.9494 95.8283 63.0809 88.6191 64.6702C88.1321 64.7718 87.7007 64.8609 87.6728 64.8609C87.6452 64.8609 88.1878 64.3651 88.8699 63.7675C93.1005 60.042 95.0351 57.6898 97.3173 53.4937C97.6373 52.8708 97.9158 52.3368 97.9435 52.2986C97.9296 52.2986 97.9296 52.2986 97.9435 52.2986ZM66.9502 55.1978C67.1452 55.2357 68.9544 56.0116 70.3182 56.6345C71.5707 57.2064 73.4496 58.1221 73.547 58.1983C73.5609 58.211 72.8927 58.5289 72.072 58.8977C69.4553 60.0929 67.2148 61.2244 64.8766 62.5214C64.2086 62.8902 63.652 63.1955 63.6381 63.1955C63.5824 63.1955 63.5963 63.1444 63.9721 62.5214C65.2247 60.4363 66.2266 57.9441 66.7973 55.5154C66.8528 55.3248 66.9086 55.1978 66.9502 55.1978ZM65.1409 55.5028C65.1828 55.541 64.7096 57.1048 64.4175 57.9568C63.8467 59.5716 62.8865 61.5933 61.9542 63.1191C61.7312 63.4749 61.3973 63.9963 61.2164 64.2887L60.8686 64.7973L60.0892 64.1109C59.1847 63.3098 58.4469 62.8139 57.5008 62.3688C57.1247 62.1909 56.8326 62.0382 56.8326 62.0129C56.8326 61.9112 59.2124 59.9404 61.0356 58.5163C62.3437 57.4863 65.0993 55.4647 65.1409 55.5028ZM76.2053 59.6607L76.8873 60.0674C78.4456 60.9958 80.2826 62.229 81.6885 63.3098C82.4816 63.9073 84.0124 65.1662 84.3188 65.4714L84.4855 65.6368L83.3585 65.9292C76.9844 67.5438 72.0578 68.9807 66.31 70.9135C65.6699 71.1295 65.1271 71.3076 65.0852 71.3076C65.002 71.3076 64.9322 71.3711 66.3658 70.1631C70.04 67.0736 73.2964 63.6657 75.718 60.3471L76.2053 59.6607ZM73.2965 60.3218C73.3242 60.3472 71.4177 62.8011 70.2764 64.1871C68.9125 65.8401 66.4909 68.6119 64.8209 70.4173C64.1252 71.1677 63.5269 71.7906 63.4989 71.8034C63.4571 71.8161 63.4432 71.6254 63.4432 71.3329C63.4432 69.7943 63.0119 68.1541 62.2602 66.7555C61.9401 66.1706 61.8844 66.0307 61.9542 65.9672C62.2186 65.751 66.2684 63.6403 68.829 62.3816C70.5548 61.5424 73.2544 60.2964 73.2965 60.3218ZM55.7052 64.2635C55.7471 64.2635 56.0672 64.416 56.4291 64.5941C57.3197 65.0391 58.113 65.5349 58.8227 66.0691C58.8505 66.0944 58.4888 66.3616 58.0156 66.6792C56.6934 67.5438 54.6894 68.9299 53.5206 69.7818C52.2956 70.6719 52.2541 70.6973 52.3931 70.5066C53.3117 69.2224 53.7708 68.4976 54.2581 67.5695C54.6894 66.7431 55.1208 65.764 55.427 64.912C55.5382 64.5433 55.6775 64.2635 55.7052 64.2635ZM60.3955 67.6202C60.4648 67.6076 60.5486 67.7219 60.9241 68.2306C61.7174 69.3112 62.3298 70.7609 62.4831 71.9307L62.5107 72.1851L60.6043 72.859C57.1944 74.0668 54.0493 75.2621 51.9198 76.152C51.3215 76.4064 50.2777 76.8641 49.5958 77.1694C48.9138 77.4871 48.3572 77.7287 48.3572 77.7161C48.3572 77.7034 48.7885 77.4109 49.3173 77.0548C53.4788 74.2958 57.0832 71.2694 59.783 68.2433C60.0753 67.9254 60.3399 67.6329 60.3675 67.6202L60.3955 67.6202ZM58.2383 68.1035C58.294 68.1543 56.7075 69.7945 55.622 70.7989C52.936 73.3039 50.2778 75.2621 46.9794 77.1694C46.5619 77.4109 46.1862 77.627 46.1444 77.6526C46.0469 77.7034 46.1721 77.5762 47.6195 76.1393C48.5382 75.2366 49.2339 74.4737 50.0272 73.5329C50.556 72.91 50.6535 72.8209 51.419 72.3248C53.4649 70.977 58.1826 68.0525 58.2383 68.1035Z" fill="url(#paint2_radial_1023_4672)"/>
<defs>
<linearGradient id="paint0_linear_1023_4672" x1="41.8523" y1="103.691" x2="48.1856" y2="99.595" gradientUnits="userSpaceOnUse">
<stop stop-color="#909CA9"/>
<stop offset="1" stop-color="#EDEDEE"/>
</linearGradient>
<linearGradient id="paint1_linear_1023_4672" x1="42.0039" y1="35.9291" x2="47.361" y2="35.9291" gradientUnits="userSpaceOnUse">
<stop stop-color="#939FAB"/>
<stop offset="1" stop-color="#DCDEE1"/>
</linearGradient>
<radialGradient id="paint2_radial_1023_4672" cx="0" cy="0" r="1" gradientUnits="userSpaceOnUse" gradientTransform="translate(69.0361 58.3758) rotate(-172.186) scale(6.89418 12.6467)">
<stop stop-color="#EE352C"/>
<stop offset="1" stop-color="#A91D22"/>
</radialGradient>
</defs>
</svg>
