<svg width="140" height="140" viewBox="0 0 140 140" fill="none" xmlns="http://www.w3.org/2000/svg">
<rect width="140" height="140" rx="5" fill="white"/>
<path d="M28.5587 47.1235L29.5887 49.43C29.813 49.846 30.074 50.2323 30.3674 50.5821C31.2302 51.6093 32.0513 52.686 32.7865 53.8393C34.5329 56.5699 35.7113 59.6021 36.5532 62.8851C37.0579 64.89 37.3319 66.9445 37.3527 69.0237C37.4378 75.2376 35.648 80.574 32.0287 85.0091C31.4422 85.7122 30.8089 86.3575 30.1349 86.9387C29.7758 86.9387 29.6086 86.6012 29.4611 86.312C29.1776 85.7495 29.0189 85.134 28.9348 84.5085C28.8082 83.7569 28.7241 83.0053 28.7666 82.2279V81.8769C28.7458 81.8015 28.4302 47.3002 28.5558 47.1247L28.5587 47.1235Z" fill="#599636"/>
<path d="M28.5589 47.0498C28.5164 46.9485 28.4739 47.025 28.4323 47.0746C28.4531 47.5752 28.3056 48.0264 28.0732 48.4528C27.8209 48.8803 27.4835 49.2044 27.1471 49.5554C25.2741 51.485 23.8019 53.815 22.6225 56.4208C21.0652 59.9289 20.2449 63.6867 20.0144 67.6459C19.9104 69.0748 20.3923 74.1108 20.7722 75.5633C21.8023 79.4224 23.6544 82.6537 26.0641 85.4597C26.6538 86.1348 27.2851 86.7626 27.9371 87.3634C28.1261 87.3634 28.1478 87.1631 28.1894 87.0123C28.2723 86.6924 28.3355 86.3656 28.3784 86.0346C28.5674 84.7824 28.6732 83.529 28.7989 82.2768L28.5674 47.0498H28.5589Z" fill="#6CAC48"/>
<path d="M29.5919 88.4681C29.6344 87.892 29.8754 87.4161 30.1183 86.9402C29.866 86.8164 29.676 86.5644 29.5286 86.2876C29.402 86.0367 29.2971 85.7251 29.213 85.4607C28.9181 84.4087 28.8539 83.3061 28.7707 82.2282V81.5757C28.6668 81.6769 28.6441 82.5275 28.6441 82.6535C28.5808 83.8056 28.4551 84.9341 28.2661 86.0356C28.2028 86.4856 28.1622 86.9379 27.9297 87.3385C27.9297 87.3891 27.9297 87.4397 27.9505 87.514C28.3285 88.8416 28.4343 90.1951 28.4986 91.5734V92.074C28.4986 92.6748 28.4778 92.5499 28.8983 92.7491C29.0665 92.8245 29.2574 92.8503 29.4247 93C29.5513 93 29.5721 92.8762 29.5721 92.775L29.5088 91.948V89.6416C29.488 89.241 29.5513 88.8394 29.5938 88.4636L29.5919 88.4681Z" fill="#C2BFBF"/>
<path d="M45.5724 77.9866V80.3728C45.5701 80.4673 45.5746 80.5618 45.5859 80.6554C45.6119 80.938 45.7576 81.1103 45.9719 81.1896C46.1717 81.2523 46.3748 81.2995 46.5798 81.3309C46.6985 81.347 46.738 81.409 46.7515 81.5607C46.765 82.0949 46.7255 82.1581 46.2903 82.1259C45.2752 82.0628 44.2591 82.0478 43.244 82.1259H43.1475C42.831 82.142 42.8049 82.1099 42.8049 81.733C42.8049 81.6698 42.8184 81.5917 42.8184 81.5285C42.8184 81.4136 42.884 81.3562 42.9767 81.3562C43.1889 81.3252 43.3858 81.262 43.5846 81.2149C43.8615 81.1368 44.0188 80.9323 44.0458 80.6025C44.0844 80.2418 44.0844 79.865 44.0844 79.5031L44.0979 75.2959C44.1023 75.1739 44.0774 75.0529 44.0261 74.9471C43.9748 74.8413 43.8993 74.7551 43.8084 74.6985C43.5698 74.5407 43.3174 74.4143 43.0558 74.3217C42.9767 74.2906 42.8975 74.2757 42.8319 74.2275C42.6389 74.1172 42.6341 73.9138 42.8184 73.7874C42.884 73.7415 42.9632 73.7093 43.0423 73.6932C43.8426 73.5526 44.6288 73.3159 45.389 72.9867C45.5473 72.9235 45.5868 72.9407 45.6013 73.128C45.6148 73.2429 45.6013 73.3807 45.5878 73.4887C45.5617 73.6932 45.5618 73.8966 45.5618 74.0861C45.5618 74.1643 45.5753 74.2435 45.6409 74.2906C45.7065 74.3378 45.7731 74.2906 45.8339 74.2447C46.1108 73.9919 46.3877 73.7576 46.6907 73.5554C47.125 73.2727 47.5881 73.0211 48.0899 72.943C48.6978 72.8488 49.2237 73.0372 49.6859 73.5083C49.877 73.7119 50.0454 73.944 50.1867 74.1987C50.3189 74.4285 50.3315 74.4343 50.5032 74.2769C51.005 73.8368 51.5319 73.4451 52.0993 73.1625C52.6927 72.8637 53.2997 72.8178 53.9056 73.0682C54.5251 73.3348 54.9478 73.8529 55.1987 74.5595C55.411 75.1247 55.5017 75.7084 55.5017 76.3173V80.5244C55.5017 80.807 55.5982 80.984 55.8317 81.1218C56.0826 81.2367 56.3595 81.2942 56.6229 81.3573C56.7947 81.4033 56.7947 81.4033 56.7947 81.6101C56.7686 82.1271 56.7291 82.1593 56.3064 82.1271C55.2481 82.0565 54.1872 82.0565 53.1289 82.1271C52.9166 82.1432 52.9166 82.1432 52.905 81.8916V81.8134C52.8915 81.3884 52.8915 81.3884 53.235 81.2965L53.5776 81.1862C53.6936 81.1536 53.7971 81.0756 53.8713 80.9645C53.9455 80.8534 53.9862 80.7158 53.9867 80.5738L54.0253 79.3962L53.9992 76.3196C53.9891 76.0448 53.9402 75.7741 53.8545 75.5188C53.5245 74.5606 52.7998 74.216 52.1002 74.3102C51.5724 74.3734 51.1112 74.6238 50.676 74.9857C50.5833 75.0638 50.5177 75.158 50.5312 75.3154C50.6499 76.3207 50.5698 77.326 50.5843 78.3301V80.5129C50.5843 80.9058 50.7165 81.0943 51.033 81.1885L51.6409 81.3459C51.7335 81.3619 51.7857 81.409 51.7857 81.5343V81.6492C51.7721 82.0892 51.7471 82.1087 51.3765 82.1041C50.3218 82.0409 49.2662 82.0582 48.225 82.1041C47.868 82.1202 47.839 82.0731 47.8554 81.6446C47.8689 81.3918 47.894 81.378 48.0928 81.3309L48.527 81.2367C48.913 81.1425 49.0549 80.9702 49.0809 80.4831L49.1195 79.4307L49.0935 76.2747C49.0674 75.8818 48.997 75.505 48.8165 75.1443C48.5531 74.5629 48.1411 74.2654 47.5766 74.2332C47.0092 74.1872 46.5084 74.4377 46.0326 74.7502C45.7026 74.98 45.5579 75.2523 45.5839 75.7084V78.0003L45.5724 77.9866ZM70.4168 78.0819V80.2958C70.419 80.4532 70.4277 80.6104 70.4429 80.7668C70.4485 80.8711 70.4824 80.9703 70.5395 81.0497C70.5966 81.129 70.6737 81.1842 70.7594 81.2068C70.9869 81.2858 71.2214 81.3332 71.458 81.3482C71.5902 81.3642 71.6163 81.4263 71.6298 81.5527V81.6629C71.6163 82.2121 71.5642 82.2753 71.1155 82.2443C70.1119 82.1661 69.1113 82.1811 68.1087 82.2443L67.7227 82.2604C67.6436 82.2604 67.6262 82.2144 67.604 82.1501C67.5655 81.9326 67.5655 81.708 67.604 81.4906C67.6175 81.3964 67.6696 81.3757 67.7488 81.3493C67.9418 81.3183 68.1058 81.2712 68.2891 81.2344C68.6191 81.1402 68.7378 80.9817 68.7504 80.575L68.789 79.2561V75.3936C68.789 75.1109 68.6963 74.9386 68.486 74.8122C68.2486 74.6548 67.9977 74.5457 67.7333 74.4354C67.6542 74.4044 67.5751 74.3722 67.5095 74.3251C67.3377 74.1838 67.3165 73.9805 67.4834 73.8231C67.5583 73.7498 67.6502 73.7057 67.7468 73.6967C68.5912 73.5393 69.4085 73.3199 70.1997 72.943C70.2924 72.8971 70.3319 72.9269 70.3715 73.0211C70.4111 73.1154 70.4246 73.2256 70.4101 73.3348L70.3715 74.0724C70.3715 74.1666 70.3329 74.3021 70.3975 74.3389C70.4767 74.4021 70.5297 74.2608 70.5954 74.224C70.9847 73.8351 71.4148 73.508 71.8749 73.2509C72.284 73.0211 72.7047 72.8741 73.1805 72.9063C74.0643 72.9694 74.6973 73.5037 75.1055 74.4297C75.3178 74.9168 75.4085 75.4499 75.4481 76.0002L75.4867 77.149L75.5002 80.6186C75.5137 80.8852 75.5928 81.0586 75.8167 81.1528C76.0488 81.2449 76.287 81.3133 76.5288 81.3573C76.7411 81.3884 76.7527 81.4355 76.7662 81.671V81.7491C76.7401 82.2833 76.7131 82.2983 76.2644 82.2661C75.2806 82.2033 74.2946 82.2033 73.3107 82.2661C73.1785 82.2822 73.0473 82.2661 72.9247 82.2822C72.8456 82.2822 72.7925 82.2661 72.78 82.1719C72.7539 81.9674 72.7269 81.764 72.7665 81.5435C72.78 81.4493 72.8196 81.4022 72.9112 81.3861L73.5191 81.2712C73.7314 81.208 73.8492 81.0414 73.8762 80.8116L73.9022 80.3716L73.8887 77.0904C73.8887 76.7136 73.8752 76.3368 73.8096 75.96C73.6513 75.1557 73.137 74.5813 72.4394 74.5009C71.8315 74.4228 71.2814 74.6112 70.7777 75.0029C70.5268 75.1914 70.4207 75.4579 70.4207 75.7876V78.1589C70.4207 78.1129 70.4207 78.1129 70.4342 78.1129L70.4168 78.0819Z" fill="#47474A"/>
<path d="M109.04 73.6391C108.895 72.4926 108.538 71.4724 107.919 70.5774C107.379 69.7868 106.68 69.1711 105.888 68.7875C105.058 68.3796 104.173 68.2532 103.276 68.2222C102.907 68.2061 97.8699 68.3003 97.5003 68.2222C97.4077 68.2061 97.3421 68.2383 97.288 68.3325C97.2224 68.4474 97.1558 68.568 97.1163 68.6933C96.958 69.1183 96.958 69.0862 97.3401 69.1482C97.6566 69.2114 97.9596 69.2424 98.2636 69.3527C98.5405 69.463 98.7383 69.6514 98.804 70.0122C98.83 70.1845 98.857 75.7106 98.857 78.2863L98.804 80.1245C98.7904 80.2658 98.7779 80.4071 98.7383 80.5324C98.6853 80.7208 98.5936 80.877 98.4353 80.9574C98.2612 81.055 98.0734 81.1134 97.8815 81.1298C97.5244 81.1757 97.4723 81.193 97.3536 81.664L97.315 81.8363C97.289 82.0408 97.3015 82.0719 97.4733 82.0719L101.416 82.1178L102.96 82.0868L104.028 81.9294C105.241 81.6629 106.323 81.0654 107.245 80.1084C107.772 79.5543 108.202 78.8821 108.511 78.1301C108.881 77.2512 109.039 76.2919 109.079 75.3199C109.144 74.7708 109.117 74.2055 109.04 73.6403V73.6391ZM107.128 75.868C107.075 76.8732 106.904 77.8463 106.469 78.7252C105.915 79.8718 105.123 80.6725 104.029 80.954C103.554 81.0689 103.08 81.1263 102.582 81.0482C102.225 81.0023 101.883 80.954 101.553 80.8127C100.96 80.5599 100.748 80.1234 100.736 79.434L100.722 69.9674C100.722 69.4021 100.935 69.278 101.276 69.2608C101.79 69.2148 102.318 69.2298 102.833 69.2918C103.38 69.3549 103.917 69.5096 104.429 69.7514C104.808 69.9398 105.16 70.1997 105.471 70.5211C106.183 71.2449 106.658 72.1525 106.918 73.221C107.13 74.0849 107.169 74.9638 107.13 75.8427L107.128 75.868ZM120 77.4074C120 77.3132 120 77.2351 119.986 77.1409C119.868 76.277 119.485 75.6175 118.892 75.1154C118.51 74.7857 118.075 74.5663 117.626 74.4089C117.547 74.3779 117.481 74.3457 117.402 74.3308C117.416 74.2526 117.455 74.2366 117.495 74.2205C117.758 74.0631 118.009 73.8907 118.233 73.6552C118.642 73.2474 118.909 72.7442 119.05 72.1318C119.13 71.8021 119.13 71.4724 119.104 71.1266C119.082 70.722 118.984 70.3285 118.818 69.975C118.651 69.6216 118.419 69.3174 118.141 69.085C117.533 68.5508 116.821 68.3314 116.083 68.3153C114.659 68.2843 113.222 68.3153 111.799 68.3153C111.39 68.3153 110.982 68.3463 110.559 68.2693C110.48 68.2532 110.366 68.2234 110.308 68.3325C110.212 68.537 110.096 68.7404 110.057 68.9759C110.044 69.0862 110.071 69.1482 110.176 69.1643L111.086 69.3217C111.443 69.3849 111.694 69.6204 111.719 69.9972C111.745 70.2576 111.758 70.5197 111.757 70.7819L111.731 73.7173L111.718 79.526C111.718 79.8706 111.679 80.2015 111.625 80.5462C111.612 80.6556 111.573 80.7582 111.512 80.8418C111.451 80.9253 111.372 80.9862 111.283 81.0172C111.019 81.1114 110.768 81.2056 110.491 81.2056C110.417 81.1972 110.343 81.2191 110.281 81.2675C110.219 81.3159 110.172 81.3881 110.149 81.4721C110.096 81.6135 110.052 81.7708 110.03 81.9122C110.004 82.1006 110.044 82.1649 110.202 82.1419C110.321 82.1258 114.672 82.2522 115.49 82.158C115.978 82.0948 116.455 82.0167 116.94 81.8444C117.77 81.5307 118.536 81.0746 119.142 80.3049C119.644 79.6765 119.933 78.9228 119.959 78.0439C119.998 77.8394 119.998 77.6361 119.998 77.4155L120 77.4074ZM113.604 70.9738L113.643 69.7181C113.643 69.4825 113.722 69.3734 113.92 69.3251C114.236 69.247 114.553 69.2792 114.869 69.2941C115.186 69.3251 115.489 69.3722 115.805 69.4825C116.384 69.687 116.834 70.0799 117.098 70.7382C117.218 71.0376 117.281 71.3648 117.283 71.6964C117.296 72.1364 117.269 72.5604 117.124 72.9831C116.901 73.5645 116.545 73.9413 116.03 74.0516C115.515 74.1619 114.052 74.1148 113.828 74.1148C113.63 74.1148 113.616 74.0838 113.616 73.8482V72.3696C113.585 71.9099 113.58 71.4481 113.602 70.9876L113.604 70.9738ZM117.889 79.4203C117.665 80.1268 117.256 80.6151 116.676 80.8793C116.359 81.0206 116.043 81.1091 115.711 81.0838C115.302 81.0677 114.893 81.0838 114.485 80.9896C113.931 80.8483 113.681 80.2199 113.641 79.7649C113.575 78.9642 113.615 78.1473 113.602 77.551V75.4785C113.602 75.2257 113.628 75.1488 113.853 75.1488L115.093 75.1648L115.938 75.2797C116.531 75.4371 117.071 75.7048 117.494 76.2528C117.837 76.6928 118.022 77.2259 118.061 77.8072C118.1 78.3564 118.075 78.8906 117.903 79.4088L117.889 79.4203Z" fill="#C2BFBF"/>
<path d="M84.3822 74.6912L84.7247 74.7544C85.0943 74.7705 85.5295 74.6131 85.6607 74.0007C85.7331 73.7082 85.7331 73.3971 85.6607 73.1046C85.5816 73.1046 85.542 73.1827 85.5025 73.2149C85.3047 73.4033 85.0808 73.5136 84.8434 73.5446C84.3687 73.6078 83.8939 73.5756 83.4327 73.3723L82.7862 73.1057C82.3352 72.9299 81.8607 72.8559 81.387 72.8875C80.7144 72.9506 80.0814 73.2172 79.488 73.594C78.855 74.0019 78.4072 74.6142 78.1949 75.4471C78.0763 75.9343 78.0627 76.4352 78.1158 76.9384C78.248 78.0849 78.7488 78.8857 79.6453 79.3096C79.6983 79.3257 79.7379 79.3556 79.79 79.3728C79.9087 79.451 79.9222 79.5302 79.8161 79.6394L79.486 79.9059L78.6948 80.4872C78.497 80.6285 78.4709 80.74 78.5365 80.9893C78.615 81.2826 78.7611 81.5437 78.9582 81.7429C79.1392 81.9278 79.3442 82.0764 79.5652 82.183C79.7099 82.2611 79.7099 82.2979 79.5787 82.4357L78.826 83.0791C78.5751 83.3089 78.3243 83.5386 78.1139 83.8327C77.9676 84.0191 77.8622 84.2456 77.807 84.4921C77.7518 84.7386 77.7485 84.9975 77.7974 85.2459C77.8955 85.7909 78.1352 86.2853 78.4825 86.659C78.8254 87.037 79.2424 87.3068 79.6954 87.4436C80.4336 87.6964 81.1988 87.7102 81.9505 87.5379C83.0313 87.3023 83.9769 86.7336 84.7199 85.764C85.2342 85.1206 85.5372 84.367 85.5642 83.4663C85.593 82.9453 85.4657 82.4291 85.2049 82.0095C84.9441 81.5898 84.5668 81.2939 84.14 81.1743L83.4278 81.0169L81.2519 80.7871C81.0145 80.771 80.7771 80.7239 80.5793 80.5826C80.3284 80.3942 80.2628 80.0334 80.4211 79.7979C80.5398 79.6256 80.6845 79.5153 80.8698 79.4992L81.2915 79.4532C82.1254 79.3522 82.9083 78.9276 83.5195 78.2446C83.8459 77.885 84.0792 77.4218 84.1921 76.9096C84.3503 76.2341 84.3503 75.531 84.2181 74.8417C84.1795 74.6694 84.1921 74.6533 84.3764 74.6843L84.3822 74.6912ZM81.1496 82.5115C81.2287 82.5276 81.3079 82.5115 81.387 82.5115C81.9409 82.5426 82.5083 82.5897 83.0486 82.7643C83.2251 82.8264 83.397 82.9051 83.5629 82.9998C84.0908 83.3445 84.2886 83.9419 84.222 84.5853C84.1429 85.2918 83.8129 85.7939 83.2985 86.1247C82.956 86.3545 82.5729 86.4545 82.1773 86.5016C82.0325 86.5177 81.9003 86.5016 81.7556 86.5016C81.2943 86.5177 80.8457 86.4556 80.4105 86.235C80.1075 86.0937 79.8566 85.8904 79.6327 85.6066C79.1715 85.0574 78.9573 84.0522 79.6462 83.2353C80.0679 82.7758 80.5436 82.4507 81.1496 82.5115ZM82.653 77.6128C82.3761 78.4445 81.7691 78.6961 81.1631 78.5859C80.6092 78.4916 80.2001 78.1309 79.9376 77.5335C79.5951 76.7327 79.5034 75.9021 79.7003 75.037C79.845 74.3936 80.175 73.9065 80.7549 73.7962C81.4931 73.6388 82.2024 73.9536 82.5748 74.8325C82.7678 75.2576 82.8518 75.7746 82.8518 76.5121C82.8383 76.8109 82.7862 77.2187 82.654 77.6116L82.653 77.6128ZM66.0385 76.5443C65.9199 75.6964 65.6564 74.9267 65.1682 74.2833C64.4425 73.3252 63.52 72.9047 62.4779 72.9012C61.568 72.8852 60.712 73.2 59.9459 73.7652C59.1927 74.3018 58.6406 75.1614 58.4029 76.1675C58.1791 77.0785 58.1906 78.0057 58.3643 78.9305C58.8256 81.4121 60.4351 82.4782 62.3592 82.322C62.9266 82.276 63.467 82.0554 63.9803 81.7567C64.7455 81.3317 65.2994 80.6573 65.6815 79.7623C65.9845 79.0247 66.1157 78.2389 66.1032 77.3439L66.0376 76.5432L66.0385 76.5443ZM64.1666 80.03C64.0722 80.3832 63.8935 80.6961 63.6522 80.9304C63.4109 81.1646 63.1175 81.31 62.8079 81.3489C62.2289 81.4431 61.6866 81.2708 61.1993 80.8618C60.8476 80.5537 60.5627 80.1499 60.3685 79.6842C59.8282 78.3653 59.7355 76.9843 60.0115 75.5712C60.1003 75.1339 60.2926 74.736 60.5654 74.4246C61.0536 73.8904 61.6201 73.7652 62.254 73.9226C62.8619 74.08 63.3222 74.4718 63.7015 75.0692C64.0807 75.6666 64.2553 76.3559 64.3605 77.0797C64.4136 77.4404 64.4136 77.8173 64.4261 78.0528C64.4261 78.8064 64.3731 79.4314 64.1752 80.0311L64.1666 80.03ZM94.8519 76.6707C94.7554 75.7596 94.4697 74.9279 93.9284 74.2374C93.2163 73.3114 92.2928 72.9185 91.2651 72.9024C90.3813 72.8863 89.5639 73.185 88.8123 73.7032C87.9679 74.3006 87.388 75.1473 87.1641 76.2939C86.8968 77.5447 87.0089 78.8679 87.4806 80.03C87.9149 81.1295 88.654 81.836 89.6305 82.1496C90.7113 82.4943 91.7409 82.3381 92.7425 81.7567C93.6129 81.2547 94.2324 80.47 94.5884 79.4016C94.8007 78.7731 94.8779 78.0987 94.8914 77.3129C94.9049 77.1716 94.8779 76.92 94.8528 76.6695L94.8519 76.6707ZM93.032 79.8266C92.8197 80.6745 92.3729 81.2237 91.6212 81.35C91.0673 81.4442 90.5405 81.2868 90.0647 80.91C89.6556 80.5803 89.3661 80.1403 89.1548 79.6233C88.9174 79.0741 88.7852 78.4928 88.7331 77.8965C88.654 77.159 88.654 76.4375 88.7987 75.6987C88.8263 75.5531 88.8661 75.4111 88.9174 75.2748C89.287 74.1753 90.1043 73.6733 91.0673 73.9249C91.7138 74.0972 92.2011 74.5223 92.5707 75.1657C92.9277 75.7941 93.0985 76.4846 93.1786 77.2336C93.2172 77.5323 93.2317 77.846 93.2172 78.1125C93.2172 78.7249 93.1786 79.2901 93.0242 79.8393L93.032 79.8266Z" fill="#47474A"/>
</svg>
