<svg width="140" height="140" viewBox="0 0 140 140" fill="none" xmlns="http://www.w3.org/2000/svg">
<rect width="140" height="140" rx="5" fill="white"/>
<path fill-rule="evenodd" clip-rule="evenodd" d="M28.0048 96.3051H30.8098V80.1904L35.1905 94.2404C35.6867 95.9292 36.3996 96.5548 37.7798 96.5548C39.1601 96.5548 39.8304 95.9285 40.343 94.2404L44.7019 80.1904V96.3051H47.5287V80.1904C47.5287 78.6264 47.0968 77.8739 46.1905 77.4671C44.0543 76.5287 42.6301 77.3423 41.983 79.4379L37.6894 93.3314L33.5462 79.4379C32.9204 77.3423 31.4743 76.5287 29.3169 77.4671C28.4319 77.8739 28.0005 78.6257 28.0005 80.1904L28 96.3051H28.0048ZM49.8636 83.1943H52.6904V92.0501C52.6691 92.5501 52.7982 93.6772 54.3347 93.7073C55.1327 93.7389 60.4196 93.7073 60.4622 93.7073V83.1311H63.2889V97.6194C63.2889 101.186 60.2421 101.968 58.8222 102H49.9332V99.2788H58.8449C60.6576 98.9969 60.4419 97.6832 60.4419 97.2449V96.1803H54.4643C51.6806 96.1487 49.8892 94.3652 49.8684 92.3313V83.1928L49.8636 83.1943ZM110.497 72.9301C108.772 72.867 107.433 73.1181 106.311 73.8068C105.988 73.9962 105.47 73.9962 105.427 74.5895C105.6 74.8385 105.62 75.246 105.772 75.591C106.031 76.2173 106.484 77.061 106.894 77.4987C107.347 78.0001 107.801 78.5002 108.275 78.9385C109.116 79.6889 110.065 80.1273 110.885 80.8784C111.36 81.3168 111.834 81.8799 112.309 82.3498C112.551 82.6002 112.698 83.0077 113 83.1634V83.0687C112.849 82.7882 112.806 82.3814 112.655 82.0672C112.439 81.7551 112.223 81.4725 112.007 81.1604C111.382 79.94 110.605 78.8754 109.763 78.0001C109.072 77.3114 107.563 76.373 107.282 75.2158L107.24 75.1527C107.714 75.0896 108.275 74.8392 108.728 74.6512C109.462 74.3707 110.131 74.4324 110.885 74.1512C111.231 74.0249 111.576 73.8692 111.922 73.7128V73.4323C111.533 72.8691 111.253 72.118 110.843 71.5864C109.743 70.2096 108.534 68.8638 107.282 67.7374C106.613 67.1118 105.75 66.7043 105.038 66.1734C104.778 65.9855 104.348 65.8915 104.197 65.5787C103.807 64.8914 103.592 63.9831 103.312 63.1689C102.686 61.4478 102.082 59.5394 101.542 57.7244C101.154 56.504 100.916 55.2837 100.442 54.1573C98.2195 48.8377 95.8024 45.615 92.0911 42.4541C91.2931 41.7969 90.3437 41.5143 89.3344 41.1706L87.7162 41.0444C87.3704 40.8256 87.0256 40.2308 86.7233 39.9489C85.4935 38.8225 82.3214 36.3819 81.4146 39.6052C80.8319 41.6391 82.2779 43.6414 82.7688 44.6745C83.1363 45.3941 83.6103 46.2076 83.87 47.0212C84.0151 47.5528 84.0634 48.1167 84.2148 48.6799C84.5596 50.0566 84.8836 51.5904 85.3368 52.8739C85.5786 53.531 85.8325 54.2205 86.1348 54.8145C86.3074 55.1582 86.6097 55.3153 86.674 55.8784C86.3717 56.5047 86.351 57.4424 86.1783 58.2258C85.4011 61.762 85.7034 66.1426 86.8036 68.7389C87.1494 69.5209 87.9643 71.2427 89.0699 70.5848C90.041 70.0217 89.8243 68.2382 90.1048 66.6735C90.1701 66.2983 90.1266 66.0479 90.2557 65.7968V65.8599L91.1408 68.457C91.8096 69.9901 92.9751 71.5864 93.9458 72.651C94.4632 73.2142 94.8734 74.1848 95.5204 74.5285V74.4338H95.4779C95.3483 74.1533 95.1538 74.027 94.9812 73.8082C94.5928 73.245 94.1615 72.5563 93.8592 71.9307C92.9534 70.1788 92.1554 68.2382 91.443 66.2358C91.0972 65.2659 90.795 64.2019 90.5154 63.232C90.3849 62.8561 90.3849 62.2922 90.1696 62.1056C89.8456 62.793 89.3717 63.3891 89.1332 64.2335C88.7231 65.5787 88.6806 67.2373 88.5297 68.9584C88.4426 68.99 88.4813 68.9584 88.4426 69.0216C87.753 68.7719 87.515 67.7381 87.2563 66.8628C86.6092 64.641 86.5009 61.074 87.0619 58.5078C87.2128 57.8506 87.8608 55.7852 87.6021 55.1596C87.4715 54.5648 87.0411 54.2212 86.8031 53.7513C86.5226 53.1565 86.2213 52.4061 86.0269 51.7489C85.5095 49.9956 85.2507 48.0564 84.6892 46.3037C84.4295 45.4902 83.9769 44.6451 83.6098 43.8946C83.1997 43.0495 82.7475 42.4548 82.4235 41.454C82.3156 41.1103 82.1647 40.5464 82.3374 40.1705C82.3799 39.9201 82.467 39.8269 82.6387 39.7637C82.9192 39.4201 83.7181 39.8577 83.9986 40.0443C84.7966 40.5142 85.4654 40.9518 86.1343 41.6083C86.4366 41.9211 86.7606 42.5158 87.1489 42.6729H87.6026C88.2932 42.8917 89.0694 42.736 89.716 43.0166C90.8598 43.5496 91.8952 44.3309 92.8238 45.1767C95.65 47.7737 97.9811 51.4663 99.5558 55.8791C99.8145 56.5987 99.9224 57.2559 100.16 58.007C100.614 59.5408 101.175 61.1048 101.627 62.6078C102.081 64.0785 102.512 65.5815 103.159 66.8018C103.483 67.459 104.777 67.8026 105.36 68.147C105.792 68.4275 106.46 68.68 106.849 69.0237C107.582 69.6808 108.316 70.432 109.006 71.1515C109.351 71.526 110.431 72.3087 110.495 72.9329L110.497 72.9301ZM88.4924 45.7378C88.1943 45.7339 87.8971 45.7865 87.6084 45.8942V45.9573H87.6509C87.8236 46.458 88.1259 46.8024 88.3415 47.2407L88.8382 48.743L88.8808 48.6799C89.183 48.3671 89.3344 47.8663 89.3344 47.1159C89.2048 46.8971 89.1835 46.6775 89.0757 46.4587C88.9461 46.1459 88.6656 45.9888 88.4924 45.7392V45.7378Z" fill="#00678C"/>
<path fill-rule="evenodd" clip-rule="evenodd" d="M65.4434 96.3029H73.5566C74.506 96.3029 75.4127 96.0224 76.1459 95.5209C77.3758 94.7074 77.9585 93.6133 77.9585 92.1734V89.1696C77.9585 88.0124 77.2897 86.9162 75.9525 86.1657C75.2619 85.7905 74.3986 85.571 73.5571 85.571H70.1476C69.0038 85.571 68.4645 85.0695 68.3132 83.9754C68.2919 83.8506 68.2919 83.7251 68.2919 83.6002V81.7536C68.2919 81.6589 68.2919 81.5348 68.3132 81.4099C68.4641 80.5648 68.7663 80.3453 69.764 80.1896H78.0712V77.4663H70.1737C69.0299 77.4663 68.4259 77.561 67.8861 77.8114C66.2244 78.5618 65.4908 79.7513 65.4908 81.8469V84.2265C65.4908 86.0711 66.915 87.6371 69.3317 88.0124C69.5904 88.0439 69.8709 88.0439 70.1514 88.0439H73.0648C73.1726 88.0439 73.28 88.0439 73.3661 88.0755C74.2511 88.2003 74.6394 88.4191 74.8982 88.8876C75.0708 89.138 75.1144 89.3575 75.1144 89.6395V92.017C75.1144 92.2976 74.9847 92.6749 74.726 92.987C74.4673 93.2991 74.0562 93.5186 73.5169 93.5501C73.4091 93.5501 73.3453 93.5817 73.2364 93.5817H65.4434V96.3029ZM95.5222 91.5787C95.5222 94.363 96.9731 95.927 99.8603 96.2412C100.141 96.2728 100.4 96.3029 100.68 96.3029H108.017V93.5817H100.616C98.9748 93.5817 98.3495 92.987 98.3495 91.5478V77.4663H95.5169V91.5794L95.5222 91.5787ZM79.7489 91.7028V82.0033C79.7489 79.5311 80.957 78.0281 83.3098 77.5596C83.5686 77.528 83.8273 77.4965 84.0643 77.4965H89.4151C89.6956 77.4965 89.9335 77.528 90.214 77.5596C92.5659 78.0281 93.7522 79.5303 93.7522 82.0033V91.7028C93.7522 93.7051 93.2565 94.7698 92.0905 95.4901L94.8519 99.1188H91.5943L89.3503 96.1781L87.084 96.366H84.0633C83.5098 96.362 82.9588 96.2572 82.4233 96.0539C80.6339 95.333 79.7489 93.9569 79.7489 91.7028ZM82.7909 91.4854C82.7909 91.6102 82.8393 91.7344 82.8562 91.8922C83.0071 93.0178 83.7402 93.6441 84.8622 93.6441H87.409L85.0789 90.5772H88.3366L90.3862 93.2689C90.7755 92.9554 91.0125 92.5171 91.0986 91.9539C91.1203 91.8291 91.1203 91.6734 91.1203 91.5471V82.253C91.1203 82.1281 91.1203 82.004 91.0986 81.8777C90.9477 80.8145 90.2145 80.2205 89.1138 80.2205H84.8627C83.6111 80.2205 82.7914 81.0025 82.7914 82.253L82.7909 91.4854Z" fill="#CE8B2C"/>
</svg>
