<svg width="140" height="140" viewBox="0 0 140 140" fill="none" xmlns="http://www.w3.org/2000/svg">
<rect width="140" height="140" rx="5" fill="white"/>
<path d="M63.739 73.6141H70.2807L66.8217 63.2363L60.4732 81.9996H57.584L65.3058 59.4607C65.6415 58.5502 66.201 58 66.8217 58C67.4219 58 67.9815 58.5311 68.3071 59.4228L76.0595 81.9996H73.1703L71.8071 77.8069H65.184L63.7392 73.6141H63.739ZM93.7517 77.8065V58.2275H91.2999V79.723C91.2999 80.3111 91.4219 80.8804 91.6558 81.3167C91.8898 81.753 92.2052 81.9996 92.5511 81.9996H103.732L105.177 77.8069H93.7515L93.7517 77.8065ZM53.1887 74.2966C55.5696 74.2966 57.5026 70.7111 57.5026 66.2716C57.5026 61.8319 55.5696 58.2272 53.1887 58.2272H42.4625V82H44.9135V62.4207H53.0261C54.1656 62.4207 55.0811 64.1475 55.0811 66.2724C55.0811 68.3969 54.1656 70.1233 53.0261 70.1233L46.1141 70.1046L53.4329 82H56.9938L52.0698 74.2974H53.1889L53.1887 74.2966ZM27.3751 81.9996C23.8559 82 21 76.6876 21 70.1233C21 63.5587 23.8559 58.2279 27.3751 58.2279H34.7846C38.3045 58.2279 41.1583 63.5587 41.1583 70.1233C41.1583 76.6876 38.3045 81.9996 34.7844 81.9996H27.3751ZM34.6198 77.8069C36.8997 77.8069 38.7463 74.3727 38.7463 70.123C38.7463 65.8736 36.8997 62.4207 34.6198 62.4207H27.539C25.2599 62.4207 23.4124 65.8736 23.4124 70.1233C23.4124 74.3727 25.2599 77.8069 27.5388 77.8069H34.6197H34.6198ZM81.1769 81.9996C77.657 81.9996 74.798 76.6876 74.798 70.1233C74.798 63.5587 77.657 58.2279 81.1769 58.2279H89.9775L88.5428 62.4207H81.3397C79.0608 62.4207 77.2092 65.8736 77.2092 70.1233C77.2092 74.3727 79.0608 77.8069 81.3397 77.8069H90.1807L88.7359 81.9996H81.1769ZM111.159 77.8069C109.277 77.8069 107.68 75.4544 107.191 72.21H117.67L119.115 68.0172H107.191C107.68 64.7918 109.277 62.4207 111.159 62.4207H118.352L119.807 58.2272H110.996C107.476 58.2272 104.617 63.5583 104.617 70.1226C104.617 76.6873 107.476 81.9993 110.996 81.9993H118.555L120 77.8069H111.159H111.159Z" fill="#EA1B22"/>
</svg>
