<svg width="140" height="140" viewBox="0 0 140 140" fill="none" xmlns="http://www.w3.org/2000/svg">
<rect width="140" height="140" rx="5" fill="white"/>
<path d="M29.8647 82.9984H25.2972V78.0984H30.1132C31.8755 78.0984 32.7575 78.9384 32.7575 80.5867C32.7575 82.1948 31.7932 82.9994 29.8656 82.9994M33.1486 78.0415C32.523 77.4442 31.6471 77.1455 30.521 77.1455L23.9795 77.1828V88.9055H25.2972L25.285 83.915H30.1526C31.3732 83.915 32.334 83.6163 33.0349 83.019C33.7357 82.4216 34.0866 81.591 34.0866 80.5307C34.0866 79.4704 33.7734 78.6398 33.1477 78.0424L33.1486 78.0415ZM41.6772 86.4452C41.5516 86.8288 41.3362 87.1719 41.0516 87.442C40.461 88.058 39.5606 88.3632 38.3391 88.3632C37.2454 88.3632 36.4141 88.0646 35.8191 87.4672C35.2241 86.8699 34.9397 86.07 34.9397 85.0686C34.9397 84.5459 35.0167 84.0839 35.1699 83.6798C35.3151 83.2885 35.5433 82.9383 35.8366 82.6568C36.4421 82.0688 37.2769 81.773 38.3391 81.773C40.7016 81.773 41.868 82.8715 41.868 85.0676C41.868 85.5903 41.8006 86.0476 41.6667 86.4434M41.9056 82.1192C41.1024 81.338 39.9132 80.947 38.3382 80.947C36.8507 80.947 35.7001 81.3464 34.889 82.1444C34.1566 82.8668 33.7909 83.8412 33.7909 85.0676C33.7909 86.2856 34.1689 87.2684 34.9249 88.017C35.3422 88.4202 35.8287 88.7123 36.3835 88.8924C36.9382 89.0726 37.591 89.1724 38.3382 89.1724C39.9132 89.1724 41.098 88.786 41.9257 88.0132C42.6581 87.3076 43.0239 86.3295 43.0239 85.0779C43.0239 83.8179 42.6537 82.8351 41.9126 82.1286L41.9056 82.1192ZM51.8806 86.7831C51.8806 88.3698 50.555 89.15 47.9046 89.15C47.0944 89.15 46.4119 89.094 45.8571 88.9858C45.3024 88.8775 44.8526 88.6936 44.5061 88.4407C44.2414 88.2491 44.0231 87.9932 43.8691 87.694C43.7116 87.3926 43.6092 86.994 43.5629 86.5227L44.7879 86.5106C44.7879 87.1312 45.004 87.5886 45.4354 87.8826C45.8991 88.2354 46.719 88.4118 47.8967 88.4118C49.7491 88.4118 50.6757 87.9171 50.6757 86.9259C50.6757 86.3472 50.3651 85.9487 49.7439 85.7312C49.6179 85.6892 48.8689 85.5782 47.4951 85.398C46.1214 85.2179 45.2674 85.0555 44.9287 84.9127C44.1972 84.6019 43.8315 84.0447 43.8315 83.2383C43.818 82.8749 43.9034 82.5151 44.0773 82.2023C44.2511 81.8895 44.5061 81.637 44.8115 81.4752C45.1352 81.3166 45.5377 81.1924 46.0225 81.1038C46.5072 81.0151 47.0681 80.9712 47.706 80.9712C50.2575 80.9712 51.5332 81.8252 51.5332 83.5332H50.3607C50.3607 82.333 49.4639 81.7319 47.6701 81.7319C46.7575 81.7319 46.0776 81.8532 45.6287 82.1052C45.1799 82.3572 44.955 82.7212 44.955 83.2252C44.955 83.6956 45.2577 84.0354 45.8632 84.2454C46.2176 84.3546 47.0314 84.4806 48.3062 84.6234C49.4472 84.7326 50.2295 84.8875 50.6547 85.09C51.465 85.426 51.8797 85.9954 51.8797 86.8018L51.8806 86.7831ZM56.7246 88.9298L56.2232 89.0044L55.91 89.0296C55.1067 89.0296 54.5275 88.9055 54.1731 88.6563C53.8187 88.4071 53.6481 87.9731 53.6481 87.3496V82.0016H52.1869V81.2148H53.6394L53.6507 78.6874H54.7751V81.2148H56.7334V82.0147L54.7751 82.0016V87.2068C54.7751 87.5942 54.8626 87.862 55.0639 88.0095C55.2651 88.157 55.6011 88.2307 56.0964 88.2307C56.1664 88.24 56.2451 88.2363 56.3326 88.2214C56.4201 88.2064 56.5487 88.1747 56.722 88.1262L56.7342 88.9288L56.7246 88.9298ZM64.5007 87.1452C64.1886 87.4169 63.8328 87.6259 63.4507 87.7622C63.057 87.905 62.6055 87.9768 62.0945 87.9768C59.7425 87.9768 58.5682 86.9502 58.5682 84.8688C58.5682 83.9047 58.8692 83.1496 59.4695 82.6046C60.0697 82.0595 60.9185 81.787 62.0114 81.787C63.1121 81.787 63.9477 82.0614 64.5182 82.6111C65.0887 83.1608 65.374 83.8963 65.374 84.8194C65.374 85.8255 65.0826 86.5927 64.5007 87.1471M66.4984 81.2111H65.374L65.3617 82.5336C64.8665 81.997 64.513 81.6563 64.2995 81.5144C63.6695 81.1458 62.8557 80.961 61.8565 80.961C60.3926 80.961 59.2752 81.3175 58.5052 82.0306C57.7737 82.6839 57.408 83.6331 57.408 84.8744C57.408 85.4867 57.5007 86.0346 57.6854 86.5171C57.87 86.9996 58.1404 87.4084 58.4947 87.7435C59.2674 88.4314 60.3585 88.7758 61.769 88.7758C63.463 88.7758 64.6565 88.2811 65.374 87.2824V88.6516C65.374 89.5243 65.1159 90.201 64.6005 90.6788C64.0851 91.1567 63.2372 91.3975 62.0569 91.3975C60.9474 91.3975 60.1564 91.2342 59.6944 90.9084C59.34 90.6583 59.0959 90.2234 58.9629 89.6046H57.8122C57.9382 90.4679 58.2804 91.0932 58.8395 91.4787C59.4852 91.923 60.5755 92.1451 62.1102 92.1451C65.0467 92.1451 66.515 90.9812 66.515 88.6526V81.2018L66.4984 81.2111ZM72.5796 81.9904C72.2679 81.9342 71.9525 81.9049 71.6364 81.9027C69.7884 81.9027 68.8644 82.9835 68.8644 85.146V88.9055H67.7531L67.7409 81.212L68.8652 81.2242V82.5962H68.9239C69.1129 82.0548 69.4112 81.6442 69.8207 81.366C70.2687 81.086 70.9372 80.96 71.8262 80.96H72.5814V81.9895L72.5796 81.9904ZM73.6261 84.572C73.7679 83.6975 74.0864 83.0208 74.5816 82.5411C74.9054 82.2639 75.2702 82.0558 75.6789 81.9158C76.0875 81.7758 76.5486 81.7076 77.0596 81.7076C78.0589 81.7076 78.8744 81.9998 79.5079 82.585C80.1414 83.1702 80.466 83.8319 80.466 84.573H73.6349M80.5762 82.1995C80.1651 81.7675 79.6628 81.4471 79.1115 81.2652C78.5287 81.0627 77.848 80.9619 77.0684 80.9619C75.6115 80.9619 74.4819 81.3231 73.6786 82.0446C72.8754 82.766 72.4737 83.7498 72.4737 84.9939C72.4737 86.238 72.8587 87.2339 73.6305 87.9544C74.4644 88.7608 75.6412 89.164 77.1611 89.164C77.7666 89.164 78.3275 89.0894 78.8429 88.9447C79.3582 88.8 79.8089 88.59 80.1947 88.324C80.872 87.8051 81.2999 87.1667 81.481 86.4051H80.256C79.8386 87.7118 78.8009 88.3782 77.141 88.3782C75.9685 88.3782 75.0672 88.0571 74.4285 87.4131C73.886 86.8531 73.6147 86.1475 73.6147 85.2702H81.6297C81.6297 83.9654 81.2797 82.9415 80.5552 82.1902L80.5762 82.1995Z" fill="#231F20"/>
<path d="M93.53 85.7623C93.53 88.0462 91.8028 89.1876 88.35 89.1876C86.2807 89.1876 84.7695 88.7956 83.8175 88.007C83.03 87.3602 82.6494 86.3736 82.6494 85.0483H84.0494C84.0494 87.181 85.4844 88.2468 88.3588 88.2468C89.736 88.2468 90.7327 88.0284 91.346 87.5935C91.8658 87.208 92.1335 86.6042 92.1335 85.7828C92.1335 84.969 91.7792 84.3987 91.0704 84.0711C90.6679 83.8844 89.6879 83.6726 88.1304 83.4038C86.1704 83.0846 84.899 82.7663 84.3172 82.448C83.4754 81.9786 83.0537 81.1815 83.0537 80.0568C83.0537 79.0087 83.4037 78.2275 84.1282 77.716C84.8982 77.1542 86.222 76.8732 88.0954 76.8732C91.4817 76.8732 93.173 78.0726 93.173 80.4712H91.7625C91.7625 78.6746 90.5052 77.7767 88 77.7767C86.74 77.7767 85.8178 77.9578 85.235 78.318C84.6838 78.7044 84.4082 79.27 84.4082 80.0186C84.4082 80.7998 84.7625 81.3495 85.4713 81.6687C85.8475 81.8535 86.9588 82.1092 88.8015 82.4378C90.534 82.715 91.7022 83.0379 92.3015 83.4084C93.1284 83.862 93.5414 84.647 93.5414 85.7642L93.53 85.7623ZM104.825 86.929C104.301 87.3754 103.704 87.7143 103.064 87.9286C102.41 88.1507 101.677 88.2618 100.866 88.2618C99.2035 88.2618 97.8735 87.7951 96.8533 86.8338C95.833 85.8724 95.322 84.6152 95.322 83.0314C95.322 81.3794 95.8278 80.0942 96.8402 79.172C97.8525 78.2499 99.2027 77.7888 100.865 77.7888C102.559 77.7888 103.891 78.2704 104.86 79.2355C105.371 79.705 105.749 80.2622 105.994 80.8828C106.239 81.5035 106.362 82.2268 106.362 83.0323C106.362 84.675 105.849 85.9742 104.825 86.9299M105.565 87.7074C106.289 87.1623 106.825 86.494 107.172 85.7259C107.52 84.9578 107.693 84.0459 107.693 83.0398C107.693 81.2198 107.126 79.76 105.992 78.6531C105.385 78.0492 104.653 77.6003 103.804 77.3072C102.956 77.0142 101.967 76.8667 100.864 76.8667C98.7232 76.8667 97.0423 77.4202 95.8217 78.528C94.601 79.6359 93.9912 81.1367 93.9912 83.0323C93.9912 84.8775 94.6063 86.3662 95.8287 87.4983C97.051 88.6304 98.7424 89.197 100.876 89.197C101.71 89.197 102.438 89.1363 103.06 89.0168C103.682 88.8974 104.209 88.7116 104.642 88.4624L106.696 89.981L107.554 89.141L105.565 87.7018V87.7074ZM118.104 88.9048H108.603V77.1682L109.909 77.143V87.923H118.117L118.104 88.903L118.104 88.9048Z" fill="#367FAF"/>
<path d="M76.9876 67.7189C77.16 66.1883 77.1084 65.9643 78.1776 66.2125L78.4401 66.2377C79.2626 66.2779 80.3363 66.0977 80.9689 65.7841C82.3278 65.1121 83.1336 63.9884 81.794 64.2833C78.7368 64.9553 78.5268 63.8521 78.5268 63.8521C81.7555 58.7431 83.103 52.2573 81.9393 50.6707C78.763 46.34 73.2628 48.3887 73.1718 48.4419L73.1429 48.4475C72.5391 48.314 71.8628 48.2328 71.1041 48.2207C69.7216 48.1964 68.6716 48.6071 67.8666 49.252C67.8666 49.252 58.0561 44.94 58.5041 54.6747C58.6004 56.7448 61.2866 70.3416 64.4891 66.2349C65.6599 64.7323 66.7904 63.4629 66.7904 63.4629C67.3521 63.8615 68.0154 64.064 68.7303 63.9912L68.7845 63.9417C68.7681 64.1367 68.7755 64.3331 68.8064 64.526C67.9813 65.5088 68.2236 65.6833 66.5751 66.0445C64.9065 66.4113 65.8865 67.0647 66.527 67.2355C67.3031 67.4427 69.0995 67.7357 70.3114 65.9241L70.2633 66.1313C70.587 66.4076 70.5651 68.1165 70.6106 69.3373C70.6561 70.5581 70.7331 71.6987 70.9668 72.3707C71.2004 73.0427 71.4743 74.7731 73.6443 74.2775C75.4555 73.8631 76.8415 73.2676 76.9675 67.7227" fill="#231F20"/>
<path d="M76.9876 67.7189C77.16 66.1883 77.1084 65.9643 78.1776 66.2125L78.4401 66.2377C79.2626 66.2779 80.3363 66.0977 80.9689 65.7841C82.3278 65.1121 83.1336 63.9884 81.794 64.2833C78.7368 64.9553 78.5268 63.8521 78.5268 63.8521C81.7555 58.7431 83.103 52.2573 81.9393 50.6707C78.763 46.34 73.2628 48.3887 73.1718 48.4419L73.1429 48.4475C72.5391 48.314 71.8628 48.2328 71.1041 48.2207C69.7216 48.1964 68.6716 48.6071 67.8666 49.252C67.8666 49.252 58.0561 44.94 58.5041 54.6747C58.6004 56.7448 61.2866 70.3416 64.4891 66.2349C65.6599 64.7323 66.7904 63.4629 66.7904 63.4629C67.3521 63.8615 68.0154 64.064 68.7303 63.9912L68.7845 63.9417C68.7681 64.1367 68.7755 64.3331 68.8064 64.526C67.9813 65.5088 68.2236 65.6833 66.5751 66.0445C64.9065 66.4113 65.8865 67.0647 66.527 67.2355C67.3031 67.4427 69.0995 67.7357 70.3114 65.9241L70.2633 66.1313C70.587 66.4076 70.5651 68.1165 70.6106 69.3373C70.6561 70.5581 70.7331 71.6987 70.9668 72.3707C71.2004 73.0427 71.4743 74.7731 73.6443 74.2775C75.4555 73.8631 76.8415 73.2676 76.9675 67.7227" stroke="#231F20" stroke-width="2.598"/>
<path d="M81.8017 64.2833C78.7445 64.9553 78.5345 63.8521 78.5345 63.8521C81.7632 58.743 83.1107 52.2573 81.947 50.6697C78.7707 46.339 73.2705 48.3877 73.1795 48.4409L73.1497 48.4465C72.546 48.313 71.8696 48.2318 71.111 48.2197C69.7285 48.1954 68.6785 48.6061 67.8735 49.251C67.8735 49.251 58.063 44.939 58.511 54.6737C58.6072 56.7457 61.2935 70.3406 64.496 66.234C65.6667 64.7313 66.7972 63.462 66.7972 63.462C67.359 63.8605 68.031 64.063 68.7362 63.9902L68.7914 63.9408C68.7739 64.1274 68.7826 64.3094 68.8132 64.525C67.9881 65.5078 68.2305 65.6824 66.582 66.0436C64.9134 66.4104 65.8934 67.0637 66.5339 67.2345C67.31 67.4417 69.1064 67.7348 70.3182 65.9232L70.2701 66.1304C70.5939 66.4066 70.8214 67.927 70.782 69.3037C70.7426 70.6804 70.719 71.6277 70.9745 72.3669C71.23 73.1061 71.482 74.7693 73.652 74.2737C75.4632 73.8593 76.403 72.786 76.5334 70.9958C76.6261 69.7228 76.8361 69.9113 76.8484 68.7745L77.0164 68.236C77.2106 66.5093 77.047 65.954 78.1626 66.2134L78.4251 66.2386C79.2476 66.2788 80.3221 66.0986 80.9539 65.785C82.3127 65.113 83.1186 63.9893 81.779 64.2842L81.8017 64.2833Z" fill="#417BA2"/>
<path d="M70.4649 65.273C70.3809 68.4836 70.4859 71.7158 70.7799 72.5016C71.0739 73.2875 71.7048 74.8163 73.8739 74.3198C75.6852 73.9054 76.3449 73.1036 76.6302 71.3331L77.2995 65.6743M67.8749 49.1795C67.8749 49.1795 58.0574 44.8992 58.5124 54.632C58.5999 56.704 61.2949 70.2999 64.4974 66.1932C65.6682 64.6999 66.726 63.5146 66.726 63.5146M73.1687 48.3983C72.8187 48.5122 78.6287 46.1368 81.9257 50.6383C83.0894 52.225 81.7507 58.7116 78.5132 63.8207" stroke="white" stroke-width="0.866" stroke-linecap="round" stroke-linejoin="round"/>
<path d="M78.5118 63.8126C78.5118 63.8126 78.7218 64.9167 81.7799 64.2438C83.1187 63.9489 82.3049 65.0717 80.9548 65.7446C79.84 66.2953 77.341 66.4381 77.299 65.6755C77.194 63.7062 78.615 64.3054 78.5118 63.8126ZM78.5118 63.8126C78.419 63.3683 77.7838 62.9325 77.3638 61.8461C76.9963 60.8969 72.3325 53.6215 78.6588 54.7023C78.8907 54.651 77.0085 48.2838 71.0883 48.1802C65.168 48.0766 65.364 55.9455 65.364 55.9455" stroke="white" stroke-width="0.866" stroke-linecap="round" stroke-linejoin="bevel"/>
<path d="M68.8072 64.4838C67.9821 65.4666 68.2245 65.6412 66.576 66.0024C64.9073 66.3692 65.8873 67.0225 66.5278 67.1933C67.304 67.4005 69.1003 67.6936 70.3122 65.882C70.6815 65.3313 70.3105 64.4502 69.803 64.2253C69.558 64.117 69.2298 63.9826 68.809 64.4838H68.8072Z" stroke="white" stroke-width="0.866" stroke-linejoin="round"/>
<path d="M68.7533 64.4674C68.6701 63.8887 68.9318 63.2018 69.2109 62.3954C69.6309 61.1876 70.6109 59.9799 69.826 56.1495C69.2485 53.2954 65.3653 55.555 65.3635 55.9423C65.3618 56.3296 65.5385 57.9042 65.2988 59.7382C64.9838 62.1312 66.725 64.1556 68.7314 63.9475" stroke="white" stroke-width="0.866" stroke-linecap="round" stroke-linejoin="round"/>
<path d="M67.83 55.8852C67.8125 56.0177 68.0575 56.3705 68.3751 56.4172C68.6927 56.4639 68.9657 56.1885 68.9824 56.0569C68.999 55.9253 68.7549 55.7788 68.4364 55.7303C68.1179 55.6817 67.8457 55.7517 67.8291 55.8843L67.83 55.8852Z" fill="white" stroke="white" stroke-width="0.289"/>
<path d="M77.5194 55.6155C77.5369 55.748 77.2919 56.1008 76.9742 56.1475C76.6566 56.1942 76.3836 55.9188 76.3661 55.7872C76.3486 55.6556 76.5936 55.5091 76.9121 55.4624C77.2306 55.4158 77.5027 55.4839 77.5202 55.6164L77.5194 55.6155Z" fill="white" stroke="white" stroke-width="0.144"/>
<path d="M78.6574 54.7007C78.7099 55.7367 78.4474 56.4442 78.415 57.5474C78.366 59.1527 79.1325 60.9886 77.9775 62.8272" stroke="white" stroke-width="0.866" stroke-linecap="round" stroke-linejoin="round"/>
</svg>
