<svg width="431" height="601" viewBox="0 0 431 601" fill="none" xmlns="http://www.w3.org/2000/svg">
<path d="M86.0262 585.533C48.7662 585.533 18.5611 568.071 18.5611 546.531C18.5611 524.992 48.7662 507.53 86.0262 507.53C123.286 507.53 153.491 524.992 153.491 546.531C153.491 568.071 123.286 585.533 86.0262 585.533Z" fill="#E0E0E0"/>
<path d="M53.1089 23.4905L63.8338 17.2919L63.8351 17.2933C65.3057 16.1578 67.3997 15.8607 69.2362 16.9202L400.491 207.766C404.904 210.308 407.624 215.016 407.624 220.113V514.041C407.624 516.074 406.426 517.688 404.814 518.443L394.271 524.535L391.815 513.345L69.0871 327.411C64.6741 324.868 61.9553 320.161 61.9553 315.064V27.3285L53.1089 23.4905Z" fill="#3DB8DB"/>
<path opacity="0.7" d="M53.1089 23.4905L63.8338 17.2919L63.8351 17.2933C65.3057 16.1578 67.3997 15.8607 69.2362 16.9202L400.491 207.766C404.904 210.308 407.624 215.016 407.624 220.113V514.041C407.624 516.074 406.426 517.688 404.814 518.443L394.271 524.535L391.815 513.345L69.0871 327.411C64.6741 324.868 61.9553 320.161 61.9553 315.064V27.3285L53.1089 23.4905Z" fill="white"/>
<path d="M390.158 221.622V512.386L391.817 513.349L394.272 524.543L404.809 518.447C406.418 517.683 407.629 516.072 407.629 514.046V220.111C407.629 217.453 406.883 214.896 405.556 212.72L390.158 221.622Z" fill="#3DB8DB"/>
<path d="M51.2764 27.2865V321.222C51.2764 326.32 53.9979 331.021 58.4109 333.562L356.973 505.575L389.66 524.41C392.895 526.286 396.944 523.945 396.944 520.208V226.272C396.944 221.173 394.222 216.473 389.809 213.932L356.973 195.014L58.56 23.085C55.3248 21.2087 51.2764 23.5503 51.2764 27.2865Z" fill="#FAFAFA"/>
<path d="M56.1367 23.4416C54.288 23.4416 52.2929 24.9122 52.2929 27.2877V321.223C52.2929 325.937 54.8315 330.329 58.9179 332.681L357.48 504.693L390.17 523.529C390.769 523.877 391.413 524.053 392.084 524.053C393.932 524.053 395.927 522.582 395.927 520.207V226.272C395.927 221.557 393.389 217.166 389.302 214.813L356.466 195.896L58.0504 23.9652C57.4514 23.6179 56.8076 23.4416 56.1367 23.4416ZM56.1367 22.4241C56.9458 22.4241 57.7766 22.6316 58.56 23.0848L356.973 195.014L389.809 213.931C394.224 216.472 396.944 221.173 396.944 226.272V520.207C396.944 523.039 394.618 525.07 392.084 525.07C391.274 525.07 390.444 524.863 389.66 524.41L356.973 505.575L58.4109 333.562C53.9979 331.021 51.2764 326.32 51.2764 321.221V27.2863C51.2764 24.455 53.6022 22.4241 56.1367 22.4241Z" fill="black"/>
<path d="M356.973 195.016V505.577L389.66 524.411C392.895 526.287 396.944 523.946 396.944 520.21V226.272C396.944 221.173 394.222 216.473 389.809 213.932L356.973 195.016Z" fill="black"/>
<path d="M376.509 235.593L388.56 235.873C388.903 235.881 388.903 235.387 388.56 234.998L376.509 221.348C376.359 221.177 376.176 221.072 376.025 221.069L363.975 220.789C363.632 220.781 363.632 221.275 363.975 221.664L376.025 235.312C376.176 235.483 376.359 235.589 376.509 235.593Z" fill="#3DB8DB"/>
<path d="M363.985 229.768L376.008 243.391C376.176 243.589 376.345 243.687 376.513 243.683L388.571 243.976C388.908 243.968 388.908 243.496 388.571 243.1L384.525 238.518C384.313 238.278 384.011 238.138 383.691 238.132L376.513 237.985C376.345 237.955 376.177 237.858 376.008 237.693L368.662 229.353C368.451 229.111 368.147 228.971 367.826 228.965L363.985 228.89C363.613 228.881 363.613 229.353 363.985 229.768Z" fill="#3DB8DB"/>
<path d="M363.985 237.942L376.008 251.565C376.176 251.763 376.345 251.861 376.513 251.857L388.571 252.15C388.908 252.142 388.908 251.67 388.571 251.273L384.525 246.692C384.313 246.452 384.011 246.312 383.691 246.305L376.513 246.159C376.345 246.129 376.177 246.031 376.008 245.867L368.662 237.526C368.451 237.285 368.147 237.145 367.826 237.138L363.985 237.065C363.613 237.053 363.613 237.525 363.985 237.942Z" fill="#3DB8DB"/>
<path d="M272.352 450.257C272.633 450.257 272.86 450.03 272.86 449.749V151.851C272.86 151.57 272.633 151.342 272.352 151.342C272.072 151.342 271.844 151.57 271.844 151.851V449.749C271.844 450.03 272.072 450.257 272.352 450.257Z" fill="black"/>
<path d="M280.272 433.526V434.283C280.272 434.718 280.505 435.12 280.882 435.337L309.164 451.632C309.44 451.792 309.786 451.592 309.786 451.274V450.517C309.786 450.081 309.554 449.68 309.176 449.462L280.894 433.168C280.617 433.006 280.272 433.207 280.272 433.526Z" fill="black"/>
<path d="M280.272 439.05V439.807C280.272 440.243 280.505 440.644 280.882 440.861L309.164 457.156C309.44 457.316 309.786 457.117 309.786 456.798V456.041C309.786 455.605 309.554 455.204 309.176 454.987L280.894 438.692C280.617 438.531 280.272 438.731 280.272 439.05Z" fill="#E0E0E0"/>
<path d="M294.406 452.75V453.507C294.406 453.942 294.638 454.344 295.015 454.561L309.162 462.68C309.439 462.841 309.784 462.641 309.784 462.322V461.565C309.784 461.13 309.552 460.728 309.174 460.511L295.027 452.391C294.752 452.23 294.406 452.431 294.406 452.75Z" fill="#E0E0E0"/>
<path d="M319.918 474.49C311.946 463.88 310.345 451.619 316.341 447.105C322.338 442.59 333.662 447.531 341.634 458.141C349.606 468.75 351.208 481.011 345.211 485.526C339.214 490.04 327.89 485.099 319.918 474.49Z" fill="#3DB8DB"/>
<path opacity="0.7" d="M319.918 474.49C311.946 463.88 310.345 451.619 316.341 447.105C322.338 442.59 333.662 447.531 341.634 458.141C349.606 468.75 351.208 481.011 345.211 485.526C339.214 490.04 327.89 485.099 319.918 474.49Z" fill="white"/>
<path d="M339.823 487.707C341.638 487.707 343.291 487.304 344.703 486.488C347.707 484.753 349.362 481.299 349.362 476.763C349.362 466.631 341.144 453.641 331.044 447.802C325.641 444.679 320.477 444.075 316.878 446.159C313.875 447.894 312.22 451.348 312.22 455.885C312.22 466.016 320.437 479.006 330.536 484.844C333.819 486.741 337.013 487.707 339.823 487.707ZM321.763 445.954C324.387 445.954 327.405 446.875 330.535 448.685C340.354 454.36 348.344 466.957 348.344 476.763C348.344 480.919 346.871 484.061 344.194 485.608C340.918 487.502 336.127 486.902 331.043 483.962C321.223 478.287 313.235 465.692 313.235 455.886C313.235 451.729 314.708 448.587 317.385 447.041C318.643 446.312 320.126 445.954 321.763 445.954Z" fill="black"/>
<path d="M314.94 471.233C314.94 473.421 316.713 476.22 318.899 477.483C321.085 478.746 322.858 477.997 322.858 475.809C322.858 473.62 321.085 470.822 318.899 469.559C316.711 468.294 314.94 469.044 314.94 471.233Z" fill="#3DB8DB"/>
<path d="M280.272 382.039V382.796C280.272 383.232 280.505 383.633 280.882 383.85L309.164 400.145C309.44 400.305 309.786 400.106 309.786 399.787V399.03C309.786 398.594 309.554 398.193 309.176 397.976L280.894 381.681C280.617 381.521 280.272 381.72 280.272 382.039Z" fill="black"/>
<path d="M280.272 387.564V388.321C280.272 388.756 280.505 389.158 280.882 389.375L309.164 405.67C309.44 405.83 309.786 405.63 309.786 405.311V404.554C309.786 404.119 309.554 403.717 309.176 403.5L280.894 387.205C280.617 387.045 280.272 387.245 280.272 387.564Z" fill="#E0E0E0"/>
<path d="M294.406 401.263V402.02C294.406 402.455 294.638 402.857 295.015 403.074L309.162 411.194C309.439 411.354 309.784 411.154 309.784 410.836V410.079C309.784 409.643 309.552 409.241 309.174 409.024L295.027 400.905C294.752 400.745 294.406 400.944 294.406 401.263Z" fill="#E0E0E0"/>
<path d="M319.919 423.004C311.947 412.395 310.346 400.134 316.342 395.619C322.339 391.105 333.663 396.046 341.635 406.655C349.607 417.265 351.209 429.526 345.212 434.04C339.215 438.555 327.891 433.614 319.919 423.004Z" fill="#3DB8DB"/>
<path opacity="0.7" d="M319.919 423.004C311.947 412.395 310.346 400.134 316.342 395.619C322.339 391.105 333.663 396.046 341.635 406.655C349.607 417.265 351.209 429.526 345.212 434.04C339.215 438.555 327.891 433.614 319.919 423.004Z" fill="white"/>
<path d="M339.823 436.221C341.638 436.221 343.291 435.818 344.703 435.003C347.707 433.268 349.362 429.814 349.362 425.277C349.362 415.146 341.144 402.156 331.044 396.317C325.641 393.194 320.477 392.59 316.878 394.674C313.875 396.409 312.22 399.863 312.22 404.4C312.22 414.531 320.437 427.521 330.536 433.359C333.819 435.255 337.013 436.221 339.823 436.221ZM321.763 394.467C324.387 394.467 327.405 395.389 330.535 397.198C340.354 402.873 348.344 415.47 348.344 425.276C348.344 429.433 346.871 432.575 344.194 434.121C340.918 436.015 336.127 435.416 331.043 432.476C321.223 426.801 313.235 414.206 313.235 404.4C313.235 400.243 314.708 397.101 317.385 395.554C318.643 394.827 320.126 394.467 321.763 394.467Z" fill="black"/>
<path d="M314.94 419.746C314.94 421.934 316.713 424.733 318.899 425.996C321.085 427.259 322.858 426.51 322.858 424.322C322.858 422.134 321.085 419.335 318.899 418.072C316.711 416.809 314.94 417.558 314.94 419.746Z" fill="#3DB8DB"/>
<path d="M280.272 330.554V331.311C280.272 331.747 280.505 332.148 280.882 332.365L309.164 348.66C309.44 348.82 309.786 348.621 309.786 348.302V347.545C309.786 347.109 309.554 346.708 309.176 346.491L280.894 330.196C280.617 330.035 280.272 330.235 280.272 330.554Z" fill="black"/>
<path d="M280.272 336.078V336.835C280.272 337.271 280.505 337.673 280.882 337.89L309.164 354.184C309.44 354.345 309.786 354.145 309.786 353.826V353.069C309.786 352.634 309.554 352.232 309.176 352.015L280.894 335.72C280.617 335.559 280.272 335.758 280.272 336.078Z" fill="#E0E0E0"/>
<path d="M294.406 349.778V350.535C294.406 350.971 294.638 351.372 295.015 351.589L309.162 359.709C309.439 359.869 309.784 359.669 309.784 359.351V358.594C309.784 358.158 309.552 357.757 309.174 357.539L295.027 349.42C294.752 349.258 294.406 349.459 294.406 349.778Z" fill="#E0E0E0"/>
<path d="M319.921 371.518C311.949 360.909 310.348 348.648 316.344 344.133C322.341 339.619 333.665 344.56 341.637 355.17C349.609 365.779 351.211 378.04 345.214 382.555C339.217 387.069 327.893 382.128 319.921 371.518Z" fill="#3DB8DB"/>
<path opacity="0.7" d="M319.921 371.518C311.949 360.909 310.348 348.648 316.344 344.133C322.341 339.619 333.665 344.56 341.637 355.17C349.609 365.779 351.211 378.04 345.214 382.555C339.217 387.069 327.893 382.128 319.921 371.518Z" fill="white"/>
<path d="M339.823 384.735C341.638 384.735 343.291 384.332 344.703 383.517C347.707 381.782 349.362 378.328 349.362 373.791C349.362 363.659 341.144 350.669 331.044 344.83C325.641 341.707 320.477 341.104 316.878 343.187C313.875 344.923 312.22 348.377 312.22 352.913C312.22 363.045 320.437 376.035 330.536 381.873C333.819 383.769 337.013 384.735 339.823 384.735ZM321.763 342.983C324.387 342.983 327.405 343.904 330.535 345.713C340.354 351.388 348.344 363.985 348.344 373.791C348.344 377.948 346.871 381.09 344.194 382.636C340.918 384.53 336.127 383.931 331.043 380.991C321.223 375.316 313.235 362.721 313.235 352.915C313.235 348.758 314.708 345.616 317.385 344.069C318.643 343.341 320.126 342.983 321.763 342.983Z" fill="black"/>
<path d="M314.94 368.261C314.94 370.449 316.713 373.248 318.899 374.511C321.085 375.774 322.858 375.025 322.858 372.837C322.858 370.649 321.085 367.85 318.899 366.587C316.711 365.323 314.94 366.073 314.94 368.261Z" fill="#3DB8DB"/>
<path d="M280.272 279.067V279.824C280.272 280.26 280.505 280.662 280.882 280.879L309.164 297.173C309.44 297.334 309.786 297.134 309.786 296.815V296.058C309.786 295.623 309.554 295.221 309.176 295.004L280.894 278.709C280.617 278.549 280.272 278.749 280.272 279.067Z" fill="black"/>
<path d="M280.272 284.592V285.349C280.272 285.784 280.505 286.186 280.882 286.403L309.164 302.698C309.44 302.858 309.786 302.658 309.786 302.34V301.583C309.786 301.147 309.554 300.745 309.176 300.528L280.894 284.234C280.617 284.072 280.272 284.273 280.272 284.592Z" fill="#E0E0E0"/>
<path d="M294.406 298.291V299.048C294.406 299.484 294.638 299.885 295.015 300.102L309.162 308.222C309.439 308.382 309.784 308.183 309.784 307.864V307.107C309.784 306.671 309.552 306.27 309.174 306.053L295.027 297.933C294.752 297.773 294.406 297.973 294.406 298.291Z" fill="#E0E0E0"/>
<path d="M319.922 320.033C311.95 309.423 310.349 297.163 316.345 292.648C322.342 288.133 333.666 293.074 341.638 303.684C349.61 314.294 351.211 326.555 345.215 331.069C339.218 335.584 327.894 330.643 319.922 320.033Z" fill="#3DB8DB"/>
<path opacity="0.7" d="M319.922 320.033C311.95 309.423 310.349 297.163 316.345 292.648C322.342 288.133 333.666 293.074 341.638 303.684C349.61 314.294 351.211 326.555 345.215 331.069C339.218 335.584 327.894 330.643 319.922 320.033Z" fill="white"/>
<path d="M339.823 333.248C341.638 333.248 343.291 332.845 344.703 332.03C347.707 330.295 349.362 326.841 349.362 322.304C349.362 312.173 341.144 299.183 331.044 293.343C325.641 290.22 320.477 289.617 316.878 291.701C313.875 293.436 312.22 296.89 312.22 301.426C312.22 311.558 320.437 324.548 330.536 330.386C333.819 332.284 337.013 333.248 339.823 333.248ZM321.763 291.496C324.387 291.496 327.405 292.417 330.535 294.227C340.354 299.902 348.344 312.498 348.344 322.304C348.344 326.461 346.871 329.603 344.194 331.149C340.918 333.043 336.127 332.444 331.043 329.504C321.223 323.829 313.235 311.234 313.235 301.428C313.235 297.271 314.708 294.129 317.385 292.582C318.643 291.855 320.126 291.496 321.763 291.496Z" fill="black"/>
<path d="M314.94 316.775C314.94 318.963 316.713 321.762 318.899 323.025C321.085 324.288 322.858 323.539 322.858 321.351C322.858 319.162 321.085 316.363 318.899 315.1C316.711 313.836 314.94 314.586 314.94 316.775Z" fill="#3DB8DB"/>
<path d="M298.064 234.858C284.066 216.228 281.254 194.699 291.784 186.772C302.313 178.845 322.197 187.521 336.195 206.151C350.193 224.78 353.005 246.309 342.476 254.236C331.946 262.163 312.063 253.487 298.064 234.858Z" fill="#3DB8DB"/>
<path opacity="0.7" d="M298.064 234.858C284.066 216.228 281.254 194.699 291.784 186.772C302.313 178.845 322.197 187.521 336.195 206.151C350.193 224.78 353.005 246.309 342.476 254.236C331.946 262.163 312.063 253.487 298.064 234.858Z" fill="white"/>
<path d="M300.643 238.1C303.175 233.726 309.801 229.298 309.801 229.298L314.364 230.211L324.924 232.256L329.878 233.604C335.649 238.178 331.166 254.505 330.433 257.016C326.388 256.552 321.885 255.003 317.135 252.257C311.095 248.766 305.449 243.812 300.643 238.1Z" fill="#3DB8DB"/>
<path opacity="0.2" d="M300.643 238.1C303.175 233.726 309.801 229.298 309.801 229.298L314.364 230.211L324.924 232.256L329.878 233.604C335.649 238.178 331.166 254.505 330.433 257.016C326.388 256.552 321.885 255.003 317.135 252.257C311.095 248.766 305.449 243.812 300.643 238.1Z" fill="black"/>
<path d="M309.802 235.345C309.844 236.605 312.45 238.649 317.665 237.128C322.879 235.606 324.923 232.256 324.923 232.256V227.778L324.835 220.471L314.364 222.906V230.213C312.582 231.3 309.757 234.082 309.802 235.345Z" fill="#FFA8A7"/>
<path d="M314.364 224.557V228.067C315.615 227.709 319.253 226.611 320.938 225.515C322.99 224.179 323.446 221.893 323.446 221.893L314.364 224.557Z" fill="#F28F8F"/>
<path d="M303.978 212.118C303.978 212.118 303.586 218.381 304.673 221.991C305.76 225.602 307.292 227.276 310.909 226.917C314.527 226.558 317.786 225.612 319.448 225.123C321.11 224.633 322.349 223.655 323.196 222.285C324.043 220.914 324.836 220.468 324.836 220.468L327.171 222.088C327.171 222.088 329.779 220.359 330.886 218.304C331.995 216.249 331.245 208.844 331.245 208.844L314.82 203.038C314.82 203.038 306.411 201.309 306.248 201.342C306.086 201.374 304.684 202.157 304.228 203.267C303.771 204.377 302.631 206.333 302.826 206.758C303.023 207.181 303.978 212.118 303.978 212.118Z" fill="#FFA8A7"/>
<path d="M313.038 214.607C313.038 215.117 313.452 215.531 313.961 215.531C314.471 215.531 314.884 215.117 314.884 214.607C314.884 214.097 314.471 213.683 313.961 213.683C313.452 213.683 313.038 214.097 313.038 214.607Z" fill="black"/>
<path d="M305.5 213.919C305.5 214.43 305.914 214.843 306.423 214.843C306.933 214.843 307.346 214.43 307.346 213.919C307.346 213.409 306.933 212.996 306.423 212.996C305.914 212.994 305.5 213.408 305.5 213.919Z" fill="black"/>
<path d="M307.194 210.29L305 211.247C305 211.247 304.546 210.155 305.501 209.757C306.651 209.28 307.194 210.29 307.194 210.29Z" fill="black"/>
<path d="M310.127 213.412L309.41 219.251L306.425 217.913L310.127 213.412Z" fill="#F28F8F"/>
<path d="M309.916 221.257C310.004 222.236 310.518 222.685 311.008 222.888C311.092 222.922 311.178 222.951 311.264 222.97C311.815 223.108 312.407 222.978 312.881 222.653C313.497 222.236 313.708 221.656 313.768 221.198C313.827 220.783 313.762 220.469 313.762 220.469L309.916 221.257Z" fill="#C87A7B"/>
<path d="M299.763 231.712C304.065 228.41 309.801 229.298 309.801 229.298L302.973 240.731C300.949 238.548 299.049 236.228 297.3 233.813C298.082 233.085 298.902 232.373 299.763 231.712Z" fill="#FFA8A7"/>
<path d="M311.264 222.97C311.815 223.108 312.407 222.978 312.881 222.654C313.497 222.236 313.708 221.656 313.768 221.198C313.299 221.11 312.419 221.046 311.854 221.631C311.477 222.025 311.321 222.537 311.264 222.97Z" fill="#F28F8F"/>
<path d="M325.023 213.89L324.76 217.685C324.76 217.685 322.119 217.392 322.511 214.457C322.511 214.457 309.627 213.293 306.629 202.811C306.629 202.811 303.891 205.638 303.978 212.119C303.978 212.119 300.198 209.901 302.022 205.552C302.022 205.552 299.936 204.725 300.502 202.551C301.067 200.376 302.631 200.159 302.631 200.159C302.631 200.159 299.72 195.417 303.413 193.069C307.106 190.721 312.322 195.113 312.322 195.113C312.322 195.113 320.752 192.373 325.054 196.332C329.356 200.29 329.529 203.205 329.529 203.205C329.529 203.205 334.353 204.596 334.004 210.555C333.657 216.513 329.659 220.646 328.095 222.907C326.531 225.169 324.922 227.779 324.922 227.779L324.836 220.472C324.836 220.472 326.683 221.821 328.899 219.711C331.115 217.601 331.267 214.273 329.421 212.816C328.072 211.753 326.497 212.031 325.642 212.698C325.275 212.983 325.055 213.423 325.023 213.89Z" fill="black"/>
<path d="M291.158 247.366V250.008C291.158 250.732 291.544 251.4 292.172 251.761L339.21 278.861C339.67 279.127 340.245 278.795 340.245 278.264V275.623C340.245 274.898 339.858 274.231 339.232 273.87L292.194 246.769C291.733 246.502 291.158 246.835 291.158 247.366Z" fill="black"/>
<path d="M302.486 260.792V262.214C302.486 262.603 302.695 262.963 303.032 263.157L328.358 277.747C328.606 277.891 328.915 277.712 328.915 277.426V276.004C328.915 275.615 328.706 275.255 328.369 275.061L303.043 260.47C302.796 260.328 302.486 260.507 302.486 260.792Z" fill="#E0E0E0"/>
<path d="M285.419 225.064C285.419 230.396 289.737 237.213 295.064 240.291C300.39 243.37 304.708 241.542 304.708 236.212C304.708 230.88 300.39 224.063 295.064 220.985C289.737 217.907 285.419 219.733 285.419 225.064Z" fill="#3DB8DB"/>
<path d="M294.679 225.635C293.193 224.777 293.017 224.68 292.43 224.368C291.888 224.079 291.593 223.999 291.397 223.963C291.137 223.914 290.953 223.927 290.758 224.01C290.563 224.093 290.442 224.208 290.342 224.41C290.266 224.562 290.175 224.805 290.151 225.334C290.123 225.905 290.118 226.079 290.118 227.566C290.118 229.053 290.123 229.233 290.151 229.835C290.175 230.393 290.266 230.74 290.342 230.981C290.442 231.299 290.563 231.554 290.758 231.861C290.953 232.169 291.137 232.397 291.397 232.648C291.594 232.838 291.888 233.098 292.43 233.437C293.017 233.804 293.193 233.911 294.679 234.77C296.164 235.628 296.34 235.725 296.927 236.037C297.469 236.326 297.765 236.404 297.96 236.442C298.22 236.491 298.405 236.478 298.6 236.395C298.795 236.312 298.916 236.197 299.016 235.995C299.092 235.843 299.183 235.6 299.207 235.071C299.234 234.498 299.239 234.326 299.239 232.839C299.239 231.352 299.234 231.172 299.207 230.569C299.183 230.012 299.092 229.665 299.016 229.424C298.914 229.106 298.794 228.851 298.6 228.544C298.405 228.236 298.22 228.008 297.96 227.757C297.763 227.567 297.469 227.307 296.927 226.968C296.34 226.603 296.164 226.494 294.679 225.635ZM294.679 224.633C296.19 225.506 296.38 225.622 296.973 225.992C297.566 226.361 297.97 226.689 298.325 227.031C298.691 227.385 299.001 227.754 299.31 228.243C299.619 228.731 299.81 229.152 299.952 229.601C300.089 230.035 300.184 230.493 300.211 231.103C300.238 231.713 300.245 231.906 300.245 233.418C300.245 234.931 300.238 235.117 300.211 235.696C300.184 236.274 300.091 236.624 299.952 236.898C299.81 237.182 299.62 237.383 299.31 237.514C299.001 237.644 298.691 237.657 298.325 237.587C297.971 237.521 297.566 237.381 296.973 237.065C296.38 236.749 296.19 236.646 294.679 235.772C293.168 234.899 292.978 234.783 292.384 234.413C291.792 234.044 291.388 233.716 291.033 233.374C290.667 233.02 290.357 232.651 290.048 232.162C289.738 231.674 289.547 231.253 289.405 230.804C289.268 230.37 289.173 229.911 289.146 229.302C289.119 228.693 289.112 228.499 289.112 226.987C289.112 225.474 289.119 225.288 289.146 224.709C289.173 224.132 289.267 223.781 289.405 223.507C289.547 223.223 289.737 223.022 290.048 222.891C290.357 222.761 290.667 222.748 291.033 222.818C291.387 222.884 291.792 223.024 292.384 223.34C292.978 223.656 293.168 223.759 294.679 224.633Z" fill="white"/>
<path d="M294.679 227.342C296.256 228.254 297.536 230.274 297.536 231.854C297.536 233.433 296.256 233.975 294.679 233.063C293.101 232.151 291.822 230.131 291.822 228.551C291.82 226.972 293.1 226.43 294.679 227.342ZM294.679 232.059C295.703 232.651 296.534 232.299 296.534 231.275C296.534 230.251 295.703 228.939 294.679 228.346C293.654 227.754 292.823 228.106 292.823 229.13C292.823 230.154 293.654 231.468 294.679 232.059Z" fill="white"/>
<path d="M291.04 225.126C291.04 225.495 291.339 225.968 291.708 226.181C292.076 226.394 292.376 226.267 292.376 225.898C292.376 225.529 292.076 225.057 291.708 224.844C291.339 224.631 291.04 224.757 291.04 225.126Z" fill="white"/>
<path d="M329.877 233.604C337.439 234.649 338.416 243.261 338.416 243.261V256.348C335.884 257.179 332.977 257.387 329.801 256.938C328.591 252.686 327.301 247.659 326.748 243.849C325.575 235.758 329.877 233.604 329.877 233.604Z" fill="#FFA8A7"/>
<path d="M59.0195 67.6403V135.386C59.0195 138.425 60.6418 141.227 63.2712 142.741L260.683 256.478C262.611 257.596 265.024 256.201 265.024 253.973V186.227C265.024 183.188 263.403 180.388 260.772 178.873L63.3606 65.1359C61.432 64.018 59.0195 65.4127 59.0195 67.6403Z" fill="#3DB8DB"/>
<path opacity="0.7" d="M59.0195 67.6403V135.386C59.0195 138.425 60.6418 141.227 63.2712 142.741L260.683 256.478C262.611 257.596 265.024 256.201 265.024 253.973V186.227C265.024 183.188 263.403 180.388 260.772 178.873L63.3606 65.1359C61.432 64.018 59.0195 65.4127 59.0195 67.6403Z" fill="white"/>
<path d="M189.945 150.71V203.196C189.945 205.55 191.201 207.721 193.239 208.894L253.92 243.853C255.413 244.72 257.282 243.638 257.282 241.913V189.426C257.282 187.072 256.026 184.902 253.987 183.728L193.307 148.77C191.814 147.904 189.945 148.986 189.945 150.71Z" fill="white"/>
<path d="M189.939 195.937V203.195C189.939 205.553 191.2 207.729 193.241 208.892L203.743 214.955L225.081 227.245L214.429 205.039L206.779 189.112C205.386 186.206 202.316 184.428 200.923 185.724L189.939 195.937Z" fill="black"/>
<path d="M203.743 214.954L225.08 227.244L253.918 243.853C255.412 244.717 257.286 243.637 257.286 241.91V237.193L236.33 193.512C234.936 190.623 231.867 188.846 230.473 190.141L214.429 205.039L203.743 214.954Z" fill="black"/>
<path d="M196.083 168.38C196.083 172.677 199.562 178.171 203.854 180.651C208.147 183.131 211.626 181.659 211.626 177.363C211.626 173.066 208.147 167.572 203.854 165.092C199.562 162.612 196.083 164.084 196.083 168.38Z" fill="black"/>
<path d="M67.3601 105.891V107.188C67.3601 107.934 67.7586 108.622 68.4051 108.995L183.348 175.153C183.822 175.428 184.415 175.085 184.415 174.538V173.241C184.415 172.495 184.016 171.806 183.37 171.434L68.4268 105.277C67.9537 105.001 67.3601 105.344 67.3601 105.891Z" fill="white"/>
<path d="M67.3601 115.365V116.662C67.3601 117.408 67.7586 118.097 68.4051 118.469L183.348 184.626C183.822 184.9 184.415 184.558 184.415 184.01V182.713C184.415 181.967 184.016 181.279 183.37 180.906L68.4268 114.749C67.9537 114.475 67.3601 114.818 67.3601 115.365Z" fill="white"/>
<path d="M67.3601 86.9454V88.2424C67.3601 88.9886 67.7586 89.6778 68.4051 90.0495L183.348 156.207C183.822 156.481 184.415 156.139 184.415 155.591V154.294C184.415 153.548 184.016 152.86 183.37 152.487L68.4268 86.3295C67.9537 86.0555 67.3601 86.3987 67.3601 86.9454Z" fill="white"/>
<path d="M67.3601 96.4189V97.7159C67.3601 98.462 67.7586 99.1499 68.4051 99.523L183.348 165.68C183.822 165.956 184.415 165.613 184.415 165.066V163.769C184.415 163.023 184.016 162.335 183.37 161.962L68.4268 95.8043C67.9537 95.5289 67.3601 95.8708 67.3601 96.4189Z" fill="white"/>
<path d="M91.5991 138.858V140.155C91.5991 140.901 91.9976 141.589 92.6441 141.962L183.348 194.1C183.822 194.375 184.415 194.032 184.415 193.485V192.188C184.415 191.442 184.016 190.753 183.37 190.381L92.6658 138.243C92.1927 137.968 91.5991 138.311 91.5991 138.858Z" fill="white"/>
<path d="M188.873 224.116V225.413C188.873 226.159 189.271 226.847 189.918 227.22L263.959 269.849C264.433 270.123 265.025 269.781 265.025 269.233V267.936C265.025 267.19 264.627 266.501 263.98 266.129L189.939 223.5C189.465 223.226 188.873 223.569 188.873 224.116Z" fill="black"/>
<path d="M188.873 126.513V127.809C188.873 128.556 189.271 129.243 189.918 129.617L263.959 172.245C264.433 172.52 265.025 172.178 265.025 171.63V170.333C265.025 169.586 264.627 168.897 263.98 168.526L189.939 125.897C189.465 125.623 188.873 125.964 188.873 126.513Z" fill="black"/>
<path d="M59.0195 252.538V320.284C59.0195 323.323 60.6418 326.125 63.2712 327.639L260.683 441.376C262.611 442.493 265.024 441.099 265.024 438.871V371.125C265.024 368.086 263.403 365.285 260.772 363.771L63.3606 250.034C61.432 248.914 59.0195 250.31 59.0195 252.538Z" fill="#3DB8DB"/>
<path opacity="0.7" d="M59.0195 252.538V320.284C59.0195 323.323 60.6418 326.125 63.2712 327.639L260.683 441.376C262.611 442.493 265.024 441.099 265.024 438.871V371.125C265.024 368.086 263.403 365.285 260.772 363.771L63.3606 250.034C61.432 248.914 59.0195 250.31 59.0195 252.538Z" fill="white"/>
<path d="M189.945 335.608V388.094C189.945 390.448 191.201 392.619 193.239 393.792L253.92 428.75C255.413 429.617 257.282 428.536 257.282 426.81V374.324C257.282 371.97 256.026 369.8 253.987 368.626L193.307 333.668C191.814 332.801 189.945 333.882 189.945 335.608Z" fill="white"/>
<path d="M189.939 380.834V388.093C189.939 390.45 191.2 392.627 193.241 393.789L203.743 399.851L225.081 412.141L214.429 389.935L206.779 374.008C205.386 371.102 202.316 369.325 200.923 370.62L189.939 380.834Z" fill="black"/>
<path d="M203.743 399.851L225.08 412.141L253.918 428.749C255.412 429.613 257.286 428.533 257.286 426.806V422.089L236.33 378.409C234.936 375.519 231.867 373.742 230.473 375.038L214.429 389.935L203.743 399.851Z" fill="black"/>
<path d="M196.083 353.277C196.083 357.573 199.562 363.068 203.854 365.548C208.147 368.028 211.626 366.556 211.626 362.259C211.626 357.963 208.147 352.468 203.854 349.988C199.562 347.508 196.083 348.98 196.083 353.277Z" fill="black"/>
<path d="M67.3601 290.789V292.086C67.3601 292.832 67.7586 293.521 68.4051 293.893L183.348 360.05C183.822 360.325 184.415 359.983 184.415 359.435V358.138C184.415 357.391 184.016 356.704 183.37 356.331L68.4268 290.173C67.9537 289.899 67.3601 290.242 67.3601 290.789Z" fill="white"/>
<path d="M67.3601 300.262V301.559C67.3601 302.306 67.7586 302.993 68.4051 303.367L183.348 369.524C183.822 369.799 184.415 369.456 184.415 368.909V367.612C184.415 366.866 184.016 366.178 183.37 365.805L68.4268 299.648C67.9537 299.373 67.3601 299.716 67.3601 300.262Z" fill="white"/>
<path d="M67.3601 271.843V273.14C67.3601 273.886 67.7586 274.574 68.4051 274.947L183.348 341.105C183.822 341.38 184.415 341.037 184.415 340.49V339.193C184.415 338.447 184.016 337.759 183.37 337.386L68.4268 271.229C67.9537 270.953 67.3601 271.295 67.3601 271.843Z" fill="white"/>
<path d="M67.3601 281.315V282.612C67.3601 283.359 67.7586 284.046 68.4051 284.419L183.348 350.577C183.822 350.852 184.415 350.509 184.415 349.962V348.665C184.415 347.919 184.016 347.23 183.37 346.858L68.4268 280.701C67.9537 280.425 67.3601 280.769 67.3601 281.315Z" fill="white"/>
<path d="M91.5991 323.756V325.053C91.5991 325.799 91.9976 326.488 92.6441 326.86L183.348 378.998C183.822 379.273 184.415 378.93 184.415 378.383V377.086C184.415 376.34 184.016 375.651 183.37 375.279L92.6658 323.141C92.1927 322.866 91.5991 323.208 91.5991 323.756Z" fill="white"/>
<path d="M87.871 51.2504C87.871 53.284 89.519 55.8861 91.5507 57.0596C93.5824 58.2345 95.2305 57.5372 95.2305 55.5035C95.2305 53.4699 93.5824 50.8678 91.5507 49.6943C89.5177 48.5195 87.871 49.2154 87.871 51.2504Z" fill="#3DB8DB"/>
<path d="M75.2552 43.9598C75.2552 45.9935 76.9033 48.5955 78.935 49.769C80.9667 50.9439 82.6147 50.2466 82.6147 48.213C82.6147 46.1793 80.968 43.5773 78.935 42.4037C76.902 41.2289 75.2552 41.9262 75.2552 43.9598Z" fill="#3DB8DB"/>
<path d="M62.64 36.6691C62.64 38.7027 64.2867 41.3048 66.3198 42.4783C68.3514 43.6531 69.9995 42.9558 69.9995 40.9222C69.9995 38.8886 68.3514 36.2865 66.3198 35.113C64.2867 33.9381 62.64 34.6354 62.64 36.6691Z" fill="#3DB8DB"/>
<path opacity="0.4" d="M87.871 51.2504C87.871 53.284 89.519 55.8861 91.5507 57.0596C93.5824 58.2345 95.2305 57.5372 95.2305 55.5035C95.2305 53.4699 93.5824 50.8678 91.5507 49.6943C89.5177 48.5195 87.871 49.2154 87.871 51.2504Z" fill="black"/>
<path opacity="0.4" d="M75.2552 43.9598C75.2552 45.9935 76.9033 48.5955 78.935 49.769C80.9667 50.9439 82.6147 50.2466 82.6147 48.213C82.6147 46.1793 80.968 43.5773 78.935 42.4037C76.902 41.2289 75.2552 41.9262 75.2552 43.9598Z" fill="black"/>
<path opacity="0.4" d="M62.64 36.6691C62.64 38.7027 64.2867 41.3048 66.3198 42.4783C68.3514 43.6531 69.9995 42.9558 69.9995 40.9222C69.9995 38.8886 68.3514 36.2865 66.3198 35.113C64.2867 33.9381 62.64 34.6354 62.64 36.6691Z" fill="black"/>
<path d="M50.4794 162.847L57.0827 158.944L57.0841 158.949C57.9705 158.302 59.193 158.13 60.2772 158.759L260.707 274.235C263.377 275.772 265.024 278.617 265.024 281.702V350.485C265.024 351.832 264.148 352.864 263.032 353.251L263.034 353.254L256.769 357.058L256.991 350.939L60.1878 237.552C57.5177 236.015 55.871 233.17 55.871 230.085V165.617L50.4794 162.847Z" fill="#3DB8DB"/>
<path d="M53.5385 162.763L253.968 278.239C256.638 279.776 258.285 282.621 258.285 285.706V354.488C258.285 355.639 257.648 356.565 256.767 357.054C255.917 357.525 254.839 357.588 253.878 357.031L53.4477 241.555C50.7776 240.018 49.1309 237.173 49.1309 234.088V165.305C49.1309 163.045 51.58 161.627 53.5385 162.763Z" fill="#3DB8DB"/>
<path opacity="0.4" d="M49.1309 165.305V234.088C49.1309 237.173 50.7776 240.016 53.4477 241.555L253.878 357.031C255.835 358.166 258.285 356.75 258.285 354.488V285.706C258.285 282.621 256.638 279.777 253.968 278.239L53.5385 162.763C51.58 161.627 49.1309 163.045 49.1309 165.305Z" fill="white"/>
<path d="M182.058 249.646V302.934C182.058 305.324 183.333 307.528 185.403 308.719L247.01 344.212C248.527 345.091 250.424 343.993 250.424 342.242V288.954C250.424 286.563 249.149 284.36 247.079 283.169L185.472 247.676C183.955 246.797 182.058 247.894 182.058 249.646Z" fill="white"/>
<path d="M182.052 295.565V302.934C182.052 305.328 183.333 307.537 185.404 308.717L196.068 314.872L217.732 327.351L206.916 304.806L199.15 288.635C197.735 285.684 194.618 283.88 193.203 285.194L182.052 295.565Z" fill="#3DB8DB"/>
<path opacity="0.2" d="M182.052 295.565V302.934C182.052 305.328 183.333 307.537 185.404 308.717L196.068 314.872L217.732 327.351L206.916 304.806L199.15 288.635C197.735 285.684 194.618 283.88 193.203 285.194L182.052 295.565Z" fill="black"/>
<path d="M196.068 314.873L217.732 327.351L247.01 344.213C248.527 345.089 250.43 343.993 250.43 342.24V337.451L229.153 293.104C227.738 290.169 224.623 288.365 223.208 289.681L206.918 304.806L196.068 314.873Z" fill="#3DB8DB"/>
<path d="M188.29 267.586C188.29 271.948 191.823 277.526 196.18 280.044C200.538 282.562 204.071 281.069 204.071 276.706C204.071 272.343 200.538 266.765 196.18 264.247C191.823 261.729 188.29 263.223 188.29 267.586Z" fill="#3DB8DB"/>
<path d="M57.599 204.142V205.459C57.599 206.218 58.0029 206.916 58.6602 207.293L175.361 274.463C175.842 274.742 176.444 274.394 176.444 273.839V272.522C176.444 271.763 176.04 271.065 175.383 270.687L58.6819 203.518C58.2008 203.238 57.599 203.586 57.599 204.142Z" fill="white"/>
<path d="M57.599 213.759V215.077C57.599 215.835 58.0029 216.534 58.6602 216.911L175.361 284.08C175.842 284.36 176.444 284.011 176.444 283.456V282.139C176.444 281.381 176.04 280.682 175.383 280.305L58.6819 213.135C58.2008 212.856 57.599 213.204 57.599 213.759Z" fill="white"/>
<path d="M57.599 184.906V186.223C57.599 186.982 58.0029 187.68 58.6602 188.057L175.361 255.227C175.842 255.506 176.444 255.158 176.444 254.603V253.286C176.444 252.527 176.04 251.828 175.383 251.451L58.6819 184.282C58.2008 184.002 57.599 184.35 57.599 184.906Z" fill="white"/>
<path d="M57.599 194.523V195.84C57.599 196.599 58.0029 197.297 58.6602 197.675L175.361 264.844C175.842 265.124 176.444 264.775 176.444 264.22V262.903C176.444 262.144 176.04 261.446 175.383 261.069L58.6819 193.899C58.2008 193.62 57.599 193.968 57.599 194.523Z" fill="white"/>
<path d="M82.2095 237.612V238.929C82.2095 239.688 82.6134 240.386 83.2707 240.764L175.362 293.699C175.844 293.979 176.445 293.63 176.445 293.075V291.758C176.445 290.999 176.041 290.301 175.384 289.924L83.2924 236.989C82.8112 236.709 82.2095 237.057 82.2095 237.612Z" fill="white"/>
<path d="M32.6865 520.569C32.6865 520.569 31.1834 521.139 31.2959 523.538C31.4097 525.98 32.8965 529.831 33.276 532.315C33.6542 534.799 32.6458 540.356 33.4441 541.661C34.2437 542.966 45.4077 547.894 45.4077 547.894L44.3383 529.999C44.3383 529.999 41.2685 522.589 38.6608 521.326C36.0518 520.065 32.6865 520.569 32.6865 520.569Z" fill="#3DB8DB"/>
<path opacity="0.4" d="M32.6865 520.569C32.6865 520.569 31.1834 521.139 31.2959 523.538C31.4097 525.98 32.8965 529.831 33.276 532.315C33.6542 534.799 32.6458 540.356 33.4441 541.661C34.2437 542.966 45.4077 547.894 45.4077 547.894L44.3383 529.999C44.3383 529.999 41.2685 522.589 38.6608 521.326C36.0518 520.065 32.6865 520.569 32.6865 520.569Z" fill="black"/>
<path d="M34.58 519.264L32.6879 520.569C32.6879 520.569 36.8936 520.359 39.1651 523.98C41.4367 527.601 41.5627 536.526 41.6888 539.809C41.8148 543.094 42.5305 546.84 45.8944 548.103C49.2597 549.366 54.7272 547.514 57.1248 545.03C57.1248 545.03 57.6561 542.924 56.8646 541.829C56.0731 540.735 47.4924 540.819 47.4924 540.819C47.4924 540.819 44.6326 526.041 44.6326 525.914C44.6326 525.788 41.3093 519.263 41.3093 519.263H34.58V519.264Z" fill="black"/>
<path d="M105.538 550.138C105.538 550.138 104.715 552.429 105.756 553.061C106.797 553.692 109.415 554.482 112.474 554.45C115.535 554.419 121.371 552.799 123.358 552.694C125.345 552.588 129.415 553.061 134.336 552.904C139.257 552.746 143.043 551.003 144.273 550.138C145.504 549.272 146.068 547.101 145.865 546.45C145.661 545.799 105.538 550.138 105.538 550.138Z" fill="black"/>
<path d="M145.995 546.169C145.621 547.139 143.703 549.716 139.182 550.929C138.839 551.019 138.465 551.101 138.041 551.161C134.155 551.747 127.229 551.262 124.09 551.222C120.597 551.181 117.316 552.737 112.986 552.696C108.645 552.646 106.586 552.019 105.707 550.463C104.818 548.907 105.455 548.058 105.707 544.986C105.96 541.915 106 537.873 106.252 536.186C106.252 536.186 106.626 534.548 107.433 534.457L120.051 533.831C120.757 534.164 121.181 536.477 122.777 537.447C124.381 538.417 129.934 537.831 132.962 537.407C135.99 536.982 140.402 536.73 143.429 538.822C146.46 540.904 146.379 545.199 145.995 546.169Z" fill="black"/>
<path d="M107.113 526.822L107.429 534.464C107.429 534.464 108.375 538.821 113.99 538.821C113.99 538.821 120.047 538.948 120.047 534.085L119.669 524.612L107.113 526.822Z" fill="#FFA8A7"/>
<path d="M145.995 546.169C145.621 547.139 143.703 549.716 139.182 550.928C138.839 551.019 138.465 551.101 138.041 551.16V551.15C139.756 539.489 132.963 537.408 132.963 537.408C135.991 536.983 140.403 536.731 143.431 538.823C146.46 540.904 146.379 545.199 145.995 546.169Z" fill="#3DB8DB"/>
<path d="M44.9686 503.326L41.0151 513.538L50.4361 520.569L56.5771 511.602C56.5771 511.602 53.0858 502.292 44.9686 503.326Z" fill="#FFA8A7"/>
<path d="M56.3255 543.158C55.4065 544.168 53.57 545.754 50.8539 545.956C50.6425 545.967 50.4297 545.977 50.2386 545.997C46.6144 546.149 44.8077 545.179 44.252 542.673C43.6665 540.016 43.9593 528.143 42.0211 524.566C40.0925 520.988 37.3167 519.393 34.5816 519.261L41.0114 513.543C41.0114 513.543 43.7072 512.361 46.8665 514.806C46.8665 514.806 50.8539 517.201 50.4405 520.565C50.0163 523.94 48.2598 525.172 48.3411 529.377C48.4319 533.59 48.9266 536.248 48.9266 536.248C48.9266 536.248 52.5006 535.176 54.68 537.491C55.9514 538.834 56.5274 540.229 56.7903 541.169C56.9814 541.865 56.8093 542.612 56.3255 543.158Z" fill="black"/>
<path d="M122.331 537.118C122.331 537.118 123.072 536.795 124.022 537.367C125.277 538.126 125.536 542.703 125.158 543.461C124.78 544.22 124.148 543.398 123.96 541.725C123.769 540.052 123.126 538.06 122.331 537.118Z" fill="white"/>
<path d="M126.44 537.974C126.44 537.974 127.008 538.252 127.512 539.788C128.016 541.323 127.828 543.303 128.354 543.577C128.88 543.851 129.06 542.525 129.07 541.199C129.086 538.767 128.294 537.901 128.294 537.901C128.294 537.901 127.344 537.002 126.44 537.974Z" fill="white"/>
<path d="M130.016 537.761C130.016 537.761 130.8 538.32 131.803 540.169C132.815 542.034 132.821 543.117 133.128 543.265C133.547 543.467 133.685 542.845 133.615 541.802C133.531 540.562 132.742 538.524 131.59 537.588C131.59 537.588 130.751 536.926 130.016 537.761Z" fill="white"/>
<path d="M56.3255 543.157C55.4065 544.168 53.57 545.754 50.8539 545.956C50.6425 545.967 50.4297 545.977 50.2386 545.997C50.9962 540.904 48.9266 536.247 48.9266 536.247C48.9266 536.247 52.5006 535.175 54.68 537.489C55.9514 538.832 56.5274 540.227 56.7903 541.167C56.9814 541.865 56.8093 542.612 56.3255 543.157Z" fill="#3DB8DB"/>
<path d="M48.6607 526.324C48.6607 526.324 48.1443 527.621 46.3769 528.61C46.3769 528.61 45.9568 529.073 46.503 529.41C47.0492 529.747 48.3517 528.461 48.3517 528.461C48.3517 528.461 49.4482 527.137 48.6607 526.324Z" fill="white"/>
<path d="M48.399 531.033C48.399 531.033 47.8284 532.482 47.0505 533.495C46.2725 534.509 46.2305 535.201 46.7767 535.221C47.3229 535.243 48.1591 534.232 48.54 533.126C48.9222 532.021 48.399 531.033 48.399 531.033Z" fill="white"/>
<path d="M48.6796 534.673C48.6796 534.673 47.8704 536.546 47.0084 537.515C46.1464 538.484 47.2185 538.834 47.8758 538.188C48.7107 537.367 49.6147 535.367 48.6796 534.673Z" fill="white"/>
<path d="M124.382 461.666C124.13 466.466 122.02 490.21 121.607 497.284C121.182 504.357 120.002 527.263 120.002 527.263C120.002 527.263 117.145 528.778 112.522 529.112C107.888 529.455 106.546 527.597 106.546 527.597C106.546 527.597 105.87 521.786 104.951 517.159C104.022 512.531 99.8127 486.512 99.9848 477.752C100.157 468.992 102.004 463.778 102.004 463.778L94.9985 420.784C94.9985 420.784 93.5252 430.08 91.8595 439.851V439.862C90.1843 449.693 88.3166 460 87.559 461.838C86.0451 465.507 56.5785 511.602 56.5785 511.602C56.5785 511.602 52.9841 507.368 50.0783 505.418C47.1806 503.458 44.97 503.326 44.97 503.326C44.97 503.326 56.9621 470.053 59.6077 464.93C62.252 459.817 67.5622 456.654 67.5622 456.654C67.5622 456.654 67.8753 390.228 68.2494 385.864C68.6329 381.509 70.0154 377.093 70.0154 377.093L120.337 384.297C120.337 384.297 124.385 426.219 124.799 433.717C125.22 441.205 124.635 456.867 124.382 461.666Z" fill="black"/>
<path d="M91.8585 439.851L92.2922 421.289L88.3142 405.06C78.1586 404.111 75.5645 396.412 75.5645 396.412C82.1257 402.788 90.9585 402.979 90.9585 402.979L94.9961 420.783C94.9961 420.783 93.5228 430.08 91.8585 439.851Z" fill="black"/>
<path d="M76.7868 309.675C76.7868 309.675 72.6029 311.284 69.575 316.21C66.5472 321.136 54.5592 352.712 55.1908 355.743C55.8223 358.774 72.6557 380.392 72.6557 380.392C72.6557 380.392 78.6613 373.172 79.6073 369.383C79.6073 369.383 72.6679 356.5 71.0266 355.111C71.0266 355.111 75.38 343.743 76.6418 339.954C77.9023 336.165 84.1247 314.76 76.7868 309.675Z" fill="#FFA8A7"/>
<path d="M112.476 281.475C112.476 281.475 116.178 286.443 116.262 287.749C116.346 289.054 112.476 289.012 112.476 289.012V281.475Z" fill="#F28F8F"/>
<path d="M110.089 300.714C109.746 301.007 109.363 301.239 108.948 301.371C108.948 301.371 105.294 302.311 102.104 300.926C102.074 300.915 102.063 300.906 102.063 300.906V310.081H85.5386C85.5386 310.081 86.1038 302.947 86.1648 300.481C86.2352 298.016 81.8954 291.751 85.1753 279.12C88.4566 266.49 102.003 264.59 108.181 269.036C108.181 269.036 111.279 273.523 112.482 277.494C113.582 281.182 114.429 296.945 110.089 300.714Z" fill="#FFA8A7"/>
<path d="M117.983 348.458L120.849 383.864C120.849 383.864 116.63 388.482 99.2261 388.582C99.2261 388.582 99.2153 388.582 99.2058 388.582C98.7111 388.593 98.2164 388.582 97.7122 388.582C79.0369 388.41 68.7715 377.043 68.7715 377.043L78.1085 352.883C78.1085 352.883 73.4353 343.658 71.5066 331.543C71.4958 331.513 71.4958 331.493 71.4958 331.493C71.2843 330.118 71.1027 328.714 70.9604 327.279C69.6172 313.133 75.8356 308.506 81.6405 308.333C87.4455 308.172 105.615 311.032 105.615 311.032L122.271 329.3C122.271 329.3 123.281 337.383 122.695 341.679C122.111 345.971 117.983 348.458 117.983 348.458Z" fill="#3DB8DB"/>
<path opacity="0.2" d="M99.207 388.581C98.7123 388.592 98.2176 388.581 97.7135 388.581C79.0381 388.409 68.7728 377.041 68.7728 377.041L78.1097 352.882C78.1097 352.882 73.4365 343.657 71.5079 331.542C71.8006 332.552 76.5849 348.881 86.5291 355.57C86.5291 355.57 74.8298 358.6 76.5958 369.463C78.3618 380.316 88.4564 386.722 99.207 388.581Z" fill="black"/>
<path d="M110.089 300.714C109.746 301.007 109.362 301.239 108.948 301.371C108.948 301.371 105.294 302.311 102.103 300.926C102.073 300.915 102.062 300.906 102.062 300.906L101.79 299.077C101.79 299.077 106.484 301.562 110.067 300.714C110.078 300.714 110.078 300.714 110.089 300.714Z" fill="#F28F8F"/>
<path d="M100.012 281.508C97.7622 280.69 95.2114 282.14 94.6395 284.466C94.4714 285.151 94.4335 285.965 94.653 286.906C95.4419 290.284 97.6497 293.064 102.129 292.779C102.129 292.779 102.003 298.716 97.4599 300.168C92.9168 301.621 86.1672 300.484 86.1672 300.484C86.1672 300.484 83.9594 297.263 81.9399 295.305C79.9204 293.348 70.8993 284.19 71.5295 275.981C72.1597 267.772 77.9646 266.824 77.9646 266.824C77.9646 266.824 75.3963 263.216 78.1544 259.593C79.1642 258.266 81.0887 256.655 84.2738 258.108C84.2738 258.108 85.0911 252.77 90.1397 252.202C95.187 251.633 97.2078 255.771 97.2078 255.771C97.2078 255.771 101.498 250.814 107.303 253.087C113.107 255.361 111.088 260.887 111.088 260.887C111.088 260.887 116.513 258.613 119.669 263.223C122.823 267.833 119.101 275.349 112.476 277.495C112.476 277.495 111.278 273.896 109.322 272.001C109.322 272.001 108.628 275.664 106.546 275.98C106.546 275.98 108.944 281.79 105.41 283.937C105.41 283.937 107.114 288.546 105.41 288.736C105.41 288.736 104.611 289.473 104.023 286.989C103.609 285.253 102.353 282.359 100.012 281.508Z" fill="black"/>
<path d="M105.62 311.032C105.62 311.032 103.517 316.758 106.21 322.315C108.902 327.872 112.603 331.24 117.314 333.092C122.026 334.944 151.594 337.725 153.402 337.556C156.077 337.303 187.639 318.526 189.743 317.767C191.846 317.009 203.119 313.39 204.549 311.032C205.978 308.674 204.549 306.99 204.549 306.99C204.549 306.99 205.222 304.274 203.203 303.201C203.203 303.201 203.645 300.233 200.995 299.16C200.995 299.16 207.052 290.887 207.304 289.876C207.556 288.865 204.212 288.108 200.491 292.338C196.769 296.57 195.695 297.327 195.695 297.327L189.923 302.095C189.923 302.095 187.746 294.232 183.897 294.959C183.897 294.959 183.266 295.18 183.455 296.254C183.645 297.327 184.401 299.474 184.622 301.401C184.843 303.327 184.433 307.716 184.433 307.716C184.433 307.716 156.767 321.473 154.916 321.557C153.066 321.641 118.593 311.2 113.369 311.116C108.144 311.032 105.62 311.032 105.62 311.032Z" fill="#FFA8A7"/>
</svg>
