<svg width="140" height="140" viewBox="0 0 140 140" fill="none" xmlns="http://www.w3.org/2000/svg">
<rect width="140" height="140" rx="5" fill="white"/>
<path d="M58.9336 93.7349C58.9336 93.7349 55.5658 95.6237 61.3305 96.2628C68.3143 97.0312 71.8834 96.9212 79.5797 95.5162C79.5797 95.5162 81.6032 96.7398 84.4287 97.7998C67.1762 104.931 45.3824 97.3865 58.9336 93.7349ZM56.8254 84.4287C56.8254 84.4287 53.048 87.1255 58.817 87.7009C66.2772 88.4432 72.1687 88.5039 82.3633 86.6107C82.3633 86.6107 83.7734 87.9893 85.9906 88.7434C65.131 94.6262 41.8972 89.2073 56.8254 84.4287Z" fill="#5382A1"/>
<path d="M74.5994 68.643C78.8506 73.3632 73.4825 77.611 73.4825 77.611C73.4825 77.611 84.2766 72.2368 79.3193 65.5069C74.6894 59.2312 71.1387 56.1126 90.3601 45.3613C90.3601 45.3613 60.189 52.629 74.5994 68.643Z" fill="#E76F00"/>
<path d="M97.4163 100.618C97.4163 100.618 99.9086 102.599 94.6714 104.131C84.7131 107.041 53.2232 107.919 44.4753 104.247C41.3308 102.928 47.2279 101.097 49.0827 100.713C51.0172 100.308 52.1229 100.383 52.1229 100.383C48.6257 98.0073 29.5189 105.049 42.4176 107.065C77.594 112.567 106.541 104.588 97.4163 100.618ZM60.553 74.787C60.553 74.787 44.5355 78.4564 54.881 79.7886C59.2491 80.3526 67.9569 80.2251 76.068 79.5695C82.6969 79.0306 89.3531 77.8837 89.3531 77.8837C89.3531 77.8837 87.0157 78.8492 85.3247 79.9628C69.0589 84.0887 37.6364 82.1694 46.6826 77.9489C54.3329 74.3824 60.553 74.787 60.553 74.787ZM89.287 90.2772C105.822 81.9904 98.177 74.027 92.8408 75.1C91.5328 75.3624 90.9497 75.5898 90.9497 75.5898C90.9497 75.5898 91.4353 74.8564 92.3626 74.5389C102.919 70.9594 111.038 85.096 88.9548 90.6949C88.9548 90.6951 89.2107 90.4746 89.287 90.2772Z" fill="#5382A1"/>
<path d="M79.3198 28.0002C79.3198 28.0002 88.4772 36.8354 70.6344 50.4205C56.3266 61.3185 67.3718 67.5321 70.6286 74.6314C62.2767 67.364 56.1475 60.9663 60.2596 55.0121C66.2947 46.2712 83.0144 42.0338 79.3198 28.0002Z" fill="#E76F00"/>
<path d="M62.1786 112.733C78.0501 113.712 102.422 112.189 103 104.946C103 104.946 101.89 107.692 89.8828 109.872C76.3361 112.331 59.6284 112.044 49.7188 110.468C49.719 110.468 51.7471 112.087 62.1786 112.733Z" fill="#5382A1"/>
</svg>
