<svg width="140" height="140" viewBox="0 0 140 140" fill="none" xmlns="http://www.w3.org/2000/svg">
<rect width="140" height="140" rx="5" fill="white"/>
<path d="M70.5 112C93.9721 112 113 92.9721 113 69.5C113 46.0279 93.9721 27 70.5 27C47.0279 27 28 46.0279 28 69.5C28 92.9721 47.0279 112 70.5 112Z" fill="#5C2D91"/>
<path opacity="0.1" d="M42.2252 37.7324C37.9048 41.5824 34.4161 46.2742 31.973 51.5201C29.53 56.7661 28.184 62.4557 28.0176 68.2402C27.8512 74.0248 28.8679 79.7824 31.0053 85.1601C33.1428 90.5378 36.356 95.4224 40.448 99.5143C44.5399 103.606 49.4245 106.82 54.8022 108.957C60.1799 111.094 65.9375 112.111 71.7221 111.945C77.5066 111.778 83.1962 110.432 88.4422 107.989C93.6881 105.546 98.3799 102.058 102.23 97.7371L42.2252 37.7324Z" fill="white"/>
<path d="M37.8279 81.7848C37.58 81.7887 37.334 81.7411 37.1054 81.6451C36.8767 81.5491 36.6705 81.4067 36.4998 81.227C36.3243 81.0536 36.1856 80.8467 36.0921 80.6184C35.9985 80.3902 35.952 80.1455 35.9552 79.8989C35.9535 79.6524 36.0007 79.4081 36.0942 79.1801C36.1877 78.9521 36.3255 78.745 36.4998 78.5707C36.6689 78.3879 36.8745 78.2426 37.1032 78.1443C37.332 78.0459 37.5789 77.9966 37.8279 77.9996C38.0765 77.999 38.3227 78.0494 38.5511 78.1476C38.7795 78.2458 38.9854 78.3898 39.156 78.5707C39.3333 78.7434 39.474 78.95 39.5698 79.1781C39.6656 79.4063 39.7146 79.6514 39.7138 79.8989C39.7162 80.1466 39.6679 80.3921 39.572 80.6205C39.476 80.8488 39.3345 81.0552 39.156 81.227C38.9838 81.4048 38.7773 81.546 38.5491 81.6418C38.3208 81.7377 38.0755 81.7863 37.8279 81.7848Z" fill="white"/>
<path d="M64.2166 81.4544H60.7369L48.2924 62.1435C47.9829 61.6674 47.7247 61.1598 47.5221 60.6294H47.4158C47.5341 61.732 47.5785 62.8412 47.5486 63.9497V81.4544H44.7197V57.2427H48.3986L60.5111 76.2083C61.0158 76.9963 61.3434 77.5364 61.4939 77.8286H61.5604C61.4203 76.6476 61.3626 75.4583 61.3877 74.2692V57.2427H64.2166V81.4544Z" fill="white"/>
<path d="M83.3686 81.4524H70.499V57.2407H82.7709V59.804H73.3943V67.8524H82.1334V70.4024H73.3943V78.7962H83.3818L83.3686 81.4524Z" fill="white"/>
<path d="M102.374 59.804H95.3352V81.4524H92.5062V59.804H85.5469V57.2407H102.374V59.804Z" fill="white"/>
</svg>
