<svg width="140" height="140" viewBox="0 0 140 140" fill="none" xmlns="http://www.w3.org/2000/svg">
<rect width="140" height="140" rx="5" fill="white"/>
<path d="M106.19 65.5806C105.983 65.5806 105.782 65.6286 105.603 65.742L99.9682 69.4028C99.6035 69.639 99.3818 70.0855 99.3818 70.5603V77.8688C99.3818 78.3433 99.6035 78.7891 99.9682 79.0261L101.44 79.9801C102.155 80.3767 102.419 80.3703 102.744 80.3703C103.803 80.3703 104.407 79.6477 104.407 78.3918V71.1815C104.407 71.0796 104.328 71.0066 104.24 71.0066H103.534C103.443 71.0066 103.366 71.0815 103.366 71.1815V78.3955C103.366 78.9522 102.851 79.5123 102.014 79.0416L100.484 78.0323C100.43 77.9991 100.389 77.9387 100.389 77.8708V70.5624C100.389 70.4932 100.43 70.4224 100.484 70.3875L106.108 66.7398C106.161 66.7057 106.223 66.7057 106.275 66.7398L111.899 70.3875C111.952 70.4236 111.995 70.4909 111.995 70.5624V77.8708C111.995 77.9406 111.963 78.012 111.911 78.0457L106.275 81.6934C106.226 81.7258 106.159 81.7258 106.108 81.6934L104.66 80.7244C104.617 80.696 104.558 80.6982 104.517 80.7244C104.117 80.9792 104.042 81.0088 103.667 81.155C103.575 81.1911 103.435 81.2474 103.715 81.4244L105.606 82.6777C105.786 82.7948 105.986 82.8526 106.192 82.8526C106.401 82.8526 106.598 82.7965 106.778 82.6777L112.414 79.03C112.778 78.7913 113 78.3473 113 77.8727V70.5642C113 70.0895 112.778 69.6439 112.414 69.4067L106.778 65.7459C106.602 65.6326 106.399 65.5845 106.192 65.5845L106.19 65.5806ZM107.697 70.8029C106.093 70.8029 105.137 71.5712 105.137 72.8486C105.137 74.2329 106.086 74.6152 107.626 74.7866C109.468 74.9895 109.612 75.2939 109.612 75.7018C109.612 76.4095 109.11 76.7112 107.925 76.7112C106.436 76.7112 106.108 76.293 105.999 75.4579C105.986 75.3685 105.924 75.2965 105.843 75.2965H105.111C105.067 75.2976 105.025 75.3178 104.994 75.3529C104.963 75.388 104.945 75.4352 104.944 75.4849C104.944 76.5517 105.46 77.8132 107.923 77.8132C109.706 77.8132 110.735 77.0275 110.735 75.6463C110.735 74.2808 109.904 73.9117 108.174 73.6541C106.428 73.3922 106.26 73.2669 106.26 72.8062C106.26 72.426 106.401 71.9176 107.696 71.9176C108.852 71.9176 109.279 72.1982 109.455 73.0751C109.47 73.1575 109.535 73.2248 109.61 73.2248H110.342C110.387 73.2248 110.43 73.1937 110.462 73.1575C110.492 73.1187 110.514 73.0751 110.51 73.0228C110.396 71.5124 109.501 70.802 107.698 70.802L107.697 70.8029Z" fill="#83CD29"/>
<path d="M73.0587 56.0002C72.9958 56.0004 72.9339 56.0189 72.8793 56.0541C72.8249 56.0899 72.7798 56.141 72.7483 56.2024C72.7169 56.2637 72.7002 56.3333 72.6999 56.4041V66.7003C72.6999 66.8013 72.658 66.8918 72.5801 66.9425C72.542 66.9675 72.4987 66.9807 72.4545 66.9807C72.4104 66.9807 72.367 66.9675 72.3289 66.9425L70.8333 65.9736C70.7242 65.9026 70.6004 65.8652 70.4743 65.8652C70.3483 65.8652 70.2245 65.9026 70.1154 65.9736L64.1452 69.8496C63.922 69.9944 63.786 70.2731 63.786 70.5629V78.3153C63.7858 78.4571 63.8189 78.5965 63.882 78.7194C63.945 78.8423 64.0357 78.9442 64.145 79.015L70.1154 82.8913C70.2244 82.9625 70.3483 83 70.4743 83C70.6004 83 70.7242 82.9625 70.8333 82.8913L76.8036 79.015C76.9129 78.9442 77.0036 78.8423 77.0667 78.7194C77.1297 78.5965 77.1628 78.4571 77.1626 78.3153V58.9882C77.1626 58.6941 77.02 58.4182 76.7918 58.2749L73.2383 56.0405C73.1825 56.0055 73.1206 55.9995 73.0587 56.0002ZM34.6521 65.6773C34.5382 65.6825 34.4313 65.7048 34.329 65.7715L28.3589 69.6476C28.2495 69.7183 28.1587 69.8203 28.0957 69.9432C28.0326 70.0661 27.9996 70.2055 28 70.3474L28.0121 80.7515C28.0121 80.8963 28.0787 81.0306 28.1917 81.1013C28.3027 81.1762 28.4402 81.1762 28.5506 81.1013L32.0921 78.8132C32.3166 78.6636 32.4629 78.4024 32.4629 78.1136V73.2547C32.4629 72.9648 32.5985 72.6991 32.8221 72.5551L34.3297 71.5727C34.4386 71.5014 34.5625 71.4642 34.6886 71.4649C34.8146 71.4641 34.9386 71.5013 35.0476 71.5727L36.5545 72.5545C36.7778 72.6986 36.9134 72.9646 36.9134 73.2541V78.1129C36.9134 78.4021 37.063 78.6647 37.2842 78.8125L40.8257 81.1006C40.9371 81.1754 41.0743 81.1754 41.1846 81.1006C41.2943 81.0295 41.3642 80.8954 41.3642 80.7508L41.3761 70.347C41.3768 70.2051 41.344 70.0655 41.2809 69.9425C41.2179 69.8195 41.1269 69.7176 41.0173 69.6472L35.0471 65.7714C34.9461 65.7048 34.8387 65.6823 34.724 65.6771H34.6525L34.6521 65.6773ZM88.3016 65.7715C88.1756 65.7711 88.0517 65.8083 87.9426 65.8793L81.9723 69.7556C81.7494 69.9005 81.6131 70.1656 81.6131 70.4552V78.2075C81.6131 78.4989 81.7591 78.7631 81.9839 78.9071L87.9064 82.7044C88.125 82.8447 88.3919 82.8554 88.6123 82.7175L92.2017 80.4698C92.3156 80.3987 92.3926 80.2659 92.3929 80.12C92.3932 79.9741 92.3259 79.8428 92.2133 79.7702L86.2069 75.8939C86.0945 75.8217 86.0156 75.6756 86.0156 75.5305V73.1064C86.0156 72.9616 86.0955 72.8288 86.2069 72.7566L88.0733 71.5452C88.1844 71.473 88.3208 71.473 88.4325 71.5452L90.2998 72.7566C90.3545 72.7919 90.3999 72.8429 90.4314 72.9043C90.4629 72.9657 90.4794 73.0354 90.4792 73.1064V75.0176C90.4791 75.0885 90.4956 75.1582 90.5271 75.2196C90.5586 75.2811 90.604 75.332 90.6586 75.3674C90.7706 75.4399 90.9061 75.4403 91.0178 75.3674L94.5951 73.0259C94.8171 72.8808 94.9543 72.615 94.9543 72.3263V70.4557C94.9543 70.3139 94.9211 70.1746 94.8581 70.0517C94.7951 69.9289 94.7044 69.8269 94.5953 69.7559L88.6608 65.8797C88.5518 65.8086 88.4278 65.7714 88.3018 65.7719L88.3016 65.7715ZM70.4503 71.5592C70.4837 71.559 70.5166 71.5682 70.5461 71.5859L72.592 72.9184C72.6475 72.9545 72.6877 73.0213 72.6877 73.0933V75.7581C72.6877 75.8305 72.6478 75.8971 72.592 75.933L70.5461 77.2655C70.4904 77.301 70.4224 77.301 70.3665 77.2655L68.3206 75.933C68.2649 75.8969 68.2248 75.8302 68.2248 75.7581V73.0929C68.2248 73.0207 68.2651 72.9545 68.3206 72.918L70.3665 71.5858C70.3944 71.5676 70.419 71.5592 70.4503 71.5592Z" fill="#404137"/>
<path d="M52.5868 65.7312C52.4608 65.7309 52.3369 65.7681 52.2276 65.8389L46.2573 69.7017C46.0341 69.8465 45.8984 70.1254 45.8984 70.415V78.1673C45.8981 78.3092 45.9311 78.4486 45.9941 78.5715C46.0572 78.6943 46.148 78.7963 46.2573 78.8669L52.2276 82.7432C52.3367 82.8144 52.4605 82.8519 52.5866 82.8519C52.7127 82.8519 52.8365 82.8144 52.9455 82.7432L58.9159 78.8669C59.0252 78.7961 59.1159 78.6941 59.1789 78.5713C59.242 78.4484 59.2751 78.309 59.2749 78.1671V70.4148C59.2749 70.1248 59.1392 69.8461 58.9157 69.7015L52.9454 65.8387C52.8363 65.7676 52.7123 65.7304 52.5862 65.731L52.5868 65.7312ZM88.2895 72.6492C88.2657 72.6492 88.2393 72.6492 88.2177 72.6623L87.0691 73.4162C87.0477 73.4295 87.0298 73.449 87.0172 73.4726C87.0046 73.4962 86.9977 73.5231 86.9973 73.5507V75.0312C86.9973 75.087 87.0261 75.1379 87.0691 75.1659L88.2177 75.9061C88.2374 75.9199 88.2602 75.9272 88.2834 75.9272C88.3066 75.9272 88.3293 75.9199 88.3491 75.9061L89.4976 75.1659C89.5402 75.1384 89.5695 75.087 89.5695 75.0312V73.5507C89.5695 73.4949 89.5404 73.444 89.4976 73.416L88.3491 72.6621C88.3278 72.6479 88.3131 72.649 88.2892 72.649L88.2895 72.6492Z" fill="#83CD29"/>
</svg>
