<svg width="140" height="140" viewBox="0 0 140 140" fill="none" xmlns="http://www.w3.org/2000/svg">
<rect width="140" height="140" rx="5" fill="white"/>
<path d="M69.9938 27.0007C66.4886 27.0166 63.1417 27.3123 60.1971 27.8281C51.5213 29.3445 49.9461 32.5172 49.9461 38.3695V46.0981H70.448V48.6741H42.2513C36.2931 48.6741 31.0751 52.2166 29.4434 58.9553C27.5608 66.6794 27.4774 71.4993 29.4434 79.5645C30.9008 85.568 34.3815 89.8456 40.3397 89.8456H47.3891V80.5809C47.3891 73.8877 53.244 67.984 60.1971 67.984H80.6753C86.3758 67.984 90.9263 63.3418 90.9263 57.6794V38.3687C90.9263 32.8734 86.2389 28.7448 80.6753 27.8274C77.1525 27.2481 73.499 26.9841 69.9938 27.0007ZM58.9063 33.216C61.0244 33.216 62.7533 34.9548 62.7533 37.0921C62.7533 39.2218 61.0236 40.9447 58.9063 40.9447C56.7813 40.9447 55.0593 39.2226 55.0593 37.0921C55.0593 34.9548 56.7813 33.216 58.9063 33.216Z" fill="url(#paint0_linear_1023_4654)"/>
<path d="M93.4835 48.6738V57.6784C93.4835 64.6598 87.4993 70.5355 80.6755 70.5355H60.1973C54.5878 70.5355 49.9463 75.2836 49.9463 80.8401V100.149C49.9463 105.645 54.7774 108.878 60.1973 110.454C66.6869 112.342 72.9104 112.683 80.6755 110.454C85.8369 108.976 90.9265 106.001 90.9265 100.149V92.4214H70.4482V89.8454H101.177C107.136 89.8454 109.356 85.7341 111.428 79.5642C113.569 73.2128 113.478 67.1034 111.428 58.955C109.956 53.0884 107.143 48.6738 101.177 48.6738H93.4835ZM81.9655 97.5733C84.0905 97.5733 85.8125 99.2954 85.8125 101.426C85.8125 103.563 84.0905 105.302 81.9655 105.302C79.8474 105.302 78.1185 103.563 78.1185 101.426C78.1185 99.2961 79.8482 97.5733 81.9655 97.5733Z" fill="url(#paint1_linear_1023_4654)"/>
<defs>
<linearGradient id="paint0_linear_1023_4654" x1="25.9779" y1="29.4141" x2="72.8177" y2="69.7638" gradientUnits="userSpaceOnUse">
<stop stop-color="#5A9FD4"/>
<stop offset="1" stop-color="#306998"/>
</linearGradient>
<linearGradient id="paint1_linear_1023_4654" x1="90.9954" y1="94.0934" x2="74.2793" y2="70.4128" gradientUnits="userSpaceOnUse">
<stop stop-color="#FFD43B"/>
<stop offset="1" stop-color="#FFE873"/>
</linearGradient>
</defs>
</svg>
